<?xml version="1.0" encoding="utf-8"?>
<!-- Generator: Adobe Illustrator 16.0.0, SVG Export Plug-In . SVG Version: 6.00 Build 0)  -->
<!DOCTYPE svg PUBLIC "-//W3C//DTD SVG 1.1//EN" "http://www.w3.org/Graphics/SVG/1.1/DTD/svg11.dtd">
<svg version="1.1" id="Camada_1" xmlns="http://www.w3.org/2000/svg" xmlns:xlink="http://www.w3.org/1999/xlink" x="0px" y="0px"
	 width="585px" height="360px" viewBox="-0.462 0.051 585 360" enable-background="new -0.462 0.051 585 360" xml:space="preserve">
<g>
	
		<linearGradient id="SVGID_1_" gradientUnits="userSpaceOnUse" x1="960.127" y1="-939.4177" x2="1269.627" y2="-939.4177" gradientTransform="matrix(5.223757e-11 -1.1635 1.1635 5.223757e-11 1385.051 1477.2621)">
		<stop  offset="0" style="stop-color:#1EA2F7"/>
		<stop  offset="1" style="stop-color:#1EA1F7"/>
	</linearGradient>
	<rect y="0.051" fill="url(#SVGID_1_)" width="584.076" height="360.103"/>
	<g>
		<g enable-background="new    ">
			<g>
				<g>
					<defs>
						<polygon id="SVGID_2_" points="-146.884,371.108 -146.651,241.494 -36.468,195.186 -36.701,324.8 						"/>
					</defs>
					<clipPath id="SVGID_3_">
						<use xlink:href="#SVGID_2_"  overflow="visible"/>
					</clipPath>
					<g clip-path="url(#SVGID_3_)">
						<path fill="#FFC000" d="M-91.734,311.188c-2.676,1.162-5.352,4.071-7.446,8.492c-4.072,8.844-4.072,20.595,0,26.062
							c2.094,2.676,4.77,3.374,7.446,2.211c2.676-1.164,5.352-4.072,7.446-8.494c4.188-8.959,4.188-20.594,0.116-26.062
							C-86.382,310.722-89.058,310.024-91.734,311.188"/>
						<path fill="#FFC000" d="M-91.734,265.462c-13.031,5.469-26.062,19.431-36.068,40.606l9.773,12.914
							c7.097-14.894,16.405-25.364,26.295-29.438l0,0c9.89-4.188,19.198-1.396,26.295,7.563l9.773-21.292
							C-65.671,263.018-78.702,259.993-91.734,265.462"/>
						<path fill="#FFC000" d="M-91.618,218.34c-19.896,8.378-39.792,29.786-55.15,62.364l9.773,12.914
							c12.566-26.76,28.971-44.329,45.26-51.193c16.405-6.864,32.811-3.024,45.376,13.265l9.773-21.177
							C-51.709,214.734-71.722,209.963-91.618,218.34"/>
					</g>
				</g>
			</g>
		</g>
	</g>
	<g>
		<g enable-background="new    ">
			<g>
				<path fill="#FBFBFB" d="M113.179,68.505l4.339,2.83c-2.641-1.697-6.415-1.603-10.659,0.566
					c-1.697,0.849-3.208,1.981-4.811,3.302l-4.339-2.83c1.509-1.321,3.113-2.452,4.811-3.302
					C106.766,66.901,110.538,66.807,113.179,68.505z"/>
				<path fill="#FBFBFB" d="M48.655,85.013c3.679-1.98,7.169-2.642,10.093-2.358c4.434-7.453,10.66-13.868,17.452-17.453
					c6.415-3.396,12.169-3.49,16.226-0.849l4.339,2.83c-4.057-2.547-9.717-2.453-16.226,0.849
					c-6.792,3.584-13.018,9.999-17.452,17.451c-2.924-0.377-6.415,0.377-10.093,2.359c-11.509,6.037-21.226,21.319-21.697,34.149
					c-0.283,6.415,1.792,10.942,5.377,13.301l-4.339-2.831c-3.584-2.264-5.66-6.887-5.377-13.301
					C27.524,106.332,37.241,91.051,48.655,85.013z"/>
			</g>
			<g>
				<path fill="#E2E2E2" d="M80.635,68.034c-6.792,3.584-13.018,10-17.451,17.451c-2.925-0.377-6.415,0.378-10.094,2.359
					c-11.509,6.037-21.226,21.319-21.697,34.149c-0.472,12.829,8.396,18.489,19.81,12.452l54.337-28.395
					c8.396-4.433,15.565-15.659,15.942-25.093c0.377-9.433-6.131-13.489-14.527-9.15c-1.699,0.85-3.208,1.981-4.811,3.302
					C99.785,65.864,91.2,62.562,80.635,68.034z"/>
			</g>
		</g>
	</g>
	<g>
		<g enable-background="new    ">
			<g>
				<path fill="#FBFBFB" d="M317.104,283.453l3.84,2.442c-2.327-1.513-5.701-1.396-9.425,0.581
					c-1.514,0.814-2.908,1.745-4.188,3.025l-3.84-2.443c1.396-1.163,2.793-2.211,4.188-3.024
					C311.403,282.057,314.777,281.941,317.104,283.453z"/>
				<path fill="#FBFBFB" d="M259.86,298.346c3.258-1.745,6.399-2.327,8.959-2.095c3.956-6.632,9.541-12.449,15.475-15.591
					c5.701-3.025,10.82-3.143,14.428-0.814l3.84,2.443c-3.606-2.327-8.609-2.211-14.428,0.813
					c-6.051,3.143-11.519,8.959-15.475,15.591c-2.56-0.349-5.701,0.351-8.959,2.096c-10.239,5.352-18.849,19.081-19.314,30.6
					c-0.232,5.701,1.629,9.773,4.771,11.868l-3.839-2.443c-3.142-1.979-5.003-6.167-4.771-11.868
					C241.012,317.427,249.621,303.698,259.86,298.346z"/>
			</g>
			<g>
				<path fill="#E2E2E2" d="M288.134,283.104c-6.051,3.143-11.519,8.959-15.475,15.591c-2.56-0.349-5.701,0.351-8.959,2.096
					c-10.239,5.352-18.849,19.081-19.314,30.6c-0.465,11.52,7.447,16.521,17.686,11.17l48.285-25.364
					c7.445-3.956,13.846-13.962,14.193-22.456c0.351-8.492-5.468-12.1-12.915-8.145c-1.512,0.814-2.907,1.746-4.188,3.025
					C305.12,281.126,297.558,278.217,288.134,283.104z"/>
			</g>
		</g>
	</g>
	<g>
		<g enable-background="new    ">
			<g>
				<path fill="#FBFBFB" d="M301.113,64.858l2.211,1.396c-1.28-0.813-3.258-0.813-5.354,0.35c-0.813,0.465-1.629,1.047-2.442,1.746
					l-2.21-1.396c0.813-0.698,1.628-1.28,2.441-1.745C297.855,64.043,299.834,63.927,301.113,64.858z"/>
				<path fill="#FBFBFB" d="M268.419,73.236c1.862-0.931,3.607-1.396,5.12-1.164c2.21-3.84,5.352-7.098,8.842-8.843
					c3.258-1.745,6.167-1.745,8.146-0.465l2.211,1.396c-1.979-1.28-4.887-1.28-8.146,0.465c-3.49,1.862-6.632,5.12-8.843,8.843
					c-1.513-0.115-3.258,0.233-5.119,1.164c-5.818,3.025-10.704,10.82-10.937,17.453c-0.116,3.258,0.931,5.584,2.676,6.748
					l-2.211-1.396c-1.745-1.164-2.792-3.491-2.676-6.749C257.715,84.171,262.718,76.376,268.419,73.236z"/>
			</g>
			<g>
				<path fill="#E2E2E2" d="M284.592,64.625c-3.49,1.862-6.632,5.12-8.843,8.843c-1.513-0.115-3.258,0.233-5.119,1.164
					c-5.818,3.025-10.704,10.82-10.937,17.453c-0.233,6.517,4.188,9.424,10.006,6.399l27.458-14.427
					c4.306-2.211,7.912-7.912,8.028-12.799c0.231-4.771-3.143-6.864-7.33-4.653c-0.814,0.465-1.629,1.047-2.443,1.746
					C294.365,63.461,289.943,61.833,284.592,64.625z"/>
			</g>
		</g>
	</g>
	<g>
		<g enable-background="new    ">
			<g>
				<path fill="#FBFBFB" d="M191.745,19.482l2.21,1.396c-1.28-0.813-3.258-0.813-5.352,0.35c-0.814,0.466-1.629,1.047-2.443,1.746
					l-2.21-1.396c0.814-0.698,1.629-1.28,2.443-1.745C188.487,18.667,190.348,18.667,191.745,19.482z"/>
				<path fill="#FBFBFB" d="M159.05,27.976c1.861-0.932,3.607-1.396,5.119-1.164c2.211-3.839,5.352-7.098,8.843-8.844
					c3.258-1.744,6.167-1.744,8.145-0.465l2.21,1.396c-1.978-1.28-4.887-1.28-8.145,0.465c-3.49,1.861-6.632,5.119-8.842,8.842
					c-1.513-0.116-3.258,0.233-5.12,1.164c-5.817,3.025-10.704,10.821-10.937,17.453c-0.117,3.258,0.931,5.585,2.676,6.748
					l-2.21-1.396c-1.746-1.164-2.792-3.489-2.676-6.748C148.346,38.795,153.233,31,159.05,27.976z"/>
			</g>
			<g>
				<path fill="#E2E2E2" d="M175.223,19.249c-3.49,1.861-6.632,5.119-8.842,8.842c-1.513-0.115-3.258,0.233-5.12,1.164
					c-5.817,3.025-10.704,10.82-10.937,17.453c-0.233,6.516,4.188,9.424,10.006,6.399l27.458-14.427
					c4.305-2.211,7.912-7.912,8.028-12.799c0.232-4.771-3.142-6.864-7.33-4.653c-0.814,0.466-1.629,1.047-2.443,1.746
					C184.88,18.085,180.575,16.456,175.223,19.249z"/>
			</g>
		</g>
	</g>
	<g enable-background="new    ">
		<g enable-background="new    ">
			<g>
				<g>
					<defs>
						<path id="SVGID_4_" d="M-96.366,71.615l30.367,16.639c1.048,0.582,1.979,1.279,2.908,2.211l-30.366-16.639
							C-94.387,72.895-95.318,72.197-96.366,71.615z"/>
					</defs>
					<clipPath id="SVGID_5_">
						<use xlink:href="#SVGID_4_"  overflow="visible"/>
					</clipPath>
					<g clip-path="url(#SVGID_5_)">
						<path fill="#E2E2E2" d="M-63.089,90.347l-30.366-16.638c-0.814-0.932-1.745-1.63-2.909-2.212l30.367,16.639
							C-64.951,88.718-64.02,89.531-63.089,90.347"/>
					</g>
				</g>
			</g>
		</g>
		<g>
			<g>
				<path id="SVGID_6_" fill="#E2E2E2" d="M-87.407,63.702l30.482,16.522c-10.122-5.585-25.597-0.117-25.829,0l-30.366-16.638
					C-112.887,63.587-97.529,58.117-87.407,63.702z"/>
			</g>
			<g>
				<g>
					<defs>
						<path id="SVGID_7_" d="M-87.407,63.702l30.482,16.522c-10.122-5.585-25.597-0.117-25.829,0l-30.366-16.638
							C-112.887,63.587-97.529,58.117-87.407,63.702z"/>
					</defs>
					<clipPath id="SVGID_9_">
						<use xlink:href="#SVGID_7_"  overflow="visible"/>
					</clipPath>
					<g clip-path="url(#SVGID_9_)" enable-background="new    ">
						<path fill="#E2E2E2" d="M-82.752,80.225l-30.366-16.638c0,0,0.115,0,0.231-0.116l30.251,16.754H-82.752"/>
						<path fill="#E2E2E2" d="M-82.636,80.225l-30.367-16.638c0.466-0.116,1.514-0.466,3.025-0.932l30.367,16.639
							C-81.125,79.759-82.17,80.108-82.636,80.225"/>
						<path fill="#E2E2E2" d="M-79.611,79.294l-30.367-16.521c1.047-0.232,2.21-0.465,3.49-0.813l30.367,16.638
							C-77.401,78.827-78.564,79.061-79.611,79.294"/>
						<path fill="#E2E2E2" d="M-76.121,78.596l-30.367-16.638c0.931-0.233,1.978-0.35,3.024-0.466l30.367,16.639
							C-74.143,78.246-75.074,78.363-76.121,78.596"/>
						<path fill="#E2E2E2" d="M-72.979,78.13l-30.367-16.639c0.814-0.115,1.745-0.232,2.561-0.232l30.366,16.638
							C-71.35,77.898-72.165,78.014-72.979,78.13"/>
						<path fill="#E2E2E2" d="M-70.419,77.898l-30.366-16.638c0.697,0,1.513-0.116,2.211-0.116l30.366,16.638
							C-68.907,77.781-69.721,77.781-70.419,77.898"/>
						<path fill="#E2E2E2" d="M-68.208,77.781l-30.366-16.638c0.696,0,1.278,0,1.978,0.116l30.367,16.638
							C-66.813,77.781-67.51,77.781-68.208,77.781"/>
						<path fill="#E2E2E2" d="M-66.231,77.898L-96.598,61.26c0.582,0,1.163,0.117,1.745,0.117l30.367,16.638
							C-65.067,77.898-65.649,77.898-66.231,77.898"/>
						<path fill="#E2E2E2" d="M-64.486,78.014l-30.367-16.638c0.466,0.115,0.931,0.115,1.513,0.231l30.367,16.638
							C-63.555,78.13-64.02,78.13-64.486,78.014"/>
						<path fill="#E2E2E2" d="M-62.973,78.246l-30.482-16.638c0.465,0.116,0.931,0.233,1.396,0.233l30.367,16.638
							C-62.042,78.363-62.507,78.363-62.973,78.246"/>
						<path fill="#E2E2E2" d="M-61.693,78.479L-92.06,61.841c0.349,0.116,0.814,0.231,1.163,0.349l30.367,16.638
							C-60.878,78.712-61.228,78.596-61.693,78.479"/>
						<path fill="#E2E2E2" d="M-60.414,78.827L-90.781,62.19c0.35,0.116,0.813,0.232,1.164,0.349l30.25,16.639
							C-59.715,79.061-60.064,78.945-60.414,78.827"/>
						<path fill="#E2E2E2" d="M-59.367,79.177l-30.367-16.639c0.35,0.117,0.698,0.233,0.932,0.35l30.367,16.638
							C-58.668,79.527-59.017,79.294-59.367,79.177"/>
						<path fill="#E2E2E2" d="M-58.319,79.643l-30.367-16.638c0.349,0.115,0.698,0.349,0.931,0.465l30.367,16.638
							C-57.738,79.876-57.97,79.759-58.319,79.643"/>
						<path fill="#E2E2E2" d="M-57.388,80.108L-87.755,63.47c0.116,0.116,0.232,0.116,0.466,0.231l30.366,16.522
							C-57.156,80.225-57.272,80.108-57.388,80.108"/>
					</g>
				</g>
			</g>
		</g>
		<g>
			<polygon fill="#CBCBCC" points="-83.567,80.573 -114.05,63.936 -113.12,63.702 -82.752,80.225 			"/>
		</g>
		<g enable-background="new    ">
			<g>
				<path id="SVGID_8_" fill="#9A999E" d="M-94.969,93.838l-30.367-16.639c6.399-19.081,1.745-25.248,0.35-26.527L-94.62,67.31
					C-93.224,68.59-88.57,74.756-94.969,93.838z"/>
			</g>
			<g>
				<g>
					<defs>
						<path id="SVGID_10_" d="M-94.969,93.838l-30.367-16.639c6.399-19.081,1.745-25.248,0.35-26.527L-94.62,67.31
							C-93.224,68.59-88.57,74.756-94.969,93.838z"/>
					</defs>
					<clipPath id="SVGID_11_">
						<use xlink:href="#SVGID_10_"  overflow="visible"/>
					</clipPath>
					<g clip-path="url(#SVGID_11_)" enable-background="new    ">
						<path fill="#9A999E" d="M-94.969,93.838l-30.367-16.639c0.232-0.813,0.466-1.512,0.698-2.21l30.367,16.639
							C-94.387,92.324-94.621,93.023-94.969,93.838"/>
						<path fill="#9A999E" d="M-94.155,91.627l-30.367-16.639c0.232-0.813,0.465-1.513,0.698-2.21l30.367,16.639
							C-93.689,90.115-93.922,90.813-94.155,91.627"/>
						<path fill="#9A999E" d="M-93.573,89.416l-30.367-16.639c0.231-0.698,0.349-1.396,0.581-2.095l30.367,16.521
							C-93.108,87.904-93.34,88.602-93.573,89.416"/>
						<path fill="#9A999E" d="M-92.992,87.205l-30.367-16.521c0.116-0.698,0.35-1.396,0.466-2.094l30.367,16.638
							C-92.642,85.809-92.875,86.508-92.992,87.205"/>
						<path fill="#9A999E" d="M-92.526,85.112l-30.367-16.521c0.116-0.698,0.232-1.396,0.349-2.095l30.367,16.639
							C-92.293,83.715-92.41,84.412-92.526,85.112"/>
						<path fill="#9A999E" d="M-92.177,83.017l-30.367-16.638c0.116-0.698,0.233-1.514,0.351-2.211l30.367,16.638
							C-91.944,81.62-92.06,82.319-92.177,83.017"/>
						<path fill="#9A999E" d="M-91.828,80.923l-30.367-16.639c0.116-0.813,0.116-1.629,0.231-2.442l30.367,16.638
							C-91.711,79.294-91.711,80.108-91.828,80.923"/>
						<path fill="#9A999E" d="M-91.711,78.479l-30.366-16.638c0.349-7.33-1.979-10.355-2.909-11.17l30.367,16.638
							C-93.689,68.24-91.363,71.15-91.711,78.479"/>
					</g>
				</g>
			</g>
		</g>
		<g enable-background="new    ">
			<g>
				<g>
					<defs>
						<path id="SVGID_13_" d="M-128.129,48.112l30.368,16.522c1.163,0.698,2.21,1.512,3.142,2.676l-30.367-16.638
							C-125.802,49.625-126.849,48.694-128.129,48.112z"/>
					</defs>
					<clipPath id="SVGID_15_">
						<use xlink:href="#SVGID_13_"  overflow="visible"/>
					</clipPath>
					<g clip-path="url(#SVGID_15_)">
						<path fill="#9A999E" d="M-94.503,67.31l-30.367-16.638c-0.932-1.164-1.979-1.979-3.142-2.677l30.251,16.639
							C-96.482,65.332-95.435,66.146-94.503,67.31"/>
					</g>
				</g>
			</g>
		</g>
		<g>
			<g>
				<path id="SVGID_12_" fill="#E2E2E2" d="M-122.428,39.617l30.368,16.639c-5.469-3.025-13.846-2.677-20.595,0.813
					c-1.979,1.047-3.724,2.21-6.166,3.839l-30.483-16.754c2.443-1.629,4.306-2.792,6.166-3.84
					C-136.273,36.943-127.896,36.594-122.428,39.617z"/>
			</g>
			<g>
				<g>
					<defs>
						<path id="SVGID_16_" d="M-122.428,39.617l30.368,16.639c-5.469-3.025-13.846-2.677-20.595,0.813
							c-1.979,1.047-3.724,2.21-6.166,3.839l-30.483-16.754c2.443-1.629,4.306-2.792,6.166-3.84
							C-136.273,36.943-127.896,36.594-122.428,39.617z"/>
					</defs>
					<clipPath id="SVGID_17_">
						<use xlink:href="#SVGID_16_"  overflow="visible"/>
					</clipPath>
					<g clip-path="url(#SVGID_17_)" enable-background="new    ">
						<path fill="#E2E2E2" d="M-118.821,60.794l-30.483-16.639c2.443-1.629,4.305-2.792,6.166-3.84
							c0.351-0.231,0.814-0.349,1.164-0.582l30.367,16.638c-0.35,0.233-0.814,0.35-1.164,0.582
							C-114.632,58.002-116.377,59.164-118.821,60.794"/>
						<path fill="#E2E2E2" d="M-111.491,56.372l-30.367-16.638c0.698-0.349,1.513-0.582,2.327-0.931l30.367,16.638
							C-109.978,55.791-110.792,56.024-111.491,56.372"/>
						<path fill="#E2E2E2" d="M-109.281,55.558l-30.367-16.638c0.582-0.233,1.28-0.35,1.979-0.582l30.367,16.638
							C-108,55.093-108.583,55.325-109.281,55.558"/>
						<path fill="#E2E2E2" d="M-107.302,54.977l-30.367-16.638c0.582-0.116,1.163-0.232,1.745-0.35l30.367,16.639
							C-106.139,54.628-106.72,54.861-107.302,54.977"/>
						<path fill="#E2E2E2" d="M-105.557,54.511l-30.367-16.639c0.582-0.115,1.163-0.231,1.629-0.231l30.367,16.638
							C-104.394,54.395-104.975,54.511-105.557,54.511"/>
						<path fill="#E2E2E2" d="M-103.928,54.279l-30.367-16.638c0.467-0.117,1.048-0.117,1.514-0.117l30.367,16.638
							C-102.881,54.161-103.346,54.279-103.928,54.279"/>
						<path fill="#E2E2E2" d="M-102.299,54.161l-30.366-16.638c0.465,0,0.931,0,1.513,0l30.367,16.638
							C-101.369,54.161-101.833,54.161-102.299,54.161"/>
						<path fill="#E2E2E2" d="M-100.903,54.161l-30.367-16.638c0.465,0,0.931,0,1.396,0l30.367,16.638
							C-99.972,54.161-100.438,54.161-100.903,54.161"/>
						<path fill="#E2E2E2" d="M-99.507,54.161l-30.367-16.638c0.467,0,0.814,0.117,1.28,0.117l30.367,16.638
							C-98.576,54.279-99.041,54.161-99.507,54.161"/>
						<path fill="#E2E2E2" d="M-98.227,54.279l-30.367-16.638c0.35,0,0.814,0.116,1.163,0.231l30.367,16.639
							C-97.413,54.395-97.761,54.395-98.227,54.279"/>
						<path fill="#E2E2E2" d="M-97.064,54.511l-30.367-16.639c0.351,0.116,0.698,0.116,1.048,0.233l30.367,16.638
							C-96.25,54.628-96.598,54.511-97.064,54.511"/>
						<path fill="#E2E2E2" d="M-95.9,54.743l-30.367-16.638c0.349,0.116,0.698,0.116,1.047,0.232l30.367,16.638
							C-95.202,54.861-95.551,54.743-95.9,54.743"/>
						<path fill="#E2E2E2" d="M-94.969,54.977l-30.367-16.638c0.35,0.116,0.582,0.232,0.932,0.349l30.367,16.638
							C-94.271,55.209-94.621,55.093-94.969,54.977"/>
						<path fill="#E2E2E2" d="M-94.039,55.325l-30.367-16.638c0.231,0.116,0.582,0.233,0.813,0.349l30.483,16.639
							C-93.457,55.558-93.689,55.442-94.039,55.325"/>
						<path fill="#E2E2E2" d="M-93.108,55.675l-30.367-16.639c0.232,0.116,0.466,0.233,0.814,0.35l30.366,16.638
							C-92.642,55.906-92.875,55.791-93.108,55.675"/>
						<path fill="#E2E2E2" d="M-92.41,56.024l-30.367-16.638c0.116,0,0.231,0.116,0.349,0.116L-92.06,56.14
							C-92.177,56.14-92.293,56.024-92.41,56.024"/>
					</g>
				</g>
			</g>
		</g>
		<g enable-background="new    ">
			<g>
				<path id="SVGID_14_" fill="#9A999E" d="M-160.242,50.905l30.367,16.639c3.024,1.629,5.585,3.723,7.796,6.398l-30.367-16.638
					C-154.657,54.743-157.216,52.532-160.242,50.905z"/>
			</g>
			<g>
				<g>
					<defs>
						<path id="SVGID_18_" d="M-160.242,50.905l30.367,16.639c3.024,1.629,5.585,3.723,7.796,6.398l-30.367-16.638
							C-154.657,54.743-157.216,52.532-160.242,50.905z"/>
					</defs>
					<clipPath id="SVGID_19_">
						<use xlink:href="#SVGID_18_"  overflow="visible"/>
					</clipPath>
					<g clip-path="url(#SVGID_19_)" enable-background="new    ">
						<path fill="#9A999E" d="M-121.962,73.942l-30.366-16.638c-2.211-2.676-4.888-4.771-7.796-6.399l30.366,16.639
							C-126.849,69.172-124.173,71.266-121.962,73.942"/>
					</g>
				</g>
			</g>
		</g>
		<path fill="#E2E2E2" d="M-57.388,107.683L-57.388,107.683c0-0.698,0-1.28,0-1.862c0-5.352-1.396-10.006-3.84-13.38
			c-0.581-0.813-1.279-1.513-1.978-2.211l-28.391-15.591c0.698,0.698-0.582,0.465,0,1.164c2.443,3.374,3.84,7.912,3.84,13.38
			c0,0.582,0,1.163,0,1.745c0,0.116,0,0.231,0,0.349c0,0.698-0.115,1.28-0.115,1.979c0,0.115,0,0.349,0,0.465
			c-0.116,0.465-0.116,1.047-0.233,1.512c0,0.117,0,0.233,0,0.349c-0.116,0.582-0.232,1.164-0.349,1.63
			c-0.116,0.582-0.232,1.047-0.35,1.629c0,0.116,0,0.116,0,0.232c-0.117,0.465-0.232,0.932-0.35,1.396
			c0,0.117-0.116,0.349-0.116,0.465c-0.116,0.349-0.232,0.698-0.349,1.047c0,0.116-0.117,0.349-0.117,0.465
			c-0.116,0.35-0.232,0.698-0.35,1.047c-0.115,0.233-0.115,0.35-0.231,0.582c-0.116,0.35-0.233,0.698-0.35,1.047
			c0,0.117-0.116,0.35-0.116,0.467c-0.232,0.465-0.35,0.931-0.582,1.396c0,0,0,0.116-0.116,0.116
			c-0.232,0.465-0.349,0.813-0.581,1.28c-0.117,0.116-0.117,0.349-0.233,0.466c-0.115,0.349-0.349,0.698-0.465,1.047
			c-0.115,0.116-0.115,0.349-0.232,0.465c-0.232,0.349-0.35,0.698-0.581,1.047c-0.116,0.116-0.116,0.232-0.233,0.35
			c-0.231,0.465-0.465,0.931-0.813,1.396c-0.116,0.116-0.116,0.233-0.232,0.349c-0.231,0.35-0.465,0.698-0.582,1.048
			c-0.116,0.115-0.231,0.349-0.349,0.465c-0.232,0.349-0.35,0.582-0.582,0.931c-0.116,0.233-0.232,0.349-0.35,0.582
			c-0.231,0.233-0.35,0.582-0.582,0.814c-0.115,0.232-0.231,0.466-0.465,0.581c-0.232,0.232-0.35,0.466-0.582,0.814
			c-0.115,0.232-0.35,0.465-0.466,0.582c-0.116,0.233-0.349,0.465-0.465,0.698c-0.233,0.232-0.35,0.465-0.582,0.697
			c-0.116,0.232-0.349,0.35-0.466,0.582c-0.232,0.233-0.465,0.582-0.697,0.814c-0.117,0.233-0.35,0.349-0.466,0.582
			c-0.349,0.349-0.582,0.698-0.931,1.047c-0.116,0.116-0.232,0.349-0.467,0.465c-0.465,0.582-1.047,1.047-1.512,1.629
			c-0.233,0.233-0.35,0.35-0.582,0.582s-0.466,0.465-0.698,0.582c-0.231,0.233-0.349,0.35-0.582,0.582
			c-0.231,0.233-0.465,0.35-0.697,0.582c-0.116,0.116-0.232,0.232-0.466,0.35c-0.466,0.349-0.931,0.697-1.396,1.047
			c-0.116,0.117-0.232,0.232-0.465,0.349c-0.582,0.465-1.164,0.814-1.746,1.164c-0.116,0.116-0.232,0.116-0.232,0.233
			c-0.465,0.349-1.047,0.697-1.513,0.931c-0.116,0.116-0.349,0.232-0.465,0.232c-0.582,0.349-1.164,0.697-1.745,0.931
			c0,0,0,0-0.117,0c-0.116,0-0.116,0.116-0.349,0.116c-0.116,0-0.232,0.115-0.35,0.231c-0.116,0.117-0.35,0.117-0.466,0.233
			c-0.116,0-0.116,0.116-0.231,0.116c0,0,0,0-0.116,0c-0.233,0.116-0.582,0.349-0.932,0.465c-0.35,0.232-0.697,0.349-1.163,0.582
			c-0.814,0.465-1.861,0.931-2.908,1.513c-0.233,0.116-0.351,0.232-0.582,0.349c-0.582,0.233-1.164,0.582-1.745,0.932l0,0
			c-0.466,0.231-0.814,0.465-1.28,0.697c-0.349,0.117-0.582,0.35-0.931,0.467c-0.582,0.231-1.047,0.582-1.629,0.813
			c0,0-0.116,0-0.116,0.116c-0.35,0.116-0.582,0.349-0.931,0.465c-1.048,0.465-1.979,1.047-3.143,1.629
			c-1.047,0.582-2.095,1.047-3.258,1.629c-0.582,0.35-1.28,0.698-1.979,0.932c-1.279,0.697-2.561,1.279-3.955,1.978
			c-1.28,0.582-2.562,1.28-3.84,1.979c-0.814,0.349-1.514,0.813-2.327,1.164c-1.396,0.697-2.676,1.396-4.072,2.094
			c-2.56,1.28-5.119,2.56-7.912,3.956c-0.231,0.116-0.349,0.231-0.581,0.231c-0.35,0.116-0.698,0.35-1.048,0.465
			c-0.349,0.117-0.697,0.35-0.931,0.466c-0.35,0.116-0.581,0.349-0.932,0.466c-0.115,0.116-0.349,0.116-0.465,0.231
			c-0.466,0.233-0.931,0.466-1.28,0.698c-1.629,0.814-3.258,1.629-5.003,2.561c-0.349,0.115-0.697,0.349-0.931,0.465
			c-1.164,0.582-2.211,1.164-3.374,1.745c-1.513,0.813-3.142,1.629-4.771,2.442c-0.467,0.233-0.932,0.466-1.396,0.698l0,0
			c-1.28,0.582-2.442,1.28-3.723,1.862c-0.349,0.115-0.582,0.349-0.931,0.465c-0.349,0.231-0.698,0.349-1.047,0.582
			c-0.232,0.117-0.349,0.232-0.582,0.349c-0.582,0.35-1.164,0.582-1.745,0.931c-0.116,0.117-0.233,0.117-0.349,0.233
			c-0.233,0.116-0.465,0.233-0.814,0.349c-0.465,0.232-1.047,0.582-1.513,0.814c-0.232,0.116-0.349,0.232-0.582,0.232
			c-0.465,0.232-0.931,0.466-1.396,0.697c-0.116,0.116-0.349,0.116-0.465,0.233c-0.465,0.231-0.931,0.465-1.396,0.698
			c-0.233,0.116-0.465,0.232-0.698,0.349c-0.698,0.349-1.396,0.698-2.094,1.047c-3.839,1.979-7.795,3.956-11.751,5.935
			c-0.116,0-0.116,0.116-0.232,0.116c-1.28,0.698-2.56,1.28-3.84,1.979c-0.116,0.116-0.232,0.116-0.349,0.231
			c-1.28,0.582-2.443,1.28-3.723,1.862c-0.232,0.116-0.582,0.232-0.814,0.349c-0.349,0.232-0.698,0.35-1.047,0.582
			c-0.349,0.116-0.698,0.35-1.047,0.466c-0.232,0.115-0.582,0.349-0.814,0.465c-0.349,0.232-0.698,0.349-1.163,0.582
			c-0.349,0.231-0.698,0.349-1.164,0.582c-0.349,0.115-0.582,0.349-0.931,0.465c-0.465,0.232-0.814,0.465-1.163,0.582
			c-0.233,0.117-0.466,0.232-0.698,0.349c-0.582,0.233-1.047,0.582-1.513,0.814c-0.232,0.117-0.349,0.232-0.582,0.232
			c-0.233,0.116-0.349,0.232-0.582,0.35c-0.582,0.231-1.047,0.582-1.629,0.813c-1.047,0.582-2.094,1.047-3.141,1.629
			c-0.349,0.232-0.698,0.35-1.047,0.582c-1.164,0.582-2.327,1.164-3.49,1.745c-0.117,0.117-0.233,0.117-0.349,0.233
			c-0.465,0.232-0.931,0.465-1.396,0.697c-0.232,0.116-0.582,0.232-0.814,0.466c-0.349,0.231-0.814,0.349-1.163,0.582
			c-0.233,0.116-0.582,0.232-0.814,0.349c-0.349,0.116-0.698,0.349-1.047,0.465c-0.349,0.117-0.582,0.35-0.814,0.465
			c-0.349,0.233-0.814,0.35-1.164,0.582c-0.232,0.116-0.465,0.232-0.582,0.35c-0.349,0.115-0.582,0.349-0.931,0.465
			c-0.349,0.231-0.814,0.349-1.163,0.582c-0.233,0.117-0.466,0.232-0.698,0.349c-0.233,0.116-0.582,0.233-0.814,0.465
			c-0.465,0.233-0.931,0.465-1.513,0.698c-0.116,0-0.116,0.116-0.232,0.116c-0.466,0.232-0.931,0.465-1.396,0.698
			c-0.232,0.115-0.349,0.232-0.582,0.232c-0.465,0.232-0.931,0.465-1.28,0.698c-0.117,0.117-0.233,0.117-0.349,0.233
			c-0.465,0.231-0.931,0.465-1.396,0.697c-0.116,0.116-0.232,0.116-0.465,0.232c-0.465,0.231-0.814,0.465-1.28,0.698
			c-0.116,0.115-0.349,0.115-0.465,0.231c-1.047,0.466-1.978,0.931-2.909,1.513c-0.349,0.232-0.698,0.351-1.164,0.582
			c-0.349,0.116-0.698,0.35-1.047,0.466c-0.117,0-0.233,0.116-0.233,0.116c-0.465,0.232-0.931,0.466-1.396,0.697
			c-0.117,0.117-0.233,0.117-0.466,0.232c-0.349,0.232-0.814,0.35-1.163,0.582c-0.117,0.116-0.349,0.116-0.466,0.231
			c-0.349,0.233-0.698,0.351-1.047,0.466c-0.233,0.116-0.349,0.233-0.582,0.233c-0.349,0.115-0.698,0.349-0.931,0.465
			c-0.232,0.116-0.465,0.232-0.582,0.351c-0.233,0.114-0.582,0.231-0.814,0.465c-0.233,0.115-0.465,0.231-0.698,0.35
			c-0.233,0.115-0.465,0.232-0.814,0.349c-0.233,0.116-0.465,0.232-0.698,0.35c-0.349,0.117-0.582,0.35-0.931,0.466
			c-0.116,0.116-0.349,0.116-0.465,0.232c-0.349,0.115-0.582,0.349-0.931,0.466c-0.233,0.116-0.465,0.231-0.582,0.349
			c-0.232,0.116-0.465,0.233-0.698,0.35c-0.233,0.116-0.466,0.232-0.698,0.35c-0.233,0.116-0.465,0.232-0.698,0.35
			c-0.233,0.115-0.349,0.232-0.582,0.35c-0.233,0.116-0.465,0.231-0.698,0.349s-0.349,0.232-0.582,0.232
			c-0.232,0.116-0.349,0.232-0.582,0.35c-0.232,0.116-0.465,0.232-0.582,0.35c-0.349,0.115-0.698,0.35-1.047,0.466
			c0,0-0.116,0-0.116,0.115c-0.814,0.35-1.513,0.814-2.327,1.163c-0.116,0.117-0.232,0.117-0.349,0.233
			c-0.232,0.116-0.465,0.231-0.698,0.349c-0.117,0.117-0.233,0.117-0.349,0.232c-0.233,0.117-0.465,0.232-0.698,0.35
			c-0.116,0.116-0.233,0.116-0.349,0.232c-0.232,0.117-0.349,0.231-0.582,0.231c-0.117,0.117-0.349,0.117-0.465,0.233
			c-0.117,0.116-0.349,0.116-0.466,0.232c-0.116,0.115-0.232,0.115-0.349,0.232c-0.233,0.115-0.349,0.115-0.582,0.232
			c-0.116,0-0.232,0.115-0.349,0.115c-0.116,0.116-0.349,0.116-0.465,0.232c-0.116,0-0.232,0.116-0.349,0.116
			c-0.116,0.117-0.349,0.117-0.465,0.231c-0.116,0-0.232,0.117-0.349,0.117c-0.116,0.116-0.232,0.116-0.349,0.232
			c-0.116,0-0.232,0.116-0.349,0.116c-0.117,0-0.233,0.115-0.349,0.115c-0.117,0-0.233,0.117-0.349,0.117
			c-0.116,0-0.233,0.115-0.349,0.115c-0.116,0-0.233,0.117-0.233,0.117c-0.116,0-0.232,0.115-0.349,0.115
			c-0.117,0-0.117,0.116-0.233,0.116c0,0-0.116,0-0.116,0.116c-0.233,0.116-0.349,0.233-0.582,0.233c0,0-0.116,0-0.116,0.114
			c-0.233,0.117-0.349,0.117-0.582,0.233h-0.117c-0.232,0.116-0.349,0.116-0.465,0.232l0,0c-0.116,0-0.232,0.115-0.349,0.115
			c0,0,0,0-0.116,0s-0.116,0-0.116,0c-0.582,0.117-1.164,0.117-1.746,0.117c-0.116,0-0.232,0-0.349,0c-0.466,0-0.814,0-1.28,0
			c-0.232,0-0.349,0-0.582,0c-0.349,0-0.698,0-1.047-0.117c-0.117,0-0.349,0-0.466,0c-0.465,0-0.814-0.115-1.28-0.115
			c-0.116,0-0.116,0-0.232,0c-0.465-0.116-0.931-0.232-1.396-0.35c-0.116,0-0.232-0.117-0.349-0.117
			c-0.349-0.114-0.698-0.231-1.047-0.349c-0.116,0-0.233-0.116-0.349-0.116c-0.465-0.116-0.931-0.35-1.28-0.465
			c0,0-0.116,0-0.116-0.117c-0.466-0.231-0.814-0.349-1.28-0.582l30.368,16.64c0.116,0.116,0.349,0.116,0.465,0.231
			c0.232,0.116,0.582,0.232,0.814,0.351c0,0,0.116,0,0.116,0.116l0,0c0.349,0.115,0.698,0.231,1.047,0.465
			c0.116,0,0.116,0,0.232,0.116c0.116,0,0.233,0.116,0.349,0.116c0.116,0,0.349,0.116,0.465,0.116c0.233,0,0.349,0.116,0.582,0.116
			c0.116,0,0.232,0.116,0.349,0.116c0.117,0,0.117,0,0.233,0c0.349,0.115,0.814,0.231,1.164,0.231l0,0c0.116,0,0.116,0,0.232,0
			c0.349,0,0.698,0.116,0.931,0.116c0.116,0,0.232,0,0.349,0c0.116,0,0.349,0,0.465,0c0.116,0,0.349,0,0.465,0
			c0.232,0,0.349,0,0.582,0s0.349,0,0.582,0c0.116,0,0.232,0,0.349,0c0.349,0,0.582,0,0.931,0c0.116,0,0.232,0,0.349,0h0.116
			c0.465,0,0.931-0.116,1.396-0.116c0.117,0,0.233,0,0.349,0h0.116l0,0l0,0c0.117,0,0.233-0.116,0.349-0.116l0,0l0,0
			c0.117,0,0.349-0.115,0.465-0.231l0,0l0,0c0.117-0.116,0.349-0.116,0.582-0.232c0,0,0.116,0,0.116-0.116
			c0.233-0.116,0.349-0.116,0.582-0.232h0.116c0,0,0,0,0.116,0c0.116,0,0.116-0.116,0.233-0.116c0.116,0,0.232-0.116,0.349-0.116
			c0.116,0,0.232-0.115,0.232-0.115c0.116,0,0.233-0.116,0.349-0.116c0.116,0,0.233-0.117,0.349-0.117
			c0.116-0.116,0.232-0.116,0.349-0.232c0.116,0,0.232-0.115,0.349-0.115c0.116-0.116,0.232-0.116,0.465-0.232
			c0.116,0,0.232-0.116,0.349-0.116c0.116-0.116,0.232-0.116,0.465-0.232c0.116,0,0.232-0.116,0.349-0.116
			c0.116-0.116,0.349-0.116,0.465-0.232c0.116,0,0.232-0.115,0.349-0.115c0.116-0.116,0.349-0.116,0.582-0.233
			c0.116-0.116,0.233-0.116,0.349-0.232c0.116-0.115,0.349-0.115,0.465-0.231c0.116-0.116,0.349-0.116,0.465-0.232
			c0.116-0.116,0.233-0.116,0.349-0.232c0.233-0.116,0.349-0.232,0.582-0.232c0.233-0.116,0.349-0.231,0.582-0.231
			c0.116-0.116,0.232-0.116,0.465-0.233c0.233-0.116,0.349-0.232,0.582-0.232c0.698-0.349,1.513-0.697,2.327-1.162
			c0.116-0.116,0.233-0.116,0.349-0.233c0.232-0.116,0.465-0.232,0.698-0.349c0.116-0.116,0.349-0.116,0.465-0.232
			c0.232-0.116,0.465-0.233,0.698-0.35c0.117-0.116,0.349-0.116,0.466-0.232c0.232-0.116,0.465-0.231,0.698-0.349
			c0.117-0.117,0.349-0.117,0.465-0.233c0.233-0.116,0.466-0.231,0.698-0.349c0.233-0.116,0.349-0.232,0.582-0.232
			c0.232-0.117,0.465-0.232,0.698-0.35c0.233-0.116,0.465-0.232,0.582-0.35c0.232-0.115,0.465-0.232,0.698-0.35
			c0.233-0.116,0.466-0.232,0.698-0.349c0.233-0.116,0.465-0.232,0.814-0.351c0.233-0.116,0.349-0.231,0.582-0.349
			c0.232-0.116,0.582-0.232,0.814-0.466c0.232-0.116,0.465-0.232,0.698-0.35c0.233-0.116,0.582-0.231,0.814-0.349
			c0.233-0.117,0.465-0.232,0.698-0.351c0.233-0.116,0.582-0.231,0.814-0.465c0.233-0.117,0.582-0.231,0.814-0.35
			c0.233-0.116,0.349-0.232,0.582-0.35c0.349-0.115,0.698-0.349,1.047-0.466c0.232-0.116,0.465-0.231,0.698-0.349
			c0.232-0.116,0.465-0.233,0.814-0.35c0.232-0.116,0.582-0.232,0.814-0.35c0.232-0.116,0.465-0.232,0.698-0.35
			c0.349-0.115,0.582-0.35,0.931-0.466c1.629-0.813,3.258-1.629,5.003-2.442c0.116-0.116,0.349-0.116,0.465-0.232
			c0.465-0.231,0.814-0.466,1.28-0.582c0.233-0.116,0.582-0.231,0.814-0.35c0.233-0.115,0.582-0.232,0.814-0.465
			c0.233-0.116,0.582-0.232,0.814-0.465c0.349-0.117,0.698-0.351,1.047-0.467c0.349-0.115,0.698-0.349,0.931-0.466
			c0.233-0.116,0.465-0.231,0.582-0.349c0.349-0.233,0.814-0.35,1.164-0.582c0.233-0.116,0.349-0.232,0.582-0.35
			c0.349-0.231,0.814-0.35,1.163-0.582c0.233-0.115,0.466-0.231,0.582-0.35c0.349-0.232,0.698-0.349,1.047-0.581
			c0.349-0.116,0.698-0.349,0.931-0.466c0.232-0.116,0.465-0.232,0.814-0.349c0.349-0.116,0.698-0.35,1.047-0.467
			c0.349-0.115,0.582-0.349,0.931-0.465c0.233-0.117,0.582-0.231,0.814-0.35c0.466-0.232,0.814-0.465,1.28-0.697h0.116
			c0.582-0.233,1.164-0.582,1.745-0.813c0.116,0,0.233-0.117,0.233-0.117c1.164-0.582,2.327-1.163,3.49-1.745
			c0.233-0.116,0.465-0.232,0.698-0.35c0.349-0.231,0.814-0.35,1.164-0.581c0.465-0.232,0.814-0.466,1.28-0.582
			c1.28-0.697,2.676-1.279,3.956-1.979c0.232-0.116,0.465-0.233,0.698-0.349c0.349-0.233,0.814-0.351,1.164-0.582
			c0.233-0.117,0.465-0.232,0.814-0.351c0.465-0.231,0.814-0.465,1.28-0.696c0.233-0.117,0.465-0.233,0.698-0.351
			c0.349-0.116,0.582-0.35,0.931-0.465c0.349-0.233,0.814-0.35,1.164-0.582c0.233-0.117,0.465-0.233,0.698-0.349
			c0.465-0.233,0.814-0.465,1.28-0.698c0.233-0.116,0.582-0.233,0.814-0.465c0.465-0.233,0.814-0.465,1.28-0.582
			c0.349-0.116,0.582-0.35,0.931-0.465c0.349-0.116,0.582-0.35,0.931-0.465c0.349-0.116,0.698-0.35,1.047-0.466
			c0.349-0.232,0.814-0.349,1.164-0.582c0.349-0.232,0.697-0.349,1.047-0.582c0.232-0.115,0.465-0.231,0.697-0.349
			c0.582-0.232,1.048-0.582,1.63-0.813c0,0,0,0,0.116,0c0.582-0.35,1.164-0.582,1.745-0.932c1.048-0.465,2.095-1.047,3.143-1.513
			c1.047-0.465,1.978-1.047,3.025-1.512c1.978-1.048,3.954-1.979,5.934-3.025c1.163-0.582,2.327-1.164,3.49-1.745
			c0.231-0.116,0.349-0.232,0.582-0.232c0.465-0.232,0.813-0.466,1.278-0.582c0.351-0.116,0.698-0.35,0.932-0.466
			c0.232-0.115,0.466-0.232,0.697-0.349c0.467-0.233,0.932-0.465,1.396-0.698c0.231-0.116,0.466-0.231,0.582-0.349
			c0.465-0.232,1.047-0.465,1.513-0.698c0.116-0.117,0.35-0.117,0.465-0.232c0.467-0.232,0.932-0.466,1.514-0.698
			c0.231-0.116,0.582-0.232,0.813-0.465c0.232-0.116,0.466-0.232,0.698-0.35c0.465-0.231,0.931-0.465,1.396-0.697
			c0.35-0.117,0.581-0.35,0.932-0.466c0.349-0.232,0.813-0.349,1.163-0.582c0,0,0.115,0,0.115-0.115
			c0.467-0.233,0.932-0.466,1.514-0.698c0.582-0.35,1.164-0.582,1.745-0.931l0,0c1.279-0.698,2.56-1.28,3.84-1.979
			c0.116,0,0.116-0.116,0.231-0.116c0.351-0.117,0.698-0.349,1.047-0.465c0.467-0.232,1.049-0.465,1.514-0.813
			c1.28-0.698,2.56-1.28,3.724-1.862c0.814-0.349,1.513-0.814,2.327-1.164c0.931-0.465,1.861-0.931,2.792-1.396
			c0,0,0.116,0,0.116-0.115c2.327-1.164,4.654-2.327,6.865-3.491c0.231-0.116,0.349-0.233,0.58-0.233
			c0.351-0.231,0.698-0.349,1.049-0.582c1.396-0.697,2.676-1.396,4.071-2.094c1.979-1.047,3.839-1.978,5.701-2.909
			c0.932-0.465,1.745-0.931,2.676-1.396c0.35-0.232,0.814-0.35,1.163-0.582c0.582-0.233,1.048-0.582,1.629-0.814
			c1.629-0.813,3.259-1.629,4.771-2.442c0.231-0.116,0.466-0.233,0.582-0.35c0.931-0.465,1.861-0.931,2.792-1.396
			c0.35-0.117,0.582-0.35,0.931-0.465c0.932-0.467,1.862-0.932,2.677-1.396c0.116-0.116,0.232-0.116,0.466-0.231
			c1.279-0.582,2.442-1.164,3.374-1.746c0.582-0.232,1.048-0.582,1.513-0.814c0.231-0.116,0.466-0.231,0.813-0.349l0,0
			c0.232-0.117,0.582-0.233,0.814-0.466c0.582-0.35,1.164-0.582,1.629-0.814c0,0,0,0,0.116,0s0.116-0.116,0.232-0.116
			c0.581-0.349,0.932-0.465,1.163-0.582h0.116c0.582-0.349,1.164-0.697,1.745-0.931c0.116-0.116,0.35-0.232,0.466-0.232
			c0.465-0.349,1.047-0.582,1.514-0.931c0.115-0.117,0.231-0.117,0.231-0.233c0.582-0.349,1.163-0.813,1.745-1.164
			c0.116-0.115,0.232-0.231,0.466-0.349c0.465-0.349,0.931-0.698,1.396-1.047c0.115-0.117,0.115-0.117,0.232-0.233l0.116-0.115
			c0.232-0.233,0.465-0.35,0.698-0.582c0.231-0.232,0.349-0.35,0.581-0.582c0.232-0.233,0.466-0.465,0.697-0.582
			c0.116-0.117,0.351-0.233,0.467-0.466l0.115-0.116c0.582-0.465,1.048-1.047,1.514-1.629l0.115-0.116
			c0.116-0.116,0.232-0.233,0.35-0.35c0.35-0.349,0.582-0.697,0.931-1.047c0.117-0.115,0.117-0.115,0.233-0.231
			s0.116-0.233,0.231-0.35c0.232-0.232,0.467-0.582,0.698-0.813c0.116-0.116,0.232-0.233,0.35-0.349
			c0.116-0.116,0.115-0.116,0.232-0.232c0.232-0.233,0.349-0.466,0.581-0.698c0.116-0.116,0.233-0.349,0.35-0.465
			c0.116-0.117,0.116-0.117,0.232-0.233c0.116-0.231,0.349-0.465,0.466-0.582c0.116-0.115,0.232-0.349,0.35-0.465
			c0.115-0.116,0.115-0.232,0.231-0.349c0.116-0.233,0.233-0.349,0.466-0.582c0.116-0.116,0.232-0.232,0.35-0.465
			c0.115-0.116,0.115-0.232,0.232-0.35c0.116-0.231,0.232-0.349,0.35-0.582c0.115-0.115,0.115-0.232,0.231-0.349
			c0.116-0.231,0.233-0.349,0.351-0.582c0.115-0.117,0.231-0.349,0.349-0.465c0-0.117,0.116-0.117,0.116-0.233
			c0.116-0.232,0.35-0.582,0.466-0.813c0.116-0.116,0.116-0.233,0.232-0.35c0,0,0,0,0-0.115c0.231-0.465,0.466-0.814,0.697-1.28
			v-0.116c0.116-0.117,0.116-0.232,0.232-0.349c0.116-0.233,0.232-0.465,0.466-0.814c0-0.117,0.116-0.232,0.116-0.349
			c0.116-0.116,0.116-0.349,0.231-0.465c0.116-0.117,0.116-0.35,0.233-0.465c0.116-0.233,0.116-0.35,0.232-0.582
			c0.115-0.116,0.115-0.35,0.231-0.466c0-0.115,0.116-0.115,0.116-0.232c0.116-0.349,0.35-0.698,0.466-1.047
			c0,0,0-0.116,0.116-0.116l0,0c0.231-0.466,0.349-0.814,0.466-1.28c0,0,0-0.116,0.116-0.116c0-0.115,0.116-0.349,0.116-0.465
			c0.115-0.232,0.115-0.465,0.231-0.697c0-0.116,0.116-0.232,0.116-0.35c0.117-0.231,0.117-0.349,0.233-0.582
			c0-0.116,0.115-0.232,0.115-0.349c0.116-0.232,0.116-0.35,0.232-0.582c0-0.117,0.116-0.349,0.116-0.465
			c0-0.117,0-0.117,0.115-0.233c0.117-0.232,0.117-0.582,0.233-0.813c0-0.116,0.116-0.35,0.116-0.466v-0.115
			c0.116-0.467,0.231-0.814,0.349-1.28c0-0.116,0-0.116,0-0.232l0,0c0.116-0.465,0.233-1.047,0.351-1.513l0,0
			c0.115-0.582,0.231-1.164,0.349-1.629l0,0c0-0.116,0-0.232,0-0.232c0.116-0.466,0.116-1.047,0.232-1.513c0-0.116,0-0.116,0-0.232
			s0-0.232,0-0.232c0.116-0.698,0.116-1.28,0.116-1.978C-57.388,107.916-57.388,107.8-57.388,107.683z"/>
		<g>
			<polygon fill="#E2E2E2" points="-241.919,145.846 -272.286,129.323 -271.937,128.16 -241.57,144.682 			"/>
		</g>
		<g>
			<polygon fill="#E2E2E2" points="-242.733,145.614 -273.101,129.092 -272.286,129.323 -241.919,145.846 			"/>
		</g>
		<path fill="#E2E2E2" d="M-167.222,58.351c0.35-0.232,0.814-0.349,1.163-0.582c0.232-0.117,0.582-0.233,0.814-0.349
			c0.349-0.116,0.697-0.233,0.931-0.466c0.233-0.116,0.582-0.232,0.813-0.349c0.351-0.116,0.698-0.233,0.932-0.349
			c0.232-0.116,0.582-0.233,0.813-0.35c0.351-0.115,0.582-0.231,0.932-0.349c0.232-0.116,0.582-0.232,0.813-0.232
			c0.233-0.116,0.466-0.116,0.814-0.232c0.582-0.232,1.164-0.35,1.629-0.582c0.117,0,0.35-0.117,0.466-0.117
			c0.698-0.232,1.396-0.349,1.979-0.582c0.232,0,0.466-0.116,0.581-0.116c0.351-0.117,0.698-0.232,1.164-0.232
			c0.232,0,0.466-0.116,0.697-0.116c0.351-0.116,0.698-0.116,1.048-0.233c0.232,0,0.465-0.115,0.698-0.115
			c0.232,0,0.581-0.116,0.814-0.116c0.231,0,0.465-0.116,0.696-0.116c0.233,0,0.466-0.117,0.814-0.117c0.232,0,0.35,0,0.582-0.116
			c0.813-0.115,1.629-0.115,2.327-0.231c0.115,0,0.231,0,0.349,0c0.698,0,1.513-0.117,2.211-0.117c0.116,0,0.116,0,0.232,0
			c0.697,0,1.279,0,1.979,0.117c0.116,0,0.116,0,0.232,0c0.697,0,1.279,0.116,1.86,0.116c0.117,0,0.233,0,0.351,0
			c0.582,0.115,1.163,0.115,1.86,0.231c0.116,0,0.232,0,0.232,0c0.582,0.117,1.28,0.233,1.862,0.35c0,0,0,0,0.115,0
			c0.582,0.115,1.279,0.349,1.861,0.465c0.116,0,0.116,0,0.232,0.116c0.582,0.232,1.164,0.35,1.861,0.582
			c0.116,0,0.116,0.116,0.232,0.116c0.582,0.233,1.28,0.465,1.861,0.698c0.115,0,0.115,0.116,0.232,0.116
			c0.697,0.349,1.396,0.582,2.094,0.931h0.116c0.351,0.117,0.698,0.349,1.048,0.582l-30.367-16.638
			c-0.35-0.232-0.697-0.35-1.048-0.582l0,0c0,0,0,0-0.115,0c-0.698-0.35-1.396-0.698-2.095-0.932c0,0,0,0-0.116,0h-0.116
			c-0.581-0.232-1.279-0.466-1.861-0.697h-0.116h-0.115c-0.582-0.233-1.164-0.465-1.862-0.582c0,0,0,0-0.116,0h-0.116
			c-0.582-0.232-1.279-0.35-1.86-0.465l0,0l0,0c-0.582-0.116-1.164-0.232-1.862-0.35c-0.116,0-0.116,0-0.232,0h-0.115
			c-0.582-0.116-1.163-0.231-1.861-0.231c-0.116,0-0.116,0-0.233,0c-0.115,0-0.115,0-0.231,0c-0.582-0.116-1.279-0.116-1.861-0.116
			c0,0,0,0-0.116,0h-0.115c-0.698,0-1.28-0.117-1.979-0.117h-0.116l0,0c-0.697,0-1.396,0-2.211,0.117c-0.116,0-0.116,0-0.231,0
			h-0.116c-0.814,0-1.513,0.116-2.327,0.231c-0.116,0-0.116,0-0.232,0c-0.115,0-0.232,0-0.35,0c-0.232,0-0.465,0.116-0.813,0.116
			c-0.233,0-0.465,0.117-0.814,0.117c-0.232,0-0.465,0.116-0.814,0.116c-0.117,0-0.232,0-0.465,0.116c-0.117,0-0.232,0-0.349,0.116
			c-0.349,0.116-0.698,0.116-1.047,0.232c-0.232,0-0.466,0.116-0.698,0.116c-0.35,0.117-0.698,0.117-1.163,0.232
			c-0.117,0-0.349,0.116-0.466,0.116h-0.116c-0.698,0.117-1.396,0.349-1.978,0.582c-0.116,0-0.349,0.116-0.465,0.116
			c-0.582,0.116-1.164,0.349-1.629,0.582c-0.116,0-0.232,0.117-0.349,0.117c-0.116,0-0.232,0.115-0.465,0.115
			c-0.232,0.116-0.582,0.233-0.814,0.233c-0.349,0.116-0.582,0.232-0.931,0.349c-0.233,0.117-0.582,0.233-0.814,0.35
			c-0.349,0.117-0.698,0.232-0.931,0.349c-0.233,0.116-0.582,0.233-0.814,0.35c-0.349,0.115-0.698,0.232-0.931,0.465
			c-0.232,0.115-0.582,0.232-0.814,0.349c-0.116,0-0.232,0.116-0.349,0.116c-0.233,0.117-0.582,0.232-0.814,0.349
			c-0.233,0.116-0.349,0.116-0.582,0.233c-0.582,0.231-1.164,0.582-1.861,0.813c-0.698,0.35-1.396,0.698-2.094,1.047
			c-1.164,0.582-2.327,1.164-3.375,1.746c-0.349,0.232-0.698,0.35-1.047,0.582c-0.698,0.465-1.513,0.814-2.211,1.28
			c-0.465,0.233-0.814,0.465-1.28,0.698c-0.698,0.349-1.396,0.813-1.978,1.164c-0.465,0.231-0.814,0.465-1.28,0.813
			c-0.698,0.465-1.28,0.814-1.978,1.28c-0.349,0.232-0.814,0.465-1.164,0.698c-0.698,0.466-1.396,0.931-2.094,1.396
			c-0.349,0.232-0.582,0.465-0.931,0.698c-1.047,0.698-1.978,1.396-2.909,2.095c-0.116,0.116-0.233,0.116-0.233,0.232
			c-0.814,0.698-1.745,1.28-2.56,1.978c-0.349,0.233-0.582,0.465-0.931,0.698c-0.582,0.465-1.28,1.047-1.862,1.512
			c-0.116,0.117-0.232,0.233-0.349,0.35c-0.233,0.117-0.349,0.349-0.582,0.465c-0.698,0.582-1.28,1.164-1.978,1.746
			c-0.349,0.231-0.582,0.582-0.931,0.813c-0.698,0.698-1.513,1.396-2.21,2.095c-0.117,0.115-0.233,0.231-0.466,0.349l-0.116,0.116
			c-0.232,0.232-0.465,0.465-0.698,0.697c-0.465,0.466-1.047,1.048-1.512,1.513c-0.233,0.232-0.582,0.582-0.814,0.813
			c-0.349,0.35-0.582,0.698-0.931,0.932c-0.116,0.115-0.116,0.231-0.232,0.231c-0.931,1.047-1.862,2.094-2.792,3.143l-0.116,0.115
			c-0.582,0.698-1.164,1.396-1.745,2.095c-0.349,0.349-0.698,0.813-0.931,1.164c-0.116,0.232-0.349,0.349-0.465,0.582
			c-0.465,0.582-0.931,1.279-1.513,1.861c-0.116,0.233-0.349,0.465-0.465,0.698c-0.116,0.116-0.232,0.232-0.349,0.465
			c-0.465,0.582-0.931,1.164-1.396,1.861c-0.233,0.232-0.349,0.582-0.582,0.813c-0.117,0.117-0.117,0.233-0.233,0.233
			c-0.465,0.698-0.931,1.28-1.396,1.978c-0.233,0.232-0.349,0.582-0.582,0.814l-0.116,0.116c-0.582,0.931-1.164,1.861-1.745,2.676
			c-0.117,0.116-0.117,0.231-0.233,0.231l0,0c-0.698,1.048-1.28,2.095-1.978,3.143c0,0,0,0.116-0.116,0.116
			c-0.116,0.232-0.349,0.582-0.465,0.813c-0.465,0.698-0.931,1.514-1.28,2.211c0,0.116-0.117,0.116-0.117,0.232
			c-0.232,0.349-0.349,0.698-0.582,0.931c-0.349,0.698-0.814,1.396-1.164,2.21c-0.116,0.116-0.116,0.232-0.232,0.465
			c-0.117,0.35-0.349,0.582-0.466,0.932c-0.349,0.697-0.814,1.513-1.163,2.211c-0.117,0.231-0.233,0.465-0.349,0.582
			c-0.117,0.232-0.233,0.582-0.349,0.813c-0.465,0.814-0.814,1.629-1.164,2.443c-0.116,0.232-0.233,0.582-0.465,0.813
			c-0.116,0.233-0.116,0.35-0.233,0.582c-0.465,1.048-1.047,2.096-1.512,3.143c-0.117,0.232-0.233,0.465-0.349,0.698
			c0,0,0,0.115-0.117,0.115c-0.698,1.396-1.28,2.909-1.978,4.421c0,0.116-0.117,0.233-0.117,0.35
			c-0.349,0.931-0.814,1.86-1.164,2.792c0,0.116-0.116,0.231-0.116,0.349c-0.349,0.814-0.698,1.629-0.931,2.443
			c-0.116,0.117-0.116,0.349-0.233,0.466c-0.582,1.512-1.163,3.025-1.745,4.654l30.367,16.638c0.582-1.513,1.164-3.142,1.746-4.654
			c0.349-1.047,0.814-1.978,1.163-2.909c0-0.115,0.117-0.231,0.117-0.231c0.465-1.047,0.931-2.095,1.28-3.143
			c0.582-1.513,1.28-2.908,1.978-4.421c0.116-0.349,0.232-0.582,0.349-0.931c0.465-1.047,0.931-2.094,1.512-3.142
			c0.233-0.466,0.465-0.932,0.698-1.396c0.349-0.813,0.814-1.629,1.164-2.442c0.232-0.466,0.465-0.932,0.698-1.396
			c0.349-0.698,0.814-1.512,1.163-2.21c0.233-0.465,0.466-0.931,0.698-1.396c0.349-0.697,0.814-1.396,1.164-2.211
			c0.233-0.465,0.465-0.813,0.698-1.279c0.465-0.814,0.931-1.514,1.28-2.21c0.232-0.35,0.349-0.698,0.582-0.932
			c0.582-1.047,1.28-2.094,1.978-3.141c0.116-0.117,0.116-0.233,0.233-0.233c0.582-0.931,1.164-1.86,1.745-2.676
			c0.233-0.349,0.465-0.698,0.698-0.931c0.465-0.698,0.931-1.28,1.396-1.979c0.233-0.349,0.465-0.697,0.814-1.047
			c0.465-0.582,0.931-1.279,1.396-1.861c0.233-0.35,0.582-0.698,0.814-1.048c0.466-0.582,0.931-1.279,1.513-1.861
			c0.465-0.582,0.931-1.164,1.396-1.745c0.582-0.698,1.28-1.513,1.861-2.21c0.931-1.047,1.862-2.095,2.792-3.143
			c0.349-0.465,0.814-0.813,1.164-1.279c0.232-0.233,0.582-0.582,0.814-0.814c0.465-0.465,1.047-1.047,1.512-1.513
			c0.233-0.233,0.466-0.465,0.698-0.698c0.233-0.116,0.349-0.349,0.582-0.465c0.698-0.698,1.512-1.396,2.21-2.094
			c0.349-0.233,0.582-0.582,0.931-0.814c0.698-0.582,1.28-1.164,1.978-1.745c0.349-0.232,0.698-0.582,0.931-0.813
			c0.582-0.465,1.28-1.047,1.862-1.514c0.349-0.231,0.582-0.465,0.931-0.697c0.814-0.698,1.746-1.28,2.56-1.979
			c0.117-0.117,0.233-0.117,0.233-0.232c0.931-0.698,1.978-1.396,2.909-2.095c0.349-0.232,0.582-0.465,0.931-0.697
			c0.698-0.466,1.396-0.932,2.095-1.396c0.349-0.232,0.814-0.465,1.163-0.698c0.698-0.465,1.28-0.813,1.978-1.279
			c0.465-0.233,0.814-0.465,1.279-0.814c0.699-0.349,1.396-0.813,1.979-1.164c0.466-0.231,0.814-0.465,1.28-0.698
			c0.698-0.465,1.513-0.813,2.21-1.279c0.35-0.232,0.698-0.35,1.048-0.582c1.163-0.582,2.21-1.164,3.374-1.745
			c0.698-0.349,1.396-0.698,2.094-1.047c0.582-0.35,1.164-0.582,1.862-0.814C-167.572,58.467-167.456,58.467-167.222,58.351z"/>
		<g>
			<path fill="#F7F7F8" d="M-48.545,94.071c1.396,11.751-1.629,24.317-8.959,37.349c-6.282,10.354-13.03,17.568-22.921,24.666
				c-2.442,1.396-94.709,48.634-147.066,75.278c-1.396,0.697-2.909,1.513-4.188,2.21c-16.057,8.262-25.481,12.915-27.808,14.078
				c-6.399,3.143-39.21,10.821-40.374-27.923c-0.349-9.541,1.047-13.846,2.443-18.035c0.349-0.931,0.582-1.862,0.931-2.792
				c6.632-15.939,15.358-32.345,34.44-44.679c1.28-0.814,3.258-1.979,5.584-3.142c6.632-3.374,12.798-5.7,14.079-5.352l0.698,0.232
				l0.465-1.163c7.912-21.292,17.22-38.279,28.273-51.66c11.053-13.381,24.666-23.968,41.538-32.578
				c0.696-0.349,1.396-0.698,2.094-1.047c25.597-12.566,40.023-6.399,50.729,1.396c2.443-1.629,4.306-2.792,6.167-3.839
				c6.98-3.606,15.707-3.839,21.06-0.582c10.239,6.167,8.145,22.921,8.145,23.153l-0.116,1.047l0.814-0.349
				C-82.404,80.108-51.571,69.287-48.545,94.071z M-84.498,150.033c15.125-7.679,27.342-27.458,27.226-44.097
				c0-5.352-1.396-10.006-3.84-13.38c-0.581-0.814-1.279-1.513-1.979-2.211c-4.305-4.654-11.983-5.119-20.478-1.047l-11.286,4.538
				c6.399-19.082,1.745-25.248,0.35-26.528c-3.724-4.654-10.123-5.236-17.104-1.745c-0.582,0.349-1.28,0.698-1.862,1.047
				c-3.023,1.862-5.934,4.306-8.493,7.214c-10.819-12.798-31.064-13.729-53.056-2.56c-31.415,16.056-57.477,52.241-59.92,83.074
				c-1.862-0.117-3.84-0.117-5.934,0.231c-4.421,0.582-9.308,2.211-14.195,4.654c-12.682,6.398-24.201,18.034-30.134,30.251
				c-0.349,0.931-0.465,1.28-0.582,1.629c-0.116,0.349-0.232,0.814-0.465,1.164c-3.374,8.028-5.119,16.172-5.119,23.502
				c0.116,16.987,9.89,27.228,24.317,25.481C-262.862,240.787-85.544,150.615-84.498,150.033"/>
		</g>
		<path fill="#E2E2E2" d="M-254.02,149.685c0.814-0.349,1.629-0.698,2.327-1.047c0.116,0,0.232-0.116,0.349-0.116
			c0.349-0.117,0.698-0.349,1.047-0.465c0.117,0,0.233-0.117,0.349-0.117c0.465-0.231,0.814-0.349,1.28-0.582
			c0.117,0,0.117,0,0.233-0.116c0.349-0.116,0.698-0.232,1.047-0.349c0.117,0,0.233-0.117,0.349-0.117
			c0.349-0.116,0.582-0.231,0.931-0.349c0.116,0,0.116,0,0.232-0.117c0.233-0.116,0.465-0.116,0.814-0.232c0,0,0,0,0.116,0
			c0.233-0.116,0.465-0.116,0.698-0.232c0.116,0,0.116,0,0.233,0c0.116,0,0.349-0.116,0.465-0.116c0.116,0,0.349,0,0.465-0.116l0,0
			c0.116,0,0.232,0,0.349,0l0,0c0.116,0,0.232,0,0.232,0l-30.6-16.521l0,0l0,0c0,0,0,0-0.117,0c0,0,0,0-0.116,0c0,0,0,0-0.116,0l0,0
			l0,0h-0.117c-0.116,0-0.116,0-0.232,0l0,0l0,0c-0.117,0-0.233,0-0.349,0c0,0,0,0-0.116,0c-0.117,0-0.349,0.115-0.465,0.115h-0.117
			l0,0c-0.232,0.117-0.465,0.117-0.698,0.233l0,0c-0.232,0.116-0.465,0.116-0.814,0.232l0,0h-0.117
			c-0.232,0.116-0.582,0.232-0.931,0.349c-0.116,0-0.233,0.117-0.349,0.117c-0.349,0.116-0.698,0.231-1.047,0.349
			c-0.117,0-0.117,0-0.233,0.117c-0.465,0.116-0.814,0.349-1.28,0.582c-0.116,0-0.233,0.116-0.349,0.116
			c-0.349,0.117-0.698,0.349-1.047,0.466c-0.116,0-0.116,0.116-0.232,0.116h-0.116c-0.698,0.349-1.513,0.697-2.327,1.047
			c0,0-0.116,0-0.116,0.117c-0.814,0.465-1.746,0.813-2.56,1.279c-2.21,1.164-4.188,2.21-5.584,3.143
			c-0.698,0.465-1.396,0.931-1.978,1.396c-0.233,0.116-0.349,0.233-0.582,0.465c-0.465,0.35-0.931,0.698-1.396,0.932
			c-0.233,0.117-0.465,0.349-0.582,0.466c-0.466,0.349-0.931,0.698-1.396,1.047c-0.116,0.116-0.349,0.233-0.465,0.349
			c-0.582,0.466-1.164,0.932-1.745,1.396c0,0,0,0-0.117,0c-0.116,0.117-0.116,0.117-0.232,0.233
			c-0.465,0.465-1.047,0.931-1.513,1.279c-0.232,0.116-0.349,0.35-0.465,0.465c-0.465,0.466-0.931,0.814-1.396,1.28
			c-0.117,0.117-0.233,0.117-0.233,0.233c0,0,0,0-0.116,0.116c-0.814,0.813-1.629,1.629-2.327,2.442l-0.116,0.116
			c0,0,0,0.117-0.116,0.117c-0.582,0.698-1.164,1.279-1.746,1.978c0,0.117-0.116,0.117-0.116,0.233
			c-0.116,0.116-0.116,0.116-0.233,0.232c-0.465,0.582-0.931,1.163-1.512,1.745c0,0,0,0.116-0.117,0.116l0,0
			c-0.465,0.582-0.931,1.164-1.396,1.745c0,0.117-0.116,0.117-0.116,0.233c-0.117,0.115-0.117,0.232-0.233,0.349
			c-0.349,0.465-0.582,0.813-0.931,1.28c-0.116,0.115-0.116,0.232-0.233,0.349c0,0.116-0.116,0.116-0.116,0.232
			c-0.349,0.582-0.814,1.164-1.164,1.745l0,0c0,0,0,0.116-0.116,0.116c-0.349,0.582-0.698,1.047-1.047,1.629
			c0,0.116-0.116,0.116-0.116,0.233c-0.116,0.116-0.116,0.232-0.233,0.349c-0.232,0.467-0.582,0.932-0.814,1.396
			c-0.116,0.116-0.116,0.231-0.232,0.349l-0.116,0.116c-0.349,0.582-0.698,1.164-1.047,1.862c0,0,0,0,0,0.115
			c0,0.116-0.116,0.116-0.116,0.232c-0.349,0.582-0.582,1.164-0.931,1.746c0,0.116-0.117,0.231-0.117,0.231
			c0,0.117-0.116,0.117-0.116,0.233c-0.349,0.698-0.698,1.396-1.047,2.094c0,0,0,0.116-0.116,0.116c0,0.117-0.116,0.117-0.116,0.233
			c-0.465,0.813-0.814,1.629-1.164,2.442l0,0c0,0,0,0,0,0.116c-0.465,1.047-0.931,1.979-1.396,3.025c0,0,0,0,0,0.117v0.115
			c-0.582,1.28-1.164,2.561-1.629,3.839c0,0,0,0,0,0.117v0.116c-0.233,0.582-0.466,1.047-0.698,1.629
			c-0.116,0.465-0.233,0.931-0.349,1.396c-0.116,0.465-0.349,1.047-0.465,1.513c-0.116,0.582-0.349,1.047-0.465,1.629l0,0
			c0,0,0,0,0,0.116c-0.117,0.465-0.349,0.931-0.465,1.513l0,0l0,0c-0.117,0.349-0.233,0.698-0.233,1.047v0.116v0.116
			c-0.116,0.349-0.116,0.582-0.233,0.931c0,0.117,0,0.117,0,0.233c0,0,0,0,0,0.116c-0.116,0.465-0.116,0.813-0.232,1.279v0.117
			c0,0.116,0,0.349-0.116,0.465c0,0.116,0,0.232,0,0.35c0,0.231-0.117,0.582-0.117,0.813c0,0.116,0,0.116,0,0.232l0,0v0.116
			c0,0.35-0.116,0.814-0.116,1.163c0,0.117,0,0.35,0,0.467c0,0.349,0,0.697-0.116,1.047c0,0.115,0,0.232,0,0.232
			c0,0.116,0,0.232,0,0.35c0,0.231,0,0.349,0,0.582c0,0.232,0,0.582,0,0.813c0,0.232,0,0.35,0,0.582c0,0.35,0,0.698,0,1.047
			c0,0.116,0,0.35,0,0.465c0,0.582,0,1.048,0,1.63c0.465,15.706,6.167,23.852,13.264,27.69l30.367,16.639
			c-6.981-3.839-12.682-11.983-13.264-27.69c0-0.582,0-1.048,0-1.629c0-0.117,0-0.351,0-0.466c0-0.35,0-0.698,0-1.049
			c0-0.231,0-0.349,0-0.581c0-0.349,0-0.581,0-0.813c0-0.233,0-0.349,0-0.582c0-0.232,0-0.466,0-0.698c0-0.349,0-0.696,0.116-1.047
			c0-0.116,0-0.35,0-0.465c0-0.466,0.117-0.814,0.117-1.164c0-0.116,0-0.116,0-0.232s0-0.116,0-0.231
			c0-0.351,0.116-0.582,0.116-0.814c0-0.116,0-0.232,0-0.35c0-0.232,0.116-0.35,0.116-0.582c0.117-0.465,0.117-0.931,0.233-1.279
			c0-0.117,0-0.117,0-0.231c0.116-0.351,0.116-0.582,0.232-0.933c0-0.115,0-0.231,0.117-0.349c0.116-0.349,0.232-0.698,0.232-1.164
			l0,0c0.116-0.465,0.233-1.047,0.465-1.513v-0.116c0.117-0.582,0.349-1.047,0.465-1.629c0.117-0.465,0.349-1.047,0.466-1.513
			v-0.116c0.116-0.35,0.232-0.814,0.349-1.28c0.233-0.582,0.466-1.047,0.698-1.629c0-0.116,0-0.116,0.116-0.233
			c0.582-1.279,1.047-2.56,1.629-3.839c0-0.116,0-0.116,0.117-0.232c0.465-1.047,0.931-1.979,1.396-3.025v-0.116
			c0.349-0.813,0.814-1.629,1.164-2.442c0.116-0.117,0.116-0.233,0.233-0.35c0.349-0.697,0.698-1.396,1.047-2.094
			c0.116-0.117,0.116-0.349,0.233-0.466c0.349-0.582,0.582-1.163,0.931-1.745c0.116-0.116,0.116-0.232,0.232-0.349
			c0.349-0.582,0.698-1.28,1.047-1.861c0.116-0.117,0.233-0.349,0.233-0.465c0.232-0.465,0.582-0.932,0.814-1.396
			c0.116-0.231,0.232-0.349,0.349-0.582c0.349-0.582,0.698-1.047,1.047-1.629l0.116-0.116c0.349-0.582,0.814-1.164,1.164-1.745
			c0.116-0.116,0.233-0.35,0.349-0.466c0.349-0.465,0.582-0.813,0.931-1.279c0.117-0.116,0.233-0.35,0.349-0.466
			c0.465-0.581,0.931-1.163,1.396-1.744l0.116-0.117c0.465-0.582,0.931-1.163,1.396-1.745c0.117-0.116,0.233-0.349,0.349-0.465
			c0.582-0.698,1.164-1.28,1.745-1.979c0.117-0.115,0.117-0.115,0.233-0.231c0.814-0.814,1.513-1.629,2.327-2.443
			c0.116-0.117,0.232-0.232,0.349-0.349c0.466-0.465,0.931-0.814,1.396-1.28c0.116-0.117,0.349-0.349,0.465-0.466
			c0.465-0.465,1.047-0.932,1.513-1.28c0.116-0.116,0.232-0.231,0.349-0.231c0.582-0.466,1.163-0.932,1.745-1.396
			c0.116-0.116,0.349-0.232,0.465-0.349c0.465-0.35,0.931-0.698,1.396-1.047c0.233-0.116,0.465-0.35,0.582-0.466
			c0.465-0.349,0.931-0.697,1.396-0.931c0.233-0.117,0.349-0.233,0.582-0.466c0.698-0.465,1.396-0.931,1.978-1.396
			c1.28-0.813,3.258-1.978,5.585-3.142c0.931-0.465,1.745-0.931,2.56-1.28C-254.136,149.685-254.02,149.685-254.02,149.685z"/>
	</g>
	<g>
		<g enable-background="new    ">
			<g>
				<g>
					<defs>
						<polygon id="SVGID_20_" points="-273.194,433.338 -272.612,231.239 -74.935,297.442 -75.517,499.541 						"/>
					</defs>
					<clipPath id="SVGID_21_">
						<use xlink:href="#SVGID_20_"  overflow="visible"/>
					</clipPath>
					<g clip-path="url(#SVGID_21_)">
						<path fill="#DB3500" d="M-176.741,408.206c-5.235-1.745-10.82-0.231-15.126,4.771c-7.911,9.308-8.727,27.226-1.978,39.908
							c3.142,5.816,7.214,9.424,11.635,10.937c5.235,1.745,10.704,0.232,15.125-4.771c7.912-9.309,8.843-27.109,1.979-39.791
							C-168.247,413.443-172.436,409.72-176.741,408.206"/>
						<path fill="#DB3500" d="M-168.131,339.677c-25.364-8.493-52.008-1.513-72.951,22.455l16.173,30.136
							c13.612-15.358,30.717-21.525,48.519-17.453c1.629,0.35,3.142,0.813,4.771,1.396c15.823,5.354,30.251,18.616,40.955,37.932
							l18.85-22.225C-126.942,364.459-147.071,346.774-168.131,339.677"/>
						<path fill="#DB3500" d="M-161.266,268.47c-38.745-12.915-79.584-2.21-111.58,34.672l16.173,30.136
							c26.411-30.251,59.92-38.979,91.8-28.391c26.528,8.844,51.894,31.299,70.975,65.854l18.849-22.105
							C-98.204,306.516-129.037,279.29-161.266,268.47"/>
					</g>
				</g>
			</g>
		</g>
	</g>
	<g>
		<g enable-background="new    ">
			<g>
				<path fill="#FBFBFB" d="M161.959,249.156l6.516,4.188c-3.956-2.561-9.541-2.443-15.94,0.931
					c-2.443,1.28-4.887,3.025-7.097,5.003l-6.516-4.188c2.21-1.979,4.654-3.725,7.097-5.003
					C152.302,246.713,158.003,246.597,161.959,249.156z"/>
				<path fill="#FBFBFB" d="M65.272,273.939c5.584-2.909,10.704-3.956,15.125-3.49c6.632-11.17,16.056-20.827,26.179-26.062
					c9.657-5.003,18.267-5.235,24.201-1.396l6.516,4.188c-6.05-3.839-14.544-3.724-24.201,1.396
					c-10.123,5.354-19.547,15.009-26.179,26.062c-4.421-0.466-9.541,0.582-15.125,3.489c-17.22,8.959-31.764,31.881-32.462,51.194
					c-0.349,9.54,2.676,16.405,8.028,19.896l-6.516-4.188c-5.352-3.374-8.377-10.239-8.028-19.896
					C33.625,305.819,48.169,282.898,65.272,273.939z"/>
			</g>
			<g>
				<path fill="#E2E2E2" d="M113.092,248.574c-10.123,5.354-19.547,15.009-26.179,26.062c-4.421-0.466-9.541,0.582-15.125,3.489
					c-17.22,8.959-31.764,31.881-32.462,51.194c-0.814,19.313,12.566,27.691,29.786,18.615l81.445-42.467
					c12.566-6.634,23.27-23.388,23.852-37.581c0.582-14.195-9.191-20.245-21.874-13.729c-2.443,1.279-4.887,3.025-7.097,5.003
					C141.83,245.2,128.915,240.314,113.092,248.574z"/>
			</g>
		</g>
	</g>
	<g>
		<g enable-background="new    ">
			<g>
				<path fill="#FBFBFB" d="M467.252,29.894l5.353,3.491c-3.258-2.096-7.912-1.979-13.147,0.697
					c-2.094,1.047-3.955,2.443-5.935,4.072l-5.352-3.49c1.861-1.629,3.839-3.024,5.934-4.071
					C459.34,27.8,463.994,27.8,467.252,29.894z"/>
				<path fill="#FBFBFB" d="M387.669,50.255c4.537-2.442,8.843-3.258,12.449-2.908c5.469-9.192,13.146-17.104,21.523-21.525
					c7.912-4.188,15.01-4.305,20.014-1.047l5.352,3.491c-5.003-3.143-11.983-3.025-20.012,1.047
					c-8.377,4.421-16.058,12.333-21.524,21.523c-3.606-0.465-7.912,0.466-12.45,2.909c-14.193,7.447-26.179,26.295-26.76,42.119
					c-0.35,7.912,2.21,13.497,6.632,16.405l-5.353-3.49c-4.421-2.792-6.98-8.494-6.632-16.405
					C361.606,76.551,373.591,57.701,387.669,50.255z"/>
			</g>
			<g>
				<path fill="#E2E2E2" d="M426.995,29.313c-8.377,4.421-16.058,12.333-21.524,21.523c-3.606-0.465-7.912,0.466-12.45,2.909
					c-14.193,7.447-26.179,26.295-26.76,42.119c-0.582,15.824,10.354,22.805,24.433,15.358l67.019-35.021
					c10.354-5.468,19.198-19.313,19.663-30.949c0.466-11.635-7.562-16.638-17.918-11.285c-2.095,1.047-3.955,2.442-5.935,4.071
					C450.614,26.52,440.026,22.564,426.995,29.313z"/>
			</g>
		</g>
	</g>
	<g>
		<g>
			<g>
				<path fill="#FFFFFF" d="M269.258,191.576c-56.837-77.155-113.674,77.155-170.511,0c6.539-1.016,13.078-5.094,19.616-11.531
					c-6.539-13.346-13.078-29.051-19.616-47.819c56.837,77.155,113.674-77.155,170.511,0
					C269.258,152.01,269.258,171.793,269.258,191.576z"/>
				<g>
					<path fill="#DB3500" d="M210.733,156.679c-5.526,2.645-11.052,5.975-16.578,9.566c-4.56,2.973-8.157,1.766-8.157-2.718
						c0-5.526,0-11.052,0-16.577c0-4.552,3.684-10.681,8.157-13.596c5.526-3.591,11.052-6.921,16.578-9.566
						c4.561-2.2,8.158,0.333,8.158,4.801c0,5.525,0,11.051,0,16.577C218.978,149.7,215.294,154.476,210.733,156.679z"/>
					<path fill="#444444" d="M175.473,178.77c-5.526,3.639-11.052,7.058-16.578,9.832c-4.561,2.308-8.158-0.11-8.158-4.58
						c0-5.526,0-11.052,0-16.577c0-4.562,3.684-9.466,8.158-11.734c5.526-2.775,11.052-6.194,16.578-9.832
						c4.561-3.013,8.158-1.804,8.158,2.677c0,5.526,0,11.051,0,16.577C183.63,169.684,179.947,175.816,175.473,178.77z"/>
					<path fill="#444444" d="M246.081,153.243c-5.526-2.215-11.052-2.837-16.579-2.291c-4.561,0.453-8.156-2.058-8.156-6.555
						c0-5.526,0-11.052,0-16.577c0-4.542,3.684-9.322,8.156-9.759c5.526-0.546,11.052,0.076,16.579,2.291
						c4.562,1.803,8.158,8.18,8.158,12.634c0,5.525,0,11.051,0,16.577C254.238,154.133,250.554,155.001,246.081,153.243z"/>
					<g>
						<path fill="#FFFFFF" d="M164.947,164.714c1.9-2.998,3.801-6.053,5.701-9.149c-3.245-0.739-8.156,2.041-11.402,6.544
							C161.146,163.047,163.046,163.909,164.947,164.714z"/>
						<path fill="#FFFFFF" d="M177.841,157.989c-1.988-0.66-3.976-1.341-5.963-2.062c-3.42,5.587-10.174,15.981-12.457,19.603
							c1.988,0.975,3.977,1.868,5.965,2.699c3.419,1.465,8.946-2.087,12.367-7.814l0,0
							C181.174,164.785,181.174,159.173,177.841,157.989z"/>
						<path fill="#FFFFFF" d="M163.104,167.073c-1.783-0.791-3.567-1.637-5.35-2.554c-2.193,4.195-2.104,8.374,0.264,10.309
							C159.713,172.301,161.409,169.712,163.104,167.073z"/>
					</g>
					<path fill="#FFFFFF" d="M209.77,128.903c-4.883,2.406-9.765,5.328-14.648,8.473c-1.754,1.13-3.158,3.468-3.158,5.22
						c0,5.877,0,11.754,0,17.631c0,1.756,1.403,2.228,3.158,1.097c4.883-3.145,9.765-6.067,14.648-8.473
						c1.752-0.865,3.156-2.883,3.156-4.639c0-5.877,0-11.754,0-17.631C212.925,128.829,211.521,128.038,209.77,128.903z
						 M203.015,155.601c-0.701,0.405-1.229,0.191-1.229-0.512c0-0.701,0.528-1.54,1.229-1.945s1.229-0.176,1.229,0.526
						C204.244,154.373,203.716,155.196,203.015,155.601z M209.504,148.33c-4.736,2.352-9.473,5.185-14.209,8.23
						c0-5.409,0-10.817,0-16.226c4.736-3.045,9.473-5.878,14.209-8.23C209.504,137.512,209.504,142.921,209.504,148.33
						L209.504,148.33z"/>
					<path fill="#FFFFFF" d="M229.24,130.54c0.994,1.182,1.988,2.402,2.982,3.662c-1.316,0.533-2.632,1.136-3.948,1.804
						c-0.964-1.162-1.929-2.289-2.894-3.384C226.667,131.868,227.954,131.173,229.24,130.54z"/>
					<path fill="#FFFFFF" d="M246.694,140.952c0,0.789,0,1.578,0,2.367c-1.198-0.506-2.397-0.937-3.595-1.295
						c0-2.397,0-4.794,0-7.192c2.134-0.179,4.268-0.132,6.401,0.166c-0.994-2.976-1.988-5.897-2.981-8.767
						c-5.496-0.445-10.993,0.696-16.489,3.007c1.783,2.128,3.566,4.38,5.35,6.768c1.901-0.586,3.801-1.017,5.702-1.274
						c0,0,0,8.684,0,9.385c0,0.542,5.701,1.707,5.701,1.871c0,0.79,0,1.58,0,2.37c0.995,0.423,1.989,0.898,2.983,1.428
						c0-2.456,0-4.912,0-7.368C248.742,141.872,247.718,141.385,246.694,140.952L246.694,140.952z M240.467,133.455
						c-0.526-0.113-0.965-0.632-0.965-1.158c0-0.525,0.439-0.883,0.965-0.771c0.526,0.112,0.965,0.66,0.965,1.185
						C241.432,133.238,240.993,133.568,240.467,133.455z"/>
					<g>
						<path fill="#444444" d="M150.827,207.672c0-3.86,0-7.72,0-11.579c0.789-0.293,1.579-0.603,2.368-0.929c0,3.86,0,7.72,0,11.579
							C152.406,207.07,151.616,207.379,150.827,207.672L150.827,207.672z"/>
						<path fill="#444444" d="M155.475,205.759c0-3.859,0-7.72,0-11.579c0.76-0.343,1.52-0.699,2.28-1.068
							c1.579,1.807,3.158,3.557,4.737,5.263c0-2.573,0-5.146,0-7.719c0.73-0.401,1.461-0.812,2.191-1.231c0,3.86,0,7.72,0,11.579
							c-0.789,0.453-1.578,0.896-2.367,1.328c-1.55-1.668-3.099-3.379-4.649-5.144c0,2.516,0,5.03,0,7.545
							C156.937,205.087,156.206,205.43,155.475,205.759L155.475,205.759z"/>
						<path fill="#444444" d="M167.141,199.561c0-3.859,0-7.719,0-11.579c2.661-1.594,5.321-3.288,7.981-5.034
							c0,0.643,0,1.287,0,1.93c-1.871,1.229-3.742,2.432-5.613,3.592c0,0.906,0,1.813,0,2.721c1.608-0.997,3.216-2.025,4.824-3.075
							c0,0.644,0,1.286,0,1.929c-1.608,1.05-3.216,2.078-4.824,3.075c0,1.637,0,3.273,0,4.911c-0.79,0.489-1.579,0.971-2.368,1.443
							C167.141,199.502,167.141,199.531,167.141,199.561z"/>
						<path fill="#444444" d="M176.526,187.897c0-1.14,0.174-2.308,0.526-3.331c0.262-0.788,0.613-1.55,1.052-2.281
							c0.439-0.731,0.965-1.438,1.491-2.055c0.703-0.737,1.58-1.503,2.456-2.098c1.667-1.13,3.07-1.557,4.124-1.218
							c1.052,0.342,1.578,1.477,1.578,3.317c0,1.842-0.526,3.688-1.491,5.395c-1.052,1.766-2.37,3.187-4.123,4.376
							c-1.754,1.188-3.069,1.549-4.123,1.199C177.052,190.882,176.526,189.739,176.526,187.897z M178.981,186.169
							c0,1.318,0.264,2.104,0.877,2.394c0.614,0.288,1.404,0.104,2.281-0.489c0.963-0.653,1.667-1.481,2.28-2.513
							c0.614-1.118,0.877-2.261,0.877-3.576c0-1.314-0.263-2.101-0.877-2.387c-0.613-0.198-1.316-0.071-2.28,0.582
							c-0.965,0.654-1.754,1.537-2.368,2.565C179.245,183.713,178.981,184.855,178.981,186.169z"/>
						<path fill="#DB3500" d="M188.981,181.425c0.76-0.599,1.52-1.194,2.28-1.787c0.175,0.674,0.439,1.023,0.878,1.085
							c0.438,0.062,0.964-0.11,1.667-0.568c0.789-0.514,1.314-1.026,1.667-1.518c0.351-0.575,0.613-1.094,0.613-1.531
							c0-0.264-0.089-0.471-0.264-0.533s-0.438-0.071-0.876,0.036c-0.264,0.082-0.877,0.304-1.842,0.672
							c-1.229,0.456-2.106,0.69-2.63,0.6c-0.704-0.143-1.054-0.698-1.054-1.662c0-0.613,0.175-1.259,0.526-2.021
							c0.351-0.759,0.79-1.403,1.491-2.134c0.615-0.67,1.405-1.367,2.282-1.939c1.49-0.972,2.543-1.291,3.245-1.119
							c0.703,0.168,1.141,0.776,1.141,1.828c-0.79,0.521-1.58,1.051-2.37,1.586c-0.087-0.562-0.35-0.832-0.613-0.922
							c-0.351-0.038-0.79,0.157-1.491,0.614c-0.702,0.458-1.228,0.979-1.578,1.475c-0.265,0.35-0.351,0.671-0.351,0.934
							c0,0.264,0.086,0.471,0.351,0.469c0.262,0.094,1.052-0.167,2.192-0.646c1.14-0.475,2.017-0.771,2.543-0.752
							c0.524-0.069,0.964,0.094,1.314,0.314c0.352,0.306,0.439,0.867,0.439,1.567c0,0.704-0.175,1.425-0.526,2.171
							c-0.351,0.831-0.877,1.601-1.58,2.311c-0.701,0.706-1.489,1.39-2.542,2.074c-1.493,0.973-2.631,1.378-3.421,1.204
							C189.596,183.291,189.156,182.621,188.981,181.425z"/>
						<path fill="#DB3500" d="M203.454,176.049c0-1.638,0-3.275,0-4.913c-1.404-1.447-2.808-2.862-4.211-4.252
							c0.907-0.557,1.814-1.103,2.721-1.636c0.907,0.987,1.813,1.987,2.72,3c0.876-2.01,1.752-4.007,2.628-5.989
							c0.907-0.477,1.814-0.938,2.721-1.382c-1.433,2.952-2.865,5.949-4.297,8.982c0,1.608,0,3.217,0,4.825
							c-0.76,0.416-1.521,0.842-2.281,1.277C203.454,175.99,203.454,176.02,203.454,176.049L203.454,176.049z"/>
						<path fill="#DB3500" d="M210.645,168.475c0.76-0.452,1.52-0.892,2.28-1.317c0.176,0.712,0.438,1.12,0.878,1.282
							c0.438,0.162,0.965,0.113,1.667-0.168c0.788-0.315,1.314-0.688,1.667-1.083c0.351-0.479,0.613-0.925,0.613-1.363
							c0-0.264-0.087-0.496-0.264-0.606c-0.175-0.11-0.438-0.191-0.877-0.199c-0.263,0.012-0.876,0.071-1.84,0.204
							c-1.229,0.16-2.106,0.207-2.632,0.007c-0.701-0.291-1.053-0.913-1.053-1.877c0-0.613,0.175-1.225,0.526-1.915
							c0.351-0.688,0.79-1.242,1.493-1.817c0.613-0.534,1.403-1.049,2.28-1.402c1.491-0.6,2.543-0.62,3.245-0.246
							c0.704,0.372,1.141,1.113,1.141,2.165c-0.79,0.283-1.579,0.583-2.369,0.902c-0.088-0.584-0.351-0.927-0.614-1.087
							c-0.349-0.131-0.788-0.053-1.491,0.231c-0.702,0.284-1.228,0.684-1.578,1.098c-0.264,0.288-0.351,0.591-0.351,0.854
							c0,0.264,0.087,0.49,0.351,0.548c0.264,0.153,1.054,0.072,2.192-0.115c1.141-0.183,2.018-0.233,2.543-0.063
							c0.526,0.081,0.964,0.375,1.316,0.702c0.35,0.413,0.438,1.002,0.438,1.702c0,0.705-0.175,1.371-0.526,2.011
							c-0.351,0.725-0.876,1.338-1.578,1.848c-0.703,0.51-1.492,0.978-2.543,1.396c-1.493,0.599-2.631,0.756-3.421,0.414
							C211.346,170.24,210.733,169.746,210.645,168.475z"/>
						<path fill="#DB3500" d="M224.591,167.259c0-3.216,0-6.433,0-9.648c-1.14,0.248-2.28,0.54-3.42,0.872c0-0.644,0-1.287,0-1.931
							c3.07-0.896,6.14-1.497,9.209-1.73c0,0.644,0,1.287,0,1.931c-1.14,0.086-2.28,0.224-3.42,0.409c0,3.216,0,6.432,0,9.648
							C226.17,166.937,225.381,167.087,224.591,167.259z"/>
						<path fill="#DB3500" d="M231.872,166.316c0-3.86,0-7.72,0-11.579c2.865-0.105,5.73,0.119,8.596,0.733c0,0.644,0,1.287,0,1.931
							c-2.076-0.445-4.151-0.686-6.227-0.744c0,0.848,0,1.695,0,2.543c1.929,0.054,3.859,0.266,5.788,0.653c0,0.643,0,1.286,0,1.929
							c-1.929-0.387-3.859-0.599-5.788-0.653c0,1.053,0,2.106,0,3.16c2.163,0.061,4.326,0.32,6.489,0.802c0,0.643,0,1.286,0,1.929
							c-2.953-0.658-5.905-0.9-8.858-0.791C231.872,166.258,231.872,166.287,231.872,166.316L231.872,166.316z"/>
						<path fill="#DB3500" d="M242.66,167.597c0-3.86,0-7.72,0-11.579c1.169,0.333,2.338,0.734,3.507,1.206
							c0.702,2.916,1.404,5.856,2.106,8.824c0.701-2.296,1.402-4.566,2.104-6.809c1.17,0.65,2.34,1.376,3.51,2.182
							c0,3.86,0,7.719,0,11.58c-0.731-0.504-1.462-0.977-2.193-1.419c0-3.041,0-6.082,0-9.122c-0.76,2.581-1.52,5.195-2.279,7.841
							c-0.761-0.396-1.521-0.759-2.282-1.092c-0.759-3.374-1.519-6.716-2.278-10.029c0,3.041,0,6.082,0,9.123
							C244.123,168.04,243.391,167.805,242.66,167.597L242.66,167.597z"/>
					</g>
				</g>
			</g>
		</g>
		<g>
			<g>
				<polygon fill="#00C7DC" points="464.253,318.093 430.857,335.899 430.857,300.283 464.253,282.474 				"/>
				<polygon fill="#009AA9" points="432.447,335.899 367.892,304.736 367.892,269.116 432.447,300.283 				"/>
			</g>
			<g>
				<path fill="#F8E12E" d="M260.716,163.854C260.716,163.854,260.716,163.533,260.716,163.854L260.716,163.854
					C260.716,163.533,260.716,163.533,260.716,163.854z"/>
				<path fill="#F8E12E" d="M553.935,261.803c0-0.317-0.317-0.635-0.317-0.955c0-0.315-0.318-0.315-0.318-0.633
					c-0.955-2.227-1.905-4.453-3.496-6.999v-0.314c-0.318-0.636-0.636-1.274-1.273-1.909c-0.317-0.636-0.956-1.591-1.271-2.227
					c-0.317-0.314-0.317-0.632-0.639-0.952c-0.635-1.273-1.588-2.227-2.226-3.5c0,0,0,0,0-0.317
					c-7.632-10.812-18.127-21.942-32.752-33.393c-7.313-5.723-15.266-11.446-23.535-16.536c-8.587-5.405-17.81-10.813-27.984-15.583
					c0,0-0.315,0-0.315-0.32c-0.317-0.315-0.638-0.315-1.272-0.633c-1.274-0.638-2.864-1.271-4.139-1.909
					c-0.952-0.317-1.588-0.953-2.543-1.271c-0.956-0.317-1.909-0.952-2.861-1.271c-1.591-0.638-2.862-1.27-4.452-1.908
					c-0.318-0.318-0.959-0.318-1.276-0.638c-1.906-0.633-3.814-1.591-5.405-2.224c0,0-0.317,0-0.317-0.32
					c-0.318,0-0.318,0-0.636-0.317c-0.956-0.316-1.906-0.636-2.861-0.954c0,0-0.317,0-0.317-0.317
					c-0.956-0.318-1.591-0.636-2.226-0.953c-0.633-0.318-1.592-0.638-2.225-0.956c-0.317,0-0.317,0-0.635-0.315
					c-0.318,0-0.636-0.317-0.636-0.317l-0.317-0.321c0,0,0,0-0.317,0c-0.318,0-0.318,0-0.636-0.317l0,0l0,0
					c-1.906-0.635-3.497-1.271-4.768-1.591c-10.181-3.497-21.944-6.676-34.348-8.905c-27.984-5.723-53.426-7.314-74.736-6.997
					c-0.316,0-0.316,0-0.637,0c-0.634,0-1.271,0-1.906,0l0,0l0,0c-0.638,0-0.955,0-1.592,0c-1.908,0-3.499,0-5.087,0.318h-0.319l0,0
					c0,0,0,0-0.318,0h-0.316c-0.953,0-1.59,0-2.545,0c0,0,0,0-0.316,0c-0.953,0-1.592,0-2.545,0h-0.954l0,0l0,0h-0.954
					c-0.635,0-1.271,0-1.906,0c-0.318,0-0.318,0-0.318,0c-0.955,0-1.907,0-2.862,0.318c-2.225,0.318-3.498,0.318-5.407,0.638h-0.32
					l0,0l0,0c-0.316,0-0.634,0-0.634,0c-0.636,0-1.271,0.318-2.225,0.318c-0.637,0-1.271,0.315-1.907,0.315l0,0l0,0h-0.318h-0.954
					h-0.316h-0.32l-0.954,0.318h-0.637c-0.316,0-0.637,0-0.954,0.32l0,0l0,0c0,0,0,0-0.316,0l0,0h-0.318l0,0l0,0
					c-0.318,0-0.637,0.318-0.953,0.318c0,0,0,0-0.32,0c-0.318,0.317-0.634,0.317-0.955,0.317l0,0l0,0
					c-0.316,0.314-0.953,0.314-1.59,0.953c-0.316,0-0.316,0.318-0.634,0.318l0,0h-0.319l0,0l0,0l0,0c0,0,0,0-0.317,0
					c0,0-0.318,0-0.318,0.32l0,0l-0.318,0.314l0,0c0,0,0,0,0.318-0.314c0,0-0.318,0-0.318,0.314l0,0l0,0
					c-0.318,0-0.318,0.318-0.634,0.318l0.316-0.318c0,0-0.316,0-0.316,0.318l0,0l-0.32,0.318l0.32-0.318l0,0
					c0.316-0.318,0.634-0.318,0.634-0.632l0,0c0,0,0,0-0.318,0.314c0,0,0,0-0.316,0l0,0c-0.32,0.318-0.638,0.318-0.955,0.636
					c0.316,0,0.316-0.318,0.634-0.318l-0.336,0.315l0,0c0,0,0,0.321-0.317,0.321c0,0,0,0-0.319,0.314l0,0c0,0,0,0-0.317,0.318
					c0,0,0,0.32-0.316,0.32l-0.317,0.318l0,0l0,0c0,0,0,0,0,0.317c0,0,0,0.315-0.321,0.315c-0.634,0.956-0.953,1.271-0.953,1.591
					l0,0l0,0l0,0l0,0l0,0l0,0l0,0l0,0l0,0l0,0l0,0l0,0l0,0l0,0l0,0l0,0l0,0l0,0l0,0l0,0l0,0l0,0v0.318v0.318
					c0,0.32-0.318,0.32-0.318,0.635l0,0c0,0.318,0,0.318-0.316,0.635c0,0,0,0,0,0.321c0,0.317-0.318,0.632-0.318,0.953l0,0
					c0,0.317,0,0.635-0.32,0.635l0,0l0,0c0,0,0,0,0,0.317v0.318c0,0.317,0,0.635,0,0.635v0.32l0,0l0,0v0.315c0,0,0,0,0-0.315v0.315
					c0,0,0,0,0,0.317v-0.317v0.317c0,0,0,0,0,0.317l0,0v0.638l0,0l0,0l0,0l0,0l0,0l0,0c0,0.315,0,0.315,0,0.635v0.318v0.317v0.317
					c0,0.318,0,0.318,0,0.636l0,0c0,0.318,0,0.318,0,0.638c-0.634-2.546-0.634-5.09-0.316-7.313l0,0c0,0.315,0,0.635,0,0.953v0.318
					c0,0.315,0,0.635,0,0.953l0,0c0,0.318,0,0.638,0,0.953c0-0.953,0-2.224,0.316-3.814c0.32-0.953,0.32-1.591,0.954-2.226
					c-0.316,0.638-0.634,1.276-0.634,2.226v-0.317c0,0,0,0,0,0.317l0,0c0,0,0,0,0,0.32l0,0l0,0v0.318
					c-0.955,4.452,0,8.904,1.909,12.718l0,0l0,0c0.319,0.321,0.319,0.639,0.636,1.274l0,0l0,0l0,0l0,0l0,0l0,0l0,0l0,0l0,0l0,0
					c0.316,0.317,0.316,0.635,0.634,0.955c0.319,0.635,0.637,1.273,0.954,1.909c0,0,0,0.315,0.319,0.315l0.318,0.637l0,0l0,0
					l0.316,0.639v0.314c0.317,0.955,0.954,1.59,1.591,2.547c0,0,0,0.315,0.317,0.315c0.316,0.319,0.316,0.637,0.634,0.955
					c20.672,34.981,47.068,62.971,74.417,84.909c3.815,3.182,7.317,5.727,9.544,7.632c3.494,2.547,7.314,5.087,10.492,7.316
					c0.321,0,0.321,0.317,0.637,0.317l0.316,0.317l0.956,0.638l0.315,0.319c2.225,1.59,4.452,2.86,6.36,4.134
					c3.181,2.224,6.678,4.132,10.813,6.36l0,0l0,0c0.316,0,0.316,0.32,0.635,0.32c0.321,0.315,0.635,0.315,0.956,0.633l0,0l0,0
					c4.452,2.544,6.999,3.817,11.13,5.724c0.319,0.32,0.954,0.638,1.589,0.955c19.08,9.54,37.524,16.536,54.702,20.988
					c54.384,14.628,88.094,2.227,100.498-20.673c0,0,0,0,0-0.315l0,0c0,0,0-0.317,0.314-0.317l0,0v-0.317c0,0,0,0,0-0.32l0,0
					c0-0.315,0.317-0.633,0.317-0.633c0.318-0.32,0.318-0.956,0.636-1.271c0,0,0,0,0-0.321
					C559.657,289.473,559.657,276.43,553.935,261.803z M261.036,160.672L261.036,160.672L261.036,160.672L261.036,160.672z"/>
				<path fill="#F8E12E" d="M261.352,160.352v-0.318l0,0l0,0l0,0c0-0.317,0-0.633,0.318-0.953c0,0,0,0,0,0.32l0,0l0,0
					c0,0,0,0,0,0.315v0.317C261.352,160.034,261.352,160.352,261.352,160.352L261.352,160.352L261.352,160.352z"/>
				<path fill="#F8E12E" d="M262.94,156.534l0.32-0.314l0,0l0,0l0,0c0.955-0.956,1.591-1.591,2.545-2.227
					c-0.318,0.317-0.955,0.636-1.272,0.956l0,0l0,0l0,0l-0.319,0.315l0.319-0.315c-0.319,0.315-0.637,0.633-0.953,0.953
					c0-0.317,0.316-0.317,0.634-0.635c0,0-0.318,0.317-0.634,0.635l0,0L262.94,156.534L262.94,156.534L262.94,156.534
					L262.94,156.534z"/>
				<path fill="#F8E12E" d="M261.67,158.764c0-0.318,0.318-0.638,0.318-0.638l0,0v-0.315c0,0,0,0,0,0.315
					c0-0.315,0.319-0.315,0.319-0.633c0,0,0,0.317-0.319,0.317l0.319-0.317c0,0,0,0,0,0.317c0-0.317,0.317-0.635,0.634-0.955
					l-0.316,0.32c0,0,0,0,0-0.32l-0.317,0.32l0,0l0,0c0,0-0.319,0.318-0.319,0.635l0,0v0.315
					C261.988,158.126,261.988,158.126,261.67,158.764c0-0.318,0.318-0.318,0.318-0.638
					C261.988,158.446,261.67,158.446,261.67,158.764z"/>
				<path fill="#F8E12E" d="M261.67,159.081c0,0,0-0.317,0.318-0.317C261.67,158.764,261.67,158.764,261.67,159.081
					c0-0.317,0.318-0.635,0.318-0.635L261.67,159.081L261.67,159.081L261.67,159.081L261.67,159.081z"/>
				<path fill="#F8E12E" d="M261.988,158.446c0.319-0.953,0.953-1.909,1.907-2.862C262.94,156.534,262.307,157.49,261.988,158.446z"
					/>
				<path fill="#F8E12E" d="M261.67,159.401L261.67,159.401L261.67,159.401z"/>
				<path fill="#F8E12E" d="M266.759,153.041l-0.636,0.317c0.317-0.317,0.954-0.635,1.271-0.956L266.759,153.041z"/>
				<path fill="#F8E12E" d="M264.531,154.629c0.318-0.318,0.634-0.636,0.954-0.636C265.168,154.311,264.852,154.311,264.531,154.629
					z"/>
				<path fill="#F8E12E" d="M265.488,153.993L265.488,153.993L265.488,153.993L265.488,153.993z"/>
				<path fill="#F8E12E" d="M263.895,155.264L263.895,155.264L263.895,155.264z"/>
			</g>
			<g>
				<path fill="#FF9000" d="M261.67,160.352L261.67,160.352L261.67,160.352L261.67,160.352z"/>
				<path fill="#FF9000" d="M549.8,286.926c0-0.317-0.317-0.635-0.317-0.635s0-0.318-0.318-0.318
					c-0.635-1.59-1.591-3.182-2.546-4.77c0,0,0,0,0-0.32c-0.318-0.633-0.636-0.954-0.953-1.591
					c-0.317-0.636-0.635-1.271-0.955-1.591c-0.321-0.315-0.321-0.633-0.635-0.952c-0.637-0.954-1.274-1.592-1.909-2.545l0,0
					c-6.358-8.269-15.901-17.175-29.258-27.352c-6.679-5.088-14.311-10.496-21.942-15.266c-7.951-5.088-16.855-10.493-26.711-15.581
					c0,0-0.317,0-0.317-0.317c-0.321-0.318-0.639-0.318-1.273-0.638c-1.273-0.633-2.547-1.592-4.138-2.225
					c-0.952-0.317-1.59-0.955-2.544-1.27c-0.953-0.636-1.908-0.956-2.861-1.591c-1.591-0.638-2.864-1.592-4.452-2.227
					c-0.318-0.318-0.958-0.318-1.273-0.638c-1.908-0.953-3.497-1.905-5.407-2.545c0,0-0.317,0-0.317-0.317
					c-0.318,0-0.318,0-0.637-0.317c-0.955-0.317-1.908-0.955-2.543-1.273c0,0-0.317,0-0.317-0.314
					c-0.636-0.317-1.592-0.638-2.227-0.955c-0.633-0.318-1.591-0.633-2.224-0.954c-0.317,0-0.317-0.317-0.635-0.317
					c-0.318,0-0.636-0.317-0.636-0.317l-0.317-0.32c0,0,0,0-0.317,0s-0.317-0.315-0.637-0.315l0,0l0,0
					c-1.59-0.635-3.181-1.591-4.766-2.226c-10.182-4.452-21.627-8.905-34.031-13.357c-27.667-9.859-53.747-16.856-75.69-21.626
					c-0.316,0-0.316,0-0.634,0c-0.637,0-1.271-0.321-1.907-0.321l0,0l0,0c-0.638,0-0.954-0.317-1.591-0.317
					c-1.908-0.315-3.5-0.633-5.407-0.953h-0.32l0,0c0,0,0,0-0.316,0h-0.317c-0.954-0.318-1.908-0.318-2.86-0.636c0,0,0,0-0.318,0
					c-0.955-0.315-1.591-0.315-2.545-0.315l-0.953-0.32l0,0l0,0l-0.954-0.318c-0.637,0-1.271-0.317-2.226-0.317
					c-0.317,0-0.317,0-0.637,0c-0.953-0.321-1.908-0.321-2.862-0.635c-2.225-0.317-3.498-0.635-5.723-0.956h-0.32l0,0l0,0
					c-0.316,0-0.634,0-0.953,0c-0.638,0-1.591-0.315-2.225-0.315c-0.638,0-1.274-0.318-1.908-0.318l0,0l0,0h-0.318h-0.953h-0.321
					h-0.317h-0.953h-0.634c-0.32,0-0.638,0-0.954,0l0,0l0,0c0,0,0,0-0.32,0l0,0h-0.316l0,0l0,0c-0.317,0-0.634,0-1.272,0
					c0,0,0,0-0.316,0c-0.637,0-0.954,0-1.271,0h-0.319l0,0c-0.635,0-0.955,0-1.909,0c-0.319,0-0.319,0-0.636,0l0,0h-0.316l0,0l0,0
					l0,0h-0.32h-0.317l0,0h-0.316l0,0h0.316h-0.316l0,0l0,0c-0.317,0-0.637,0-0.637,0h0.32h-0.32l0,0h-0.317h0.317l0,0
					c0.32,0,0.637,0,0.954,0l0,0h-0.316c0,0,0,0-0.317,0l0,0c-0.32,0-0.637,0-0.954,0.318c0.316,0,0.316,0,0.634,0h-0.317l0,0
					h-0.316h-0.32l0,0c0,0,0,0-0.318,0h-0.316h-0.32l0,0l0,0l0,0c0,0,0,0-0.316,0c-0.635,0.315-0.954,0.635-1.271,0.635l0,0l0,0l0,0
					l0,0l0,0l0,0l0,0l0,0l0,0l0,0l0,0l0,0l0,0l0,0l0,0l0,0l0,0l0,0l0,0l0,0l0,0l0,0c0,0,0,0,0,0.318c0,0,0,0-0.316,0.317
					l-0.321,0.314l0,0l-0.316,0.321l0,0l-0.317,0.317l0,0l-0.318,0.318l0,0l0,0l0,0c0,0,0,0,0,0.317c0,0,0,0.318-0.318,0.318l0,0
					l0,0l0,0v0.317l0,0v0.318l0,0c0,0,0,0,0-0.318v0.318l0,0l0,0v0.32l0,0l0,0l0,0l0,0l0,0l0,0v0.317v0.315l0,0c0,0,0,0,0,0.317
					v0.321l0,0v0.317c-0.318-1.591,0-3.182,0.636-4.453l0,0c0,0-0.318,0.315-0.318,0.636c0,0,0,0,0,0.318
					c0,0.317,0,0.317-0.318,0.635l0,0c0,0.318,0,0.318,0,0.635c0-0.635,0.318-1.27,0.636-2.224c0.317-0.317,0.634-0.955,1.271-1.271
					c-0.316,0.315-0.637,0.633-0.954,0.953c0,0,0,0,0-0.32l0,0l0,0l0,0l0,0l0,0l0,0c-1.59,2.226-0.954,5.408,0.316,7.952l0,0l0,0
					c0,0.318,0.321,0.633,0.321,0.953l0,0l0,0l0,0l0,0l0,0l0,0l0,0l0,0l0,0l0,0c0,0.321,0.316,0.638,0.634,0.956
					c0.319,0.317,0.636,0.953,0.954,1.271v0.319l0.316,0.633l0,0l0,0l0.32,0.321c0,0,0,0,0,0.317
					c0.316,0.633,0.634,1.271,1.271,1.908c0,0,0,0,0,0.314c0.317,0.318,0.317,0.318,0.317,0.636
					c16.536,25.44,40.07,48.341,65.512,67.74c3.502,2.862,6.678,5.089,8.907,6.677c3.182,2.547,6.675,4.77,9.857,6.679
					c0.316,0,0.316,0.317,0.316,0.317s0.318,0,0.318,0.317l0.633,0.636l0.317,0.317c2.229,1.273,4.138,2.862,6.044,3.814
					c3.182,1.908,6.36,3.817,10.181,6.36l0,0l0,0c0.315,0,0.315,0.317,0.632,0.317c0.318,0.318,0.636,0.318,0.956,0.636l0,0l0,0
					c4.452,2.544,6.677,4.136,10.496,6.044c0.317,0.314,0.955,0.633,1.59,0.952c18.128,10.176,36.254,18.445,53.429,25.123
					c54.063,21.307,90.318,21.942,105.9,11.129l0,0l0,0c0,0,0,0,0.315,0l0,0c0,0,0,0,0.317,0l0,0l0,0
					c0.317,0,0.317-0.318,0.639-0.318c0.317-0.317,0.633-0.317,0.633-0.635l0,0C551.709,304.736,553.617,296.784,549.8,286.926z
					 M262.307,158.764L262.307,158.764L262.307,158.764L262.307,158.764z"/>
				<path fill="#FF9000" d="M262.624,158.446L262.624,158.446L262.624,158.446C262.624,158.446,262.624,158.126,262.624,158.446
					C262.624,158.126,262.624,158.126,262.624,158.446c0.316-0.32,0.316-0.636,0.637-0.636l0,0l0,0l0,0l0,0v0.315
					C262.624,158.446,262.624,158.446,262.624,158.446L262.624,158.446L262.624,158.446z"/>
				<path fill="#FF9000" d="M264.852,156.534c0,0,0.316,0,0.316-0.314l0,0l0,0l0,0c0.955-0.32,1.909-0.638,2.863-0.956
					c-0.317,0-0.954,0.318-1.272,0.318l0,0l0,0l0,0c-0.319,0-0.319,0-0.319,0h0.319c-0.319,0-0.636,0.318-0.953,0.318
					c0.316,0,0.316,0,0.634-0.318c0,0-0.317,0-0.634,0.318l0,0L264.852,156.534L264.852,156.534
					C264.531,156.534,264.852,156.534,264.852,156.534L264.852,156.534z"/>
				<path fill="#FF9000" d="M263.261,157.81l0.316-0.317l0,0c0,0,0,0,0.317,0l0,0l0.318-0.318c0,0,0,0-0.318,0
					c0,0,0.318,0,0.318-0.32l0,0c0.318,0,0.318-0.318,0.636-0.318h-0.318l0,0h-0.318l0,0l0,0c0,0-0.318,0-0.318,0.318l0,0h-0.317
					C263.577,157.49,263.577,157.49,263.261,157.81C263.577,157.49,263.577,157.49,263.261,157.81
					C263.577,157.49,263.261,157.49,263.261,157.81z"/>
				<path fill="#FF9000" d="M262.94,157.81C262.94,157.81,263.261,157.81,262.94,157.81
					C263.261,157.81,263.261,157.81,262.94,157.81c0.32-0.317,0.32-0.317,0.32-0.317L262.94,157.81L262.94,157.81L262.94,157.81
					L262.94,157.81z"/>
				<path fill="#FF9000" d="M263.577,157.49c0.636-0.318,1.272-0.956,2.225-1.271C264.852,156.855,263.895,157.173,263.577,157.49z"
					/>
				<path fill="#FF9000" d="M262.94,157.81L262.94,157.81L262.94,157.81z"/>
				<path fill="#FF9000" d="M268.984,155.582h-0.637c0.318,0,0.954-0.318,1.59-0.318L268.984,155.582z"/>
				<path fill="#FF9000" d="M266.759,155.9c0.318,0,0.634-0.318,0.955-0.318C267.393,155.9,267.077,155.9,266.759,155.9z"/>
				<path fill="#FF9000" d="M267.713,155.582L267.713,155.582L267.713,155.582L267.713,155.582z"/>
				<path fill="#FF9000" d="M266.123,156.22L266.123,156.22L266.123,156.22z"/>
			</g>
			<g>
				<path fill="#F8E12E" d="M262.624,160.034L262.624,160.034L262.624,160.034L262.624,160.034z"/>
				<path fill="#F8E12E" d="M543.121,302.827c0,0,0-0.32-0.317-0.32c0,0,0,0,0-0.317c-0.636-0.953-1.273-1.592-1.906-2.862l0,0
					c-0.317-0.32-0.635-0.635-0.635-0.952c-0.32-0.32-0.636-0.639-0.955-0.956c0-0.314-0.318-0.314-0.637-0.635
					c-0.633-0.637-0.955-0.954-1.59-1.592l0,0c-5.405-5.09-13.993-11.766-26.397-20.035c-6.354-4.135-13.356-8.587-20.668-13.039
					c-7.632-4.771-16.219-9.541-25.44-14.631c0,0-0.317,0-0.317-0.317c-0.32-0.315-0.638-0.315-0.959-0.636
					c-1.271-0.635-2.543-1.27-3.813-2.226c-0.956-0.318-1.589-0.953-2.544-1.271c-0.957-0.635-1.906-0.952-2.864-1.59
					c-1.271-0.639-2.862-1.591-4.135-2.224c-0.317-0.318-0.953-0.318-1.271-0.639c-1.909-0.952-3.5-1.908-5.091-2.861
					c0,0-0.317,0-0.317-0.32l-0.315-0.317c-0.955-0.633-1.908-0.953-2.546-1.271c0,0-0.315,0-0.315-0.317
					c-0.635-0.321-1.591-0.635-2.227-1.271c-0.635-0.319-1.59-0.635-2.226-0.952c-0.314,0-0.314-0.32-0.633-0.32
					c-0.32,0-0.638-0.318-0.638-0.318l-0.314-0.317c0,0,0,0-0.317,0c-0.319,0-0.319-0.315-0.637-0.315l0,0l0,0
					c-1.59-0.955-3.182-1.59-4.452-2.225c-9.857-5.092-20.99-10.496-33.392-16.22c-27.353-13.039-53.43-24.17-75.373-33.074
					c-0.316,0-0.316-0.32-0.637-0.32c-0.634-0.315-1.271-0.633-1.909-0.953l0,0l0,0c-0.636-0.317-1.27-0.317-1.589-0.635
					c-1.908-0.637-3.817-1.589-5.406-2.225c0,0-0.321,0-0.321-0.317l0,0c0,0,0,0-0.316,0h-0.316
					c-0.955-0.32-1.909-0.635-2.861-0.953c0,0,0,0-0.318,0c-0.954-0.32-1.591-0.638-2.545-0.955l-0.953-0.314l0,0l0,0l-0.955-0.321
					c-0.636-0.317-1.27-0.636-2.225-0.955c-0.32,0-0.32,0-0.637-0.315c-0.953-0.317-2.226-0.956-2.862-1.271
					c-2.225-0.955-3.497-1.273-5.723-2.226h-0.32l0,0l0,0c-0.316,0-0.634-0.318-0.954-0.318c-0.634-0.317-1.591-0.635-2.225-0.953
					s-1.271-0.638-1.907-0.638l0,0l0,0h-0.32l-0.954-0.317h-0.32h-0.318l-0.953-0.315l-0.635-0.317c-0.319,0-0.636-0.32-0.953-0.32
					l0,0l0,0c0,0,0,0-0.321,0l0,0h-0.317l0,0l0,0c-0.316,0-0.953-0.317-1.271-0.317c0,0,0,0-0.316,0
					c-0.638-0.315-0.954-0.315-1.274-0.315h-0.316l0,0c-0.634,0-0.955-0.32-1.909-0.638c-0.316,0-0.634,0-0.634-0.317l0,0h-0.317
					l0,0l0,0l0,0h-0.319h-0.318l0,0h-0.316l0,0h0.316h-0.316l0,0l0,0c-0.32,0-0.636,0-0.636-0.317h0.316h-0.316l0,0h-0.318h0.318
					l0,0c0.316,0,0.636,0,0.953,0.317l0,0h-0.316c0,0,0,0-0.32,0l0,0c-0.316,0-0.634,0-0.955-0.317c0.32,0,0.32,0,0.638,0h-0.318
					l0,0h-0.32h-0.316l0,0h-0.317h-0.316h-0.321l0,0l0,0l0,0c0,0,0,0-0.316,0c-0.637,0-1.271,0-1.271,0l0,0l0,0l0,0l0,0l0,0l0,0l0,0
					l0,0l0,0l0,0l0,0l0,0l0,0l0,0l0,0l0,0l0,0l0,0l0,0l0,0l0,0l0,0c0,0,0,0-0.316,0c0,0,0,0-0.32,0h-0.336l0,0h-0.317l0,0h-0.319
					l0,0h-0.317l0,0l0,0l0,0l0,0h-0.316l0,0l0,0l0,0l0,0l0,0l0,0l0,0l0,0l0,0l0,0l0,0l0,0l0,0l0,0l0,0l0,0l0,0l0,0l0,0l0,0l0,0l0,0
					l0,0l0,0l0,0c0-0.635,0.316-1.273,1.271-1.591l0,0h-0.317l0,0c0,0-0.319,0-0.319,0.318l0,0c0,0-0.317,0-0.317,0.32
					c0.317-0.32,0.637-0.32,0.954-0.638c0.317,0,0.955,0,1.271,0c-0.637,0-0.954,0-1.271,0l0,0l0,0l0,0l0,0l0,0l0,0l0,0
					c-2.225,0.318-1.909,1.591-0.637,3.182l0,0l0,0c0,0,0.319,0.317,0.319,0.638l0,0l0,0l0,0l0,0l0,0l0,0l0,0l0,0l0,0l0,0
					l0.317,0.317c0.317,0.315,0.317,0.633,0.634,0.953l0,0l0.321,0.318l0,0l0,0l0.316,0.318l0,0
					c0.317,0.317,0.638,0.635,0.954,0.953l0,0l0.317,0.317c13.675,15.265,34.664,31.484,58.198,47.385
					c3.499,2.224,6.359,4.135,8.269,5.404c3.182,1.909,6.359,4.136,9.222,5.727l0.32,0.314c0,0,0.314,0,0.314,0.317l0.636,0.321
					c0,0,0.317,0,0.317,0.317c1.909,1.271,3.815,2.224,5.727,3.497c2.861,1.908,6.04,3.5,9.539,5.725l0,0l0,0
					c0.318,0,0.318,0.315,0.633,0.315c0.318,0.32,0.638,0.32,0.959,0.638l0,0l0,0c4.135,2.544,6.36,3.817,10.175,5.724
					c0.317,0.317,0.959,0.638,1.592,0.955c17.491,9.857,34.983,19.08,51.837,27.032c52.793,25.758,90.32,37.845,108.129,38.801
					c0,0,0,0,0.318,0l0,0c0,0,0,0,0.317,0l0,0c0,0,0,0,0.317,0c0,0,0,0,0.317,0l0,0c0.317,0,0.317,0,0.633,0
					c0.321,0,0.639,0,0.959,0l0,0C542.804,310.141,545.982,307.918,543.121,302.827z M263.577,159.717L263.577,159.717
					L263.577,159.717L263.577,159.717z"/>
				<path fill="#F8E12E" d="M263.577,159.717C263.895,159.717,263.895,159.717,263.577,159.717
					C263.895,159.717,263.895,159.717,263.577,159.717C263.895,159.717,263.895,159.717,263.577,159.717
					C263.895,159.717,263.895,159.717,263.577,159.717c0.317,0,0.636,0,0.636,0l0,0l0,0l0,0l0,0H263.577
					C263.895,159.717,263.577,159.717,263.577,159.717L263.577,159.717L263.577,159.717z"/>
				<path fill="#F8E12E" d="M266.44,159.717h0.319l0,0l0,0l0,0c0.955,0.317,1.909,0.317,2.863,0.635
					c-0.636,0-0.955-0.318-1.591-0.318l0,0l0,0l0,0c-0.317,0-0.317,0-0.317,0h0.317c-0.317,0-0.638,0-0.954-0.317
					c0.316,0,0.316,0,0.637,0c0,0-0.32,0-0.637,0l0,0H266.44C266.44,159.717,266.123,159.717,266.44,159.717
					C266.123,159.717,266.44,159.717,266.44,159.717L266.44,159.717z"/>
				<path fill="#F8E12E" d="M264.531,159.717c0,0,0.318,0,0.634,0l0,0c0,0,0,0,0.32,0l0,0c0,0,0.316,0,0.634,0c0,0,0,0-0.318,0
					h0.318l0,0c0.317,0,0.317,0,0.637,0h-0.319l0,0h-0.317l0,0l0,0h-0.318l0,0h-0.319
					C264.852,159.717,264.852,159.717,264.531,159.717C264.852,159.717,264.852,159.717,264.531,159.717
					C264.852,159.717,264.852,159.717,264.531,159.717z"/>
				<path fill="#F8E12E" d="M264.215,159.717C264.531,159.717,264.531,159.717,264.215,159.717
					C264.531,159.717,264.531,159.717,264.215,159.717c0.319,0,0.319,0,0.319,0H264.215
					C264.531,159.717,264.215,159.717,264.215,159.717L264.215,159.717L264.215,159.717z"/>
				<path fill="#F8E12E" d="M264.852,159.717c0.637,0,1.591,0,2.544,0.317C266.44,159.717,265.488,159.717,264.852,159.717z"/>
				<path fill="#F8E12E" d="M264.215,159.717L264.215,159.717L264.215,159.717z"/>
				<path fill="#F8E12E" d="M270.892,160.672h-0.634c0.634,0,1.271,0.318,1.591,0.318L270.892,160.672z"/>
				<path fill="#F8E12E" d="M268.347,160.034c0.318,0,0.637,0,0.954,0.318C268.984,160.352,268.984,160.034,268.347,160.034z"/>
				<path fill="#F8E12E" d="M269.304,160.352L269.304,160.352L269.304,160.352L269.304,160.352z"/>
				<path fill="#F8E12E" d="M267.713,160.034L267.713,160.034L267.713,160.034z"/>
			</g>
			<g>
				
					<path fill="none" stroke="#82623C" stroke-width="2.7059" stroke-linecap="round" stroke-linejoin="round" stroke-miterlimit="10" d="
					M528.796,320.972c-9.74-4.098-12.253-20.5-5.343-36.275c6.915-15.772,20.423-25.549,30.479-21.451"/>
				
					<path fill="none" stroke="#82623C" stroke-width="2.7059" stroke-linecap="round" stroke-linejoin="round" stroke-miterlimit="10" d="
					M444.9,319.082c-18.848-7.887-22.623-41.325-8.164-74.762c14.452-33.438,41.471-53.626,60.642-45.741"/>
				
					<path fill="none" stroke="#82623C" stroke-width="2.7059" stroke-linecap="round" stroke-linejoin="round" stroke-miterlimit="10" d="
					M366.036,280.91c-19.794-8.518-24.509-41.957-10.057-75.076c14.454-33.123,42.104-52.996,62.214-44.793"/>
				
					<path fill="none" stroke="#82623C" stroke-width="2.7059" stroke-linecap="round" stroke-linejoin="round" stroke-miterlimit="10" d="
					M304.449,226.025c-13.827-5.677-16.968-28.391-7.226-50.787c9.74-22.394,28.593-35.642,42.42-29.966"/>
			</g>
			
				<path fill="none" stroke="#82623C" stroke-width="2.7333" stroke-linecap="round" stroke-linejoin="round" stroke-miterlimit="10" d="
				M291.247,186.431c0,0,55.338,38.797,97.314,62.65c41.98,23.535,134.209,59.15,134.209,59.15"/>
			<g>
				<polygon fill="#009AA9" points="277.253,146.042 295.062,153.993 286.158,123.78 275.027,119.33 				"/>
				<polygon fill="#0BE9F4" points="275.027,119.33 279.481,116.781 290.61,121.233 286.158,123.78 				"/>
				<polygon fill="#00C7DC" points="295.062,153.993 299.515,151.449 290.61,121.233 286.158,123.78 				"/>
			</g>
			<g>
				<polygon fill="#0BE9F4" points="262.624,171.8 280.751,179.432 247.678,186.431 236.548,181.979 				"/>
				<polygon fill="#009AA9" points="247.678,190.883 247.678,186.431 236.548,181.979 236.548,186.431 				"/>
				<polygon fill="#00C7DC" points="280.751,184.204 280.751,179.432 247.678,186.431 247.678,190.883 				"/>
			</g>
		</g>
	</g>
</g>
</svg>
