<?xml version="1.0" encoding="utf-8"?>
<!-- Generator: Adobe Illustrator 16.0.0, SVG Export Plug-In . SVG Version: 6.00 Build 0)  -->
<!DOCTYPE svg PUBLIC "-//W3C//DTD SVG 1.1//EN" "http://www.w3.org/Graphics/SVG/1.1/DTD/svg11.dtd">
<svg version="1.1" id="Camada_1" xmlns="http://www.w3.org/2000/svg" xmlns:xlink="http://www.w3.org/1999/xlink" x="0px" y="0px"
	 width="585px" height="360px" viewBox="0 0 585 360" enable-background="new 0 0 585 360" xml:space="preserve">
<rect x="-0.311" fill="#A2DEFF" width="585.277" height="360"/>
<g>
	<polygon opacity="0.2" fill="#211915" enable-background="new    " points="439.033,237.273 464.812,228.129 488.062,212.818 
		470.484,203.18 446.826,214.021 431.71,230.488 	"/>
	<polygon opacity="0.2" fill="#211915" enable-background="new    " points="401.417,322.419 449.503,301.279 379.58,265.133 
		345.731,287.67 	"/>
	<polyline opacity="0.2" fill="#211915" enable-background="new    " points="283.356,244.006 273.914,275.562 391.097,237.77 
		283.923,186.734 	"/>
	<polygon opacity="0.2" fill="#211915" enable-background="new    " points="206.541,330.136 286.758,297.877 161.439,231.531 
		105.868,275.193 	"/>
	<g>
		<path fill="#C67841" d="M249.365,76.367l-4.946,2.968c-0.66,0.329-0.66,1.318-0.989,1.978l0.33,0.33l5.275,9.233L249.365,76.367
			 M284.646,95.492L284.316,110l5.935-3.297c-0.33-0.989-0.66-1.979-0.99-2.968L284.646,95.492 M267.5,67.464
			c-0.989-0.66-1.979-0.33-3.297,0.33l-4.286,2.308l14.508,7.914l-3.957-6.924C269.478,69.442,268.488,68.124,267.5,67.464"/>
		<path fill="#E3E5E5" d="M254.97,91.864v-4.286l23.411,12.859v4.286L254.97,91.864 M255.3,83.291v-4.616l23.411,12.859v4.286
			L255.3,83.291 M285.305,83.951l-10.551-5.606l-14.508-7.914l-10.551-5.605l-0.33,11.541l-0.33,14.508l10.882,18.464l3.297-1.979
			c1.319-0.659,2.308-0.659,3.297-0.33c0.989,0.659,1.648,1.649,3.297,3.957l3.297,5.935l11.542-6.265l0.329-14.509L285.305,83.951"
			/>
		<path fill="#DEA555" d="M266.841,107.032c-0.989-0.659-1.979-0.33-3.298,0.33l-3.297,1.979l0.989,1.649l2.308-1.319
			c1.319-0.66,2.309-0.989,3.298-0.66c0.659,0.33,1.647,1.649,2.967,3.957l2.308,4.287l0.989-0.659l-3.297-5.935
			C268.488,108.351,267.829,107.361,266.841,107.032"/>
		<path fill="#C1C4C3" d="M278.711,100.107L255.3,87.248v4.287l23.411,12.859V100.107 M279.04,91.534l-23.411-12.859v4.287
			L279.04,95.82V91.534"/>
		<path fill="#DEA555" d="M290.581,106.702L284.646,110l-11.542,6.265l-0.989,0.66l17.146,29.675
			c-0.329,0.66-0.659,0.989-0.989,1.319c-0.659,0.33-1.648,0.659-2.308,0.33l-39.238-21.433c-0.989-0.659-1.648-1.648-2.308-2.967
			l0,0c-0.33-0.66-0.66-1.319-0.66-2.308l17.805-10.881l-0.989-1.649l-10.881-18.465l-5.275-9.232l-0.33-0.33l-0.659,37.26
			c0,3.627,1.648,7.583,4.286,8.903l37.589,20.773c2.308,1.319,4.287-0.659,4.617-4.287L290.581,106.702"/>
		<path fill="#E1AB5C" d="M266.511,112.637l-21.762,12.859c-0.33-0.33-0.66-0.989-0.99-1.648l0,0
			c0.66,1.319,1.319,2.309,2.308,2.967l39.238,21.433c0.989,0.33,1.649,0.33,2.308-0.33c-0.33,0.33-0.659,0.33-0.989,0.33
			L266.511,112.637"/>
		<path fill="#EDD0A5" d="M266.841,108.681c-0.66-0.33-1.649-0.33-3.298,0.659l-2.308,1.319L243.43,121.54
			c0.33,0.659,0.659,1.318,0.659,2.308c0.33,0.659,0.66,0.989,0.989,1.648l21.433-12.859l20.772,35.941c0.33,0,0.66-0.33,0.989-0.33
			c0.33-0.33,0.66-0.66,0.989-1.319l-17.146-29.676l-2.308-4.287C268.488,110.659,267.5,109.01,266.841,108.681"/>
	</g>
	<g>
		<g>
			<g>
				<path fill="#211915" d="M158.372,175.399c-0.426,0-0.842-0.214-1.084-0.602c-0.373-0.598-0.189-1.385,0.409-1.757
					c1.423-0.886,2.909-1.776,4.416-2.645c0.611-0.353,1.39-0.143,1.743,0.469c0.352,0.61,0.142,1.391-0.469,1.742
					c-1.481,0.854-2.942,1.729-4.342,2.6C158.835,175.337,158.602,175.399,158.372,175.399z"/>
			</g>
			<g>
				<path fill="#211915" d="M270.036,313.761c-2.948,0-5.931-0.044-8.869-0.13c-0.704-0.021-1.258-0.607-1.238-1.312
					c0.021-0.705,0.625-1.276,1.313-1.236c2.912,0.084,5.871,0.128,8.793,0.128l1.247-0.001c0.001,0,0.003,0,0.005,0
					c0.703,0,1.273,0.566,1.275,1.271c0.003,0.703-0.565,1.276-1.271,1.279L270.036,313.761z M281.368,313.548
					c-0.682,0-1.248-0.54-1.273-1.228c-0.027-0.705,0.523-1.297,1.228-1.322c3.327-0.125,6.701-0.309,10.027-0.543
					c0.692-0.061,1.313,0.479,1.363,1.184c0.05,0.701-0.479,1.312-1.182,1.361c-3.355,0.238-6.758,0.422-10.114,0.548
					C281.401,313.548,281.385,313.548,281.368,313.548z M251.136,313.164c-0.027,0-0.054-0.002-0.082-0.003
					c-3.377-0.215-6.773-0.49-10.091-0.819c-0.701-0.068-1.214-0.693-1.144-1.396c0.07-0.702,0.701-1.21,1.395-1.146
					c3.289,0.327,6.655,0.6,10.002,0.812c0.703,0.044,1.237,0.65,1.192,1.354C252.365,312.645,251.803,313.164,251.136,313.164z
					 M301.486,312.124c-0.645,0-1.197-0.488-1.266-1.144c-0.074-0.701,0.436-1.328,1.135-1.401c3.332-0.351,6.688-0.757,9.971-1.216
					c0.691-0.098,1.343,0.388,1.439,1.088c0.098,0.697-0.39,1.343-1.089,1.439c-3.312,0.463-6.694,0.875-10.056,1.227
					C301.576,312.12,301.532,312.124,301.486,312.124z M231.081,311.172c-0.058,0-0.116-0.003-0.174-0.012
					c-3.351-0.453-6.717-0.977-10.006-1.553c-0.695-0.123-1.159-0.784-1.037-1.478c0.122-0.694,0.787-1.162,1.477-1.037
					c3.256,0.569,6.591,1.089,9.908,1.539c0.699,0.095,1.188,0.737,1.093,1.437C232.256,310.709,231.708,311.172,231.081,311.172z
					 M321.467,309.333c-0.607,0-1.146-0.437-1.255-1.056c-0.122-0.693,0.343-1.354,1.036-1.478c3.314-0.582,6.633-1.227,9.857-1.918
					c0.688-0.146,1.368,0.292,1.515,0.981c0.146,0.688-0.291,1.367-0.979,1.514c-3.257,0.697-6.604,1.35-9.951,1.938
					C321.615,309.329,321.54,309.333,321.467,309.333z M211.234,307.688c-0.09,0-0.181-0.008-0.272-0.028
					c-3.332-0.726-6.648-1.521-9.858-2.366c-0.681-0.182-1.088-0.878-0.909-1.559c0.18-0.683,0.878-1.094,1.559-0.909
					c3.174,0.835,6.455,1.623,9.751,2.341c0.688,0.148,1.125,0.829,0.976,1.518C212.35,307.279,211.821,307.688,211.234,307.688z
					 M341.191,305.109c-0.57,0-1.091-0.383-1.236-0.959c-0.175-0.685,0.238-1.377,0.922-1.553c3.275-0.834,6.528-1.731,9.669-2.672
					c0.674-0.201,1.385,0.182,1.587,0.857c0.203,0.674-0.181,1.386-0.855,1.588c-3.174,0.949-6.46,1.857-9.771,2.7
					C341.4,305.1,341.295,305.109,341.191,305.109z M191.74,302.542c-0.127,0-0.256-0.019-0.383-0.062
					c-3.262-1.022-6.492-2.129-9.602-3.283c-0.66-0.245-0.997-0.98-0.751-1.641c0.246-0.662,0.982-0.994,1.641-0.752
					c3.067,1.141,6.256,2.23,9.476,3.242c0.673,0.212,1.047,0.928,0.835,1.6C192.786,302.191,192.283,302.542,191.74,302.542z
					 M360.509,299.332c-0.528,0-1.022-0.33-1.205-0.855c-0.231-0.666,0.121-1.394,0.785-1.623c3.189-1.106,6.349-2.287,9.39-3.508
					c0.648-0.267,1.396,0.053,1.659,0.707c0.263,0.654-0.055,1.397-0.709,1.66c-3.079,1.235-6.275,2.43-9.502,3.549
					C360.788,299.311,360.647,299.332,360.509,299.332z M172.851,295.501c-0.17,0-0.344-0.033-0.51-0.104
					c-2.052-0.898-4.097-1.844-6.076-2.809c-1.051-0.512-2.085-1.031-3.103-1.556c-0.627-0.321-0.873-1.095-0.549-1.72
					c0.323-0.625,1.092-0.871,1.718-0.547c1,0.515,2.018,1.023,3.052,1.527c1.948,0.949,3.96,1.88,5.98,2.764
					c0.646,0.282,0.94,1.035,0.657,1.68C173.811,295.216,173.342,295.501,172.851,295.501z M379.212,291.812
					c-0.48,0-0.942-0.273-1.158-0.741c-0.296-0.638-0.019-1.396,0.621-1.692c3.07-1.422,6.085-2.922,8.961-4.46
					c0.621-0.335,1.396-0.101,1.728,0.521c0.334,0.623,0.099,1.396-0.522,1.729c-2.92,1.562-5.979,3.085-9.093,4.528
					C379.573,291.773,379.392,291.812,379.212,291.812z M154.955,286.241c-0.227,0-0.457-0.062-0.665-0.188
					c-2.965-1.813-5.812-3.725-8.459-5.679c-0.567-0.418-0.688-1.217-0.269-1.784c0.417-0.568,1.217-0.688,1.784-0.27
					c2.588,1.908,5.373,3.779,8.276,5.556c0.602,0.367,0.791,1.153,0.423,1.755C155.804,286.023,155.384,286.241,154.955,286.241z
					 M396.974,282.286c-0.426,0-0.843-0.213-1.085-0.604c-0.372-0.599-0.188-1.386,0.411-1.756c2.896-1.798,5.684-3.671,8.285-5.57
					c0.569-0.416,1.367-0.289,1.783,0.279c0.415,0.567,0.291,1.367-0.278,1.783c-2.655,1.936-5.496,3.845-8.443,5.676
					C397.438,282.225,397.203,282.286,396.974,282.286z M138.79,274.241c-0.307,0-0.615-0.109-0.859-0.331
					c-2.596-2.368-4.995-4.838-7.13-7.344c-0.457-0.537-0.393-1.342,0.144-1.799c0.536-0.457,1.342-0.396,1.799,0.145
					c2.066,2.424,4.391,4.814,6.907,7.111c0.52,0.477,0.558,1.281,0.083,1.803C139.482,274.104,139.137,274.241,138.79,274.241z
					 M413.218,270.376c-0.355,0-0.71-0.146-0.962-0.437c-0.464-0.529-0.411-1.336,0.119-1.799c2.569-2.248,4.969-4.578,7.134-6.925
					c0.479-0.518,1.286-0.548,1.804-0.071c0.519,0.479,0.551,1.285,0.072,1.804c-2.227,2.411-4.69,4.804-7.328,7.112
					C413.812,270.273,413.516,270.376,413.218,270.376z M125.824,258.891c-0.428,0-0.846-0.216-1.086-0.604
					c-1.852-2.997-3.403-6.095-4.613-9.207c-0.255-0.656,0.07-1.396,0.727-1.651c0.658-0.256,1.396,0.07,1.651,0.729
					c1.154,2.967,2.636,5.924,4.406,8.788c0.37,0.6,0.185,1.387-0.415,1.757C126.284,258.828,126.053,258.891,125.824,258.891z
					 M426.805,255.546c-0.255,0-0.513-0.077-0.735-0.235c-0.575-0.405-0.711-1.203-0.304-1.777c1.959-2.766,3.669-5.612,5.081-8.461
					c0.313-0.633,1.08-0.889,1.71-0.577c0.633,0.312,0.891,1.079,0.576,1.71c-1.471,2.969-3.249,5.931-5.286,8.804
					C427.599,255.359,427.205,255.546,426.805,255.546z M118.648,240.189c-0.614,0-1.155-0.444-1.258-1.069
					c-0.407-2.499-0.614-5.044-0.614-7.562c0-0.91,0.027-1.84,0.082-2.762c0.041-0.704,0.636-1.23,1.349-1.197
					c0.703,0.041,1.239,0.646,1.199,1.349c-0.052,0.872-0.077,1.749-0.077,2.61c0,2.381,0.196,4.789,0.581,7.15
					c0.113,0.695-0.358,1.352-1.054,1.465C118.786,240.186,118.716,240.189,118.648,240.189z M435.622,237.525
					c-0.114,0-0.229-0.016-0.345-0.049c-0.68-0.188-1.074-0.895-0.885-1.572c0.896-3.195,1.45-6.443,1.649-9.651
					c0.043-0.704,0.617-1.233,1.353-1.194c0.702,0.043,1.237,0.646,1.194,1.351c-0.21,3.391-0.795,6.817-1.739,10.186
					C436.692,237.157,436.18,237.525,435.622,237.525z M119.798,220.227c-0.113,0-0.228-0.016-0.342-0.047
					c-0.679-0.188-1.077-0.892-0.888-1.57c0.895-3.226,2.136-6.461,3.692-9.619c0.312-0.633,1.077-0.893,1.708-0.581
					c0.632,0.312,0.892,1.077,0.582,1.708c-1.485,3.017-2.67,6.103-3.522,9.175C120.87,219.855,120.356,220.227,119.798,220.227z
					 M436.825,217.562c-0.615,0-1.157-0.445-1.258-1.073c-0.509-3.171-1.371-6.353-2.566-9.452
					c-0.253-0.657,0.073-1.396,0.731-1.648c0.653-0.253,1.396,0.072,1.648,0.731c1.258,3.267,2.169,6.619,2.705,9.965
					c0.111,0.696-0.361,1.351-1.058,1.462C436.961,217.559,436.893,217.562,436.825,217.562z M128.568,202.184
					c-0.254,0-0.511-0.074-0.734-0.232c-0.576-0.406-0.712-1.202-0.307-1.777c1.898-2.689,4.069-5.365,6.449-7.953
					c0.477-0.52,1.284-0.554,1.803-0.074c0.519,0.477,0.552,1.283,0.074,1.803c-2.306,2.506-4.406,5.097-6.241,7.695
					C129.364,201.995,128.97,202.184,128.568,202.184z M429.706,198.844c-0.429,0-0.848-0.215-1.089-0.607
					c-1.662-2.706-3.619-5.392-5.816-7.979c-0.456-0.536-0.391-1.343,0.146-1.799c0.539-0.455,1.343-0.39,1.799,0.147
					c2.28,2.688,4.314,5.479,6.047,8.295c0.368,0.602,0.18,1.387-0.42,1.757C430.164,198.785,429.935,198.844,429.706,198.844z
					 M142.137,187.33c-0.354,0-0.708-0.146-0.959-0.434c-0.465-0.53-0.412-1.336,0.117-1.802c2.471-2.169,5.149-4.311,7.959-6.367
					c0.568-0.416,1.367-0.292,1.783,0.276c0.416,0.569,0.292,1.367-0.276,1.783c-2.75,2.012-5.368,4.105-7.783,6.227
					C142.736,187.227,142.436,187.33,142.137,187.33z M416.767,183.467c-0.309,0-0.614-0.109-0.86-0.333
					c-2.36-2.159-4.945-4.282-7.687-6.31c-0.566-0.419-0.687-1.218-0.268-1.785c0.42-0.567,1.219-0.686,1.785-0.267
					c2.811,2.08,5.465,4.259,7.891,6.479c0.521,0.476,0.557,1.281,0.081,1.802C417.457,183.328,417.112,183.467,416.767,183.467z
					 M400.617,171.447c-0.229,0-0.459-0.062-0.666-0.188c-2.752-1.688-5.68-3.335-8.703-4.897c-0.626-0.323-0.871-1.093-0.549-1.719
					c0.324-0.626,1.093-0.871,1.72-0.548c3.079,1.59,6.062,3.271,8.866,4.99c0.601,0.369,0.788,1.154,0.42,1.755
					C401.464,171.231,401.045,171.447,400.617,171.447z M176.368,165.746c-0.482,0-0.943-0.274-1.159-0.741
					c-0.296-0.64-0.017-1.398,0.623-1.693c3.009-1.391,6.145-2.741,9.322-4.014c0.654-0.262,1.396,0.056,1.659,0.71
					c0.262,0.654-0.056,1.396-0.71,1.659c-3.136,1.256-6.232,2.588-9.2,3.96C176.729,165.708,176.547,165.746,176.368,165.746z
					 M382.731,162.168c-0.173,0-0.346-0.035-0.513-0.108c-2.99-1.312-6.11-2.575-9.278-3.755c-0.661-0.247-0.997-0.981-0.75-1.642
					c0.244-0.66,0.98-0.997,1.641-0.75c3.213,1.198,6.38,2.479,9.414,3.811c0.645,0.283,0.938,1.035,0.656,1.681
					C383.69,161.883,383.222,162.168,382.731,162.168z M195.074,158.236c-0.529,0-1.023-0.331-1.206-0.859
					c-0.23-0.666,0.122-1.392,0.788-1.623c3.14-1.087,6.387-2.132,9.651-3.105c0.678-0.2,1.387,0.184,1.587,0.858
					c0.201,0.676-0.183,1.386-0.858,1.588c-3.229,0.962-6.44,1.995-9.546,3.071C195.354,158.213,195.212,158.236,195.074,158.236z
					 M363.851,155.113c-0.127,0-0.256-0.02-0.384-0.059c-3.128-0.986-6.367-1.922-9.629-2.783c-0.681-0.18-1.088-0.878-0.907-1.559
					c0.181-0.682,0.882-1.088,1.561-0.908c3.298,0.871,6.577,1.819,9.744,2.816c0.672,0.212,1.044,0.929,0.833,1.601
					C364.895,154.765,364.393,155.113,363.851,155.113z M214.393,152.468c-0.57,0-1.089-0.384-1.236-0.962
					c-0.173-0.683,0.241-1.377,0.923-1.551c3.236-0.821,6.559-1.596,9.876-2.304c0.687-0.149,1.367,0.292,1.514,0.981
					c0.146,0.689-0.292,1.367-0.981,1.514c-3.286,0.701-6.576,1.469-9.78,2.283C214.602,152.456,214.497,152.468,214.393,152.468z
					 M344.36,149.955c-0.091,0-0.182-0.01-0.272-0.03c-3.214-0.701-6.522-1.352-9.836-1.934c-0.694-0.122-1.158-0.784-1.036-1.478
					c0.122-0.695,0.791-1.154,1.479-1.036c3.347,0.589,6.689,1.246,9.938,1.954c0.688,0.15,1.124,0.83,0.976,1.518
					C345.476,149.547,344.948,149.955,344.36,149.955z M234.125,148.253c-0.608,0-1.146-0.436-1.255-1.056
					c-0.122-0.694,0.343-1.355,1.037-1.478c3.287-0.576,6.656-1.104,10.011-1.571c0.697-0.097,1.343,0.39,1.439,1.088
					c0.097,0.697-0.391,1.342-1.088,1.439c-3.326,0.462-6.664,0.986-9.922,1.557C234.272,148.247,234.199,148.253,234.125,148.253z
					 M324.52,146.457c-0.059,0-0.117-0.003-0.177-0.012c-3.274-0.447-6.628-0.842-9.962-1.174c-0.701-0.07-1.213-0.695-1.143-1.396
					c0.068-0.701,0.693-1.211,1.395-1.144c3.365,0.335,6.748,0.734,10.057,1.186c0.697,0.095,1.188,0.739,1.093,1.437
					C325.693,145.994,325.146,146.457,324.52,146.457z M254.107,145.473c-0.646,0-1.2-0.487-1.268-1.143
					c-0.073-0.701,0.436-1.329,1.136-1.401c3.33-0.348,6.725-0.644,10.092-0.88c0.715-0.056,1.313,0.48,1.362,1.183
					c0.049,0.703-0.48,1.312-1.183,1.362c-3.339,0.235-6.706,0.529-10.006,0.873C254.196,145.471,254.15,145.473,254.107,145.473z
					 M304.462,144.456c-0.028,0-0.056-0.001-0.083-0.002c-3.309-0.212-6.682-0.371-10.025-0.47
					c-0.705-0.021-1.258-0.609-1.236-1.314c0.021-0.704,0.605-1.248,1.312-1.237c3.375,0.101,6.775,0.26,10.112,0.474
					c0.703,0.045,1.235,0.652,1.192,1.356C305.689,143.938,305.129,144.456,304.462,144.456z M274.228,144.057
					c-0.683,0-1.249-0.541-1.274-1.229c-0.026-0.704,0.524-1.295,1.228-1.322c3.353-0.124,6.759-0.193,10.123-0.206
					c0.001,0,0.003,0,0.005,0c0.703,0,1.273,0.568,1.275,1.271c0.003,0.704-0.566,1.277-1.271,1.28
					c-3.336,0.013-6.713,0.082-10.038,0.204C274.259,144.056,274.243,144.057,274.228,144.057z"/>
			</g>
			<g>
				<path fill="#211915" d="M162.75,172.778c-0.442,0-0.87-0.229-1.107-0.639c-0.351-0.61-0.142-1.392,0.468-1.743
					c1.466-0.844,2.978-1.683,4.495-2.495c0.621-0.331,1.394-0.099,1.727,0.523c0.332,0.622,0.098,1.394-0.523,1.727
					c-1.494,0.799-2.982,1.625-4.424,2.457C163.186,172.723,162.967,172.778,162.75,172.778z"/>
			</g>
		</g>
	</g>
	<g>
		<path fill="#AD1E27" d="M210.623,185.27c0.071-0.699,0.171-1.396,0.297-2.095c0.055-0.301,0.118-0.602,0.183-0.901
			c0.081-0.373,0.163-0.744,0.257-1.112c0.088-0.345,0.183-0.687,0.283-1.024c0.088-0.299,0.176-0.598,0.274-0.894
			c0.12-0.369,0.251-0.735,0.385-1.1c0.095-0.255,0.186-0.511,0.287-0.764c0.158-0.397,0.329-0.789,0.502-1.179
			c0.095-0.212,0.183-0.427,0.282-0.637c0.224-0.475,0.463-0.941,0.709-1.404c0.064-0.121,0.121-0.245,0.187-0.364
			c0.322-0.587,0.66-1.162,1.015-1.724c0.183-0.289,0.38-0.563,0.571-0.844c0.194-0.286,0.38-0.58,0.583-0.857
			c0.43-0.592,0.88-1.163,1.345-1.714c0.077-0.092,0.161-0.176,0.239-0.266c0.496-0.573,1.013-1.118,1.542-1.639
			c0.183-0.179,0.366-0.358,0.553-0.531c0.3-0.278,0.605-0.543,0.915-0.804c0.218-0.183,0.435-0.367,0.656-0.541
			c0.326-0.255,0.66-0.492,0.994-0.725c0.215-0.15,0.428-0.307,0.647-0.448c0.374-0.241,0.755-0.457,1.138-0.67
			c0.189-0.105,0.375-0.223,0.566-0.322c0.578-0.296,1.162-0.564,1.756-0.792c0.424-0.163,0.843-0.301,1.259-0.422
			c0.117-0.034,0.232-0.058,0.349-0.089c0.289-0.076,0.577-0.149,0.861-0.205c0.149-0.029,0.296-0.051,0.444-0.075
			c0.223-0.037,0.445-0.068,0.666-0.093c0.511-0.057,1.016-0.09,1.507-0.083c0.056,0.001,0.109,0.009,0.166,0.011
			c0.387,0.011,0.768,0.042,1.141,0.093c0.152,0.021,0.3,0.053,0.451,0.08c0.254,0.046,0.507,0.098,0.754,0.162
			c0.159,0.042,0.316,0.09,0.472,0.139c0.223,0.071,0.444,0.148,0.661,0.233c0.244,0.096,0.489,0.19,0.724,0.306l-10.72-5.27
			c-0.158-0.078-0.318-0.151-0.481-0.221c-0.078-0.033-0.163-0.054-0.242-0.085c-0.218-0.086-0.439-0.164-0.664-0.234
			c-0.093-0.03-0.18-0.07-0.274-0.097c-0.063-0.018-0.131-0.025-0.196-0.042c-0.248-0.064-0.501-0.116-0.757-0.162
			c-0.109-0.021-0.211-0.053-0.321-0.069c-0.041-0.006-0.085-0.004-0.127-0.01c-0.373-0.051-0.754-0.082-1.143-0.094
			c-0.05-0.001-0.096-0.011-0.146-0.011c-0.005,0-0.013,0.001-0.019,0.001c-0.491-0.008-0.995,0.025-1.507,0.083
			c-0.056,0.006-0.11,0.002-0.166,0.009c-0.164,0.021-0.332,0.057-0.498,0.084c-0.148,0.024-0.296,0.045-0.445,0.075
			c-0.284,0.057-0.572,0.129-0.861,0.205c-0.117,0.031-0.232,0.055-0.349,0.089c-0.022,0.006-0.042,0.01-0.063,0.016
			c-0.395,0.117-0.793,0.252-1.196,0.406c-0.594,0.228-1.179,0.497-1.756,0.792c-0.192,0.099-0.378,0.217-0.568,0.323
			c-0.382,0.212-0.762,0.427-1.135,0.668c-0.22,0.141-0.433,0.298-0.649,0.45c-0.335,0.232-0.667,0.468-0.993,0.723
			c-0.222,0.174-0.44,0.359-0.658,0.542c-0.309,0.259-0.613,0.523-0.913,0.801c-0.099,0.091-0.204,0.171-0.301,0.265
			c-0.088,0.084-0.166,0.183-0.253,0.268c-0.53,0.521-1.044,1.064-1.54,1.637c-0.059,0.068-0.125,0.127-0.185,0.196
			c-0.02,0.023-0.037,0.049-0.056,0.072c-0.465,0.551-0.915,1.122-1.344,1.712c-0.007,0.01-0.015,0.019-0.022,0.029
			c-0.2,0.276-0.383,0.566-0.574,0.85c-0.186,0.274-0.379,0.542-0.557,0.823c-0.007,0.011-0.014,0.021-0.021,0.032
			c-0.34,0.54-0.664,1.091-0.974,1.654c-0.007,0.013-0.013,0.026-0.021,0.039c-0.065,0.119-0.123,0.243-0.186,0.364
			c-0.22,0.415-0.44,0.83-0.643,1.254c-0.024,0.049-0.043,0.101-0.066,0.15c-0.099,0.209-0.187,0.423-0.281,0.635
			c-0.135,0.303-0.277,0.603-0.402,0.908c-0.037,0.09-0.067,0.183-0.103,0.273c-0.1,0.251-0.191,0.506-0.285,0.76
			c-0.089,0.245-0.19,0.486-0.274,0.733c-0.042,0.123-0.073,0.248-0.113,0.371c-0.096,0.295-0.185,0.591-0.271,0.889
			c-0.062,0.212-0.137,0.421-0.193,0.634c-0.035,0.131-0.058,0.264-0.092,0.396c-0.094,0.368-0.176,0.737-0.256,1.107
			c-0.044,0.205-0.103,0.408-0.141,0.613c-0.019,0.098-0.024,0.196-0.042,0.293c-0.125,0.695-0.225,1.391-0.296,2.087
			c-0.009,0.092-0.031,0.182-0.039,0.272c-0.002,0.019-0.001,0.037-0.002,0.058c-0.062,0.698-0.099,1.396-0.103,2.094
			c-0.02,3.263,0.623,6.086,1.776,8.341c1.155,2.256,2.819,3.944,4.845,4.94l10.719,5.27c-4.048-1.989-6.661-6.756-6.621-13.28
			c0.004-0.695,0.041-1.396,0.104-2.097C210.591,185.484,210.612,185.376,210.623,185.27z"/>
		<g>
			<path fill="#D3252F" d="M226.789,161.917c8.938-3.431,16.139,2.532,16.073,13.339c-0.065,10.793-7.372,22.34-16.31,25.77
				c-8.948,3.437-16.139-2.545-16.074-13.338C210.544,176.879,217.84,165.352,226.789,161.917z"/>
		</g>
		<g>
			<g enable-background="new    ">
				<path fill="#C38D42" d="M335.175,169.61c0.001-0.018,0.001-0.037,0.001-0.054c0.001-0.1-0.001-0.199-0.004-0.298
					c-0.002-0.1-0.007-0.2-0.012-0.301c-0.006-0.103-0.013-0.206-0.021-0.309c-0.01-0.104-0.02-0.208-0.03-0.312
					c-0.01-0.069-0.02-0.139-0.027-0.208c-0.001-0.01-0.003-0.02-0.004-0.029c-0.005-0.028-0.008-0.055-0.012-0.083
					c-0.016-0.107-0.032-0.216-0.052-0.323c-0.019-0.109-0.04-0.218-0.062-0.328c-0.022-0.11-0.047-0.22-0.073-0.33
					c-0.023-0.111-0.052-0.221-0.081-0.331c-0.007-0.027-0.015-0.053-0.021-0.08c-0.003-0.011-0.007-0.022-0.01-0.033
					c-0.021-0.076-0.04-0.151-0.062-0.227c-0.033-0.114-0.067-0.229-0.104-0.341c-0.043-0.131-0.086-0.261-0.133-0.39
					c-0.056-0.157-0.115-0.312-0.177-0.466c-0.002-0.003-0.004-0.007-0.005-0.011c-0.24-0.595-0.534-1.16-0.854-1.704
					c-0.037-0.063-0.062-0.134-0.099-0.197c-0.096-0.157-0.194-0.312-0.296-0.464c-0.068-0.099-0.138-0.196-0.207-0.293
					c-0.01-0.013-0.021-0.027-0.028-0.041c-0.014-0.019-0.025-0.038-0.04-0.057c-0.089-0.121-0.179-0.239-0.271-0.354
					c-0.087-0.112-0.179-0.221-0.271-0.327c-0.087-0.101-0.177-0.2-0.267-0.296c-0.019-0.02-0.036-0.038-0.054-0.057
					c-0.009-0.009-0.019-0.018-0.026-0.027c-0.059-0.061-0.117-0.122-0.177-0.182c-0.083-0.083-0.168-0.163-0.255-0.241
					c-0.078-0.074-0.159-0.145-0.239-0.213c-0.079-0.066-0.157-0.131-0.238-0.193c-0.028-0.023-0.059-0.045-0.089-0.068
					c-0.009-0.006-0.018-0.012-0.023-0.018c-0.039-0.03-0.078-0.06-0.117-0.089c-0.075-0.054-0.151-0.107-0.229-0.158
					c-0.074-0.05-0.15-0.098-0.226-0.144c-0.074-0.046-0.149-0.089-0.226-0.131s-0.149-0.082-0.226-0.12
					c-0.022-0.011-0.047-0.023-0.069-0.035l-54.899-26.694l-58.774,23.954l54.899,26.695c0.374,0.181,0.739,0.409,1.091,0.676
					c0.008,0.006,0.016,0.013,0.024,0.017c0.346,0.266,0.68,0.566,0.999,0.899c0.009,0.008,0.017,0.019,0.026,0.026
					c0.318,0.334,0.62,0.701,0.903,1.092c0.009,0.013,0.018,0.025,0.027,0.039c0.217,0.302,0.41,0.627,0.602,0.955
					c0.318,0.543,0.613,1.109,0.852,1.705c0.188,0.468,0.352,0.947,0.484,1.436c0.002,0.01,0.005,0.02,0.008,0.03
					c0.132,0.489,0.234,0.983,0.301,1.477c0.001,0.011,0.002,0.02,0.003,0.028c0.067,0.497,0.101,0.993,0.095,1.482l-0.869,77.752
					l0,0c-0.003,0.304-0.021,0.594-0.053,0.873c-0.002,0.013-0.004,0.023-0.004,0.037c-0.032,0.273-0.076,0.532-0.132,0.78
					c-0.002,0.011-0.006,0.022-0.009,0.031c-0.055,0.239-0.122,0.466-0.199,0.683c-0.007,0.02-0.014,0.039-0.022,0.061
					c-0.074,0.199-0.159,0.39-0.252,0.57c-0.016,0.03-0.031,0.062-0.048,0.094c-0.098,0.181-0.204,0.351-0.319,0.507
					c-0.173,0.235-0.371,0.434-0.58,0.61c-0.05,0.043-0.102,0.084-0.153,0.123c-0.219,0.166-0.448,0.312-0.697,0.412l58.773-28.208
					c0.249-0.101,0.479-0.245,0.697-0.411c0.052-0.039,0.104-0.08,0.152-0.123c0.21-0.178,0.406-0.375,0.58-0.61
					c0.003-0.005,0.008-0.007,0.012-0.013c0.093-0.127,0.181-0.264,0.263-0.406c0.017-0.028,0.029-0.061,0.046-0.088
					c0.016-0.03,0.032-0.063,0.048-0.096c0.029-0.056,0.062-0.108,0.087-0.168c0.049-0.104,0.097-0.213,0.139-0.322
					c0.011-0.025,0.019-0.053,0.027-0.078c0.007-0.021,0.016-0.04,0.021-0.062c0.02-0.054,0.039-0.105,0.058-0.16
					c0.031-0.096,0.061-0.191,0.086-0.291c0.021-0.076,0.039-0.151,0.057-0.229c0.003-0.011,0.005-0.019,0.008-0.029
					c0.003-0.01,0.006-0.021,0.009-0.032c0.02-0.092,0.038-0.185,0.055-0.277c0.019-0.094,0.031-0.188,0.046-0.284
					c0.01-0.062,0.016-0.124,0.023-0.187c0.001-0.014,0.003-0.024,0.005-0.039c0.001-0.019,0.004-0.037,0.006-0.056
					c0.011-0.094,0.02-0.19,0.025-0.286c0.006-0.095,0.011-0.19,0.015-0.287c0.003-0.082,0.005-0.162,0.006-0.242l0,0
					L335.175,169.61z"/>
				<g>
					<path fill="#F7B656" d="M270.986,183.701c3.024,1.47,5.459,5.91,5.415,9.863l-0.869,77.752
						c-0.044,3.966-2.551,6.004-5.575,4.533l-54.9-26.693c-3.023-1.471-5.458-5.912-5.414-9.877l0.869-77.753
						c0.044-3.952,2.551-5.99,5.576-4.521L270.986,183.701z"/>
				</g>
			</g>
		</g>
		<g enable-background="new    ">
			<g>
				<path fill="#5B400A" d="M258.682,147.719c24.095,11.563,23.729,44.122,23.605,55.057c-0.13,11.509-6.548,15.769-6.886,15.992
					l1.743-22.33c-0.368-0.465-7.355-9.313-13.992-15.392c-2.631-2.414-5.617-4.541-8.406-5.879
					c-4.254-2.041-8.053-2.247-9.441,1.171c-1.788,4.393-5.771,3.063-7.453,2.256c-0.48-0.229-0.759-0.409-0.773-0.419
					l-26.536-18.081l-0.421,27.346c-0.482-0.23-9.643-4.627-9.383-27.667c0.261-23.028,16.865-18.736,17.739-18.51
					c0.366-0.254,7.306-5.093,36.121,4.787C256.032,146.541,257.391,147.1,258.682,147.719z"/>
			</g>
			<path fill="#3C2C17" d="M341.857,174.841c0-0.136-0.002-0.271-0.004-0.41c-0.007-0.713-0.017-1.453-0.035-2.235
				c-0.001-0.018-0.001-0.032-0.001-0.049c-0.003-0.143-0.011-0.296-0.015-0.441c-0.011-0.386-0.021-0.773-0.038-1.174
				c-0.008-0.212-0.02-0.432-0.028-0.648c-0.017-0.367-0.032-0.732-0.054-1.11c-0.003-0.068-0.005-0.132-0.009-0.201
				c-0.005-0.077-0.012-0.16-0.018-0.237c-0.055-0.947-0.119-1.915-0.205-2.917c0-0.003-0.001-0.006-0.001-0.009
				c0-0.004,0-0.008,0-0.013c-0.07-0.815-0.157-1.652-0.252-2.498c-0.013-0.113-0.021-0.221-0.034-0.335s-0.03-0.231-0.044-0.345
				c-0.072-0.601-0.151-1.208-0.238-1.82c-0.021-0.145-0.035-0.286-0.057-0.431c-0.007-0.047-0.017-0.095-0.022-0.142
				c-0.108-0.735-0.227-1.476-0.356-2.223c-0.003-0.012-0.004-0.024-0.007-0.036c-0.026-0.154-0.061-0.312-0.089-0.467
				c-0.098-0.531-0.195-1.063-0.305-1.598c-0.007-0.037-0.014-0.073-0.021-0.11c-0.069-0.345-0.151-0.691-0.229-1.036
				c-0.062-0.285-0.121-0.569-0.188-0.855c-0.008-0.029-0.013-0.058-0.021-0.087c-0.13-0.553-0.271-1.108-0.415-1.663
				c-0.021-0.078-0.038-0.156-0.06-0.234c-0.001-0.002-0.001-0.005-0.002-0.008c-0.15-0.568-0.31-1.137-0.479-1.705
				c-0.017-0.06-0.038-0.119-0.055-0.179c-0.061-0.198-0.124-0.396-0.187-0.595c-0.096-0.312-0.188-0.622-0.289-0.932
				c-0.039-0.122-0.086-0.243-0.127-0.365c-0.082-0.247-0.168-0.492-0.255-0.739c-0.073-0.213-0.145-0.427-0.221-0.64
				c-0.059-0.161-0.125-0.319-0.185-0.479c-0.121-0.323-0.245-0.643-0.371-0.963c-0.069-0.176-0.133-0.353-0.203-0.528
				c-0.038-0.094-0.087-0.184-0.126-0.277c-0.416-1.003-0.859-1.997-1.345-2.975c-0.069-0.144-0.146-0.284-0.22-0.428
				c-0.491-0.97-1.016-1.927-1.58-2.863c-0.03-0.05-0.054-0.104-0.084-0.154c-0.015-0.022-0.029-0.044-0.044-0.067
				c-0.122-0.197-0.253-0.389-0.377-0.585c-0.228-0.357-0.45-0.719-0.688-1.071c-0.035-0.05-0.072-0.1-0.107-0.15
				c-0.085-0.125-0.175-0.247-0.263-0.371c-0.188-0.266-0.37-0.533-0.564-0.796c-0.12-0.164-0.251-0.322-0.374-0.484
				c-0.107-0.14-0.215-0.28-0.322-0.418c-0.084-0.105-0.162-0.212-0.246-0.316c-0.308-0.381-0.623-0.758-0.946-1.128
				c-0.019-0.02-0.036-0.04-0.056-0.06c-0.045-0.051-0.094-0.101-0.139-0.153c-0.25-0.281-0.501-0.561-0.76-0.835
				c-0.162-0.172-0.332-0.337-0.499-0.507c-0.097-0.098-0.192-0.197-0.29-0.295c-0.07-0.071-0.139-0.145-0.211-0.214
				c-0.312-0.305-0.632-0.606-0.958-0.902c-0.085-0.076-0.174-0.149-0.26-0.226c-0.091-0.081-0.185-0.16-0.275-0.24
				c-0.155-0.135-0.308-0.273-0.467-0.406c-0.337-0.283-0.683-0.562-1.035-0.834c-0.026-0.021-0.055-0.04-0.082-0.061
				c-0.048-0.038-0.101-0.073-0.149-0.111c-0.271-0.206-0.543-0.412-0.821-0.612c-0.289-0.206-0.585-0.406-0.882-0.604
				c-0.049-0.032-0.096-0.066-0.145-0.098c-0.023-0.016-0.047-0.033-0.07-0.049c-0.381-0.25-0.77-0.495-1.164-0.733
				c-0.188-0.113-0.381-0.219-0.571-0.329c-0.119-0.068-0.237-0.137-0.356-0.205c-0.109-0.061-0.213-0.125-0.322-0.185
				c-0.426-0.233-0.859-0.459-1.301-0.678c-0.137-0.067-0.272-0.134-0.41-0.2c-0.332-0.16-0.67-0.315-1.013-0.467
				c-0.202-0.09-0.411-0.17-0.618-0.257c-0.201-0.086-0.404-0.171-0.608-0.254c-0.122-0.048-0.237-0.102-0.36-0.149
				c-0.484-0.189-0.979-0.371-1.484-0.544c-0.483-0.166-0.963-0.328-1.437-0.486c-0.489-0.164-0.935-0.299-1.412-0.454
				c-0.717-0.232-1.432-0.466-2.118-0.679c-0.672-0.21-1.314-0.402-1.959-0.594c-0.66-0.196-1.318-0.392-1.951-0.571
				c-0.207-0.058-0.436-0.13-0.641-0.187c-0.441-0.123-0.845-0.222-1.273-0.336c-0.516-0.138-1.033-0.278-1.529-0.404
				c-0.623-0.158-1.217-0.3-1.811-0.439c-0.463-0.11-0.934-0.225-1.377-0.324c-0.123-0.027-0.261-0.062-0.384-0.089
				c-0.514-0.112-0.987-0.202-1.478-0.301c-0.321-0.065-0.657-0.138-0.969-0.198c-0.771-0.146-1.502-0.273-2.211-0.388
				c-0.119-0.019-0.252-0.045-0.369-0.063c-0.011-0.002-0.021-0.004-0.033-0.005c-0.796-0.125-1.548-0.227-2.271-0.313
				c-0.228-0.027-0.435-0.045-0.655-0.069c-0.376-0.041-0.765-0.087-1.119-0.119c-0.107-0.009-0.2-0.013-0.303-0.021
				c-0.242-0.02-0.47-0.033-0.701-0.049c-0.401-0.026-0.791-0.049-1.163-0.064c-0.221-0.01-0.437-0.017-0.648-0.022
				c-0.143-0.003-0.301-0.012-0.438-0.014c-0.206-0.002-0.386,0.004-0.582,0.005c-0.19,0.001-0.383,0.001-0.564,0.005
				c-0.338,0.007-0.654,0.021-0.962,0.038c-0.138,0.008-0.285,0.012-0.417,0.022c-0.032,0.002-0.072,0.003-0.105,0.005
				c-0.292,0.022-0.553,0.052-0.817,0.081c-0.096,0.011-0.205,0.018-0.297,0.029c-0.364,0.046-0.701,0.097-1.009,0.153
				c-0.008,0.001-0.014,0.003-0.021,0.004c-0.339,0.062-0.647,0.128-0.924,0.198c-0.051,0.013-0.088,0.026-0.138,0.04
				c-0.218,0.057-0.426,0.116-0.604,0.174c-0.007,0.002-0.015,0.004-0.022,0.006c-0.195,0.064-0.367,0.127-0.518,0.189l-1.041,0.418
				c-0.034-0.008-0.085-0.02-0.129-0.03c-0.03-0.007-0.042-0.01-0.076-0.018c-0.019-0.004-0.031-0.007-0.052-0.012
				c-0.138-0.03-0.315-0.064-0.509-0.1c-0.048-0.008-0.093-0.016-0.144-0.024c-0.074-0.013-0.14-0.026-0.22-0.039
				c-0.073-0.011-0.173-0.02-0.25-0.03c-0.192-0.027-0.386-0.051-0.606-0.074c-0.084-0.009-0.148-0.021-0.237-0.029
				c-0.093-0.008-0.208-0.009-0.307-0.015c-0.208-0.015-0.416-0.026-0.641-0.033c-0.104-0.002-0.19-0.013-0.297-0.015
				c-0.114-0.001-0.244,0.01-0.362,0.011c-0.224,0.002-0.447,0.008-0.682,0.021c-0.11,0.006-0.211,0.001-0.324,0.01
				c-0.129,0.009-0.27,0.038-0.402,0.051c-0.25,0.025-0.499,0.055-0.757,0.095c-0.114,0.018-0.223,0.022-0.339,0.043
				c-0.119,0.021-0.245,0.067-0.365,0.092c-0.333,0.07-0.663,0.154-1,0.253c-0.136,0.04-0.268,0.057-0.404,0.103
				c-0.244,0.081-0.487,0.169-0.731,0.267l-59.553,23.954c0.381-0.152,0.759-0.258,1.135-0.369c0.337-0.098,0.67-0.183,1-0.252
				c0.237-0.05,0.473-0.1,0.704-0.136c0.257-0.039,0.508-0.07,0.758-0.096c0.245-0.025,0.489-0.048,0.726-0.061
				c0.233-0.013,0.459-0.019,0.682-0.021c0.225-0.002,0.447-0.003,0.659,0.003c0.223,0.007,0.436,0.018,0.641,0.033
				c0.188,0.014,0.373,0.027,0.545,0.044c0.216,0.022,0.418,0.047,0.606,0.074c0.16,0.022,0.331,0.044,0.47,0.068
				c0.049,0.008,0.099,0.017,0.146,0.025c0.219,0.04,0.413,0.079,0.559,0.112c0.029,0.007,0.053,0.012,0.078,0.018
				c0.123,0.028,0.233,0.056,0.278,0.067l2.087-0.84c0.027-0.008,0.054-0.016,0.085-0.024c0.277-0.07,0.585-0.136,0.924-0.198
				c0.315-0.058,0.658-0.111,1.031-0.157c0.091-0.011,0.199-0.019,0.295-0.029c0.293-0.033,0.594-0.062,0.923-0.086
				c0.132-0.01,0.28-0.014,0.417-0.021c0.308-0.017,0.625-0.031,0.962-0.039c0.181-0.003,0.374-0.003,0.564-0.004
				c0.327-0.001,0.666,0.001,1.021,0.009c0.211,0.005,0.427,0.013,0.648,0.021c0.372,0.015,0.763,0.038,1.163,0.064
				c0.231,0.016,0.459,0.03,0.701,0.049c0.452,0.037,0.933,0.086,1.421,0.14c0.221,0.023,0.429,0.042,0.657,0.069
				c0.73,0.088,1.494,0.191,2.301,0.318c0.118,0.018,0.251,0.044,0.37,0.063c0.709,0.114,1.441,0.241,2.211,0.388
				c0.311,0.06,0.647,0.133,0.968,0.197c0.605,0.123,1.217,0.248,1.861,0.391c0.443,0.099,0.915,0.214,1.377,0.324
				c0.593,0.14,1.187,0.281,1.81,0.439c0.496,0.126,1.015,0.266,1.53,0.404c0.626,0.167,1.258,0.338,1.914,0.524
				c0.631,0.178,1.292,0.375,1.951,0.571c0.644,0.191,1.288,0.384,1.958,0.593c0.687,0.213,1.403,0.447,2.118,0.68
				c0.937,0.306,1.861,0.601,2.85,0.94c0.631,0.216,1.242,0.451,1.845,0.693c0.205,0.082,0.406,0.168,0.609,0.253
				c0.552,0.233,1.101,0.471,1.63,0.724c0.698,0.336,1.373,0.693,2.032,1.062c0.12,0.068,0.239,0.138,0.358,0.207
				c0.618,0.357,1.224,0.725,1.806,1.11c0.048,0.032,0.095,0.066,0.144,0.098c0.586,0.392,1.153,0.797,1.705,1.217
				c0.049,0.038,0.1,0.073,0.148,0.111c0.546,0.42,1.071,0.855,1.583,1.3c0.092,0.081,0.187,0.161,0.279,0.243
				c0.491,0.436,0.966,0.882,1.427,1.339c0.098,0.098,0.194,0.197,0.291,0.295c0.432,0.438,0.853,0.886,1.257,1.342
				c0.046,0.052,0.094,0.101,0.139,0.153c0.432,0.492,0.845,0.996,1.248,1.507c0.108,0.137,0.214,0.276,0.32,0.414
				c0.323,0.421,0.635,0.848,0.939,1.28c0.088,0.125,0.18,0.248,0.266,0.374c0.274,0.399,0.533,0.808,0.792,1.215
				c0.125,0.198,0.257,0.391,0.378,0.589c0.045,0.073,0.084,0.147,0.128,0.221c0.565,0.937,1.088,1.894,1.581,2.864
				c0.073,0.143,0.149,0.283,0.22,0.426c0.483,0.978,0.928,1.972,1.343,2.975c0.111,0.269,0.223,0.538,0.33,0.809
				c0.126,0.317,0.25,0.637,0.368,0.956c0.141,0.375,0.278,0.752,0.41,1.13c0.084,0.243,0.17,0.486,0.252,0.729
				c0.145,0.434,0.283,0.868,0.417,1.303c0.061,0.198,0.125,0.395,0.184,0.593c0.188,0.63,0.369,1.261,0.535,1.892
				c0.021,0.081,0.04,0.161,0.061,0.242c0.152,0.58,0.298,1.161,0.433,1.739c0.067,0.288,0.126,0.575,0.189,0.863
				c0.085,0.381,0.172,0.765,0.25,1.145c0.108,0.53,0.206,1.057,0.302,1.582c0.031,0.172,0.067,0.346,0.097,0.518
				c0.131,0.748,0.249,1.489,0.357,2.227c0.028,0.188,0.051,0.374,0.078,0.561c0.086,0.614,0.166,1.226,0.238,1.828
				c0.027,0.229,0.054,0.454,0.079,0.682c0.095,0.851,0.182,1.689,0.253,2.511c0.085,1.004,0.151,1.976,0.206,2.925
				c0.008,0.146,0.019,0.295,0.026,0.438c0.02,0.369,0.036,0.728,0.052,1.086c0.01,0.228,0.022,0.457,0.031,0.681
				c0.014,0.377,0.024,0.739,0.036,1.104c0.005,0.185,0.012,0.375,0.017,0.558c0.019,0.78,0.03,1.521,0.036,2.231
				c0,0.133,0.002,0.269,0.003,0.396c0.004,0.676,0.004,1.324,0,1.927c0,0.239-0.002,0.47-0.005,0.695
				c0,0.126-0.001,0.258-0.002,0.38c-0.003,0.344-0.008,0.678-0.011,0.986c-0.007,0.69-0.041,1.351-0.092,1.988
				c-0.004,0.069-0.012,0.141-0.018,0.211c-0.05,0.584-0.117,1.15-0.199,1.694c-0.012,0.075-0.024,0.147-0.035,0.222
				c-0.088,0.545-0.188,1.073-0.303,1.576c-0.012,0.053-0.026,0.102-0.038,0.152c-0.104,0.443-0.221,0.865-0.344,1.275
				c-0.034,0.11-0.066,0.225-0.1,0.334c-0.138,0.435-0.283,0.854-0.438,1.252c-0.008,0.021-0.016,0.045-0.024,0.065
				c-0.172,0.438-0.353,0.854-0.54,1.249c-0.211,0.446-0.431,0.863-0.654,1.254c-0.188,0.33-0.378,0.643-0.569,0.936
				c-0.035,0.054-0.069,0.1-0.105,0.15c-0.159,0.237-0.317,0.465-0.475,0.678c-0.078,0.104-0.156,0.198-0.233,0.299
				c-0.118,0.149-0.235,0.301-0.351,0.438c-0.079,0.096-0.157,0.182-0.234,0.27c-0.108,0.125-0.216,0.244-0.32,0.354
				c-0.076,0.08-0.15,0.156-0.222,0.231c-0.1,0.101-0.197,0.197-0.29,0.287c-0.066,0.062-0.133,0.127-0.196,0.184
				c-0.09,0.082-0.174,0.157-0.255,0.229c-0.055,0.049-0.112,0.1-0.163,0.141c-0.078,0.064-0.148,0.122-0.215,0.174
				c-0.04,0.031-0.084,0.066-0.119,0.096c-0.067,0.051-0.122,0.092-0.172,0.125c-0.019,0.016-0.046,0.035-0.062,0.049
				c-0.058,0.039-0.101,0.068-0.12,0.08l59.553-23.953c0.019-0.014,0.061-0.041,0.117-0.082c0.021-0.014,0.049-0.033,0.071-0.051
				c0.049-0.035,0.1-0.072,0.162-0.121c0.038-0.029,0.082-0.063,0.126-0.1c0.065-0.052,0.132-0.105,0.208-0.17
				c0.055-0.044,0.109-0.093,0.168-0.145c0.08-0.068,0.162-0.143,0.249-0.223c0.065-0.061,0.133-0.123,0.201-0.189
				c0.093-0.088,0.188-0.184,0.286-0.282c0.074-0.075,0.146-0.152,0.226-0.233c0.104-0.109,0.207-0.228,0.315-0.351
				c0.078-0.091,0.157-0.179,0.237-0.274c0.113-0.136,0.229-0.281,0.347-0.433c0.079-0.103,0.157-0.196,0.237-0.304
				c0.021-0.031,0.044-0.058,0.066-0.088c0.133-0.183,0.268-0.379,0.4-0.578c0.037-0.056,0.075-0.104,0.112-0.161
				c0.181-0.277,0.361-0.569,0.541-0.882c0.009-0.016,0.018-0.035,0.026-0.053c0.225-0.392,0.441-0.808,0.654-1.255
				c0.005-0.011,0.01-0.021,0.017-0.03c0.18-0.383,0.354-0.783,0.521-1.209c0.001-0.002,0.003-0.006,0.004-0.01
				c0.008-0.021,0.016-0.044,0.023-0.066c0.128-0.33,0.253-0.672,0.371-1.031c0.022-0.07,0.043-0.146,0.065-0.219
				c0.035-0.109,0.066-0.223,0.101-0.334c0.049-0.164,0.103-0.32,0.146-0.489c0.069-0.254,0.135-0.521,0.194-0.786
				c0.015-0.052,0.027-0.102,0.039-0.152c0.007-0.023,0.014-0.045,0.019-0.067c0.073-0.321,0.14-0.651,0.201-0.99
				c0.03-0.168,0.056-0.345,0.084-0.517c0.013-0.075,0.023-0.148,0.036-0.226c0.012-0.069,0.022-0.137,0.033-0.208
				c0.044-0.312,0.084-0.63,0.118-0.955c0.02-0.172,0.031-0.354,0.048-0.531c0.006-0.069,0.014-0.139,0.019-0.209
				c0.006-0.074,0.015-0.146,0.021-0.222c0.021-0.313,0.038-0.633,0.052-0.959c0.011-0.265,0.017-0.534,0.021-0.808
				c0.003-0.312,0.007-0.642,0.009-0.987c0.002-0.123,0.003-0.253,0.005-0.38c0.001-0.204,0.004-0.401,0.006-0.616
				c0-0.024,0-0.055,0-0.08C341.861,176.158,341.861,175.517,341.857,174.841z"/>
		</g>
		<g>
			<path fill="#D3252F" d="M317.266,152.159c-0.006-0.233-0.015-0.468-0.027-0.702c-0.002-0.05-0.008-0.099-0.01-0.148
				c-0.002-0.04-0.006-0.08-0.008-0.12c-0.012-0.15-0.02-0.3-0.033-0.451c-0.021-0.243-0.045-0.486-0.072-0.729
				c-0.016-0.129-0.034-0.258-0.051-0.387c-0.008-0.051-0.015-0.103-0.021-0.154c-0.01-0.069-0.017-0.139-0.026-0.208
				c-0.037-0.254-0.078-0.508-0.123-0.762c-0.037-0.211-0.08-0.421-0.123-0.632c-0.006-0.026-0.01-0.053-0.015-0.08
				c-0.005-0.021-0.009-0.041-0.013-0.062c-0.055-0.264-0.114-0.526-0.178-0.789c-0.062-0.265-0.131-0.53-0.2-0.794
				c-0.003-0.01-0.007-0.02-0.009-0.03c-0.006-0.016-0.01-0.031-0.015-0.046c-0.069-0.254-0.142-0.508-0.219-0.761
				c-0.09-0.295-0.185-0.588-0.283-0.879c-0.001-0.004-0.003-0.007-0.003-0.011c-0.004-0.009-0.007-0.018-0.01-0.026
				c-0.105-0.31-0.217-0.619-0.331-0.924c-0.056-0.143-0.118-0.283-0.175-0.425c-0.071-0.182-0.146-0.363-0.221-0.543
				c-0.054-0.123-0.099-0.249-0.151-0.371c-0.035-0.08-0.082-0.153-0.117-0.232c-0.39-0.869-0.812-1.717-1.276-2.534
				c-0.021-0.037-0.037-0.079-0.06-0.116c-0.121-0.209-0.253-0.409-0.38-0.615c-0.135-0.221-0.268-0.444-0.407-0.659
				c-0.03-0.048-0.06-0.099-0.09-0.146c-0.229-0.35-0.47-0.692-0.711-1.026c-0.017-0.021-0.032-0.041-0.048-0.062
				c-0.038-0.053-0.079-0.103-0.117-0.155c-0.167-0.223-0.333-0.445-0.506-0.661c-0.108-0.137-0.223-0.267-0.332-0.4
				c-0.062-0.074-0.123-0.148-0.186-0.222c-0.047-0.053-0.09-0.11-0.137-0.164c-0.204-0.235-0.412-0.464-0.624-0.688
				c-0.062-0.068-0.129-0.132-0.194-0.198c-0.054-0.056-0.108-0.111-0.164-0.167c-0.082-0.084-0.164-0.172-0.25-0.254
				c-0.197-0.193-0.396-0.38-0.599-0.562c-0.056-0.05-0.112-0.097-0.168-0.146c-0.042-0.037-0.084-0.073-0.127-0.111
				c-0.088-0.076-0.175-0.153-0.263-0.228c-0.186-0.153-0.369-0.302-0.557-0.447c-0.088-0.066-0.177-0.129-0.265-0.194
				c-0.038-0.028-0.075-0.057-0.113-0.085c-0.055-0.039-0.108-0.081-0.161-0.12c-0.178-0.125-0.354-0.247-0.535-0.364
				c-0.166-0.109-0.334-0.213-0.502-0.314c-0.004-0.003-0.01-0.006-0.014-0.009c-0.005-0.002-0.009-0.004-0.012-0.006
				c-0.174-0.104-0.352-0.205-0.527-0.301c-0.175-0.095-0.351-0.186-0.527-0.272c-0.076-0.037-0.152-0.074-0.229-0.11
				l-61.043-27.589l0,0c-0.102-0.047-0.202-0.093-0.303-0.137c-0.178-0.078-0.354-0.15-0.531-0.217
				c-0.036-0.014-0.07-0.024-0.105-0.038c-0.042-0.015-0.083-0.029-0.125-0.044c-0.102-0.037-0.206-0.076-0.308-0.109
				c-0.181-0.059-0.361-0.113-0.541-0.162c-0.008-0.002-0.018-0.003-0.026-0.006c-0.02-0.005-0.039-0.009-0.058-0.014
				c-0.16-0.042-0.319-0.082-0.478-0.115c-0.113-0.024-0.223-0.041-0.334-0.06c-0.046-0.008-0.092-0.017-0.137-0.025
				c-0.031-0.005-0.062-0.012-0.092-0.017c-0.207-0.03-0.411-0.053-0.614-0.069c-0.035-0.002-0.068-0.002-0.103-0.004
				c-0.065-0.004-0.13-0.006-0.196-0.008c-0.114-0.004-0.228-0.014-0.339-0.014c-0.092,0-0.181,0.008-0.27,0.011
				c-0.086,0.003-0.171,0.004-0.256,0.01c-0.051,0.003-0.104,0.002-0.155,0.006c-0.116,0.01-0.228,0.032-0.342,0.046
				c-0.118,0.015-0.236,0.027-0.353,0.048c-0.033,0.005-0.068,0.007-0.101,0.014c-0.079,0.015-0.154,0.043-0.232,0.06
				c-0.197,0.044-0.393,0.092-0.584,0.151c-0.046,0.015-0.096,0.022-0.143,0.037c-0.16,0.054-0.317,0.113-0.474,0.177l-9.261,3.826
				c0.2-0.083,0.408-0.148,0.615-0.213c0.192-0.06,0.388-0.108,0.586-0.153c0.11-0.024,0.219-0.054,0.332-0.074
				c0.116-0.021,0.235-0.033,0.353-0.047c0.165-0.021,0.329-0.042,0.497-0.052c0.085-0.005,0.17-0.007,0.256-0.01
				c0.201-0.006,0.404-0.006,0.61,0.003c0.065,0.002,0.13,0.003,0.196,0.007c0.265,0.018,0.535,0.047,0.808,0.091
				c0.046,0.007,0.092,0.017,0.137,0.024c0.269,0.046,0.539,0.104,0.812,0.174c0.019,0.006,0.038,0.009,0.058,0.014
				c0.289,0.077,0.581,0.171,0.875,0.277c0.041,0.015,0.083,0.028,0.125,0.044c0.31,0.116,0.624,0.244,0.938,0.391l61.045,27.592
				c0.438,0.204,0.869,0.434,1.296,0.689c0.005,0.003,0.01,0.006,0.014,0.009c0.406,0.244,0.806,0.512,1.198,0.798
				c0.038,0.028,0.076,0.056,0.113,0.084c0.369,0.272,0.729,0.562,1.082,0.869c0.045,0.037,0.087,0.073,0.129,0.11
				c0.346,0.306,0.686,0.627,1.018,0.964c0.055,0.055,0.109,0.109,0.162,0.164c0.326,0.337,0.646,0.688,0.957,1.052
				c0.061,0.071,0.121,0.145,0.182,0.217c0.287,0.344,0.566,0.698,0.84,1.063c0.039,0.052,0.08,0.102,0.117,0.155
				c0.295,0.398,0.574,0.812,0.85,1.232c0.14,0.216,0.273,0.44,0.408,0.662c0.146,0.241,0.295,0.481,0.438,0.729
				c0.464,0.816,0.891,1.665,1.278,2.535c0.09,0.2,0.181,0.398,0.267,0.601c0.077,0.182,0.15,0.365,0.225,0.549
				c0.177,0.443,0.347,0.888,0.5,1.339c0.004,0.012,0.009,0.023,0.013,0.034c0.187,0.543,0.354,1.093,0.505,1.646
				c0.004,0.017,0.01,0.034,0.016,0.051c0.149,0.555,0.282,1.112,0.397,1.672c0.005,0.027,0.01,0.054,0.016,0.081
				c0.107,0.533,0.198,1.067,0.272,1.602c0.006,0.051,0.014,0.102,0.021,0.154c0.067,0.523,0.12,1.046,0.154,1.567
				c0.002,0.04,0.005,0.08,0.008,0.12c0.034,0.558,0.049,1.114,0.042,1.666l-0.832,62.057l9.261-3.826l0.832-62.055
				c0.002-0.041,0.002-0.081,0.002-0.122C317.271,152.623,317.271,152.391,317.266,152.159z"/>
			<path fill="#AD1E27" d="M230.106,113.902c-0.31,0.139-0.594,0.337-0.867,0.56c-0.065,0.054-0.13,0.109-0.194,0.167
				c-0.26,0.241-0.507,0.508-0.724,0.826c-0.002,0.004-0.006,0.007-0.01,0.011c-0.118,0.173-0.227,0.355-0.33,0.549
				c-0.022,0.042-0.042,0.088-0.063,0.131c-0.021,0.042-0.042,0.086-0.062,0.13c-0.034,0.071-0.07,0.139-0.103,0.212
				c-0.062,0.142-0.12,0.288-0.174,0.439c-0.014,0.038-0.026,0.08-0.04,0.119c-0.01,0.027-0.018,0.055-0.027,0.082
				c-0.023,0.067-0.047,0.133-0.068,0.203c-0.04,0.128-0.076,0.26-0.11,0.395c-0.027,0.107-0.052,0.218-0.075,0.329
				c-0.003,0.01-0.005,0.021-0.008,0.031c-0.002,0.011-0.005,0.021-0.007,0.033c-0.026,0.123-0.05,0.249-0.072,0.376
				c-0.021,0.126-0.041,0.254-0.058,0.385c-0.012,0.087-0.022,0.176-0.031,0.265c-0.002,0.016-0.005,0.03-0.006,0.046
				c-0.002,0.022-0.005,0.045-0.007,0.068c-0.012,0.127-0.023,0.257-0.032,0.388c-0.006,0.088-0.01,0.179-0.014,0.268l-0.014,0.006
				l-0.202,15.18l9.258-3.838l0.202-15.064l0.003-0.001c0.005-0.408,0.029-0.8,0.068-1.176c0.001-0.016,0.004-0.031,0.005-0.046
				c0.041-0.368,0.097-0.722,0.168-1.059c0.002-0.011,0.005-0.022,0.008-0.032c0.07-0.324,0.155-0.632,0.253-0.925
				c0.009-0.028,0.019-0.055,0.027-0.083c0.093-0.271,0.201-0.526,0.316-0.769c0.021-0.044,0.042-0.088,0.064-0.131
				c0.123-0.246,0.257-0.477,0.402-0.69c0.217-0.317,0.463-0.585,0.725-0.826c0.063-0.059,0.128-0.114,0.193-0.167
				c0.272-0.223,0.558-0.421,0.866-0.56L230.106,113.902z"/>
			<path fill="#76151A" d="M295.494,134.386l-61.045-27.592c-7.015-3.271-12.824,1.453-12.945,10.542l-0.281,19.801l5.951-2.518
				l0.21-14.541c0.066-4.891,3.195-7.435,6.963-5.677l61.045,27.592c3.778,1.762,6.803,7.176,6.734,12.065l-0.832,62.057l5.881,2.74
				l0.832-62.057C308.131,147.711,302.521,137.662,295.494,134.386z"/>
		</g>
		<g>
			<path fill="#211915" d="M270.69,259.406c-2.02,0.002-4.417-0.299-7.087-1.189c-7.361-2.453-23.06-11.068-23.724-11.434
				c0,0-2.116-1.102-1.089-3.303c1.028-2.2,3.414-0.929,3.414-0.929c0.159,0.089,15.979,8.771,22.926,11.087
				c6.1,2.032,10.076,0.198,10.245,0.12l0.221-0.096l35.421-13.092v-10.384h4.825v13.746l-38.487,14.225
				C276.727,258.441,274.311,259.406,270.69,259.406z"/>
		</g>
		<path fill="#AD1E27" d="M301.945,218.934c0.07-0.699,0.171-1.397,0.297-2.094c0.056-0.304,0.117-0.604,0.184-0.904
			c0.079-0.371,0.162-0.742,0.258-1.112c0.088-0.343,0.184-0.683,0.282-1.023c0.089-0.299,0.175-0.597,0.272-0.894
			c0.119-0.368,0.252-0.734,0.386-1.1c0.095-0.255,0.187-0.512,0.286-0.765c0.158-0.397,0.328-0.789,0.503-1.179
			c0.095-0.213,0.185-0.428,0.28-0.639c0.226-0.475,0.465-0.941,0.709-1.402c0.064-0.121,0.123-0.244,0.188-0.364
			c0.321-0.587,0.659-1.163,1.015-1.726c0.184-0.289,0.381-0.562,0.571-0.844c0.193-0.287,0.38-0.58,0.582-0.856
			c0.431-0.593,0.88-1.163,1.347-1.714c0.076-0.094,0.16-0.178,0.237-0.269c0.496-0.573,1.013-1.116,1.544-1.638
			c0.182-0.182,0.364-0.359,0.551-0.531c0.301-0.279,0.606-0.544,0.916-0.804c0.219-0.183,0.435-0.367,0.655-0.541
			c0.327-0.254,0.66-0.491,0.995-0.726c0.215-0.149,0.428-0.308,0.646-0.447c0.375-0.241,0.757-0.457,1.139-0.67
			c0.189-0.105,0.375-0.224,0.564-0.32c0.578-0.298,1.164-0.566,1.758-0.793c0.424-0.163,0.843-0.303,1.258-0.423
			c0.117-0.034,0.232-0.06,0.35-0.089c0.289-0.075,0.577-0.149,0.861-0.207c0.148-0.029,0.295-0.049,0.443-0.073
			c0.224-0.037,0.444-0.068,0.664-0.095c0.513-0.057,1.018-0.09,1.508-0.08c0.057,0,0.109,0.009,0.166,0.01
			c0.388,0.012,0.769,0.043,1.141,0.095c0.152,0.021,0.301,0.054,0.452,0.079c0.254,0.047,0.507,0.098,0.753,0.162
			c0.159,0.042,0.316,0.09,0.473,0.141c0.223,0.068,0.444,0.146,0.661,0.231c0.244,0.097,0.488,0.19,0.724,0.308l-10.72-5.271
			c-0.157-0.077-0.317-0.151-0.479-0.222c-0.079-0.033-0.163-0.054-0.242-0.084c-0.219-0.086-0.439-0.164-0.664-0.234
			c-0.093-0.029-0.18-0.069-0.271-0.098c-0.064-0.017-0.133-0.024-0.199-0.041c-0.245-0.064-0.5-0.117-0.756-0.164
			c-0.108-0.02-0.211-0.051-0.319-0.066c-0.042-0.008-0.086-0.006-0.128-0.012c-0.373-0.051-0.756-0.081-1.143-0.094
			c-0.051-0.002-0.097-0.013-0.146-0.013c-0.006,0-0.012,0-0.018,0c-0.492-0.006-0.996,0.027-1.509,0.084
			c-0.057,0.007-0.108,0.002-0.166,0.009c-0.163,0.021-0.331,0.058-0.497,0.084c-0.147,0.023-0.297,0.045-0.445,0.074
			c-0.284,0.059-0.571,0.129-0.86,0.205c-0.117,0.031-0.231,0.055-0.351,0.089c-0.021,0.007-0.041,0.011-0.062,0.017
			c-0.396,0.117-0.794,0.252-1.194,0.406c-0.595,0.229-1.18,0.496-1.757,0.793c-0.192,0.1-0.379,0.217-0.567,0.321
			c-0.383,0.213-0.764,0.429-1.137,0.669c-0.22,0.143-0.433,0.301-0.647,0.449c-0.336,0.234-0.667,0.47-0.993,0.725
			c-0.223,0.174-0.439,0.357-0.658,0.543c-0.309,0.26-0.613,0.523-0.912,0.799c-0.1,0.094-0.205,0.174-0.302,0.268
			c-0.088,0.083-0.166,0.184-0.253,0.268c-0.529,0.521-1.045,1.064-1.54,1.638c-0.06,0.067-0.127,0.127-0.185,0.196
			c-0.021,0.023-0.039,0.047-0.058,0.07c-0.466,0.553-0.915,1.121-1.344,1.713c-0.009,0.01-0.017,0.02-0.022,0.028
			c-0.199,0.274-0.384,0.567-0.574,0.851c-0.187,0.274-0.379,0.541-0.558,0.823c-0.007,0.013-0.014,0.021-0.021,0.031
			c-0.34,0.539-0.665,1.092-0.975,1.653c-0.008,0.015-0.014,0.026-0.021,0.039c-0.063,0.119-0.121,0.244-0.187,0.364
			c-0.22,0.414-0.439,0.829-0.644,1.255c-0.022,0.049-0.043,0.1-0.065,0.149c-0.1,0.21-0.188,0.423-0.279,0.636
			c-0.137,0.303-0.277,0.602-0.403,0.908c-0.037,0.09-0.065,0.182-0.103,0.273c-0.101,0.25-0.191,0.506-0.285,0.759
			c-0.09,0.245-0.191,0.485-0.275,0.733c-0.041,0.122-0.073,0.248-0.113,0.371c-0.096,0.295-0.184,0.592-0.271,0.889
			c-0.062,0.211-0.135,0.422-0.193,0.636c-0.035,0.13-0.058,0.263-0.091,0.396c-0.095,0.367-0.177,0.736-0.256,1.106
			c-0.044,0.205-0.102,0.407-0.142,0.612c-0.019,0.098-0.024,0.196-0.041,0.295c-0.126,0.695-0.227,1.391-0.298,2.088
			c-0.009,0.091-0.03,0.181-0.039,0.271c-0.001,0.021-0.001,0.038-0.002,0.058c-0.062,0.699-0.099,1.398-0.103,2.095
			c-0.02,3.263,0.623,6.085,1.776,8.341c1.154,2.257,2.82,3.946,4.844,4.939l10.72,5.271c-4.049-1.99-6.66-6.756-6.621-13.281
			c0.004-0.695,0.04-1.396,0.104-2.096C301.914,219.146,301.934,219.04,301.945,218.934z"/>
		<g>
			<path fill="#D3252F" d="M318.111,195.581c8.938-3.433,16.139,2.53,16.072,13.339c-0.063,10.793-7.371,22.339-16.311,25.771
				c-8.948,3.435-16.139-2.547-16.073-13.34C301.866,210.543,309.162,199.016,318.111,195.581z"/>
		</g>
	</g>
	<g>
		<g>
			<g enable-background="new    ">
				<g>
					<polygon fill="#87868A" points="271.612,294.579 271.602,298.261 206.886,330.846 206.897,327.166 					"/>
				</g>
				<g>
					<polygon fill="#345B55" points="206.897,327.166 206.886,330.846 97.284,276.072 97.294,272.391 					"/>
				</g>
				<g>
					<polygon fill="#5B5B5F" points="271.612,294.579 206.897,327.166 97.294,272.391 157.756,236.402 					"/>
				</g>
			</g>
		</g>
	</g>
	<g>
		<polygon fill="#D8D9DD" points="201.144,312.882 208.599,316.807 216.16,312.869 208.705,308.945 		"/>
		<polygon fill="#D8D9DD" points="216.439,303.698 208.984,299.773 201.424,303.713 208.879,307.637 		"/>
		<polygon fill="#D8D9DD" points="210.041,308.249 217.494,312.173 225.055,308.232 217.6,304.311 		"/>
		<polygon fill="#D8D9DD" points="216.73,294.53 209.27,290.602 201.704,294.543 209.165,298.47 		"/>
		<polygon fill="#D8D9DD" points="217.774,303.002 225.341,299.062 217.886,295.139 210.32,299.078 		"/>
		<polygon fill="#D8D9DD" points="218.936,303.613 226.391,307.537 233.956,303.598 226.501,299.673 		"/>
		<polygon fill="#D8D9DD" points="217.01,285.359 209.555,281.436 201.995,285.374 209.45,289.298 		"/>
		<polygon fill="#D8D9DD" points="218.166,285.968 210.605,289.905 218.066,293.834 225.625,289.895 		"/>
		<polygon fill="#D8D9DD" points="234.236,294.428 226.781,290.504 219.222,294.441 226.675,298.365 		"/>
		<polygon fill="#D8D9DD" points="227.837,298.977 235.292,302.9 242.852,298.964 235.397,295.04 		"/>
		<polygon fill="#D8D9DD" points="218.346,284.665 225.906,280.727 218.451,276.802 210.891,280.74 		"/>
		<polygon fill="#D8D9DD" points="226.961,289.2 234.522,285.261 227.062,281.334 219.501,285.271 		"/>
		<polygon fill="#D8D9DD" points="235.572,293.732 243.132,289.793 235.677,285.869 228.116,289.809 		"/>
		<polygon fill="#D8D9DD" points="244.292,290.404 236.733,294.344 244.187,298.268 251.748,294.328 		"/>
		<polygon fill="#D8D9DD" points="217.517,275.822 210.062,271.898 202.501,275.836 209.956,279.761 		"/>
	</g>
	<g>
		<g enable-background="new    ">
			<g>
				<polygon fill="#87868A" points="206.739,260.212 209.921,258.361 209.723,328.285 206.541,330.136 				"/>
			</g>
			<g>
				<polygon fill="#87868A" points="97.136,205.438 100.318,203.588 209.921,258.361 206.739,260.212 				"/>
			</g>
			<g>
				<polygon fill="#C2C3C9" points="206.739,260.212 206.541,330.136 96.938,276.212 97.136,205.438 				"/>
			</g>
		</g>
	</g>
	<g>
		<path opacity="0.2" fill="#211915" enable-background="new    " d="M134.378,196.604l38.083-14.189c0,0,17.892-9.542,16.104-9.542
			c-1.789,0-24.933,2.82-24.933,2.82L134.378,196.604z"/>
		<g>
			<g>
				<g opacity="0.6">
					<polygon fill="#728090" points="164.905,179.017 134.378,196.579 134.478,130.667 165.005,113.103 					"/>
				</g>
				<polygon fill="#233744" points="164.905,179.017 134.378,196.579 134.478,130.667 165.005,113.103 				"/>
				<path fill="#2E353A" d="M163.631,175.693c-0.001,0.717-0.508,1.587-1.134,1.947l-25.708,14.79
					c-0.621,0.357-1.126,0.071-1.125-0.646l0.087-57.796c0.001-0.712,0.509-1.589,1.13-1.947l25.708-14.79
					c0.625-0.36,1.131-0.066,1.13,0.646L163.631,175.693z"/>
				<polygon fill="#FFFFFF" points="156.602,123.364 142.863,131.27 142.865,129.886 156.604,121.981 				"/>
				<path fill="#FFFFFF" d="M150.589,179.321c-0.001,0.604-0.426,1.328-0.942,1.625c-0.518,0.299-0.932,0.059-0.932-0.547
					c0.001-0.594,0.417-1.314,0.935-1.611C150.167,178.49,150.59,178.727,150.589,179.321z"/>
				<path fill="#FFFFFF" d="M143.155,183.598c0,0.459-0.316,0.993-0.703,1.217c-0.388,0.224-0.703,0.05-0.702-0.407
					c0.001-0.445,0.317-0.982,0.705-1.206C142.842,182.979,143.156,183.15,143.155,183.598z"/>
				<path fill="#FFFFFF" d="M157.558,175.312c-0.001,0.457-0.318,0.994-0.705,1.216c-0.388,0.224-0.705,0.051-0.704-0.406
					c0-0.446,0.318-0.984,0.706-1.208C157.242,174.692,157.558,174.866,157.558,175.312z"/>
				<polygon fill="#CAF8FD" points="162.208,169.046 136.92,183.595 136.99,137.334 162.277,122.786 				"/>
				<polygon fill="#3B617A" points="134.378,196.604 129.926,194.025 130.026,128.086 134.478,130.666 				"/>
				<polygon fill="#34556A" points="165.005,113.103 134.478,130.663 130.026,128.086 161.006,110.786 				"/>
				<polygon fill="#2E353A" points="142.936,123.752 134.614,128.54 133.4,127.836 141.845,123.121 				"/>
				<polygon fill="#34556A" points="134.378,196.604 129.926,194.025 130.026,128.086 134.478,130.666 				"/>
				<polygon fill="#2E353A" points="132.984,149.025 131.461,148.142 131.483,133.672 133.006,134.554 				"/>
			</g>
		</g>
	</g>
	<g>
		<g>
			<g enable-background="new    ">
				<g>
					<polygon fill="#007F00" points="149.378,112.549 143.25,109.891 150.664,93.436 156.792,96.095 					"/>
				</g>
				<path fill="#007F00" d="M144.844,76.296c0.024-0.343,0.059-0.688,0.095-1.034c0.017-0.158,0.029-0.315,0.048-0.475
					c0.012-0.1,0.03-0.2,0.042-0.3c0.08-0.615,0.18-1.232,0.294-1.853c0.036-0.188,0.071-0.376,0.109-0.565
					c0.111-0.547,0.234-1.096,0.373-1.646c0.026-0.107,0.048-0.213,0.075-0.319c0.164-0.633,0.347-1.267,0.544-1.901
					c0.053-0.168,0.111-0.337,0.166-0.505c0.157-0.484,0.323-0.967,0.499-1.451c0.075-0.204,0.15-0.408,0.228-0.612
					c0.206-0.542,0.424-1.084,0.652-1.625c0.054-0.128,0.104-0.256,0.16-0.384c0.302-0.7,0.627-1.397,0.966-2.093
					c0.078-0.158,0.158-0.316,0.238-0.474c0.38-0.759,0.776-1.517,1.197-2.27c0.022-0.038,0.041-0.076,0.062-0.113
					c0.093-0.167,0.193-0.331,0.289-0.497c0.204-0.354,0.409-0.709,0.622-1.062c0.123-0.204,0.253-0.405,0.379-0.608
					c0.191-0.308,0.381-0.616,0.58-0.921c0.378-0.583,0.768-1.163,1.168-1.737c0.088-0.125,0.18-0.248,0.268-0.373
					c0.319-0.45,0.643-0.897,0.976-1.34c0.189-0.253,0.384-0.504,0.578-0.755c0.18-0.232,0.359-0.466,0.543-0.697
					c0.207-0.26,0.419-0.517,0.63-0.774c0.188-0.228,0.375-0.457,0.566-0.684c0.216-0.255,0.437-0.507,0.658-0.76
					c0.194-0.223,0.387-0.447,0.585-0.667c0.225-0.25,0.456-0.499,0.685-0.747c0.201-0.216,0.399-0.434,0.602-0.647
					c0.162-0.17,0.327-0.336,0.491-0.504c0.336-0.346,0.675-0.69,1.02-1.03c0.189-0.186,0.382-0.371,0.574-0.555
					c0.326-0.313,0.655-0.623,0.988-0.929c0.198-0.183,0.398-0.365,0.599-0.544c0.345-0.311,0.696-0.616,1.049-0.918
					c0.188-0.162,0.376-0.326,0.567-0.486c0.427-0.357,0.859-0.706,1.294-1.051c0.12-0.095,0.237-0.194,0.358-0.288
					c0.556-0.434,1.119-0.857,1.688-1.271c0.153-0.111,0.309-0.217,0.463-0.326c0.421-0.3,0.845-0.595,1.272-0.883
					c0.21-0.141,0.422-0.278,0.634-0.416c0.38-0.249,0.763-0.494,1.149-0.732c0.226-0.14,0.453-0.278,0.68-0.414
					c0.385-0.231,0.771-0.455,1.161-0.675c0.224-0.127,0.447-0.255,0.672-0.378c0.41-0.224,0.823-0.438,1.236-0.65
					c0.196-0.101,0.391-0.206,0.588-0.303c0.611-0.304,1.226-0.597,1.846-0.873c0.593-0.264,1.181-0.509,1.766-0.741
					c0.191-0.076,0.379-0.144,0.569-0.216c0.393-0.15,0.784-0.297,1.172-0.433c0.355-0.123,0.707-0.24,1.058-0.352
					c0.116-0.037,0.234-0.078,0.35-0.114c0.482-0.148,0.96-0.286,1.434-0.412c0.115-0.031,0.227-0.056,0.341-0.085
					c0.361-0.093,0.722-0.181,1.078-0.26c0.162-0.037,0.322-0.069,0.482-0.103c0.255-0.053,0.509-0.101,0.762-0.147
					c0.485-0.09,0.965-0.167,1.44-0.232c0.125-0.017,0.251-0.04,0.374-0.055c0.586-0.074,1.165-0.127,1.734-0.166
					c0.174-0.011,0.344-0.015,0.517-0.023c0.341-0.016,0.681-0.028,1.017-0.031c0.193-0.001,0.385,0.002,0.577,0.004
					c0.313,0.005,0.624,0.014,0.932,0.031c0.198,0.01,0.397,0.022,0.593,0.038c0.256,0.02,0.509,0.045,0.76,0.073
					c0.201,0.022,0.402,0.045,0.601,0.073c0.25,0.035,0.498,0.077,0.743,0.119c0.194,0.034,0.389,0.067,0.579,0.106
					c0.209,0.043,0.415,0.092,0.621,0.141c0.201,0.048,0.402,0.095,0.6,0.149c0.202,0.055,0.4,0.116,0.598,0.177
					c0.185,0.057,0.37,0.113,0.551,0.176c0.448,0.153,0.889,0.317,1.315,0.503l-6.128-2.659c-0.427-0.185-0.867-0.349-1.315-0.503
					c-0.046-0.016-0.09-0.036-0.136-0.052c-0.134-0.045-0.276-0.081-0.413-0.123c-0.198-0.061-0.396-0.122-0.599-0.177
					c-0.197-0.054-0.398-0.101-0.599-0.149c-0.206-0.049-0.411-0.098-0.622-0.142c-0.062-0.013-0.123-0.03-0.185-0.042
					c-0.129-0.024-0.263-0.04-0.394-0.063c-0.246-0.044-0.493-0.085-0.744-0.12c-0.198-0.028-0.397-0.05-0.599-0.073
					c-0.251-0.028-0.506-0.053-0.762-0.074c-0.094-0.007-0.186-0.021-0.28-0.026c-0.101-0.007-0.208-0.005-0.311-0.011
					c-0.307-0.016-0.619-0.025-0.933-0.03c-0.191-0.003-0.383-0.006-0.578-0.004c-0.335,0.003-0.674,0.015-1.015,0.031
					c-0.134,0.006-0.262,0.004-0.397,0.012c-0.039,0.002-0.081,0.009-0.121,0.011c-0.57,0.037-1.148,0.091-1.735,0.165
					c-0.123,0.016-0.248,0.037-0.37,0.054c-0.477,0.066-0.958,0.143-1.443,0.233c-0.091,0.017-0.18,0.026-0.271,0.043
					c-0.163,0.031-0.328,0.071-0.491,0.104c-0.161,0.034-0.321,0.066-0.482,0.103c-0.357,0.08-0.717,0.167-1.079,0.261
					c-0.113,0.029-0.225,0.054-0.34,0.084c-0.473,0.127-0.951,0.265-1.433,0.413c-0.117,0.036-0.235,0.077-0.353,0.114
					c-0.28,0.09-0.561,0.177-0.844,0.274c-0.07,0.024-0.142,0.053-0.211,0.077c-0.387,0.135-0.777,0.282-1.167,0.431
					c-0.192,0.073-0.382,0.141-0.576,0.217c-0.583,0.232-1.171,0.477-1.764,0.742c-0.619,0.275-1.234,0.568-1.845,0.871
					c-0.199,0.099-0.396,0.205-0.594,0.306c-0.412,0.211-0.822,0.425-1.23,0.647c-0.081,0.044-0.164,0.084-0.245,0.129
					c-0.146,0.081-0.288,0.169-0.432,0.251c-0.387,0.219-0.772,0.442-1.155,0.672c-0.229,0.137-0.458,0.275-0.685,0.416
					c-0.385,0.238-0.767,0.482-1.146,0.729c-0.211,0.139-0.424,0.275-0.635,0.417c-0.429,0.288-0.853,0.584-1.275,0.884
					c-0.153,0.109-0.307,0.214-0.459,0.324c-0.57,0.413-1.133,0.836-1.689,1.271c-0.121,0.094-0.238,0.193-0.358,0.288
					c-0.436,0.345-0.868,0.694-1.295,1.052c-0.19,0.159-0.377,0.322-0.565,0.484c-0.354,0.303-0.704,0.608-1.05,0.918
					c-0.201,0.18-0.401,0.362-0.599,0.545c-0.333,0.307-0.663,0.617-0.989,0.93c-0.192,0.184-0.384,0.368-0.573,0.554
					c-0.345,0.34-0.684,0.684-1.021,1.031c-0.122,0.125-0.247,0.245-0.367,0.37c-0.042,0.044-0.082,0.089-0.123,0.133
					c-0.204,0.214-0.403,0.432-0.603,0.648c-0.229,0.248-0.459,0.495-0.685,0.746c-0.197,0.221-0.391,0.444-0.585,0.667
					c-0.221,0.252-0.442,0.505-0.657,0.761c-0.191,0.226-0.377,0.455-0.565,0.683c-0.211,0.257-0.423,0.515-0.63,0.775
					c-0.186,0.231-0.365,0.466-0.546,0.699c-0.144,0.186-0.292,0.369-0.433,0.555c-0.049,0.064-0.094,0.131-0.142,0.196
					c-0.334,0.445-0.659,0.895-0.98,1.346c-0.087,0.123-0.177,0.244-0.264,0.367c-0.401,0.575-0.791,1.155-1.168,1.739
					c-0.019,0.029-0.041,0.058-0.06,0.088c-0.178,0.275-0.347,0.555-0.52,0.832c-0.126,0.203-0.257,0.405-0.38,0.609
					c-0.215,0.355-0.421,0.712-0.627,1.07c-0.094,0.163-0.192,0.324-0.284,0.487c-0.005,0.011-0.012,0.021-0.018,0.032
					c-0.016,0.028-0.029,0.057-0.045,0.085c-0.421,0.751-0.816,1.508-1.196,2.267c-0.047,0.093-0.101,0.185-0.146,0.277
					c-0.032,0.065-0.059,0.132-0.091,0.198c-0.339,0.696-0.663,1.393-0.966,2.092c-0.012,0.028-0.027,0.057-0.04,0.086
					c-0.042,0.099-0.077,0.199-0.12,0.299c-0.229,0.541-0.446,1.083-0.652,1.625c-0.038,0.1-0.083,0.199-0.119,0.3
					c-0.04,0.104-0.07,0.208-0.108,0.312c-0.175,0.483-0.34,0.966-0.497,1.449c-0.04,0.124-0.089,0.249-0.128,0.373
					c-0.014,0.046-0.025,0.091-0.04,0.136c-0.197,0.634-0.379,1.267-0.542,1.899c-0.005,0.022-0.013,0.043-0.019,0.065
					c-0.022,0.087-0.036,0.172-0.058,0.259c-0.137,0.549-0.261,1.097-0.371,1.643c-0.018,0.09-0.044,0.182-0.062,0.271
					c-0.019,0.098-0.029,0.195-0.047,0.293c-0.115,0.619-0.214,1.236-0.294,1.85c-0.01,0.072-0.027,0.146-0.035,0.22
					c-0.004,0.028-0.005,0.056-0.009,0.084c-0.018,0.157-0.031,0.313-0.047,0.47c-0.037,0.346-0.071,0.692-0.096,1.037
					c-0.014,0.193-0.021,0.384-0.031,0.576c-0.012,0.215-0.029,0.433-0.036,0.648c-0.005,0.168-0.009,0.336-0.011,0.504
					c-0.08,5.915,1.701,10.604,4.84,13.833c1.428,1.468,3.136,2.635,5.079,3.477l6.127,2.658c-6.216-2.696-10.034-8.706-9.918-17.31
					c0.005-0.381,0.026-0.767,0.046-1.152C144.822,76.68,144.83,76.489,144.844,76.296z"/>
				<g>
					<path fill="#009100" d="M178.05,33.183c18.161-8.094,32.699-1.137,32.476,15.531c-0.223,16.674-15.125,36.747-33.285,44.841
						c-4.417,1.969-8.61,3.038-12.44,3.31l-15.423,15.685l7.414-16.454c-7.448-2.183-12.154-8.533-12.026-18.071
						C144.989,61.357,159.89,41.277,178.05,33.183z"/>
				</g>
			</g>
		</g>
	</g>
	<g>
		<path opacity="0.15" fill="#211915" enable-background="new    " d="M368.579,144.848c0,0,0,0.459,0.46,1.148
			c0.459,0.69,1.148,1.379,1.379,1.609c0,0,0.689,0.92,1.379,1.609c0.459,0.69,1.148,0.919,1.379,0.919
			c0.231,0,4.598-0.919,5.286-0.919h0.229c0.229,0,0.689,0.23,0.919,0.23c1.149,1.149,2.758,2.068,4.138,2.988
			c0.229,0.459,0.459,0.918,0.459,0.918c0,0.46,0,4.367,0,4.597c0,0,0.46,0.459,1.148,0.919c0.92,0.46,1.84,0.919,2.067,0.919
			c0,0,1.15,0.46,2.069,0.919c0.46,0.23,0.689,0.23,0.919,0.23c0.229,0,0.461,0,0.461,0l2.757-4.137
			c1.38,0.229,2.758,0.459,4.137,0.689l0,0c0.46,0.23,0.92,0.46,1.149,0.919c0.46,0.459,3.907,4.826,4.137,5.056
			c0,0,0.46,0.23,1.148,0.23c0.23,0,0.23,0,0.23,0c0.688-0.23,1.608-0.23,1.608-0.23s0.919-0.23,1.608-0.23
			c0.46,0,0.46-0.23,0.688-0.46l4.137-6.205c1.609,0.689,3.218,1.609,3.448,1.609c0,0,0.688,0,0.918-0.46l8.273-12.641l-0.229,0.229
			l0.229-0.229c0.23-0.459,0.461-1.149,0.461-1.149s0.229-0.689,0.459-1.149c0.229-0.459-0.229-1.149-0.229-1.149
			c-0.229-0.23-2.987-2.068-4.596-2.988l3.905-5.976l0,0l-3.905,5.976l0,0l3.905-5.976c0,0,0,0-0.229,0h0.229
			c0,0,0.23-0.459,0-1.149c-0.229-0.69-0.688-1.609-0.918-1.609c0,0-0.46-0.919-0.919-1.609c-0.231-0.689-0.92-1.149-1.149-1.149
			s-5.517-0.919-6.205-0.919c-0.23,0-0.92-0.229-1.149-0.46c-0.918-1.148-2.068-2.527-3.219-3.677c-0.229-0.459-0.229-0.689,0-0.919
			l0,0l0,0c0.231-0.46,2.068-3.448,2.068-3.448s-0.229-0.459-0.919-1.149c-0.689-0.46-1.608-1.149-1.608-1.149
			s-0.919-0.69-1.608-1.15c-0.688-0.459-1.378-0.459-1.608-0.459c-0.229,0.229-2.987,2.298-3.446,2.528
			c-0.23,0.23-0.461,0.23-0.92,0.23c-1.608-0.919-2.987-1.609-4.597-2.068c-0.46-0.23-0.689-0.689-0.92-0.919
			c-0.229-0.459-2.067-4.826-2.298-5.057c0,0-0.688-0.458-1.379-0.689c-0.919-0.229-1.84-0.229-1.84-0.459
			c0,0-1.147-0.23-1.839-0.46c-0.229,0-0.229,0-0.229,0c-0.459,0-0.919,0.23-0.919,0.23l-3.677,5.976
			c-0.462-0.23-0.689-0.23-0.92-0.46c-0.461-0.46-5.286-4.137-5.516-4.367c0,0-0.229,0-0.461-0.229c-0.229,0-0.459,0-0.689,0.229
			c-0.459,0.229-1.147,0.689-1.147,0.689s-0.689,0.46-1.15,0.69c-0.229,0.23-0.229,0.23-0.229,0.23l0,0l-8.274,12.64
			c-0.229,0.23-0.229,0.689-0.229,0.689l0,0c0,0,0.229,0.229,0.46,0.46l-4.367,6.895c-0.229,0.229-0.229,0.229-0.229,0.459
			c0,0.459,0.229,1.378,0.229,1.378s0.229,0.92,0.229,1.38c0,0.459,0.461,1.148,0.689,1.148c0.229,0.23,5.746,2.299,6.436,2.528
			c0.229,0.229,0.689,0.459,1.148,0.919c0.229,0.46,0.459,0.919,0.689,1.609L368.579,144.848z M375.015,109.685L375.015,109.685
			C374.784,109.914,374.784,109.914,375.015,109.685z M374.784,110.374L374.784,110.374L374.784,110.374z M374.784,109.914
			L374.784,109.914C374.784,110.144,374.784,110.144,374.784,109.914z"/>
		<g>
			<g enable-background="new    ">
				<g>
					<path fill="#D95F28" d="M376.163,127.151l-13.101,7.584l0,0L376.163,127.151L376.163,127.151z"/>
				</g>
				<g>
					<path fill="#D95F28" d="M369.498,111.063l-13.102,7.584l0,0L369.498,111.063L369.498,111.063z"/>
				</g>
				<g>
					<path fill="#A92933" d="M391.332,145.077l-13.101,7.584c-0.229,0.23-0.229,0.23-0.46,0.459
						c-0.229,0.46-1.379,4.367-1.608,4.597l13.101-7.584c0-0.229,1.378-4.137,1.609-4.597
						C391.102,145.307,391.102,145.307,391.332,145.077z"/>
				</g>
				<path fill="#D63D51" d="M374.555,113.131c-0.46-0.229-4.826-2.068-5.057-2.298l-13.102,7.584
					c0.231,0.23,4.368,2.068,5.058,2.299c0.229,0.229,0.461,0,0.92,0l13.101-7.585C375.244,113.362,374.784,113.362,374.555,113.131
					z"/>
				<path fill="#A92933" d="M393.4,139.562c-0.459-0.229-1.148-0.459-1.84-0.919c-5.285-2.988-10.11-9.883-10.801-16.547
					c-0.461-4.367,0.689-7.584,3.217-8.963l-13.56,7.584c-2.527,1.378-3.678,4.596-3.218,8.963
					c0.92,6.435,5.516,13.56,10.802,16.547c0.46,0.229,1.149,0.46,1.839,0.919c2.527,0.919,4.366,0.919,5.977-0.229l13.56-7.584
					C397.767,140.481,395.698,140.71,393.4,139.562z"/>
				<path fill="#DD535F" d="M376.394,100.032c0,0-0.461-0.23-0.919,0l-13.101,7.584c0.46-0.23,0.919,0,0.919,0
					c0.229,0.229,3.678,5.056,4.137,5.515l13.102-7.584C380.3,105.088,376.623,100.262,376.394,100.032z"/>
				<path fill="#A92933" d="M401.674,145.996l0.459-0.229c0.69-0.459,1.38-0.919,2.068-1.608l-13.101,7.584
					c-0.46,0.459-1.147,0.919-1.607,1.379l-0.688,0.46c0,0.459-0.229,0.919,0,1.149c0.229,0.689,1.837,6.205,2.068,6.435
					c0,0-0.231,0.46-0.461,0.46l13.101-7.584c0.229-0.23,0.459-0.459,0.459-0.459l0,0c-0.229-0.23-1.606-5.746-2.067-6.436
					C401.674,146.687,401.674,146.456,401.674,145.996z"/>
				<path fill="#D63D51" d="M381.68,106.237c-0.46-0.23-0.919-0.46-0.919-0.92l-13.101,7.584c0.229,0.23,0.46,0.46,0.919,0.919
					c0.919-0.23,2.067-0.23,3.218-0.23l13.102-7.584C383.748,106.007,382.599,106.237,381.68,106.237z"/>
				<path fill="#DD535F" d="M412.016,144.158c-0.229-0.23-4.137-4.597-4.365-5.286c-0.23-0.23-0.46-0.69-0.689-1.149l-13.101,7.584
					c0.229,0.459,0.46,0.919,0.689,1.149c0.46,0.46,4.366,5.056,4.366,5.286c0,0,0.23,0.919,0,1.379
					c-0.229,0.46-0.46,1.149-0.46,1.149s-0.229,0.689-0.46,1.148c-0.229,0.23-0.229,0.23-0.229,0.46l13.102-7.584
					c0.229-0.23,0.229-0.23,0.229-0.46c0.229-0.459,0.459-1.148,0.459-1.148s0.231-0.69,0.46-1.15
					C412.246,144.848,412.016,144.158,412.016,144.158z"/>
				<path fill="#D63D51" d="M407.419,133.126l-13.1,7.584c-0.229,0.23-0.229,0.23-0.459,0.46c0.229,1.609,0.229,2.988,0,4.137
					l13.1-7.584c0.229-1.149,0.229-2.758,0-4.137C406.96,133.586,407.189,133.356,407.419,133.126z"/>
				<path fill="#DD535F" d="M391.562,107.846c-0.229-0.689-1.379-5.975-1.379-6.206c0,0-0.461-0.459-0.92-0.919
					c-0.229,0-0.229-0.229-0.229-0.229c-0.689-0.23-1.379-0.46-1.609-0.46c0,0-0.918-0.23-1.606-0.46
					c-0.461-0.229-0.689-0.229-0.919,0l-13.102,7.584c0.229-0.23,0.459-0.23,0.919,0c0.69,0.229,1.379,0.46,1.609,0.46
					c0,0,0.919,0.229,1.606,0.46c0.23,0,0.23,0,0.23,0.229c0.46,0.229,0.92,0.919,0.92,0.919c0,0.23,1.148,5.516,1.379,6.206
					c0,0.229,0.229,0.919,0.459,1.149l13.102-7.584C391.791,108.535,391.562,108.076,391.562,107.846z"/>
				<path fill="#D63D51" d="M395.698,111.753L395.698,111.753c-1.148-1.149-2.298-2.068-3.677-2.758l-13.102,7.584
					c1.149,0.919,2.529,1.838,3.678,2.758c0.23,0,0.688,0,0.919,0l13.102-7.584C396.388,111.982,395.929,111.982,395.698,111.753z"
					/>
				<path fill="#DD535F" d="M412.016,131.977c-0.229-0.919-0.46-1.838-0.46-2.068c0,0-0.229-1.149-0.459-2.068
					c-0.229-0.919-0.688-1.378-0.919-1.378l0,0c-0.229-0.23-4.367-1.379-4.827-1.609c0,0-0.229,0-0.229-0.23
					c-0.229-0.23-0.459-0.46-0.92-0.689l0,0c-0.688-1.609-1.378-2.988-2.298-4.597l-13.1,7.584c0.918,1.609,1.607,2.988,2.297,4.597
					l6.665-3.677l-6.665,3.677c0.23,0.23,0.46,0.459,0.92,0.69c0,0,0.23,0,0.23,0.229c0.458,0.23,4.826,1.609,4.826,1.609
					l6.664-3.677l-6.664,3.677c0,0,0.459,0.459,0.918,1.379c0.229,0.919,0.46,1.839,0.46,2.068c0,0,0.229,1.149,0.46,2.068
					c0.229,0.919,0,1.149-0.229,1.149l13.102-7.584C412.016,133.126,412.476,132.896,412.016,131.977z"/>
				<path fill="#D63D51" d="M404.201,114.511l-13.101,7.584c-0.229,0.23-1.838,3.678-2.067,4.137c-0.229,0.23-0.229,0.689,0,1.149
					l13.1-7.584c0-0.459-0.229-0.919,0-1.149C402.364,118.188,404.201,114.74,404.201,114.511z"/>
				<path fill="#DD535F" d="M403.513,113.131c-0.46-0.689-1.147-1.608-1.147-1.608s-0.69-0.919-1.15-1.609
					c-0.229-0.229-0.459-0.459-0.918-0.689c-0.23-0.23-0.461-0.23-0.461-0.23l-13.1,7.584c0,0,0.229,0,0.46,0.229
					c0.229,0.23,0.459,0.23,0.919,0.69c0.46,0.689,1.148,1.609,1.148,1.609s0.689,0.919,1.148,1.609
					c0.461,0.689,0.688,1.378,0.688,1.378l13.101-7.584C404.201,114.511,404.201,113.821,403.513,113.131z"/>
				<g>
					<path fill="#CC3D48" d="M355.938,119.337c0-0.689,0.46-0.919,0.46-0.919c0.23,0.23,4.598,2.068,5.057,2.299
						c0.229,0.229,0.461,0,0.92,0c0.229-1.149,0.689-2.299,1.379-3.218c0-0.459-0.229-0.919-0.229-1.149
						c-0.459-0.689-3.218-5.976-3.447-6.206c0,0,0-0.689,0.46-1.149c0.46-0.229,0.919-0.689,0.919-0.689s0.461-0.459,0.92-0.689
						c0.46-0.23,0.919,0,1.148,0c0.229,0.229,3.906,5.056,4.138,5.515c0.229,0.23,0.46,0.46,0.919,0.919
						c0.919-0.229,2.068-0.229,3.218-0.229c0.229-0.23,0.459-0.459,0.229-0.919c0-0.46-0.229-5.516-0.229-5.976
						c0,0,0.229-0.46,0.919-0.229c0.69,0.229,1.379,0.46,1.609,0.46c0,0,0.919,0.229,1.606,0.46c0.23,0,0.23,0,0.23,0.229
						c0.46,0.23,0.92,0.919,0.92,0.919c0,0.23,1.379,5.516,1.379,6.206c0,0.23,0.229,0.919,0.459,1.149
						c1.379,0.92,2.529,1.838,3.678,2.758c0.23,0,0.688,0,0.92-0.23c0.229-0.23,2.987-2.758,3.218-2.758c0,0,0.229,0,0.46,0.229
						c0.229,0.229,0.459,0.229,0.919,0.689c0.46,0.69,1.379,1.609,1.379,1.609s0.689,0.919,1.38,1.608
						c0.459,0.69,0.688,1.379,0.688,1.379c-0.229,0.23-1.84,3.677-2.068,4.137c-0.229,0.229-0.229,0.689,0,1.149
						c0.919,1.608,1.608,2.988,2.298,4.596c0.23,0.23,0.461,0.46,0.919,0.689c0,0,0.231,0,0.231,0.23
						c0.459,0.229,4.825,1.608,4.825,1.608s0.46,0.459,0.92,1.379c0.229,0.919,0.46,1.838,0.46,2.069c0,0,0.229,1.149,0.46,2.068
						c0.229,0.918,0,1.149-0.23,1.149c-0.229,0-4.137,0-4.598,0c-0.229,0-0.459,0.229-0.688,0.46c0.229,1.608,0.229,2.987,0,4.136
						c0.229,0.459,0.46,0.919,0.688,1.149c0.461,0.46,4.368,5.056,4.598,5.286c0,0,0.23,0.92,0,1.379
						c-0.229,0.459-0.46,1.149-0.46,1.149s-0.229,0.689-0.46,1.149c-0.229,0.46-0.919,0.46-0.919,0.46
						c-0.229-0.23-4.367-3.677-4.827-4.137l-0.229-0.23c-0.229-0.229-0.459-0.229-0.919-0.229c-0.688,0.689-1.608,1.379-2.299,1.839
						c0,0.459-0.229,0.919,0,1.149c0.229,0.689,1.839,6.206,2.068,6.435c0,0-0.229,0.46-0.69,0.689c-0.457,0-1.378,0.23-1.378,0.23
						s-0.688,0-1.379,0.229c-0.229,0-0.461-0.229-0.688-0.229c-0.23-0.23-0.46-0.23-0.46-0.23c-0.229-0.229-2.758-5.746-2.988-6.205
						c-0.229-0.23-0.46-0.69-0.918-1.149c-0.461-0.23-1.379-0.23-1.84-0.46c-0.459-0.229-1.379-0.459-1.838-0.919
						c-0.23,0.23-0.46,0.23-0.689,0.46c-0.229,0.459-1.379,4.596-1.608,4.596c0,0-0.459,0.23-0.92-0.23
						c-0.229,0-0.229-0.23-0.229-0.23c-0.689-0.459-1.379-1.149-1.609-1.149c0,0-0.919-0.689-1.607-1.149
						c-0.689-0.46-0.92-1.149-0.92-1.149c0-0.23,0.229-4.826,0.46-5.516c0-0.23-0.229-0.919-0.229-1.149
						c-1.148-1.149-2.299-2.528-3.219-3.907c-0.458-0.23-0.918-0.459-0.918-0.459c-0.46,0.229-4.138,0.689-4.367,0.689
						c0,0-0.459-0.46-0.919-1.149c-0.459-0.689-0.92-1.839-0.92-2.068c0,0-0.459-1.149-0.919-2.068s-0.229-1.379-0.229-1.379
						c0.229-0.229,3.218-2.068,3.447-2.068c0.23-0.229,0.23-0.459,0.459-0.919c-0.459-1.609-0.919-2.988-1.378-4.597
						c-0.229-0.459-0.46-0.919-0.919-1.149c-0.461-0.459-4.827-3.447-5.057-3.677c0,0-0.461-0.69-0.461-1.609
						c0-0.689,0-1.608,0-1.608C355.938,120.946,355.938,120.026,355.938,119.337z M367.2,129.679
						c0.92,6.435,5.516,13.56,10.802,16.317c0.46,0.23,1.149,0.46,1.839,0.92c5.977,2.298,10.112-1.839,8.964-8.963
						c-0.92-6.435-5.518-13.56-10.803-16.317c-0.459-0.229-1.149-0.459-1.839-0.919C370.188,118.417,366.281,122.554,367.2,129.679"
						/>
				</g>
			</g>
		</g>
	</g>
	<g>
		<g>
			<g>
				<g enable-background="new    ">
					<g>
						<polygon fill="#E2E2E2" points="397.446,296.328 399.999,294.628 399.999,253.79 397.446,255.49 						"/>
					</g>
					<g>
						<polygon fill="#CECECE" points="397.446,255.49 399.999,253.79 347.249,222.311 344.698,223.729 						"/>
					</g>
					<g>
						<polygon fill="#FBFBFB" points="344.698,223.729 344.698,264.852 397.446,296.328 397.446,255.49 						"/>
					</g>
				</g>
			</g>
			<g>
				<g enable-background="new    ">
					<g>
						<polygon fill="#E2E2E2" points="397.446,296.328 399.999,294.628 399.999,253.79 397.446,255.49 						"/>
					</g>
					<g>
						<polygon fill="#CECECE" points="397.446,255.49 399.999,253.79 347.249,222.311 344.698,223.729 						"/>
					</g>
					<g>
						<polygon fill="#FBFBFB" points="344.698,223.729 344.698,264.852 397.446,296.328 397.446,255.49 						"/>
					</g>
				</g>
			</g>
		</g>
		<g>
			<g>
				<g enable-background="new    ">
					<g>
						<polygon fill="#599DB1" points="371.922,265.701 374.475,264.282 343.279,245.85 341.011,247.268 						"/>
					</g>
					<g>
						<polygon fill="#599DB1" points="379.58,265.133 381.849,263.716 374.475,264.282 371.922,265.701 						"/>
					</g>
					<g>
						<polygon fill="#75B9C7" points="399.147,323.838 401.417,322.419 401.7,275.626 399.431,277.044 						"/>
					</g>
					<g>
						<polygon fill="#599DB1" points="399.431,277.044 401.7,275.626 381.849,263.716 379.58,265.133 						"/>
					</g>
					<g>
						<polygon fill="#5FA7BC" points="379.58,265.133 371.922,265.701 341.011,247.268 340.728,288.955 399.147,323.838 
							399.431,277.044 						"/>
					</g>
				</g>
			</g>
			<g>
				<g enable-background="new    ">
					<polygon fill="#85D5E0" points="381.849,263.716 374.475,264.282 343.279,245.85 341.011,247.268 371.922,265.701 
						379.58,265.133 399.431,277.044 399.147,323.838 401.417,322.419 401.7,275.626 					"/>
					<g>
						<polygon fill="#5DA2AF" points="379.58,265.133 371.922,265.701 341.011,247.268 340.728,288.955 399.147,323.838 
							399.431,277.044 						"/>
					</g>
				</g>
			</g>
		</g>
	</g>
	<g>
		<g enable-background="new    ">
			<g enable-background="new    ">
				<g>
					<defs>
						<path id="SVGID_1_" d="M442.149,222.16l-5.557-1.704c-0.196-0.06-0.386-0.134-0.568-0.224
							c-0.917-0.453-1.632-1.182-2.126-2.196l5.556,1.704c0.494,1.015,1.21,1.742,2.127,2.195
							C441.763,222.025,441.953,222.1,442.149,222.16z"/>
					</defs>
					<clipPath id="SVGID_2_">
						<use xlink:href="#SVGID_1_"  overflow="visible"/>
					</clipPath>
					<g clip-path="url(#SVGID_2_)" enable-background="new    ">
						<path fill="#274765" d="M442.149,222.16l-5.557-1.704c-0.196-0.06-0.386-0.134-0.568-0.224
							c-0.917-0.453-1.632-1.182-2.126-2.196l5.556,1.704c0.494,1.015,1.21,1.742,2.127,2.195
							C441.763,222.025,441.953,222.1,442.149,222.16"/>
					</g>
				</g>
			</g>
			<path fill="#274765" d="M454.954,197.85c0.027-0.404,0.048-0.813,0.062-1.229c0.006-0.141,0.019-0.273,0.021-0.414
				c0.008-0.324,0.011-0.65,0.011-0.98c-0.005-2.725-0.415-5.153-1.229-7.291c-0.822-2.129-1.969-3.865-3.448-5.215
				c-0.642-0.582-1.335-1.086-2.082-1.507c-0.746-0.422-1.545-0.762-2.396-1.022l-5.556-1.705c1.703,0.522,3.197,1.363,4.479,2.531
				c1.48,1.351,2.627,3.086,3.447,5.213c0.814,2.139,1.227,4.568,1.23,7.293c0,0.474-0.017,0.934-0.031,1.395
				c-0.014,0.416-0.035,0.826-0.062,1.23c-0.019,0.269-0.034,0.537-0.059,0.799c-0.037,0.414-0.084,0.82-0.135,1.223
				c-0.03,0.232-0.054,0.471-0.089,0.697c-0.099,0.654-0.209,1.297-0.344,1.916c-0.1,0.449-0.209,0.879-0.32,1.304
				c-0.041,0.153-0.08,0.308-0.122,0.458c-0.113,0.404-0.234,0.799-0.36,1.184c-0.019,0.059-0.036,0.121-0.056,0.179
				c-0.021,0.06-0.044,0.112-0.064,0.173c-0.179,0.516-0.37,1.005-0.573,1.479c-0.147,0.34-0.295,0.68-0.454,1
				c-0.182,0.361-0.371,0.703-0.565,1.034c-0.051,0.087-0.102,0.173-0.153,0.257c-0.198,0.325-0.401,0.644-0.615,0.938
				c-0.002,0.004-0.004,0.005-0.007,0.009c-0.227,0.312-0.46,0.604-0.701,0.886c-0.079,0.092-0.164,0.174-0.247,0.262
				c-0.191,0.211-0.384,0.42-0.585,0.606c-0.256,0.238-0.498,0.448-0.73,0.64c-0.075,0.062-0.145,0.111-0.218,0.168
				c-0.155,0.119-0.306,0.234-0.45,0.334c-0.079,0.054-0.155,0.101-0.23,0.147c-0.128,0.08-0.253,0.151-0.373,0.213
				c-0.073,0.038-0.146,0.073-0.216,0.104c-0.159,0.068-0.315,0.133-0.457,0.165c-0.075,0.017-0.145,0.022-0.209,0.024
				c-0.021,0.002-0.045,0.004-0.064,0.002c-0.066,0-0.13-0.008-0.188-0.024l0,0l0,0l0,0l5.556,1.702
				c0.01,0.004,0.021,0.007,0.03,0.01c0.036,0.01,0.075,0.015,0.116,0.018c0.014,0.002,0.028-0.002,0.04-0.001
				c0.021,0.001,0.042-0.001,0.063-0.002c0.023,0,0.045,0.001,0.07-0.002c0.046-0.005,0.091-0.013,0.139-0.024
				c0.102-0.021,0.208-0.055,0.318-0.099c0.044-0.017,0.094-0.046,0.14-0.065c0.069-0.03,0.142-0.064,0.216-0.104
				c0.119-0.061,0.244-0.133,0.372-0.213c0.077-0.048,0.153-0.095,0.233-0.146c0.143-0.101,0.295-0.215,0.448-0.336
				c0.072-0.057,0.143-0.104,0.219-0.166c0.231-0.191,0.476-0.4,0.729-0.64c0.059-0.055,0.116-0.11,0.174-0.166
				c0.142-0.138,0.275-0.292,0.412-0.44c0.082-0.088,0.166-0.172,0.246-0.264c0.241-0.277,0.477-0.572,0.701-0.885
				c0.003-0.004,0.005-0.006,0.008-0.01l0,0c0.213-0.295,0.416-0.612,0.615-0.938c0.052-0.085,0.103-0.17,0.152-0.256
				c0.053-0.089,0.105-0.174,0.157-0.265c0.141-0.249,0.276-0.506,0.408-0.771c0.129-0.259,0.254-0.523,0.375-0.797
				c0.028-0.064,0.05-0.138,0.078-0.201c0.204-0.474,0.396-0.965,0.574-1.479c0.018-0.048,0.037-0.087,0.054-0.136
				c0.004-0.012,0.008-0.024,0.011-0.035c0.021-0.061,0.037-0.123,0.059-0.182c0.126-0.384,0.246-0.775,0.357-1.182
				c0.043-0.15,0.083-0.305,0.122-0.459c0.048-0.18,0.1-0.352,0.145-0.535c0.06-0.251,0.12-0.507,0.177-0.768
				c0.136-0.62,0.247-1.262,0.345-1.915c0.008-0.058,0.021-0.109,0.03-0.166c0.023-0.173,0.036-0.357,0.059-0.532
				c0.051-0.402,0.099-0.809,0.136-1.223C454.92,198.386,454.938,198.118,454.954,197.85z"/>
			<g>
				<polygon fill="#345F88" points="443.646,185.482 438.091,183.779 445.122,182.156 450.677,183.859 				"/>
			</g>
			<g>
				<polygon fill="#2E5376" points="443.354,187.212 437.798,185.508 438.091,183.779 443.646,185.482 				"/>
			</g>
			<path fill="#335C84" d="M444.436,227.898c0.586-0.287,1.165-0.592,1.738-0.926c0.103-0.061,0.201-0.125,0.305-0.187
				c0.483-0.29,0.964-0.599,1.439-0.923c0.153-0.104,0.306-0.208,0.459-0.316c0.563-0.396,1.122-0.811,1.674-1.256l0,0l0,0
				l-5.556-1.703c-0.551,0.445-1.11,0.857-1.673,1.256c-0.153,0.108-0.308,0.213-0.461,0.317c-0.477,0.323-0.956,0.632-1.44,0.922
				c-0.101,0.062-0.201,0.127-0.303,0.187c-0.574,0.334-1.153,0.641-1.737,0.926c-0.146,0.07-0.293,0.138-0.438,0.205
				c-0.478,0.222-0.955,0.43-1.438,0.621c-0.156,0.062-0.312,0.127-0.472,0.188c-0.345,0.128-0.692,0.242-1.04,0.355
				c-0.169,0.055-0.338,0.115-0.509,0.168c-0.521,0.156-1.042,0.297-1.571,0.42c-0.487,0.111-0.965,0.207-1.438,0.291
				c-0.137,0.025-0.273,0.048-0.41,0.07c-0.354,0.059-0.702,0.109-1.048,0.152c-0.117,0.016-0.235,0.031-0.354,0.045
				c-0.604,0.066-1.192,0.107-1.77,0.127c-0.095,0.003-0.189,0.007-0.283,0.008c-0.567,0.01-1.123-0.001-1.664-0.039
				c-0.099-0.006-0.194-0.016-0.29-0.022c-0.476-0.04-0.941-0.093-1.396-0.17c-0.368-0.062-0.728-0.142-1.079-0.229
				c-0.27-0.065-0.537-0.137-0.798-0.216l5.558,1.702c0.229,0.071,0.463,0.138,0.699,0.196c0.031,0.008,0.064,0.012,0.098,0.021
				c0.353,0.086,0.71,0.164,1.08,0.228c0.451,0.078,0.919,0.129,1.394,0.172c0.057,0.005,0.11,0.015,0.168,0.02
				c0.039,0.004,0.082,0,0.123,0.003c0.54,0.038,1.095,0.05,1.663,0.039c0.095-0.001,0.188-0.006,0.285-0.009
				c0.575-0.018,1.164-0.061,1.768-0.126c0.035-0.005,0.066-0.003,0.103-0.008c0.081-0.009,0.168-0.026,0.252-0.037
				c0.345-0.043,0.692-0.095,1.046-0.152c0.138-0.022,0.273-0.045,0.412-0.069c0.473-0.086,0.95-0.181,1.438-0.293
				c0.529-0.121,1.053-0.265,1.571-0.42c0.17-0.052,0.339-0.111,0.507-0.168c0.35-0.111,0.697-0.228,1.043-0.356
				c0.061-0.022,0.122-0.04,0.183-0.062c0.098-0.037,0.19-0.086,0.287-0.125c0.484-0.189,0.963-0.396,1.439-0.619
				C444.143,228.037,444.29,227.971,444.436,227.898z"/>
			<path fill="#2A4C6D" d="M440.913,194.547c-0.371-0.275-0.782-0.484-1.231-0.622l-5.556-1.702c0.9,0.275,1.642,0.828,2.224,1.659
				l-1.807,10.724c-0.111,0.604-0.251,1.183-0.4,1.754c-0.077,0.302-0.168,0.595-0.258,0.887c-0.144,0.471-0.283,0.943-0.454,1.391
				c-0.126,0.331-0.259,0.651-0.396,0.963c-0.021,0.047-0.042,0.09-0.063,0.137c-0.208,0.465-0.428,0.908-0.661,1.326
				c-0.017,0.031-0.033,0.064-0.051,0.097c-0.151,0.271-0.31,0.53-0.471,0.78c-0.139,0.216-0.281,0.42-0.425,0.617
				c-0.179,0.243-0.36,0.478-0.545,0.694c-0.021,0.024-0.044,0.045-0.064,0.07c-0.167,0.19-0.335,0.372-0.507,0.542
				c-0.149,0.148-0.302,0.294-0.456,0.427c-0.241,0.207-0.484,0.381-0.729,0.538c-0.06,0.039-0.119,0.074-0.18,0.109
				c-0.244,0.146-0.489,0.274-0.734,0.369c-0.183,0.068-0.364,0.125-0.548,0.168c-0.169,0.039-0.334,0.067-0.493,0.086
				c-0.015,0.002-0.026,0.002-0.039,0.004c-0.196,0.021-0.383,0.021-0.562,0.015c-0.055-0.003-0.107-0.007-0.162-0.013
				c-0.092-0.008-0.181-0.023-0.268-0.043c-0.08-0.016-0.162-0.027-0.238-0.051l-0.001-0.002l0.001,0.002l-0.001-0.002l5.557,1.703
				c0.04,0.014,0.082,0.024,0.126,0.034c0.035,0.01,0.075,0.013,0.112,0.021c0.088,0.018,0.176,0.031,0.27,0.041
				c0.026,0.004,0.054,0.013,0.083,0.015c0.023,0.001,0.053-0.003,0.078-0.002c0.18,0.008,0.364,0.007,0.562-0.017
				c0.012,0,0.021,0,0.03,0h-0.003l0,0h0.003c0.003,0,0.006,0,0.011-0.002c0.158-0.019,0.324-0.047,0.494-0.088
				c0.181-0.041,0.36-0.096,0.539-0.164c0.002-0.002,0.004-0.003,0.006-0.003c0.247-0.095,0.492-0.223,0.735-0.366
				c0.061-0.037,0.121-0.074,0.181-0.112c0.245-0.157,0.486-0.329,0.729-0.537c0.137-0.117,0.271-0.241,0.402-0.369
				c0.019-0.019,0.036-0.04,0.053-0.058c0.174-0.17,0.343-0.352,0.508-0.543c0.021-0.023,0.043-0.045,0.063-0.068
				c0.188-0.218,0.368-0.452,0.545-0.695c0.013-0.018,0.026-0.031,0.038-0.05c0.132-0.183,0.262-0.371,0.388-0.567
				c0.162-0.25,0.318-0.512,0.471-0.78c0.007-0.011,0.013-0.021,0.019-0.029c0.012-0.022,0.021-0.047,0.033-0.065
				c0.232-0.42,0.452-0.861,0.661-1.328c0.014-0.03,0.028-0.056,0.042-0.086c0.008-0.016,0.015-0.033,0.021-0.049
				c0.138-0.312,0.27-0.632,0.396-0.964c0.09-0.237,0.178-0.479,0.26-0.723c0.074-0.216,0.127-0.447,0.194-0.668
				c0.09-0.292,0.18-0.585,0.259-0.888c0.029-0.115,0.069-0.223,0.098-0.34c0.112-0.459,0.212-0.932,0.302-1.412l1.809-10.725
				C441.615,195.169,441.283,194.823,440.913,194.547z"/>
			<path fill="#2D5274" d="M421.942,210.189c0.025-0.39,0.063-0.774,0.104-1.162c0.034-0.338,0.069-0.68,0.115-1.018
				c0.067-0.52,0.146-1.037,0.239-1.553c0.021-0.122,0.039-0.246,0.062-0.368c0.123-0.653,0.27-1.302,0.43-1.944
				c0.035-0.146,0.077-0.287,0.114-0.431c0.135-0.514,0.283-1.021,0.441-1.528c0.052-0.16,0.099-0.32,0.151-0.479
				c0.204-0.62,0.425-1.237,0.664-1.849c0.034-0.084,0.072-0.17,0.107-0.256c0.217-0.539,0.448-1.071,0.692-1.603
				c0.071-0.157,0.145-0.313,0.221-0.472c0.287-0.603,0.586-1.201,0.91-1.795c0.103-0.186,0.206-0.361,0.308-0.541
				c0.284-0.5,0.57-0.984,0.859-1.443c0.024-0.04,0.051-0.076,0.075-0.115c0.281-0.443,0.566-0.863,0.854-1.267
				c0.048-0.066,0.094-0.136,0.141-0.2c0.097-0.132,0.192-0.257,0.288-0.385c0.102-0.133,0.2-0.268,0.303-0.396
				c0.096-0.121,0.192-0.236,0.288-0.354c0.104-0.125,0.205-0.251,0.309-0.37c0.098-0.113,0.196-0.223,0.294-0.331
				c0.104-0.115,0.207-0.229,0.31-0.341c0.101-0.105,0.199-0.205,0.301-0.307c0.096-0.099,0.192-0.197,0.29-0.293
				c0.287-0.275,0.577-0.535,0.87-0.777c0.062-0.053,0.126-0.102,0.188-0.151c0.293-0.233,0.587-0.457,0.885-0.655
				c0.01-0.008,0.021-0.016,0.03-0.021c0.306-0.204,0.614-0.383,0.925-0.551c0.067-0.034,0.134-0.071,0.2-0.105
				c0.305-0.154,0.613-0.296,0.923-0.417c0.043-0.017,0.086-0.03,0.13-0.046c0.376-0.141,0.755-0.26,1.139-0.348
				c0.483-0.113,0.95-0.192,1.404-0.254c0.045-0.006,0.091-0.015,0.136-0.021c0.436-0.053,0.854-0.078,1.261-0.084
				c0.104-0.001,0.204,0.006,0.306,0.007c0.335,0.006,0.661,0.022,0.976,0.062c0.053,0.008,0.106,0.012,0.158,0.019
				c0.394,0.058,0.771,0.138,1.131,0.248l-5.555-1.702c-0.115-0.035-0.231-0.068-0.351-0.099c-0.252-0.062-0.516-0.111-0.782-0.149
				c-0.051-0.008-0.104-0.011-0.157-0.019c-0.142-0.019-0.282-0.039-0.428-0.05c-0.177-0.015-0.364-0.01-0.547-0.014
				c-0.104-0.002-0.202-0.009-0.308-0.007c-0.379,0.005-0.768,0.024-1.173,0.071c-0.028,0.004-0.059,0.01-0.087,0.014
				c-0.045,0.006-0.091,0.014-0.136,0.02c-0.454,0.062-0.921,0.143-1.405,0.254c-0.384,0.089-0.762,0.209-1.138,0.348
				c-0.028,0.012-0.058,0.018-0.085,0.027c-0.017,0.005-0.029,0.015-0.045,0.021c-0.312,0.12-0.617,0.261-0.924,0.416
				c-0.066,0.035-0.134,0.071-0.198,0.106c-0.312,0.166-0.619,0.346-0.925,0.549c-0.012,0.008-0.022,0.017-0.032,0.021
				c-0.298,0.2-0.592,0.422-0.885,0.657c-0.062,0.05-0.125,0.101-0.188,0.151c-0.292,0.24-0.582,0.501-0.869,0.777
				c-0.018,0.019-0.035,0.03-0.054,0.047c-0.079,0.08-0.159,0.166-0.238,0.246c-0.1,0.102-0.2,0.199-0.299,0.306
				c-0.104,0.11-0.207,0.229-0.311,0.343c-0.1,0.107-0.196,0.216-0.294,0.329c-0.104,0.12-0.204,0.246-0.308,0.37
				c-0.096,0.117-0.193,0.234-0.289,0.355c-0.102,0.127-0.202,0.262-0.302,0.396c-0.096,0.128-0.192,0.253-0.288,0.384
				c-0.02,0.025-0.039,0.053-0.059,0.078c-0.027,0.038-0.055,0.083-0.081,0.122c-0.288,0.403-0.573,0.823-0.855,1.268
				c-0.023,0.038-0.05,0.076-0.075,0.114c-0.29,0.459-0.575,0.943-0.858,1.443c-0.03,0.055-0.062,0.101-0.092,0.154
				c-0.072,0.127-0.145,0.258-0.216,0.389c-0.323,0.593-0.624,1.191-0.912,1.795c-0.073,0.156-0.146,0.312-0.22,0.471
				c-0.076,0.165-0.158,0.329-0.23,0.494c-0.162,0.365-0.312,0.736-0.462,1.107c-0.034,0.084-0.072,0.17-0.106,0.256
				c-0.201,0.513-0.392,1.026-0.568,1.545c-0.033,0.102-0.062,0.203-0.096,0.304c-0.053,0.159-0.102,0.319-0.151,0.479
				c-0.159,0.508-0.307,1.017-0.44,1.528c-0.039,0.144-0.08,0.285-0.115,0.429c-0.019,0.071-0.039,0.141-0.057,0.211
				c-0.142,0.574-0.265,1.153-0.373,1.736c-0.023,0.121-0.041,0.244-0.062,0.367c-0.07,0.396-0.144,0.792-0.201,1.191
				c-0.017,0.119-0.022,0.242-0.039,0.361c-0.045,0.338-0.08,0.678-0.114,1.018c-0.04,0.386-0.078,0.771-0.105,1.16
				c-0.023,0.345-0.039,0.689-0.054,1.035c-0.01,0.238-0.031,0.477-0.036,0.717c-0.007,0.295-0.01,0.59-0.009,0.887
				c0.003,2.251,0.268,4.22,0.793,5.914c0.522,1.688,1.252,3.062,2.17,4.113c0.924,1.05,2.015,1.765,3.285,2.166l5.557,1.703
				c-1.271-0.401-2.36-1.115-3.286-2.166c-0.918-1.051-1.646-2.426-2.171-4.112c-0.523-1.695-0.788-3.664-0.792-5.915
				c-0.001-0.538,0.023-1.07,0.045-1.604C421.902,210.879,421.918,210.533,421.942,210.189z"/>
			<g>
				<path fill="#4278AB" d="M454.962,176.314c4.182,4.084,6.279,9.943,6.293,17.581c0.007,3.846-0.398,7.387-1.229,10.604
					c-0.824,3.216-1.974,6.051-3.447,8.481c-1.474,2.437-3.211,4.445-5.209,6.022c-1.998,1.575-4.158,2.628-6.496,3.168
					c-1.274,0.295-2.37,0.215-3.293-0.235c-0.917-0.453-1.633-1.182-2.127-2.195c-2.013,2.922-4.416,4.703-7.211,5.348
					c-1.501,0.348-2.887,0.326-4.151-0.066c-1.271-0.401-2.36-1.115-3.286-2.166c-0.918-1.051-1.646-2.426-2.171-4.112
					c-0.523-1.695-0.788-3.664-0.792-5.915c-0.012-6.061,1.44-11.762,4.354-17.094c2.979-5.44,6.283-8.582,9.906-9.418
					c3.009-0.693,5.428-0.396,7.25,0.896l0.294-1.729l7.029-1.623l-4.18,24.391c-0.194,1.122-0.35,2.053-0.458,2.771
					c-0.115,0.728-0.172,1.359-0.172,1.898c0.002,0.878,0.321,1.247,0.959,1.1c0.689-0.157,1.582-0.748,2.677-1.769
					c1.094-1.021,2.054-2.351,2.875-3.994c0.82-1.644,1.467-3.563,1.95-5.772c0.482-2.209,0.723-4.625,0.719-7.26
					c-0.005-2.725-0.415-5.153-1.229-7.291c-0.822-2.129-1.969-3.865-3.448-5.215c-1.481-1.349-3.245-2.263-5.287-2.751
					c-2.049-0.487-4.298-0.446-6.757,0.119c-2.915,0.675-5.569,1.937-7.943,3.784c-2.375,1.84-4.499,4.271-6.372,7.296
					c-3.775,6.144-5.654,12.978-5.643,20.498c0.007,3.646,0.476,6.785,1.409,9.403c0.932,2.629,2.286,4.716,4.058,6.262
					c1.771,1.557,3.931,2.55,6.483,2.986c2.546,0.438,5.433,0.279,8.649-0.463c3.932-0.906,7.621-2.764,11.084-5.562l3.147,5.829
					c-4.614,3.655-9.338,6.039-14.165,7.153c-4.122,0.951-7.833,1.115-11.135,0.496c-3.301-0.625-6.115-1.984-8.434-4.069
					c-2.323-2.093-4.107-4.862-5.35-8.333c-1.246-3.465-1.874-7.557-1.883-12.286c-0.018-9.837,2.438-18.606,7.359-26.299
					c4.928-7.694,11.183-12.416,18.771-14.167C445.262,171.023,450.797,172.255,454.962,176.314z M440.098,206.311l1.81-10.726
					c-1.169-1.665-2.974-2.214-5.413-1.651c-0.991,0.229-1.941,0.92-2.838,2.072c-0.903,1.154-1.707,2.559-2.412,4.203
					c-0.704,1.655-1.264,3.432-1.672,5.341c-0.415,1.905-0.619,3.718-0.617,5.429c0.008,4.774,1.409,6.844,4.204,6.197
					c0.741-0.171,1.472-0.566,2.188-1.184c0.713-0.615,1.385-1.397,1.997-2.352c0.619-0.955,1.168-2.057,1.643-3.303
					C439.465,209.091,439.834,207.743,440.098,206.311"/>
			</g>
			<path fill="#2D5274" d="M412.399,208.736c0.013-0.166,0.024-0.33,0.038-0.496c0.079-0.922,0.182-1.836,0.307-2.737
				c0.025-0.187,0.055-0.371,0.082-0.556c0.082-0.538,0.172-1.072,0.27-1.604c0.035-0.19,0.068-0.383,0.105-0.573
				c0.135-0.688,0.282-1.375,0.446-2.054c0.028-0.118,0.062-0.237,0.094-0.356c0.125-0.5,0.257-0.998,0.398-1.492
				c0.061-0.209,0.125-0.418,0.188-0.626c0.123-0.405,0.249-0.81,0.382-1.212c0.075-0.223,0.151-0.447,0.229-0.67
				c0.134-0.381,0.271-0.758,0.414-1.135c0.08-0.212,0.16-0.426,0.243-0.635c0.166-0.419,0.341-0.834,0.52-1.247
				c0.068-0.157,0.133-0.319,0.203-0.478c0.265-0.596,0.543-1.188,0.834-1.771c0.07-0.144,0.147-0.285,0.221-0.427
				c0.228-0.444,0.462-0.888,0.704-1.325c0.094-0.17,0.189-0.339,0.286-0.508c0.395-0.691,0.799-1.377,1.23-2.052
				c0.392-0.611,0.793-1.194,1.2-1.769c0.143-0.199,0.286-0.396,0.43-0.593c0.163-0.221,0.327-0.438,0.493-0.655
				c0.165-0.214,0.332-0.426,0.501-0.634c0.168-0.209,0.337-0.416,0.507-0.618c0.172-0.205,0.345-0.404,0.519-0.602
				c0.173-0.197,0.346-0.393,0.521-0.584c0.176-0.192,0.354-0.378,0.531-0.564c0.179-0.186,0.358-0.369,0.54-0.551
				c0.183-0.182,0.365-0.357,0.551-0.533c0.182-0.171,0.36-0.34,0.543-0.506c0.188-0.17,0.379-0.335,0.569-0.5
				c0.188-0.16,0.372-0.318,0.561-0.473c0.192-0.158,0.389-0.312,0.584-0.463c0.19-0.148,0.383-0.297,0.575-0.439
				c0.198-0.146,0.397-0.288,0.601-0.429c0.194-0.137,0.392-0.273,0.59-0.404c0.203-0.135,0.409-0.265,0.615-0.394
				c0.2-0.126,0.401-0.251,0.605-0.371c0.208-0.124,0.42-0.241,0.63-0.358c0.206-0.114,0.412-0.228,0.622-0.337
				c0.214-0.112,0.43-0.218,0.646-0.324c0.211-0.104,0.424-0.205,0.638-0.303c0.218-0.1,0.439-0.194,0.661-0.288
				c0.217-0.092,0.433-0.183,0.652-0.27c0.179-0.071,0.36-0.136,0.542-0.202c0.391-0.145,0.784-0.28,1.186-0.406
				c0.163-0.052,0.324-0.105,0.489-0.154c0.549-0.163,1.104-0.315,1.669-0.446c0.503-0.116,1-0.217,1.488-0.303
				c0.167-0.029,0.327-0.048,0.491-0.074c0.32-0.05,0.642-0.102,0.955-0.139c0.077-0.009,0.153-0.013,0.231-0.021
				c0.54-0.059,1.068-0.095,1.59-0.114c0.149-0.005,0.299-0.011,0.447-0.013c0.575-0.008,1.145,0,1.695,0.041
				c0.082,0.005,0.159,0.019,0.241,0.025c0.373,0.033,0.742,0.074,1.104,0.129c0.155,0.023,0.307,0.056,0.46,0.084
				c0.284,0.052,0.566,0.107,0.846,0.173c0.315,0.075,0.629,0.153,0.938,0.247l-5.557-1.703c-0.246-0.075-0.495-0.145-0.748-0.208
				c-0.061-0.016-0.127-0.024-0.188-0.039c-0.277-0.066-0.561-0.121-0.845-0.173c-0.152-0.028-0.306-0.061-0.461-0.084
				c-0.36-0.055-0.73-0.096-1.104-0.129c-0.073-0.006-0.145-0.02-0.217-0.025c-0.01,0-0.018,0-0.022,0
				c-0.554-0.041-1.121-0.049-1.696-0.041c-0.148,0.002-0.299,0.008-0.448,0.013c-0.521,0.019-1.05,0.054-1.588,0.113
				c-0.06,0.007-0.113,0.006-0.173,0.012c-0.02,0.002-0.041,0.006-0.062,0.009c-0.313,0.037-0.634,0.089-0.954,0.139
				c-0.164,0.026-0.325,0.044-0.492,0.074c-0.489,0.086-0.984,0.187-1.488,0.303c-0.564,0.13-1.118,0.282-1.669,0.445
				c-0.165,0.049-0.326,0.102-0.488,0.154c-0.399,0.127-0.795,0.263-1.188,0.407c-0.099,0.036-0.201,0.065-0.3,0.104
				c-0.082,0.031-0.16,0.067-0.241,0.099c-0.22,0.086-0.437,0.177-0.65,0.269c-0.223,0.094-0.443,0.188-0.662,0.288
				c-0.214,0.097-0.428,0.199-0.638,0.303c-0.217,0.105-0.434,0.211-0.646,0.323c-0.208,0.109-0.415,0.223-0.621,0.336
				c-0.211,0.118-0.421,0.236-0.63,0.359c-0.204,0.12-0.405,0.245-0.607,0.371c-0.205,0.129-0.411,0.259-0.613,0.394
				c-0.198,0.131-0.396,0.268-0.592,0.404c-0.199,0.14-0.398,0.282-0.599,0.429c-0.194,0.143-0.386,0.291-0.577,0.439
				c-0.194,0.152-0.39,0.306-0.582,0.463c-0.188,0.154-0.374,0.313-0.561,0.473c-0.191,0.164-0.381,0.33-0.569,0.5
				c-0.182,0.165-0.363,0.334-0.544,0.505c-0.106,0.101-0.215,0.196-0.321,0.3c-0.077,0.075-0.151,0.157-0.229,0.233
				c-0.182,0.181-0.359,0.365-0.539,0.551c-0.179,0.186-0.355,0.373-0.531,0.564c-0.176,0.19-0.35,0.387-0.522,0.584
				c-0.175,0.196-0.348,0.397-0.518,0.603c-0.171,0.201-0.339,0.408-0.507,0.616c-0.168,0.21-0.336,0.423-0.502,0.636
				c-0.165,0.215-0.329,0.436-0.491,0.654c-0.095,0.128-0.189,0.248-0.284,0.377c-0.05,0.07-0.096,0.146-0.146,0.217
				c-0.407,0.571-0.811,1.156-1.2,1.768c-0.432,0.675-0.838,1.361-1.231,2.053c-0.049,0.084-0.104,0.166-0.149,0.25
				c-0.048,0.085-0.089,0.171-0.136,0.256c-0.242,0.438-0.476,0.879-0.701,1.323c-0.075,0.144-0.151,0.286-0.225,0.433
				c-0.291,0.584-0.568,1.174-0.835,1.769c-0.012,0.028-0.024,0.057-0.038,0.085c-0.058,0.13-0.106,0.263-0.164,0.392
				c-0.179,0.414-0.353,0.828-0.519,1.247c-0.084,0.211-0.163,0.424-0.243,0.637c-0.143,0.375-0.281,0.754-0.414,1.135
				c-0.04,0.111-0.085,0.224-0.123,0.338c-0.038,0.107-0.068,0.222-0.104,0.333c-0.133,0.399-0.26,0.804-0.382,1.21
				c-0.063,0.209-0.128,0.416-0.188,0.626c-0.141,0.495-0.272,0.991-0.397,1.493c-0.025,0.104-0.058,0.203-0.082,0.308
				c-0.004,0.017-0.008,0.033-0.012,0.05c-0.165,0.678-0.312,1.363-0.445,2.053c-0.038,0.19-0.071,0.383-0.107,0.572
				c-0.097,0.531-0.187,1.066-0.268,1.604c-0.02,0.125-0.045,0.245-0.062,0.37c-0.008,0.062-0.013,0.125-0.021,0.188
				c-0.125,0.903-0.227,1.814-0.305,2.738c-0.015,0.163-0.026,0.329-0.04,0.494c-0.07,0.932-0.119,1.874-0.144,2.826
				c-0.002,0.051-0.007,0.099-0.008,0.147c-0.012,0.455-0.017,0.912-0.016,1.37c0.009,4.73,0.637,8.823,1.884,12.285
				c1.24,3.473,3.025,6.242,5.35,8.334c0.905,0.814,1.887,1.52,2.941,2.111c1.057,0.592,2.187,1.072,3.393,1.442l5.557,1.702
				c-2.412-0.739-4.523-1.924-6.335-3.553c-2.322-2.094-4.107-4.862-5.35-8.333c-1.246-3.464-1.874-7.558-1.883-12.286
				c-0.001-0.512,0.009-1.016,0.021-1.521C412.278,210.609,412.328,209.67,412.399,208.736z"/>
		</g>
	</g>
</g>
</svg>
