<?xml version="1.0" encoding="utf-8"?>
<!-- Generator: Adobe Illustrator 16.0.0, SVG Export Plug-In . SVG Version: 6.00 Build 0)  -->
<!DOCTYPE svg PUBLIC "-//W3C//DTD SVG 1.1//EN" "http://www.w3.org/Graphics/SVG/1.1/DTD/svg11.dtd">
<svg version="1.1" id="Layer_1" xmlns="http://www.w3.org/2000/svg" xmlns:xlink="http://www.w3.org/1999/xlink" x="0px" y="0px"
	 width="554px" height="363px" viewBox="0 0 554 363" enable-background="new 0 0 554 363" xml:space="preserve">
<g>
	<defs>
		<rect id="SVGID_1_" x="-29" y="-4.761" width="612" height="372.523"/>
	</defs>
	<clipPath id="SVGID_2_">
		<use xlink:href="#SVGID_1_"  overflow="visible"/>
	</clipPath>
	<g clip-path="url(#SVGID_2_)">
		<defs>
			<rect id="SVGID_3_" x="-29" y="-4.761" width="612" height="372.523"/>
		</defs>
		<clipPath id="SVGID_4_">
			<use xlink:href="#SVGID_3_"  overflow="visible"/>
		</clipPath>
		<g opacity="0.15" clip-path="url(#SVGID_4_)">
			<g>
				<defs>
					<rect id="SVGID_5_" x="109.699" y="163.557" width="360.598" height="196.018"/>
				</defs>
				<clipPath id="SVGID_6_">
					<use xlink:href="#SVGID_5_"  overflow="visible"/>
				</clipPath>
				<polygon clip-path="url(#SVGID_6_)" fill="#211915" points="275.072,359.574 470.297,265.528 281.677,163.557 109.699,243.338 
									"/>
			</g>
		</g>
	</g>
	<polygon clip-path="url(#SVGID_2_)" fill="#495160" points="104.467,243.676 104.496,253.285 248.892,169.918 248.863,160.308 	"/>
	<g clip-path="url(#SVGID_2_)">
		<defs>
			<rect id="SVGID_7_" x="-29" y="-4.761" width="612" height="372.523"/>
		</defs>
		<clipPath id="SVGID_8_">
			<use xlink:href="#SVGID_7_"  overflow="visible"/>
		</clipPath>
		<path clip-path="url(#SVGID_8_)" fill="#495160" d="M91.5,243.665l0.026,9.609c0.003,0.948,0.623,1.896,1.859,2.614l-0.028-9.611
			C92.122,245.56,91.503,244.613,91.5,243.665"/>
		<polygon clip-path="url(#SVGID_8_)" fill="#FBFBFB" points="257.331,332.511 257.359,342.119 401.755,258.752 401.728,249.143 		
			"/>
		<polygon clip-path="url(#SVGID_8_)" fill="#495160" points="248.863,160.308 248.89,169.918 401.755,258.752 401.728,249.143 		
			"/>
		<path clip-path="url(#SVGID_8_)" fill="#495160" d="M430.642,268.016l-0.025-9.609c0.002,0.962-0.63,1.924-1.89,2.652l0.027,9.609
			C430.017,269.938,430.645,268.977,430.642,268.016"/>
		<path clip-path="url(#SVGID_8_)" fill="#495160" d="M349.183,302.852c1.062,0.62,1.857,1.332,2.389,2.094
			c-0.01-3.202-0.02-6.405-0.029-9.608c-0.527-0.762-1.323-1.477-2.388-2.094c-4.262-2.477-11.186-2.474-15.469-0.001l-0.001,0.001
			c0.01,3.204,0.029,6.407,0.029,9.608h0.001C337.995,300.381,344.921,300.375,349.183,302.852"/>
		<path clip-path="url(#SVGID_8_)" fill="#495160" d="M352.299,306.669c-0.009-3.203-0.018-6.406-0.026-9.607
			c-0.102-0.588-0.345-1.169-0.729-1.726c0.01,3.204,0.019,6.407,0.026,9.611C351.955,305.503,352.197,306.081,352.299,306.669"/>
		<path clip-path="url(#SVGID_8_)" fill="#495160" d="M352.299,306.669c0.037,0.209,0.056,0.417,0.056,0.624l-0.026-9.607
			c-0.001-0.209-0.018-0.417-0.056-0.624c0.006,2.33,0.013,4.663,0.019,6.995c0.003,0.436,0.004,0.87,0.005,1.306
			c0.001,0.227,0.001,0.452,0.002,0.678C352.298,306.25,352.281,306.46,352.299,306.669"/>
		<path clip-path="url(#SVGID_8_)" fill="#495160" d="M330.484,307.364c-0.004-1.632,1.074-3.267,3.228-4.512
			c-0.008-3.204-0.017-6.406-0.027-9.608c-2.153,1.244-3.232,2.88-3.228,4.511C330.466,300.638,330.477,304.481,330.484,307.364"/>
		<path clip-path="url(#SVGID_8_)" fill="#3F4651" d="M330.458,297.754l0.025,9.61c0.006,1.61,1.063,3.219,3.18,4.448
			c4.255,2.472,11.179,2.468,15.46-0.004c2.158-1.246,3.235-2.882,3.232-4.516l-0.028-9.607c0.005,1.633-1.072,3.268-3.23,4.514
			c-4.281,2.471-11.206,2.477-15.46,0.004C331.521,300.973,330.462,299.364,330.458,297.754"/>
		<path clip-path="url(#SVGID_8_)" fill="#3F4651" d="M333.686,293.243c-4.281,2.471-4.312,6.483-0.051,8.961
			c4.256,2.472,11.18,2.467,15.462-0.006c4.283-2.472,4.312-6.484,0.058-8.955C344.893,290.767,337.97,290.771,333.686,293.243"/>
		<polygon clip-path="url(#SVGID_8_)" fill="#FBFBFB" points="104.468,243.676 104.494,253.285 257.358,342.119 257.33,332.511 		
			"/>
		<polygon clip-path="url(#SVGID_8_)" fill="#FBFBFB" points="401.728,249.143 257.331,332.511 104.468,243.677 248.863,160.309 		
			"/>
		<path clip-path="url(#SVGID_8_)" fill="#495160" d="M244.302,153.881c2.505-1.445,6.602-1.445,9.091,0l175.362,101.91
			c2.491,1.448,2.478,3.82-0.028,5.267l-150.905,87.127c-2.516,1.451-6.61,1.451-9.101,0.003L93.357,246.277
			c-2.489-1.445-2.476-3.817,0.038-5.269L244.302,153.881z M257.332,332.51l144.396-83.365l-152.864-88.835l-144.396,83.367
			L257.332,332.51 M349.097,302.199c4.283-2.473,4.312-6.483,0.058-8.956c-4.261-2.477-11.185-2.474-15.469,0
			c-4.281,2.473-4.311,6.483-0.051,8.96C337.891,304.676,344.814,304.67,349.097,302.199"/>
		<polygon clip-path="url(#SVGID_8_)" fill="#353E51" points="93.358,246.277 93.386,255.888 268.748,357.798 268.721,348.188 		"/>
		<polygon clip-path="url(#SVGID_8_)" fill="#353E51" points="277.82,348.185 277.847,357.794 428.754,270.668 428.726,261.059 		
			"/>
		<path clip-path="url(#SVGID_8_)" fill="#353E51" d="M268.721,348.188l0.026,9.61c2.491,1.445,6.587,1.445,9.1-0.007l-0.026-9.606
			C275.306,349.637,271.21,349.637,268.721,348.188"/>
		<g clip-path="url(#SVGID_8_)">
			<g>
				<defs>
					<rect id="SVGID_9_" x="91.5" y="152.797" width="339.143" height="206.085"/>
				</defs>
				<clipPath id="SVGID_10_">
					<use xlink:href="#SVGID_9_"  overflow="visible"/>
				</clipPath>
				<g clip-path="url(#SVGID_10_)" enable-background="new    ">
					<g>
						<defs>
							<rect id="SVGID_11_" x="91.5" y="152.797" width="339.143" height="206.085"/>
						</defs>
						<clipPath id="SVGID_12_">
							<use xlink:href="#SVGID_11_"  overflow="visible"/>
						</clipPath>
						<g clip-path="url(#SVGID_12_)">
							<g>
								<defs>
									<rect id="SVGID_13_" x="104.468" y="160.308" width="144.422" height="92.977"/>
								</defs>
								<clipPath id="SVGID_14_">
									<use xlink:href="#SVGID_13_"  overflow="visible"/>
								</clipPath>
								<polygon clip-path="url(#SVGID_14_)" fill="#495160" points="104.467,243.676 104.496,253.285 248.892,169.918 
									248.863,160.308 								"/>
							</g>
						</g>
						<g clip-path="url(#SVGID_12_)">
							<g>
								<defs>
									<rect id="SVGID_15_" x="91.5" y="243.665" width="1.885" height="12.223"/>
								</defs>
								<clipPath id="SVGID_16_">
									<use xlink:href="#SVGID_15_"  overflow="visible"/>
								</clipPath>
								<path clip-path="url(#SVGID_16_)" fill="#495160" d="M91.5,243.665l0.026,9.609c0.003,0.948,0.623,1.896,1.859,2.614
									l-0.028-9.611C92.122,245.56,91.503,244.613,91.5,243.665"/>
							</g>
						</g>
						<g clip-path="url(#SVGID_12_)">
							<g>
								<defs>
									<rect id="SVGID_17_" x="257.33" y="249.143" width="144.425" height="92.977"/>
								</defs>
								<clipPath id="SVGID_18_">
									<use xlink:href="#SVGID_17_"  overflow="visible"/>
								</clipPath>
								<polygon clip-path="url(#SVGID_18_)" fill="#FBFBFB" points="257.331,332.511 257.359,342.119 401.755,258.752 
									401.728,249.143 								"/>
							</g>
						</g>
						<g clip-path="url(#SVGID_12_)">
							<g>
								<defs>
									<rect id="SVGID_19_" x="248.864" y="160.308" width="152.891" height="98.444"/>
								</defs>
								<clipPath id="SVGID_20_">
									<use xlink:href="#SVGID_19_"  overflow="visible"/>
								</clipPath>
								<polygon clip-path="url(#SVGID_20_)" fill="#495160" points="248.863,160.308 248.89,169.918 401.755,258.752 
									401.728,249.143 								"/>
							</g>
						</g>
						<g clip-path="url(#SVGID_12_)">
							<g>
								<defs>
									<rect id="SVGID_21_" x="428.727" y="258.406" width="1.916" height="12.262"/>
								</defs>
								<clipPath id="SVGID_22_">
									<use xlink:href="#SVGID_21_"  overflow="visible"/>
								</clipPath>
								<path clip-path="url(#SVGID_22_)" fill="#495160" d="M430.642,268.016l-0.025-9.609c0.002,0.962-0.63,1.924-1.89,2.652
									l0.027,9.609C430.017,269.938,430.645,268.977,430.642,268.016"/>
							</g>
						</g>
						<g clip-path="url(#SVGID_12_)">
							<g>
								<defs>
									<rect id="SVGID_23_" x="333.686" y="291.387" width="17.884" height="13.559"/>
								</defs>
								<clipPath id="SVGID_24_">
									<use xlink:href="#SVGID_23_"  overflow="visible"/>
								</clipPath>
								<path clip-path="url(#SVGID_24_)" fill="#495160" d="M349.183,302.852c1.062,0.62,1.857,1.332,2.389,2.094
									c-0.01-3.202-0.02-6.405-0.029-9.608c-0.527-0.762-1.323-1.477-2.388-2.094c-4.262-2.477-11.186-2.474-15.469-0.001
									l-0.001,0.001c0.01,3.204,0.029,6.407,0.029,9.608h0.001C337.995,300.381,344.921,300.375,349.183,302.852"/>
							</g>
						</g>
						<g clip-path="url(#SVGID_12_)">
							<g>
								<defs>
									<rect id="SVGID_25_" x="351.543" y="295.337" width="0.756" height="11.332"/>
								</defs>
								<clipPath id="SVGID_26_">
									<use xlink:href="#SVGID_25_"  overflow="visible"/>
								</clipPath>
								<path clip-path="url(#SVGID_26_)" fill="#495160" d="M352.299,306.669c-0.009-3.203-0.018-6.406-0.026-9.607
									c-0.102-0.588-0.345-1.169-0.729-1.726c0.01,3.204,0.019,6.407,0.026,9.611
									C351.955,305.503,352.197,306.081,352.299,306.669"/>
							</g>
						</g>
						<g clip-path="url(#SVGID_12_)">
							<g>
								<defs>
									<rect id="SVGID_27_" x="352.272" y="297.062" width="0.082" height="10.231"/>
								</defs>
								<clipPath id="SVGID_28_">
									<use xlink:href="#SVGID_27_"  overflow="visible"/>
								</clipPath>
								<path clip-path="url(#SVGID_28_)" fill="#495160" d="M352.299,306.669c0.037,0.209,0.056,0.417,0.056,0.624l-0.026-9.607
									c-0.001-0.209-0.018-0.417-0.056-0.624c0.006,2.33,0.013,4.663,0.019,6.995c0.003,0.436,0.004,0.87,0.005,1.306
									c0.001,0.227,0.001,0.452,0.002,0.678C352.298,306.25,352.281,306.46,352.299,306.669"/>
							</g>
						</g>
						<g clip-path="url(#SVGID_12_)">
							<g>
								<defs>
									<rect id="SVGID_29_" x="330.457" y="293.243" width="3.255" height="14.121"/>
								</defs>
								<clipPath id="SVGID_30_">
									<use xlink:href="#SVGID_29_"  overflow="visible"/>
								</clipPath>
								<path clip-path="url(#SVGID_30_)" fill="#495160" d="M330.484,307.364c-0.004-1.632,1.074-3.267,3.228-4.512
									c-0.008-3.204-0.017-6.406-0.027-9.608c-2.153,1.244-3.232,2.88-3.228,4.511
									C330.466,300.638,330.477,304.481,330.484,307.364"/>
							</g>
						</g>
						<g clip-path="url(#SVGID_12_)">
							<g>
								<defs>
									<rect id="SVGID_31_" x="330.457" y="297.686" width="21.897" height="15.979"/>
								</defs>
								<clipPath id="SVGID_32_">
									<use xlink:href="#SVGID_31_"  overflow="visible"/>
								</clipPath>
								<path clip-path="url(#SVGID_32_)" fill="#3F4651" d="M330.458,297.754l0.025,9.61c0.006,1.61,1.063,3.219,3.18,4.448
									c4.255,2.472,11.179,2.468,15.46-0.004c2.158-1.246,3.235-2.882,3.232-4.516l-0.028-9.607
									c0.005,1.633-1.072,3.268-3.23,4.514c-4.281,2.471-11.206,2.477-15.46,0.004
									C331.521,300.973,330.462,299.364,330.458,297.754"/>
							</g>
						</g>
						<g clip-path="url(#SVGID_12_)">
							<g>
								<defs>
									<rect id="SVGID_33_" x="330.457" y="291.387" width="21.871" height="12.668"/>
								</defs>
								<clipPath id="SVGID_34_">
									<use xlink:href="#SVGID_33_"  overflow="visible"/>
								</clipPath>
								<path clip-path="url(#SVGID_34_)" fill="#3F4651" d="M333.686,293.243c-4.281,2.471-4.312,6.483-0.051,8.961
									c4.256,2.472,11.18,2.467,15.462-0.006c4.283-2.472,4.312-6.484,0.058-8.955
									C344.893,290.767,337.97,290.771,333.686,293.243"/>
							</g>
						</g>
						<g clip-path="url(#SVGID_12_)">
							<g>
								<defs>
									<rect id="SVGID_35_" x="104.468" y="243.676" width="152.891" height="98.443"/>
								</defs>
								<clipPath id="SVGID_36_">
									<use xlink:href="#SVGID_35_"  overflow="visible"/>
								</clipPath>
								<polygon clip-path="url(#SVGID_36_)" fill="#FBFBFB" points="104.468,243.676 104.494,253.285 257.358,342.119 
									257.33,332.511 								"/>
							</g>
						</g>
						<polygon clip-path="url(#SVGID_12_)" fill="#E6E7E9" points="104.468,243.676 257.33,332.511 401.728,249.143 
							248.863,160.308 						"/>
						<path clip-path="url(#SVGID_12_)" fill="#495160" d="M244.302,153.881c2.505-1.445,6.602-1.445,9.091,0l175.362,101.91
							c2.491,1.448,2.478,3.82-0.028,5.267l-150.905,87.127c-2.516,1.451-6.61,1.451-9.101,0.003L93.357,246.277
							c-2.489-1.445-2.476-3.817,0.038-5.269L244.302,153.881z M257.332,332.51l144.396-83.365l-152.864-88.835l-144.396,83.367
							L257.332,332.51 M349.097,302.199c4.283-2.473,4.312-6.483,0.058-8.956c-4.261-2.477-11.185-2.474-15.469,0
							c-4.281,2.473-4.311,6.483-0.051,8.96C337.891,304.676,344.814,304.67,349.097,302.199"/>
						<polygon clip-path="url(#SVGID_12_)" fill="#59626F" points="93.358,246.277 93.386,255.888 268.748,357.798 268.721,348.188 
													"/>
						<g clip-path="url(#SVGID_12_)">
							<g>
								<defs>
									<rect id="SVGID_37_" x="277.82" y="261.059" width="150.933" height="96.733"/>
								</defs>
								<clipPath id="SVGID_38_">
									<use xlink:href="#SVGID_37_"  overflow="visible"/>
								</clipPath>
								<polygon clip-path="url(#SVGID_38_)" fill="#353E51" points="277.82,348.185 277.847,357.794 428.754,270.668 
									428.726,261.059 								"/>
							</g>
						</g>
						<g clip-path="url(#SVGID_12_)">
							<g>
								<defs>
									<rect id="SVGID_39_" x="268.721" y="348.185" width="9.126" height="10.697"/>
								</defs>
								<clipPath id="SVGID_40_">
									<use xlink:href="#SVGID_39_"  overflow="visible"/>
								</clipPath>
								<path clip-path="url(#SVGID_40_)" fill="#353E51" d="M268.721,348.188l0.026,9.61c2.491,1.445,6.587,1.445,9.1-0.007
									l-0.026-9.606C275.306,349.637,271.21,349.637,268.721,348.188"/>
							</g>
						</g>
					</g>
				</g>
			</g>
		</g>
		<g opacity="0.15" clip-path="url(#SVGID_8_)">
			<g>
				<defs>
					<rect id="SVGID_41_" x="258.298" y="237.775" width="77.722" height="39.052"/>
				</defs>
				<clipPath id="SVGID_42_">
					<use xlink:href="#SVGID_41_"  overflow="visible"/>
				</clipPath>
				<polygon clip-path="url(#SVGID_42_)" fill="#211915" points="305.127,276.827 336.02,263.138 288.467,237.775 258.298,251.063 
									"/>
			</g>
		</g>
		<g opacity="0.15" clip-path="url(#SVGID_8_)">
			<g>
				<defs>
					<rect id="SVGID_43_" x="209.653" y="171.797" width="72.299" height="64.719"/>
				</defs>
				<clipPath id="SVGID_44_">
					<use xlink:href="#SVGID_43_"  overflow="visible"/>
				</clipPath>
				<polygon clip-path="url(#SVGID_44_)" fill="#211915" points="281.953,201.386 209.654,236.517 224.361,176.552 235.986,171.797 
									"/>
			</g>
		</g>
		<g clip-path="url(#SVGID_8_)">
			<g>
				<defs>
					<rect id="SVGID_45_" x="169.155" y="168.645" width="93.728" height="67.871"/>
				</defs>
				<clipPath id="SVGID_46_">
					<use xlink:href="#SVGID_45_"  overflow="visible"/>
				</clipPath>
				<g clip-path="url(#SVGID_46_)" enable-background="new    ">
					<g>
						<defs>
							<rect id="SVGID_47_" x="169.155" y="168.645" width="93.728" height="67.871"/>
						</defs>
						<clipPath id="SVGID_48_">
							<use xlink:href="#SVGID_47_"  overflow="visible"/>
						</clipPath>
						<g clip-path="url(#SVGID_48_)">
							<g>
								<defs>
									<rect id="SVGID_49_" x="208.793" y="204.218" width="54.086" height="30.816"/>
								</defs>
								<clipPath id="SVGID_50_">
									<use xlink:href="#SVGID_49_"  overflow="visible"/>
								</clipPath>
								<polygon clip-path="url(#SVGID_50_)" fill="#813415" points="208.793,234.478 262.021,204.216 262.879,204.771 
									209.65,235.033 								"/>
							</g>
						</g>
						<g clip-path="url(#SVGID_48_)">
							<g>
								<defs>
									<rect id="SVGID_51_" x="209.651" y="204.773" width="53.232" height="31.742"/>
								</defs>
								<clipPath id="SVGID_52_">
									<use xlink:href="#SVGID_51_"  overflow="visible"/>
								</clipPath>
								<polygon clip-path="url(#SVGID_52_)" fill="#712E12" points="209.651,235.034 262.878,204.773 262.882,206.254 
									209.653,236.517 								"/>
							</g>
						</g>
						<g clip-path="url(#SVGID_48_)">
							<g>
								<defs>
									<rect id="SVGID_53_" x="208.772" y="194.083" width="53.25" height="40.396"/>
								</defs>
								<clipPath id="SVGID_54_">
									<use xlink:href="#SVGID_53_"  overflow="visible"/>
								</clipPath>
								<polygon clip-path="url(#SVGID_54_)" fill="#712E12" points="208.772,224.346 262,194.083 262.021,204.218 208.793,234.479 
																	"/>
							</g>
						</g>
						<g clip-path="url(#SVGID_48_)">
							<g>
								<defs>
									<rect id="SVGID_55_" x="209.625" y="193.023" width="53.232" height="31.877"/>
								</defs>
								<clipPath id="SVGID_56_">
									<use xlink:href="#SVGID_55_"  overflow="visible"/>
								</clipPath>
								<polygon clip-path="url(#SVGID_56_)" fill="#712E12" points="209.626,223.285 262.854,193.023 262.858,194.639 
									209.63,224.9 								"/>
							</g>
						</g>
						<g clip-path="url(#SVGID_48_)">
							<g>
								<defs>
									<rect id="SVGID_57_" x="170.463" y="168.645" width="92.393" height="54.64"/>
								</defs>
								<clipPath id="SVGID_58_">
									<use xlink:href="#SVGID_57_"  overflow="visible"/>
								</clipPath>
								<path clip-path="url(#SVGID_58_)" fill="#813415" d="M226.369,169.381c-0.03-0.019-0.059-0.039-0.089-0.056
									c-0.072-0.047-0.144-0.09-0.214-0.13c-0.037-0.021-0.071-0.039-0.106-0.059c-0.015-0.008-0.03-0.017-0.045-0.025
									c-0.015-0.009-0.032-0.019-0.049-0.028c-0.062-0.032-0.121-0.062-0.181-0.092c-0.049-0.025-0.097-0.047-0.145-0.068
									c-0.004-0.001-0.01-0.003-0.015-0.006c-0.004-0.003-0.009-0.004-0.013-0.006c-0.055-0.025-0.108-0.047-0.162-0.068
									c-0.052-0.019-0.104-0.039-0.155-0.055c-0.01-0.004-0.019-0.007-0.03-0.009c-0.008-0.004-0.017-0.005-0.025-0.008
									c-0.032-0.011-0.064-0.021-0.095-0.032c-0.049-0.012-0.099-0.026-0.146-0.037c-0.025-0.004-0.05-0.009-0.075-0.014
									c-0.009-0.001-0.019-0.004-0.028-0.005c-0.013-0.003-0.026-0.006-0.04-0.008c-0.05-0.008-0.101-0.015-0.15-0.021
									c-0.035-0.004-0.067-0.005-0.1-0.006c-0.009,0-0.017-0.001-0.023-0.001c-0.006,0-0.015-0.001-0.02-0.001
									c-0.057-0.001-0.11,0-0.165,0.003c-0.025,0.001-0.048,0.006-0.074,0.01c-0.015,0.001-0.031,0.003-0.046,0.004
									c-0.014,0.003-0.028,0.003-0.043,0.006c-0.056,0.01-0.109,0.027-0.163,0.042c-0.016,0.006-0.032,0.008-0.047,0.015
									c-0.003,0-0.006,0-0.009,0.001c-0.08,0.028-0.156,0.062-0.228,0.104l-53.228,30.262c0.074-0.042,0.153-0.078,0.233-0.106
									c0.017-0.006,0.033-0.007,0.049-0.011c0.067-0.021,0.135-0.039,0.205-0.049c0.015-0.002,0.03-0.003,0.045-0.004
									c0.083-0.011,0.168-0.017,0.258-0.015c0.008,0,0.017,0.002,0.024,0.002c0.094,0.005,0.19,0.017,0.291,0.035
									c0.009,0.001,0.019,0.004,0.029,0.005c0.101,0.021,0.206,0.047,0.315,0.084c0.007,0.002,0.016,0.003,0.023,0.005
									c0.116,0.04,0.235,0.084,0.359,0.141c0.005,0.002,0.011,0.003,0.016,0.005c0.12,0.056,0.247,0.119,0.375,0.189
									c0.015,0.007,0.03,0.015,0.042,0.023c0.133,0.075,0.269,0.154,0.41,0.247l36.486,23.641l53.229-30.262L226.369,169.381z"/>
							</g>
						</g>
						<g clip-path="url(#SVGID_48_)">
							<g>
								<defs>
									<rect id="SVGID_59_" x="169.155" y="198.907" width="40.499" height="37.608"/>
								</defs>
								<clipPath id="SVGID_60_">
									<use xlink:href="#SVGID_59_"  overflow="visible"/>
								</clipPath>
								<path clip-path="url(#SVGID_60_)" fill="#4E200D" d="M209.626,223.285l0.004,1.615l-0.858-0.555l0.022,10.133l0.856,0.556
									l0.004,1.481l-36.487-23.641c-3.122-2.023-4.005-5.568-4.011-9.21c-0.008-3.635,0.862-6.045,3.984-4.021L209.626,223.285z"
									/>
							</g>
						</g>
						<g clip-path="url(#SVGID_48_)">
							<g>
								<defs>
									<rect id="SVGID_61_" x="170.38" y="201.334" width="38.523" height="32.881"/>
								</defs>
								<clipPath id="SVGID_62_">
									<use xlink:href="#SVGID_61_"  overflow="visible"/>
								</clipPath>
								<path clip-path="url(#SVGID_62_)" fill="#878984" d="M208.772,224.346l0.131,9.869l-35.679-22.979
									c-2.212-1.433-2.838-3.948-2.843-6.529c-0.006-2.577,0.611-4.285,2.824-2.853L208.772,224.346z"/>
							</g>
						</g>
						<polygon clip-path="url(#SVGID_48_)" fill="#B2B9B2" points="261.981,194.982 262.022,204.216 208.793,234.478 
							208.772,224.346 209.629,224.9 						"/>
					</g>
				</g>
			</g>
		</g>
		<g opacity="0.15" clip-path="url(#SVGID_8_)">
			<g>
				<defs>
					<rect id="SVGID_63_" x="297.152" y="165.362" width="70.968" height="45.957"/>
				</defs>
				<clipPath id="SVGID_64_">
					<use xlink:href="#SVGID_63_"  overflow="visible"/>
				</clipPath>
				<path clip-path="url(#SVGID_64_)" fill="#211915" d="M368.12,175.793l-0.002,3.745c0-0.009-0.003-0.02-0.003-0.029
					c0.011,2.98-2.021,6.089-6.105,8.627c-7.17,4.456-18.284,5.685-26.489,3.23l-4.375,2.72v1.17c0-0.096-0.055-0.188-0.092-0.28
					c0.171,0.401,0.004,0.86-0.571,1.217l-23.548,14.639c-0.896,0.557-2.368,0.651-3.272,0.211l-5.824-2.83
					c-0.462-0.224-0.688-0.543-0.685-0.878c0,0.003-0.002,0.006-0.002,0.009l0.002-3.746c0-0.325,0.223-0.664,0.668-0.939
					l23.549-14.639c0.854-0.532,2.237-0.639,3.145-0.262l2.698-1.678c-0.847-1.242-1.273-2.577-1.264-3.94
					c0,0.012-0.004,0.027-0.004,0.041l0.003-3.745c0.001-2.97,2.035-6.068,6.108-8.6c8.199-5.096,21.551-5.967,29.819-1.949
					C366.04,169.91,368.122,172.784,368.12,175.793 M297.318,206.855c0.001-0.002,0.003-0.005,0.003-0.006
					C297.32,206.851,297.319,206.854,297.318,206.855"/>
			</g>
		</g>
		<path clip-path="url(#SVGID_8_)" fill="#DD535F" d="M307.266,210.322l-3.444,2.001c0.299-0.172,0.488-0.542,0.489-1.065l3.442-2
			C307.752,209.779,307.565,210.147,307.266,210.322"/>
		<path clip-path="url(#SVGID_8_)" fill="#DD535F" d="M295.613,177.116l3.446-2c0.277-0.163,0.654-0.155,1.071,0.053l-3.442,2.001
			C296.271,176.962,295.895,176.955,295.613,177.116"/>
		<polygon clip-path="url(#SVGID_8_)" fill="#DD535F" points="304.389,183.522 307.832,181.522 307.755,209.258 304.311,211.258 		
			"/>
		<path clip-path="url(#SVGID_8_)" fill="#DD535F" d="M302.842,180.722l3.443-2c0.862,0.564,1.55,1.792,1.547,2.801l-3.443,2
			C304.391,182.517,303.703,181.287,302.842,180.722"/>
		<polygon clip-path="url(#SVGID_8_)" fill="#DD535F" points="302.857,174.891 306.303,172.889 306.284,178.72 302.842,180.722 		
			"/>
		<path clip-path="url(#SVGID_8_)" fill="#DD535F" d="M297.608,160.342c1.606,2.18,3.545,4.029,5.635,5.235l-3.446,2.001
			c-2.088-1.207-4.026-3.056-5.634-5.235C295.312,161.676,296.458,161.008,297.608,160.342"/>
		<path clip-path="url(#SVGID_8_)" fill="#DD535F" d="M293.188,148.167c-0.01,4,1.742,8.544,4.421,12.175
			c-1.149,0.667-2.297,1.334-3.444,2.003c-2.678-3.632-4.432-8.178-4.421-12.177c0.01-3.18,1.131-5.416,2.942-6.469l3.442-2
			C294.317,142.75,293.196,144.986,293.188,148.167"/>
		<path clip-path="url(#SVGID_8_)" fill="#DD535F" d="M303.243,165.577c2.801,1.617,5.339,1.767,7.174,0.703l-3.443,2
			c-1.834,1.066-4.375,0.916-7.177-0.702C300.831,166.978,302.207,166.177,303.243,165.577"/>
		<path clip-path="url(#SVGID_8_)" fill="#85D5E0" d="M292.685,143.701l3.443-2.001c1.834-1.066,4.376-0.916,7.18,0.703
			l-3.444,2.002C297.059,142.786,294.52,142.634,292.685,143.701"/>
		<path clip-path="url(#SVGID_8_)" fill="#DD535F" d="M314.047,172.531l-3.444,2.001c2.732-1.588,4.425-4.961,4.438-9.759
			l3.445-2.001C318.472,167.569,316.778,170.944,314.047,172.531"/>
		<path clip-path="url(#SVGID_8_)" fill="#85D5E0" d="M310.418,166.28l-3.444,2c1.81-1.051,2.931-3.288,2.94-6.467
			c0.02-6.4-4.482-14.195-10.051-17.409l3.443-2.003c5.568,3.214,10.07,11.008,10.054,17.41
			C313.35,162.99,312.228,165.227,310.418,166.28"/>
		<path clip-path="url(#SVGID_8_)" fill="#CC3D48" d="M315.043,164.772c-0.023,8.446-5.255,12.484-12.188,10.118l-0.014,5.832
			c0.861,0.565,1.549,1.794,1.547,2.8l-0.079,27.735c-0.003,1.055-0.757,1.483-1.677,0.951l-5.917-3.415
			c-0.918-0.53-1.669-1.825-1.665-2.882l0.078-27.735c0.004-1.007,0.695-1.438,1.56-1.007l0.016-5.831
			c-6.923-5.631-12.111-15.688-12.088-24.132c0.028-9.655,6.861-13.549,15.264-8.699
			C308.28,143.358,315.068,155.117,315.043,164.772 M299.797,167.579c5.568,3.214,10.1,0.636,10.117-5.765
			c0.02-6.403-4.482-14.197-10.051-17.411c-5.571-3.216-10.103-0.638-10.118,5.764C289.725,156.568,294.228,164.363,299.797,167.579
			"/>
		<path clip-path="url(#SVGID_8_)" fill="#85D5E0" d="M299.864,144.404c5.567,3.215,10.067,11.008,10.051,17.409
			c-0.019,6.402-4.55,8.98-10.118,5.767c-5.568-3.217-10.07-11.01-10.054-17.411C289.761,143.766,294.292,141.188,299.864,144.404"
			/>
		<path clip-path="url(#SVGID_8_)" fill="#DD535F" d="M289.055,137.448l3.443-2c2.766-1.608,6.598-1.382,10.826,1.06
			c8.399,4.851,15.188,16.609,15.162,26.265l-3.443,2.001c0.025-9.656-6.763-21.415-15.163-26.265
			C295.652,136.068,291.82,135.841,289.055,137.448"/>
		<g opacity="0.15" clip-path="url(#SVGID_8_)">
			<g>
				<defs>
					<rect id="SVGID_65_" x="132.503" y="210.434" width="60.065" height="54.1"/>
				</defs>
				<clipPath id="SVGID_66_">
					<use xlink:href="#SVGID_65_"  overflow="visible"/>
				</clipPath>
				<path clip-path="url(#SVGID_66_)" fill="#211915" d="M138.075,247.013c-0.003,0.025-0.047,0.509,0.498,1.112
					c0.544,0.605,1.228,1.367,1.265,1.407s0.723,0.8,1.268,1.401c0.545,0.605,1.25,0.852,1.286,0.865
					c0.22-0.039,4.366-0.75,4.875-0.849c0.048-0.009,0.106-0.012,0.172-0.009c0.259,0.009,0.638,0.105,0.986,0.211
					c1.259,1.039,2.6,1.995,3.993,2.852c0.242,0.352,0.468,0.742,0.466,0.963c-0.009,0.453,0.037,4.163,0.039,4.358
					c0.022,0.029,0.438,0.585,1.224,0.932c0.787,0.347,1.771,0.781,1.823,0.806c0.052,0.021,1.039,0.454,1.822,0.8
					c0.383,0.168,0.711,0.221,0.947,0.229c0.252,0.012,0.393-0.027,0.4-0.028l2.61-4.056c1.283,0.325,2.56,0.571,3.801,0.692v-0.001
					c0.419,0.246,0.873,0.54,1.065,0.777c0.411,0.505,3.771,4.523,3.948,4.735c0.028,0.015,0.555,0.297,1.133,0.319
					c0.083,0.003,0.164,0.001,0.245-0.008c0.661-0.071,1.484-0.168,1.528-0.173c0.043-0.005,0.869-0.099,1.53-0.17
					c0.402-0.048,0.598-0.234,0.69-0.381l3.835-5.956c1.505,0.724,3.071,1.475,3.216,1.547c0.032,0,0.6,0.004,0.851-0.385
					l7.833-12.167c-0.033,0.051-0.081,0.078-0.123,0.115c0.06-0.054,0.123-0.105,0.161-0.187c0.221-0.457,0.501-1.038,0.517-1.068
					c0.014-0.03,0.294-0.607,0.516-1.068c0.225-0.46-0.139-1.024-0.157-1.054c-0.185-0.123-2.796-1.865-4.409-2.938l3.686-5.725
					c-0.011,0.016-0.019,0.025-0.02,0.028l-3.667,5.694l3.667-5.694c-0.015,0.002-0.047,0.003-0.092,0.005
					c0.045-0.002,0.077-0.003,0.092-0.005c0.014-0.021,0.298-0.378-0.018-1.008c-0.318-0.631-0.713-1.421-0.734-1.463
					c-0.02-0.042-0.419-0.833-0.735-1.467c-0.319-0.629-0.987-1.034-1.022-1.054c-0.261-0.04-5.217-0.765-5.829-0.845
					c-0.291-0.035-0.776-0.276-1.201-0.516c-0.913-1.195-1.947-2.336-3.072-3.409c-0.097-0.342-0.16-0.705-0.055-0.874l0.028-0.043
					c-0.011,0.017-0.021,0.032-0.028,0.042c0.23-0.346,1.958-3.203,2.048-3.354c-0.011-0.028-0.208-0.582-0.914-1.09
					c-0.709-0.506-1.599-1.139-1.646-1.175c-0.046-0.032-0.932-0.667-1.643-1.175c-0.705-0.505-1.364-0.562-1.399-0.564
					c-0.149,0.108-2.989,2.17-3.328,2.438c-0.167,0.124-0.591,0.146-0.997,0.129c-1.447-0.76-2.93-1.414-4.42-1.95
					c-0.351-0.316-0.716-0.682-0.816-0.927c-0.213-0.508-2.025-4.619-2.12-4.837c-0.031-0.026-0.62-0.52-1.386-0.665
					c-0.77-0.144-1.733-0.325-1.784-0.335c-0.051-0.01-1.014-0.188-1.78-0.334c-0.109-0.02-0.211-0.031-0.304-0.035
					c-0.562-0.021-0.812,0.211-0.826,0.225l-3.603,5.598c-0.346-0.126-0.687-0.27-0.887-0.426c-0.554-0.436-5.062-3.881-5.298-4.062
					c-0.012-0.003-0.221-0.062-0.497-0.072c-0.23-0.011-0.499,0.018-0.712,0.146c-0.468,0.285-1.054,0.644-1.084,0.663
					c-0.03,0.019-0.618,0.376-1.087,0.662c-0.114,0.068-0.19,0.152-0.244,0.239c0.003-0.005,0.004-0.01,0.007-0.015l-7.832,12.167
					c-0.179,0.278-0.099,0.606-0.092,0.631c0.042,0.042,0.255,0.262,0.557,0.573l-4.225,6.563c-0.076,0.119-0.128,0.275-0.11,0.486
					c0.051,0.583,0.112,1.312,0.114,1.348c0.004,0.038,0.069,0.768,0.119,1.35c0.049,0.58,0.598,1.096,0.627,1.122
					c0.271,0.109,5.438,2.184,6.084,2.433c0.306,0.116,0.725,0.444,1.085,0.759c0.17,0.463,0.39,0.938,0.616,1.411L138.075,247.013z
					 M144.176,213.465c-0.03,0.065-0.055,0.133-0.066,0.197C144.121,213.596,144.145,213.532,144.176,213.465 M144.101,213.937
					c0.006,0.04,0.013,0.077,0.014,0.084C144.114,214.014,144.107,213.979,144.101,213.937 M144.1,213.74
					c-0.004,0.054-0.005,0.104-0.002,0.146C144.095,213.844,144.096,213.797,144.1,213.74"/>
			</g>
		</g>
		<path clip-path="url(#SVGID_8_)" fill="#D95F28" d="M145.395,229.939l-12.554,7.195c0.016-0.009,0.03-0.019,0.042-0.024
			l12.555-7.195C145.426,229.924,145.412,229.931,145.395,229.939"/>
		<path clip-path="url(#SVGID_8_)" fill="#D95F28" d="M139.062,214.66l-12.554,7.195c0.016-0.011,0.028-0.015,0.031-0.016
			l12.555-7.196C139.09,214.646,139.079,214.65,139.062,214.66"/>
		<path clip-path="url(#SVGID_8_)" fill="#A92933" d="M159.873,247.092l-12.554,7.195c-0.161,0.093-0.293,0.209-0.338,0.355
			c-0.143,0.472-1.393,4.204-1.46,4.399l12.556-7.195c0.065-0.195,1.317-3.928,1.458-4.399
			C159.581,247.301,159.711,247.184,159.873,247.092"/>
		<path clip-path="url(#SVGID_8_)" fill="#D63D51" d="M143.897,216.797c-0.509-0.237-4.588-2.057-4.804-2.153l-12.554,7.196
			c0.214,0.096,4.294,1.916,4.803,2.153c0.242,0.114,0.563,0.057,0.84-0.035l12.556-7.195
			C144.461,216.854,144.14,216.913,143.897,216.797"/>
		<path clip-path="url(#SVGID_8_)" fill="#A92933" d="M161.124,241.79c-0.565-0.217-1.127-0.484-1.682-0.801
			c-4.947-2.815-9.298-9.354-10.109-15.539c-0.545-4.148,0.626-7.192,2.875-8.479l-12.554,7.194
			c-2.248,1.288-3.42,4.331-2.876,8.479c0.813,6.184,5.164,12.723,10.11,15.539c0.555,0.315,1.117,0.585,1.682,0.802
			c2.224,0.852,4.167,0.762,5.643-0.085l12.556-7.195C165.29,242.554,163.348,242.641,161.124,241.79"/>
		<path clip-path="url(#SVGID_8_)" fill="#DD535F" d="M145.654,204.214c-0.028-0.013-0.531-0.281-0.933-0.052l-12.555,7.196
			c0.403-0.23,0.906,0.035,0.934,0.052c0.178,0.238,3.58,4.765,3.997,5.334l12.555-7.195
			C149.234,208.981,145.833,204.452,145.654,204.214"/>
		<path clip-path="url(#SVGID_8_)" fill="#A92933" d="M169.762,247.91l0.489-0.28c0.674-0.387,1.283-0.88,1.816-1.472l-12.554,7.195
			c-0.475,0.528-1.019,0.961-1.605,1.326l-0.698,0.4c-0.064,0.354-0.097,0.774-0.001,1.084c0.203,0.646,1.759,5.835,1.842,6.109
			c-0.005,0.021-0.085,0.352-0.373,0.516l12.556-7.194c0.287-0.164,0.365-0.494,0.37-0.517c-0.081-0.273-1.637-5.464-1.841-6.11
			C169.67,248.666,169.7,248.259,169.762,247.91"/>
		<path clip-path="url(#SVGID_8_)" fill="#D63D51" d="M150.583,210.301c-0.35-0.213-0.734-0.48-0.933-0.752l-12.554,7.195
			c0.198,0.272,0.583,0.54,0.932,0.751c0.949-0.24,1.98-0.317,3.084-0.209l12.556-7.194
			C152.563,209.982,151.532,210.06,150.583,210.301"/>
		<path clip-path="url(#SVGID_8_)" fill="#DD535F" d="M179.466,246.264c-0.192-0.223-3.824-4.443-4.28-4.963
			c-0.22-0.241-0.44-0.727-0.615-1.171l-12.555,7.195c0.175,0.444,0.396,0.928,0.615,1.172c0.457,0.519,4.089,4.739,4.281,4.961
			c0.012,0.037,0.262,0.747,0.039,1.284c-0.223,0.541-0.501,1.216-0.517,1.251c-0.014,0.037-0.295,0.711-0.519,1.253
			c-0.08,0.191-0.201,0.309-0.32,0.379l12.554-7.196c0.121-0.07,0.239-0.185,0.32-0.379c0.224-0.54,0.505-1.214,0.519-1.252
			c0.015-0.034,0.293-0.709,0.517-1.25C179.728,247.01,179.479,246.301,179.466,246.264"/>
		<path clip-path="url(#SVGID_8_)" fill="#D63D51" d="M175.025,235.768l-12.554,7.196c-0.146,0.084-0.285,0.23-0.406,0.384
			c0.124,1.429,0.103,2.759-0.048,3.978l12.554-7.195c0.152-1.22,0.173-2.55,0.048-3.978
			C174.74,236.001,174.881,235.853,175.025,235.768"/>
		<path clip-path="url(#SVGID_8_)" fill="#DD535F" d="M160.009,211.562c-0.132-0.638-1.263-5.752-1.323-6.021
			c-0.019-0.025-0.355-0.519-0.859-0.807c-0.071-0.04-0.145-0.077-0.221-0.104c-0.62-0.24-1.396-0.535-1.437-0.55
			c-0.041-0.016-0.816-0.313-1.436-0.553c-0.378-0.145-0.639-0.067-0.789,0.017l-12.554,7.196c0.148-0.085,0.411-0.162,0.787-0.019
			c0.62,0.24,1.396,0.536,1.437,0.554c0.041,0.015,0.816,0.31,1.437,0.55c0.076,0.028,0.149,0.063,0.221,0.104
			c0.503,0.288,0.841,0.781,0.858,0.807c0.06,0.269,1.192,5.384,1.324,6.021c0.063,0.299,0.329,0.77,0.59,1.181l12.555-7.195
			C160.337,212.332,160.07,211.86,160.009,211.562"/>
		<path clip-path="url(#SVGID_8_)" fill="#D63D51" d="M164.068,215.462L164.068,215.462c-1.113-1.03-2.279-1.947-3.47-2.72
			l-12.554,7.195c1.191,0.771,2.356,1.69,3.469,2.718c0.291,0.046,0.6,0.06,0.769-0.036l12.554-7.195
			C164.668,215.521,164.358,215.506,164.068,215.462"/>
		<path clip-path="url(#SVGID_8_)" fill="#DD535F" d="M179.676,234.548c-0.206-0.786-0.463-1.776-0.477-1.828
			c-0.014-0.054-0.272-1.044-0.479-1.829c-0.206-0.787-0.719-1.331-0.745-1.359c-0.212-0.066-4.218-1.345-4.717-1.492
			c-0.047-0.015-0.101-0.039-0.157-0.069c-0.227-0.131-0.518-0.387-0.777-0.645c-0.64-1.499-1.391-2.967-2.232-4.368l-12.554,7.194
			c0.841,1.401,1.592,2.869,2.232,4.369l6.276-3.597l-6.276,3.597c0.26,0.256,0.552,0.514,0.776,0.643
			c0.057,0.032,0.111,0.056,0.159,0.072c0.498,0.146,4.506,1.423,4.718,1.49l6.276-3.598l-6.276,3.598
			c0.026,0.029,0.538,0.572,0.745,1.36c0.205,0.786,0.463,1.777,0.479,1.829c0.013,0.052,0.271,1.042,0.476,1.828
			c0.205,0.789-0.058,1.196-0.073,1.219l12.556-7.196C179.618,235.744,179.882,235.335,179.676,234.548"/>
		<path clip-path="url(#SVGID_8_)" fill="#D63D51" d="M172.095,218.001l-12.555,7.194c-0.089,0.175-1.756,3.489-1.974,3.89
			c-0.103,0.193-0.082,0.644-0.028,1.066l12.554-7.194c-0.053-0.424-0.074-0.875,0.029-1.066
			C170.338,221.491,172.007,218.176,172.095,218.001"/>
		<path clip-path="url(#SVGID_8_)" fill="#DD535F" d="M171.438,216.609c-0.539-0.668-1.213-1.508-1.249-1.555
			c-0.035-0.042-0.712-0.881-1.249-1.548c-0.262-0.324-0.528-0.524-0.735-0.64c-0.219-0.125-0.36-0.158-0.368-0.159l-12.555,7.195
			c0.007,0.001,0.149,0.032,0.367,0.159c0.207,0.116,0.474,0.313,0.735,0.64c0.537,0.667,1.213,1.505,1.249,1.55
			c0.036,0.044,0.709,0.886,1.248,1.554c0.538,0.67,0.652,1.354,0.657,1.39L172.095,218
			C172.087,217.965,171.974,217.28,171.438,216.609"/>
		<path clip-path="url(#SVGID_8_)" fill="#CC3D48" d="M126.088,222.74c0.012-0.703,0.429-0.892,0.451-0.9
			c0.214,0.096,4.294,1.915,4.804,2.153c0.242,0.116,0.564,0.058,0.84-0.035c0.291-1.142,0.715-2.158,1.256-3.035
			c-0.059-0.423-0.16-0.906-0.327-1.199c-0.352-0.62-3.114-5.628-3.259-5.892c-0.002-0.035-0.066-0.701,0.345-1.008
			c0.408-0.306,0.923-0.69,0.951-0.711c0.026-0.02,0.542-0.404,0.95-0.711c0.412-0.305,0.97-0.01,0.999,0.008
			c0.18,0.238,3.58,4.765,3.998,5.334c0.198,0.272,0.583,0.54,0.932,0.75c0.949-0.239,1.981-0.316,3.084-0.208
			c0.178-0.245,0.342-0.551,0.326-0.834c-0.031-0.596-0.192-5.343-0.201-5.592c0.016-0.02,0.323-0.374,0.94-0.139
			c0.62,0.24,1.396,0.538,1.437,0.554c0.04,0.014,0.815,0.311,1.436,0.55c0.077,0.029,0.15,0.063,0.22,0.104
			c0.505,0.286,0.843,0.781,0.859,0.807c0.061,0.269,1.192,5.385,1.324,6.021c0.062,0.3,0.329,0.77,0.589,1.18
			c1.191,0.771,2.356,1.689,3.47,2.719c0.327,0.05,0.677,0.062,0.822-0.078c0.303-0.292,2.815-2.556,2.947-2.675
			c0.008,0.001,0.15,0.032,0.368,0.159c0.206,0.116,0.474,0.313,0.734,0.638c0.537,0.669,1.213,1.507,1.249,1.551
			c0.035,0.045,0.709,0.887,1.248,1.555c0.537,0.67,0.651,1.354,0.657,1.39c-0.087,0.174-1.756,3.489-1.973,3.889
			c-0.104,0.194-0.083,0.645-0.029,1.067c0.842,1.401,1.592,2.87,2.231,4.369c0.261,0.256,0.552,0.514,0.777,0.643
			c0.06,0.032,0.111,0.057,0.159,0.07c0.497,0.148,4.506,1.425,4.718,1.491c0.026,0.03,0.539,0.573,0.745,1.361
			c0.207,0.786,0.466,1.777,0.479,1.829s0.27,1.042,0.476,1.828c0.205,0.789-0.058,1.195-0.072,1.219
			c-0.194-0.003-3.882-0.043-4.347-0.063c-0.222-0.012-0.453,0.216-0.638,0.449c0.124,1.43,0.103,2.76-0.049,3.978
			c0.175,0.445,0.396,0.928,0.615,1.172c0.457,0.519,4.089,4.739,4.281,4.961c0.014,0.037,0.262,0.747,0.039,1.283
			c-0.223,0.542-0.502,1.218-0.517,1.252c-0.015,0.037-0.295,0.711-0.519,1.251c-0.224,0.537-0.744,0.478-0.771,0.476
			c-0.209-0.179-4.191-3.554-4.684-3.987c-0.053-0.047-0.113-0.088-0.178-0.125c-0.225-0.128-0.511-0.207-0.769-0.254
			c-0.66,0.73-1.434,1.311-2.304,1.727c-0.063,0.354-0.096,0.774,0,1.084c0.203,0.644,1.761,5.835,1.843,6.108
			c-0.007,0.029-0.139,0.574-0.686,0.608c-0.547,0.036-1.234,0.083-1.27,0.086c-0.036,0.003-0.721,0.052-1.268,0.087
			c-0.248,0.019-0.499-0.081-0.699-0.194c-0.241-0.138-0.398-0.287-0.409-0.297c-0.126-0.269-2.541-5.403-2.832-6.043
			c-0.14-0.303-0.485-0.697-0.812-1.03c-0.562-0.136-1.136-0.318-1.724-0.543c-0.59-0.226-1.175-0.488-1.758-0.787
			c-0.269,0.103-0.545,0.257-0.615,0.483c-0.144,0.473-1.393,4.203-1.46,4.399c-0.017,0.006-0.346,0.098-0.836-0.18
			c-0.08-0.048-0.165-0.104-0.252-0.172c-0.613-0.483-1.385-1.084-1.426-1.116c-0.04-0.031-0.813-0.637-1.429-1.12
			c-0.613-0.48-0.91-1.188-0.924-1.227c0.015-0.236,0.301-4.722,0.344-5.271c0.024-0.264-0.132-0.756-0.298-1.199
			c-1.076-1.162-2.091-2.422-3.025-3.765c-0.353-0.2-0.738-0.379-0.945-0.345c-0.424,0.082-3.894,0.604-4.076,0.633
			c-0.029-0.02-0.589-0.375-0.981-1.147c-0.397-0.776-0.892-1.75-0.918-1.8c-0.027-0.051-0.524-1.024-0.921-1.799
			c-0.394-0.776-0.314-1.359-0.308-1.391c0.149-0.092,2.997-1.832,3.36-2.033c0.171-0.1,0.284-0.454,0.355-0.8
			c-0.505-1.474-0.896-2.961-1.157-4.442c-0.267-0.406-0.588-0.845-0.829-1.011c-0.507-0.352-4.573-3.278-4.788-3.432
			c-0.021-0.034-0.426-0.701-0.419-1.408c0.009-0.707,0.021-1.592,0.021-1.639C126.067,224.333,126.081,223.447,126.088,222.74
			 M136.777,232.645c0.811,6.186,5.162,12.723,10.11,15.539c0.555,0.315,1.117,0.585,1.682,0.801
			c5.608,2.147,9.424-1.685,8.521-8.563c-0.812-6.183-5.166-12.725-10.111-15.54c-0.555-0.316-1.115-0.585-1.681-0.801
			C139.688,221.936,135.874,225.771,136.777,232.645"/>
		<g opacity="0.15" clip-path="url(#SVGID_8_)">
			<g>
				<defs>
					<rect id="SVGID_67_" x="242.314" y="271.868" width="75.554" height="54.647"/>
				</defs>
				<clipPath id="SVGID_68_">
					<use xlink:href="#SVGID_67_"  overflow="visible"/>
				</clipPath>
				<polygon clip-path="url(#SVGID_68_)" fill="#211915" points="259.136,326.516 266.618,315.723 317.868,288.247 287.752,271.868 
					242.314,299.342 				"/>
			</g>
		</g>
		<path clip-path="url(#SVGID_8_)" fill="#EDC64A" d="M259.127,323.298l0.009,3.218c0.038-0.3,0.76-6.015,1.283-10.409l-0.009-3.218
			C259.887,317.284,259.166,322.998,259.127,323.298"/>
		<path clip-path="url(#SVGID_8_)" fill="#DD9739" d="M303.95,286.599l0.01,3.22c0.001,0.707-0.465,1.417-1.394,1.954
			l-42.148,24.334l-0.01-3.218l42.15-24.334C303.486,288.017,303.952,287.308,303.95,286.599"/>
		<path clip-path="url(#SVGID_8_)" fill="#DD9739" d="M229.726,303.292l20.236,11.76c0.356,0.206,0.76,0.372,1.183,0.497l0.01,3.218
			c-0.423-0.125-0.828-0.289-1.183-0.497l-20.236-11.759c-0.911-0.529-1.368-1.227-1.371-1.927l-0.009-3.22
			C228.358,302.065,228.815,302.763,229.726,303.292"/>
		<polygon clip-path="url(#SVGID_8_)" fill="#DD9739" points="259.127,323.298 259.136,326.516 251.155,318.768 251.146,315.551 		
			"/>
		<path clip-path="url(#SVGID_8_)" fill="#EDC64A" d="M229.75,299.411c-1.851,1.067-1.86,2.814-0.024,3.883l20.235,11.759
			c0.356,0.205,0.758,0.371,1.184,0.498l7.981,7.747c0.038-0.3,0.761-6.014,1.283-10.409l42.147-24.335
			c1.85-1.066,1.859-2.813,0.022-3.88l-20.234-11.76c-1.837-1.067-4.851-1.067-6.7,0L229.75,299.411z"/>
		<path clip-path="url(#SVGID_8_)" fill="#EDC64A" d="M259.127,323.298l0.009,3.218c0.038-0.3,0.76-6.015,1.283-10.409l-0.009-3.218
			C259.887,317.284,259.166,322.998,259.127,323.298"/>
		<path clip-path="url(#SVGID_8_)" fill="#DD9739" d="M303.95,286.599l0.01,3.22c0.001,0.707-0.465,1.417-1.394,1.954
			l-42.148,24.334l-0.01-3.218l42.15-24.334C303.486,288.017,303.952,287.308,303.95,286.599"/>
		<path clip-path="url(#SVGID_8_)" fill="#DD9739" d="M229.726,303.292l20.236,11.76c0.356,0.206,0.76,0.372,1.183,0.497l0.01,3.218
			c-0.423-0.125-0.828-0.289-1.183-0.497l-20.236-11.759c-0.911-0.529-1.368-1.227-1.371-1.927l-0.009-3.22
			C228.358,302.065,228.815,302.763,229.726,303.292"/>
		<polygon clip-path="url(#SVGID_8_)" fill="#DD9739" points="259.127,323.298 259.136,326.516 251.155,318.768 251.146,315.551 		
			"/>
		<path clip-path="url(#SVGID_8_)" fill="#EDC64A" d="M229.75,299.411c-1.851,1.067-1.86,2.814-0.024,3.883l20.235,11.759
			c0.356,0.205,0.758,0.371,1.184,0.498l7.981,7.747c0.038-0.3,0.761-6.014,1.283-10.409l42.147-24.335
			c1.85-1.066,1.859-2.813,0.022-3.88l-20.234-11.76c-1.837-1.067-4.851-1.067-6.7,0L229.75,299.411z"/>
		<path clip-path="url(#SVGID_8_)" fill="#E2E2E2" d="M271.875,286.881l0.004,1.191c0.002,0.528,0.348,1.056,1.041,1.458
			c1.395,0.812,3.664,0.812,5.069-0.001c0.705-0.407,1.059-0.943,1.057-1.478l-0.003-1.192c0.001,0.535-0.351,1.069-1.057,1.478
			c-1.406,0.812-3.674,0.812-5.068,0C272.224,287.935,271.877,287.408,271.875,286.881"/>
		<path clip-path="url(#SVGID_8_)" fill="#FBFBFB" d="M272.933,285.401c-1.405,0.811-1.411,2.125-0.018,2.936
			c1.395,0.812,3.665,0.812,5.067,0c1.405-0.811,1.414-2.125,0.018-2.936C276.605,284.593,274.337,284.593,272.933,285.401"/>
		<path clip-path="url(#SVGID_8_)" fill="#E2E2E2" d="M263.979,291.902l0.004,1.191c0.001,0.528,0.346,1.056,1.039,1.459
			c1.395,0.81,3.665,0.81,5.068-0.001c0.707-0.408,1.06-0.942,1.058-1.478l-0.002-1.193c0.001,0.535-0.351,1.072-1.058,1.478
			c-1.404,0.811-3.673,0.811-5.067,0C264.327,292.957,263.98,292.431,263.979,291.902"/>
		<path clip-path="url(#SVGID_8_)" fill="#FBFBFB" d="M265.037,290.425c-1.403,0.811-1.412,2.123-0.017,2.934
			c1.395,0.813,3.664,0.813,5.067,0c1.403-0.811,1.411-2.123,0.017-2.934C268.709,289.614,266.44,289.614,265.037,290.425"/>
		<path clip-path="url(#SVGID_8_)" fill="#E2E2E2" d="M256.082,296.391l0.003,1.192c0.002,0.528,0.348,1.056,1.042,1.458
			c1.394,0.812,3.664,0.812,5.067-0.001c0.706-0.407,1.059-0.944,1.058-1.478l-0.003-1.192c0.001,0.533-0.353,1.069-1.058,1.477
			c-1.405,0.812-3.673,0.812-5.068,0C256.431,297.445,256.083,296.919,256.082,296.391"/>
		<path clip-path="url(#SVGID_8_)" fill="#FBFBFB" d="M257.14,294.911c-1.404,0.812-1.412,2.126-0.017,2.936
			c1.396,0.812,3.664,0.812,5.068,0c1.403-0.81,1.412-2.124,0.017-2.936C260.812,294.103,258.544,294.103,257.14,294.911"/>
		<g opacity="0.15" clip-path="url(#SVGID_8_)">
			<g>
				<defs>
					<rect id="SVGID_69_" x="206.895" y="251.527" width="56.005" height="40.154"/>
				</defs>
				<clipPath id="SVGID_70_">
					<use xlink:href="#SVGID_69_"  overflow="visible"/>
				</clipPath>
				<path clip-path="url(#SVGID_70_)" fill="#211915" d="M217.218,291.682c0,0,17.435-5.021,32.493-16.114
					c15.059-11.096,14.001-17.966,12.152-19.021c-1.849-1.058-12.68-5.02-12.68-5.02s-23.807,9.131-28.531,13.737
					c-4.723,4.605-14.265,16.114-13.737,19.019C207.443,287.189,217.218,291.682,217.218,291.682"/>
			</g>
		</g>
	</g>
	<polygon clip-path="url(#SVGID_2_)" fill="#4984BC" points="239.146,269.627 230.989,266.256 235.722,264.242 243.878,267.613 	"/>
	<g clip-path="url(#SVGID_2_)">
		<defs>
			<path id="SVGID_71_" d="M224.642,274.804c-2.596,2.406-5.661,4.362-9.197,5.866c-3.671,1.562-6.9,2.158-9.695,1.79
				c-0.75-0.1-1.452-0.282-2.103-0.553l8.156,3.37c0.652,0.271,1.354,0.455,2.104,0.555c2.795,0.368,6.024-0.229,9.694-1.79
				c3.537-1.506,6.603-3.461,9.198-5.867c2.586-2.401,4.701-5.256,6.346-8.547l-8.156-3.371
				C229.344,269.549,227.228,272.402,224.642,274.804"/>
		</defs>
		<clipPath id="SVGID_72_">
			<use xlink:href="#SVGID_71_"  overflow="visible"/>
		</clipPath>
		<path clip-path="url(#SVGID_72_)" fill="#30567B" d="M230.989,266.257c-0.089,0.179-0.18,0.355-0.272,0.53
			c-0.287,0.55-0.589,1.088-0.903,1.612c-0.37,0.616-0.759,1.215-1.166,1.799c-0.589,0.84-1.218,1.645-1.884,2.411
			c-0.667,0.769-1.375,1.5-2.123,2.195c-1.632,1.514-3.453,2.849-5.459,4.008c-1.181,0.681-2.426,1.301-3.737,1.857
			c-0.431,0.185-0.857,0.354-1.276,0.512c-1.089,0.406-2.138,0.725-3.146,0.952c-0.777,0.175-1.53,0.299-2.258,0.367
			c-0.621,0.057-1.223,0.077-1.811,0.057c-0.411-0.012-0.813-0.046-1.206-0.098c-0.092-0.012-0.183-0.025-0.273-0.04
			c-0.374-0.061-0.734-0.142-1.082-0.246c-0.257-0.078-0.506-0.166-0.749-0.267l8.157,3.371c0.241,0.101,0.491,0.189,0.748,0.266
			c0.348,0.104,0.709,0.187,1.082,0.247c0.09,0.015,0.182,0.028,0.273,0.041c0.394,0.052,0.796,0.084,1.207,0.098
			c0.585,0.018,1.189,0,1.811-0.059c0.729-0.07,1.481-0.19,2.258-0.365c1.007-0.229,2.056-0.546,3.145-0.953
			c0.419-0.156,0.844-0.327,1.274-0.511c1.312-0.558,2.557-1.179,3.739-1.859c2.007-1.156,3.825-2.493,5.459-4.008
			c0.748-0.693,1.454-1.425,2.124-2.194c0.666-0.769,1.293-1.571,1.884-2.412c0.407-0.583,0.795-1.182,1.165-1.798
			c0.314-0.525,0.616-1.063,0.903-1.612c0.092-0.177,0.183-0.353,0.272-0.53L230.989,266.257z"/>
	</g>
	<g clip-path="url(#SVGID_2_)">
		<defs>
			<path id="SVGID_73_" d="M225.344,275.295l-0.04-0.016C225.317,275.283,225.332,275.289,225.344,275.295 M217.088,271.879
				c0.032,0.016,0.066,0.031,0.101,0.045l8.116,3.355c-0.021-0.009-0.041-0.021-0.06-0.03c-0.607-0.317-0.995-0.982-1.159-2.009
				l-8.157-3.371C216.093,270.898,216.48,271.563,217.088,271.879"/>
		</defs>
		<clipPath id="SVGID_74_">
			<use xlink:href="#SVGID_73_"  overflow="visible"/>
		</clipPath>
		<path clip-path="url(#SVGID_74_)" fill="#30567B" d="M225.344,275.297l-8.157-3.373c-0.035-0.013-0.067-0.03-0.1-0.045
			c-0.609-0.317-0.995-0.983-1.16-2.009l8.157,3.37c0.165,1.027,0.552,1.692,1.16,2.009
			C225.277,275.265,225.31,275.28,225.344,275.297"/>
	</g>
	<g clip-path="url(#SVGID_2_)">
		<defs>
			<rect id="SVGID_75_" x="-29" y="-4.761" width="612" height="372.523"/>
		</defs>
		<clipPath id="SVGID_76_">
			<use xlink:href="#SVGID_75_"  overflow="visible"/>
		</clipPath>
		<path clip-path="url(#SVGID_76_)" fill="#30567B" d="M239.425,247.436c-0.003-0.267-0.004-0.533-0.016-0.788
			c-0.015-0.3-0.041-0.586-0.068-0.874c-0.02-0.241-0.04-0.488-0.069-0.723c-0.037-0.279-0.087-0.548-0.137-0.816
			c-0.04-0.221-0.075-0.445-0.123-0.657c-0.06-0.262-0.135-0.51-0.207-0.759c-0.057-0.199-0.107-0.402-0.173-0.591
			c-0.085-0.247-0.186-0.479-0.285-0.713c-0.073-0.171-0.137-0.351-0.217-0.516c-0.113-0.235-0.246-0.451-0.375-0.671
			c-0.083-0.144-0.16-0.299-0.25-0.436c-0.153-0.231-0.327-0.443-0.497-0.658c-0.084-0.105-0.16-0.224-0.25-0.326
			c-0.268-0.305-0.558-0.591-0.867-0.858c-0.555-0.476-1.164-0.852-1.826-1.126l-8.157-3.369c0.663,0.272,1.271,0.646,1.825,1.123
			c0.31,0.268,0.598,0.554,0.868,0.86c0.09,0.103,0.166,0.221,0.251,0.328c0.17,0.214,0.342,0.424,0.495,0.655
			c0.09,0.14,0.167,0.291,0.251,0.438c0.128,0.219,0.26,0.436,0.373,0.669c0.08,0.165,0.146,0.344,0.217,0.517
			c0.098,0.234,0.199,0.464,0.284,0.711c0.066,0.191,0.117,0.394,0.175,0.593c0.071,0.249,0.146,0.496,0.206,0.76
			c0.048,0.211,0.083,0.437,0.123,0.655c0.048,0.27,0.099,0.536,0.137,0.818c0.03,0.232,0.047,0.479,0.07,0.722
			c0.026,0.287,0.054,0.575,0.067,0.874c0.012,0.256,0.013,0.522,0.016,0.785c0.006,0.391,0.015,0.779,0,1.19
			c-0.021,0.631-0.073,1.271-0.145,1.914c-0.023,0.216-0.061,0.434-0.09,0.65c-0.061,0.446-0.126,0.893-0.21,1.345
			c-0.038,0.203-0.082,0.409-0.125,0.611c-0.1,0.477-0.212,0.955-0.339,1.438c-0.045,0.172-0.086,0.344-0.134,0.516
			c-0.186,0.665-0.39,1.336-0.625,2.01c-0.227,0.657-0.472,1.285-0.726,1.903c-0.072,0.174-0.148,0.344-0.221,0.516
			c-0.207,0.477-0.422,0.94-0.645,1.393c-0.067,0.136-0.132,0.277-0.201,0.41c-0.291,0.567-0.593,1.114-0.912,1.64
			c-0.089,0.149-0.186,0.287-0.278,0.432c-0.288,0.453-0.578,0.905-0.886,1.327c-0.26,0.366-0.504,0.687-0.742,0.985
			c-0.068,0.088-0.134,0.165-0.201,0.245c-0.145,0.176-0.282,0.328-0.417,0.478c-0.138,0.152-0.272,0.29-0.401,0.415
			c-0.105,0.103-0.209,0.197-0.309,0.282c-0.123,0.103-0.238,0.188-0.351,0.264c-0.133,0.089-0.271,0.188-0.392,0.24
			c-0.149,0.062-0.283,0.067-0.406,0.017l8.157,3.372c0.015,0.004,0.028,0.01,0.043,0.013c0.019,0.008,0.037,0.012,0.057,0.015
			c0.019,0.002,0.037,0.005,0.058,0.005c0.02,0.001,0.04,0,0.061-0.002c0.022-0.002,0.047-0.006,0.069-0.012
			c0.029-0.006,0.058-0.015,0.086-0.025c0.011-0.003,0.021-0.007,0.032-0.013c0.072-0.03,0.145-0.066,0.221-0.11
			c0.053-0.031,0.116-0.091,0.17-0.128c0.113-0.075,0.228-0.161,0.351-0.265c0.1-0.084,0.202-0.179,0.309-0.282
			c0.129-0.125,0.262-0.263,0.4-0.414c0.062-0.066,0.113-0.11,0.176-0.181c0.077-0.088,0.161-0.198,0.241-0.295
			c0.068-0.081,0.134-0.162,0.203-0.247c0.238-0.301,0.483-0.62,0.742-0.985c0.091-0.125,0.181-0.251,0.27-0.379
			c0.214-0.304,0.413-0.629,0.617-0.948c0.092-0.146,0.188-0.281,0.278-0.432c0.016-0.027,0.036-0.053,0.052-0.079
			c0.265-0.442,0.521-0.9,0.767-1.37c0.032-0.061,0.062-0.128,0.093-0.189c0.068-0.136,0.133-0.273,0.2-0.411
			c0.129-0.259,0.262-0.515,0.385-0.784c0.09-0.197,0.173-0.406,0.26-0.609c0.073-0.17,0.148-0.34,0.22-0.514
			c0.049-0.117,0.1-0.228,0.148-0.346c0.202-0.509,0.394-1.026,0.579-1.559c0.018-0.05,0.035-0.1,0.052-0.15
			c0.184-0.537,0.354-1.069,0.506-1.599c0.025-0.09,0.044-0.174,0.068-0.262c0.048-0.171,0.089-0.342,0.134-0.513
			c0.07-0.268,0.148-0.538,0.209-0.802c0.051-0.215,0.085-0.426,0.13-0.639c0.042-0.205,0.086-0.407,0.123-0.612
			c0.024-0.125,0.057-0.253,0.078-0.378c0.056-0.325,0.09-0.645,0.134-0.967c0.03-0.215,0.067-0.434,0.091-0.649
			c0.006-0.059,0.019-0.116,0.024-0.175c0.06-0.585,0.101-1.164,0.12-1.741c0.007-0.182,0.011-0.358,0.014-0.536
			C239.441,247.862,239.427,247.652,239.425,247.436"/>
		<polygon clip-path="url(#SVGID_76_)" fill="#396793" points="228.881,243.483 220.725,240.113 226.589,237.619 234.746,240.987 		
			"/>
		<polygon clip-path="url(#SVGID_76_)" fill="#3A6996" points="228.218,247.021 220.061,243.649 220.725,240.113 228.882,243.483 		
			"/>
		<path clip-path="url(#SVGID_76_)" fill="#30567B" d="M226.717,255.448c0.004-0.238-0.014-0.439-0.021-0.662
			c-0.007-0.209-0.006-0.431-0.02-0.625c-0.021-0.271-0.062-0.511-0.101-0.757c-0.025-0.162-0.041-0.34-0.073-0.49
			c-0.056-0.249-0.133-0.462-0.209-0.675c-0.038-0.106-0.065-0.233-0.109-0.33c-0.129-0.294-0.282-0.552-0.459-0.764
			c-0.27-0.311-0.567-0.536-0.893-0.67l-8.157-3.369c0.326,0.134,0.623,0.356,0.893,0.67c0.179,0.212,0.33,0.468,0.46,0.762
			c0.043,0.098,0.069,0.223,0.108,0.329c0.076,0.214,0.152,0.426,0.208,0.677c0.033,0.149,0.049,0.327,0.075,0.489
			c0.037,0.246,0.079,0.485,0.099,0.758c0.014,0.195,0.014,0.415,0.02,0.625c0.01,0.334,0.025,0.66,0.012,1.034
			c-0.018,0.525-0.058,1.072-0.114,1.637c-0.014,0.131-0.038,0.271-0.053,0.405c-0.057,0.487-0.125,0.986-0.21,1.5
			c-0.036,0.225-0.082,0.456-0.125,0.687c-0.083,0.445-0.176,0.9-0.279,1.365c-0.092,0.414-0.182,0.828-0.29,1.259
			c-0.145,0.568-0.294,1.102-0.447,1.62c-0.083,0.28-0.168,0.54-0.252,0.804c-0.094,0.294-0.188,0.592-0.285,0.867
			c-0.056,0.16-0.115,0.311-0.172,0.463c-0.123,0.329-0.246,0.646-0.373,0.948c-0.048,0.112-0.094,0.224-0.142,0.331
			c-0.176,0.399-0.355,0.78-0.539,1.128c-0.26,0.485-0.515,0.908-0.771,1.303c-0.049,0.077-0.099,0.156-0.149,0.229
			c-0.268,0.397-0.536,0.754-0.806,1.054c-0.262,0.298-0.531,0.554-0.804,0.792c-0.062,0.057-0.126,0.112-0.19,0.164
			c-0.271,0.223-0.545,0.423-0.827,0.587c-0.192,0.112-0.387,0.214-0.584,0.299c-0.137,0.059-0.268,0.096-0.399,0.136
			c-0.048,0.012-0.098,0.031-0.145,0.044c-0.145,0.034-0.286,0.058-0.421,0.066c-0.025,0.003-0.05,0.001-0.074,0.003
			c-0.139,0.006-0.273,0.001-0.403-0.019c-0.001,0-0.003,0-0.004-0.001c-0.146-0.023-0.286-0.063-0.421-0.118l8.157,3.37
			c0.058,0.023,0.119,0.045,0.179,0.064c0.079,0.022,0.158,0.041,0.239,0.055c0.002,0,0.002,0,0.003,0h0.002
			c0.082,0.014,0.165,0.021,0.25,0.023c0.05,0.003,0.103-0.003,0.155-0.004c0.024-0.001,0.048-0.001,0.072-0.003
			c0.019-0.001,0.035,0,0.053-0.001c0.108-0.011,0.215-0.028,0.329-0.053c0.013-0.005,0.028-0.01,0.042-0.013
			c0.047-0.013,0.098-0.03,0.146-0.046c0.079-0.022,0.156-0.04,0.235-0.07c0.055-0.021,0.109-0.042,0.164-0.065
			c0.189-0.08,0.375-0.174,0.56-0.282c0.007-0.004,0.016-0.012,0.024-0.015c0.28-0.165,0.554-0.365,0.826-0.588
			c0.063-0.053,0.126-0.106,0.19-0.162c0.271-0.239,0.542-0.496,0.804-0.794c0.026-0.026,0.052-0.058,0.078-0.087
			c0.209-0.242,0.419-0.512,0.628-0.81c0.033-0.048,0.066-0.107,0.1-0.157c0.049-0.071,0.1-0.154,0.148-0.228
			c0.097-0.15,0.194-0.288,0.291-0.451c0.159-0.266,0.321-0.551,0.48-0.852c0.016-0.029,0.032-0.061,0.047-0.092
			c0.134-0.253,0.264-0.519,0.392-0.799c0.034-0.076,0.067-0.16,0.101-0.238c0.047-0.109,0.094-0.22,0.141-0.33
			c0.057-0.133,0.114-0.258,0.169-0.396c0.07-0.175,0.135-0.369,0.205-0.553c0.058-0.154,0.115-0.303,0.172-0.464
			c0.025-0.073,0.052-0.137,0.077-0.21c0.071-0.208,0.138-0.44,0.207-0.659c0.083-0.265,0.17-0.521,0.251-0.8
			c0.02-0.069,0.042-0.125,0.062-0.194c0.131-0.456,0.261-0.933,0.386-1.428c0.074-0.292,0.144-0.576,0.21-0.86
			c0.032-0.139,0.051-0.262,0.081-0.398c0.104-0.467,0.196-0.92,0.278-1.365c0.029-0.149,0.068-0.308,0.093-0.454
			c0.015-0.082,0.021-0.153,0.034-0.232c0.084-0.517,0.152-1.014,0.209-1.499c0.013-0.111,0.035-0.232,0.047-0.339
			c0.003-0.023,0.003-0.045,0.006-0.069c0.057-0.562,0.096-1.108,0.114-1.634C226.711,255.694,226.715,255.569,226.717,255.448"/>
	</g>
	<g clip-path="url(#SVGID_2_)">
		<defs>
			<path id="SVGID_77_" d="M214.365,242.092c-3.7,1.574-6.813,5.196-9.341,10.895c-2.091,4.682-3.213,9.358-3.373,14.022
				c-0.129,3.768,0.58,6.444,2.125,8.019c0.486,0.5,1.017,0.868,1.592,1.105l8.157,3.372c-0.575-0.237-1.106-0.607-1.592-1.106
				c-1.544-1.574-2.254-4.251-2.124-8.02c0.16-4.663,1.28-9.34,3.372-14.023c2.528-5.695,5.641-9.318,9.341-10.892
				c1.493-0.637,2.755-0.745,3.779-0.321l-8.157-3.372c-0.409-0.169-0.854-0.251-1.337-0.251
				C216.077,241.52,215.263,241.71,214.365,242.092"/>
		</defs>
		<clipPath id="SVGID_78_">
			<use xlink:href="#SVGID_77_"  overflow="visible"/>
		</clipPath>
		<path clip-path="url(#SVGID_78_)" fill="#396793" d="M218.143,241.771c-0.1-0.041-0.201-0.077-0.305-0.106
			c-0.138-0.042-0.28-0.076-0.427-0.1c-0.153-0.023-0.311-0.041-0.474-0.045c-0.18-0.006-0.363,0-0.553,0.018
			c-0.222,0.023-0.451,0.06-0.688,0.111c-0.303,0.07-0.618,0.165-0.947,0.289c-0.127,0.047-0.254,0.098-0.384,0.153
			c-0.438,0.188-0.867,0.402-1.292,0.646c-1.325,0.767-2.567,1.817-3.73,3.154c-0.469,0.539-0.928,1.126-1.371,1.759
			c-0.341,0.489-0.675,1.006-1.001,1.55c-0.304,0.506-0.6,1.035-0.891,1.588c-0.301,0.58-0.597,1.185-0.885,1.815
			c-0.057,0.125-0.114,0.255-0.171,0.383c-0.243,0.542-0.473,1.085-0.689,1.626c-0.25,0.63-0.484,1.258-0.699,1.887
			c-0.213,0.618-0.408,1.236-0.587,1.854c-0.183,0.634-0.348,1.268-0.495,1.898c-0.159,0.68-0.297,1.36-0.414,2.04
			c-0.136,0.781-0.244,1.562-0.325,2.343c-0.083,0.792-0.138,1.583-0.166,2.375c-0.005,0.172-0.008,0.341-0.011,0.509
			c-0.051,3.503,0.663,6.004,2.137,7.51c0.485,0.5,1.017,0.868,1.591,1.106l8.157,3.368c-0.576-0.235-1.106-0.604-1.592-1.104
			c-1.475-1.504-2.187-4.008-2.137-7.509c0.001-0.168,0.006-0.338,0.013-0.511c0.027-0.792,0.08-1.581,0.163-2.373
			c0.082-0.782,0.19-1.562,0.326-2.344c0.116-0.68,0.255-1.359,0.414-2.038c0.148-0.636,0.312-1.267,0.495-1.899
			c0.178-0.619,0.374-1.237,0.586-1.855c0.216-0.628,0.448-1.257,0.7-1.886c0.217-0.541,0.446-1.084,0.689-1.628
			c0.056-0.128,0.113-0.254,0.172-0.381c0.287-0.632,0.581-1.234,0.884-1.814c0.29-0.554,0.586-1.084,0.891-1.591
			c0.325-0.544,0.659-1.061,1.001-1.547c0.443-0.636,0.899-1.221,1.369-1.76c1.163-1.338,2.408-2.388,3.732-3.154
			c0.422-0.244,0.852-0.46,1.29-0.646c0.13-0.056,0.258-0.107,0.384-0.156c0.328-0.122,0.644-0.216,0.948-0.284
			c0.237-0.055,0.465-0.092,0.688-0.112c0.189-0.018,0.375-0.025,0.553-0.018c0.163,0.004,0.321,0.019,0.474,0.044
			c0.146,0.024,0.29,0.058,0.428,0.098c0.103,0.032,0.205,0.067,0.305,0.108L218.143,241.771z"/>
	</g>
	<g clip-path="url(#SVGID_2_)">
		<defs>
			<rect id="SVGID_79_" x="-29" y="-4.761" width="612" height="372.523"/>
		</defs>
		<clipPath id="SVGID_80_">
			<use xlink:href="#SVGID_79_"  overflow="visible"/>
		</clipPath>
		<path clip-path="url(#SVGID_80_)" fill="#4B88C2" d="M239.146,269.628l4.732-2.015c-1.625,4.661-4.003,8.776-7.143,12.357
			c-3.597,4.123-7.921,7.254-12.965,9.398c-4.877,2.076-9.062,2.758-12.54,2.057c-3.471-0.695-6.006-2.832-7.588-6.41
			c-1.582-3.591-2.292-7.911-2.117-12.989c0.191-5.583,1.355-11.196,3.489-16.842c2.136-5.657,4.946-10.402,8.447-14.279
			c3.503-3.865,7.447-6.731,11.842-8.603c3.73-1.585,7.019-2.027,9.851-1.318c2.832,0.724,4.949,2.54,6.363,5.465
			c1.413,2.932,2.043,6.521,1.898,10.77c-0.173,5.052-1.498,10.123-3.957,15.204c-3.094,6.396-6.92,10.564-11.471,12.501
			c-1.227,0.522-2.144,0.633-2.743,0.325c-0.607-0.316-0.995-0.981-1.16-2.009c-1.826,3.011-3.874,4.994-6.154,5.962
			c-2.454,1.045-4.454,0.785-5.999-0.804c-1.546-1.575-2.253-4.251-2.125-8.02c0.158-4.662,1.279-9.34,3.372-14.023
			c2.528-5.696,5.641-9.318,9.342-10.892c2.627-1.12,4.532-0.603,5.696,1.558l0.662-3.538l5.865-2.494l-4.081,22.774
			c-0.26,1.438-0.386,2.348-0.4,2.748c-0.017,0.493,0.058,0.831,0.213,1.008c0.167,0.173,0.365,0.215,0.596,0.117
			c0.715-0.304,1.653-1.277,2.813-2.908c1.568-2.149,2.855-4.687,3.869-7.62c1.023-2.938,1.578-5.765,1.671-8.485
			c0.167-4.884-1.009-8.406-3.532-10.574c-2.516-2.16-6.142-2.237-10.865-0.227c-4.009,1.704-7.448,4.254-10.304,7.626
			c-2.867,3.377-5.078,7.357-6.625,11.935c-1.546,4.588-2.392,9.021-2.54,13.336c-0.143,4.185,0.508,7.66,1.967,10.422
			c1.456,2.764,3.583,4.323,6.379,4.691c2.796,0.365,6.023-0.229,9.696-1.79c3.535-1.506,6.601-3.461,9.196-5.867
			C235.385,275.773,237.5,272.919,239.146,269.628 M225.636,262.674c0.649-2.562,1.002-4.845,1.072-6.851
			c0.076-2.244-0.251-3.801-0.983-4.677c-0.741-0.858-1.696-1.054-2.885-0.548c-1.264,0.538-2.467,1.701-3.592,3.483
			c-1.129,1.781-2.004,4.004-2.637,6.676c-0.625,2.679-0.98,4.96-1.043,6.838c-0.086,2.526,0.237,4.216,0.959,5.082
			c0.722,0.866,1.639,1.064,2.768,0.583c0.841-0.356,1.644-0.979,2.406-1.84c0.574-0.641,1.146-1.496,1.726-2.587
			C224.25,267.284,224.987,265.233,225.636,262.674"/>
		<path clip-path="url(#SVGID_80_)" fill="#396793" d="M227.893,231.37c0.246-0.073,0.485-0.131,0.726-0.193
			c0.19-0.048,0.382-0.102,0.569-0.143c0.606-0.134,1.195-0.227,1.772-0.287c0.136-0.015,0.271-0.026,0.405-0.037
			c0.426-0.033,0.847-0.049,1.258-0.039c0.081,0.001,0.166-0.005,0.246-0.002c0.449,0.017,0.886,0.06,1.315,0.127
			c0.328,0.051,0.652,0.11,0.969,0.188c0.455,0.115,0.893,0.262,1.311,0.435l-8.156-3.372c-0.293-0.121-0.597-0.229-0.91-0.322
			c-0.131-0.039-0.266-0.077-0.401-0.111c-0.289-0.071-0.583-0.134-0.882-0.18c-0.028-0.007-0.059-0.006-0.086-0.009
			c-0.428-0.066-0.867-0.11-1.315-0.126c-0.02-0.002-0.037-0.005-0.055-0.005c-0.062-0.003-0.127,0.006-0.188,0.005
			c-0.414-0.008-0.835,0.006-1.264,0.042c-0.073,0.005-0.142,0-0.216,0.006c-0.061,0.005-0.125,0.021-0.185,0.028
			c-0.578,0.062-1.167,0.153-1.774,0.288c-0.024,0.004-0.045,0.004-0.07,0.011c-0.163,0.037-0.333,0.091-0.499,0.134
			c-0.241,0.061-0.481,0.118-0.728,0.189c-0.205,0.062-0.414,0.137-0.621,0.203c-0.248,0.081-0.493,0.16-0.743,0.251
			c-0.049,0.019-0.096,0.031-0.143,0.049c-0.357,0.135-0.717,0.276-1.082,0.434c-0.567,0.241-1.125,0.5-1.678,0.773
			c-0.18,0.092-0.357,0.193-0.537,0.286c-0.368,0.192-0.735,0.382-1.096,0.589c-0.03,0.018-0.062,0.033-0.093,0.051
			c-0.079,0.046-0.152,0.1-0.229,0.146c-0.587,0.345-1.163,0.71-1.731,1.096c-0.166,0.111-0.334,0.225-0.499,0.342
			c-0.645,0.455-1.282,0.929-1.905,1.436c-0.058,0.048-0.113,0.101-0.171,0.148c-0.57,0.472-1.129,0.971-1.68,1.487
			c-0.155,0.146-0.312,0.293-0.467,0.444c-0.595,0.576-1.183,1.172-1.755,1.803c-0.16,0.178-0.319,0.355-0.476,0.536
			c-0.326,0.375-0.612,0.796-0.925,1.186c-0.453,0.565-0.912,1.12-1.337,1.714c-0.081,0.114-0.175,0.213-0.254,0.327
			c-0.56,0.802-1.097,1.631-1.613,2.489c-0.028,0.046-0.052,0.095-0.08,0.141c-0.066,0.112-0.127,0.233-0.194,0.347
			c-0.347,0.597-0.691,1.195-1.018,1.818c-0.218,0.417-0.42,0.854-0.629,1.285c-0.098,0.198-0.197,0.394-0.292,0.597
			c-0.068,0.145-0.142,0.281-0.209,0.429c-0.361,0.788-0.707,1.598-1.039,2.427c-0.129,0.325-0.256,0.654-0.381,0.985
			c-0.218,0.574-0.426,1.15-0.625,1.727c-0.019,0.055-0.033,0.11-0.052,0.165c-0.278,0.817-0.537,1.633-0.774,2.448
			c-0.008,0.028-0.018,0.055-0.026,0.084c-0.035,0.121-0.06,0.241-0.095,0.361c-0.192,0.686-0.371,1.369-0.536,2.051
			c-0.026,0.112-0.062,0.224-0.087,0.336c-0.033,0.142-0.054,0.285-0.088,0.429c-0.154,0.69-0.293,1.378-0.418,2.067
			c-0.027,0.146-0.063,0.291-0.089,0.435c-0.009,0.054-0.014,0.11-0.022,0.164c-0.166,0.973-0.298,1.945-0.404,2.917
			c-0.01,0.09-0.028,0.181-0.037,0.271c-0.013,0.12-0.013,0.239-0.025,0.358c-0.098,1.011-0.175,2.021-0.21,3.029
			c-0.01,0.295-0.018,0.586-0.021,0.876c-0.008,0.549,0.031,1.059,0.045,1.586c0.013,0.498,0.011,1.006,0.042,1.489
			c0.043,0.684,0.131,1.333,0.214,1.986c0.055,0.43,0.088,0.873,0.159,1.287c0.119,0.699,0.286,1.358,0.451,2.019
			c0.082,0.327,0.141,0.677,0.234,0.995c0.281,0.96,0.609,1.877,0.992,2.75c1.263,2.855,3.132,4.794,5.598,5.812l8.156,3.371
			c-2.467-1.02-4.334-2.959-5.597-5.812c-0.384-0.873-0.711-1.791-0.992-2.751c-0.095-0.317-0.152-0.667-0.234-0.997
			c-0.165-0.659-0.333-1.315-0.451-2.016c-0.07-0.414-0.105-0.858-0.158-1.288c-0.083-0.653-0.171-1.303-0.214-1.988
			c-0.032-0.479-0.031-0.989-0.042-1.486c-0.021-0.81-0.054-1.608-0.024-2.463c0.035-1.009,0.112-2.018,0.211-3.028
			c0.02-0.211,0.038-0.419,0.062-0.63c0.107-0.972,0.239-1.943,0.405-2.918c0.033-0.198,0.074-0.395,0.11-0.592
			c0.125-0.69,0.266-1.385,0.422-2.077c0.056-0.253,0.112-0.504,0.172-0.756c0.164-0.686,0.343-1.37,0.536-2.056
			c0.043-0.149,0.079-0.297,0.122-0.446c0.236-0.814,0.496-1.629,0.774-2.447c0.215-0.629,0.437-1.261,0.675-1.892
			c0.504-1.334,1.051-2.607,1.629-3.839c0.096-0.204,0.196-0.399,0.293-0.6c0.521-1.071,1.067-2.105,1.646-3.101
			c0.066-0.113,0.128-0.234,0.196-0.348c0.613-1.031,1.268-2.01,1.946-2.958c0.426-0.594,0.884-1.148,1.336-1.711
			c0.465-0.578,0.91-1.181,1.401-1.724c0.572-0.631,1.161-1.227,1.755-1.805c0.157-0.149,0.312-0.297,0.467-0.442
			c0.551-0.517,1.11-1.016,1.68-1.487c0.058-0.048,0.114-0.1,0.173-0.147c0.621-0.508,1.258-0.982,1.903-1.436
			c0.167-0.117,0.334-0.23,0.501-0.344c0.567-0.384,1.143-0.749,1.726-1.095c0.111-0.063,0.217-0.134,0.327-0.198
			c0.355-0.203,0.717-0.39,1.079-0.58c0.185-0.095,0.366-0.2,0.553-0.293c0.551-0.273,1.11-0.532,1.677-0.774
			c0.415-0.176,0.823-0.333,1.227-0.482c0.25-0.09,0.493-0.169,0.737-0.249C227.476,231.505,227.686,231.43,227.893,231.37"/>
		<path clip-path="url(#SVGID_80_)" fill="#2A98BE" d="M359.161,209.707l-50.33,26.683l9.081,9.726l19.501,4.212l9.119,9.746
			l19.562,4.245l0.009-0.008l-19.509-4.228l14.467-7.668c-2.244-3.155-3.572-7.104-4.121-11.396
			c-0.042-0.318-0.076-0.633-0.107-0.945l-19.39,10.28l-0.021-0.03l-19.468-4.208l50.32-26.68l-0.068-0.013L359.161,209.707
			 M359.167,209.706l-0.012-0.006l0.006,0.007L359.167,209.706"/>
		<path clip-path="url(#SVGID_80_)" fill="#258AAD" d="M387.796,223.659l-19.5-4.232l-0.02,0.009l-50.325,26.68l19.471,4.208
			l0.021,0.03l19.392-10.28c-0.937-9.631,3.059-15.412,16.581-17.389c0.002,0,0.002,0,0.003-0.002
			c0.237-0.036,0.478-0.069,0.722-0.1c0.014-0.003,0.028-0.005,0.041-0.008c0.11-0.014,0.219-0.028,0.33-0.042
			c0.02-0.002,0.04-0.004,0.061-0.008c0.102-0.012,0.204-0.025,0.307-0.037c0.037-0.005,0.072-0.008,0.11-0.015
			c0.09-0.01,0.182-0.021,0.274-0.032c0.041-0.003,0.076-0.008,0.117-0.012c0.089-0.01,0.178-0.021,0.267-0.03
			c0.056-0.005,0.111-0.012,0.166-0.018c0.075-0.008,0.151-0.016,0.227-0.022c0.062-0.006,0.123-0.013,0.187-0.021
			c0.069-0.005,0.14-0.014,0.209-0.021c0.081-0.006,0.162-0.014,0.244-0.022c0.055-0.004,0.105-0.01,0.159-0.015
			c0.091-0.008,0.183-0.016,0.271-0.023c0.048-0.004,0.093-0.008,0.14-0.013c0.105-0.009,0.209-0.019,0.312-0.026
			c0.037-0.003,0.07-0.005,0.104-0.008c0.111-0.01,0.223-0.018,0.336-0.026c0.028-0.001,0.061-0.003,0.092-0.009
			c0.114-0.007,0.229-0.016,0.345-0.024c0.03-0.001,0.06-0.003,0.09-0.004c0.121-0.009,0.242-0.017,0.364-0.026
			c0.025-0.001,0.047-0.003,0.07-0.004c0.138-0.009,0.279-0.018,0.417-0.026c0.01,0,0.017,0,0.025-0.001
			c0.127-0.007,0.257-0.015,0.386-0.021c0.023-0.002,0.047-0.004,0.069-0.005c0.149-0.008,0.3-0.017,0.452-0.024l3.381,0.73
			L387.796,223.659"/>
		<path clip-path="url(#SVGID_80_)" fill="#258AAD" d="M361.061,252.415l-14.466,7.668l19.509,4.228l8.68-4.6
			c-1.759-0.12-3.377-0.42-4.855-0.88c-0.89-0.275-1.731-0.608-2.525-0.995C364.776,256.555,362.68,254.69,361.061,252.415"/>
		<path clip-path="url(#SVGID_80_)" fill="#E5BF5E" d="M373.415,222.683c-13.523,1.979-17.519,7.76-16.583,17.391
			c0.03,0.313,0.065,0.627,0.107,0.945c0.549,4.293,1.877,8.241,4.121,11.396c1.619,2.275,3.716,4.14,6.344,5.42
			c0.791,0.388,1.634,0.72,2.523,0.996c-0.887-0.275-1.725-0.607-2.514-0.992c-2.63-1.283-4.73-3.148-6.35-5.425l7.188-3.812
			c-1.287-2.429-1.888-5.351-2.255-8.666c-0.18-1.606-0.339-3.111-0.399-4.509l-0.009,0.005l-8.74,4.635
			C355.913,230.448,359.9,224.662,373.415,222.683 M374.14,222.582c-0.244,0.031-0.486,0.065-0.722,0.101
			C373.653,222.647,373.896,222.613,374.14,222.582 M374.511,222.534c-0.11,0.013-0.22,0.027-0.328,0.041
			C374.291,222.562,374.4,222.547,374.511,222.534 M374.878,222.489c-0.102,0.011-0.205,0.024-0.307,0.035
			C374.673,222.514,374.775,222.5,374.878,222.489 M375.263,222.442c-0.092,0.012-0.185,0.021-0.275,0.031
			C375.078,222.464,375.171,222.454,375.263,222.442 M375.646,222.399c-0.089,0.01-0.179,0.02-0.267,0.031
			C375.468,222.419,375.56,222.409,375.646,222.399 M376.038,222.359c-0.075,0.006-0.149,0.015-0.227,0.022
			C375.889,222.374,375.963,222.365,376.038,222.359 M376.435,222.319c-0.07,0.007-0.141,0.015-0.207,0.02
			C376.295,222.334,376.363,222.326,376.435,222.319 M376.838,222.281c-0.054,0.005-0.104,0.011-0.159,0.015
			C376.732,222.292,376.785,222.286,376.838,222.281 M377.246,222.244c-0.046,0.004-0.092,0.008-0.137,0.014
			C377.154,222.252,377.2,222.248,377.246,222.244 M377.667,222.211c-0.036,0.003-0.069,0.006-0.105,0.009
			C377.596,222.217,377.632,222.214,377.667,222.211 M378.09,222.178c-0.028,0.003-0.061,0.005-0.089,0.007
			C378.029,222.183,378.062,222.181,378.09,222.178 M378.526,222.147c-0.028,0.002-0.059,0.003-0.089,0.007
			C378.468,222.15,378.498,222.149,378.526,222.147 M378.962,222.117c-0.021,0.001-0.045,0.004-0.069,0.005
			C378.915,222.121,378.94,222.118,378.962,222.117 M379.404,222.091c-0.009,0-0.016,0-0.025,0.001
			C379.388,222.091,379.396,222.091,379.404,222.091 M379.857,222.064c-0.021,0.001-0.046,0.002-0.068,0.003
			C379.813,222.066,379.834,222.065,379.857,222.064 M387.816,223.669l-0.027-0.006l-0.003,0.001L387.816,223.669"/>
		<path clip-path="url(#SVGID_80_)" fill="#429F8F" d="M387.816,223.669l-0.03-0.005l-22.188,11.764
			c0.061,1.397,0.22,2.902,0.399,4.509c0.367,3.315,0.968,6.237,2.255,8.666l28.665-15.197L387.816,223.669"/>
		<path clip-path="url(#SVGID_80_)" fill="#CEAD55" d="M396.917,233.405l-28.665,15.197l-7.188,3.812
			c1.62,2.276,3.72,4.142,6.35,5.423c0.789,0.387,1.627,0.719,2.514,0.994c1.479,0.46,3.097,0.76,4.857,0.879l6.94-3.68
			c-3.246-0.388-5.808-1.094-7.84-2.086c-2.689-1.31-4.448-3.119-5.632-5.343L396.917,233.405 M416.437,237.629
			c-0.019,0.01-31.336,16.529-34.711,18.401L416.437,237.629"/>
		<path clip-path="url(#SVGID_80_)" fill="#CEAD55" d="M387.796,223.659l-4.104-0.889l-3.381-0.73
			c-0.152,0.008-0.303,0.017-0.452,0.024c-0.027,0.001-0.045,0.003-0.069,0.005c-0.129,0.006-0.259,0.014-0.386,0.021
			c-0.008,0.001-0.017,0.001-0.025,0.001c-0.138,0.009-0.279,0.018-0.417,0.026c-0.021,0.001-0.045,0.003-0.07,0.004
			c-0.122,0.01-0.243,0.018-0.364,0.026c-0.03,0.001-0.06,0.003-0.09,0.004c-0.115,0.009-0.23,0.018-0.345,0.024
			c-0.031,0.006-0.062,0.008-0.092,0.009c-0.113,0.009-0.225,0.017-0.336,0.026c-0.033,0.003-0.069,0.005-0.104,0.008
			c-0.104,0.008-0.207,0.018-0.312,0.026c-0.047,0.005-0.092,0.009-0.14,0.013c-0.088,0.008-0.18,0.016-0.271,0.023
			c-0.054,0.005-0.104,0.011-0.159,0.015c-0.082,0.009-0.163,0.017-0.244,0.022c-0.07,0.008-0.139,0.016-0.209,0.021
			c-0.063,0.008-0.125,0.015-0.187,0.021c-0.075,0.007-0.151,0.015-0.227,0.022c-0.055,0.006-0.11,0.013-0.166,0.018
			c-0.089,0.01-0.179,0.021-0.267,0.03c-0.041,0.004-0.076,0.009-0.117,0.012c-0.092,0.012-0.185,0.022-0.274,0.032
			c-0.038,0.007-0.073,0.01-0.11,0.015c-0.103,0.012-0.205,0.025-0.307,0.037c-0.021,0.004-0.041,0.006-0.061,0.008
			c-0.111,0.014-0.221,0.028-0.33,0.042c-0.013,0.003-0.027,0.005-0.041,0.008c-0.243,0.03-0.486,0.063-0.722,0.1
			c-0.001,0.002-0.001,0.002-0.003,0.002c-13.514,1.977-17.502,7.764-16.566,17.38l8.739-4.631
			c-0.328-7.915,2.447-12.336,22.199-11.77L387.796,223.659"/>
		<path clip-path="url(#SVGID_80_)" fill="#389684" d="M416.437,237.629l-19.52-4.224l-28.663,15.196
			c1.184,2.224,2.942,4.033,5.632,5.343c2.032,0.992,4.594,1.698,7.84,2.086C385.101,254.158,416.418,237.639,416.437,237.629"/>
		<path clip-path="url(#SVGID_80_)" fill="#389684" d="M387.796,223.659l-0.009,0.005c-19.752-0.566-22.527,3.854-22.199,11.77
			l0.011-0.006l22.188-11.764l0.002-0.001L387.796,223.659"/>
		<path clip-path="url(#SVGID_80_)" fill="#D23B30" d="M366.247,214.991c-0.271,0.159-0.559,0.293-0.854,0.404
			c-0.188,0.07-0.384,0.127-0.581,0.179c-0.07,0.017-0.138,0.044-0.211,0.061c-0.261,0.057-0.53,0.096-0.806,0.119
			c-0.055,0.004-0.11,0.008-0.166,0.01c-0.27,0.017-0.546,0.021-0.827,0.005c-0.029-0.003-0.061-0.006-0.09-0.008
			c-0.297-0.021-0.598-0.059-0.905-0.115c-0.031-0.005-0.061-0.011-0.091-0.019c-0.312-0.06-0.626-0.14-0.949-0.238
			c-0.023-0.008-0.048-0.016-0.072-0.021c-0.338-0.107-0.679-0.233-1.025-0.381c-0.021-0.01-0.041-0.019-0.062-0.027
			c-0.354-0.154-0.71-0.326-1.071-0.526c-0.364-0.197-0.723-0.416-1.076-0.651c-0.016-0.01-0.032-0.023-0.05-0.032
			c-0.331-0.222-0.657-0.457-0.979-0.708c-0.035-0.028-0.069-0.057-0.104-0.084c-0.308-0.243-0.608-0.496-0.903-0.761
			c-0.039-0.037-0.079-0.071-0.12-0.11c-0.289-0.264-0.574-0.54-0.854-0.826c-0.04-0.042-0.079-0.084-0.12-0.126
			c-0.275-0.289-0.547-0.587-0.808-0.893c-0.041-0.049-0.083-0.099-0.124-0.148c-0.237-0.279-0.465-0.566-0.688-0.86
			c-0.046-0.062-0.094-0.119-0.138-0.18c-0.036-0.047-0.068-0.096-0.102-0.144c-0.574-0.781-1.102-1.6-1.579-2.447
			c-0.174-0.307-0.347-0.616-0.506-0.931c0,0-0.002,0-0.002-0.002c-0.211-0.415-0.407-0.834-0.593-1.259
			c-0.002-0.006-0.005-0.01-0.006-0.016c-0.178-0.41-0.342-0.822-0.494-1.237c-0.014-0.031-0.023-0.065-0.035-0.099
			c-0.142-0.392-0.27-0.782-0.388-1.175c-0.012-0.043-0.024-0.085-0.037-0.128c-0.112-0.394-0.215-0.787-0.304-1.181
			c-0.006-0.031-0.016-0.063-0.022-0.095c-0.09-0.416-0.167-0.829-0.228-1.241c-0.003-0.02-0.006-0.038-0.008-0.058
			c-0.056-0.399-0.1-0.798-0.127-1.191c-0.001-0.035-0.003-0.068-0.006-0.103c-0.027-0.409-0.038-0.813-0.03-1.215
			c0.009-0.392,0.036-0.769,0.075-1.133c0.004-0.038,0.011-0.076,0.014-0.113c0.04-0.335,0.094-0.656,0.16-0.966
			c0.009-0.042,0.018-0.086,0.026-0.13c0.07-0.301,0.151-0.591,0.243-0.868c0.02-0.053,0.037-0.104,0.055-0.158
			c0.093-0.259,0.195-0.508,0.308-0.744c0.014-0.028,0.024-0.06,0.039-0.088c0.132-0.271,0.278-0.526,0.438-0.766
			c0.224-0.337,0.478-0.635,0.749-0.908c0.065-0.067,0.133-0.131,0.201-0.194c0.282-0.259,0.578-0.497,0.903-0.691
			c0.001,0,0.001,0,0.001,0s0,0,0-0.001l-5.422,3.211c-0.326,0.194-0.623,0.433-0.906,0.693c-0.067,0.062-0.136,0.126-0.201,0.192
			c-0.271,0.274-0.525,0.572-0.748,0.909c-0.005,0.004-0.007,0.008-0.01,0.013c-0.15,0.228-0.29,0.47-0.417,0.727
			c-0.005,0.008-0.007,0.018-0.012,0.026c-0.014,0.028-0.025,0.06-0.038,0.087c-0.076,0.161-0.152,0.322-0.22,0.492
			c-0.03,0.081-0.057,0.17-0.086,0.253c-0.02,0.052-0.039,0.105-0.056,0.158c-0.018,0.051-0.037,0.097-0.053,0.147
			c-0.056,0.176-0.105,0.356-0.151,0.542c-0.015,0.059-0.026,0.119-0.039,0.18c-0.011,0.042-0.019,0.086-0.027,0.129
			c-0.017,0.072-0.034,0.14-0.048,0.214c-0.031,0.165-0.059,0.334-0.085,0.506c-0.011,0.082-0.019,0.162-0.028,0.246
			c-0.004,0.036-0.009,0.075-0.013,0.113c-0.007,0.052-0.015,0.102-0.021,0.153c-0.015,0.167-0.026,0.333-0.036,0.501
			c-0.01,0.156-0.017,0.316-0.019,0.478c0,0.011,0,0.025-0.002,0.036c-0.003,0.169-0.003,0.339,0,0.506
			c0.004,0.171,0.01,0.341,0.02,0.513c0.002,0.053,0.009,0.107,0.011,0.16c0.003,0.036,0.005,0.068,0.008,0.102
			c0.005,0.084,0.008,0.168,0.017,0.252c0.015,0.175,0.032,0.346,0.052,0.519c0.017,0.142,0.038,0.282,0.058,0.423
			c0.002,0.02,0.004,0.038,0.008,0.06c0.003,0.014,0.003,0.031,0.007,0.048c0.027,0.18,0.057,0.357,0.089,0.536
			c0.034,0.186,0.07,0.371,0.11,0.556c0.007,0.034,0.015,0.067,0.023,0.102c0.007,0.03,0.013,0.06,0.021,0.091
			c0.026,0.123,0.056,0.247,0.084,0.37c0.049,0.193,0.099,0.384,0.152,0.575c0.021,0.079,0.045,0.158,0.068,0.238
			c0.012,0.041,0.025,0.083,0.037,0.126c0.021,0.073,0.041,0.145,0.062,0.215c0.06,0.195,0.124,0.39,0.19,0.585
			c0.043,0.125,0.088,0.25,0.134,0.375c0.012,0.033,0.023,0.068,0.036,0.1c0.012,0.034,0.022,0.068,0.036,0.103
			c0.07,0.194,0.146,0.385,0.223,0.576c0.077,0.188,0.154,0.372,0.233,0.558c0.004,0.006,0.006,0.011,0.008,0.017
			s0.004,0.008,0.005,0.011c0.086,0.201,0.178,0.398,0.269,0.596c0.102,0.221,0.209,0.437,0.319,0.65c0,0.004,0,0.004,0,0.005
			c0,0,0.001,0,0.001,0.001c0.142,0.277,0.287,0.555,0.44,0.826c0.021,0.037,0.048,0.069,0.065,0.104
			c0.479,0.847,1.006,1.666,1.579,2.444c0.016,0.025,0.028,0.052,0.049,0.078c0.017,0.022,0.035,0.046,0.053,0.066
			c0.046,0.062,0.093,0.12,0.138,0.181c0.136,0.176,0.268,0.354,0.407,0.523c0.09,0.114,0.187,0.226,0.282,0.336
			c0.04,0.05,0.081,0.101,0.124,0.148c0.033,0.041,0.065,0.081,0.099,0.119c0.157,0.181,0.317,0.358,0.479,0.534
			c0.076,0.082,0.154,0.161,0.231,0.24c0.038,0.041,0.079,0.084,0.12,0.126c0.045,0.046,0.088,0.096,0.136,0.141
			c0.161,0.162,0.325,0.324,0.491,0.479c0.073,0.071,0.151,0.14,0.228,0.208c0.04,0.035,0.077,0.071,0.118,0.107
			c0.049,0.046,0.098,0.09,0.147,0.134c0.163,0.145,0.33,0.284,0.496,0.422c0.085,0.071,0.174,0.137,0.26,0.204
			c0.034,0.029,0.071,0.057,0.104,0.084c0.04,0.034,0.08,0.065,0.121,0.096c0.157,0.12,0.315,0.238,0.478,0.353
			c0.127,0.091,0.255,0.175,0.382,0.262c0.017,0.011,0.033,0.021,0.049,0.031c0.013,0.011,0.025,0.02,0.04,0.027
			c0.15,0.102,0.304,0.197,0.458,0.291c0.152,0.093,0.303,0.181,0.457,0.269c0.039,0.021,0.082,0.046,0.12,0.064
			c0.109,0.061,0.218,0.119,0.328,0.175c0.146,0.078,0.294,0.148,0.439,0.216c0.103,0.049,0.204,0.093,0.304,0.138
			c0.021,0.007,0.041,0.016,0.062,0.025c0.023,0.01,0.048,0.02,0.071,0.032c0.146,0.06,0.287,0.117,0.431,0.171
			c0.146,0.054,0.29,0.104,0.436,0.152c0.028,0.01,0.059,0.018,0.087,0.026c0.025,0.006,0.049,0.014,0.074,0.021
			c0.09,0.029,0.18,0.058,0.269,0.082c0.151,0.042,0.299,0.078,0.447,0.112c0.078,0.017,0.154,0.029,0.232,0.045
			c0.029,0.007,0.062,0.014,0.091,0.018c0.039,0.008,0.079,0.018,0.119,0.023c0.158,0.027,0.316,0.05,0.472,0.068
			c0.105,0.011,0.209,0.017,0.315,0.024c0.027,0.002,0.061,0.005,0.088,0.007c0.027,0.001,0.052,0.005,0.079,0.006
			c0.17,0.008,0.34,0.01,0.507,0.005c0.081-0.001,0.163-0.01,0.243-0.015c0.055-0.003,0.109-0.005,0.166-0.011
			c0.05-0.005,0.104-0.006,0.152-0.01c0.212-0.024,0.423-0.058,0.625-0.102c0.009-0.001,0.02-0.006,0.028-0.008
			c0.07-0.015,0.137-0.042,0.207-0.06c0.177-0.046,0.356-0.088,0.524-0.151c0.02-0.006,0.039-0.02,0.06-0.028
			c0.297-0.111,0.584-0.244,0.854-0.403L366.247,214.991z"/>
		<path clip-path="url(#SVGID_80_)" fill="#D23B30" d="M377.964,211.272c-0.004-0.285-0.013-0.571-0.03-0.859
			c-0.005-0.112-0.015-0.227-0.022-0.34c-0.003-0.058-0.008-0.114-0.011-0.174c-0.01-0.115-0.017-0.235-0.026-0.354
			c-0.024-0.289-0.055-0.581-0.089-0.873c-0.035-0.299-0.077-0.598-0.12-0.898c-0.002-0.005-0.003-0.011-0.004-0.018
			s-0.003-0.016-0.005-0.025c-0.041-0.286-0.089-0.573-0.141-0.859c-0.058-0.314-0.119-0.628-0.188-0.943
			c-0.023-0.118-0.054-0.232-0.079-0.35c-0.015-0.068-0.031-0.132-0.046-0.199c-0.029-0.134-0.061-0.268-0.093-0.4
			c-0.08-0.329-0.166-0.657-0.257-0.985c-0.063-0.232-0.136-0.464-0.204-0.696c-0.014-0.049-0.027-0.1-0.044-0.148
			c-0.015-0.049-0.025-0.097-0.041-0.144c-0.103-0.333-0.21-0.666-0.324-0.998c-0.112-0.333-0.231-0.664-0.355-0.998
			c-0.006-0.017-0.015-0.036-0.021-0.056c-0.009-0.023-0.02-0.049-0.029-0.073c-0.107-0.287-0.218-0.575-0.334-0.863
			c-0.136-0.339-0.279-0.677-0.425-1.013c-0.035-0.08-0.075-0.159-0.109-0.241c-0.031-0.069-0.062-0.138-0.094-0.207
			c-0.085-0.192-0.172-0.386-0.261-0.577c-0.185-0.395-0.375-0.787-0.574-1.176c-0.038-0.072-0.077-0.143-0.114-0.215
			c-0.068-0.131-0.142-0.259-0.207-0.391c-0.146-0.278-0.29-0.557-0.443-0.831c-0.09-0.158-0.192-0.312-0.284-0.471
			c-0.263-0.458-0.536-0.911-0.816-1.361c-0.193-0.307-0.383-0.613-0.583-0.915c-0.302-0.456-0.613-0.901-0.933-1.345
			c-0.146-0.204-0.277-0.417-0.428-0.615c-0.073-0.102-0.151-0.197-0.229-0.298c-0.116-0.153-0.235-0.304-0.354-0.455
			c-0.161-0.209-0.317-0.422-0.483-0.624c-0.267-0.329-0.537-0.648-0.812-0.968c-0.019-0.021-0.036-0.047-0.057-0.069
			c-0.01-0.009-0.019-0.02-0.025-0.029c-0.289-0.336-0.586-0.661-0.883-0.983c-0.209-0.227-0.421-0.445-0.635-0.662
			c-0.051-0.053-0.101-0.107-0.151-0.159c-0.034-0.035-0.066-0.07-0.102-0.105c-0.294-0.297-0.594-0.591-0.897-0.877
			c-0.194-0.18-0.39-0.354-0.586-0.532c-0.059-0.053-0.117-0.108-0.177-0.161c-0.05-0.043-0.096-0.089-0.146-0.132
			c-0.301-0.265-0.606-0.525-0.915-0.779c-0.199-0.163-0.4-0.317-0.604-0.477c-0.052-0.039-0.103-0.082-0.153-0.123
			c-0.046-0.033-0.088-0.07-0.133-0.104c-0.292-0.223-0.589-0.442-0.886-0.651c-0.262-0.188-0.527-0.366-0.792-0.544
			c-0.015-0.008-0.03-0.019-0.043-0.028c-0.01-0.006-0.019-0.015-0.03-0.021c-0.281-0.184-0.564-0.363-0.848-0.537
			c-0.28-0.17-0.562-0.334-0.844-0.493c-0.073-0.043-0.147-0.083-0.224-0.125c-0.203-0.11-0.404-0.218-0.607-0.321
			c-0.272-0.14-0.546-0.275-0.815-0.4c-0.18-0.083-0.355-0.159-0.533-0.238c-0.041-0.017-0.083-0.035-0.125-0.055
			c-0.048-0.021-0.099-0.044-0.147-0.066c-0.267-0.111-0.532-0.217-0.797-0.316c-0.271-0.1-0.535-0.193-0.802-0.28
			c-0.045-0.014-0.087-0.025-0.13-0.039c-0.041-0.013-0.08-0.023-0.122-0.037c-0.18-0.056-0.362-0.113-0.543-0.164
			c-0.276-0.075-0.551-0.146-0.82-0.206c-0.126-0.029-0.25-0.048-0.373-0.074c-0.06-0.011-0.119-0.024-0.177-0.034
			c-0.091-0.017-0.183-0.039-0.272-0.054c-0.286-0.049-0.572-0.089-0.854-0.121c-0.17-0.018-0.336-0.028-0.505-0.039
			c-0.062-0.005-0.127-0.013-0.189-0.016c-0.064-0.004-0.129-0.013-0.193-0.016c-0.308-0.014-0.611-0.019-0.914-0.01
			c-0.134,0.003-0.263,0.018-0.395,0.026c-0.101,0.004-0.203,0.011-0.3,0.021c-0.106,0.006-0.214,0.008-0.316,0.019
			c-0.385,0.043-0.762,0.103-1.131,0.183c-0.009,0.001-0.018,0.004-0.028,0.008c-0.085,0.018-0.163,0.051-0.249,0.07
			c-0.36,0.089-0.725,0.182-1.067,0.307c-0.036,0.012-0.066,0.035-0.104,0.049c-0.535,0.201-1.053,0.436-1.539,0.724l-5.424,3.21
			c0.485-0.286,1.005-0.525,1.54-0.725c0.377-0.142,0.767-0.256,1.166-0.354c0.087-0.021,0.167-0.053,0.256-0.072
			c0.477-0.104,0.969-0.17,1.475-0.211c0.098-0.008,0.198-0.014,0.299-0.019c0.489-0.027,0.99-0.031,1.501,0.001
			c0.064,0.003,0.127,0.01,0.191,0.015c0.532,0.04,1.075,0.111,1.63,0.214c0.06,0.011,0.119,0.023,0.179,0.036
			c0.567,0.112,1.148,0.258,1.736,0.442c0.041,0.012,0.081,0.022,0.121,0.036c0.616,0.196,1.242,0.43,1.877,0.702
			c0.041,0.018,0.084,0.038,0.124,0.055c0.644,0.282,1.297,0.598,1.957,0.959c0.657,0.36,1.307,0.753,1.945,1.175
			c0.013,0.01,0.027,0.02,0.043,0.028c0.611,0.406,1.217,0.843,1.809,1.299c0.054,0.041,0.104,0.083,0.154,0.123
			c0.564,0.441,1.12,0.903,1.664,1.389c0.061,0.052,0.116,0.106,0.176,0.159c0.541,0.486,1.072,0.991,1.587,1.517
			c0.05,0.05,0.1,0.104,0.147,0.154c0.526,0.542,1.046,1.1,1.545,1.678c0.021,0.023,0.039,0.049,0.061,0.071
			c0.442,0.515,0.87,1.049,1.292,1.589c0.119,0.152,0.239,0.304,0.355,0.459c0.226,0.297,0.436,0.604,0.653,0.905
			c0.318,0.446,0.634,0.894,0.936,1.35c0.199,0.303,0.39,0.61,0.583,0.915c0.279,0.449,0.554,0.902,0.816,1.362
			c0.248,0.433,0.494,0.862,0.725,1.302c0.07,0.131,0.142,0.26,0.208,0.39c0.335,0.649,0.652,1.305,0.948,1.968
			c0.033,0.07,0.065,0.139,0.097,0.21c0.312,0.699,0.601,1.407,0.869,2.115c0.009,0.024,0.019,0.049,0.027,0.072
			c0.272,0.729,0.521,1.463,0.744,2.196c0.015,0.05,0.027,0.099,0.043,0.148c0.207,0.693,0.392,1.39,0.553,2.082
			c0.017,0.067,0.03,0.133,0.046,0.198c0.161,0.722,0.303,1.44,0.409,2.151c0.001,0.011,0.004,0.021,0.005,0.029
			c0.108,0.719,0.188,1.433,0.238,2.143c0.003,0.057,0.006,0.114,0.011,0.171c0.046,0.711,0.066,1.417,0.054,2.112
			c-0.001,0.023-0.005,0.069-0.008,0.12c-0.003,0.071-0.01,0.167-0.021,0.29c0,0.001,0,0.001,0,0.002
			c-0.01,0.124-0.022,0.274-0.039,0.439c-0.003,0.033-0.005,0.068-0.011,0.1c-0.02,0.202-0.043,0.433-0.073,0.681
			c-0.003,0.033-0.006,0.062-0.011,0.097c-0.029,0.264-0.067,0.553-0.108,0.851c-0.008,0.053-0.016,0.105-0.022,0.159
			c-0.074,0.515-0.161,1.062-0.266,1.617c0,0.004-0.003,0.008-0.004,0.016c-0.076,0.408-0.166,0.819-0.264,1.222
			c-0.009,0.036-0.017,0.074-0.024,0.11c-0.073,0.293-0.153,0.579-0.237,0.856c-0.023,0.08-0.047,0.154-0.073,0.229
			c-0.052,0.161-0.105,0.316-0.162,0.469c-0.028,0.079-0.06,0.161-0.09,0.239c-0.046,0.109-0.091,0.211-0.138,0.312
			c-0.037,0.079-0.073,0.16-0.111,0.234c-0.046,0.088-0.095,0.168-0.141,0.247c-0.053,0.092-0.105,0.188-0.162,0.267
			c-0.364,0.673-0.787,1.323-1.227,1.965c-0.21,0.306-0.437,0.605-0.661,0.904c-0.3,0.397-0.604,0.791-0.925,1.173
			c-0.246,0.291-0.497,0.574-0.753,0.857c-0.334,0.367-0.675,0.73-1.022,1.082c-0.267,0.269-0.534,0.533-0.807,0.793
			c-0.359,0.344-0.726,0.676-1.093,1c-0.273,0.242-0.546,0.482-0.821,0.716c-0.381,0.319-0.761,0.624-1.143,0.925
			c-0.266,0.208-0.529,0.424-0.795,0.622c-0.394,0.3-0.784,0.579-1.172,0.856c-0.24,0.172-0.485,0.351-0.722,0.516
			c-0.423,0.291-0.828,0.558-1.231,0.821c-0.181,0.118-0.373,0.249-0.548,0.36c-0.569,0.362-1.11,0.696-1.61,0.991l5.425-3.212
			c0.498-0.295,1.042-0.628,1.609-0.99c0.177-0.111,0.363-0.24,0.545-0.358c0.406-0.265,0.811-0.53,1.237-0.825
			c0.235-0.163,0.476-0.341,0.717-0.512c0.391-0.277,0.777-0.557,1.174-0.858c0.265-0.2,0.527-0.412,0.794-0.622
			c0.382-0.301,0.763-0.604,1.143-0.925c0.277-0.234,0.546-0.473,0.82-0.715c0.371-0.326,0.734-0.657,1.097-1.001
			c0.273-0.261,0.538-0.523,0.804-0.791c0.35-0.353,0.688-0.717,1.024-1.084c0.256-0.284,0.506-0.565,0.752-0.856
			c0.323-0.384,0.624-0.776,0.924-1.174c0.225-0.299,0.452-0.597,0.661-0.904c0.089-0.129,0.192-0.248,0.276-0.377
			c0.341-0.52,0.659-1.049,0.95-1.589c0.024-0.033,0.048-0.069,0.073-0.104c0.031-0.049,0.06-0.109,0.089-0.161
			c0.049-0.078,0.095-0.158,0.142-0.247c0.012-0.023,0.025-0.042,0.038-0.066c0.024-0.053,0.049-0.114,0.074-0.169
			c0.045-0.101,0.093-0.202,0.136-0.312c0.013-0.033,0.028-0.06,0.041-0.095c0.018-0.044,0.034-0.099,0.05-0.145
			c0.057-0.152,0.111-0.308,0.164-0.468c0.013-0.047,0.031-0.089,0.046-0.138c0.009-0.028,0.017-0.062,0.026-0.093
			c0.084-0.275,0.163-0.562,0.236-0.857c0.002-0.01,0.005-0.021,0.01-0.031c0.006-0.025,0.009-0.053,0.016-0.077
			c0.098-0.402,0.185-0.813,0.265-1.224c0-0.002,0-0.003,0.001-0.006c0-0.002,0-0.006,0.001-0.01c0.104-0.556,0.191-1.1,0.266-1.615
			c0.002-0.017,0.006-0.038,0.009-0.057c0.005-0.036,0.008-0.067,0.014-0.104c0.042-0.298,0.077-0.586,0.11-0.849
			c0.003-0.037,0.005-0.065,0.01-0.1c0.027-0.244,0.052-0.465,0.072-0.666c0.003-0.021,0.005-0.051,0.008-0.072
			c0.002-0.018,0.004-0.03,0.005-0.047c0.014-0.162,0.028-0.311,0.036-0.432c0-0.001,0-0.002,0-0.003
			c0.013-0.124,0.018-0.219,0.023-0.291c0-0.005,0.001-0.017,0.001-0.022c0.002-0.043,0.003-0.076,0.003-0.096
			c0-0.022,0.001-0.041,0.001-0.061C377.971,211.843,377.971,211.559,377.964,211.272"/>
		<path clip-path="url(#SVGID_80_)" fill="#82251E" d="M353.798,183.935c10.586,5.802,18.98,19.895,18.743,31.461
			c-0.01,0.459-0.504,6.512-1.966,8.558c-4.988,9.251-17.855,15.437-17.921,15.399c-0.079-0.043-12.448-20.118-16.912-34.562
			c-1.564-4.746-1.546-10.184-1.543-10.407C334.44,182.816,343.212,178.133,353.798,183.935 M353.111,217.643
			c5.897,3.233,10.792,0.459,10.93-6.191c0.137-6.666-4.536-14.671-10.432-17.902c-5.907-3.237-10.791-0.469-10.928,6.194
			C342.545,206.396,347.206,214.406,353.111,217.643"/>
	</g>
	<polygon clip-path="url(#SVGID_2_)" fill="#E2E2E2" points="301.928,256.674 303.828,255.527 303.914,223.932 302.016,225.077 	"/>
	<polygon clip-path="url(#SVGID_2_)" fill="#CECECE" points="302.016,225.077 303.914,223.932 263.215,199.555 261.313,200.699 	"/>
	<polygon clip-path="url(#SVGID_2_)" fill="#FBFBFB" points="261.314,200.7 261.228,232.298 301.929,256.672 302.016,225.078 	"/>
	<polygon clip-path="url(#SVGID_2_)" fill="#E2E2E2" points="301.928,256.674 303.828,255.527 303.914,223.932 302.016,225.077 	"/>
	<polygon clip-path="url(#SVGID_2_)" fill="#CECECE" points="302.016,225.077 303.914,223.932 263.215,199.555 261.313,200.699 	"/>
	<polygon clip-path="url(#SVGID_2_)" fill="#FBFBFB" points="261.314,200.7 261.228,232.298 301.929,256.672 302.016,225.078 	"/>
	<polygon clip-path="url(#SVGID_2_)" fill="#599DB1" points="282.226,233.139 284.124,231.993 260.287,217.714 258.387,218.86 	"/>
	<polygon clip-path="url(#SVGID_2_)" fill="#599DB1" points="288.023,232.623 289.923,231.478 284.124,231.992 282.226,233.139 	"/>
	<polygon clip-path="url(#SVGID_2_)" fill="#75B9C7" points="303.227,277.973 305.125,276.827 305.226,240.642 303.325,241.788 	"/>
	<polygon clip-path="url(#SVGID_2_)" fill="#599DB1" points="303.325,241.788 305.226,240.644 289.923,231.478 288.023,232.623 	"/>
	<polygon clip-path="url(#SVGID_2_)" fill="#5FA7BC" points="288.023,232.623 282.226,233.139 258.387,218.86 258.298,251.063 
		303.227,277.973 303.325,241.788 	"/>
	<polygon clip-path="url(#SVGID_2_)" fill="#85D5E0" points="289.923,231.478 284.127,231.993 260.288,217.716 258.386,218.86 
		282.226,233.139 288.023,232.623 303.325,241.788 303.227,277.973 305.127,276.827 305.225,240.642 	"/>
	<polygon clip-path="url(#SVGID_2_)" fill="#5DA2AF" points="288.023,232.623 282.226,233.139 258.387,218.86 258.298,251.063 
		303.227,277.973 303.325,241.788 	"/>
	<g clip-path="url(#SVGID_2_)">
		<defs>
			<rect id="SVGID_81_" x="-29" y="-4.761" width="612" height="372.523"/>
		</defs>
		<clipPath id="SVGID_82_">
			<use xlink:href="#SVGID_81_"  overflow="visible"/>
		</clipPath>
		<path clip-path="url(#SVGID_82_)" fill="#C67841" d="M251.09,136.271l-3.26,1.852c-0.344,0.299-0.577,0.751-0.729,1.285
			l0.15,0.287l3.629,6.155L251.09,136.271 M274.527,149.012l-0.211,9.602l3.997-2.207c-0.127-0.688-0.334-1.38-0.648-2.038
			L274.527,149.012 M263.054,130.435c-0.629-0.343-1.265-0.227-2.111,0.24l-2.803,1.592l9.666,5.263l-2.68-4.578
			C264.306,131.58,263.683,130.777,263.054,130.435"/>
		<path clip-path="url(#SVGID_82_)" fill="#E3E5E5" d="M254.82,146.534l0.065-2.886l15.616,8.504l-0.064,2.886L254.82,146.534
			 M254.948,140.761l0.063-2.886l15.616,8.504l-0.064,2.886L254.948,140.761 M274.698,141.283l-6.894-3.752l-9.665-5.264
			l-6.879-3.746l-0.17,7.749l-0.212,9.579l7.197,12.204l2.294-1.38c0.839-0.474,1.479-0.585,2.108-0.243
			c0.636,0.346,1.261,1.154,2.075,2.521l2.196,3.844l7.567-4.18l0.211-9.601L274.698,141.283"/>
		<path clip-path="url(#SVGID_82_)" fill="#DEA555" d="M262.478,156.429c-0.63-0.343-1.269-0.231-2.109,0.244l-2.293,1.379
			l0.62,1.052l1.642-0.989c0.958-0.539,1.551-0.73,2.123-0.418c0.585,0.319,1.149,1.164,2.06,2.696l1.576,2.76l0.651-0.359
			l-2.196-3.843C263.739,157.583,263.113,156.775,262.478,156.429"/>
		<path clip-path="url(#SVGID_82_)" fill="#C1C4C3" d="M270.5,152.152l-15.614-8.504l-0.065,2.886l15.617,8.504L270.5,152.152z
			 M270.627,146.38l-15.616-8.503l-0.063,2.886l15.615,8.504L270.627,146.38"/>
		<path clip-path="url(#SVGID_82_)" fill="#DEA555" d="M278.312,156.406l-3.997,2.208l-7.568,4.18l-0.651,0.358l11.252,19.708
			c-0.175,0.351-0.398,0.62-0.659,0.805c-0.446,0.329-1.008,0.396-1.622,0.164l-26.021-14.172c-0.631-0.447-1.193-1.149-1.628-1.991
			l0.006-0.002c-0.231-0.449-0.424-0.935-0.57-1.436l11.841-7.125l-0.62-1.052l-7.197-12.204l-3.629-6.155l-0.177-0.3l-0.542,24.554
			c-0.052,2.391,1.215,5.042,2.831,5.923l25.387,13.826c1.618,0.882,2.97-0.343,3.022-2.735L278.312,156.406"/>
		<path clip-path="url(#SVGID_82_)" fill="#E1AB5C" d="M262.4,160.171l-14.345,8.5c-0.232-0.304-0.444-0.643-0.63-1.007
			l-0.005,0.002c0.435,0.842,0.998,1.542,1.627,1.991l26.021,14.172c0.614,0.232,1.176,0.165,1.622-0.163
			c-0.185,0.131-0.39,0.223-0.61,0.267L262.4,160.171"/>
		<path clip-path="url(#SVGID_82_)" fill="#EDD0A5" d="M262.46,157.696c-0.572-0.312-1.165-0.121-2.123,0.418l-1.643,0.989
			l-11.84,7.125c0.147,0.501,0.34,0.987,0.57,1.436c0.187,0.364,0.397,0.704,0.63,1.007l14.344-8.5l13.68,23.761
			c0.22-0.044,0.425-0.136,0.611-0.267c0.26-0.186,0.484-0.455,0.658-0.805l-11.25-19.708l-1.576-2.76
			C263.611,158.86,263.046,158.017,262.46,157.696"/>
		<path clip-path="url(#SVGID_82_)" fill="#FBFBFB" d="M228.956,13.393l7.34,4.726c-4.445-2.862-10.771-2.753-17.908,1.001
			c-2.788,1.468-5.484,3.39-8.035,5.636l-7.339-4.726c2.552-2.247,5.247-4.168,8.034-5.634
			C218.185,10.641,224.512,10.532,228.956,13.393"/>
		<path clip-path="url(#SVGID_82_)" fill="#FBFBFB" d="M120.311,41.512c6.251-3.289,12.041-4.521,16.991-3.948
			c7.496-12.595,17.999-23.556,29.428-29.569c10.867-5.719,20.498-5.883,27.262-1.528l7.34,4.726
			c-6.766-4.356-16.396-4.192-27.264,1.526c-11.428,6.017-21.931,16.977-29.428,29.569c-4.951-0.57-10.738,0.659-16.991,3.951
			c-19.329,10.172-35.706,36.126-36.571,57.977c-0.43,10.849,3.051,18.644,9.031,22.496l-7.338-4.725
			c-5.982-3.851-9.461-11.647-9.031-22.497C84.603,77.641,100.98,51.685,120.311,41.512"/>
		<path clip-path="url(#SVGID_82_)" fill="#E2E2E2" d="M174.069,12.72c-11.429,6.015-21.932,16.976-29.428,29.569
			c-4.951-0.572-10.738,0.657-16.991,3.947c-19.329,10.174-35.707,36.128-36.571,57.979c-0.865,21.84,14.111,31.302,33.441,21.13
			l91.572-48.193c14.182-7.463,26.195-26.506,26.829-42.53c0.635-16.023-10.351-22.965-24.532-15.5
			c-2.788,1.467-5.484,3.387-8.035,5.634C206.337,8.885,191.862,3.356,174.069,12.72"/>
	</g>
	<polygon clip-path="url(#SVGID_2_)" fill="#B52E41" points="190.479,93.795 189.147,94.474 187.766,57.561 176.193,53.056 
		148.98,66.921 150.742,114.042 138.22,120.423 166.562,166.366 178.134,170.87 202.051,98.301 	"/>
	<polygon clip-path="url(#SVGID_2_)" fill="#AD2C3F" points="189.529,104.681 177.956,100.176 190.479,93.794 202.051,98.302 	"/>
	<polygon clip-path="url(#SVGID_2_)" fill="#6D1C28" points="149.793,124.927 138.221,120.423 166.562,166.364 178.134,170.87 	"/>
	<polygon clip-path="url(#SVGID_2_)" fill="#AD2C3F" points="149.793,124.927 138.221,120.423 150.744,114.042 162.315,118.547 	"/>
	<polygon clip-path="url(#SVGID_2_)" fill="#7A1F2C" points="162.315,118.546 150.742,114.042 148.979,66.922 160.552,71.428 	"/>
	<polygon clip-path="url(#SVGID_2_)" fill="#AD2C3F" points="160.552,71.428 148.979,66.922 176.193,53.055 187.766,57.56 	"/>
	<polygon clip-path="url(#SVGID_2_)" fill="#B52E41" points="189.529,104.681 202.051,98.302 190.092,134.592 178.134,170.87 
		163.969,147.903 149.793,124.927 162.315,118.547 160.553,71.427 187.766,57.561 	"/>
</g>
</svg>
