<?xml version="1.0" encoding="utf-8"?>
<!-- Generator: Adobe Illustrator 16.0.0, SVG Export Plug-In . SVG Version: 6.00 Build 0)  -->
<!DOCTYPE svg PUBLIC "-//W3C//DTD SVG 1.1//EN" "http://www.w3.org/Graphics/SVG/1.1/DTD/svg11.dtd">
<svg version="1.1" id="Camada_1" xmlns="http://www.w3.org/2000/svg" xmlns:xlink="http://www.w3.org/1999/xlink" x="0px" y="0px"
	 width="585px" height="360px" viewBox="0 0 585 360" enable-background="new 0 0 585 360" xml:space="preserve">
<rect y="0.001" fill="#00FFBD" width="584.998" height="369.123"/>
<g>
	<g opacity="0.2">
		<g>
			<defs>
				<rect id="SVGID_1_" x="92.759" y="186.27" width="542.251" height="225.693"/>
			</defs>
			<clipPath id="SVGID_2_">
				<use xlink:href="#SVGID_1_"  overflow="visible"/>
			</clipPath>
			<g clip-path="url(#SVGID_2_)">
				<defs>
					<polygon id="SVGID_3_" points="178.617,281.106 351.541,201.584 635.01,219.547 382.951,411.963 					"/>
				</defs>
				<clipPath id="SVGID_4_">
					<use xlink:href="#SVGID_3_"  overflow="visible"/>
				</clipPath>
				<polygon clip-path="url(#SVGID_4_)" fill="#2B241D" points="363.938,186.271 157.613,198.363 151.287,203.015 159.582,206.644 
					92.758,255.798 257.071,329.767 476.338,326.539 562.357,272.994 556.023,277.651 562.357,272.994 				"/>
			</g>
		</g>
	</g>
	<polygon fill="#FFFFFF" points="125.791,265.16 251.279,329.767 459.896,222.063 334.568,157.458 	"/>
	<polygon fill="#BAB29B" points="459.896,113.71 459.896,222.065 251.279,329.767 251.279,221.413 	"/>
	<polygon fill="#CBC4AB" points="125.791,265.16 125.791,156.803 251.279,221.414 251.279,329.767 	"/>
	<line fill="#C6B6B4" x1="125.454" y1="178.753" x2="251.279" y2="243.617"/>
	<polygon fill="#887678" points="251.144,243.826 125.319,178.96 125.589,178.543 251.413,243.41 	"/>
	<line fill="#C6B6B4" x1="125.454" y1="200.425" x2="251.279" y2="265.289"/>
	<polygon fill="#887678" points="251.144,265.495 125.319,200.635 125.589,200.216 251.413,265.079 	"/>
	<line fill="#C6B6B4" x1="251.279" y1="286.793" x2="125.454" y2="221.413"/>
	<polygon fill="#887678" points="251.144,287.001 125.319,221.62 125.589,221.205 251.413,286.584 	"/>
	<line fill="#C6B6B4" x1="125.454" y1="243.56" x2="251.119" y2="308.22"/>
	<polygon fill="#887678" points="250.984,308.429 125.319,243.769 125.589,243.35 251.254,308.01 	"/>
	<line fill="#C6B6B4" x1="125.786" y1="167.951" x2="251.119" y2="232.869"/>
	<polygon fill="#887678" points="250.984,233.075 125.651,168.157 125.921,167.743 251.254,232.661 	"/>
	<line fill="#C6B6B4" x1="125.786" y1="189.877" x2="251.119" y2="254.793"/>
	<polygon fill="#887678" points="250.984,255 125.651,190.085 125.921,189.67 251.254,254.584 	"/>
	<line fill="#C6B6B4" x1="125.786" y1="211.104" x2="251.119" y2="276.018"/>
	<polygon fill="#887678" points="250.984,276.225 125.651,211.312 125.921,210.896 251.254,275.811 	"/>
	<line fill="#C6B6B4" x1="125.786" y1="232.827" x2="251.119" y2="297.742"/>
	<polygon fill="#887678" points="250.984,297.951 125.651,233.035 125.921,232.619 251.254,297.536 	"/>
	<line fill="#C6B6B4" x1="125.786" y1="254.793" x2="251.119" y2="319.708"/>
	<polygon fill="#887678" points="250.984,319.916 125.651,255 125.921,254.586 251.254,319.501 	"/>
	<line fill="#C6B6B4" x1="136.222" y1="162.177" x2="136.062" y2="173.63"/>
	<path fill="#887678" d="M136.062,173.87h-0.003c-0.148-0.002-0.269-0.11-0.266-0.243l0.158-11.452
		c0.003-0.134,0.125-0.233,0.274-0.238c0.147,0.003,0.268,0.109,0.265,0.243l-0.159,11.453
		C136.328,173.765,136.209,173.87,136.062,173.87"/>
	<line fill="#C6B6B4" x1="142.259" y1="176.482" x2="142.259" y2="187.757"/>
	<path fill="#887678" d="M142.259,187.997c-0.15,0-0.271-0.107-0.271-0.24v-11.274c0-0.132,0.12-0.239,0.271-0.239
		c0.147,0,0.269,0.107,0.269,0.239v11.274C142.527,187.89,142.406,187.997,142.259,187.997"/>
	<line fill="#C6B6B4" x1="136.222" y1="184.386" x2="136.062" y2="195.549"/>
	<path fill="#887678" d="M136.062,195.789h-0.003c-0.148-0.002-0.269-0.112-0.266-0.244l0.158-11.162
		c0.003-0.133,0.125-0.227,0.274-0.237c0.147,0.002,0.268,0.112,0.265,0.243l-0.159,11.162
		C136.328,195.685,136.209,195.789,136.062,195.789"/>
	<line fill="#C6B6B4" x1="142.259" y1="198.33" x2="142.259" y2="209.313"/>
	<path fill="#887678" d="M142.259,209.556c-0.15,0-0.271-0.108-0.271-0.24V198.33c0-0.133,0.12-0.24,0.271-0.24
		c0.147,0,0.269,0.107,0.269,0.24v10.985C142.527,209.447,142.406,209.556,142.259,209.556"/>
	<line fill="#C6B6B4" x1="136.222" y1="205.812" x2="136.062" y2="216.213"/>
	<path fill="#887678" d="M136.062,216.454h-0.003c-0.148-0.002-0.269-0.111-0.266-0.243l0.158-10.401
		c0.003-0.134,0.125-0.238,0.274-0.237c0.147,0.001,0.268,0.109,0.265,0.244l-0.159,10.4
		C136.328,216.349,136.209,216.454,136.062,216.454"/>
	<line fill="#C6B6B4" x1="142.271" y1="219.97" x2="142.271" y2="230.351"/>
	<path fill="#887678" d="M142.271,230.59c-0.15,0-0.27-0.108-0.27-0.239v-10.382c0-0.131,0.119-0.238,0.27-0.238
		c0.148,0,0.27,0.107,0.27,0.238v10.382C142.54,230.481,142.419,230.59,142.271,230.59"/>
	<line fill="#C6B6B4" x1="136.222" y1="226.968" x2="136.062" y2="238.134"/>
	<path fill="#887678" d="M136.062,238.372h-0.003c-0.148,0-0.269-0.111-0.266-0.244l0.158-11.162
		c0.003-0.134,0.125-0.248,0.274-0.238c0.147,0.002,0.268,0.11,0.265,0.244l-0.159,11.164
		C136.328,238.267,136.209,238.372,136.062,238.372"/>
	<line fill="#C6B6B4" x1="142.259" y1="241.348" x2="142.259" y2="252.333"/>
	<path fill="#887678" d="M142.259,252.573c-0.15,0-0.271-0.109-0.271-0.24v-10.985c0-0.134,0.12-0.241,0.271-0.241
		c0.147,0,0.269,0.107,0.269,0.241v10.985C142.527,252.464,142.406,252.573,142.259,252.573"/>
	<line fill="#C6B6B4" x1="136.222" y1="248.994" x2="136.062" y2="260.154"/>
	<path fill="#887678" d="M136.062,260.394h-0.003c-0.148,0-0.269-0.108-0.266-0.243l0.158-11.163c0.003-0.13,0.122-0.235,0.27-0.235
		h0.005c0.147,0,0.268,0.11,0.265,0.242l-0.159,11.161C136.328,260.29,136.209,260.394,136.062,260.394"/>
	<line fill="#C6B6B4" x1="142.259" y1="263.371" x2="142.259" y2="274.355"/>
	<path fill="#887678" d="M142.259,274.597c-0.15,0-0.271-0.107-0.271-0.241v-10.984c0-0.131,0.12-0.238,0.271-0.238
		c0.147,0,0.269,0.107,0.269,0.238v10.984C142.527,274.489,142.406,274.597,142.259,274.597"/>
	<line fill="#C6B6B4" x1="155.782" y1="172.146" x2="155.622" y2="183.601"/>
	<path fill="#887678" d="M155.622,183.841c-0.17-0.002-0.271-0.107-0.27-0.243l0.16-11.455c0.003-0.132,0.122-0.237,0.27-0.237
		c0.118-0.01,0.271,0.107,0.269,0.243l-0.159,11.456C155.889,183.736,155.77,183.841,155.622,183.841"/>
	<line fill="#C6B6B4" x1="161.818" y1="186.453" x2="161.818" y2="197.729"/>
	<path fill="#887678" d="M161.818,197.969c-0.15,0-0.27-0.108-0.27-0.24v-11.275c0-0.133,0.119-0.239,0.27-0.239
		c0.148,0,0.27,0.106,0.27,0.239v11.275C162.088,197.86,161.967,197.969,161.818,197.969"/>
	<line fill="#C6B6B4" x1="155.782" y1="194.353" x2="155.622" y2="205.519"/>
	<path fill="#887678" d="M155.622,205.759h-0.002c-0.149,0-0.27-0.109-0.268-0.243l0.16-11.166c0.003-0.132,0.122-0.236,0.27-0.236
		c0.118,0,0.271,0.107,0.269,0.242l-0.159,11.168C155.889,205.654,155.77,205.759,155.622,205.759"/>
	<line fill="#C6B6B4" x1="161.818" y1="208.3" x2="161.818" y2="219.283"/>
	<path fill="#887678" d="M161.818,219.525c-0.15,0-0.27-0.109-0.27-0.242v-10.984c0-0.13,0.119-0.238,0.27-0.238
		c0.148,0,0.27,0.108,0.27,0.238v10.984C162.088,219.416,161.967,219.525,161.818,219.525"/>
	<line fill="#C6B6B4" x1="155.782" y1="216.173" x2="155.622" y2="226.577"/>
	<path fill="#887678" d="M155.622,226.817c-0.17-0.014-0.271-0.109-0.27-0.243l0.16-10.406c0.003-0.131,0.122-0.237,0.27-0.237
		c0.118-0.001,0.271,0.109,0.269,0.244l-0.159,10.405C155.889,226.714,155.77,226.817,155.622,226.817"/>
	<line fill="#C6B6B4" x1="161.831" y1="229.941" x2="161.831" y2="240.321"/>
	<path fill="#887678" d="M161.831,240.562c-0.148,0-0.27-0.109-0.27-0.241v-10.38c0-0.133,0.121-0.241,0.27-0.241
		c0.149,0,0.27,0.108,0.27,0.241v10.38C162.101,240.453,161.98,240.562,161.831,240.562"/>
	<line fill="#C6B6B4" x1="155.782" y1="237.343" x2="155.622" y2="248.104"/>
	<path fill="#887678" d="M155.622,248.344c-0.17,0.008-0.271-0.109-0.27-0.244l0.16-10.76c0.003-0.133,0.14-0.215,0.273-0.237
		c0.147,0.002,0.268,0.111,0.265,0.243l-0.159,10.76C155.889,248.239,155.77,248.344,155.622,248.344"/>
	<line fill="#C6B6B4" x1="161.818" y1="251.316" x2="161.818" y2="262.303"/>
	<path fill="#887678" d="M161.818,262.543c-0.15,0-0.27-0.107-0.27-0.24v-10.986c0-0.131,0.119-0.238,0.27-0.238
		c0.148,0,0.27,0.107,0.27,0.238v10.986C162.088,262.436,161.967,262.543,161.818,262.543"/>
	<line fill="#C6B6B4" x1="155.782" y1="258.959" x2="155.622" y2="270.126"/>
	<path fill="#887678" d="M155.622,270.364c-0.17,0.005-0.271-0.106-0.27-0.243l0.16-11.164c0.003-0.134,0.14-0.219,0.273-0.237
		c0.147,0.001,0.268,0.111,0.265,0.243l-0.159,11.166C155.889,270.26,155.77,270.364,155.622,270.364"/>
	<line fill="#C6B6B4" x1="161.818" y1="273.338" x2="161.818" y2="284.324"/>
	<path fill="#887678" d="M161.818,284.566c-0.15,0-0.27-0.107-0.27-0.242v-10.986c0-0.132,0.119-0.241,0.27-0.241
		c0.148,0,0.27,0.109,0.27,0.241v10.986C162.088,284.459,161.967,284.566,161.818,284.566"/>
	<line fill="#C6B6B4" x1="174.998" y1="182.065" x2="174.838" y2="193.521"/>
	<path fill="#887678" d="M174.838,193.76h-0.003c-0.148-0.001-0.269-0.111-0.267-0.245l0.16-11.45
		c0.002-0.133,0.121-0.24,0.269-0.24h0.006c0.146,0.003,0.266,0.111,0.264,0.244l-0.159,11.454
		C175.104,193.653,174.985,193.76,174.838,193.76"/>
	<line fill="#C6B6B4" x1="181.038" y1="196.373" x2="181.038" y2="207.646"/>
	<path fill="#887678" d="M181.038,207.887c-0.149,0-0.27-0.108-0.27-0.24v-11.271c0-0.133,0.12-0.242,0.27-0.242
		c0.15,0,0.27,0.109,0.27,0.242v11.271C181.308,207.778,181.188,207.887,181.038,207.887"/>
	<line fill="#C6B6B4" x1="174.998" y1="204.274" x2="174.838" y2="215.438"/>
	<path fill="#887678" d="M174.838,215.678h-0.003c-0.148-0.001-0.269-0.111-0.267-0.244l0.16-11.161
		c0.002-0.134,0.121-0.237,0.269-0.237h0.006c0.146,0.001,0.266,0.108,0.264,0.243l-0.159,11.163
		C175.104,215.571,174.985,215.678,174.838,215.678"/>
	<line fill="#C6B6B4" x1="181.038" y1="218.219" x2="181.038" y2="229.205"/>
	<path fill="#887678" d="M181.038,229.444c-0.149,0-0.27-0.106-0.27-0.241v-10.984c0-0.133,0.12-0.241,0.27-0.241
		c0.15,0,0.27,0.108,0.27,0.241v10.984C181.308,229.338,181.188,229.444,181.038,229.444"/>
	<line fill="#C6B6B4" x1="174.998" y1="226.092" x2="174.838" y2="236.496"/>
	<path fill="#887678" d="M174.838,236.737h-0.003c-0.148-0.001-0.269-0.11-0.267-0.243l0.16-10.406
		c0.002-0.132,0.121-0.236,0.269-0.236h0.006c0.146,0.001,0.266,0.11,0.264,0.245l-0.159,10.404
		C175.104,236.632,174.985,236.737,174.838,236.737"/>
	<line fill="#C6B6B4" x1="181.047" y1="239.858" x2="181.047" y2="250.239"/>
	<path fill="#887678" d="M181.047,250.479c-0.149,0-0.27-0.107-0.27-0.24v-10.378c0-0.134,0.12-0.244,0.27-0.244
		s0.269,0.11,0.269,0.244v10.378C181.315,250.372,181.196,250.479,181.047,250.479"/>
	<line fill="#C6B6B4" x1="174.998" y1="247.267" x2="174.838" y2="258.02"/>
	<path fill="#887678" d="M174.838,258.262h-0.003c-0.148,0-0.269-0.111-0.267-0.244l0.16-10.755
		c0.002-0.131,0.121-0.234,0.269-0.234c0.182-0.01,0.27,0.106,0.27,0.242l-0.159,10.755
		C175.104,258.156,174.985,258.262,174.838,258.262"/>
	<line fill="#C6B6B4" x1="181.038" y1="261.236" x2="181.038" y2="272.224"/>
	<path fill="#887678" d="M181.038,272.463c-0.149,0-0.27-0.109-0.27-0.239v-10.987c0-0.132,0.12-0.239,0.27-0.239
		c0.15,0,0.27,0.107,0.27,0.239v10.987C181.308,272.354,181.188,272.463,181.038,272.463"/>
	<line fill="#C6B6B4" x1="174.998" y1="268.88" x2="174.838" y2="280.044"/>
	<path fill="#887678" d="M174.838,280.284h-0.003c-0.148-0.003-0.269-0.112-0.267-0.244l0.16-11.163
		c0.002-0.133,0.121-0.235,0.269-0.235c0.182-0.008,0.27,0.107,0.27,0.24l-0.159,11.164
		C175.104,280.177,174.985,280.284,174.838,280.284"/>
	<line fill="#C6B6B4" x1="181.038" y1="283.26" x2="181.038" y2="294.244"/>
	<path fill="#887678" d="M181.038,294.486c-0.149,0-0.27-0.107-0.27-0.242V283.26c0-0.134,0.12-0.241,0.27-0.241
		c0.15,0,0.27,0.107,0.27,0.241v10.984C181.308,294.379,181.188,294.486,181.038,294.486"/>
	<line fill="#C6B6B4" x1="194.264" y1="192.013" x2="194.104" y2="203.466"/>
	<path fill="#887678" d="M194.104,203.708L194.104,203.708c-0.151,0-0.271-0.111-0.269-0.244l0.159-11.455
		c0.002-0.132,0.122-0.236,0.27-0.236h0.005c0.148,0,0.268,0.108,0.266,0.241l-0.161,11.457
		C194.372,203.603,194.251,203.708,194.104,203.708"/>
	<line fill="#C6B6B4" x1="200.3" y1="206.318" x2="200.3" y2="217.596"/>
	<path fill="#887678" d="M200.3,217.837c-0.148,0-0.27-0.107-0.27-0.241v-11.279c0-0.132,0.121-0.238,0.27-0.238
		c0.15,0,0.27,0.106,0.27,0.238v11.279C200.569,217.729,200.45,217.837,200.3,217.837"/>
	<line fill="#C6B6B4" x1="194.264" y1="214.221" x2="194.104" y2="225.387"/>
	<path fill="#887678" d="M194.104,225.626L194.104,225.626c-0.151-0.001-0.271-0.11-0.269-0.244l0.159-11.166
		c0.002-0.131,0.122-0.237,0.27-0.237h0.005c0.148,0.001,0.268,0.111,0.266,0.243l-0.161,11.167
		C194.372,225.522,194.251,225.626,194.104,225.626"/>
	<line fill="#C6B6B4" x1="200.3" y1="228.167" x2="200.3" y2="239.15"/>
	<path fill="#887678" d="M200.3,239.393c-0.148,0-0.27-0.11-0.27-0.243v-10.982c0-0.133,0.121-0.241,0.27-0.241
		c0.15,0,0.27,0.108,0.27,0.241v10.982C200.569,239.282,200.45,239.393,200.3,239.393"/>
	<line fill="#C6B6B4" x1="194.264" y1="236.04" x2="194.104" y2="246.444"/>
	<path fill="#887678" d="M194.104,246.684L194.104,246.684c-0.151-0.001-0.271-0.111-0.269-0.243l0.159-10.402
		c0.002-0.134,0.122-0.238,0.27-0.238h0.005c0.148,0.002,0.268,0.11,0.266,0.245l-0.161,10.401
		C194.372,246.576,194.251,246.684,194.104,246.684"/>
	<line fill="#C6B6B4" x1="200.312" y1="249.807" x2="200.312" y2="260.188"/>
	<path fill="#887678" d="M200.312,260.428c-0.149,0-0.27-0.109-0.27-0.24v-10.381c0-0.131,0.12-0.24,0.27-0.24
		s0.269,0.109,0.269,0.24v10.381C200.581,260.318,200.462,260.428,200.312,260.428"/>
	<line fill="#C6B6B4" x1="194.264" y1="257.211" x2="194.104" y2="267.967"/>
	<path fill="#887678" d="M194.104,268.207L194.104,268.207c-0.151,0-0.271-0.109-0.269-0.244l0.159-10.754
		c0.002-0.134,0.122-0.238,0.27-0.238h0.005c0.148,0.002,0.268,0.109,0.266,0.244l-0.161,10.757
		C194.372,268.103,194.251,268.207,194.104,268.207"/>
	<line fill="#C6B6B4" x1="200.3" y1="271.184" x2="200.3" y2="282.168"/>
	<path fill="#887678" d="M200.3,282.41c-0.148,0-0.27-0.111-0.27-0.242v-10.984c0-0.135,0.121-0.242,0.27-0.242
		c0.15,0,0.27,0.107,0.27,0.242v10.984C200.569,282.299,200.45,282.41,200.3,282.41"/>
	<line fill="#C6B6B4" x1="194.264" y1="278.826" x2="194.104" y2="289.992"/>
	<path fill="#887678" d="M194.104,290.232L194.104,290.232c-0.151-0.002-0.271-0.111-0.269-0.243l0.159-11.169
		c0.002-0.131,0.122-0.235,0.27-0.235h0.005c0.148,0,0.268,0.109,0.266,0.241l-0.161,11.168
		C194.372,290.125,194.251,290.232,194.104,290.232"/>
	<line fill="#C6B6B4" x1="200.3" y1="293.203" x2="200.3" y2="304.191"/>
	<path fill="#887678" d="M200.3,304.433c-0.148,0-0.27-0.108-0.27-0.241v-10.985c0-0.133,0.121-0.243,0.27-0.243
		c0.15,0,0.27,0.11,0.27,0.243v10.985C200.569,304.324,200.45,304.433,200.3,304.433"/>
	<line fill="#C6B6B4" x1="213.618" y1="201.934" x2="213.459" y2="213.389"/>
	<path fill="#887678" d="M213.458,213.631h-0.003c-0.147-0.002-0.269-0.113-0.267-0.245l0.16-11.456
		c0.003-0.13,0.132-0.227,0.274-0.236c0.146,0.001,0.267,0.111,0.264,0.244l-0.159,11.456
		C213.726,213.523,213.606,213.631,213.458,213.631"/>
	<line fill="#C6B6B4" x1="219.654" y1="216.237" x2="219.654" y2="227.517"/>
	<path fill="#887678" d="M219.654,227.757c-0.148,0-0.27-0.108-0.27-0.24v-11.279c0-0.133,0.121-0.24,0.27-0.24
		s0.27,0.107,0.27,0.24v11.279C219.924,227.648,219.803,227.757,219.654,227.757"/>
	<line fill="#C6B6B4" x1="213.618" y1="224.142" x2="213.459" y2="235.304"/>
	<path fill="#887678" d="M213.458,235.544c-0.17-0.001-0.271-0.108-0.27-0.243l0.16-11.162c0.003-0.134,0.132-0.223,0.274-0.237
		c0.146,0.002,0.267,0.11,0.264,0.243l-0.159,11.163C213.726,235.438,213.606,235.544,213.458,235.544"/>
	<line fill="#C6B6B4" x1="219.654" y1="238.087" x2="219.654" y2="249.071"/>
	<path fill="#887678" d="M219.654,249.312c-0.148,0-0.27-0.111-0.27-0.243v-10.982c0-0.135,0.121-0.244,0.27-0.244
		s0.27,0.109,0.27,0.244v10.982C219.924,249.201,219.803,249.312,219.654,249.312"/>
	<line fill="#C6B6B4" x1="213.618" y1="245.959" x2="213.459" y2="256.366"/>
	<path fill="#887678" d="M213.458,256.606h-0.003c-0.147-0.003-0.269-0.111-0.267-0.246l0.16-10.403
		c0.003-0.131,0.132-0.226,0.274-0.236c0.146,0,0.267,0.11,0.264,0.243l-0.159,10.404
		C213.726,256.499,213.606,256.606,213.458,256.606"/>
	<line fill="#C6B6B4" x1="219.667" y1="259.725" x2="219.667" y2="270.109"/>
	<path fill="#887678" d="M219.667,270.351c-0.149,0-0.27-0.11-0.27-0.241v-10.383c0-0.133,0.12-0.243,0.27-0.243
		c0.148,0,0.27,0.11,0.27,0.243v10.383C219.937,270.24,219.815,270.351,219.667,270.351"/>
	<line fill="#C6B6B4" x1="213.618" y1="267.134" x2="213.459" y2="277.89"/>
	<path fill="#887678" d="M213.458,278.129c-0.17-0.021-0.271-0.108-0.27-0.242l0.16-10.756c0.003-0.133,0.122-0.237,0.269-0.237
		c0.118,0.008,0.272,0.107,0.27,0.244l-0.159,10.753C213.726,278.025,213.606,278.129,213.458,278.129"/>
	<line fill="#C6B6B4" x1="219.654" y1="281.106" x2="219.654" y2="292.095"/>
	<path fill="#887678" d="M219.654,292.332c-0.148,0-0.27-0.107-0.27-0.241v-10.984c0-0.131,0.121-0.238,0.27-0.238
		s0.27,0.107,0.27,0.238v10.984C219.924,292.225,219.803,292.332,219.654,292.332"/>
	<line fill="#C6B6B4" x1="213.618" y1="288.749" x2="213.459" y2="299.914"/>
	<path fill="#887678" d="M213.458,300.152h-0.003c-0.147,0-0.269-0.109-0.267-0.243l0.16-11.164c0.003-0.13,0.122-0.237,0.269-0.237
		c0.118,0.011,0.272,0.11,0.27,0.243l-0.159,11.166C213.726,300.049,213.606,300.152,213.458,300.152"/>
	<line fill="#C6B6B4" x1="219.654" y1="303.126" x2="219.654" y2="314.116"/>
	<path fill="#887678" d="M219.654,314.357c-0.148,0-0.27-0.11-0.27-0.241v-10.99c0-0.133,0.121-0.24,0.27-0.24s0.27,0.107,0.27,0.24
		v10.99C219.924,314.247,219.803,314.357,219.654,314.357"/>
	<line fill="#C6B6B4" x1="232.573" y1="211.879" x2="232.413" y2="223.334"/>
	<path fill="#887678" d="M232.413,223.574h-0.005c-0.146-0.001-0.268-0.11-0.265-0.245l0.159-11.454
		c0.003-0.132,0.157-0.233,0.274-0.237c0.147,0.001,0.268,0.111,0.265,0.242l-0.159,11.457
		C232.68,223.469,232.561,223.574,232.413,223.574"/>
	<line fill="#C6B6B4" x1="238.608" y1="226.186" x2="238.608" y2="237.463"/>
	<path fill="#887678" d="M238.608,237.703c-0.148,0-0.269-0.109-0.269-0.24v-11.277c0-0.131,0.12-0.239,0.269-0.239
		c0.151,0,0.27,0.108,0.27,0.239v11.277C238.878,237.594,238.76,237.703,238.608,237.703"/>
	<line fill="#C6B6B4" x1="232.573" y1="234.09" x2="232.413" y2="245.253"/>
	<path fill="#887678" d="M232.413,245.493c-0.146-0.007-0.272-0.109-0.27-0.244l0.159-11.162c0.003-0.132,0.157-0.231,0.274-0.237
		c0.147,0,0.268,0.111,0.265,0.243l-0.159,11.163C232.68,245.386,232.561,245.493,232.413,245.493"/>
	<line fill="#C6B6B4" x1="238.608" y1="248.032" x2="238.608" y2="259.021"/>
	<path fill="#887678" d="M238.608,259.259c-0.148,0-0.269-0.107-0.269-0.241v-10.985c0-0.131,0.12-0.238,0.269-0.238
		c0.151,0,0.27,0.107,0.27,0.238v10.985C238.878,259.151,238.76,259.259,238.608,259.259"/>
	<line fill="#C6B6B4" x1="232.573" y1="255.908" x2="232.413" y2="266.315"/>
	<path fill="#887678" d="M232.413,266.554h-0.005c-0.146,0-0.268-0.11-0.265-0.244l0.159-10.407
		c0.003-0.133,0.157-0.233,0.274-0.237c0.147,0.002,0.268,0.111,0.265,0.246l-0.159,10.406
		C232.68,266.449,232.561,266.554,232.413,266.554"/>
	<line fill="#C6B6B4" x1="238.617" y1="269.674" x2="238.617" y2="280.057"/>
	<path fill="#887678" d="M238.617,280.298c-0.147,0-0.27-0.11-0.27-0.241v-10.383c0-0.135,0.122-0.242,0.27-0.242
		c0.15,0,0.27,0.107,0.27,0.242v10.383C238.887,280.188,238.768,280.298,238.617,280.298"/>
	<line fill="#C6B6B4" x1="232.573" y1="277.081" x2="232.413" y2="287.838"/>
	<path fill="#887678" d="M232.413,288.078c-0.146-0.028-0.272-0.109-0.27-0.242l0.159-10.758c0.003-0.132,0.122-0.235,0.27-0.235
		c0.144,0,0.272,0.107,0.27,0.239l-0.159,10.758C232.68,287.972,232.561,288.078,232.413,288.078"/>
	<line fill="#C6B6B4" x1="238.608" y1="291.052" x2="238.608" y2="302.039"/>
	<path fill="#887678" d="M238.608,302.277c-0.148,0-0.269-0.106-0.269-0.238v-10.987c0-0.133,0.12-0.24,0.269-0.24
		c0.151,0,0.27,0.107,0.27,0.24v10.987C238.878,302.171,238.76,302.277,238.608,302.277"/>
	<line fill="#C6B6B4" x1="232.573" y1="298.695" x2="232.413" y2="309.861"/>
	<path fill="#887678" d="M232.413,310.1h-0.005c-0.146,0-0.268-0.111-0.265-0.244l0.159-11.164c0.003-0.13,0.122-0.237,0.27-0.237
		c0.144,0.002,0.272,0.109,0.27,0.243l-0.159,11.166C232.68,309.994,232.561,310.1,232.413,310.1"/>
	<line fill="#C6B6B4" x1="238.608" y1="313.074" x2="238.608" y2="324.061"/>
	<path fill="#887678" d="M238.608,324.301c-0.148,0-0.269-0.11-0.269-0.24v-10.986c0-0.133,0.12-0.24,0.269-0.24
		c0.151,0,0.27,0.107,0.27,0.24v10.986C238.878,324.19,238.76,324.301,238.608,324.301"/>
	<polygon fill="#A38D8E" points="251.245,243.732 250.975,243.316 376.797,178.454 377.066,178.87 	"/>
	<polygon fill="#A38D8E" points="251.245,265.401 250.975,264.982 376.797,200.124 377.066,200.541 	"/>
	<polygon fill="#A38D8E" points="251.245,286.908 250.975,286.493 376.797,221.112 377.066,221.526 	"/>
	<polygon fill="#A38D8E" points="251.405,308.334 251.135,307.917 376.797,243.256 377.066,243.674 	"/>
	<polygon fill="#A38D8E" points="251.405,232.984 251.135,232.568 376.465,167.651 376.734,168.066 	"/>
	<polygon fill="#A38D8E" points="251.405,254.908 251.135,254.491 376.465,189.576 376.734,189.991 	"/>
	<polygon fill="#A38D8E" points="251.405,276.13 251.135,275.716 376.465,210.803 376.734,211.218 	"/>
	<polygon fill="#A38D8E" points="251.405,297.857 251.135,297.444 376.465,232.527 376.734,232.943 	"/>
	<polygon fill="#A38D8E" points="251.405,319.822 251.135,319.409 376.465,254.491 376.734,254.908 	"/>
	<path fill="#A38D8E" d="M366.328,173.78c-0.146,0-0.268-0.105-0.27-0.236l-0.16-11.456c-0.002-0.134,0.119-0.243,0.266-0.243
		c0.164,0.019,0.27,0.104,0.271,0.238l0.16,11.455c0.004,0.132-0.117,0.241-0.264,0.242H366.328z"/>
	<path fill="#A38D8E" d="M360.127,187.903c-0.146,0-0.27-0.107-0.27-0.241V176.39c0-0.131,0.123-0.24,0.27-0.24
		c0.15,0,0.27,0.109,0.27,0.24v11.272C360.396,187.796,360.277,187.903,360.127,187.903"/>
	<path fill="#A38D8E" d="M366.328,195.698c-0.146,0-0.268-0.104-0.27-0.235l-0.16-11.169c-0.002-0.132,0.119-0.24,0.266-0.242h0.002
		c0.15,0,0.268,0.104,0.27,0.237l0.16,11.165C366.596,195.591,366.506,195.706,366.328,195.698"/>
	<path fill="#A38D8E" d="M360.127,209.463c-0.146,0-0.27-0.107-0.27-0.24v-10.985c0-0.133,0.123-0.241,0.27-0.241
		c0.15,0,0.27,0.108,0.27,0.241v10.985C360.396,209.355,360.277,209.463,360.127,209.463"/>
	<path fill="#A38D8E" d="M366.328,216.363c-0.146,0-0.268-0.106-0.27-0.236l-0.16-10.407c-0.002-0.133,0.119-0.242,0.266-0.244
		c0.164,0.017,0.27,0.104,0.271,0.236l0.16,10.408c0.004,0.132-0.117,0.242-0.264,0.243H366.328z"/>
	<path fill="#A38D8E" d="M360.115,230.501c-0.148,0-0.27-0.108-0.27-0.242v-10.381c0-0.133,0.121-0.24,0.27-0.24
		c0.15,0,0.27,0.107,0.27,0.24v10.381C360.385,230.393,360.266,230.501,360.115,230.501"/>
	<path fill="#A38D8E" d="M366.328,238.279c-0.146,0-0.268-0.104-0.27-0.234l-0.16-11.165c-0.002-0.132,0.119-0.24,0.266-0.241
		c0.164,0,0.27,0.102,0.271,0.237l0.16,11.16C366.596,238.172,366.506,238.274,366.328,238.279"/>
	<path fill="#A38D8E" d="M360.127,252.481c-0.146,0-0.27-0.107-0.27-0.237v-10.991c0-0.133,0.123-0.24,0.27-0.24
		c0.15,0,0.27,0.107,0.27,0.24v10.991C360.396,252.374,360.277,252.481,360.127,252.481"/>
	<path fill="#A38D8E" d="M366.328,260.306c-0.146,0-0.268-0.107-0.27-0.238l-0.16-11.166c-0.002-0.131,0.119-0.241,0.266-0.243
		c0.164-0.005,0.27,0.104,0.271,0.238l0.16,11.162C366.596,260.195,366.506,260.292,366.328,260.306"/>
	<path fill="#A38D8E" d="M360.127,274.502c-0.146,0-0.27-0.107-0.27-0.241v-10.982c0-0.133,0.123-0.241,0.27-0.241
		c0.15,0,0.27,0.108,0.27,0.241v10.982C360.396,274.395,360.277,274.502,360.127,274.502"/>
	<path fill="#A38D8E" d="M346.768,183.747c-0.146,0-0.268-0.104-0.271-0.237l-0.158-11.455c-0.004-0.136,0.143-0.235,0.27-0.243
		c0.146,0,0.268,0.104,0.27,0.237l0.16,11.456c0.002,0.132-0.119,0.24-0.264,0.242H346.768z"/>
	<path fill="#A38D8E" d="M340.566,197.87c-0.15,0-0.271-0.106-0.271-0.24v-11.273c0-0.133,0.121-0.24,0.271-0.24
		s0.27,0.107,0.27,0.24v11.273C340.836,197.764,340.717,197.87,340.566,197.87"/>
	<path fill="#A38D8E" d="M346.768,205.665c-0.146,0-0.268-0.104-0.271-0.235l-0.158-11.166c-0.004-0.132,0.117-0.241,0.264-0.244
		c0.15-0.003,0.273,0.104,0.275,0.238l0.16,11.164C347.037,205.555,346.926,205.646,346.768,205.665"/>
	<path fill="#A38D8E" d="M340.566,219.432c-0.15,0-0.271-0.109-0.271-0.242v-10.983c0-0.132,0.121-0.24,0.271-0.24
		s0.27,0.108,0.27,0.24v10.983C340.836,219.322,340.717,219.432,340.566,219.432"/>
	<path fill="#A38D8E" d="M346.768,226.726c-0.146,0-0.268-0.105-0.271-0.237l-0.158-10.406c-0.004-0.133,0.117-0.241,0.264-0.245
		c0.15-0.006,0.273,0.104,0.275,0.237l0.16,10.407C347.037,226.617,346.926,226.73,346.768,226.726"/>
	<path fill="#A38D8E" d="M340.559,240.468c-0.148,0-0.27-0.109-0.27-0.239v-10.384c0-0.132,0.121-0.239,0.27-0.239
		s0.27,0.107,0.27,0.239v10.384C340.828,240.358,340.707,240.468,340.559,240.468"/>
	<path fill="#A38D8E" d="M346.768,248.247c-0.146,0-0.268-0.104-0.271-0.235l-0.158-10.756c-0.004-0.136,0.143-0.248,0.27-0.244
		c0.146,0,0.268,0.105,0.27,0.238l0.16,10.753c0.002,0.135-0.119,0.244-0.264,0.244H346.768z"/>
	<path fill="#A38D8E" d="M340.566,262.448c-0.15,0-0.271-0.106-0.271-0.24v-10.984c0-0.135,0.121-0.242,0.271-0.242
		s0.27,0.107,0.27,0.242v10.984C340.836,262.342,340.717,262.448,340.566,262.448"/>
	<path fill="#A38D8E" d="M346.768,270.272c-0.146,0-0.268-0.105-0.271-0.236l-0.158-11.165c-0.004-0.137,0.143-0.246,0.27-0.244
		c0.146,0,0.268,0.105,0.27,0.238l0.16,11.164c0.002,0.133-0.119,0.243-0.264,0.243H346.768z"/>
	<path fill="#A38D8E" d="M340.566,284.472c-0.15,0-0.271-0.107-0.271-0.24v-10.982c0-0.134,0.121-0.241,0.271-0.241
		s0.27,0.107,0.27,0.241v10.982C340.836,284.364,340.717,284.472,340.566,284.472"/>
	<path fill="#A38D8E" d="M327.547,193.67c-0.146,0-0.266-0.106-0.27-0.238l-0.16-11.46c-0.002-0.131,0.119-0.24,0.266-0.243h0.002
		c0.152,0,0.27,0.105,0.271,0.237l0.16,11.46c0.002,0.132-0.117,0.242-0.266,0.244H327.547z"/>
	<path fill="#A38D8E" d="M321.352,207.797c-0.148,0-0.269-0.108-0.269-0.242v-11.276c0-0.131,0.12-0.24,0.269-0.24
		s0.27,0.109,0.27,0.24v11.276C321.621,207.688,321.5,207.797,321.352,207.797"/>
	<path fill="#A38D8E" d="M327.547,215.588c-0.146,0-0.266-0.106-0.27-0.237l-0.16-11.166c-0.002-0.132,0.119-0.242,0.266-0.244
		h0.002c0.152,0,0.27,0.107,0.271,0.237l0.16,11.167c0.002,0.132-0.117,0.241-0.266,0.243H327.547z"/>
	<path fill="#A38D8E" d="M321.352,229.353c-0.148,0-0.269-0.108-0.269-0.241v-10.985c0-0.132,0.12-0.24,0.269-0.24
		s0.27,0.108,0.27,0.24v10.985C321.621,229.244,321.5,229.353,321.352,229.353"/>
	<path fill="#A38D8E" d="M327.547,236.646c-0.146,0-0.266-0.105-0.27-0.236l-0.16-10.406c-0.002-0.131,0.119-0.241,0.266-0.242
		h0.002c0.152,0,0.27,0.104,0.271,0.234l0.16,10.405c0.002,0.135-0.117,0.244-0.266,0.245H327.547z"/>
	<path fill="#A38D8E" d="M321.34,250.391c-0.15,0-0.27-0.11-0.27-0.243v-10.381c0-0.134,0.119-0.241,0.27-0.241
		c0.148,0,0.27,0.107,0.27,0.241v10.381C321.609,250.28,321.488,250.391,321.34,250.391"/>
	<path fill="#A38D8E" d="M327.547,258.17c-0.146,0-0.266-0.104-0.27-0.238l-0.16-10.756c-0.002-0.133,0.119-0.243,0.266-0.243h0.002
		c0.152,0,0.27,0.105,0.271,0.238l0.16,10.755c0.002,0.134-0.117,0.242-0.266,0.244H327.547z"/>
	<path fill="#A38D8E" d="M321.352,272.372c-0.148,0-0.269-0.107-0.269-0.241v-10.984c0-0.133,0.12-0.242,0.269-0.242
		s0.27,0.109,0.27,0.242v10.984C321.621,272.265,321.5,272.372,321.352,272.372"/>
	<path fill="#A38D8E" d="M327.547,280.192c-0.146,0-0.266-0.105-0.27-0.235l-0.16-11.166c-0.002-0.134,0.119-0.244,0.266-0.244
		h0.002c0.152,0,0.27,0.103,0.271,0.236l0.16,11.166c0.002,0.133-0.117,0.243-0.266,0.243H327.547z"/>
	<path fill="#A38D8E" d="M321.352,294.395c-0.148,0-0.269-0.109-0.269-0.24v-10.986c0-0.133,0.12-0.24,0.269-0.24
		s0.27,0.107,0.27,0.24v10.986C321.621,294.285,321.5,294.395,321.352,294.395"/>
	<path fill="#A38D8E" d="M308.286,203.613c-0.147,0-0.267-0.105-0.27-0.236l-0.159-11.456c-0.003-0.132,0.117-0.242,0.264-0.244
		h0.006c0.146,0,0.267,0.105,0.27,0.238l0.159,11.456c0.003,0.133-0.117,0.242-0.266,0.242H308.286z"/>
	<path fill="#A38D8E" d="M302.091,217.744c-0.148,0-0.27-0.109-0.27-0.242v-11.275c0-0.132,0.121-0.243,0.27-0.243
		s0.269,0.111,0.269,0.243v11.275C302.359,217.635,302.239,217.744,302.091,217.744"/>
	<path fill="#A38D8E" d="M308.286,225.532c-0.147,0-0.267-0.104-0.27-0.237l-0.159-11.162c-0.003-0.135,0.117-0.242,0.264-0.243
		h0.006c0.146,0,0.267,0.104,0.27,0.238l0.159,11.161c0.003,0.132-0.117,0.242-0.266,0.243H308.286z"/>
	<path fill="#A38D8E" d="M302.091,239.299c-0.148,0-0.27-0.108-0.27-0.241v-10.984c0-0.133,0.121-0.24,0.27-0.24
		s0.269,0.107,0.269,0.24v10.984C302.359,239.19,302.239,239.299,302.091,239.299"/>
	<path fill="#A38D8E" d="M308.286,246.593c-0.147,0-0.267-0.104-0.27-0.235l-0.159-10.405c-0.003-0.133,0.117-0.242,0.264-0.245
		h0.006c0.146,0,0.267,0.105,0.27,0.236l0.159,10.406c0.003,0.133-0.117,0.243-0.266,0.243H308.286z"/>
	<path fill="#A38D8E" d="M302.078,260.339c-0.149,0-0.27-0.109-0.27-0.243v-10.384c0-0.131,0.12-0.24,0.27-0.24
		c0.148,0,0.269,0.109,0.269,0.24v10.384C302.347,260.229,302.227,260.339,302.078,260.339"/>
	<path fill="#A38D8E" d="M308.286,268.118c-0.147,0-0.267-0.107-0.27-0.238l-0.159-10.758c-0.003-0.134,0.117-0.24,0.264-0.243
		h0.006c0.146,0,0.267,0.104,0.27,0.238l0.159,10.757c0.003,0.132-0.117,0.242-0.266,0.244H308.286z"/>
	<path fill="#A38D8E" d="M302.091,282.317c-0.148,0-0.27-0.109-0.27-0.243v-10.983c0-0.13,0.121-0.239,0.27-0.239
		s0.269,0.109,0.269,0.239v10.983C302.359,282.208,302.239,282.317,302.091,282.317"/>
	<path fill="#A38D8E" d="M308.286,290.139c-0.147,0-0.267-0.106-0.27-0.238l-0.159-11.163c-0.003-0.134,0.117-0.241,0.264-0.243
		h0.006c0.146,0,0.267,0.104,0.27,0.238l0.159,11.162c0.003,0.132-0.117,0.241-0.266,0.244H308.286z"/>
	<path fill="#A38D8E" d="M302.091,304.341c-0.148,0-0.27-0.11-0.27-0.241v-10.985c0-0.133,0.121-0.24,0.27-0.24
		s0.269,0.107,0.269,0.24V304.1C302.359,304.23,302.239,304.341,302.091,304.341"/>
	<path fill="#A38D8E" d="M288.932,213.535c-0.148,0-0.268-0.106-0.27-0.237l-0.16-11.456c-0.002-0.134,0.138-0.266,0.27-0.241
		c0.148,0,0.267,0.104,0.27,0.234l0.159,11.457C289.203,213.426,289.087,213.521,288.932,213.535"/>
	<path fill="#A38D8E" d="M282.73,227.662c-0.15,0-0.268-0.109-0.268-0.242v-11.274c0-0.133,0.117-0.24,0.268-0.24
		c0.149,0,0.27,0.107,0.27,0.24v11.274C283,227.553,282.88,227.662,282.73,227.662"/>
	<path fill="#A38D8E" d="M288.932,235.452c-0.148,0-0.268-0.104-0.27-0.236l-0.16-11.165c-0.002-0.136,0.138-0.255,0.27-0.245
		c0.148,0,0.267,0.106,0.27,0.241l0.159,11.161c0.003,0.134-0.118,0.243-0.265,0.244H288.932z"/>
	<path fill="#A38D8E" d="M282.73,249.221c-0.15,0-0.268-0.107-0.268-0.24v-10.988c0-0.134,0.117-0.241,0.268-0.241
		c0.149,0,0.27,0.107,0.27,0.241v10.988C283,249.113,282.88,249.221,282.73,249.221"/>
	<path fill="#A38D8E" d="M288.932,256.513c-0.148,0-0.268-0.106-0.27-0.238l-0.16-10.404c-0.002-0.136,0.138-0.256,0.27-0.243
		c0.148,0,0.267,0.104,0.27,0.235l0.159,10.407C289.203,256.402,289.087,256.491,288.932,256.513"/>
	<path fill="#A38D8E" d="M282.722,270.258c-0.148,0-0.269-0.111-0.269-0.242v-10.383c0-0.134,0.12-0.241,0.269-0.241
		c0.149,0,0.27,0.107,0.27,0.241v10.383C282.991,270.146,282.871,270.258,282.722,270.258"/>
	<path fill="#A38D8E" d="M288.932,278.035c-0.148,0-0.268-0.104-0.27-0.238l-0.16-10.754c-0.002-0.134,0.118-0.244,0.267-0.244
		c0.154-0.002,0.27,0.103,0.272,0.238l0.159,10.756C289.203,277.929,289.087,278.041,288.932,278.035"/>
	<path fill="#A38D8E" d="M282.73,292.237c-0.15,0-0.268-0.107-0.268-0.239V281.01c0-0.135,0.117-0.242,0.268-0.242
		c0.149,0,0.27,0.107,0.27,0.242v10.988C283,292.13,282.88,292.237,282.73,292.237"/>
	<path fill="#A38D8E" d="M288.932,300.059c-0.148,0-0.268-0.103-0.27-0.236l-0.16-11.166c-0.002-0.133,0.118-0.242,0.267-0.242
		c0.154-0.003,0.27,0.102,0.272,0.235l0.159,11.169C289.203,299.951,289.087,300.061,288.932,300.059"/>
	<path fill="#A38D8E" d="M282.73,314.258c-0.15,0-0.268-0.108-0.268-0.24v-10.986c0-0.13,0.117-0.238,0.268-0.238
		c0.149,0,0.27,0.108,0.27,0.238v10.986C283,314.149,282.88,314.258,282.73,314.258"/>
	<path fill="#A38D8E" d="M269.978,223.479c-0.149,0-0.267-0.104-0.27-0.236l-0.159-11.456c-0.003-0.135,0.106-0.269,0.269-0.243
		c0.147,0,0.266,0.106,0.269,0.236l0.16,11.458C270.248,223.37,270.106,223.464,269.978,223.479"/>
	<path fill="#A38D8E" d="M263.781,237.606c-0.149,0-0.27-0.107-0.27-0.238v-11.276c0-0.133,0.12-0.24,0.27-0.24
		c0.147,0,0.269,0.107,0.269,0.24v11.276C264.05,237.499,263.929,237.606,263.781,237.606"/>
	<path fill="#A38D8E" d="M269.978,245.399c-0.149,0-0.267-0.108-0.27-0.238l-0.159-11.162c-0.003-0.135,0.106-0.262,0.269-0.243
		c0.147,0,0.266,0.104,0.269,0.236l0.16,11.163c0.002,0.132-0.118,0.242-0.266,0.244H269.978z"/>
	<path fill="#A38D8E" d="M263.781,259.163c-0.149,0-0.27-0.106-0.27-0.239v-10.986c0-0.131,0.12-0.24,0.27-0.24
		c0.147,0,0.269,0.109,0.269,0.24v10.986C264.05,259.057,263.929,259.163,263.781,259.163"/>
	<path fill="#A38D8E" d="M269.978,266.461c-0.149,0-0.267-0.106-0.27-0.238l-0.159-10.404c-0.003-0.136,0.106-0.263,0.269-0.242
		c0.147,0,0.266,0.102,0.269,0.234l0.16,10.404c0.002,0.135-0.118,0.244-0.266,0.246H269.978z"/>
	<path fill="#A38D8E" d="M263.768,280.206c-0.15,0-0.268-0.111-0.268-0.242v-10.383c0-0.133,0.117-0.243,0.268-0.243
		c0.149,0,0.27,0.11,0.27,0.243v10.383C264.037,280.095,263.917,280.206,263.768,280.206"/>
	<path fill="#A38D8E" d="M269.978,287.983c-0.149,0-0.267-0.104-0.27-0.237l-0.159-10.757c-0.003-0.135,0.117-0.242,0.264-0.243
		c0.134-0.009,0.271,0.102,0.273,0.238l0.16,10.757C270.248,287.874,270.106,287.982,269.978,287.983"/>
	<path fill="#A38D8E" d="M263.781,302.185c-0.149,0-0.27-0.107-0.27-0.242v-10.984c0-0.134,0.12-0.241,0.27-0.241
		c0.147,0,0.269,0.107,0.269,0.241v10.984C264.05,302.077,263.929,302.185,263.781,302.185"/>
	<path fill="#A38D8E" d="M269.978,310.007c-0.149,0-0.267-0.107-0.27-0.238l-0.159-11.165c-0.003-0.131,0.117-0.24,0.264-0.244
		c0.134-0.008,0.271,0.105,0.273,0.238l0.16,11.164C270.248,309.897,270.106,310.002,269.978,310.007"/>
	<path fill="#A38D8E" d="M263.781,324.207c-0.149,0-0.27-0.107-0.27-0.241v-10.982c0-0.134,0.12-0.241,0.27-0.241
		c0.147,0,0.269,0.107,0.269,0.241v10.982C264.05,324.1,263.929,324.207,263.781,324.207"/>
	<polygon fill="#A38D8E" points="370.592,181.906 370.324,181.49 459.982,135.424 460.252,135.841 	"/>
	<polygon fill="#A38D8E" points="370.592,203.579 370.324,203.161 459.982,157.099 460.252,157.516 	"/>
	<polygon fill="#A38D8E" points="370.592,225.083 370.324,224.667 459.982,178.086 460.252,178.502 	"/>
	<polygon fill="#A38D8E" points="370.756,246.512 370.486,246.095 459.98,200.229 460.25,200.647 	"/>
	<polygon fill="#A38D8E" points="370.756,171.158 370.486,170.742 459.645,124.625 459.914,125.044 	"/>
	<polygon fill="#A38D8E" points="370.756,193.084 370.486,192.669 459.645,146.551 459.914,146.97 	"/>
	<polygon fill="#A38D8E" points="370.756,214.312 370.486,213.896 459.645,167.777 459.914,168.192 	"/>
	<polygon fill="#A38D8E" points="370.756,236.035 370.486,235.618 459.645,189.5 459.914,189.916 	"/>
	<polygon fill="#A38D8E" points="370.756,257.999 370.486,257.584 459.645,211.467 459.914,211.884 	"/>
	<path fill="#A38D8E" d="M446.898,131.844c-0.146,0-0.268-0.106-0.271-0.238l-0.158-11.453c-0.002-0.133,0.117-0.241,0.264-0.244
		h0.006c0.15,0,0.268,0.107,0.27,0.238l0.16,11.452c0.002,0.133-0.119,0.243-0.266,0.245H446.898z"/>
	<path fill="#A38D8E" d="M440.703,145.973c-0.15,0-0.271-0.108-0.271-0.24v-11.276c0-0.134,0.121-0.241,0.271-0.241
		c0.148,0,0.27,0.107,0.27,0.241v11.276C440.973,145.864,440.852,145.973,440.703,145.973"/>
	<path fill="#A38D8E" d="M446.898,153.76c-0.146,0-0.268-0.105-0.271-0.237l-0.158-11.163c-0.002-0.134,0.148-0.232,0.27-0.242
		c0.15,0,0.268,0.104,0.27,0.236l0.16,11.162C447.168,153.649,447.068,153.736,446.898,153.76"/>
	<path fill="#A38D8E" d="M440.703,167.527c-0.15,0-0.271-0.11-0.271-0.241v-10.985c0-0.134,0.121-0.24,0.271-0.24
		c0.148,0,0.27,0.106,0.27,0.24v10.985C440.973,167.417,440.852,167.527,440.703,167.527"/>
	<path fill="#A38D8E" d="M446.898,174.822c-0.146,0-0.268-0.106-0.271-0.238l-0.158-10.404c-0.002-0.135,0.117-0.243,0.264-0.247
		c0.139-0.002,0.273,0.105,0.275,0.237l0.16,10.408C447.168,174.713,447.068,174.82,446.898,174.822"/>
	<path fill="#A38D8E" d="M440.689,188.562c-0.15,0-0.27-0.108-0.27-0.241v-10.379c0-0.134,0.119-0.241,0.27-0.241
		c0.148,0,0.27,0.107,0.27,0.241v10.379C440.959,188.453,440.838,188.562,440.689,188.562"/>
	<path fill="#A38D8E" d="M446.898,196.345c-0.146,0-0.268-0.104-0.271-0.236l-0.158-10.758c-0.002-0.136,0.148-0.256,0.27-0.242
		c0.15,0,0.268,0.104,0.27,0.237l0.16,10.756c0.002,0.133-0.119,0.243-0.266,0.243H446.898z"/>
	<path fill="#A38D8E" d="M440.703,210.546c-0.15,0-0.271-0.109-0.271-0.241v-10.985c0-0.132,0.121-0.24,0.271-0.24
		c0.148,0,0.27,0.108,0.27,0.24v10.985C440.973,210.437,440.852,210.546,440.703,210.546"/>
	<path fill="#A38D8E" d="M446.898,218.367c-0.146,0-0.268-0.105-0.271-0.236l-0.158-11.162c-0.002-0.136,0.148-0.254,0.27-0.244
		c0.15,0,0.268,0.106,0.27,0.238l0.16,11.159c0.002,0.134-0.119,0.244-0.266,0.245H446.898z"/>
	<path fill="#A38D8E" d="M440.703,232.568c-0.15,0-0.271-0.109-0.271-0.242v-10.984c0-0.133,0.121-0.242,0.271-0.242
		c0.148,0,0.27,0.109,0.27,0.242v10.984C440.973,232.459,440.852,232.568,440.703,232.568"/>
	<path fill="#A38D8E" d="M427.637,141.791c-0.146,0-0.268-0.105-0.27-0.236l-0.16-11.457c-0.004-0.135,0.131-0.248,0.27-0.243
		c0.146,0,0.266,0.106,0.27,0.238l0.158,11.456C427.908,141.683,427.785,141.792,427.637,141.791"/>
	<path fill="#A38D8E" d="M421.436,155.917c-0.148,0-0.27-0.108-0.27-0.242v-11.272c0-0.133,0.121-0.241,0.27-0.241
		c0.15,0,0.27,0.108,0.27,0.241v11.272C421.705,155.809,421.586,155.917,421.436,155.917"/>
	<path fill="#A38D8E" d="M427.637,163.708c-0.146,0-0.268-0.106-0.27-0.236l-0.16-11.164c-0.004-0.135,0.131-0.239,0.27-0.241
		c0.146,0,0.266,0.104,0.27,0.234l0.158,11.164c0.004,0.132-0.117,0.242-0.264,0.243H427.637z"/>
	<path fill="#A38D8E" d="M421.436,177.476c-0.148,0-0.27-0.11-0.27-0.241v-10.985c0-0.133,0.121-0.241,0.27-0.241
		c0.15,0,0.27,0.108,0.27,0.241v10.985C421.705,177.365,421.586,177.476,421.436,177.476"/>
	<path fill="#A38D8E" d="M427.637,184.766c-0.146,0-0.268-0.105-0.27-0.236l-0.16-10.403c-0.004-0.137,0.131-0.238,0.27-0.244
		c0.146,0,0.266,0.104,0.27,0.237l0.158,10.402C427.908,184.657,427.785,184.762,427.637,184.766"/>
	<path fill="#A38D8E" d="M421.422,198.512c-0.148,0-0.27-0.108-0.27-0.24v-10.383c0-0.132,0.121-0.239,0.27-0.239
		c0.15,0,0.271,0.107,0.271,0.239v10.383C421.693,198.403,421.572,198.512,421.422,198.512"/>
	<path fill="#A38D8E" d="M427.637,206.291c-0.146,0-0.268-0.104-0.27-0.236l-0.16-10.754c-0.004-0.137,0.131-0.262,0.27-0.244
		c0.146,0,0.266,0.105,0.27,0.236l0.158,10.754c0.004,0.134-0.117,0.244-0.264,0.244H427.637z"/>
	<path fill="#A38D8E" d="M421.436,220.493c-0.148,0-0.27-0.109-0.27-0.243v-10.983c0-0.133,0.121-0.241,0.27-0.241
		c0.15,0,0.27,0.108,0.27,0.241v10.983C421.705,220.384,421.586,220.493,421.436,220.493"/>
	<path fill="#A38D8E" d="M427.637,228.312c-0.146,0-0.268-0.105-0.27-0.236l-0.16-11.164c-0.004-0.137,0.131-0.257,0.27-0.243
		c0.146,0,0.266,0.104,0.27,0.238l0.158,11.162c0.004,0.134-0.117,0.243-0.264,0.243H427.637z"/>
	<path fill="#A38D8E" d="M421.436,242.515c-0.148,0-0.27-0.107-0.27-0.237V231.29c0-0.133,0.121-0.239,0.27-0.239
		c0.15,0,0.27,0.106,0.27,0.239v10.987C421.705,242.407,421.586,242.515,421.436,242.515"/>
	<path fill="#A38D8E" d="M408.279,151.712c-0.145,0-0.264-0.104-0.266-0.237l-0.166-11.458c-0.002-0.132,0.119-0.242,0.266-0.242
		h0.004c0.148,0,0.27,0.105,0.27,0.235l0.164,11.458c0.002,0.132-0.119,0.242-0.266,0.244H408.279z"/>
	<path fill="#A38D8E" d="M402.084,165.839c-0.152,0-0.271-0.107-0.271-0.24v-11.275c0-0.132,0.119-0.239,0.271-0.239
		c0.145,0,0.27,0.107,0.27,0.239v11.275C402.354,165.731,402.229,165.839,402.084,165.839"/>
	<path fill="#A38D8E" d="M408.279,173.63c-0.145,0-0.264-0.106-0.266-0.237l-0.166-11.167c-0.002-0.131,0.119-0.241,0.266-0.242
		h0.004c0.148,0,0.27,0.106,0.27,0.236l0.164,11.166c0.002,0.133-0.119,0.243-0.266,0.244H408.279z"/>
	<path fill="#A38D8E" d="M402.084,187.394c-0.152,0-0.271-0.108-0.271-0.239v-10.986c0-0.131,0.119-0.239,0.271-0.239
		c0.145,0,0.27,0.108,0.27,0.239v10.986C402.354,187.285,402.229,187.394,402.084,187.394"/>
	<path fill="#A38D8E" d="M408.279,194.691c-0.145,0-0.264-0.106-0.266-0.236l-0.166-10.407c-0.002-0.134,0.119-0.242,0.266-0.245
		h0.004c0.148,0,0.27,0.106,0.27,0.237l0.164,10.407c0.002,0.133-0.119,0.242-0.266,0.244H408.279z"/>
	<path fill="#A38D8E" d="M402.07,208.431c-0.15,0-0.27-0.106-0.27-0.239v-10.383c0-0.131,0.119-0.24,0.27-0.24
		c0.148,0,0.27,0.109,0.27,0.24v10.383C402.34,208.324,402.219,208.431,402.07,208.431"/>
	<path fill="#A38D8E" d="M408.279,216.211c-0.145,0-0.264-0.105-0.266-0.236l-0.166-10.757c-0.002-0.135,0.119-0.242,0.266-0.243
		h0.004c0.148,0,0.27,0.104,0.27,0.237l0.164,10.757c0.002,0.132-0.119,0.242-0.266,0.242H408.279z"/>
	<path fill="#A38D8E" d="M402.084,230.414c-0.152,0-0.271-0.108-0.271-0.239v-10.987c0-0.132,0.119-0.239,0.271-0.239
		c0.145,0,0.27,0.107,0.27,0.239v10.987C402.354,230.306,402.229,230.414,402.084,230.414"/>
	<path fill="#A38D8E" d="M408.279,238.235c-0.145,0-0.264-0.104-0.266-0.238l-0.166-11.165c-0.002-0.132,0.119-0.242,0.266-0.244
		h0.004c0.148,0,0.27,0.106,0.27,0.237l0.164,11.167c0.002,0.132-0.119,0.24-0.266,0.243H408.279z"/>
	<path fill="#A38D8E" d="M402.084,252.436c-0.152,0-0.271-0.107-0.271-0.238v-10.988c0-0.131,0.119-0.238,0.271-0.238
		c0.145,0,0.27,0.107,0.27,0.238v10.988C402.354,252.328,402.229,252.436,402.084,252.436"/>
	<path fill="#A38D8E" d="M389.328,161.659c-0.148,0-0.266-0.107-0.27-0.238l-0.158-11.458c-0.004-0.132,0.117-0.242,0.262-0.242
		c0.176,0,0.271,0.103,0.275,0.237l0.158,11.458c0.004,0.13-0.117,0.24-0.264,0.243H389.328z"/>
	<path fill="#A38D8E" d="M383.129,175.788c-0.146,0-0.268-0.108-0.268-0.241v-11.276c0-0.134,0.121-0.24,0.268-0.24
		c0.154,0,0.271,0.106,0.271,0.24v11.276C383.4,175.68,383.283,175.788,383.129,175.788"/>
	<path fill="#A38D8E" d="M383.129,197.342c-0.146,0-0.268-0.109-0.268-0.241v-10.984c0-0.134,0.121-0.241,0.268-0.241
		c0.154,0,0.271,0.107,0.271,0.241v10.984C383.4,197.232,383.283,197.342,383.129,197.342"/>
	<path fill="#A38D8E" d="M389.328,204.636c-0.148,0-0.266-0.104-0.27-0.237l-0.158-10.405c-0.004-0.134,0.117-0.243,0.262-0.245
		c0.176,0.002,0.271,0.104,0.275,0.237l0.158,10.406c0.004,0.134-0.117,0.243-0.264,0.244H389.328z"/>
	<path fill="#A38D8E" d="M383.119,218.38c-0.15,0-0.27-0.108-0.27-0.24v-10.381c0-0.131,0.119-0.24,0.27-0.24
		c0.146,0,0.268,0.109,0.268,0.24v10.381C383.387,218.271,383.266,218.38,383.119,218.38"/>
	<path fill="#A38D8E" d="M389.328,226.159c-0.148,0-0.266-0.104-0.27-0.237l-0.158-10.756c-0.004-0.133,0.117-0.242,0.262-0.243
		h0.004c0.148,0,0.268,0.104,0.271,0.238l0.158,10.755c0.004,0.133-0.117,0.242-0.264,0.243H389.328z"/>
	<path fill="#A38D8E" d="M383.129,240.363c-0.146,0-0.268-0.11-0.268-0.241v-10.989c0-0.134,0.121-0.239,0.268-0.239
		c0.154,0,0.271,0.105,0.271,0.239v10.989C383.4,240.253,383.283,240.363,383.129,240.363"/>
	<path fill="#A38D8E" d="M389.328,248.185c-0.148,0-0.266-0.108-0.27-0.238l-0.158-11.167c-0.004-0.131,0.117-0.24,0.262-0.242
		h0.004c0.148,0,0.268,0.105,0.271,0.237l0.158,11.166c0.004,0.131-0.117,0.241-0.264,0.244H389.328z"/>
	<path fill="#A38D8E" d="M383.129,262.384c-0.146,0-0.268-0.11-0.268-0.243v-10.983c0-0.134,0.121-0.243,0.268-0.243
		c0.154,0,0.271,0.109,0.271,0.243v10.983C383.4,262.273,383.283,262.384,383.129,262.384"/>
	<polygon fill="#A9A08B" points="388.562,237.913 388.557,172.519 384.969,174.382 384.971,237.913 267.253,299.121 
		267.249,300.978 	"/>
	<polygon fill="#E1E1E0" points="384.967,174.382 267.414,235.812 267.253,299.121 384.971,237.913 	"/>
	<polygon fill="#B6A29F" points="116.576,158.255 248.988,226.42 469.109,112.781 336.871,44.61 	"/>
	<polygon fill="#DFDED0" points="116.576,148.354 248.988,216.522 469.109,102.885 336.871,34.712 	"/>
	<polygon fill="#625755" points="469.111,102.884 469.111,112.779 248.988,226.418 248.988,216.522 	"/>
	<polygon fill="#847A7A" points="116.576,148.354 116.576,158.255 248.988,226.42 248.988,216.522 	"/>
	<polygon fill="#D2C7C6" points="444.461,165.42 444.461,228.602 401.012,251.322 401.012,252.416 445.438,229.182 445.438,164.911 
			"/>
	<polygon fill="#A9A08B" points="444.461,165.42 401.012,188.144 401.012,251.322 444.461,228.602 	"/>
	<polygon fill="#A9A08B" points="443.414,166.282 401.012,188.576 401.012,250.403 443.414,228.107 	"/>
	<polygon fill="#E8E3C9" points="422.217,178.009 401.012,188.945 401.012,250.163 422.217,239.223 	"/>
	<polygon fill="#E8E3C9" points="443.414,167.02 423.227,177.427 423.227,238.644 443.414,228.233 	"/>
	<path fill="#231F19" d="M419.643,215.298c-0.133,0-0.266-0.029-0.385-0.088c-0.262-0.125-0.424-0.369-0.424-0.633v-4.535
		c0-0.253,0.148-0.484,0.387-0.615l2.574-1.4l0.84,1.232l-2.184,1.188v2.799l1.324-0.77l0.877,1.21l-2.57,1.495
		C419.949,215.259,419.797,215.298,419.643,215.298"/>
	<path fill="#231F19" d="M423.586,213.68l-0.721-1.291l1.943-0.867v-2.873l-1.197,0.579l-0.773-1.267l2.393-1.158
		c0.248-0.122,0.553-0.116,0.795,0.013c0.25,0.132,0.398,0.364,0.398,0.62v4.532c0,0.273-0.172,0.525-0.449,0.646L423.586,213.68z"
		/>
	<polygon fill="#827B27" points="422.896,169.907 420.928,169.55 419.643,173.63 420.652,174.581 	"/>
	<path fill="#FDF079" d="M420.426,173.355c0,2.103,1.908,3.804,4.262,3.804c2.352,0,4.258-1.701,4.258-3.804
		c0-2.102-1.906-3.806-4.258-3.806C422.334,169.55,420.426,171.254,420.426,173.355"/>
	<path fill="#DB5145" d="M409.379,224.822c-1.135,1.748-0.461,3.168,1.496,3.168s4.463-1.42,5.596-3.168
		c1.131-1.748,0.457-3.169-1.5-3.169C413.01,221.653,410.508,223.074,409.379,224.822"/>
	<path fill="#FDF9E1" d="M400.91,228.813c-1.131,1.747-0.461,3.168,1.5,3.168c1.957,0,4.463-1.421,5.59-3.168
		c1.131-1.747,0.463-3.167-1.494-3.167C404.545,225.646,402.041,227.066,400.91,228.813"/>
	<path fill="#DB5145" d="M392.729,233.169c-1.127,1.752-0.459,3.168,1.498,3.168c1.963,0,4.467-1.416,5.594-3.168
		c1.135-1.748,0.463-3.163-1.498-3.163C396.365,230.006,393.859,231.421,392.729,233.169"/>
	<path fill="#FDF9E1" d="M384.537,237.229c-1.131,1.752-0.457,3.169,1.5,3.169s4.463-1.417,5.594-3.169
		c1.133-1.747,0.459-3.164-1.5-3.164C388.17,234.064,385.67,235.481,384.537,237.229"/>
	<path fill="#DB5145" d="M376.348,241.651c-1.135,1.751-0.463,3.169,1.492,3.169c1.963,0,4.467-1.418,5.6-3.169
		c1.125-1.746,0.457-3.162-1.5-3.162C379.979,238.489,377.479,239.905,376.348,241.651"/>
	<path fill="#FDF9E1" d="M368.152,246.507c-1.129,1.748-0.457,3.164,1.502,3.164c1.957,0,4.461-1.416,5.594-3.164
		c1.129-1.746,0.459-3.164-1.498-3.164C371.787,243.343,369.283,244.761,368.152,246.507"/>
	<path fill="#DB5145" d="M359.688,250.498c-1.135,1.748-0.461,3.168,1.496,3.168s4.463-1.42,5.596-3.168
		c1.131-1.746,0.459-3.162-1.5-3.162S360.816,248.752,359.688,250.498"/>
	<path fill="#FDF9E1" d="M351.508,254.855c-1.135,1.748-0.459,3.164,1.496,3.164c1.959,0,4.469-1.416,5.596-3.164
		s0.457-3.167-1.498-3.167C355.145,251.688,352.639,253.107,351.508,254.855"/>
	<path fill="#DB5145" d="M343.314,258.913c-1.131,1.751-0.461,3.17,1.494,3.17c1.959,0,4.463-1.419,5.596-3.17
		c1.131-1.746,0.459-3.164-1.5-3.164C346.949,255.749,344.443,257.167,343.314,258.913"/>
	<path fill="#FDF9E1" d="M335.119,263.342c-1.131,1.745-0.459,3.164,1.498,3.164c1.963,0,4.465-1.419,5.596-3.164
		c1.133-1.751,0.457-3.169-1.5-3.169C338.758,260.173,336.254,261.591,335.119,263.342"/>
	<path fill="#DB5145" d="M326.929,267.579c-1.129,1.746-0.458,3.167,1.499,3.167c1.961,0,4.463-1.421,5.596-3.167
		c1.131-1.751,0.457-3.167-1.5-3.167C330.562,264.412,328.061,265.828,326.929,267.579"/>
	<path fill="#FDF9E1" d="M318.46,271.571c-1.128,1.748-0.457,3.166,1.498,3.166c1.963,0,4.468-1.418,5.6-3.166
		c1.127-1.749,0.458-3.168-1.499-3.168C322.097,268.403,319.592,269.822,318.46,271.571"/>
	<path fill="#DB5145" d="M310.286,275.929c-1.138,1.746-0.463,3.162,1.497,3.162c1.955,0,4.463-1.416,5.596-3.162
		c1.127-1.753,0.454-3.169-1.505-3.169C313.919,272.76,311.418,274.176,310.286,275.929"/>
	<path fill="#FDF9E1" d="M302.091,279.988c-1.133,1.751-0.46,3.167,1.497,3.167c1.958,0,4.463-1.416,5.597-3.167
		c1.124-1.752,0.457-3.167-1.5-3.167C305.724,276.821,303.219,278.236,302.091,279.988"/>
	<path fill="#DB5145" d="M293.895,284.41c-1.129,1.748-0.454,3.163,1.502,3.163c1.958,0,4.463-1.415,5.595-3.163
		c1.134-1.747,0.458-3.162-1.504-3.162C297.531,281.248,295.026,282.663,293.895,284.41"/>
	<polygon fill="#DB5145" points="408.906,226.836 417.02,223.239 417.02,214.157 408.906,214.157 	"/>
	<polygon fill="#FDF9E1" points="400.396,230.388 408.514,226.796 408.514,217.711 400.396,217.711 	"/>
	<polygon fill="#DB5145" points="392.219,235.452 400.334,231.857 400.334,222.773 392.219,222.773 	"/>
	<polygon fill="#FDF9E1" points="384.027,239.51 392.141,235.917 392.141,226.835 384.027,226.835 	"/>
	<polygon fill="#DB5145" points="375.832,243.708 383.949,240.117 383.949,231.031 375.832,231.031 	"/>
	<polygon fill="#FDF9E1" points="367.641,247.993 375.758,244.399 375.758,235.317 367.641,235.317 	"/>
	<polygon fill="#DB5145" points="359.172,252.64 367.287,249.045 367.287,239.966 359.172,239.966 	"/>
	<polygon fill="#FDF9E1" points="350.996,256.743 359.113,253.15 359.113,244.07 350.996,244.07 	"/>
	<polygon fill="#DB5145" points="342.801,260.706 350.918,257.114 350.918,248.03 342.801,248.03 	"/>
	<polygon fill="#FDF9E1" points="334.609,265.354 342.723,261.764 342.723,252.679 334.609,252.679 	"/>
	<polygon fill="#DB5145" points="326.415,269.678 334.531,266.084 334.531,257 326.415,257 	"/>
	<polygon fill="#FDF9E1" points="317.951,272.976 326.066,269.383 326.066,260.3 317.951,260.3 	"/>
	<polygon fill="#DB5145" points="309.772,277.912 317.887,274.317 317.887,265.231 309.772,265.231 	"/>
	<polygon fill="#FDF9E1" points="301.576,281.464 309.692,277.87 309.692,268.785 301.576,268.785 	"/>
	<polygon fill="#DB5145" points="293.386,286.29 301.501,282.699 301.501,273.612 293.386,273.612 	"/>
	<polygon fill="#DB5145" points="355.09,189.313 384.264,231.134 376.072,235.379 346.918,193.583 	"/>
	<polygon fill="#FDF9E1" points="330.137,202.359 359.252,244.099 350.885,248.436 321.79,206.723 	"/>
	<polygon fill="#FDF9E1" points="363.07,185.139 392.262,226.99 384.264,231.134 355.09,189.312 	"/>
	<polygon fill="#FDF9E1" points="346.918,193.583 376.072,235.379 367.238,239.959 338.102,198.195 	"/>
	<polygon fill="#DB5145" points="371.27,180.854 400.479,222.731 392.262,226.99 363.07,185.139 	"/>
	<polygon fill="#DB5145" points="387.385,172.432 417.02,214.158 408.598,218.522 379.373,176.622 	"/>
	<polygon fill="#FDF9E1" points="379.371,176.622 408.598,218.522 400.479,222.731 371.268,180.854 	"/>
	<polygon fill="#DB5145" points="338.102,198.195 367.238,239.959 359.252,244.099 330.137,202.357 	"/>
	<polygon fill="#FDF9E1" points="280.795,228.149 309.802,269.73 301.415,274.075 272.428,232.521 	"/>
	<polygon fill="#DB5145" points="265.628,236.073 272.428,232.521 301.415,274.075 293.191,278.337 	"/>
	<polygon fill="#DB5145" points="289.045,223.833 318.072,265.44 309.802,269.73 280.794,228.147 	"/>
	<polygon fill="#FDF9E1" points="296.958,219.697 326.004,261.332 318.072,265.44 289.045,223.832 	"/>
	<polygon fill="#DB5145" points="321.79,206.723 350.885,248.436 342.836,252.607 313.754,210.921 	"/>
	<polygon fill="#FDF9E1" points="313.754,210.919 342.836,252.607 334.477,256.938 305.412,215.278 	"/>
	<polygon fill="#DB5145" points="305.41,215.279 334.477,256.942 326.004,261.329 296.958,219.698 	"/>
	<polygon fill="#DB5145" points="400.334,155.258 443.41,133.282 443.41,156.803 400.334,178.779 	"/>
	<polygon fill="#B34036" points="437.729,138.238 440.295,136.929 440.295,156.683 404.127,175.133 404.127,173.469 
		437.729,156.331 	"/>
	<polygon fill="#FDF9E1" points="437.729,138.238 437.729,156.331 404.127,173.469 404.127,155.38 	"/>
	<polygon fill="#3A79E3" points="467.885,104.084 249.256,217.446 249.256,130.1 467.885,16.735 	"/>
	<polygon fill="#173972" points="241.157,127.399 249.256,130.1 249.256,217.446 241.157,214.747 	"/>
	<polygon fill="#8EAFEE" points="467.885,16.735 459.789,14.037 241.157,127.399 249.256,130.098 	"/>
	<g enable-background="new    ">
		<g>
			<defs>
				<rect id="SVGID_5_" x="363.092" y="33.877" width="97.6" height="115.852"/>
			</defs>
			<clipPath id="SVGID_6_">
				<use xlink:href="#SVGID_5_"  overflow="visible"/>
			</clipPath>
			<g clip-path="url(#SVGID_6_)">
				<defs>
					<polygon id="SVGID_7_" points="363.092,149.729 363.217,82.539 460.691,33.877 460.566,101.067 					"/>
				</defs>
				<clipPath id="SVGID_8_">
					<use xlink:href="#SVGID_7_"  overflow="visible"/>
				</clipPath>
				<path clip-path="url(#SVGID_8_)" fill="#FFFFFF" d="M367.73,96.909l0.805-6.133c0.227-1.675,0.43-3.825,0.631-5.522l0.041-0.022
					c0.195,1.5,0.432,3.386,0.668,4.875l0.824,5.32L367.73,96.909 M371.309,79.623l-3.986,1.99l-4.158,29.069l3.146-1.571
					l0.973-7.419l3.848-1.92l1.021,6.424l3.271-1.634L371.309,79.623"/>
				<path clip-path="url(#SVGID_8_)" fill="#FFFFFF" d="M380.748,81.88c-2.414,1.206-3.979,4.739-3.982,8.39
					c-0.023,2.337,0.75,4.151,2.76,4.515c1.141,0.193,1.436,0.521,1.436,1.528c-0.002,0.995-0.383,1.824-1.301,2.282
					c-0.896,0.445-2.053,0.226-2.607-0.181l-0.545,4.636c0.736,0.442,1.867,0.433,3.145-0.203c2.787-1.394,4.23-4.799,4.238-8.45
					c-0.018-2.872-0.791-4.36-2.643-4.722c-1.193-0.252-1.572-0.534-1.57-1.462c0-0.997,0.424-1.81,1.16-2.178
					c0.838-0.417,1.672-0.197,2.109,0.07l0.547-4.487C382.898,81.325,381.883,81.312,380.748,81.88"/>
				<path clip-path="url(#SVGID_8_)" fill="#FFFFFF" d="M389.396,77.562c-2.408,1.202-3.971,4.737-3.977,8.386
					c-0.023,2.339,0.752,4.151,2.762,4.514c1.133,0.197,1.43,0.525,1.428,1.533c-0.002,0.996-0.377,1.82-1.295,2.278
					c-0.9,0.45-2.053,0.227-2.611-0.177l-0.547,4.637c0.734,0.442,1.875,0.428,3.148-0.208c2.791-1.393,4.23-4.795,4.236-8.445
					c-0.012-2.875-0.785-4.364-2.639-4.726c-1.197-0.248-1.57-0.537-1.57-1.462c0.004-0.997,0.418-1.806,1.156-2.176
					c0.842-0.419,1.678-0.199,2.115,0.067l0.547-4.484C391.555,77.005,390.539,76.99,389.396,77.562"/>
				<path clip-path="url(#SVGID_8_)" fill="#FFFFFF" d="M397.432,73.99l-3.029,1.511l-0.035,19.604l3.029-1.511L397.432,73.99
					 M395.932,66.207c-0.977,0.487-1.615,2.127-1.602,3.879c-0.021,1.688,0.615,2.736,1.574,2.259
					c0.994-0.497,1.635-2.183,1.635-3.863C397.527,66.73,396.91,65.719,395.932,66.207"/>
				<path clip-path="url(#SVGID_8_)" fill="#FFFFFF" d="M403.514,70.513c-2.408,1.204-3.969,4.737-3.977,8.386
					c-0.027,2.342,0.746,4.155,2.756,4.518c1.139,0.195,1.436,0.521,1.436,1.529c-0.002,0.997-0.385,1.824-1.303,2.282
					c-0.895,0.447-2.049,0.226-2.605-0.181l-0.545,4.638c0.734,0.441,1.869,0.432,3.143-0.204c2.795-1.397,4.234-4.8,4.24-8.448
					c-0.01-2.877-0.787-4.366-2.639-4.728c-1.195-0.248-1.576-0.531-1.574-1.458c0-0.997,0.422-1.81,1.16-2.178
					c0.836-0.417,1.674-0.197,2.109,0.07l0.549-4.485C405.666,69.959,404.65,69.946,403.514,70.513"/>
				<path clip-path="url(#SVGID_8_)" fill="#FFFFFF" d="M411.916,61.144l-2.973,2.852l-0.008,4.251l-1.293,0.646l-0.01,4.485
					l1.295-0.646l-0.016,8.018c-0.006,2.769,0.271,4.517,0.826,5.398c0.477,0.756,1.293,1.032,2.27,0.545
					c0.861-0.431,1.576-0.983,1.979-1.509l-0.014-4.599c-0.217,0.188-0.514,0.418-0.895,0.606c-0.918,0.459-1.197-0.478-1.193-2.843
					l0.012-7.102l2.176-1.085l0.012-4.483l-2.178,1.084L411.916,61.144"/>
				<path clip-path="url(#SVGID_8_)" fill="#FFFFFF" d="M418.033,71.274c0.084-1.686,0.609-4.274,1.885-4.91
					c1.391-0.694,1.709,1.636,1.707,3.12L418.033,71.274 M420.102,62.233c-3.389,1.689-4.936,7.949-4.945,12.92
					c-0.01,6.13,1.877,9.03,5.188,7.377c1.316-0.655,2.531-1.658,3.533-2.968l-0.395-3.923c-0.814,0.927-1.656,1.626-2.693,2.142
					c-1.414,0.708-2.645,0.118-2.74-2.358l6.279-3.136c0.037-0.458,0.105-1.405,0.105-2.446
					C424.443,64.985,423.252,60.658,420.102,62.233 M421.033,53.675l-2.029,1.013l-2.006,7.091l1.996-0.994l1-3.984l0.041-0.021
					l0.986,2.991l1.98-0.988L421.033,53.675"/>
				<path clip-path="url(#SVGID_8_)" fill="#FFFFFF" d="M432.025,56.279c-1.615,0.806-2.611,3.179-3.018,4.631l-0.057,0.031
					l-0.137-2.618l-2.631,1.314c0.035,1.693,0.074,3.759,0.068,6.203L426.229,79.2l3.027-1.514l0.021-11.309
					c0.002-0.565,0.045-1.178,0.125-1.589c0.203-1.213,0.703-2.631,1.537-3.049c1.102-0.548,1.537,0.959,1.531,3.485l-0.021,10.867
					l3.031-1.512l0.021-11.633C435.512,57.18,434.02,55.284,432.025,56.279"/>
				<path clip-path="url(#SVGID_8_)" fill="#FFFFFF" d="M442.975,50.814c-3.633,1.813-5.594,7.47-5.605,13.204
					c-0.012,6.177,1.998,9.015,5.145,7.444c1.16-0.578,2.178-1.48,2.717-2.235l-0.348-4.306c-0.463,0.589-1.021,1.099-1.738,1.458
					c-1.477,0.735-2.67-0.543-2.666-4.158c-0.01-3.188,1.031-6,2.625-6.796c0.797-0.397,1.334-0.377,1.691-0.242l0.488-4.77
					C444.646,50.257,443.77,50.417,442.975,50.814"/>
				<path clip-path="url(#SVGID_8_)" fill="#FFFFFF" d="M449.965,47.762l-3.027,1.514l-0.035,19.604l3.029-1.514L449.965,47.762
					 M448.469,39.979c-0.977,0.488-1.615,2.127-1.598,3.875c-0.025,1.693,0.611,2.743,1.568,2.263
					c0.994-0.496,1.633-2.182,1.637-3.86C450.062,40.505,449.445,39.491,448.469,39.979"/>
				<path clip-path="url(#SVGID_8_)" fill="#FFFFFF" d="M455.92,60.521c-0.678,0.339-1.191-0.155-1.189-1.721
					c0.008-2.312,1.189-3.686,2.736-4.458c0.031-0.017,0.068-0.032,0.102-0.049l-0.004,2.133c0,0.359-0.023,0.729-0.061,1.07
					C457.297,58.839,456.682,60.143,455.92,60.521 M456.25,44.188c-1.771,0.884-3.115,2.515-3.789,3.602l0.549,3.65
					c0.641-1.117,1.701-2.328,2.693-2.825c1.496-0.747,1.775,0.596,1.775,1.639v0.289c-0.035,0.016-0.066,0.031-0.098,0.047
					c-3.398,1.696-5.635,5.259-5.643,10.309c-0.008,3.128,1.164,5.426,3.141,4.44c1.156-0.58,2.152-1.921,2.795-3.805l0.057-0.028
					l0.178,1.881l2.73-1.365c-0.096-1.04-0.137-2.825-0.131-4.703l0.014-6.812C460.529,45.892,459.5,42.563,456.25,44.188"/>
				<polygon clip-path="url(#SVGID_8_)" fill="#FFFFFF" points="392.092,107.816 381.764,112.974 381.756,118.106 385.363,116.305 
					385.322,138.191 388.375,136.668 388.418,114.781 392.084,112.949 				"/>
				<path clip-path="url(#SVGID_8_)" fill="#FFFFFF" d="M394.275,121.707c0.084-1.688,0.605-4.273,1.885-4.913
					c1.393-0.693,1.709,1.636,1.705,3.12L394.275,121.707 M396.342,112.663c-3.387,1.691-4.932,7.95-4.943,12.921
					c-0.01,6.129,1.877,9.029,5.188,7.378c1.316-0.657,2.533-1.659,3.527-2.954l-0.389-3.938c-0.814,0.929-1.656,1.626-2.691,2.143
					c-1.414,0.708-2.648,0.13-2.742-2.347l6.273-3.132c0.041-0.462,0.109-1.42,0.109-2.464
					C400.684,115.414,399.494,111.089,396.342,112.663 M399.568,102.961l-2.807,1.402l-1.729,6.952l2.092-1.044L399.568,102.961"/>
				<path clip-path="url(#SVGID_8_)" fill="#FFFFFF" d="M407.531,107.078c-3.633,1.813-5.592,7.48-5.605,13.205
					c-0.012,6.177,2,9.014,5.145,7.443c1.16-0.578,2.176-1.479,2.719-2.235l-0.35-4.306c-0.463,0.589-1.02,1.111-1.738,1.47
					c-1.475,0.737-2.668-0.555-2.664-4.158c-0.01-3.2,1.029-6,2.625-6.797c0.797-0.396,1.332-0.387,1.695-0.243l0.484-4.768
					C409.205,106.521,408.328,106.682,407.531,107.078"/>
				<path clip-path="url(#SVGID_8_)" fill="#FFFFFF" d="M417.264,102.22c-1.621,0.81-2.617,3.193-3.018,4.632l-0.061,0.03
					l-0.135-2.617l-2.631,1.312c0.039,1.705,0.066,3.772,0.064,6.218l-0.025,13.349l3.035-1.516l0.021-11.309
					c0.002-0.557,0.037-1.176,0.121-1.577c0.197-1.222,0.699-2.641,1.541-3.062c1.094-0.544,1.527,0.964,1.525,3.489l-0.021,10.867
					l3.029-1.512l0.02-11.633C420.742,103.122,419.25,101.227,417.264,102.22"/>
				<path clip-path="url(#SVGID_8_)" fill="#FFFFFF" d="M426.209,98.193l-3.027,1.511l-0.037,19.605l3.027-1.513L426.209,98.193
					 M424.709,90.41c-0.975,0.486-1.613,2.127-1.594,3.875c-0.027,1.703,0.607,2.742,1.566,2.263c0.994-0.496,1.635-2.17,1.639-3.86
					C426.307,90.934,425.689,89.922,424.709,90.41"/>
				<path clip-path="url(#SVGID_8_)" fill="#FFFFFF" d="M433.666,94.03c-3.625,1.812-5.588,7.478-5.598,13.202
					c-0.01,6.175,1.994,9.017,5.146,7.443c1.15-0.575,2.17-1.476,2.709-2.232l-0.35-4.306c-0.455,0.587-1.018,1.11-1.736,1.471
					c-1.475,0.734-2.664-0.558-2.658-4.161c-0.018-3.198,1.023-5.997,2.617-6.795c0.803-0.399,1.342-0.39,1.697-0.243l0.486-4.771
					C435.344,93.47,434.467,93.632,433.666,94.03"/>
				<path clip-path="url(#SVGID_8_)" fill="#FFFFFF" d="M441.234,106.435c-0.678,0.34-1.191-0.168-1.189-1.732
					c0.006-2.298,1.17-3.667,2.701-4.43c0.045-0.023,0.09-0.045,0.133-0.065l-0.002,2.12c0,0.36-0.023,0.73-0.061,1.07
					C442.611,104.74,441.992,106.056,441.234,106.435 M441.564,90.089c-1.773,0.884-3.111,2.511-3.787,3.615l0.545,3.65
					c0.639-1.13,1.699-2.33,2.693-2.826c1.498-0.747,1.775,0.596,1.775,1.638v0.278c-0.035,0.018-0.064,0.03-0.098,0.048
					c-3.396,1.694-5.635,5.257-5.643,10.309c-0.008,3.128,1.164,5.426,3.141,4.439c1.158-0.579,2.154-1.922,2.793-3.804l0.059-0.029
					l0.178,1.88l2.732-1.363c-0.098-1.041-0.137-2.815-0.131-4.704l0.012-6.813C445.844,91.795,444.814,88.466,441.564,90.089"/>
			</g>
		</g>
	</g>
	<g enable-background="new    ">
		<g>
			<defs>
				<rect id="SVGID_9_" x="257.9" y="87.089" width="97.82" height="115.408"/>
			</defs>
			<clipPath id="SVGID_10_">
				<use xlink:href="#SVGID_9_"  overflow="visible"/>
			</clipPath>
			<g clip-path="url(#SVGID_10_)">
				<defs>
					<polygon id="SVGID_11_" points="257.9,202.497 259.492,138.255 355.721,87.089 354.127,151.332 					"/>
				</defs>
				<clipPath id="SVGID_12_">
					<use xlink:href="#SVGID_11_"  overflow="visible"/>
				</clipPath>
				<path clip-path="url(#SVGID_12_)" fill="#FFFFFF" d="M289.047,169.988c-0.821,0.438-1.495,1.156-2.017,2.165
					c-0.531,1.013-0.809,2.252-0.847,3.744c-0.036,1.461,0.197,2.429,0.698,2.913c0.501,0.473,1.149,0.501,1.944,0.078
					c0.798-0.424,1.466-1.148,1.994-2.172c0.531-1.014,0.812-2.273,0.848-3.776c0.037-1.482-0.18-2.446-0.666-2.91
					C290.524,169.563,289.877,169.55,289.047,169.988 M262.011,195.132l0.319-12.913l1.999-1.063l-0.322,12.915L262.011,195.132
					 M272.043,185.557l0.215-8.617l1.86-0.988l-0.32,12.915l-2.006,1.066l-3.789-6.305l-0.208,8.429l-1.861,0.99l0.32-12.914
					l1.95-1.037L272.043,185.557 M275.926,187.735l0.32-12.917l6.79-3.609l-0.053,2.18l-4.792,2.549l-0.075,3.056l4.143-2.201
					l-0.055,2.189l-4.144,2.202l-0.137,5.488L275.926,187.735 M308.215,162.854l2.417-6.317l2.3-1.225l-3.826,9.427l-0.134,5.426
					l-1.999,1.062l0.136-5.435l-3.446-5.549l2.349-1.25L308.215,162.854 M322.396,152.433l0.056-2.181l7.878-4.19l-0.053,2.18
					l-2.941,1.563l-0.266,10.737l-1.998,1.062l0.265-10.736L322.396,152.433 M331.303,158.291l0.32-12.916l7.344-3.904l-0.055,2.181
					l-5.344,2.841l-0.072,2.859l4.971-2.644l-0.055,2.181l-4.971,2.644l-0.088,3.516l5.533-2.941l-0.057,2.18L331.303,158.291
					 M345.4,146.737l1.998-9.75l2.996-1.595l-0.32,12.915l-1.852,0.986l0.254-10.173l-2.227,11.221l-1.926,1.025l-1.705-9.131
					l-0.252,10.171l-1.861,0.989l0.318-12.915l3-1.594L345.4,146.737 M288.779,181.116c-1.471,0.781-2.634,0.823-3.474,0.106
					c-0.841-0.706-1.23-2.093-1.18-4.149c0.033-1.315,0.206-2.498,0.53-3.545c0.243-0.776,0.565-1.536,0.968-2.265
					c0.404-0.729,0.845-1.345,1.314-1.853c0.626-0.66,1.335-1.214,2.148-1.646c1.455-0.773,2.607-0.8,3.455-0.09
					c0.85,0.715,1.248,2.129,1.195,4.227c-0.053,2.084-0.53,3.957-1.428,5.586C291.408,179.13,290.234,180.344,288.779,181.116
					 M298.793,173.619c0.643-0.34,1.135-0.777,1.468-1.306c0.334-0.527,0.507-1.03,0.518-1.499c0.009-0.304-0.051-0.528-0.184-0.676
					c-0.133-0.135-0.362-0.197-0.709-0.168c-0.226,0.007-0.756,0.103-1.586,0.278c-1.063,0.226-1.809,0.198-2.227-0.073
					c-0.592-0.385-0.871-1.091-0.846-2.115c0.016-0.657,0.171-1.345,0.477-2.073c0.299-0.725,0.722-1.384,1.267-1.962
					c0.544-0.587,1.196-1.089,1.961-1.495c1.243-0.659,2.168-0.793,2.785-0.42c0.606,0.378,0.916,1.15,0.921,2.312l-2.01,1.18
					c-0.066-0.614-0.241-0.994-0.509-1.139c-0.276-0.141-0.697-0.063-1.257,0.234c-0.585,0.312-1.045,0.71-1.377,1.195
					c-0.224,0.314-0.337,0.644-0.345,0.977c-0.007,0.302,0.093,0.507,0.282,0.621c0.244,0.149,0.854,0.103,1.812-0.108
					c0.968-0.218,1.683-0.298,2.14-0.223c0.462,0.073,0.817,0.318,1.064,0.733c0.253,0.409,0.366,1.03,0.346,1.843
					c-0.018,0.742-0.197,1.516-0.529,2.33c-0.325,0.812-0.785,1.53-1.369,2.147c-0.587,0.631-1.312,1.174-2.173,1.629
					c-1.251,0.667-2.2,0.79-2.855,0.397c-0.653-0.393-1.026-1.286-1.119-2.656l1.946-1.282c0.1,0.789,0.319,1.29,0.669,1.497
					C297.701,174.005,298.184,173.943,298.793,173.619 M317.259,163.801c0.649-0.344,1.134-0.776,1.475-1.309
					c0.334-0.527,0.507-1.031,0.518-1.5c0.007-0.302-0.059-0.524-0.184-0.675c-0.134-0.135-0.371-0.192-0.709-0.168
					c-0.233,0.009-0.764,0.106-1.586,0.276c-1.063,0.227-1.81,0.199-2.227-0.07c-0.593-0.388-0.88-1.089-0.854-2.112
					c0.018-0.655,0.178-1.349,0.477-2.073c0.298-0.725,0.725-1.385,1.275-1.966c0.544-0.587,1.197-1.09,1.961-1.497
					c1.243-0.659,2.168-0.79,2.775-0.414c0.615,0.372,0.917,1.15,0.922,2.312l-2.003,1.176c-0.071-0.61-0.239-0.993-0.516-1.135
					c-0.277-0.141-0.696-0.062-1.257,0.236c-0.576,0.306-1.036,0.704-1.376,1.194c-0.216,0.312-0.329,0.638-0.337,0.971
					c-0.009,0.304,0.082,0.513,0.282,0.623c0.243,0.147,0.847,0.105,1.813-0.11c0.966-0.214,1.675-0.293,2.139-0.22
					c0.454,0.077,0.809,0.32,1.063,0.73c0.247,0.415,0.358,1.035,0.339,1.848c-0.018,0.742-0.19,1.513-0.523,2.327
					c-0.332,0.815-0.79,1.534-1.375,2.153c-0.586,0.629-1.305,1.167-2.165,1.623c-1.252,0.667-2.208,0.794-2.862,0.4
					c-0.648-0.396-1.027-1.286-1.122-2.656l1.954-1.288c0.096,0.796,0.323,1.291,0.671,1.498
					C316.174,164.182,316.649,164.126,317.259,163.801 M270.758,173.424c-4.654,2.475-8.304-0.372-8.156-6.35l0.373-15.032
					c0.149-5.978,4.037-12.822,8.692-15.299l11.299-6.008c4.648-2.47,8.305,0.362,8.158,6.341l-0.375,15.033
					c-0.147,5.977-4.046,12.837-8.691,15.307L270.758,173.424 M300.927,157.382c-4.654,2.477-8.303-0.372-8.154-6.35l0.372-15.033
					c0.149-5.977,4.038-12.822,8.692-15.298l11.291-6.003c4.654-2.475,8.304,0.361,8.156,6.341l-0.373,15.032
					c-0.147,5.978-4.037,12.833-8.691,15.306L300.927,157.382 M331.088,141.345c-4.645,2.471-8.301-0.372-8.153-6.35l0.373-15.033
					c0.146-5.977,4.046-12.826,8.692-15.297l11.299-6.008c4.646-2.472,8.303,0.361,8.154,6.339l-0.373,15.032
					c-0.148,5.979-4.047,12.838-8.691,15.31L331.088,141.345 M355.721,87.089l-96.227,51.165l-1.594,64.243l96.227-51.165
					L355.721,87.089"/>
				<path clip-path="url(#SVGID_12_)" fill="#FD3200" d="M307.242,145.554c-0.587,0.311-1.081,1.191-1.1,1.953
					c-0.019,0.771,0.444,1.132,1.028,0.821c0.587-0.312,1.081-1.182,1.1-1.953C308.289,145.613,307.826,145.242,307.242,145.554
					 M313.289,123.075l-12.144,6.458l-0.447,18.067l12.144-6.457L313.289,123.075 M300.365,152.861
					c-1.479,0.788-2.641-0.139-2.593-2.078l0.487-19.654c0.049-1.93,1.289-4.135,2.768-4.92l12.55-6.675
					c1.487-0.791,2.65,0.136,2.604,2.065l-0.488,19.654c-0.049,1.941-1.289,4.146-2.775,4.937L300.365,152.861 M313.128,114.698
					l-11.291,6.003c-4.654,2.476-8.543,9.321-8.692,15.3l-0.372,15.032c-0.148,5.977,3.5,8.825,8.153,6.349l11.294-6.003
					c4.652-2.475,8.544-9.33,8.69-15.308l0.374-15.034C321.432,115.061,317.782,112.224,313.128,114.698"/>
				<path clip-path="url(#SVGID_12_)" fill="#424242" d="M268.984,158.637c-1.965-2.291-1.928-6.974,0.035-11.467l4.426,3.535
					L268.984,158.637 M280.309,163.658c-1.913,1.019-3.806,1.084-5.219-0.042l-4.952-3.947c2.018-3.777,7.915-14.081,10.965-19.376
					l4.905,3.908c2.83,2.253,2.677,8.428-0.342,13.791C284.162,160.672,282.224,162.642,280.309,163.658 M275.056,148.479
					l-4.74-3.778c1.437-2.314,3.191-4.021,4.928-4.945c1.748-0.929,3.479-1.063,4.843-0.221L275.056,148.479 M282.966,130.737
					l-11.299,6.006c-4.655,2.477-8.543,9.321-8.692,15.298l-0.373,15.033c-0.147,5.978,3.502,8.826,8.156,6.35l11.3-6.007
					c4.646-2.472,8.544-9.331,8.691-15.31l0.375-15.033C291.271,131.098,287.614,128.265,282.966,130.737"/>
				<path clip-path="url(#SVGID_12_)" fill="#424242" d="M339.619,114.799c-0.447,0.238-0.824,0.9-0.838,1.485
					c-0.016,0.585,0.338,0.87,0.785,0.632c0.447-0.237,0.824-0.911,0.838-1.496C340.42,114.836,340.066,114.561,339.619,114.799
					 M329.062,125.756l-2.43-2.878l3.379-3.486l2.428,3.003L329.062,125.756 M335.121,122.925l-4.359-5.238l14.223-13.678
					l2.324,6.835l-5.535,5.671l-0.199,8.055l3.037-1.614l0.066-2.641l2.631-1.399l-0.203,8.178l-2.527,1.346l0.066-2.641
					c0,0-2.17,1.502-3.611,2.269c-0.721,0.384-1.262,0.584-1.256,0.319c0.021-0.793,0.26-10.422,0.26-10.422L335.121,122.925
					 M343.299,98.657l-11.301,6.008c-4.646,2.471-8.542,9.32-8.692,15.297l-0.372,15.033c-0.148,5.978,3.51,8.82,8.154,6.35
					l11.301-6.007c4.645-2.472,8.543-9.331,8.691-15.31l0.375-15.032C351.602,99.019,347.945,96.186,343.299,98.657"/>
				<path clip-path="url(#SVGID_12_)" fill="#FFFFFF" d="M275.244,139.756c-1.738,0.924-3.493,2.631-4.929,4.945l4.74,3.778
					l5.032-8.944C278.72,138.692,276.99,138.826,275.244,139.756"/>
				<path clip-path="url(#SVGID_12_)" fill="#FFFFFF" d="M281.102,140.293c-3.049,5.295-8.946,15.597-10.966,19.378l4.954,3.945
					c1.416,1.126,3.306,1.061,5.219,0.042c1.916-1.018,3.854-2.986,5.357-5.666c3.019-5.363,3.171-11.538,0.342-13.791
					L281.102,140.293"/>
				<path clip-path="url(#SVGID_12_)" fill="#FFFFFF" d="M269.02,147.17c-1.963,4.493-2,9.176-0.036,11.467l4.462-7.932
					L269.02,147.17"/>
				<path clip-path="url(#SVGID_12_)" fill="#FFFFFF" d="M307.171,148.328c-0.584,0.311-1.048-0.05-1.028-0.821
					c0.019-0.762,0.513-1.643,1.099-1.953c0.585-0.312,1.048,0.06,1.029,0.821C308.252,147.146,307.758,148.017,307.171,148.328
					 M300.696,147.601l0.449-18.067l12.144-6.458l-0.447,18.068L300.696,147.601 M313.579,119.534l-12.552,6.675
					c-1.479,0.785-2.721,2.99-2.768,4.92l-0.487,19.654c-0.048,1.939,1.114,2.866,2.593,2.078l12.552-6.671
					c1.486-0.791,2.727-2.995,2.775-4.937l0.488-19.654C316.228,119.67,315.064,118.743,313.579,119.534"/>
				<polygon clip-path="url(#SVGID_12_)" fill="#FFFFFF" points="330.014,119.392 326.633,122.877 329.062,125.756 332.439,122.395 
									"/>
				<path clip-path="url(#SVGID_12_)" fill="#FFFFFF" d="M339.566,116.916c-0.447,0.238-0.801-0.048-0.787-0.632
					c0.016-0.585,0.395-1.247,0.84-1.485c0.445-0.236,0.801,0.039,0.787,0.623C340.391,116.006,340.014,116.68,339.566,116.916
					 M344.984,104.009l-14.223,13.678l4.357,5.238l4.918-4.961c0,0-0.238,9.629-0.26,10.422c-0.006,0.264,0.531,0.063,1.256-0.319
					c1.441-0.767,3.611-2.269,3.611-2.269l-0.066,2.641l2.529-1.343l0.201-8.181l-2.631,1.4l-0.066,2.639l-3.039,1.615l0.201-8.053
					l5.535-5.673L344.984,104.009"/>
				<polygon clip-path="url(#SVGID_12_)" fill="#424242" points="264.329,181.155 262.331,182.219 262.011,195.132 264.009,194.07 
									"/>
				<polygon clip-path="url(#SVGID_12_)" fill="#424242" points="274.118,175.951 272.258,176.939 272.043,185.557 268.203,179.094 
					266.253,180.133 265.934,193.047 267.795,192.057 268.003,183.629 271.792,189.932 273.798,188.865 				"/>
				<polygon clip-path="url(#SVGID_12_)" fill="#424242" points="283.037,171.209 276.244,174.818 275.925,187.735 277.924,186.672 
					278.061,181.184 282.204,178.981 282.258,176.792 278.116,178.993 278.189,175.938 282.983,173.389 				"/>
				<path clip-path="url(#SVGID_12_)" fill="#424242" d="M288.825,178.889c-0.795,0.423-1.443,0.395-1.943-0.078
					c-0.502-0.484-0.733-1.452-0.697-2.913c0.035-1.492,0.315-2.731,0.846-3.744c0.521-1.008,1.197-1.728,2.018-2.165
					c0.827-0.438,1.477-0.425,1.956,0.042c0.484,0.462,0.7,1.428,0.664,2.91c-0.038,1.503-0.317,2.763-0.848,3.776
					C290.29,177.74,289.623,178.465,288.825,178.889 M289.087,167.766c-0.812,0.432-1.524,0.985-2.15,1.647
					c-0.469,0.506-0.908,1.121-1.312,1.851c-0.402,0.729-0.725,1.488-0.969,2.265c-0.323,1.047-0.496,2.229-0.527,3.545
					c-0.053,2.057,0.337,3.443,1.178,4.15c0.84,0.716,2.005,0.675,3.475-0.107c1.454-0.774,2.63-1.985,3.528-3.628
					c0.897-1.629,1.377-3.502,1.43-5.588c0.05-2.095-0.346-3.51-1.194-4.225C291.696,166.966,290.54,166.992,289.087,167.766"/>
				<path clip-path="url(#SVGID_12_)" fill="#FD3200" d="M298.932,162.53c-0.765,0.406-1.417,0.908-1.961,1.495
					c-0.545,0.578-0.968,1.236-1.267,1.962c-0.308,0.729-0.461,1.416-0.477,2.075c-0.025,1.022,0.254,1.728,0.846,2.113
					c0.418,0.271,1.162,0.299,2.227,0.073c0.83-0.176,1.362-0.271,1.587-0.278c0.343-0.029,0.575,0.033,0.708,0.168
					c0.133,0.146,0.192,0.372,0.185,0.676c-0.014,0.469-0.186,0.972-0.52,1.499c-0.334,0.528-0.825,0.964-1.467,1.307
					c-0.608,0.324-1.092,0.385-1.439,0.179c-0.347-0.207-0.567-0.709-0.668-1.499l-1.948,1.284c0.095,1.368,0.465,2.264,1.121,2.656
					c0.655,0.393,1.604,0.27,2.855-0.396c0.861-0.457,1.588-1,2.173-1.631c0.585-0.618,1.044-1.335,1.368-2.146
					c0.333-0.816,0.513-1.591,0.53-2.332c0.021-0.814-0.093-1.432-0.347-1.843c-0.246-0.416-0.602-0.66-1.065-0.731
					c-0.453-0.077-1.17,0.003-2.137,0.219c-0.959,0.213-1.569,0.258-1.815,0.112c-0.188-0.115-0.287-0.32-0.28-0.623
					c0.008-0.333,0.121-0.661,0.346-0.977c0.333-0.486,0.791-0.885,1.376-1.195c0.56-0.299,0.98-0.376,1.255-0.236
					c0.27,0.146,0.444,0.526,0.511,1.141l2.007-1.181c-0.002-1.163-0.312-1.934-0.919-2.311
					C301.1,161.739,300.175,161.869,298.932,162.53"/>
				<polygon clip-path="url(#SVGID_12_)" fill="#FD3200" points="312.932,155.313 310.633,156.537 308.215,162.854 306.009,158.994 
					303.662,160.241 307.108,165.79 306.973,171.226 308.971,170.163 309.105,164.739 				"/>
				<path clip-path="url(#SVGID_12_)" fill="#FD3200" d="M317.405,152.709c-0.765,0.406-1.418,0.908-1.962,1.495
					c-0.551,0.581-0.978,1.239-1.275,1.965c-0.299,0.725-0.459,1.42-0.476,2.075c-0.025,1.022,0.261,1.725,0.854,2.109
					c0.417,0.272,1.162,0.298,2.227,0.072c0.822-0.169,1.353-0.268,1.586-0.277c0.338-0.023,0.575,0.034,0.709,0.17
					c0.126,0.149,0.19,0.37,0.184,0.673c-0.013,0.47-0.185,0.974-0.519,1.501c-0.342,0.532-0.824,0.965-1.477,1.311
					c-0.606,0.324-1.082,0.379-1.431,0.174c-0.346-0.207-0.573-0.703-0.667-1.499l-1.956,1.288c0.095,1.369,0.474,2.262,1.12,2.656
					c0.656,0.394,1.613,0.265,2.863-0.4c0.862-0.457,1.58-0.994,2.166-1.622c0.585-0.622,1.043-1.338,1.375-2.153
					c0.334-0.816,0.506-1.587,0.522-2.328c0.02-0.813-0.093-1.432-0.339-1.847c-0.254-0.412-0.608-0.655-1.064-0.731
					c-0.462-0.073-1.17,0.004-2.137,0.22c-0.968,0.216-1.57,0.26-1.815,0.111c-0.198-0.111-0.287-0.32-0.28-0.623
					c0.01-0.333,0.122-0.66,0.337-0.972c0.34-0.49,0.798-0.888,1.376-1.195c0.561-0.297,0.979-0.377,1.257-0.237
					c0.277,0.142,0.445,0.528,0.516,1.138l2.003-1.178c-0.003-1.162-0.306-1.938-0.922-2.31
					C319.572,151.917,318.646,152.048,317.405,152.709"/>
				<polygon clip-path="url(#SVGID_12_)" fill="#FD3200" points="330.33,146.062 322.452,150.251 322.396,152.431 325.337,150.869 
					325.072,161.604 327.07,160.542 327.336,149.806 330.277,148.241 				"/>
				<polygon clip-path="url(#SVGID_12_)" fill="#FD3200" points="338.967,141.471 331.623,145.376 331.301,158.291 338.83,154.286 
					338.887,152.105 333.355,155.048 333.441,151.532 338.412,148.889 338.467,146.708 333.496,149.352 333.566,146.493 
					338.912,143.651 				"/>
				<polygon clip-path="url(#SVGID_12_)" fill="#FD3200" points="350.395,135.393 347.398,136.987 345.4,146.737 343.822,138.888 
					340.824,140.481 340.504,153.396 342.363,152.407 342.619,142.235 344.322,151.366 346.25,150.342 348.475,139.121 
					348.223,149.293 350.076,148.308 				"/>
			</g>
		</g>
	</g>
	<g opacity="0.2">
		<g>
			<defs>
				<rect id="SVGID_13_" x="82.268" y="207.905" width="123.1" height="66.917"/>
			</defs>
			<clipPath id="SVGID_14_">
				<use xlink:href="#SVGID_13_"  overflow="visible"/>
			</clipPath>
			<path clip-path="url(#SVGID_14_)" fill="#35352D" d="M138.017,216.528c1.523-1.664,3.578-3.216,6.186-4.55
				c11.043-5.659,27.512-5.389,36.782,0.599c4.968,3.216,6.832,7.425,5.803,11.515c4.708,0.652,9.074,2.067,12.475,4.268
				c9.264,5.988,7.824,15.43-3.223,21.086c-1.704,0.879-3.55,1.591-5.464,2.185c1.34,4.928-1.747,10.272-9,13.986
				c-11.045,5.661-27.514,5.389-36.783-0.6c-0.848-0.552-1.573-1.139-2.244-1.735c-9.473,4.465-22.473,4.796-31.671,1.104
				l-19.423,9.964c-0.189,0.095-0.407,0.171-0.621,0.238c-1.84,0.562-4.634,0.09-6.626-1.198c-2.224-1.437-2.591-3.346-0.816-4.253
				l19.621-10.075c-4.664-5.579-2.495-12.61,5.918-17.351c-0.629-0.327-1.242-0.684-1.82-1.05
				c-9.26-5.993-7.825-15.437,3.228-21.095C118.323,215.476,129.125,214.498,138.017,216.528"/>
		</g>
	</g>
	<path fill="#432A07" d="M78.201,233.653h15.757l0.022,38.702h-0.396c-3.864-13.362-8.363-25.943-15.381-35.431L78.201,233.653z"/>
	<polyline fill="#432A07" points="78.203,236.925 77.53,196.314 93.289,196.314 93.981,272.359 	"/>
	<path fill="#613E0C" d="M78.203,236.925c7.019,9.487,11.518,22.068,15.379,35.435H78.253L78.203,236.925z"/>
	<path fill="#613E0C" d="M86.168,267.085c2.808,0,5.257,0.993,6.646,2.468c0.368,1.237,0.725,2.46,1.079,3.695
		c-0.645,2.479-3.85,4.361-7.726,4.361c-4.342,0-7.864-2.356-7.864-5.264C78.304,269.439,81.826,267.085,86.168,267.085"/>
	<path fill="#523409" d="M82.113,254.361c0.026,4.018,0.203,7.273,0.392,7.273c0.186-0.019,0.314-3.267,0.292-7.266
		c-0.034-4.028-0.211-7.285-0.396-7.269C82.214,247.093,82.081,250.341,82.113,254.361"/>
	<path fill="#2E1902" d="M90.342,249.427c0.02,2.438,0.125,4.403,0.242,4.403c0.108-0.008,0.189-1.972,0.175-4.403
		c-0.021-2.423-0.126-4.396-0.242-4.389C90.406,245.038,90.323,247.004,90.342,249.427"/>
	<path fill="#778219" d="M85.569,186.514c0.119,0.706,0.415,1.232,0.667,1.194c0.253-0.04,0.37-0.642,0.253-1.341
		c-0.113-0.699-0.408-1.235-0.661-1.188C85.569,185.214,85.455,185.812,85.569,186.514"/>
	<path fill="#778219" d="M54,208.614c0,18.089,14.661,32.748,32.748,32.748s32.748-14.659,32.748-32.748
		c0-18.083-14.661-32.746-32.748-32.746S54,190.531,54,208.614"/>
	<path fill="#869416" d="M54.679,210.745c0,15.897,12.888,28.785,28.787,28.785c15.903,0,28.789-12.888,28.789-28.785
		c0-15.904-12.886-28.796-28.789-28.796C67.566,181.949,54.679,194.841,54.679,210.745"/>
	<path fill="#778219" d="M82.888,223.491c-0.053,0.707,0.111,1.293,0.368,1.315c0.253,0.025,0.506-0.536,0.562-1.242
		c0.055-0.705-0.111-1.298-0.368-1.318C83.191,222.226,82.946,222.791,82.888,223.491"/>
	<path fill="#778219" d="M84.031,203.292c0.063,0.709,0.331,1.261,0.587,1.234c0.258-0.027,0.405-0.618,0.339-1.327
		c-0.076-0.707-0.335-1.258-0.59-1.229C84.107,201.995,83.96,202.589,84.031,203.292"/>
	<path fill="#778219" d="M86.833,187.755c0.072,0.711,0.336,1.259,0.595,1.231c0.253-0.02,0.405-0.613,0.332-1.318
		c-0.067-0.71-0.332-1.262-0.591-1.235C86.912,186.459,86.764,187.05,86.833,187.755"/>
	<path fill="#778219" d="M93.477,213.018c0.119,0.707,0.421,1.238,0.677,1.192c0.251-0.043,0.359-0.644,0.244-1.341
		c-0.126-0.702-0.423-1.232-0.678-1.188C93.466,211.724,93.361,212.324,93.477,213.018"/>
	<path fill="#778219" d="M97.167,195.961c0.121,0.705,0.419,1.234,0.677,1.188c0.257-0.038,0.363-0.639,0.24-1.336
		c-0.117-0.705-0.418-1.235-0.674-1.189C97.154,194.666,97.049,195.266,97.167,195.961"/>
	<path fill="#778219" d="M94.014,231.071c-0.269,0.662-0.29,1.272-0.053,1.366c0.236,0.103,0.648-0.355,0.915-1.013
		c0.266-0.662,0.29-1.27,0.051-1.366C94.686,229.962,94.279,230.423,94.014,231.071"/>
	<path fill="#778219" d="M105.292,216.428c-0.163,0.694-0.088,1.303,0.168,1.36c0.246,0.054,0.579-0.456,0.737-1.151
		c0.153-0.692,0.079-1.298-0.168-1.354C105.779,215.229,105.447,215.741,105.292,216.428"/>
	<path fill="#778219" d="M73.344,213.952c-0.054,0.708,0.111,1.297,0.37,1.312c0.254,0.021,0.508-0.532,0.563-1.243
		c0.05-0.707-0.113-1.295-0.364-1.314C73.649,212.685,73.398,213.243,73.344,213.952"/>
	<path fill="#778219" d="M75.502,193.304c-0.053,0.707,0.109,1.299,0.365,1.315c0.258,0.021,0.511-0.538,0.562-1.246
		c0.059-0.705-0.104-1.298-0.363-1.311C75.81,192.04,75.561,192.598,75.502,193.304"/>
	<path fill="#778219" d="M61.368,204.492c-0.056,0.709,0.104,1.296,0.365,1.313c0.257,0.021,0.511-0.535,0.561-1.244
		c0.058-0.707-0.108-1.297-0.366-1.31C61.672,203.23,61.424,203.786,61.368,204.492"/>
	<path fill="#778219" d="M71.298,231.213c-0.055,0.709,0.11,1.295,0.369,1.312c0.255,0.021,0.503-0.534,0.564-1.241
		c0.049-0.709-0.115-1.301-0.367-1.316C71.603,229.948,71.352,230.504,71.298,231.213"/>
	<path fill="#546C20" d="M114.488,202.165c0.3,0.642,0.723,1.081,0.953,0.969c0.237-0.098,0.191-0.714-0.095-1.354
		c-0.291-0.652-0.724-1.089-0.957-0.98C114.155,200.904,114.199,201.514,114.488,202.165"/>
	<path fill="#546C20" d="M107.944,229.839c-0.19,0.681-0.153,1.293,0.098,1.366c0.244,0.07,0.601-0.427,0.798-1.104
		c0.199-0.684,0.154-1.292-0.094-1.361C108.499,228.663,108.144,229.163,107.944,229.839"/>
	<path fill="#546C20" d="M116.213,211.549c-0.191,0.682-0.148,1.294,0.099,1.363c0.245,0.072,0.606-0.418,0.806-1.102
		c0.189-0.681,0.152-1.294-0.097-1.365C116.771,210.371,116.413,210.869,116.213,211.549"/>
	<path fill="#546C20" d="M101.637,184.901c0.646,0.3,1.252,0.36,1.359,0.126c0.112-0.228-0.314-0.66-0.95-0.973
		c-0.641-0.307-1.249-0.363-1.36-0.131C100.574,184.153,101,184.595,101.637,184.901"/>
	<path fill="#546C20" d="M74.026,182.364c0.622-0.335,1.037-0.781,0.914-1.016c-0.116-0.223-0.718-0.141-1.352,0.189
		c-0.625,0.329-1.036,0.785-0.921,1.013C72.792,182.772,73.398,182.695,74.026,182.364"/>
	<path fill="#778219" d="M49.562,155.6c0.114,0.705,0.411,1.229,0.669,1.192c0.257-0.041,0.367-0.643,0.257-1.341
		c-0.117-0.7-0.417-1.235-0.67-1.189C49.562,154.298,49.45,154.896,49.562,155.6"/>
	<path fill="#778219" d="M17.99,177.699c0,18.089,14.664,32.748,32.747,32.748c18.086,0,32.751-14.659,32.751-32.748
		c0-18.085-14.665-32.748-32.751-32.748C32.654,144.951,17.99,159.614,17.99,177.699"/>
	<path fill="#869416" d="M18.671,179.828c0,15.897,12.889,28.786,28.79,28.786c15.898,0,28.788-12.889,28.788-28.786
		c0-15.905-12.89-28.794-28.788-28.794C31.56,151.034,18.671,163.923,18.671,179.828"/>
	<path fill="#778219" d="M46.881,192.574c-0.057,0.707,0.11,1.295,0.364,1.316c0.259,0.021,0.508-0.532,0.563-1.243
		c0.058-0.706-0.105-1.297-0.362-1.318C47.188,191.309,46.936,191.872,46.881,192.574"/>
	<path fill="#778219" d="M48.017,172.375c0.074,0.71,0.338,1.26,0.591,1.234c0.258-0.027,0.412-0.617,0.337-1.324
		c-0.065-0.711-0.332-1.26-0.59-1.231C48.1,171.077,47.948,171.676,48.017,172.375"/>
	<path fill="#778219" d="M50.825,156.839c0.07,0.708,0.333,1.26,0.588,1.229c0.259-0.02,0.407-0.613,0.339-1.317
		c-0.067-0.706-0.326-1.259-0.588-1.234C50.905,155.542,50.761,156.135,50.825,156.839"/>
	<path fill="#778219" d="M57.468,182.104c0.12,0.703,0.421,1.234,0.674,1.188c0.258-0.039,0.365-0.64,0.241-1.338
		c-0.112-0.705-0.42-1.232-0.67-1.19C57.455,180.807,57.347,181.408,57.468,182.104"/>
	<path fill="#778219" d="M61.161,165.046c0.119,0.706,0.423,1.235,0.673,1.189c0.253-0.043,0.362-0.643,0.245-1.338
		c-0.125-0.705-0.421-1.235-0.674-1.189C61.149,163.75,61.043,164.352,61.161,165.046"/>
	<path fill="#778219" d="M58.002,200.152c-0.265,0.666-0.289,1.273-0.048,1.37c0.238,0.1,0.645-0.357,0.909-1.015
		c0.267-0.66,0.29-1.27,0.06-1.368C58.68,199.045,58.271,199.505,58.002,200.152"/>
	<path fill="#778219" d="M69.28,185.513c-0.159,0.693-0.084,1.302,0.163,1.359c0.259,0.054,0.589-0.454,0.744-1.152
		c0.159-0.692,0.087-1.298-0.168-1.354C69.77,184.31,69.438,184.825,69.28,185.513"/>
	<path fill="#546C20" d="M78.483,171.249c0.293,0.642,0.723,1.082,0.957,0.97c0.228-0.1,0.185-0.715-0.109-1.357
		c-0.29-0.649-0.717-1.084-0.953-0.977C78.148,169.988,78.193,170.6,78.483,171.249"/>
	<path fill="#546C20" d="M71.938,198.923c-0.197,0.682-0.153,1.295,0.092,1.366c0.25,0.069,0.607-0.426,0.807-1.102
		c0.191-0.687,0.151-1.294-0.092-1.364C72.496,197.748,72.137,198.245,71.938,198.923"/>
	<path fill="#546C20" d="M80.208,180.633c-0.192,0.684-0.152,1.293,0.091,1.365c0.251,0.068,0.607-0.421,0.807-1.104
		c0.196-0.681,0.156-1.293-0.094-1.361C80.766,179.456,80.406,179.954,80.208,180.633"/>
	<path fill="#546C20" d="M65.634,153.981c0.638,0.305,1.244,0.361,1.36,0.132c0.106-0.227-0.321-0.664-0.954-0.977
		c-0.645-0.306-1.253-0.361-1.364-0.13C64.564,153.239,64.996,153.678,65.634,153.981"/>
	<path fill="#778219" d="M123.107,155.6c0.118,0.705,0.414,1.229,0.669,1.192c0.249-0.041,0.37-0.643,0.249-1.341
		c-0.112-0.7-0.409-1.235-0.66-1.189C123.107,154.298,122.994,154.896,123.107,155.6"/>
	<path fill="#778219" d="M91.536,177.699c0,18.089,14.663,32.748,32.746,32.748c18.09,0,32.751-14.659,32.751-32.748
		c0-18.085-14.661-32.748-32.751-32.748C106.199,144.951,91.536,159.614,91.536,177.699"/>
	<path fill="#869416" d="M92.217,179.828c0,15.897,12.888,28.786,28.787,28.786c15.9,0,28.793-12.889,28.793-28.786
		c0-15.905-12.893-28.794-28.793-28.794C105.104,151.034,92.217,163.923,92.217,179.828"/>
	<path fill="#778219" d="M120.424,192.574c-0.052,0.707,0.109,1.295,0.369,1.316c0.251,0.021,0.51-0.532,0.563-1.243
		c0.051-0.706-0.113-1.297-0.371-1.318C120.729,191.309,120.48,191.872,120.424,192.574"/>
	<path fill="#778219" d="M121.564,172.375c0.07,0.71,0.336,1.26,0.59,1.234c0.259-0.027,0.406-0.617,0.339-1.324
		c-0.073-0.711-0.335-1.26-0.587-1.231C121.645,171.077,121.496,171.676,121.564,172.375"/>
	<path fill="#778219" d="M124.372,156.839c0.069,0.708,0.336,1.26,0.591,1.229c0.255-0.02,0.405-0.613,0.332-1.317
		c-0.065-0.706-0.332-1.259-0.587-1.234C124.449,155.542,124.302,156.135,124.372,156.839"/>
	<path fill="#778219" d="M131.011,182.104c0.123,0.703,0.425,1.234,0.677,1.188c0.253-0.039,0.36-0.64,0.243-1.338
		c-0.124-0.705-0.421-1.232-0.673-1.19C131.006,180.807,130.896,181.408,131.011,182.104"/>
	<path fill="#778219" d="M134.704,165.046c0.12,0.706,0.419,1.235,0.674,1.189c0.256-0.043,0.366-0.643,0.242-1.338
		c-0.116-0.705-0.419-1.235-0.672-1.189C134.692,163.75,134.583,164.352,134.704,165.046"/>
	<path fill="#778219" d="M131.55,200.152c-0.269,0.666-0.29,1.273-0.052,1.37c0.234,0.1,0.652-0.357,0.913-1.015
		c0.268-0.66,0.294-1.27,0.053-1.368C132.223,199.045,131.817,199.505,131.55,200.152"/>
	<path fill="#778219" d="M100.123,197.875c-0.163,0.693-0.088,1.302,0.166,1.359c0.249,0.054,0.58-0.455,0.74-1.152
		c0.151-0.692,0.078-1.298-0.168-1.354C100.605,196.672,100.276,197.188,100.123,197.875"/>
	<path fill="#778219" d="M110.88,183.035c-0.052,0.709,0.114,1.298,0.372,1.313c0.256,0.021,0.503-0.534,0.561-1.242
		c0.05-0.708-0.111-1.297-0.364-1.315C111.187,181.768,110.935,182.328,110.88,183.035"/>
	<path fill="#778219" d="M113.04,162.388c-0.054,0.705,0.109,1.298,0.362,1.315c0.257,0.02,0.511-0.537,0.565-1.248
		c0.058-0.705-0.109-1.297-0.366-1.314C113.347,161.122,113.098,161.682,113.04,162.388"/>
	<path fill="#778219" d="M98.902,173.576c-0.054,0.712,0.109,1.298,0.367,1.313c0.255,0.021,0.514-0.534,0.562-1.243
		c0.06-0.707-0.106-1.296-0.364-1.314C99.21,172.313,98.96,172.869,98.902,173.576"/>
	<path fill="#778219" d="M108.833,200.296c-0.052,0.71,0.114,1.298,0.369,1.313c0.258,0.019,0.506-0.534,0.565-1.243
		c0.049-0.71-0.113-1.297-0.367-1.312C109.142,199.032,108.89,199.588,108.833,200.296"/>
	<path fill="#546C20" d="M109.323,183.611c0.295,0.641,0.719,1.081,0.95,0.97c0.236-0.1,0.19-0.715-0.1-1.357
		c-0.289-0.649-0.718-1.084-0.952-0.977C108.984,182.35,109.03,182.962,109.323,183.611"/>
	<path fill="#546C20" d="M102.777,211.285c-0.194,0.682-0.149,1.295,0.092,1.365c0.245,0.07,0.607-0.425,0.8-1.102
		c0.199-0.686,0.158-1.293-0.089-1.363C103.331,210.11,102.974,210.607,102.777,211.285"/>
	<path fill="#546C20" d="M111.046,192.995c-0.192,0.684-0.149,1.293,0.098,1.365c0.244,0.067,0.604-0.421,0.804-1.104
		c0.191-0.681,0.149-1.293-0.095-1.361C111.604,191.817,111.244,192.316,111.046,192.995"/>
	<path fill="#546C20" d="M96.471,166.344c0.646,0.305,1.25,0.361,1.357,0.131c0.113-0.227-0.315-0.663-0.953-0.976
		c-0.64-0.306-1.248-0.362-1.36-0.13C95.405,165.601,95.83,166.041,96.471,166.344"/>
	<path fill="#546C20" d="M111.564,151.448c0.622-0.336,1.037-0.784,0.913-1.017c-0.118-0.222-0.722-0.138-1.353,0.191
		c-0.623,0.329-1.035,0.781-0.92,1.014C110.33,151.859,110.934,151.781,111.564,151.448"/>
	<path fill="#778219" d="M108.348,119.542c0.118,0.704,0.414,1.23,0.67,1.192c0.252-0.042,0.369-0.64,0.252-1.345
		c-0.111-0.698-0.409-1.229-0.664-1.185C108.348,118.241,108.234,118.837,108.348,119.542"/>
	<path fill="#778219" d="M76.781,141.641c0,18.092,14.659,32.749,32.745,32.749c18.088,0,32.747-14.657,32.747-32.749
		c0-18.084-14.659-32.746-32.747-32.746C91.44,108.895,76.781,123.557,76.781,141.641"/>
	<path fill="#869416" d="M77.458,143.771c0,15.898,12.889,28.787,28.786,28.787c15.901,0,28.792-12.889,28.792-28.787
		c0-15.906-12.891-28.796-28.792-28.796C90.347,114.975,77.458,127.864,77.458,143.771"/>
	<path fill="#778219" d="M105.664,156.516c-0.048,0.709,0.113,1.297,0.368,1.316c0.256,0.026,0.51-0.534,0.562-1.24
		c0.057-0.707-0.11-1.299-0.367-1.317C105.972,155.253,105.72,155.813,105.664,156.516"/>
	<path fill="#778219" d="M106.808,136.319c0.066,0.707,0.332,1.258,0.59,1.23c0.256-0.026,0.406-0.615,0.339-1.324
		c-0.073-0.707-0.337-1.259-0.59-1.23C106.887,135.021,106.739,135.618,106.808,136.319"/>
	<path fill="#778219" d="M109.611,120.78c0.071,0.708,0.337,1.26,0.594,1.23c0.254-0.021,0.407-0.613,0.332-1.319
		c-0.066-0.705-0.332-1.258-0.589-1.233C109.689,119.484,109.542,120.073,109.611,120.78"/>
	<path fill="#778219" d="M116.255,146.049c0.123,0.701,0.421,1.232,0.677,1.186c0.25-0.042,0.358-0.643,0.24-1.338
		c-0.121-0.704-0.422-1.235-0.672-1.188C116.249,144.749,116.141,145.35,116.255,146.049"/>
	<path fill="#778219" d="M119.944,128.989c0.124,0.702,0.42,1.234,0.678,1.186c0.259-0.041,0.363-0.64,0.238-1.336
		c-0.113-0.704-0.417-1.234-0.668-1.189C119.934,127.691,119.829,128.292,119.944,128.989"/>
	<path fill="#778219" d="M116.793,164.097c-0.269,0.662-0.291,1.271-0.054,1.367c0.238,0.101,0.652-0.355,0.914-1.015
		c0.266-0.657,0.292-1.268,0.051-1.366C117.464,162.985,117.06,163.446,116.793,164.097"/>
	<path fill="#778219" d="M128.072,149.456c-0.161,0.69-0.09,1.301,0.165,1.357c0.248,0.054,0.58-0.456,0.737-1.15
		c0.155-0.694,0.082-1.298-0.166-1.356C128.555,148.252,128.225,148.769,128.072,149.456"/>
	<path fill="#778219" d="M96.121,146.978c-0.052,0.709,0.115,1.297,0.368,1.314c0.259,0.021,0.508-0.534,0.566-1.245
		c0.049-0.708-0.113-1.294-0.366-1.312C96.431,145.712,96.177,146.271,96.121,146.978"/>
	<path fill="#778219" d="M98.28,126.326c-0.053,0.712,0.108,1.302,0.366,1.319c0.256,0.021,0.509-0.539,0.562-1.247
		c0.061-0.706-0.105-1.297-0.363-1.312C98.589,125.064,98.338,125.624,98.28,126.326"/>
	<path fill="#778219" d="M84.146,137.519c-0.054,0.709,0.108,1.298,0.367,1.313c0.254,0.022,0.512-0.533,0.561-1.243
		c0.056-0.707-0.11-1.297-0.363-1.312C84.454,136.254,84.202,136.812,84.146,137.519"/>
	<path fill="#778219" d="M94.077,164.239c-0.055,0.708,0.112,1.295,0.367,1.312c0.258,0.021,0.504-0.534,0.564-1.241
		c0.049-0.709-0.11-1.299-0.365-1.313C94.383,162.976,94.131,163.53,94.077,164.239"/>
	<path fill="#546C20" d="M137.268,135.19c0.301,0.643,0.725,1.08,0.952,0.97c0.239-0.101,0.193-0.712-0.095-1.356
		c-0.292-0.649-0.723-1.085-0.958-0.976C136.932,133.931,136.978,134.539,137.268,135.19"/>
	<path fill="#546C20" d="M130.721,162.866c-0.188,0.68-0.147,1.294,0.099,1.365c0.244,0.068,0.602-0.424,0.797-1.104
		c0.201-0.684,0.158-1.29-0.09-1.36C131.28,161.691,130.921,162.188,130.721,162.866"/>
	<path fill="#546C20" d="M96.286,156.938c-0.189,0.682-0.147,1.291,0.097,1.363c0.248,0.07,0.606-0.419,0.806-1.104
		c0.19-0.679,0.153-1.291-0.092-1.361C96.846,155.761,96.485,156.258,96.286,156.938"/>
	<path fill="#546C20" d="M124.419,117.926c0.646,0.302,1.249,0.361,1.357,0.127c0.111-0.228-0.315-0.662-0.954-0.973
		c-0.638-0.305-1.247-0.364-1.357-0.132C123.352,117.18,123.779,117.618,124.419,117.926"/>
	<path fill="#546C20" d="M96.809,115.393c0.618-0.339,1.035-0.784,0.907-1.018c-0.113-0.225-0.72-0.142-1.35,0.192
		c-0.623,0.326-1.032,0.78-0.919,1.01C95.573,115.802,96.177,115.724,96.809,115.393"/>
	<path fill="#778219" d="M65.997,113.943c0.118,0.706,0.413,1.232,0.666,1.193c0.254-0.043,0.369-0.641,0.254-1.343
		c-0.114-0.699-0.414-1.235-0.666-1.188C65.997,112.643,65.883,113.239,65.997,113.943"/>
	<path fill="#778219" d="M34.427,136.042c0,18.09,14.659,32.752,32.746,32.752c18.088,0,32.75-14.662,32.75-32.752
		c0-18.081-14.662-32.743-32.75-32.743C49.086,103.299,34.427,117.961,34.427,136.042"/>
	<path fill="#869416" d="M35.107,138.173c0,15.897,12.885,28.787,28.789,28.787c15.897,0,28.783-12.89,28.783-28.787
		c0-15.906-12.886-28.794-28.783-28.794C47.992,109.379,35.107,122.267,35.107,138.173"/>
	<path fill="#778219" d="M63.314,150.92c-0.053,0.706,0.104,1.295,0.364,1.316c0.255,0.025,0.509-0.537,0.563-1.243
		c0.056-0.701-0.106-1.297-0.367-1.316C63.619,149.652,63.372,150.218,63.314,150.92"/>
	<path fill="#778219" d="M64.45,130.721c0.074,0.707,0.337,1.258,0.595,1.233c0.257-0.026,0.406-0.615,0.339-1.325
		c-0.073-0.709-0.339-1.259-0.592-1.231C64.532,129.426,64.384,130.021,64.45,130.721"/>
	<path fill="#778219" d="M67.26,115.182c0.074,0.709,0.333,1.26,0.591,1.231c0.253-0.021,0.404-0.611,0.336-1.319
		c-0.067-0.706-0.333-1.258-0.591-1.232C67.341,113.889,67.192,114.479,67.26,115.182"/>
	<path fill="#778219" d="M73.902,140.447c0.115,0.704,0.42,1.233,0.672,1.19c0.257-0.041,0.365-0.644,0.244-1.34
		c-0.119-0.703-0.416-1.235-0.675-1.188C73.892,139.151,73.783,139.751,73.902,140.447"/>
	<path fill="#778219" d="M77.592,123.393c0.123,0.703,0.421,1.233,0.678,1.188c0.253-0.044,0.36-0.643,0.242-1.337
		c-0.119-0.706-0.421-1.237-0.672-1.191C77.582,122.094,77.472,122.693,77.592,123.393"/>
	<path fill="#778219" d="M74.44,158.496c-0.272,0.666-0.291,1.278-0.058,1.371c0.241,0.099,0.652-0.356,0.918-1.016
		c0.265-0.66,0.291-1.27,0.054-1.368C75.112,157.39,74.704,157.851,74.44,158.496"/>
	<path fill="#778219" d="M85.716,143.859c-0.163,0.689-0.088,1.301,0.166,1.357c0.252,0.056,0.584-0.456,0.739-1.152
		c0.16-0.691,0.084-1.296-0.162-1.354C86.199,142.656,85.865,143.169,85.716,143.859"/>
	<path fill="#778219" d="M53.769,141.38c-0.053,0.71,0.112,1.297,0.368,1.313c0.258,0.021,0.509-0.533,0.562-1.241
		c0.054-0.71-0.114-1.298-0.363-1.315C54.072,140.112,53.824,140.673,53.769,141.38"/>
	<path fill="#778219" d="M55.931,120.73c-0.06,0.709,0.107,1.302,0.364,1.319c0.257,0.021,0.504-0.541,0.564-1.249
		c0.052-0.704-0.105-1.297-0.366-1.313C56.238,119.469,55.983,120.026,55.931,120.73"/>
	<path fill="#778219" d="M51.72,158.641c-0.048,0.707,0.11,1.296,0.37,1.313c0.256,0.021,0.509-0.533,0.563-1.242
		c0.053-0.708-0.112-1.299-0.363-1.314C52.027,157.378,51.779,157.932,51.72,158.641"/>
	<path fill="#546C20" d="M94.916,129.592c0.295,0.644,0.725,1.082,0.953,0.969c0.232-0.098,0.193-0.713-0.104-1.353
		c-0.29-0.65-0.715-1.085-0.953-0.978C94.58,128.334,94.626,128.941,94.916,129.592"/>
	<path fill="#546C20" d="M88.372,157.27c-0.194,0.679-0.154,1.291,0.089,1.36c0.252,0.072,0.605-0.42,0.806-1.1
		c0.198-0.683,0.155-1.292-0.091-1.363C88.927,156.095,88.57,156.592,88.372,157.27"/>
	<path fill="#546C20" d="M96.642,138.978c-0.19,0.682-0.153,1.292,0.095,1.365c0.243,0.065,0.605-0.421,0.805-1.104
		c0.195-0.679,0.152-1.291-0.097-1.364C97.196,137.801,96.839,138.299,96.642,138.978"/>
	<path fill="#546C20" d="M82.062,112.328c0.647,0.303,1.253,0.361,1.362,0.129c0.108-0.229-0.315-0.664-0.953-0.973
		c-0.639-0.307-1.253-0.364-1.358-0.133C80.996,111.582,81.43,112.022,82.062,112.328"/>
	<path fill="#546C20" d="M54.452,109.792c0.626-0.336,1.035-0.783,0.916-1.016c-0.12-0.224-0.726-0.142-1.352,0.191
		c-0.632,0.327-1.035,0.785-0.923,1.01C53.219,110.202,53.823,110.124,54.452,109.792"/>
	<path fill="#778219" d="M76.781,160.037c0.113,0.704,0.408,1.23,0.66,1.192c0.256-0.04,0.374-0.642,0.256-1.343
		c-0.114-0.699-0.414-1.235-0.667-1.188C76.781,158.736,76.662,159.332,76.781,160.037"/>
	<path fill="#778219" d="M45.208,182.136c0,18.09,14.658,32.748,32.746,32.748c18.085,0,32.75-14.658,32.75-32.748
		c0-18.085-14.665-32.745-32.75-32.745C59.866,149.391,45.208,164.051,45.208,182.136"/>
	<path fill="#869416" d="M45.888,184.265c0,15.897,12.884,28.788,28.785,28.788c15.902,0,28.787-12.891,28.787-28.788
		c0-15.902-12.885-28.794-28.787-28.794C58.771,155.471,45.888,168.362,45.888,184.265"/>
	<path fill="#778219" d="M74.093,197.009c-0.053,0.709,0.11,1.298,0.367,1.317c0.257,0.028,0.509-0.534,0.561-1.241
		c0.058-0.706-0.105-1.296-0.36-1.317C74.402,195.746,74.151,196.311,74.093,197.009"/>
	<path fill="#778219" d="M75.234,176.812c0.07,0.709,0.336,1.257,0.591,1.234c0.258-0.029,0.408-0.616,0.336-1.328
		c-0.071-0.706-0.336-1.256-0.586-1.229C75.312,175.515,75.163,176.114,75.234,176.812"/>
	<path fill="#778219" d="M78.039,161.275c0.074,0.71,0.335,1.26,0.591,1.23c0.256-0.021,0.406-0.613,0.335-1.316
		c-0.066-0.711-0.329-1.261-0.588-1.235C78.12,159.979,77.972,160.574,78.039,161.275"/>
	<path fill="#778219" d="M84.684,186.539c0.114,0.704,0.42,1.236,0.672,1.19c0.255-0.041,0.364-0.643,0.245-1.338
		c-0.121-0.706-0.422-1.236-0.674-1.19C84.674,185.243,84.563,185.847,84.684,186.539"/>
	<path fill="#778219" d="M88.372,169.483c0.125,0.705,0.422,1.233,0.68,1.187c0.251-0.039,0.361-0.64,0.238-1.335
		c-0.119-0.703-0.421-1.235-0.669-1.188C88.363,168.187,88.256,168.785,88.372,169.483"/>
	<path fill="#778219" d="M85.217,204.59c-0.267,0.663-0.289,1.274-0.054,1.369c0.241,0.102,0.651-0.356,0.917-1.016
		c0.266-0.657,0.29-1.269,0.054-1.366C85.896,203.48,85.483,203.941,85.217,204.59"/>
	<path fill="#778219" d="M96.496,189.948c-0.161,0.692-0.088,1.303,0.168,1.36c0.248,0.054,0.58-0.456,0.738-1.15
		c0.157-0.693,0.085-1.3-0.166-1.357C96.979,188.749,96.649,189.263,96.496,189.948"/>
	<path fill="#778219" d="M64.55,187.473c-0.053,0.707,0.109,1.297,0.368,1.315c0.255,0.019,0.511-0.536,0.562-1.247
		c0.054-0.706-0.111-1.295-0.364-1.313C64.854,186.204,64.607,186.764,64.55,187.473"/>
	<path fill="#778219" d="M66.711,166.822c-0.057,0.71,0.108,1.304,0.362,1.32c0.261,0.021,0.508-0.54,0.564-1.248
		c0.055-0.706-0.108-1.296-0.363-1.313C67.017,165.559,66.768,166.118,66.711,166.822"/>
	<path fill="#778219" d="M52.573,178.013c-0.056,0.709,0.107,1.298,0.366,1.314c0.258,0.021,0.513-0.536,0.561-1.239
		c0.056-0.713-0.104-1.301-0.363-1.316C52.883,176.75,52.627,177.306,52.573,178.013"/>
	<path fill="#778219" d="M62.501,204.732c-0.05,0.709,0.111,1.295,0.368,1.314c0.257,0.021,0.512-0.535,0.566-1.243
		c0.051-0.71-0.112-1.298-0.366-1.312C62.81,203.469,62.56,204.025,62.501,204.732"/>
	<path fill="#546C20" d="M105.697,175.687c0.295,0.643,0.723,1.08,0.953,0.967c0.231-0.099,0.188-0.709-0.102-1.353
		c-0.291-0.649-0.717-1.087-0.954-0.977C105.355,174.427,105.409,175.036,105.697,175.687"/>
	<path fill="#546C20" d="M99.151,203.363c-0.194,0.676-0.152,1.291,0.093,1.362c0.249,0.068,0.602-0.422,0.802-1.104
		c0.202-0.683,0.158-1.291-0.091-1.361C99.709,202.187,99.351,202.683,99.151,203.363"/>
	<path fill="#546C20" d="M107.422,185.069c-0.189,0.684-0.148,1.294,0.095,1.366c0.243,0.069,0.605-0.421,0.805-1.105
		c0.192-0.678,0.153-1.29-0.096-1.361C107.977,183.895,107.62,184.392,107.422,185.069"/>
	<path fill="#546C20" d="M92.847,158.421c0.643,0.304,1.245,0.36,1.358,0.131c0.105-0.23-0.313-0.665-0.951-0.977
		c-0.64-0.306-1.254-0.363-1.36-0.131C91.776,157.675,92.208,158.114,92.847,158.421"/>
	<path fill="#546C20" d="M65.229,155.885c0.628-0.335,1.04-0.783,0.917-1.015c-0.118-0.225-0.724-0.141-1.349,0.189
		c-0.63,0.328-1.034,0.783-0.92,1.011C64.001,156.296,64.6,156.216,65.229,155.885"/>
</g>
<rect fill="none" width="585" height="369.124"/>
</svg>
