<?xml version="1.0" encoding="utf-8"?>
<!-- Generator: Adobe Illustrator 16.0.0, SVG Export Plug-In . SVG Version: 6.00 Build 0)  -->
<!DOCTYPE svg PUBLIC "-//W3C//DTD SVG 1.1//EN" "http://www.w3.org/Graphics/SVG/1.1/DTD/svg11.dtd">
<svg version="1.1" id="Camada_1" xmlns="http://www.w3.org/2000/svg" xmlns:xlink="http://www.w3.org/1999/xlink" x="0px" y="0px"
	 width="585px" height="360px" viewBox="0 0 585 360" enable-background="new 0 0 585 360" xml:space="preserve">
<g>
	<rect x="-0.311" y="1.021" fill="#F9C30C" width="585.277" height="369.229"/>
</g>
<rect x="-0.311" y="1.021" fill="none" width="585.277" height="369.229"/>
<rect x="-0.311" y="1.021" fill="none" width="585.277" height="369.229"/>
<g>
	<g opacity="0.2">
		<polygon fill="#383831" points="171.929,337.155 320.355,286.147 119.456,192.387 		"/>
	</g>
	<g>
		<path fill="#CB6120" d="M297.569,258.656c-0.208,0-0.523-0.104-0.732-0.209l-2.717-1.463c-0.733-0.418-1.046-1.358-0.629-2.091
			c0.42-0.731,1.361-1.045,2.092-0.628l0.419,0.208v-5.436c0-0.835,0.73-1.567,1.567-1.567l0,0c0.836,0,1.568,0.732,1.568,1.567
			v8.155c0,0.522-0.313,1.045-0.732,1.358C298.092,258.552,297.883,258.656,297.569,258.656z M289.52,254.266
			c-0.208,0-0.522-0.104-0.731-0.208l-9.826-5.331c-0.732-0.419-1.043-1.358-0.628-2.091c0.42-0.732,1.358-1.045,2.091-0.628
			l9.827,5.33c0.732,0.42,1.043,1.36,0.628,2.092C290.565,253.953,290.044,254.266,289.52,254.266z M173.915,253.953
			c-0.313,0-0.628-0.104-0.836-0.313c-0.731-0.522-0.941-1.464-0.419-2.195c0.313-0.523,0.941-1.463,9.722-6.794
			c0.731-0.419,1.672-0.209,2.194,0.523c0.419,0.73,0.209,1.671-0.522,2.195c-7.421,4.495-8.571,5.643-8.78,5.854
			C174.854,253.744,174.437,253.953,173.915,253.953z M274.261,246.009c-0.209,0-0.524-0.104-0.733-0.208l-9.824-5.331
			c-0.731-0.419-1.045-1.358-0.628-2.091c0.419-0.731,1.359-1.044,2.091-0.628l9.827,5.331c0.73,0.42,1.043,1.359,0.626,2.092
			C275.306,245.799,274.782,246.009,274.261,246.009z M188.444,244.546c-0.522,0-1.045-0.312-1.358-0.732
			c-0.419-0.731-0.21-1.67,0.522-2.194c2.822-1.673,6.168-3.555,9.722-5.644c0.731-0.419,1.672-0.208,2.09,0.628
			c0.418,0.731,0.21,1.672-0.627,2.09c-3.554,2.091-6.898,3.973-9.721,5.644C188.966,244.441,188.758,244.546,188.444,244.546z
			 M297.569,244.441c-0.837,0-1.567-0.732-1.567-1.567v-11.185c0-0.837,0.73-1.568,1.567-1.568l0,0c0.836,0,1.568,0.731,1.568,1.568
			v11.185C299.138,243.709,298.405,244.441,297.569,244.441L297.569,244.441z M258.999,237.855c-0.208,0-0.522-0.104-0.732-0.208
			l-9.824-5.33c-0.731-0.419-1.046-1.36-0.627-2.092c0.418-0.732,1.359-1.044,2.091-0.628l9.825,5.332
			c0.732,0.418,1.044,1.358,0.628,2.09C260.044,237.543,259.521,237.855,258.999,237.855z M203.495,235.87
			c-0.522,0-1.045-0.314-1.358-0.836c-0.418-0.731-0.209-1.673,0.627-2.093c3.346-1.88,6.689-3.763,9.826-5.538
			c0.731-0.42,1.672-0.104,2.09,0.627c0.419,0.731,0.104,1.673-0.627,2.091c-3.136,1.673-6.376,3.555-9.826,5.54
			C204.019,235.766,203.705,235.87,203.495,235.87z M243.739,229.703c-0.209,0-0.523-0.105-0.731-0.21l-9.825-5.33
			c-0.732-0.419-1.046-1.358-0.628-2.091c0.419-0.731,1.359-1.045,2.091-0.627l9.825,5.331c0.731,0.418,1.045,1.358,0.627,2.09
			C244.889,229.39,244.262,229.703,243.739,229.703z M218.652,227.403c-0.522,0-1.045-0.314-1.359-0.836
			c-0.418-0.731-0.104-1.673,0.628-2.091c4.913-2.72,8.571-4.704,9.825-5.436c0.731-0.42,1.673-0.104,2.091,0.627
			s0.104,1.673-0.628,2.091c-1.254,0.731-4.912,2.719-9.825,5.436C219.174,227.299,218.86,227.403,218.652,227.403z
			 M297.465,227.089c-0.836,0-1.568-0.731-1.568-1.567v-11.184c0-0.837,0.732-1.568,1.568-1.568l0,0
			c0.836,0,1.568,0.731,1.568,1.568v11.184C299.033,226.357,298.301,227.089,297.465,227.089L297.465,227.089z M297.465,209.738
			c-0.836,0-1.568-0.731-1.568-1.568v-11.186c0-0.835,0.732-1.567,1.568-1.567l0,0c0.836,0,1.568,0.732,1.568,1.567v11.186
			C299.033,209.11,298.301,209.738,297.465,209.738L297.465,209.738z M297.361,192.492c-0.837,0-1.569-0.732-1.569-1.567v-11.186
			c0-0.837,0.732-1.569,1.569-1.569l0,0c0.835,0,1.567,0.732,1.567,1.569v11.186C298.929,191.762,298.196,192.492,297.361,192.492
			L297.361,192.492z M297.257,175.14c-0.836,0-1.569-0.732-1.569-1.567v-11.185c0-0.836,0.733-1.568,1.569-1.568l0,0
			c0.835,0,1.567,0.732,1.567,1.568v11.185C298.824,174.513,298.196,175.14,297.257,175.14L297.257,175.14z M297.257,157.894
			c-0.836,0-1.569-0.732-1.569-1.568V145.14c0-0.837,0.733-1.568,1.569-1.568l0,0c0.835,0,1.567,0.731,1.567,1.568v11.185
			C298.824,157.162,298.092,157.894,297.257,157.894L297.257,157.894z M297.15,140.542c-0.835,0-1.567-0.732-1.567-1.569v-11.184
			c0-0.836,0.732-1.568,1.567-1.568l0,0c0.836,0,1.566,0.731,1.566,1.568v11.184C298.72,139.81,298.092,140.542,297.15,140.542
			L297.15,140.542z M297.15,123.19c-0.835,0-1.567-0.731-1.567-1.568v-11.184c0-0.837,0.732-1.569,1.567-1.569l0,0
			c0.836,0,1.566,0.732,1.566,1.569v11.184C298.72,122.563,297.987,123.19,297.15,123.19L297.15,123.19z M297.046,105.944
			c-0.835,0-1.567-0.731-1.567-1.568V93.191c0-0.835,0.732-1.567,1.567-1.567l0,0c0.837,0,1.569,0.73,1.569,1.567v11.186
			C298.615,105.211,297.987,105.944,297.046,105.944L297.046,105.944z M297.046,88.593c-0.835,0-1.567-0.732-1.567-1.569V75.84
			c0-0.837,0.732-1.568,1.567-1.568l0,0c0.837,0,1.569,0.731,1.569,1.568v11.186C298.615,87.861,297.883,88.593,297.046,88.593
			L297.046,88.593z M341.156,84.725c-0.209,0-0.522-0.104-0.731-0.208l-8.467-4.704c-0.73-0.418-1.044-1.359-0.627-2.091
			c0.417-0.731,1.359-1.045,2.09-0.627l8.468,4.703c0.732,0.42,1.045,1.359,0.626,2.091
			C342.201,84.411,341.68,84.725,341.156,84.725z M327.359,77.094c-0.209,0-0.523-0.105-0.732-0.209l-9.824-5.436
			c-0.732-0.418-1.046-1.359-0.628-2.092c0.418-0.73,1.358-1.044,2.091-0.626l9.825,5.435c0.732,0.419,1.045,1.359,0.628,2.091
			C328.405,76.781,327.882,77.094,327.359,77.094z M296.941,71.346c-0.835,0-1.567-0.731-1.567-1.568V58.696
			c0-0.522,0.312-1.044,0.732-1.358c0.522-0.313,1.044-0.313,1.567,0l0.104,0.104c0.732,0.419,1.043,1.255,0.732,1.987v10.349
			C298.511,70.614,297.778,71.346,296.941,71.346L296.941,71.346z M312.203,68.732c-0.209,0-0.524-0.104-0.731-0.208l-9.826-5.436
			c-0.732-0.419-1.045-1.36-0.629-2.091c0.421-0.732,1.36-1.045,2.093-0.628l9.826,5.437c0.73,0.418,1.043,1.359,0.626,2.09
			C313.248,68.419,312.725,68.732,312.203,68.732z"/>
	</g>
	<g>
		<g>
			<g enable-background="new    ">
				<defs>
					<path id="SVGID_1_" enable-background="new    " d="M106.077,169.392l162.12,81.948c-1.672-0.835-3.868-0.732-6.376,0.628
						l-162.12-81.949C102.211,168.658,104.405,168.555,106.077,169.392z"/>
				</defs>
				<clipPath id="SVGID_2_">
					<use xlink:href="#SVGID_1_"  overflow="visible"/>
				</clipPath>
				<g clip-path="url(#SVGID_2_)" enable-background="new    ">
					<g>
						<path fill="#AEAEB2" d="M261.821,251.966l-162.12-81.948c0.21-0.105,0.418-0.209,0.627-0.314l162.121,81.948
							C262.239,251.758,262.03,251.862,261.821,251.966"/>
					</g>
					<g>
						<path fill="#AAA9AE" d="M262.449,251.653l-162.121-81.947c0.314-0.106,0.628-0.314,0.941-0.419l162.12,81.949
							C263.075,251.444,262.762,251.549,262.449,251.653"/>
					</g>
					<g>
						<path fill="#A6A5A9" d="M263.285,251.235l-162.12-81.949c0.314-0.104,0.522-0.209,0.836-0.209l162.12,81.948
							C263.911,251.131,263.599,251.235,263.285,251.235"/>
					</g>
					<g>
						<path fill="#A1A1A5" d="M264.121,251.025l-162.12-81.948c0.21-0.104,0.523-0.104,0.731-0.104l162.121,81.948
							C264.643,250.921,264.33,250.921,264.121,251.025"/>
					</g>
					<g>
						<path fill="#9D9CA1" d="M264.854,250.921L102.732,168.87c0.21,0,0.419-0.104,0.628-0.104l162.12,81.948
							C265.271,250.817,265.062,250.817,264.854,250.921"/>
					</g>
					<g>
						<path fill="#99989C" d="M265.479,250.817l-162.12-81.948c0.209,0,0.419,0,0.627,0l162.121,81.948
							C265.897,250.817,265.689,250.817,265.479,250.817"/>
					</g>
					<g>
						<path fill="#949498" d="M266.106,250.817l-162.12-81.948c0.21,0,0.419,0,0.628,0.104l162.119,81.948
							C266.525,250.817,266.316,250.817,266.106,250.817"/>
					</g>
					<g>
						<path fill="#908F93" d="M266.733,250.921l-162.119-81.948c0.209,0,0.418,0.104,0.627,0.104l162.12,81.948
							C267.151,250.921,266.943,250.921,266.733,250.921"/>
					</g>
					<g>
						<path fill="#8C8B8F" d="M267.36,251.025l-162.119-81.948c0.209,0.104,0.419,0.104,0.627,0.209l162.121,81.949
							C267.779,251.131,267.571,251.131,267.36,251.025"/>
					</g>
					<g>
						<path fill="#87878A" d="M267.988,251.235l-162.12-81.949c0.104,0,0.104,0.105,0.209,0.105l162.12,81.948
							C268.093,251.342,267.988,251.235,267.988,251.235"/>
					</g>
				</g>
			</g>
			<g>
				<g>
					<polygon fill="#CCCCCC" points="186.458,294.613 25.592,210.784 99.7,170.019 261.821,251.966 					"/>
				</g>
			</g>
			<g>
				<g>
					<path id="SVGID_5_" fill="#C2C3C9" d="M170.987,322.939l-160.865-83.83c0-0.312,0.104-0.628,0.104-0.939
						c1.464-11.187,8.362-23.52,15.366-27.388l160.865,83.831c-7.003,3.867-14.006,16.202-15.365,27.386
						C170.987,322.313,170.987,322.627,170.987,322.939z"/>
				</g>
				<g>
					<g enable-background="new    ">
						<g>
							<defs>
								<path id="SVGID_3_" d="M170.987,322.939l-160.865-83.83c0-0.312,0.104-0.628,0.104-0.939
									c1.464-11.187,8.362-23.52,15.366-27.388l160.865,83.831c-7.003,3.867-14.006,16.202-15.365,27.386
									C170.987,322.313,170.987,322.627,170.987,322.939z"/>
							</defs>
							<clipPath id="SVGID_4_">
								<use xlink:href="#SVGID_3_"  overflow="visible"/>
							</clipPath>
							<g clip-path="url(#SVGID_4_)" enable-background="new    ">
								<g>
									<path fill="#C2C3C9" d="M170.987,322.939l-160.865-83.83c0-0.312,0.104-0.628,0.104-0.939c0-0.42,0.104-0.837,0.209-1.15
										l160.866,83.831c-0.104,0.419-0.104,0.837-0.209,1.148C170.987,322.313,170.987,322.627,170.987,322.939"/>
								</g>
								<g>
									<path fill="#C2C3C9" d="M171.198,320.744L10.437,237.02c0.105-0.731,0.209-1.358,0.419-2.09l160.865,83.829
										C171.51,319.387,171.303,320.118,171.198,320.744"/>
								</g>
								<g>
									<path fill="#C2C3C9" d="M171.616,318.654L10.75,234.93c0.105-0.627,0.313-1.256,0.419-1.777l160.866,83.83
										C171.929,317.505,171.72,318.132,171.616,318.654"/>
								</g>
								<g>
									<path fill="#C2C3C9" d="M172.034,316.877L11.168,233.046c0.104-0.522,0.313-1.148,0.522-1.672l160.865,83.831
										C172.348,315.728,172.241,316.354,172.034,316.877"/>
								</g>
								<g>
									<path fill="#C2C3C9" d="M172.555,315.205L11.689,231.374c0.209-0.523,0.313-1.045,0.523-1.567l160.865,83.83
										C172.868,314.16,172.66,314.683,172.555,315.205"/>
								</g>
								<g>
									<path fill="#C2C3C9" d="M173.079,313.637l-160.866-83.83c0.21-0.523,0.314-1.045,0.523-1.463l160.866,83.83
										C173.392,312.592,173.184,313.113,173.079,313.637"/>
								</g>
								<g>
									<path fill="#C2C3C9" d="M173.602,312.174l-160.866-83.83c0.209-0.523,0.418-0.94,0.522-1.465l160.865,83.832
										C173.915,311.129,173.81,311.652,173.602,312.174"/>
								</g>
								<g>
									<path fill="#C2C3C9" d="M174.123,310.711L13.258,226.879c0.209-0.523,0.418-0.939,0.627-1.359l160.866,83.831
										C174.541,309.77,174.334,310.188,174.123,310.711"/>
								</g>
								<g>
									<path fill="#C2C3C9" d="M174.752,309.246L13.886,225.52c0.21-0.419,0.418-0.939,0.628-1.358l160.865,83.83
										C175.169,308.411,174.959,308.829,174.752,309.246"/>
								</g>
								<g>
									<path fill="#C2C3C9" d="M175.379,307.889l-160.865-83.83c0.209-0.419,0.418-0.941,0.731-1.358l160.865,83.829
										C175.901,306.947,175.587,307.471,175.379,307.889"/>
								</g>
								<g>
									<path fill="#C2C3C9" d="M176.109,306.529L15.244,222.7c0.21-0.42,0.523-0.941,0.731-1.359l160.865,83.83
										C176.633,305.591,176.318,306.111,176.109,306.529"/>
								</g>
								<g>
									<path fill="#C2C3C9" d="M176.841,305.171l-160.866-83.83c0.313-0.42,0.522-0.941,0.836-1.36l160.866,83.83
										C177.364,304.23,177.154,304.752,176.841,305.171"/>
								</g>
								<g>
									<path fill="#C2C3C9" d="M177.678,303.811L16.812,219.98c0.313-0.522,0.627-0.939,0.941-1.463l160.865,83.83
										C178.305,302.871,177.991,303.291,177.678,303.811"/>
								</g>
								<g>
									<path fill="#C2C3C9" d="M178.618,302.348l-160.865-83.83c0.418-0.523,0.836-1.15,1.149-1.672l160.865,83.83
										C179.454,301.199,179.036,301.826,178.618,302.348"/>
								</g>
								<g>
									<path fill="#C2C3C9" d="M179.872,300.676L19.006,216.951c0.732-0.94,1.464-1.776,2.195-2.508l160.865,83.829
										C181.232,298.898,180.499,299.84,179.872,300.676"/>
								</g>
								<g>
									<path fill="#C2C3C9" d="M181.964,298.167L21.203,214.338c0.521-0.627,1.149-1.149,1.776-1.673l160.866,83.83
										C183.114,297.018,182.59,297.54,181.964,298.167"/>
								</g>
								<g>
									<path fill="#C2C3C9" d="M183.739,296.495l-160.865-83.83c0.731-0.627,1.463-1.15,2.194-1.567l160.866,83.83
										C185.202,295.346,184.471,295.868,183.739,296.495"/>
								</g>
								<g>
									<path fill="#C2C3C9" d="M185.935,294.928l-160.866-83.83c0.209-0.104,0.418-0.209,0.522-0.313l160.866,83.831
										C186.248,294.717,186.039,294.823,185.935,294.928"/>
								</g>
							</g>
						</g>
						<g>
							<g>
								<path fill="#87868A" d="M261.821,251.966c7.004-3.867,11.707,2.092,10.243,13.273c0,0.314-0.104,0.628-0.104,0.941
									l-100.973,56.653c0-0.313,0.105-0.629,0.105-0.94c1.463-11.185,8.361-23.519,15.365-27.386L261.821,251.966z"/>
							</g>
						</g>
					</g>
				</g>
				<g>
					<path fill="#38383A" d="M186.562,283.534c1.463-2.402,59.476-32.717,59.476-32.717l-26.236-13.902l-59.057,33.658
						L186.562,283.534z"/>
				</g>
				<g>
					<polygon fill="#38383A" points="186.354,218.101 126.773,254.058 132.314,256.672 191.789,220.923 					"/>
				</g>
				<g>
					<g>
						<polygon fill="#38383A" points="180.082,207.021 179.979,206.915 179.979,206.915 						"/>
					</g>
					<g>
						<polygon fill="#38383A" points="172.973,211.098 113.08,247.264 118.725,249.981 178.409,213.919 						"/>
					</g>
				</g>
				<g>
					<g>
						<polygon fill="#38383A" points="166.285,200.644 166.179,200.54 166.179,200.54 						"/>
					</g>
					<g>
						<polygon fill="#38383A" points="159.176,204.827 99.282,240.888 104.823,243.604 164.611,207.647 						"/>
					</g>
				</g>
				<g>
					<polygon fill="#38383A" points="98.028,247.473 98.133,247.473 98.028,247.368 					"/>
				</g>
				<g>
					<polygon fill="#38383A" points="146.215,197.3 85.695,233.78 91.233,236.601 151.65,200.123 					"/>
				</g>
				<g>
					<polygon fill="#38383A" points="132.835,190.401 72.003,227.089 77.541,229.807 138.271,193.223 					"/>
				</g>
				<g>
					<polygon fill="#38383A" points="119.456,183.502 58.308,220.399 63.849,223.117 124.997,186.323 					"/>
				</g>
				<g>
					<polygon fill="#38383A" points="106.077,176.5 44.615,213.606 50.156,216.428 111.618,179.321 					"/>
				</g>
				<g>
					<polygon fill="#38383A" points="199.942,225.104 140.989,260.434 146.528,263.151 205.376,227.926 					"/>
				</g>
				<g>
					<path fill="#3A89D8" d="M227.223,248.622c1.672,3.555-2.091,8.78-8.362,11.707c-6.272,2.927-12.752,2.402-14.425-1.15
						s2.091-8.78,8.361-11.705C219.174,244.546,225.654,245.068,227.223,248.622z"/>
				</g>
				<g>
					<polygon fill="#727176" points="10.123,239.111 171.092,321.999 171.092,341.336 10.854,256.462 					"/>
				</g>
				<g>
					<path fill="#2D2D2F" d="M171.092,341.336c1.881-2.195,99.928-55.084,99.928-56.13c0-1.044,0.94-19.023,0.94-19.023
						l-100.974,56.652L171.092,341.336z"/>
				</g>
			</g>
		</g>
	</g>
	<g>
		<g opacity="0.2">
			<path fill="#383831" d="M433.139,323.358c4.497-2.612,141.739-48.29,141.739-48.29l-119.682-62.612L433.139,323.358z"/>
		</g>
		<g>
			<g>
				<g>
					<g>
						<g>
							<path fill="#B0B0B0" d="M345.023,219.876"/>
						</g>
					</g>
				</g>
				<g>
					<g>
						<g>
							<polygon fill="#F4F0F2" points="503.8,74.481 431.78,110.647 320.774,54.831 392.792,18.664 							"/>
						</g>
					</g>
					<g>
						<g>
							<polyline fill="#535C65" points="453.835,53.786 495.123,74.481 431.78,106.259 329.345,54.831 392.792,22.95 
								431.154,42.183 							"/>
						</g>
					</g>
					<g>
						<g>
							<polygon fill="#9C998C" points="392.792,22.95 329.345,54.831 335.512,57.861 392.792,29.118 393.001,30.162 393.001,23.054 
															"/>
						</g>
						<g>
							<polygon fill="#C2BFAF" points="495.123,74.481 488.852,77.618 393.001,29.222 393.001,23.054 							"/>
						</g>
					</g>
				</g>
				<g>
					<g>
						<polygon fill="#B5B6A9" points="431.78,323.985 320.774,268.169 320.774,54.727 431.78,110.543 						"/>
					</g>
				</g>
				<g>
					<g>
						<polygon fill="#576878" points="431.78,319.805 320.774,263.987 320.774,237.229 431.78,293.149 						"/>
					</g>
				</g>
				<g>
					<g>
						<polygon fill="#E5E7D5" points="503.8,287.819 431.78,323.985 431.78,110.543 503.8,74.376 						"/>
					</g>
				</g>
				<g>
					<g>
						<polygon fill="#6D8296" points="431.78,323.985 320.774,268.169 320.774,241.411 431.78,297.331 						"/>
					</g>
				</g>
				<g>
					<g>
						<polygon fill="#4A525A" points="413.07,314.683 399.588,307.889 399.588,297.123 413.07,303.811 						"/>
					</g>
				</g>
				<g>
					<g>
						<polygon fill="#4A525A" points="352.55,284.267 339.066,277.471 339.066,266.705 352.55,273.395 						"/>
					</g>
				</g>
				<g>
					<g>
						<polygon fill="#4A525A" points="386.207,301.199 362.793,289.387 362.793,273.604 386.207,285.311 						"/>
					</g>
				</g>
				<g>
					<g>
						<polygon fill="#2E3338" points="364.78,288.342 386.207,299.213 386.207,301.199 362.793,289.387 362.793,273.604 
							364.78,274.649 						"/>
					</g>
					<g>
						<polygon fill="#2E3338" points="401.572,306.947 413.07,312.697 413.07,314.683 399.588,307.889 399.588,297.123 
							401.572,298.062 						"/>
					</g>
					<g>
						<polygon fill="#2E3338" points="341.052,276.531 352.55,282.279 352.55,284.267 339.066,277.471 339.066,266.705 
							341.052,267.646 						"/>
					</g>
				</g>
				<g>
					<g>
						<polygon fill="#535C65" points="503.8,283.743 431.78,319.805 431.78,293.149 503.8,256.984 						"/>
					</g>
				</g>
				<g>
					<g>
						<polygon fill="#69747F" points="503.8,287.819 431.78,323.985 431.78,297.331 503.8,261.164 						"/>
					</g>
				</g>
				<g>
					<g>
						<polygon fill="#B3B3B3" points="385.477,75.003 394.57,76.886 414.325,66.434 403.036,61.938 390.179,68.524 						"/>
					</g>
					<g>
						<polygon fill="#697B8D" points="356.312,53.158 385.477,67.688 404.709,57.966 375.546,43.542 						"/>
					</g>
					<g>
						<polygon fill="#CCCCCC" points="356.312,60.579 385.477,75.003 385.477,67.688 356.312,53.158 						"/>
					</g>
					<g>
						<polygon fill="#808080" points="404.709,65.388 404.709,58.071 385.477,67.688 385.477,75.003 						"/>
					</g>
				</g>
				<g>
					<g>
						<polygon fill="#B3B3B3" points="452.581,83.68 459.062,85.039 473.277,77.618 465.229,74.272 455.927,79.081 						"/>
					</g>
					<g>
						<polygon fill="#697B8D" points="431.571,67.269 452.581,77.722 466.379,70.719 445.474,60.371 						"/>
					</g>
					<g>
						<polygon fill="#CCCCCC" points="431.571,73.332 452.581,83.68 452.581,77.618 431.571,67.269 						"/>
					</g>
					<g>
						<polygon fill="#808080" points="466.379,76.781 466.379,70.719 452.581,77.618 452.581,83.68 						"/>
					</g>
				</g>
				<g>
					<g>
						<path fill="#4FA0CA" d="M334.886,213.188v15.261l80.485,40.659v-15.26L334.886,213.188z"/>
					</g>
					<g>
						<g>
							<polygon fill="#3B7897" points="407.008,264.928 405.231,263.987 405.231,248.727 407.008,249.666 							"/>
						</g>
						<g>
							<polygon fill="#3B7897" points="368.02,230.018 369.798,230.957 369.798,246.218 368.02,245.278 							"/>
						</g>
						<g>
							<polygon fill="#3B7897" points="386.626,239.319 388.402,240.26 388.402,255.521 386.626,254.685 							"/>
						</g>
						<g>
							<polygon fill="#3B7897" points="336.349,229.182 334.886,228.449 334.886,213.188 336.349,213.919 							"/>
						</g>
						<g>
							<polygon fill="#3B7897" points="349.415,220.608 351.19,221.552 351.19,236.811 349.415,235.975 							"/>
						</g>
					</g>
					<g>
						<path fill="#4FA0CA" d="M334.886,185.594v15.26l80.485,40.66v-15.261L334.886,185.594z"/>
					</g>
					<g>
						<g>
							<polygon fill="#3B7897" points="407.008,237.438 405.231,236.497 405.231,221.235 407.008,222.072 							"/>
						</g>
						<g>
							<polygon fill="#3B7897" points="368.02,202.423 369.798,203.363 369.798,218.623 368.02,217.787 							"/>
						</g>
						<g>
							<polygon fill="#3B7897" points="386.626,211.829 388.402,212.77 388.402,228.03 386.626,227.089 							"/>
						</g>
						<g>
							<polygon fill="#3B7897" points="336.349,201.69 334.886,200.96 334.886,185.594 336.349,186.43 							"/>
						</g>
						<g>
							<polygon fill="#3B7897" points="349.415,193.117 351.19,194.06 351.19,209.321 349.415,208.38 							"/>
						</g>
					</g>
					<g>
						<path fill="#4FA0CA" d="M334.886,158.102v15.261l80.485,40.659v-15.259L334.886,158.102z"/>
					</g>
					<g>
						<g>
							<polygon fill="#3B7897" points="407.008,209.843 405.231,209.007 405.231,193.642 407.008,194.582 							"/>
						</g>
						<g>
							<polygon fill="#3B7897" points="368.02,174.931 369.798,175.872 369.798,191.133 368.02,190.192 							"/>
						</g>
						<g>
							<polygon fill="#3B7897" points="386.626,184.338 388.402,185.174 388.402,200.54 386.626,199.6 							"/>
						</g>
						<g>
							<polygon fill="#3B7897" points="336.349,174.2 334.886,173.363 334.886,158.102 336.349,158.833 							"/>
						</g>
						<g>
							<polygon fill="#3B7897" points="349.415,165.627 351.19,166.464 351.19,181.83 349.415,180.889 							"/>
						</g>
					</g>
					<g>
						<path fill="#4FA0CA" d="M334.886,130.612v15.261l80.485,40.66v-15.262L334.886,130.612z"/>
					</g>
					<g>
						<g>
							<polygon fill="#3B7897" points="407.008,182.354 405.231,181.412 405.231,166.15 407.008,167.091 							"/>
						</g>
						<g>
							<polygon fill="#3B7897" points="368.02,147.441 369.798,148.277 369.798,163.643 368.02,162.702 							"/>
						</g>
						<g>
							<polygon fill="#3B7897" points="386.626,156.745 388.402,157.684 388.402,172.945 386.626,172.004 							"/>
						</g>
						<g>
							<polygon fill="#3B7897" points="336.349,146.604 334.886,145.873 334.886,130.612 336.349,131.344 							"/>
						</g>
						<g>
							<polygon fill="#3B7897" points="349.415,138.033 351.19,138.974 351.19,154.234 349.415,153.398 							"/>
						</g>
					</g>
					<g>
						<path fill="#4FA0CA" d="M334.886,103.017v15.26l80.485,40.662v-15.261L334.886,103.017z"/>
					</g>
					<g>
						<g>
							<polygon fill="#3B7897" points="407.008,154.862 405.231,153.921 405.231,138.556 407.008,139.497 							"/>
						</g>
						<g>
							<polygon fill="#3B7897" points="368.02,119.846 369.798,120.788 369.798,136.049 368.02,135.212 							"/>
						</g>
						<g>
							<polygon fill="#3B7897" points="386.626,129.253 388.402,130.194 388.402,145.455 386.626,144.514 							"/>
						</g>
						<g>
							<polygon fill="#3B7897" points="336.349,119.114 334.886,118.383 334.886,103.017 336.349,103.853 							"/>
						</g>
						<g>
							<polygon fill="#3B7897" points="349.415,110.543 351.19,111.483 351.19,126.744 349.415,125.804 							"/>
						</g>
					</g>
					<g>
						<path fill="#4FA0CA" d="M334.886,75.527v15.366l80.485,40.659v-15.259L334.886,75.527z"/>
					</g>
					<g>
						<g>
							<polygon fill="#3B7897" points="415.371,214.023 334.886,173.363 334.886,171.273 415.371,211.934 							"/>
						</g>
						<g>
							<polygon fill="#3B7897" points="415.371,241.619 334.886,200.96 334.886,198.868 415.371,239.423 							"/>
						</g>
						<g>
							<polygon fill="#3B7897" points="415.371,269.108 334.886,228.449 334.886,226.357 415.371,267.019 							"/>
						</g>
						<g>
							<polygon fill="#3B7897" points="415.371,186.534 334.886,145.873 334.886,143.783 415.371,184.442 							"/>
						</g>
						<g>
							<polygon fill="#3B7897" points="415.371,131.449 334.886,90.786 334.886,88.698 415.371,129.357 							"/>
						</g>
						<g>
							<polygon fill="#3B7897" points="415.371,159.043 334.886,118.383 334.886,116.188 415.371,156.848 							"/>
						</g>
					</g>
					<g>
						<g>
							<polygon fill="#3B7897" points="407.008,127.268 405.231,126.327 405.231,111.065 407.008,112.007 							"/>
						</g>
						<g>
							<polygon fill="#3B7897" points="368.02,92.355 369.798,93.298 369.798,108.557 368.02,107.615 							"/>
						</g>
						<g>
							<polygon fill="#3B7897" points="386.626,101.763 388.402,102.599 388.402,117.964 386.626,117.024 							"/>
						</g>
						<g>
							<polygon fill="#3B7897" points="336.349,91.624 334.886,90.786 334.886,75.527 336.349,76.258 							"/>
						</g>
						<g>
							<polygon fill="#3B7897" points="349.415,83.052 351.19,83.889 351.19,99.254 349.415,98.314 							"/>
						</g>
					</g>
				</g>
				<g>
					<g>
						<polygon fill="#3D4349" points="448.191,315.728 461.675,308.934 461.675,298.167 448.191,304.858 						"/>
					</g>
				</g>
				<g>
					<g>
						<polygon fill="#3D4349" points="477.981,300.78 491.465,293.986 491.465,283.219 477.981,289.909 						"/>
					</g>
				</g>
				<g>
					<polygon fill="#1A1D1F" points="489.479,293.045 477.981,298.898 477.981,300.78 491.465,293.986 491.465,283.219 
						489.479,284.267 					"/>
				</g>
				<g>
					<polygon fill="#1A1D1F" points="459.689,307.992 448.191,313.846 448.191,315.728 461.675,308.934 461.675,298.167 
						459.689,299.213 					"/>
				</g>
			</g>
		</g>
	</g>
	<g>
		<g>
			<g>
				<g>
					<polygon fill="#5E7B85" points="159.28,206.185 154.056,204.198 153.113,156.325 158.34,158.311 					"/>
				</g>
			</g>
			<g>
				<g>
					<g enable-background="new    ">
						<g>
							<defs>
								<path id="SVGID_6_" d="M197.643,58.385l5.227,1.986c-2.613-0.94-5.645-0.94-8.886,0.313l-5.226-1.986
									C191.997,57.444,195.028,57.444,197.643,58.385z"/>
							</defs>
							<clipPath id="SVGID_7_">
								<use xlink:href="#SVGID_6_"  overflow="visible"/>
							</clipPath>
							<g clip-path="url(#SVGID_7_)" enable-background="new    ">
								<g>
									<path fill="#789CA8" d="M193.982,60.789l-5.226-1.986c0.209-0.104,0.313-0.104,0.522-0.209l5.227,1.986
										C194.296,60.579,194.089,60.684,193.982,60.789"/>
								</g>
								<g>
									<path fill="#7498A4" d="M194.401,60.579l-5.226-1.986c0.731-0.313,1.568-0.523,2.3-0.627l5.226,1.987
										C195.969,60.057,195.238,60.266,194.401,60.579"/>
								</g>
								<g>
									<path fill="#71949F" d="M196.701,59.952l-5.227-1.986c0.626-0.105,1.253-0.209,1.776-0.209l5.227,1.986
										C197.956,59.744,197.328,59.848,196.701,59.952"/>
								</g>
								<g>
									<path fill="#6E8F9A" d="M198.478,59.744l-5.227-1.987c0.523,0,1.045,0,1.568,0l5.227,1.987
										C199.628,59.744,199.105,59.744,198.478,59.744"/>
								</g>
								<g>
									<path fill="#6A8B96" d="M200.15,59.744l-5.227-1.987c0.522,0,0.941,0.104,1.463,0.208l5.227,1.987
										C201.092,59.848,200.569,59.848,200.15,59.744"/>
								</g>
								<g>
									<path fill="#678791" d="M201.613,60.057l-5.227-1.987c0.418,0.104,0.836,0.209,1.255,0.418l5.227,1.986
										C202.45,60.266,202.031,60.161,201.613,60.057"/>
								</g>
							</g>
						</g>
					</g>
					<g>
						<g>
							<g enable-background="new    ">
								<g>
									<defs>
										<path id="SVGID_8_" d="M125.415,168.241l-5.227-1.986c-5.227-1.986-8.779-8.049-8.779-16.619l5.226,1.986
											C116.635,160.088,120.188,166.256,125.415,168.241z"/>
									</defs>
									<clipPath id="SVGID_9_">
										<use xlink:href="#SVGID_8_"  overflow="visible"/>
									</clipPath>
									<g clip-path="url(#SVGID_9_)" enable-background="new    ">
										<g>
											<path fill="#56717A" d="M125.415,168.241l-5.227-1.986c-5.227-1.986-8.779-8.049-8.779-16.619l5.226,1.986
												C116.635,160.088,120.188,166.256,125.415,168.241"/>
										</g>
									</g>
								</g>
							</g>
							<g>
								<g>
									<polygon fill="#80A7B4" points="134.299,84.307 129.072,82.425 188.758,58.803 193.982,60.789 									"/>
								</g>
							</g>
							<g>
								<g>
									<polygon fill="#5F7C86" points="116.635,151.518 111.407,149.636 111.407,112.633 116.635,114.62 									"/>
								</g>
							</g>
							<g>
								<g enable-background="new    ">
									<g enable-background="new    ">
										<g>
											<defs>
												<path id="SVGID_10_" d="M116.635,114.62l-5.227-1.986c0-12.856,7.945-26.446,17.666-30.312l5.227,1.986
													C124.579,88.174,116.635,101.763,116.635,114.62z"/>
											</defs>
											<clipPath id="SVGID_11_">
												<use xlink:href="#SVGID_10_"  overflow="visible"/>
											</clipPath>
											<g clip-path="url(#SVGID_11_)" enable-background="new    ">
												<g>
													<path fill="#56717A" d="M116.635,114.62l-5.227-1.986c0,0,0,0,0-0.104L116.635,114.62L116.635,114.62"/>
												</g>
												<g>
													<path fill="#5A757E" d="M116.635,114.515l-5.227-1.987c0-1.045,0.105-2.09,0.21-3.135l5.227,1.985
														C116.738,112.424,116.635,113.47,116.635,114.515"/>
												</g>
												<g>
													<path fill="#5D7A83" d="M116.843,111.378l-5.227-1.985c0.104-0.836,0.209-1.777,0.313-2.613l5.227,1.986
														C117.053,109.707,116.948,110.543,116.843,111.378"/>
												</g>
												<g>
													<path fill="#607E88" d="M117.156,108.766l-5.227-1.986c0.104-0.732,0.313-1.568,0.522-2.3l5.227,1.986
														C117.471,107.198,117.261,108.034,117.156,108.766"/>
												</g>
												<g>
													<path fill="#64828C" d="M117.68,106.466l-5.227-1.986c0.209-0.732,0.419-1.463,0.627-2.196l5.227,1.987
														C117.993,105.003,117.888,105.735,117.68,106.466"/>
												</g>
												<g>
													<path fill="#678791" d="M118.307,104.271l-5.227-1.987c0.21-0.73,0.419-1.463,0.731-2.09l5.227,1.986
														C118.725,102.809,118.517,103.54,118.307,104.271"/>
												</g>
												<g>
													<path fill="#6A8B96" d="M119.038,102.077l-5.227-1.987c0.314-0.732,0.522-1.463,0.836-2.091l5.227,1.987
														C119.561,100.717,119.249,101.449,119.038,102.077"/>
												</g>
												<g>
													<path fill="#6E8F9A" d="M119.874,99.984l-5.227-1.986c0.314-0.731,0.628-1.463,1.046-2.195l5.227,1.987
														C120.503,98.522,120.188,99.254,119.874,99.984"/>
												</g>
												<g>
													<path fill="#71949F" d="M120.919,97.792l-5.226-1.987c0.418-0.837,0.836-1.568,1.254-2.3l5.226,1.987
														C121.755,96.224,121.337,97.059,120.919,97.792"/>
												</g>
												<g>
													<path fill="#7498A4" d="M122.174,95.492l-5.226-1.987c0.522-0.836,1.149-1.776,1.673-2.612l5.226,1.987
														C123.323,93.715,122.697,94.654,122.174,95.492"/>
												</g>
												<g>
													<path fill="#789CA8" d="M123.952,92.983l-5.227-1.986c0.941-1.36,2.091-2.614,3.24-3.66l5.227,1.986
														C125.937,90.369,124.892,91.624,123.952,92.983"/>
												</g>
												<g>
													<path fill="#7BA1AD" d="M127.087,89.22l-5.227-1.986c1.254-1.255,2.613-2.3,3.972-3.241l5.227,1.987
														C129.701,86.92,128.341,87.965,127.087,89.22"/>
												</g>
												<g>
													<path fill="#789CA8" d="M131.06,85.98l-5.227-1.987c1.045-0.626,2.091-1.255,3.24-1.672l5.227,1.986
														C133.253,84.83,132.104,85.352,131.06,85.98"/>
												</g>
											</g>
										</g>
									</g>
									<g>
										<g>
											<path fill="#8BB6C5" d="M193.982,60.789c9.722-3.868,17.666,3.449,17.666,16.305v36.898
												c0,12.855-7.944,26.445-17.666,30.312l-11.916,4.705l-22.786,57.175l-0.941-47.874l-24.04,9.512
												c-9.722,3.867-17.665-3.451-17.665-16.306v-36.897c0-12.857,7.943-26.445,17.665-30.313L193.982,60.789z"/>
										</g>
									</g>
								</g>
							</g>
						</g>
					</g>
				</g>
			</g>
		</g>
	</g>
</g>
</svg>
