<?xml version="1.0" encoding="utf-8"?>
<!-- Generator: Adobe Illustrator 16.0.0, SVG Export Plug-In . SVG Version: 6.00 Build 0)  -->
<!DOCTYPE svg PUBLIC "-//W3C//DTD SVG 1.1//EN" "http://www.w3.org/Graphics/SVG/1.1/DTD/svg11.dtd">
<svg version="1.1" id="Camada_1" xmlns="http://www.w3.org/2000/svg" xmlns:xlink="http://www.w3.org/1999/xlink" x="0px" y="0px"
	 width="584.076px" height="360.102px" viewBox="13.962 214.611 584.076 360.102"
	 enable-background="new 13.962 214.611 584.076 360.102" xml:space="preserve">
<g>
	
		<linearGradient id="SVGID_1_" gradientUnits="userSpaceOnUse" x1="995.8438" y1="1508.2363" x2="1305.3438" y2="1508.2363" gradientTransform="matrix(5.223757e-11 -1.1635 -1.1635 -5.223757e-11 2060.8301 1733.3748)">
		<stop  offset="0" style="stop-color:#4BCAF7"/>
		<stop  offset="1" style="stop-color:#1EA1F7"/>
	</linearGradient>
	<rect x="13.962" y="214.611" fill="url(#SVGID_1_)" width="584.076" height="360.102"/>
	<g>
		<g enable-background="new    ">
			<g>
				<defs>
					<polygon id="SVGID_2_" points="167.776,585.068 168.009,455.455 278.192,409.147 277.959,538.761 					"/>
				</defs>
				<clipPath id="SVGID_3_">
					<use xlink:href="#SVGID_2_"  overflow="visible"/>
				</clipPath>
				<g clip-path="url(#SVGID_3_)">
					<path fill="#FFC000" d="M222.926,525.148c-2.676,1.163-5.352,4.072-7.446,8.493c-4.072,8.843-4.072,20.594,0,26.062
						c2.094,2.676,4.77,3.374,7.446,2.211c2.676-1.164,5.352-4.072,7.446-8.494c4.188-8.959,4.188-20.594,0.116-26.062
						C228.278,524.683,225.602,523.984,222.926,525.148"/>
					<path fill="#FFC000" d="M222.926,479.423c-13.031,5.469-26.062,19.431-36.068,40.606l9.773,12.914
						c7.097-14.893,16.405-25.364,26.295-29.437l0,0c9.89-4.188,19.198-1.396,26.295,7.563l9.773-21.292
						C248.989,476.979,235.958,473.954,222.926,479.423"/>
					<path fill="#FFC000" d="M223.042,432.301c-19.896,8.378-39.792,29.786-55.15,62.364l9.773,12.914
						c12.566-26.76,28.971-44.329,45.26-51.193c16.405-6.865,32.811-3.025,45.376,13.264l9.773-21.176
						C262.951,428.694,242.938,423.924,223.042,432.301"/>
				</g>
			</g>
		</g>
	</g>
	<g>
		<g enable-background="new    ">
			<g>
				<path fill="#FBFBFB" d="M528.577,279.417l5.353,3.491c-3.258-2.095-7.912-1.978-13.148,0.698
					c-2.094,1.047-3.955,2.443-5.934,4.072l-5.352-3.49c1.861-1.629,3.839-3.025,5.934-4.072
					C520.665,277.323,525.319,277.323,528.577,279.417z"/>
				<path fill="#FBFBFB" d="M448.994,299.779c4.537-2.443,8.843-3.258,12.449-2.909c5.469-9.192,13.147-17.104,21.524-21.525
					c7.912-4.188,15.01-4.305,20.013-1.047l5.352,3.491c-5.003-3.142-11.983-3.025-20.012,1.047
					c-8.377,4.421-16.057,12.333-21.524,21.524c-3.607-0.465-7.912,0.465-12.45,2.909c-14.194,7.447-26.179,26.295-26.76,42.119
					c-0.35,7.912,2.21,13.497,6.632,16.405l-5.353-3.49c-4.421-2.792-6.98-8.494-6.632-16.405
					C422.932,326.074,434.916,307.225,448.994,299.779z"/>
			</g>
			<g>
				<path fill="#E2E2E2" d="M488.32,278.836c-8.377,4.421-16.057,12.333-21.524,21.524c-3.607-0.465-7.912,0.465-12.45,2.909
					c-14.194,7.447-26.179,26.295-26.76,42.119c-0.582,15.824,10.354,22.805,24.433,15.358l67.018-35.021
					c10.355-5.468,19.198-19.314,19.663-30.949c0.466-11.635-7.562-16.638-17.918-11.286c-2.094,1.047-3.955,2.443-5.934,4.072
					C511.939,276.043,501.352,272.087,488.32,278.836z"/>
			</g>
		</g>
	</g>
	<g>
		<g enable-background="new    ">
			<g>
				<path fill="#FBFBFB" d="M151.487,296.288l5.352,3.491c-3.258-2.094-7.912-1.978-13.147,0.698
					c-2.094,1.047-3.956,2.443-5.934,4.072l-5.352-3.49c1.861-1.629,3.839-3.025,5.934-4.072
					C143.576,294.31,148.229,294.194,151.487,296.288z"/>
				<path fill="#FBFBFB" d="M71.904,316.649c4.538-2.443,8.842-3.258,12.449-2.909c5.469-9.192,13.147-17.104,21.525-21.525
					c7.912-4.188,15.009-4.305,20.012-1.047l5.352,3.49c-5.003-3.141-11.984-3.025-20.012,1.047
					c-8.377,4.421-16.056,12.333-21.525,21.524c-3.607-0.465-7.912,0.466-12.449,2.909c-14.195,7.446-26.179,26.295-26.761,42.119
					c-0.349,7.912,2.211,13.496,6.632,16.405l-5.352-3.491c-4.421-2.792-6.981-8.494-6.632-16.405
					C45.842,342.944,57.826,324.096,71.904,316.649z"/>
			</g>
			<g>
				<path fill="#E2E2E2" d="M111.347,295.707c-8.377,4.421-16.056,12.333-21.524,21.524c-3.607-0.465-7.912,0.466-12.45,2.909
					c-14.195,7.446-26.179,26.295-26.76,42.119c-0.582,15.823,10.355,22.804,24.433,15.358l67.018-35.021
					c10.355-5.468,19.198-19.314,19.663-30.949c0.465-11.635-7.562-16.638-17.917-11.286c-2.095,1.047-3.956,2.443-5.934,4.072
					C134.966,293.03,124.378,288.958,111.347,295.707z"/>
			</g>
		</g>
	</g>
	<g>
		<g enable-background="new    ">
			<g>
				<path fill="#FBFBFB" d="M563.947,436.839l5.817,3.723c-3.49-2.21-8.493-2.21-14.194,0.814c-2.211,1.164-4.305,2.677-6.399,4.422
					l-5.817-3.724c1.979-1.745,4.188-3.258,6.399-4.421C555.454,434.628,560.457,434.512,563.947,436.839z"/>
				<path fill="#FBFBFB" d="M477.849,459.062c5.003-2.56,9.541-3.606,13.497-3.142c5.934-10.006,14.311-18.616,23.386-23.386
					c8.61-4.538,16.289-4.654,21.642-1.164l5.817,3.724c-5.353-3.49-13.031-3.374-21.642,1.163
					c-9.075,4.771-17.336,13.497-23.386,23.387c-3.956-0.466-8.494,0.465-13.497,3.142c-15.358,8.027-28.272,28.622-28.971,45.958
					c-0.35,8.609,2.443,14.776,7.214,17.802l-5.818-3.724c-4.77-3.025-7.446-9.191-7.213-17.802
					C449.459,487.684,462.49,467.09,477.849,459.062z"/>
			</g>
			<g>
				<path fill="#E2E2E2" d="M520.433,436.257c-9.075,4.771-17.336,13.497-23.387,23.387c-3.955-0.466-8.493,0.465-13.496,3.142
					c-15.358,8.027-28.273,28.622-28.971,45.958c-0.698,17.336,11.169,24.782,26.527,16.754l72.603-38.162
					c11.285-5.935,20.71-21.06,21.292-33.742c0.465-12.682-8.261-18.15-19.431-12.333c-2.211,1.164-4.305,2.677-6.399,4.422
					C546.029,433.232,534.511,428.811,520.433,436.257z"/>
			</g>
		</g>
	</g>
	<g>
		<g enable-background="new    ">
			<g>
				<path fill="#FBFBFB" d="M342.068,498.737l3.84,2.443c-2.327-1.513-5.701-1.396-9.425,0.581
					c-1.513,0.814-2.908,1.745-4.188,3.025l-3.84-2.443c1.396-1.163,2.793-2.211,4.189-3.025
					C336.367,497.341,339.741,497.225,342.068,498.737z"/>
				<path fill="#FBFBFB" d="M284.824,513.63c3.258-1.745,6.399-2.327,8.959-2.095c3.956-6.632,9.541-12.449,15.475-15.591
					c5.701-3.025,10.82-3.142,14.428-0.814l3.839,2.443c-3.606-2.327-8.609-2.211-14.427,0.814
					c-6.051,3.142-11.519,8.959-15.475,15.591c-2.56-0.349-5.701,0.35-8.959,2.095c-10.239,5.352-18.849,19.081-19.314,30.6
					c-0.232,5.701,1.629,9.773,4.771,11.868l-3.839-2.443c-3.142-1.979-5.003-6.167-4.771-11.868
					C265.976,532.711,274.585,518.981,284.824,513.63z"/>
			</g>
			<g>
				<path fill="#E2E2E2" d="M313.098,498.388c-6.051,3.142-11.519,8.959-15.475,15.591c-2.56-0.349-5.701,0.35-8.959,2.095
					c-10.239,5.352-18.849,19.081-19.314,30.6c-0.465,11.519,7.447,16.521,17.686,11.17l48.285-25.364
					c7.446-3.956,13.846-13.962,14.194-22.456c0.35-8.493-5.468-12.1-12.915-8.145c-1.512,0.814-2.908,1.746-4.188,3.025
					C330.084,496.41,322.521,493.501,313.098,498.388z"/>
			</g>
		</g>
	</g>
	<g>
		<g enable-background="new    ">
			<g>
				<path fill="#FBFBFB" d="M315.075,279.417l2.211,1.396c-1.28-0.814-3.258-0.814-5.353,0.349
					c-0.814,0.465-1.629,1.047-2.443,1.746l-2.21-1.396c0.814-0.698,1.628-1.28,2.442-1.745
					C311.817,278.603,313.796,278.487,315.075,279.417z"/>
				<path fill="#FBFBFB" d="M282.381,287.795c1.862-0.931,3.607-1.396,5.12-1.164c2.21-3.84,5.352-7.098,8.842-8.843
					c3.258-1.745,6.167-1.745,8.145-0.465l2.211,1.396c-1.979-1.28-4.887-1.28-8.145,0.465c-3.491,1.862-6.632,5.12-8.843,8.843
					c-1.513-0.116-3.258,0.233-5.119,1.164c-5.818,3.025-10.704,10.82-10.937,17.453c-0.116,3.258,0.931,5.584,2.676,6.748
					l-2.211-1.396c-1.745-1.164-2.792-3.491-2.676-6.749C271.677,298.731,276.68,290.936,282.381,287.795z"/>
			</g>
			<g>
				<path fill="#E2E2E2" d="M298.554,279.185c-3.491,1.862-6.632,5.12-8.843,8.843c-1.513-0.116-3.258,0.233-5.119,1.164
					c-5.818,3.025-10.704,10.82-10.937,17.453c-0.233,6.516,4.188,9.424,10.006,6.399l27.458-14.427
					c4.306-2.211,7.912-7.912,8.028-12.798c0.232-4.771-3.142-6.865-7.33-4.654c-0.814,0.465-1.629,1.047-2.443,1.746
					C308.327,278.021,303.905,276.393,298.554,279.185z"/>
			</g>
		</g>
	</g>
	<g>
		<g enable-background="new    ">
			<g>
				<path fill="#FBFBFB" d="M205.707,234.041l2.21,1.396c-1.28-0.814-3.258-0.814-5.352,0.349c-0.814,0.466-1.629,1.047-2.443,1.746
					l-2.21-1.396c0.814-0.698,1.629-1.28,2.443-1.745C202.449,233.227,204.31,233.227,205.707,234.041z"/>
				<path fill="#FBFBFB" d="M173.012,242.535c1.861-0.931,3.607-1.396,5.119-1.164c2.211-3.839,5.352-7.097,8.843-8.843
					c3.258-1.745,6.167-1.745,8.145-0.465l2.21,1.396c-1.978-1.28-4.887-1.28-8.145,0.465c-3.49,1.861-6.632,5.119-8.842,8.842
					c-1.513-0.116-3.258,0.233-5.12,1.164c-5.817,3.025-10.704,10.821-10.937,17.453c-0.117,3.258,0.931,5.585,2.676,6.748
					l-2.21-1.396c-1.746-1.164-2.792-3.49-2.676-6.748C162.308,253.355,167.195,245.56,173.012,242.535z"/>
			</g>
			<g>
				<path fill="#E2E2E2" d="M189.185,233.809c-3.49,1.861-6.632,5.119-8.842,8.842c-1.513-0.116-3.258,0.233-5.12,1.164
					c-5.817,3.025-10.704,10.82-10.937,17.453c-0.233,6.515,4.188,9.424,10.006,6.399l27.458-14.427
					c4.305-2.21,7.912-7.912,8.028-12.798c0.232-4.771-3.142-6.865-7.33-4.654c-0.814,0.466-1.629,1.047-2.443,1.746
					C198.842,232.645,194.537,231.016,189.185,233.809z"/>
			</g>
		</g>
	</g>
	<g enable-background="new    ">
		<g enable-background="new    ">
			<g>
				<defs>
					<path id="SVGID_4_" d="M380.696,262.896l30.367,16.638c1.048,0.582,1.979,1.28,2.909,2.211l-30.367-16.638
						C382.675,264.176,381.744,263.478,380.696,262.896z"/>
				</defs>
				<clipPath id="SVGID_5_">
					<use xlink:href="#SVGID_4_"  overflow="visible"/>
				</clipPath>
				<g clip-path="url(#SVGID_5_)">
					<path fill="#E2E2E2" d="M413.973,281.628l-30.367-16.638c-0.814-0.931-1.745-1.629-2.909-2.211l30.367,16.638
						C412.111,279.999,413.042,280.813,413.973,281.628"/>
				</g>
			</g>
		</g>
		<g>
			<g>
				<path id="SVGID_6_" fill="#E2E2E2" d="M389.655,254.984l30.483,16.522c-10.122-5.585-25.597-0.117-25.829,0l-30.367-16.638
					C364.175,254.868,379.533,249.399,389.655,254.984z"/>
			</g>
			<g>
				<defs>
					<path id="SVGID_7_" d="M389.655,254.984l30.483,16.522c-10.122-5.585-25.597-0.117-25.829,0l-30.367-16.638
						C364.175,254.868,379.533,249.399,389.655,254.984z"/>
				</defs>
				<clipPath id="SVGID_9_">
					<use xlink:href="#SVGID_7_"  overflow="visible"/>
				</clipPath>
				<g clip-path="url(#SVGID_9_)" enable-background="new    ">
					<path fill="#E2E2E2" d="M394.31,271.506l-30.367-16.638c0,0,0.116,0,0.232-0.116l30.251,16.754H394.31"/>
					<path fill="#E2E2E2" d="M394.426,271.506l-30.367-16.638c0.465-0.116,1.513-0.465,3.025-0.931l30.367,16.638
						C395.938,271.04,394.892,271.389,394.426,271.506"/>
					<path fill="#E2E2E2" d="M397.451,270.575l-30.367-16.521c1.047-0.233,2.21-0.465,3.49-0.814l30.367,16.638
						C399.661,270.109,398.498,270.342,397.451,270.575"/>
					<path fill="#E2E2E2" d="M400.941,269.877l-30.367-16.638c0.931-0.233,1.978-0.349,3.025-0.465l30.367,16.638
						C402.919,269.528,401.988,269.644,400.941,269.877"/>
					<path fill="#E2E2E2" d="M404.083,269.411l-30.367-16.638c0.814-0.116,1.745-0.233,2.56-0.233l30.367,16.638
						C405.712,269.179,404.897,269.295,404.083,269.411"/>
					<path fill="#E2E2E2" d="M406.643,269.179l-30.367-16.638c0.698,0,1.513-0.116,2.211-0.116l30.367,16.638
						C408.155,269.062,407.341,269.062,406.643,269.179"/>
					<path fill="#E2E2E2" d="M408.854,269.062l-30.367-16.638c0.697,0,1.279,0,1.978,0.116l30.367,16.638
						C410.249,269.062,409.552,269.062,408.854,269.062"/>
					<path fill="#E2E2E2" d="M410.831,269.179l-30.367-16.638c0.582,0,1.163,0.117,1.745,0.117l30.367,16.638
						C411.995,269.179,411.413,269.179,410.831,269.179"/>
					<path fill="#E2E2E2" d="M412.576,269.295l-30.367-16.638c0.466,0.116,0.931,0.116,1.513,0.232l30.367,16.638
						C413.507,269.411,413.042,269.411,412.576,269.295"/>
					<path fill="#E2E2E2" d="M414.089,269.528l-30.483-16.638c0.465,0.116,0.931,0.233,1.396,0.233l30.367,16.638
						C415.02,269.644,414.555,269.644,414.089,269.528"/>
					<path fill="#E2E2E2" d="M415.369,269.76l-30.367-16.638c0.349,0.116,0.814,0.232,1.163,0.349l30.367,16.638
						C416.184,269.993,415.834,269.877,415.369,269.76"/>
					<path fill="#E2E2E2" d="M416.648,270.109l-30.367-16.638c0.35,0.116,0.814,0.232,1.164,0.349l30.25,16.638
						C417.347,270.342,416.998,270.226,416.648,270.109"/>
					<path fill="#E2E2E2" d="M417.695,270.458l-30.367-16.638c0.35,0.117,0.698,0.233,0.932,0.349l30.367,16.638
						C418.394,270.808,418.045,270.575,417.695,270.458"/>
					<path fill="#E2E2E2" d="M418.743,270.924l-30.367-16.638c0.349,0.116,0.698,0.349,0.931,0.465l30.367,16.638
						C419.324,271.157,419.092,271.04,418.743,270.924"/>
					<path fill="#E2E2E2" d="M419.674,271.389l-30.367-16.638c0.116,0.116,0.232,0.116,0.465,0.232l30.367,16.522
						C419.906,271.506,419.79,271.389,419.674,271.389"/>
				</g>
			</g>
		</g>
		<g>
			<polygon fill="#CBCBCC" points="393.495,271.854 363.012,255.217 363.942,254.984 394.31,271.506 			"/>
		</g>
		<g enable-background="new    ">
			<g>
				<path id="SVGID_8_" fill="#9A999E" d="M382.093,285.119l-30.367-16.638c6.399-19.081,1.745-25.248,0.349-26.528l30.367,16.638
					C383.838,259.871,388.492,266.037,382.093,285.119z"/>
			</g>
			<g>
				<defs>
					<path id="SVGID_10_" d="M382.093,285.119l-30.367-16.638c6.399-19.081,1.745-25.248,0.349-26.528l30.367,16.638
						C383.838,259.871,388.492,266.037,382.093,285.119z"/>
				</defs>
				<clipPath id="SVGID_11_">
					<use xlink:href="#SVGID_10_"  overflow="visible"/>
				</clipPath>
				<g clip-path="url(#SVGID_11_)" enable-background="new    ">
					<path fill="#9A999E" d="M382.093,285.119l-30.367-16.638c0.232-0.814,0.465-1.512,0.698-2.21l30.367,16.638
						C382.675,283.606,382.441,284.304,382.093,285.119"/>
					<path fill="#9A999E" d="M382.907,282.908L352.54,266.27c0.232-0.814,0.465-1.513,0.698-2.21l30.367,16.638
						C383.373,281.396,383.14,282.094,382.907,282.908"/>
					<path fill="#9A999E" d="M383.489,280.697l-30.367-16.638c0.232-0.698,0.349-1.396,0.581-2.095l30.367,16.522
						C383.954,279.185,383.722,279.883,383.489,280.697"/>
					<path fill="#9A999E" d="M384.07,278.487l-30.367-16.522c0.116-0.698,0.35-1.396,0.466-2.094l30.367,16.638
						C384.42,277.09,384.188,277.789,384.07,278.487"/>
					<path fill="#9A999E" d="M384.536,276.393l-30.367-16.522c0.116-0.698,0.232-1.396,0.349-2.094l30.367,16.638
						C384.769,274.996,384.652,275.694,384.536,276.393"/>
					<path fill="#9A999E" d="M384.885,274.298l-30.367-16.638c0.116-0.698,0.233-1.513,0.35-2.211l30.367,16.638
						C385.118,272.902,385.002,273.6,384.885,274.298"/>
					<path fill="#9A999E" d="M385.234,272.204l-30.367-16.638c0.116-0.814,0.116-1.629,0.232-2.443l30.367,16.638
						C385.351,270.575,385.351,271.389,385.234,272.204"/>
					<path fill="#9A999E" d="M385.351,269.76l-30.367-16.638c0.349-7.33-1.979-10.355-2.909-11.17l30.367,16.638
						C383.373,259.521,385.699,262.431,385.351,269.76"/>
				</g>
			</g>
		</g>
		<g enable-background="new    ">
			<g>
				<defs>
					<path id="SVGID_13_" d="M348.933,239.393l30.368,16.522c1.163,0.698,2.21,1.512,3.141,2.676l-30.367-16.638
						C351.26,240.906,350.213,239.975,348.933,239.393z"/>
				</defs>
				<clipPath id="SVGID_15_">
					<use xlink:href="#SVGID_13_"  overflow="visible"/>
				</clipPath>
				<g clip-path="url(#SVGID_15_)">
					<path fill="#9A999E" d="M382.559,258.591l-30.368-16.638c-0.931-1.164-1.978-1.978-3.141-2.676l30.251,16.638
						C380.58,256.613,381.627,257.427,382.559,258.591"/>
				</g>
			</g>
		</g>
		<g>
			<g>
				<path id="SVGID_12_" fill="#E2E2E2" d="M354.634,230.899l30.368,16.638c-5.469-3.025-13.846-2.676-20.595,0.814
					c-1.978,1.047-3.723,2.21-6.166,3.839l-30.483-16.754c2.443-1.629,4.305-2.792,6.166-3.84
					C340.789,228.224,349.166,227.875,354.634,230.899z"/>
			</g>
			<g>
				<defs>
					<path id="SVGID_16_" d="M354.634,230.899l30.368,16.638c-5.469-3.025-13.846-2.676-20.595,0.814
						c-1.978,1.047-3.723,2.21-6.166,3.839l-30.483-16.754c2.443-1.629,4.305-2.792,6.166-3.84
						C340.789,228.224,349.166,227.875,354.634,230.899z"/>
				</defs>
				<clipPath id="SVGID_17_">
					<use xlink:href="#SVGID_16_"  overflow="visible"/>
				</clipPath>
				<g clip-path="url(#SVGID_17_)" enable-background="new    ">
					<path fill="#E2E2E2" d="M358.241,252.075l-30.483-16.638c2.443-1.629,4.305-2.792,6.166-3.84
						c0.35-0.232,0.814-0.349,1.164-0.582l30.367,16.638c-0.35,0.233-0.814,0.349-1.164,0.582
						C362.43,249.283,360.685,250.446,358.241,252.075"/>
					<path fill="#E2E2E2" d="M365.571,247.654l-30.367-16.638c0.698-0.349,1.513-0.582,2.327-0.931l30.367,16.638
						C367.084,247.072,366.27,247.305,365.571,247.654"/>
					<path fill="#E2E2E2" d="M367.781,246.839l-30.367-16.638c0.582-0.233,1.28-0.349,1.979-0.582l30.367,16.638
						C369.062,246.374,368.479,246.607,367.781,246.839"/>
					<path fill="#E2E2E2" d="M369.76,246.258l-30.367-16.638c0.582-0.116,1.163-0.232,1.745-0.349l30.367,16.638
						C370.923,245.909,370.342,246.142,369.76,246.258"/>
					<path fill="#E2E2E2" d="M371.505,245.792l-30.367-16.638c0.582-0.116,1.163-0.232,1.629-0.232l30.367,16.638
						C372.668,245.676,372.087,245.792,371.505,245.792"/>
					<path fill="#E2E2E2" d="M373.134,245.56l-30.367-16.638c0.466-0.117,1.047-0.117,1.513-0.117l30.367,16.638
						C374.181,245.443,373.716,245.56,373.134,245.56"/>
					<path fill="#E2E2E2" d="M374.763,245.443l-30.367-16.638c0.465,0,0.931,0,1.513,0l30.367,16.638
						C375.693,245.443,375.229,245.443,374.763,245.443"/>
					<path fill="#E2E2E2" d="M376.159,245.443l-30.367-16.638c0.465,0,0.931,0,1.396,0l30.367,16.638
						C377.09,245.443,376.624,245.443,376.159,245.443"/>
					<path fill="#E2E2E2" d="M377.555,245.443l-30.367-16.638c0.466,0,0.814,0.117,1.28,0.117l30.367,16.638
						C378.486,245.56,378.021,245.443,377.555,245.443"/>
					<path fill="#E2E2E2" d="M378.835,245.56l-30.367-16.638c0.349,0,0.814,0.116,1.163,0.232l30.367,16.638
						C379.649,245.676,379.301,245.676,378.835,245.56"/>
					<path fill="#E2E2E2" d="M379.998,245.792l-30.367-16.638c0.35,0.116,0.698,0.116,1.048,0.233l30.367,16.638
						C380.812,245.909,380.464,245.792,379.998,245.792"/>
					<path fill="#E2E2E2" d="M381.162,246.025l-30.367-16.638c0.349,0.116,0.698,0.116,1.047,0.232l30.367,16.638
						C381.86,246.142,381.511,246.025,381.162,246.025"/>
					<path fill="#E2E2E2" d="M382.093,246.258l-30.367-16.638c0.349,0.117,0.582,0.233,0.931,0.349l30.367,16.638
						C382.791,246.49,382.441,246.374,382.093,246.258"/>
					<path fill="#E2E2E2" d="M383.023,246.607l-30.367-16.638c0.232,0.116,0.582,0.233,0.814,0.349l30.483,16.638
						C383.605,246.839,383.373,246.723,383.023,246.607"/>
					<path fill="#E2E2E2" d="M383.954,246.956l-30.367-16.638c0.232,0.116,0.466,0.233,0.814,0.349l30.367,16.638
						C384.42,247.188,384.188,247.072,383.954,246.956"/>
					<path fill="#E2E2E2" d="M384.652,247.305l-30.367-16.638c0.116,0,0.232,0.116,0.349,0.116l30.368,16.638
						C384.885,247.421,384.769,247.305,384.652,247.305"/>
				</g>
			</g>
		</g>
		<g enable-background="new    ">
			<g>
				<path id="SVGID_14_" fill="#9A999E" d="M316.82,242.186l30.367,16.638c3.025,1.629,5.585,3.723,7.796,6.399l-30.367-16.638
					C322.405,246.025,319.846,243.814,316.82,242.186z"/>
			</g>
			<g>
				<defs>
					<path id="SVGID_18_" d="M316.82,242.186l30.367,16.638c3.025,1.629,5.585,3.723,7.796,6.399l-30.367-16.638
						C322.405,246.025,319.846,243.814,316.82,242.186z"/>
				</defs>
				<clipPath id="SVGID_19_">
					<use xlink:href="#SVGID_18_"  overflow="visible"/>
				</clipPath>
				<g clip-path="url(#SVGID_19_)" enable-background="new    ">
					<path fill="#9A999E" d="M355.1,265.223l-30.367-16.638c-2.211-2.676-4.887-4.771-7.796-6.399l30.367,16.638
						C350.213,260.453,352.889,262.547,355.1,265.223"/>
				</g>
			</g>
		</g>
		<path fill="#E2E2E2" d="M419.674,298.964L419.674,298.964c0-0.698,0-1.28,0-1.862c0-5.352-1.396-10.006-3.84-13.38
			c-0.581-0.814-1.279-1.513-1.978-2.211l-28.39-15.591c0.698,0.698-0.582,0.465,0,1.164c2.443,3.374,3.84,7.912,3.84,13.38
			c0,0.582,0,1.163,0,1.745c0,0.116,0,0.232,0,0.349c0,0.698-0.116,1.28-0.116,1.978c0,0.116,0,0.349,0,0.465
			c-0.116,0.465-0.116,1.047-0.233,1.512c0,0.117,0,0.233,0,0.349c-0.116,0.582-0.232,1.164-0.349,1.629
			c-0.116,0.582-0.232,1.047-0.349,1.629c0,0.117,0,0.117,0,0.233c-0.117,0.465-0.233,0.931-0.35,1.396
			c0,0.117-0.116,0.349-0.116,0.465c-0.116,0.349-0.232,0.698-0.349,1.047c0,0.116-0.117,0.349-0.117,0.465
			c-0.116,0.349-0.232,0.698-0.349,1.047c-0.116,0.233-0.116,0.349-0.232,0.582c-0.116,0.349-0.233,0.698-0.35,1.047
			c0,0.117-0.116,0.349-0.116,0.466c-0.232,0.465-0.349,0.931-0.582,1.396c0,0,0,0.116-0.116,0.116
			c-0.232,0.465-0.349,0.814-0.581,1.28c-0.117,0.117-0.117,0.349-0.233,0.466c-0.116,0.349-0.349,0.698-0.465,1.047
			c-0.116,0.116-0.116,0.349-0.233,0.465c-0.232,0.349-0.349,0.698-0.581,1.047c-0.116,0.116-0.116,0.232-0.233,0.349
			c-0.232,0.465-0.465,0.931-0.814,1.396c-0.116,0.116-0.116,0.233-0.232,0.349c-0.232,0.349-0.465,0.698-0.582,1.047
			c-0.116,0.116-0.232,0.349-0.349,0.465c-0.232,0.349-0.349,0.582-0.582,0.931c-0.116,0.233-0.232,0.349-0.349,0.582
			c-0.232,0.233-0.35,0.582-0.582,0.814c-0.116,0.233-0.232,0.466-0.465,0.582c-0.233,0.232-0.35,0.465-0.582,0.814
			c-0.116,0.232-0.35,0.465-0.466,0.582c-0.116,0.233-0.349,0.465-0.465,0.698c-0.233,0.233-0.35,0.465-0.582,0.698
			c-0.116,0.232-0.349,0.349-0.466,0.582c-0.232,0.233-0.465,0.582-0.697,0.814c-0.117,0.233-0.35,0.349-0.466,0.582
			c-0.349,0.349-0.582,0.698-0.931,1.047c-0.116,0.116-0.232,0.349-0.466,0.465c-0.465,0.582-1.047,1.047-1.512,1.629
			c-0.233,0.233-0.35,0.349-0.582,0.582c-0.233,0.232-0.466,0.465-0.698,0.582c-0.232,0.233-0.349,0.349-0.582,0.582
			c-0.232,0.233-0.465,0.349-0.698,0.582c-0.116,0.116-0.232,0.232-0.465,0.349c-0.466,0.349-0.931,0.698-1.396,1.047
			c-0.116,0.117-0.232,0.233-0.465,0.349c-0.582,0.465-1.164,0.814-1.746,1.164c-0.116,0.116-0.232,0.116-0.232,0.233
			c-0.465,0.349-1.047,0.698-1.513,0.931c-0.116,0.116-0.349,0.232-0.465,0.232c-0.582,0.349-1.164,0.698-1.745,0.931
			c0,0,0,0-0.117,0c-0.116,0-0.116,0.116-0.349,0.116c-0.116,0-0.232,0.116-0.349,0.232c-0.117,0.117-0.35,0.117-0.466,0.233
			c-0.116,0-0.116,0.116-0.232,0.116c0,0,0,0-0.116,0c-0.233,0.117-0.582,0.349-0.932,0.465c-0.349,0.233-0.697,0.349-1.163,0.582
			c-0.814,0.465-1.861,0.931-2.908,1.513c-0.233,0.116-0.35,0.232-0.582,0.349c-0.582,0.233-1.164,0.582-1.745,0.931l0,0
			c-0.466,0.232-0.814,0.465-1.28,0.698c-0.349,0.117-0.582,0.349-0.931,0.466c-0.582,0.232-1.047,0.582-1.629,0.814
			c0,0-0.116,0-0.116,0.116c-0.35,0.116-0.582,0.349-0.931,0.465c-1.048,0.465-1.979,1.047-3.142,1.629
			c-1.047,0.582-2.095,1.047-3.258,1.629c-0.582,0.349-1.28,0.698-1.979,0.931c-1.279,0.698-2.56,1.28-3.955,1.978
			c-1.28,0.582-2.561,1.28-3.84,1.978c-0.814,0.349-1.513,0.814-2.327,1.164c-1.396,0.698-2.676,1.396-4.072,2.094
			c-2.56,1.28-5.119,2.56-7.912,3.956c-0.232,0.116-0.349,0.232-0.581,0.232c-0.35,0.116-0.698,0.349-1.048,0.465
			c-0.349,0.117-0.697,0.349-0.931,0.465c-0.349,0.117-0.581,0.349-0.931,0.466c-0.116,0.116-0.349,0.116-0.465,0.232
			c-0.466,0.233-0.931,0.465-1.28,0.698c-1.629,0.814-3.258,1.629-5.003,2.56c-0.349,0.116-0.698,0.349-0.931,0.465
			c-1.164,0.582-2.211,1.164-3.374,1.745c-1.513,0.814-3.142,1.629-4.771,2.443c-0.466,0.233-0.931,0.466-1.396,0.698l0,0
			c-1.28,0.582-2.443,1.28-3.723,1.862c-0.349,0.116-0.582,0.349-0.931,0.465c-0.349,0.232-0.698,0.349-1.047,0.582
			c-0.232,0.117-0.349,0.233-0.582,0.349c-0.582,0.349-1.164,0.582-1.745,0.931c-0.116,0.117-0.233,0.117-0.349,0.233
			c-0.233,0.116-0.465,0.233-0.814,0.349c-0.465,0.232-1.047,0.582-1.513,0.814c-0.232,0.116-0.349,0.232-0.582,0.232
			c-0.465,0.233-0.931,0.466-1.396,0.698c-0.116,0.116-0.349,0.116-0.465,0.233c-0.465,0.232-0.931,0.465-1.396,0.698
			c-0.233,0.117-0.465,0.233-0.698,0.349c-0.698,0.349-1.396,0.698-2.094,1.047c-3.839,1.978-7.795,3.956-11.751,5.934
			c-0.116,0-0.116,0.117-0.232,0.117c-1.28,0.698-2.56,1.28-3.84,1.978c-0.116,0.116-0.232,0.116-0.349,0.232
			c-1.28,0.582-2.443,1.28-3.723,1.862c-0.232,0.116-0.582,0.232-0.814,0.349c-0.349,0.232-0.698,0.349-1.047,0.582
			c-0.349,0.116-0.698,0.349-1.047,0.465c-0.232,0.116-0.582,0.349-0.814,0.465c-0.349,0.233-0.698,0.349-1.163,0.582
			c-0.349,0.232-0.698,0.349-1.164,0.582c-0.349,0.116-0.582,0.349-0.931,0.465c-0.465,0.233-0.814,0.465-1.163,0.582
			c-0.233,0.117-0.466,0.233-0.698,0.349c-0.582,0.233-1.047,0.582-1.513,0.814c-0.232,0.117-0.349,0.233-0.582,0.233
			c-0.233,0.116-0.349,0.232-0.582,0.349c-0.582,0.232-1.047,0.582-1.629,0.814c-1.047,0.582-2.094,1.047-3.141,1.629
			c-0.349,0.232-0.698,0.349-1.047,0.582c-1.164,0.582-2.327,1.164-3.49,1.745c-0.117,0.117-0.233,0.117-0.349,0.233
			c-0.465,0.233-0.931,0.465-1.396,0.698c-0.232,0.116-0.582,0.232-0.814,0.465c-0.349,0.232-0.814,0.349-1.163,0.582
			c-0.233,0.117-0.582,0.233-0.814,0.349c-0.349,0.116-0.698,0.349-1.047,0.465c-0.349,0.117-0.582,0.349-0.814,0.465
			c-0.349,0.233-0.814,0.349-1.164,0.582c-0.232,0.116-0.465,0.232-0.582,0.349c-0.349,0.116-0.582,0.349-0.931,0.465
			c-0.349,0.232-0.814,0.349-1.163,0.582c-0.233,0.117-0.466,0.233-0.698,0.349c-0.233,0.116-0.582,0.233-0.814,0.465
			c-0.465,0.233-0.931,0.465-1.513,0.698c-0.116,0-0.116,0.116-0.232,0.116c-0.466,0.233-0.931,0.465-1.396,0.698
			c-0.232,0.116-0.349,0.233-0.582,0.233c-0.465,0.232-0.931,0.465-1.28,0.698c-0.117,0.117-0.233,0.117-0.349,0.233
			c-0.465,0.232-0.931,0.465-1.396,0.698c-0.116,0.116-0.232,0.116-0.465,0.232c-0.465,0.232-0.814,0.465-1.28,0.698
			c-0.116,0.116-0.349,0.116-0.465,0.232c-1.047,0.466-1.978,0.931-2.909,1.513c-0.349,0.232-0.698,0.35-1.164,0.582
			c-0.349,0.116-0.698,0.349-1.047,0.465c-0.117,0-0.233,0.117-0.233,0.117c-0.465,0.232-0.931,0.465-1.396,0.697
			c-0.117,0.117-0.233,0.117-0.466,0.232c-0.349,0.233-0.814,0.35-1.163,0.582c-0.117,0.117-0.349,0.117-0.466,0.232
			c-0.349,0.233-0.698,0.35-1.047,0.466c-0.233,0.116-0.349,0.233-0.582,0.233c-0.349,0.115-0.698,0.349-0.931,0.465
			c-0.232,0.116-0.465,0.232-0.582,0.35c-0.233,0.115-0.582,0.232-0.814,0.465c-0.233,0.116-0.465,0.232-0.698,0.35
			c-0.233,0.115-0.465,0.232-0.814,0.349c-0.233,0.116-0.465,0.232-0.698,0.349c-0.349,0.117-0.582,0.35-0.931,0.466
			c-0.116,0.116-0.349,0.116-0.465,0.232c-0.349,0.116-0.582,0.349-0.931,0.466c-0.233,0.116-0.465,0.232-0.582,0.349
			c-0.232,0.116-0.465,0.233-0.698,0.349c-0.233,0.117-0.466,0.233-0.698,0.35c-0.233,0.116-0.465,0.232-0.698,0.35
			c-0.233,0.115-0.349,0.232-0.582,0.349c-0.233,0.116-0.465,0.232-0.698,0.349c-0.233,0.117-0.349,0.232-0.582,0.232
			c-0.232,0.117-0.349,0.233-0.582,0.35c-0.232,0.116-0.465,0.232-0.582,0.35c-0.349,0.115-0.698,0.349-1.047,0.465
			c0,0-0.116,0-0.116,0.116c-0.814,0.349-1.513,0.814-2.327,1.163c-0.116,0.117-0.232,0.117-0.349,0.233
			c-0.232,0.116-0.465,0.232-0.698,0.349c-0.117,0.117-0.233,0.117-0.349,0.232c-0.233,0.117-0.465,0.233-0.698,0.35
			c-0.116,0.116-0.233,0.116-0.349,0.232c-0.232,0.117-0.349,0.232-0.582,0.232c-0.117,0.117-0.349,0.117-0.465,0.233
			c-0.117,0.116-0.349,0.116-0.466,0.232c-0.116,0.116-0.232,0.116-0.349,0.233c-0.233,0.115-0.349,0.115-0.582,0.232
			c-0.116,0-0.232,0.116-0.349,0.116c-0.116,0.116-0.349,0.116-0.465,0.232c-0.116,0-0.232,0.116-0.349,0.116
			c-0.116,0.117-0.349,0.117-0.465,0.232c-0.116,0-0.232,0.117-0.349,0.117c-0.116,0.116-0.232,0.116-0.349,0.232
			c-0.116,0-0.232,0.116-0.349,0.116c-0.117,0-0.233,0.116-0.349,0.116c-0.117,0-0.233,0.117-0.349,0.117s-0.233,0.115-0.349,0.115
			s-0.233,0.117-0.233,0.117c-0.116,0-0.232,0.116-0.349,0.116c-0.117,0-0.117,0.116-0.233,0.116c0,0-0.116,0-0.116,0.116
			c-0.233,0.116-0.349,0.233-0.582,0.233c0,0-0.116,0-0.116,0.115c-0.233,0.117-0.349,0.117-0.582,0.233h-0.117
			c-0.232,0.116-0.349,0.116-0.465,0.232l0,0c-0.116,0-0.232,0.116-0.349,0.116c0,0,0,0-0.116,0s-0.116,0-0.116,0
			c-0.582,0.117-1.164,0.117-1.746,0.117c-0.116,0-0.232,0-0.349,0c-0.466,0-0.814,0-1.28,0c-0.232,0-0.349,0-0.582,0
			c-0.349,0-0.698,0-1.047-0.117c-0.117,0-0.349,0-0.466,0c-0.465,0-0.814-0.116-1.28-0.116c-0.116,0-0.116,0-0.232,0
			c-0.465-0.116-0.931-0.232-1.396-0.349c-0.116,0-0.232-0.117-0.349-0.117c-0.349-0.115-0.698-0.232-1.047-0.349
			c-0.116,0-0.233-0.116-0.349-0.116c-0.465-0.116-0.931-0.35-1.28-0.465c0,0-0.116,0-0.116-0.117
			c-0.466-0.232-0.814-0.349-1.28-0.582l30.368,16.639c0.116,0.116,0.349,0.116,0.465,0.232c0.232,0.116,0.582,0.232,0.814,0.35
			c0,0,0.116,0,0.116,0.116l0,0c0.349,0.116,0.698,0.232,1.047,0.465c0.116,0,0.116,0,0.232,0.116c0.116,0,0.233,0.117,0.349,0.117
			s0.349,0.116,0.465,0.116c0.233,0,0.349,0.116,0.582,0.116c0.116,0,0.232,0.116,0.349,0.116c0.117,0,0.117,0,0.233,0
			c0.349,0.116,0.814,0.232,1.164,0.232l0,0c0.116,0,0.116,0,0.232,0c0.349,0,0.698,0.116,0.931,0.116c0.116,0,0.232,0,0.349,0
			c0.116,0,0.349,0,0.465,0c0.116,0,0.349,0,0.465,0c0.232,0,0.349,0,0.582,0c0.233,0,0.349,0,0.582,0c0.116,0,0.232,0,0.349,0
			c0.349,0,0.582,0,0.931,0c0.116,0,0.232,0,0.349,0h0.116c0.465,0,0.931-0.116,1.396-0.116c0.117,0,0.233,0,0.349,0h0.116l0,0l0,0
			c0.117,0,0.233-0.116,0.349-0.116l0,0l0,0c0.117,0,0.349-0.116,0.465-0.232l0,0l0,0c0.117-0.116,0.349-0.116,0.582-0.232
			c0,0,0.116,0,0.116-0.117c0.233-0.116,0.349-0.116,0.582-0.232h0.116c0,0,0,0,0.116,0s0.116-0.116,0.233-0.116
			c0.116,0,0.232-0.116,0.349-0.116c0.116,0,0.232-0.116,0.232-0.116c0.116,0,0.233-0.116,0.349-0.116s0.233-0.117,0.349-0.117
			c0.116-0.116,0.232-0.116,0.349-0.232c0.116,0,0.232-0.116,0.349-0.116c0.116-0.116,0.232-0.116,0.465-0.232
			c0.116,0,0.232-0.116,0.349-0.116c0.116-0.117,0.232-0.117,0.465-0.233c0.116,0,0.232-0.116,0.349-0.116
			c0.116-0.116,0.349-0.116,0.465-0.232c0.116,0,0.232-0.116,0.349-0.116c0.116-0.116,0.349-0.116,0.582-0.233
			c0.116-0.116,0.233-0.116,0.349-0.232s0.349-0.116,0.465-0.232s0.349-0.116,0.465-0.232c0.116-0.117,0.233-0.117,0.349-0.233
			c0.233-0.116,0.349-0.232,0.582-0.232c0.233-0.116,0.349-0.232,0.582-0.232c0.116-0.116,0.232-0.116,0.465-0.233
			c0.233-0.116,0.349-0.232,0.582-0.232c0.698-0.349,1.513-0.698,2.327-1.163c0.116-0.116,0.233-0.116,0.349-0.233
			c0.232-0.116,0.465-0.232,0.698-0.349c0.116-0.116,0.349-0.116,0.465-0.232c0.232-0.116,0.465-0.233,0.698-0.35
			c0.117-0.116,0.349-0.116,0.466-0.232c0.232-0.116,0.465-0.232,0.698-0.349c0.117-0.117,0.349-0.117,0.465-0.233
			c0.233-0.116,0.466-0.232,0.698-0.349c0.233-0.116,0.349-0.232,0.582-0.232c0.232-0.117,0.465-0.233,0.698-0.35
			c0.233-0.116,0.465-0.232,0.582-0.349c0.232-0.116,0.465-0.233,0.698-0.35c0.233-0.116,0.466-0.232,0.698-0.349
			c0.233-0.116,0.465-0.232,0.814-0.35c0.233-0.116,0.349-0.232,0.582-0.349c0.232-0.116,0.582-0.232,0.814-0.466
			c0.232-0.116,0.465-0.232,0.698-0.349c0.233-0.116,0.582-0.232,0.814-0.349c0.233-0.117,0.465-0.232,0.698-0.35
			c0.233-0.116,0.582-0.232,0.814-0.465c0.233-0.117,0.582-0.232,0.814-0.35c0.233-0.116,0.349-0.232,0.582-0.349
			c0.349-0.116,0.698-0.349,1.047-0.466c0.232-0.116,0.465-0.232,0.698-0.349c0.232-0.116,0.465-0.233,0.814-0.349
			c0.232-0.117,0.582-0.233,0.814-0.35c0.232-0.116,0.465-0.232,0.698-0.35c0.349-0.115,0.582-0.349,0.931-0.465
			c1.629-0.814,3.258-1.629,5.003-2.443c0.116-0.116,0.349-0.116,0.465-0.232c0.465-0.232,0.814-0.466,1.28-0.582
			c0.233-0.116,0.582-0.232,0.814-0.35c0.233-0.115,0.582-0.232,0.814-0.465c0.233-0.116,0.582-0.232,0.814-0.465
			c0.349-0.117,0.698-0.35,1.047-0.466s0.698-0.349,0.931-0.466c0.233-0.116,0.465-0.232,0.582-0.349
			c0.349-0.233,0.814-0.349,1.164-0.582c0.233-0.116,0.349-0.232,0.582-0.349c0.349-0.232,0.814-0.35,1.163-0.582
			c0.233-0.116,0.466-0.232,0.582-0.35c0.349-0.232,0.698-0.349,1.047-0.581c0.349-0.116,0.698-0.349,0.931-0.466
			c0.232-0.116,0.465-0.232,0.814-0.349c0.349-0.116,0.698-0.349,1.047-0.466c0.349-0.116,0.582-0.349,0.931-0.465
			c0.233-0.117,0.582-0.232,0.814-0.35c0.466-0.232,0.814-0.465,1.28-0.697h0.116c0.582-0.233,1.164-0.582,1.745-0.814
			c0.116,0,0.233-0.117,0.233-0.117c1.164-0.582,2.327-1.163,3.49-1.745c0.233-0.116,0.465-0.232,0.698-0.349
			c0.349-0.232,0.814-0.35,1.164-0.582c0.465-0.232,0.814-0.465,1.28-0.582c1.28-0.697,2.676-1.279,3.956-1.978
			c0.232-0.116,0.465-0.233,0.698-0.349c0.349-0.233,0.814-0.35,1.164-0.582c0.233-0.117,0.465-0.232,0.814-0.35
			c0.465-0.232,0.814-0.465,1.28-0.697c0.233-0.117,0.465-0.233,0.698-0.35c0.349-0.116,0.582-0.35,0.931-0.465
			c0.349-0.233,0.814-0.35,1.164-0.582c0.233-0.117,0.465-0.233,0.698-0.349c0.465-0.233,0.814-0.465,1.28-0.698
			c0.233-0.116,0.582-0.233,0.814-0.465c0.465-0.233,0.814-0.465,1.28-0.582c0.349-0.116,0.582-0.349,0.931-0.465
			c0.349-0.116,0.582-0.349,0.931-0.465s0.698-0.349,1.047-0.465c0.349-0.233,0.814-0.349,1.164-0.582
			c0.349-0.233,0.698-0.349,1.047-0.582c0.232-0.116,0.465-0.232,0.698-0.349c0.582-0.232,1.047-0.582,1.629-0.814c0,0,0,0,0.117,0
			c0.582-0.349,1.163-0.582,1.745-0.931c1.047-0.465,2.094-1.047,3.142-1.513c1.047-0.465,1.978-1.047,3.025-1.512
			c1.978-1.047,3.955-1.978,5.934-3.025c1.163-0.582,2.327-1.164,3.49-1.745c0.232-0.116,0.349-0.233,0.582-0.233
			c0.465-0.232,0.814-0.465,1.279-0.582c0.35-0.116,0.698-0.349,0.931-0.465c0.233-0.116,0.466-0.233,0.698-0.349
			c0.466-0.233,0.931-0.465,1.396-0.698c0.232-0.116,0.466-0.232,0.582-0.349c0.465-0.232,1.047-0.465,1.513-0.698
			c0.116-0.117,0.349-0.117,0.465-0.233c0.466-0.232,0.931-0.465,1.513-0.698c0.232-0.116,0.582-0.232,0.814-0.465
			c0.232-0.116,0.466-0.232,0.698-0.349c0.465-0.232,0.931-0.465,1.396-0.698c0.349-0.117,0.581-0.349,0.931-0.465
			c0.349-0.233,0.814-0.349,1.163-0.582c0,0,0.116,0,0.116-0.116c0.466-0.233,0.931-0.465,1.513-0.698
			c0.582-0.349,1.164-0.582,1.745-0.931l0,0c1.28-0.698,2.56-1.28,3.84-1.978c0.116,0,0.116-0.116,0.232-0.116
			c0.35-0.117,0.698-0.349,1.047-0.465c0.466-0.233,1.048-0.465,1.513-0.814c1.28-0.698,2.56-1.28,3.724-1.862
			c0.814-0.349,1.513-0.814,2.327-1.164c0.931-0.465,1.861-0.931,2.792-1.396c0,0,0.116,0,0.116-0.116
			c2.327-1.164,4.654-2.327,6.865-3.491c0.232-0.116,0.349-0.233,0.581-0.233c0.35-0.232,0.698-0.349,1.048-0.582
			c1.396-0.698,2.676-1.396,4.072-2.094c1.978-1.047,3.839-1.978,5.701-2.909c0.931-0.465,1.745-0.931,2.676-1.396
			c0.349-0.232,0.814-0.349,1.163-0.582c0.582-0.233,1.048-0.582,1.629-0.814c1.629-0.814,3.258-1.629,4.771-2.443
			c0.232-0.116,0.466-0.233,0.582-0.349c0.931-0.465,1.861-0.931,2.792-1.396c0.35-0.117,0.582-0.349,0.931-0.465
			c0.931-0.466,1.862-0.931,2.677-1.396c0.116-0.116,0.232-0.116,0.465-0.232c1.28-0.582,2.443-1.164,3.374-1.746
			c0.582-0.232,1.048-0.582,1.513-0.814c0.232-0.116,0.466-0.232,0.814-0.349l0,0c0.232-0.117,0.582-0.233,0.814-0.466
			c0.582-0.349,1.164-0.582,1.629-0.814c0,0,0,0,0.116,0s0.116-0.116,0.233-0.116c0.581-0.349,0.931-0.465,1.163-0.582h0.116
			c0.582-0.349,1.164-0.698,1.745-0.931c0.116-0.116,0.35-0.232,0.466-0.232c0.465-0.349,1.047-0.582,1.513-0.931
			c0.116-0.117,0.232-0.117,0.232-0.233c0.582-0.349,1.163-0.814,1.745-1.164c0.116-0.116,0.232-0.232,0.466-0.349
			c0.465-0.349,0.931-0.698,1.396-1.047c0.116-0.117,0.116-0.117,0.233-0.233l0.116-0.116c0.232-0.233,0.465-0.349,0.698-0.582
			c0.232-0.232,0.349-0.349,0.581-0.582c0.233-0.233,0.466-0.465,0.698-0.582c0.116-0.117,0.35-0.233,0.466-0.466l0.116-0.116
			c0.582-0.465,1.047-1.047,1.513-1.629l0.116-0.116c0.116-0.116,0.232-0.233,0.349-0.349c0.35-0.349,0.582-0.698,0.931-1.047
			c0.117-0.116,0.117-0.116,0.233-0.232s0.116-0.233,0.232-0.349c0.232-0.233,0.466-0.582,0.698-0.814
			c0.116-0.116,0.232-0.233,0.349-0.349s0.116-0.116,0.233-0.232c0.232-0.233,0.349-0.466,0.581-0.698
			c0.116-0.116,0.233-0.349,0.35-0.465c0.116-0.117,0.116-0.117,0.232-0.233c0.116-0.232,0.349-0.465,0.466-0.582
			c0.116-0.116,0.232-0.349,0.349-0.465c0.116-0.117,0.116-0.233,0.232-0.349c0.116-0.233,0.233-0.349,0.466-0.582
			c0.116-0.116,0.232-0.232,0.349-0.465c0.116-0.116,0.116-0.232,0.233-0.349c0.116-0.232,0.232-0.349,0.349-0.582
			c0.116-0.116,0.116-0.233,0.232-0.349c0.116-0.232,0.233-0.349,0.35-0.582c0.116-0.117,0.232-0.349,0.349-0.465
			c0-0.117,0.116-0.117,0.116-0.233c0.116-0.233,0.35-0.582,0.466-0.814c0.116-0.116,0.116-0.233,0.232-0.349c0,0,0,0,0-0.116
			c0.232-0.465,0.466-0.814,0.698-1.28v-0.116c0.116-0.117,0.116-0.233,0.232-0.349c0.116-0.233,0.233-0.465,0.466-0.814
			c0-0.117,0.116-0.233,0.116-0.349c0.116-0.116,0.116-0.349,0.232-0.465c0.116-0.117,0.116-0.349,0.233-0.465
			c0.116-0.233,0.116-0.349,0.232-0.582c0.116-0.116,0.116-0.349,0.232-0.465c0-0.116,0.116-0.116,0.116-0.233
			c0.116-0.349,0.35-0.698,0.466-1.047c0,0,0-0.116,0.116-0.116l0,0c0.232-0.466,0.349-0.814,0.466-1.28c0,0,0-0.116,0.116-0.116
			c0-0.116,0.116-0.349,0.116-0.465c0.116-0.233,0.116-0.465,0.232-0.698c0-0.116,0.116-0.232,0.116-0.349
			c0.117-0.232,0.117-0.349,0.233-0.582c0-0.116,0.116-0.233,0.116-0.349c0.116-0.232,0.116-0.349,0.232-0.582
			c0-0.117,0.116-0.349,0.116-0.465c0-0.117,0-0.117,0.116-0.233c0.117-0.233,0.117-0.582,0.233-0.814
			c0-0.116,0.116-0.349,0.116-0.465v-0.116c0.116-0.466,0.232-0.814,0.349-1.28c0-0.116,0-0.116,0-0.232l0,0
			c0.116-0.465,0.233-1.047,0.35-1.513l0,0c0.116-0.582,0.232-1.164,0.349-1.629l0,0c0-0.116,0-0.232,0-0.232
			c0.116-0.466,0.116-1.047,0.232-1.513c0-0.116,0-0.116,0-0.233c0-0.116,0-0.232,0-0.232c0.117-0.698,0.117-1.28,0.117-1.978
			C419.674,299.197,419.674,299.081,419.674,298.964z"/>
		<g>
			<polygon fill="#E2E2E2" points="235.143,337.127 204.776,320.605 205.125,319.442 235.492,335.963 			"/>
		</g>
		<g>
			<polygon fill="#E2E2E2" points="234.329,336.895 203.961,320.373 204.776,320.605 235.143,337.127 			"/>
		</g>
		<path fill="#E2E2E2" d="M309.84,249.632c0.349-0.232,0.814-0.349,1.163-0.582c0.232-0.117,0.582-0.233,0.814-0.349
			c0.349-0.116,0.698-0.233,0.931-0.465c0.233-0.117,0.582-0.233,0.814-0.349c0.35-0.116,0.698-0.233,0.931-0.349
			c0.233-0.116,0.582-0.233,0.814-0.349c0.35-0.116,0.582-0.232,0.931-0.349c0.233-0.116,0.582-0.232,0.814-0.232
			c0.233-0.117,0.466-0.117,0.814-0.233c0.582-0.232,1.164-0.349,1.629-0.582c0.117,0,0.35-0.117,0.466-0.117
			c0.698-0.232,1.396-0.349,1.978-0.582c0.233,0,0.466-0.116,0.582-0.116c0.35-0.117,0.698-0.233,1.164-0.233
			c0.232,0,0.465-0.116,0.697-0.116c0.35-0.116,0.698-0.116,1.048-0.233c0.232,0,0.465-0.116,0.698-0.116
			c0.232,0,0.581-0.116,0.814-0.116c0.232,0,0.465-0.116,0.697-0.116c0.233,0,0.466-0.117,0.814-0.117c0.233,0,0.35,0,0.582-0.116
			c0.814-0.116,1.629-0.116,2.327-0.232c0.116,0,0.232,0,0.349,0c0.698,0,1.513-0.117,2.211-0.117c0.116,0,0.116,0,0.232,0
			c0.698,0,1.28,0,1.979,0.117c0.116,0,0.116,0,0.232,0c0.698,0,1.28,0.116,1.861,0.116c0.117,0,0.233,0,0.35,0
			c0.582,0.116,1.163,0.116,1.861,0.232c0.116,0,0.232,0,0.232,0c0.582,0.117,1.28,0.233,1.862,0.349c0,0,0,0,0.116,0
			c0.582,0.116,1.279,0.349,1.861,0.465c0.116,0,0.116,0,0.232,0.117c0.582,0.232,1.164,0.349,1.862,0.582
			c0.116,0,0.116,0.116,0.232,0.116c0.582,0.233,1.28,0.465,1.861,0.698c0.116,0,0.116,0.116,0.233,0.116
			c0.697,0.349,1.396,0.582,2.094,0.931h0.116c0.35,0.117,0.698,0.349,1.048,0.582l-30.368-16.638
			c-0.349-0.232-0.697-0.349-1.047-0.582l0,0c0,0,0,0-0.116,0c-0.698-0.349-1.396-0.698-2.094-0.931c0,0,0,0-0.117,0h-0.116
			c-0.581-0.233-1.279-0.466-1.861-0.698h-0.116h-0.116c-0.582-0.233-1.164-0.465-1.862-0.582c0,0,0,0-0.116,0h-0.116
			c-0.582-0.232-1.28-0.349-1.861-0.465l0,0l0,0c-0.582-0.116-1.164-0.232-1.862-0.349c-0.116,0-0.116,0-0.232,0h-0.116
			c-0.582-0.116-1.163-0.232-1.861-0.232c-0.116,0-0.116,0-0.233,0c-0.116,0-0.116,0-0.232,0c-0.582-0.116-1.279-0.116-1.861-0.116
			c0,0,0,0-0.116,0h-0.116c-0.698,0-1.28-0.117-1.979-0.117h-0.116l0,0c-0.698,0-1.396,0-2.211,0.117c-0.116,0-0.116,0-0.232,0
			h-0.116c-0.814,0-1.513,0.116-2.327,0.232c-0.116,0-0.116,0-0.232,0s-0.233,0-0.35,0c-0.232,0-0.465,0.116-0.814,0.116
			c-0.233,0-0.465,0.117-0.814,0.117c-0.233,0-0.465,0.116-0.814,0.116c-0.117,0-0.233,0-0.465,0.116c-0.117,0-0.233,0-0.349,0.117
			c-0.349,0.116-0.698,0.116-1.047,0.232c-0.232,0-0.465,0.116-0.698,0.116c-0.349,0.117-0.698,0.117-1.163,0.233
			c-0.117,0-0.349,0.116-0.466,0.116h-0.116c-0.698,0.117-1.396,0.349-1.978,0.582c-0.116,0-0.349,0.116-0.465,0.116
			c-0.582,0.116-1.164,0.349-1.629,0.582c-0.116,0-0.232,0.117-0.349,0.117c-0.116,0-0.232,0.116-0.465,0.116
			c-0.232,0.116-0.582,0.233-0.814,0.233c-0.349,0.116-0.582,0.232-0.931,0.349c-0.233,0.117-0.582,0.233-0.814,0.349
			c-0.349,0.117-0.698,0.233-0.931,0.349c-0.233,0.116-0.582,0.233-0.814,0.349c-0.349,0.116-0.698,0.233-0.931,0.465
			c-0.232,0.116-0.582,0.233-0.814,0.349c-0.116,0-0.232,0.116-0.349,0.116c-0.233,0.117-0.582,0.233-0.814,0.349
			c-0.233,0.116-0.349,0.116-0.582,0.233c-0.582,0.232-1.164,0.582-1.861,0.814c-0.698,0.349-1.396,0.698-2.094,1.047
			c-1.164,0.582-2.327,1.164-3.375,1.746c-0.349,0.232-0.698,0.349-1.047,0.582c-0.698,0.465-1.513,0.814-2.211,1.28
			c-0.465,0.233-0.814,0.465-1.28,0.698c-0.698,0.349-1.396,0.814-1.978,1.164c-0.465,0.232-0.814,0.465-1.28,0.814
			c-0.698,0.465-1.28,0.814-1.978,1.28c-0.349,0.232-0.814,0.465-1.164,0.698c-0.698,0.466-1.396,0.931-2.094,1.396
			c-0.349,0.232-0.582,0.465-0.931,0.698c-1.047,0.698-1.978,1.396-2.909,2.095c-0.116,0.116-0.233,0.116-0.233,0.232
			c-0.814,0.698-1.745,1.28-2.56,1.978c-0.349,0.233-0.582,0.465-0.931,0.698c-0.582,0.465-1.28,1.047-1.862,1.512
			c-0.116,0.117-0.232,0.233-0.349,0.349c-0.233,0.117-0.349,0.349-0.582,0.465c-0.698,0.582-1.28,1.164-1.978,1.746
			c-0.349,0.232-0.582,0.582-0.931,0.814c-0.698,0.698-1.513,1.396-2.21,2.094c-0.117,0.116-0.233,0.232-0.466,0.349l-0.116,0.116
			c-0.232,0.233-0.465,0.465-0.698,0.698c-0.465,0.465-1.047,1.047-1.512,1.512c-0.233,0.233-0.582,0.582-0.814,0.814
			c-0.349,0.349-0.582,0.698-0.931,0.931c-0.116,0.116-0.116,0.232-0.232,0.232c-0.931,1.047-1.862,2.094-2.792,3.142l-0.116,0.116
			c-0.582,0.698-1.164,1.396-1.745,2.094c-0.349,0.349-0.698,0.814-0.931,1.164c-0.116,0.233-0.349,0.349-0.465,0.582
			c-0.465,0.582-0.931,1.28-1.513,1.862c-0.116,0.233-0.349,0.465-0.465,0.698c-0.116,0.116-0.232,0.232-0.349,0.465
			c-0.465,0.582-0.931,1.164-1.396,1.861c-0.233,0.233-0.349,0.582-0.582,0.814c-0.117,0.117-0.117,0.233-0.233,0.233
			c-0.465,0.698-0.931,1.28-1.396,1.978c-0.233,0.232-0.349,0.582-0.582,0.814l-0.116,0.116c-0.582,0.931-1.164,1.862-1.745,2.676
			c-0.117,0.116-0.117,0.232-0.233,0.232l0,0c-0.698,1.047-1.28,2.094-1.978,3.142c0,0,0,0.116-0.116,0.116
			c-0.116,0.233-0.349,0.582-0.465,0.814c-0.465,0.698-0.931,1.513-1.28,2.211c0,0.116-0.117,0.116-0.117,0.232
			c-0.232,0.349-0.349,0.698-0.582,0.931c-0.349,0.698-0.814,1.396-1.164,2.21c-0.116,0.116-0.116,0.232-0.232,0.465
			c-0.117,0.349-0.349,0.582-0.466,0.931c-0.349,0.698-0.814,1.513-1.163,2.211c-0.117,0.232-0.233,0.465-0.349,0.582
			c-0.117,0.233-0.233,0.582-0.349,0.814c-0.465,0.814-0.814,1.629-1.164,2.443c-0.116,0.233-0.233,0.582-0.465,0.814
			c-0.116,0.233-0.116,0.349-0.233,0.582c-0.465,1.047-1.047,2.095-1.512,3.142c-0.117,0.233-0.233,0.465-0.349,0.698
			c0,0,0,0.116-0.117,0.116c-0.698,1.396-1.28,2.909-1.978,4.421c0,0.116-0.117,0.233-0.117,0.349
			c-0.349,0.931-0.814,1.861-1.164,2.792c0,0.116-0.116,0.232-0.116,0.349c-0.349,0.814-0.698,1.629-0.931,2.443
			c-0.116,0.117-0.116,0.349-0.233,0.466c-0.582,1.512-1.163,3.025-1.745,4.654l30.367,16.638c0.582-1.513,1.164-3.142,1.746-4.654
			c0.349-1.047,0.814-1.978,1.163-2.909c0-0.116,0.117-0.232,0.117-0.232c0.465-1.047,0.931-2.095,1.28-3.142
			c0.582-1.513,1.28-2.909,1.978-4.421c0.116-0.349,0.232-0.582,0.349-0.931c0.465-1.047,0.931-2.094,1.512-3.142
			c0.233-0.465,0.465-0.931,0.698-1.396c0.349-0.814,0.814-1.629,1.164-2.443c0.232-0.465,0.465-0.931,0.698-1.396
			c0.349-0.698,0.814-1.512,1.163-2.21c0.233-0.465,0.466-0.931,0.698-1.396c0.349-0.698,0.814-1.396,1.164-2.211
			c0.233-0.465,0.465-0.814,0.698-1.28c0.465-0.814,0.931-1.513,1.28-2.21c0.232-0.349,0.349-0.698,0.582-0.931
			c0.582-1.047,1.28-2.094,1.978-3.141c0.116-0.117,0.116-0.233,0.233-0.233c0.582-0.931,1.164-1.861,1.745-2.676
			c0.233-0.349,0.465-0.698,0.698-0.931c0.465-0.698,0.931-1.28,1.396-1.978c0.233-0.349,0.465-0.698,0.814-1.047
			c0.465-0.582,0.931-1.28,1.396-1.862c0.233-0.349,0.582-0.698,0.814-1.047c0.466-0.582,0.931-1.28,1.513-1.862
			c0.465-0.582,0.931-1.164,1.396-1.745c0.582-0.698,1.28-1.513,1.861-2.21c0.931-1.047,1.862-2.095,2.792-3.142
			c0.349-0.465,0.814-0.814,1.164-1.28c0.232-0.233,0.582-0.582,0.814-0.814c0.465-0.465,1.047-1.047,1.512-1.513
			c0.233-0.233,0.466-0.465,0.698-0.698c0.233-0.116,0.349-0.349,0.582-0.465c0.698-0.698,1.512-1.396,2.21-2.094
			c0.349-0.233,0.582-0.582,0.931-0.814c0.698-0.582,1.28-1.164,1.978-1.745c0.349-0.233,0.698-0.582,0.931-0.814
			c0.582-0.465,1.28-1.047,1.862-1.513c0.349-0.232,0.582-0.465,0.931-0.698c0.814-0.698,1.746-1.28,2.56-1.978
			c0.117-0.117,0.233-0.117,0.233-0.233c0.931-0.698,1.978-1.396,2.909-2.094c0.349-0.233,0.582-0.465,0.931-0.698
			c0.698-0.465,1.396-0.931,2.095-1.396c0.349-0.233,0.814-0.465,1.163-0.698c0.698-0.465,1.28-0.814,1.978-1.28
			c0.465-0.233,0.814-0.465,1.28-0.814c0.698-0.349,1.396-0.814,1.978-1.164c0.466-0.232,0.814-0.465,1.28-0.698
			c0.698-0.465,1.513-0.814,2.21-1.28c0.35-0.232,0.698-0.349,1.048-0.582c1.163-0.582,2.21-1.164,3.374-1.745
			c0.698-0.349,1.396-0.698,2.094-1.047c0.582-0.349,1.164-0.582,1.862-0.814C309.49,249.748,309.606,249.748,309.84,249.632z"/>
		<g>
			<path fill="#F7F7F8" d="M428.517,285.352c1.396,11.751-1.629,24.317-8.959,37.348c-6.283,10.355-13.031,17.569-22.921,24.666
				c-2.443,1.396-94.709,48.634-147.066,75.279c-1.396,0.697-2.909,1.512-4.188,2.21c-16.057,8.261-25.481,12.915-27.808,14.078
				c-6.399,3.142-39.21,10.821-40.374-27.923c-0.349-9.541,1.047-13.846,2.443-18.035c0.349-0.931,0.582-1.862,0.931-2.792
				c6.632-15.94,15.358-32.345,34.44-44.679c1.28-0.814,3.258-1.978,5.584-3.141c6.632-3.374,12.798-5.701,14.079-5.352l0.698,0.232
				l0.465-1.163c7.912-21.292,17.22-38.279,28.273-51.66s24.666-23.968,41.537-32.578c0.697-0.349,1.396-0.698,2.094-1.047
				c25.597-12.566,40.024-6.399,50.729,1.396c2.443-1.629,4.305-2.792,6.167-3.839c6.98-3.607,15.707-3.839,21.059-0.582
				c10.239,6.167,8.145,22.921,8.145,23.153l-0.116,1.047l0.814-0.349C394.658,271.389,425.491,260.569,428.517,285.352z
				 M392.564,341.315c15.125-7.679,27.342-27.458,27.226-44.097c0-5.352-1.396-10.006-3.84-13.38
				c-0.581-0.814-1.279-1.513-1.978-2.211c-4.305-4.654-11.984-5.119-20.478-1.047l-11.286,4.538
				c6.399-19.082,1.745-25.248,0.35-26.528c-3.724-4.654-10.123-5.236-17.104-1.745c-0.582,0.349-1.28,0.698-1.862,1.047
				c-3.024,1.862-5.934,4.305-8.493,7.214c-10.82-12.798-31.065-13.729-53.056-2.56c-31.415,16.056-57.477,52.241-59.92,83.074
				c-1.862-0.117-3.84-0.117-5.934,0.232c-4.421,0.582-9.308,2.211-14.195,4.654c-12.682,6.399-24.201,18.034-30.134,30.251
				c-0.349,0.931-0.465,1.28-0.582,1.629c-0.116,0.349-0.232,0.814-0.465,1.164c-3.374,8.028-5.119,16.172-5.119,23.502
				c0.116,16.987,9.89,27.227,24.317,25.481C214.2,432.068,391.518,341.897,392.564,341.315"/>
		</g>
		<path fill="#E2E2E2" d="M223.042,340.966c0.814-0.349,1.629-0.698,2.327-1.047c0.116,0,0.232-0.116,0.349-0.116
			c0.349-0.117,0.698-0.349,1.047-0.465c0.117,0,0.233-0.117,0.349-0.117c0.465-0.232,0.814-0.349,1.28-0.582
			c0.117,0,0.117,0,0.233-0.116c0.349-0.117,0.698-0.233,1.047-0.349c0.117,0,0.233-0.117,0.349-0.117
			c0.349-0.116,0.582-0.232,0.931-0.349c0.116,0,0.116,0,0.232-0.117c0.233-0.116,0.465-0.116,0.814-0.232c0,0,0,0,0.116,0
			c0.233-0.117,0.465-0.117,0.698-0.233c0.116,0,0.116,0,0.233,0c0.116,0,0.349-0.116,0.465-0.116s0.349,0,0.465-0.116l0,0
			c0.116,0,0.232,0,0.349,0l0,0c0.116,0,0.232,0,0.232,0l-30.6-16.522l0,0l0,0c0,0,0,0-0.117,0c0,0,0,0-0.116,0c0,0,0,0-0.116,0l0,0
			l0,0h-0.117c-0.116,0-0.116,0-0.232,0l0,0l0,0c-0.117,0-0.233,0-0.349,0c0,0,0,0-0.116,0c-0.117,0-0.349,0.116-0.465,0.116h-0.117
			l0,0c-0.232,0.117-0.465,0.117-0.698,0.233l0,0c-0.232,0.116-0.465,0.116-0.814,0.232l0,0h-0.117
			c-0.232,0.117-0.582,0.233-0.931,0.349c-0.116,0-0.233,0.117-0.349,0.117c-0.349,0.116-0.698,0.232-1.047,0.349
			c-0.117,0-0.117,0-0.233,0.117c-0.465,0.116-0.814,0.349-1.28,0.582c-0.116,0-0.233,0.116-0.349,0.116
			c-0.349,0.117-0.698,0.349-1.047,0.466c-0.116,0-0.116,0.116-0.232,0.116h-0.116c-0.698,0.349-1.513,0.698-2.327,1.047
			c0,0-0.116,0-0.116,0.117c-0.814,0.465-1.746,0.814-2.56,1.28c-2.21,1.164-4.188,2.21-5.584,3.142
			c-0.698,0.465-1.396,0.931-1.978,1.396c-0.233,0.116-0.349,0.233-0.582,0.465c-0.465,0.349-0.931,0.698-1.396,0.931
			c-0.233,0.117-0.465,0.349-0.582,0.466c-0.466,0.349-0.931,0.698-1.396,1.047c-0.116,0.116-0.349,0.233-0.465,0.349
			c-0.582,0.465-1.164,0.931-1.745,1.396c0,0,0,0-0.117,0c-0.116,0.117-0.116,0.117-0.232,0.233
			c-0.465,0.465-1.047,0.931-1.513,1.28c-0.232,0.116-0.349,0.349-0.465,0.465c-0.465,0.465-0.931,0.814-1.396,1.28
			c-0.117,0.117-0.233,0.117-0.233,0.233c0,0,0,0-0.116,0.116c-0.814,0.814-1.629,1.629-2.327,2.443l-0.116,0.116
			c0,0,0,0.117-0.116,0.117c-0.582,0.698-1.164,1.28-1.746,1.978c0,0.117-0.116,0.117-0.116,0.233
			c-0.116,0.116-0.116,0.116-0.233,0.233c-0.465,0.582-0.931,1.163-1.512,1.745c0,0,0,0.116-0.117,0.116l0,0
			c-0.465,0.582-0.931,1.164-1.396,1.745c0,0.117-0.116,0.117-0.116,0.233c-0.117,0.116-0.117,0.233-0.233,0.349
			c-0.349,0.465-0.582,0.814-0.931,1.28c-0.116,0.116-0.116,0.233-0.233,0.349c0,0.116-0.116,0.116-0.116,0.232
			c-0.349,0.582-0.814,1.164-1.164,1.746l0,0c0,0,0,0.116-0.116,0.116c-0.349,0.582-0.698,1.047-1.047,1.629
			c0,0.116-0.116,0.116-0.116,0.233c-0.116,0.116-0.116,0.232-0.233,0.349c-0.232,0.466-0.582,0.931-0.814,1.396
			c-0.116,0.116-0.116,0.232-0.232,0.349l-0.116,0.116c-0.349,0.582-0.698,1.164-1.047,1.862c0,0,0,0,0,0.116
			s-0.116,0.116-0.116,0.232c-0.349,0.582-0.582,1.164-0.931,1.746c0,0.116-0.117,0.232-0.117,0.232
			c0,0.117-0.116,0.117-0.116,0.233c-0.349,0.698-0.698,1.396-1.047,2.094c0,0,0,0.116-0.116,0.116c0,0.117-0.116,0.117-0.116,0.233
			c-0.465,0.814-0.814,1.629-1.164,2.443l0,0c0,0,0,0,0,0.116c-0.465,1.047-0.931,1.978-1.396,3.025c0,0,0,0,0,0.117v0.116
			c-0.582,1.28-1.164,2.56-1.629,3.839c0,0,0,0,0,0.117v0.116c-0.233,0.582-0.466,1.047-0.698,1.629
			c-0.116,0.465-0.233,0.931-0.349,1.396s-0.349,1.047-0.465,1.513c-0.116,0.582-0.349,1.047-0.465,1.629l0,0c0,0,0,0,0,0.116
			c-0.117,0.465-0.349,0.931-0.465,1.513l0,0l0,0c-0.117,0.349-0.233,0.698-0.233,1.047v0.116v0.116
			c-0.116,0.349-0.116,0.582-0.233,0.931c0,0.117,0,0.117,0,0.233c0,0,0,0,0,0.116c-0.116,0.465-0.116,0.814-0.232,1.28v0.117
			c0,0.116,0,0.349-0.116,0.465c0,0.116,0,0.232,0,0.349c0,0.232-0.117,0.582-0.117,0.814c0,0.116,0,0.116,0,0.232l0,0v0.117
			c0,0.349-0.116,0.814-0.116,1.163c0,0.117,0,0.349,0,0.466c0,0.349,0,0.698-0.116,1.047c0,0.116,0,0.233,0,0.233
			c0,0.116,0,0.232,0,0.349c0,0.232,0,0.349,0,0.582s0,0.582,0,0.814s0,0.349,0,0.582c0,0.349,0,0.698,0,1.047
			c0,0.116,0,0.349,0,0.465c0,0.582,0,1.047,0,1.629c0.465,15.707,6.167,23.852,13.264,27.691l30.367,16.638
			c-6.981-3.839-12.682-11.983-13.264-27.69c0-0.582,0-1.048,0-1.629c0-0.117,0-0.35,0-0.466c0-0.349,0-0.698,0-1.048
			c0-0.232,0-0.349,0-0.581c0-0.349,0-0.582,0-0.814c0-0.233,0-0.349,0-0.582c0-0.232,0-0.466,0-0.698c0-0.349,0-0.697,0.116-1.047
			c0-0.116,0-0.35,0-0.465c0-0.466,0.117-0.814,0.117-1.164c0-0.116,0-0.116,0-0.232c0-0.117,0-0.117,0-0.232
			c0-0.35,0.116-0.582,0.116-0.814c0-0.117,0-0.233,0-0.35c0-0.232,0.116-0.35,0.116-0.582c0.117-0.465,0.117-0.931,0.233-1.279
			c0-0.117,0-0.117,0-0.232c0.116-0.35,0.116-0.582,0.232-0.932c0-0.116,0-0.232,0.117-0.349c0.116-0.349,0.232-0.698,0.232-1.164
			l0,0c0.116-0.465,0.233-1.047,0.465-1.513v-0.116c0.117-0.582,0.349-1.047,0.465-1.629c0.117-0.465,0.349-1.047,0.466-1.513
			v-0.116c0.116-0.349,0.232-0.814,0.349-1.28c0.233-0.582,0.466-1.047,0.698-1.629c0-0.116,0-0.116,0.116-0.233
			c0.582-1.28,1.047-2.56,1.629-3.839c0-0.116,0-0.116,0.117-0.233c0.465-1.047,0.931-1.978,1.396-3.025v-0.116
			c0.349-0.814,0.814-1.629,1.164-2.443c0.116-0.117,0.116-0.233,0.233-0.349c0.349-0.698,0.698-1.396,1.047-2.094
			c0.116-0.117,0.116-0.349,0.233-0.466c0.349-0.582,0.582-1.163,0.931-1.745c0.116-0.116,0.116-0.232,0.232-0.349
			c0.349-0.582,0.698-1.28,1.047-1.861c0.116-0.117,0.233-0.349,0.233-0.465c0.232-0.465,0.582-0.931,0.814-1.396
			c0.116-0.232,0.232-0.349,0.349-0.582c0.349-0.582,0.698-1.047,1.047-1.629l0.116-0.116c0.349-0.582,0.814-1.164,1.164-1.746
			c0.116-0.116,0.233-0.349,0.349-0.465c0.349-0.465,0.582-0.814,0.931-1.28c0.117-0.116,0.233-0.349,0.349-0.465
			c0.465-0.582,0.931-1.164,1.396-1.745l0.116-0.117c0.465-0.582,0.931-1.163,1.396-1.745c0.117-0.116,0.233-0.349,0.349-0.465
			c0.582-0.698,1.164-1.28,1.745-1.978c0.117-0.116,0.117-0.116,0.233-0.232c0.814-0.814,1.513-1.629,2.327-2.443
			c0.116-0.117,0.232-0.233,0.349-0.349c0.466-0.465,0.931-0.814,1.396-1.28c0.116-0.117,0.349-0.349,0.465-0.466
			c0.465-0.465,1.047-0.931,1.513-1.28c0.116-0.116,0.232-0.232,0.349-0.232c0.582-0.465,1.163-0.931,1.745-1.396
			c0.116-0.116,0.349-0.232,0.465-0.349c0.465-0.349,0.931-0.698,1.396-1.047c0.233-0.116,0.465-0.349,0.582-0.465
			c0.465-0.349,0.931-0.698,1.396-0.931c0.233-0.117,0.349-0.233,0.582-0.466c0.698-0.465,1.396-0.931,1.978-1.396
			c1.28-0.814,3.258-1.978,5.585-3.142c0.931-0.465,1.745-0.931,2.56-1.28C222.926,340.966,223.042,340.966,223.042,340.966z"/>
	</g>
	<g>
		<g enable-background="new    ">
			<g>
				<defs>
					<polygon id="SVGID_20_" points="342.65,525.265 343.232,323.165 540.91,389.368 540.328,591.468 					"/>
				</defs>
				<clipPath id="SVGID_21_">
					<use xlink:href="#SVGID_20_"  overflow="visible"/>
				</clipPath>
				<g clip-path="url(#SVGID_21_)">
					<path fill="#DB3500" d="M439.104,500.133c-5.236-1.745-10.821-0.232-15.126,4.771c-7.912,9.308-8.727,27.226-1.978,39.908
						c3.142,5.817,7.214,9.424,11.635,10.937c5.235,1.745,10.704,0.232,15.125-4.771c7.912-9.308,8.843-27.109,1.979-39.791
						C447.598,505.369,443.409,501.646,439.104,500.133"/>
					<path fill="#DB3500" d="M447.714,431.604c-25.364-8.494-52.008-1.513-72.951,22.455l16.173,30.135
						c13.612-15.358,30.716-21.525,48.518-17.453c1.629,0.35,3.142,0.814,4.771,1.396c15.823,5.353,30.251,18.616,40.955,37.931
						l18.849-22.224C488.902,456.386,468.773,438.7,447.714,431.604"/>
					<path fill="#DB3500" d="M454.579,360.397c-38.745-12.915-79.584-2.21-111.58,34.672l16.173,30.135
						c26.411-30.251,59.92-38.978,91.8-28.39c26.528,8.843,51.893,31.298,70.974,65.854l18.849-22.106
						C517.641,398.443,486.808,371.217,454.579,360.397"/>
				</g>
			</g>
		</g>
	</g>
	<g>
		<g>
			<polygon fill="#00C7DC" points="340.905,377.384 328.688,383.899 328.688,370.868 340.905,364.353 			"/>
			<polygon fill="#009AA9" points="329.27,383.899 305.651,372.497 305.651,359.466 329.27,370.868 			"/>
		</g>
		<g>
			<path fill="#F8E12E" d="M266.441,320.955C266.441,320.955,266.441,320.838,266.441,320.955L266.441,320.955
				C266.441,320.838,266.441,320.838,266.441,320.955z"/>
			<path fill="#F8E12E" d="M373.716,356.79c0-0.116-0.116-0.232-0.116-0.349c0-0.116-0.117-0.116-0.117-0.232
				c-0.349-0.814-0.697-1.629-1.279-2.56v-0.116c-0.116-0.232-0.232-0.465-0.466-0.698c-0.116-0.232-0.349-0.582-0.465-0.814
				c-0.116-0.116-0.116-0.232-0.233-0.349c-0.232-0.466-0.581-0.814-0.814-1.28c0,0,0,0,0-0.116
				c-2.792-3.956-6.632-8.028-11.983-12.217c-2.676-2.094-5.585-4.188-8.61-6.05c-3.142-1.978-6.516-3.956-10.238-5.701
				c0,0-0.116,0-0.116-0.117c-0.116-0.116-0.233-0.116-0.466-0.232c-0.465-0.233-1.047-0.465-1.513-0.698
				c-0.349-0.116-0.581-0.349-0.931-0.465c-0.349-0.116-0.698-0.349-1.047-0.465c-0.582-0.233-1.047-0.465-1.629-0.698
				c-0.116-0.116-0.35-0.116-0.466-0.233c-0.698-0.232-1.396-0.582-1.978-0.814c0,0-0.116,0-0.116-0.117
				c-0.116,0-0.116,0-0.233-0.116c-0.349-0.116-0.697-0.233-1.047-0.349c0,0-0.116,0-0.116-0.116
				c-0.349-0.116-0.582-0.233-0.814-0.349s-0.582-0.233-0.814-0.349c-0.116,0-0.116,0-0.232-0.116c-0.116,0-0.233-0.116-0.233-0.116
				l-0.116-0.117c0,0,0,0-0.116,0s-0.116,0-0.232-0.116l0,0l0,0c-0.698-0.233-1.28-0.465-1.745-0.582
				c-3.724-1.28-8.028-2.443-12.566-3.258c-10.238-2.094-19.546-2.676-27.342-2.56c-0.116,0-0.116,0-0.233,0
				c-0.232,0-0.465,0-0.698,0l0,0l0,0c-0.233,0-0.349,0-0.582,0c-0.698,0-1.28,0-1.861,0.117h-0.117l0,0c0,0,0,0-0.116,0h-0.116
				c-0.349,0-0.582,0-0.931,0c0,0,0,0-0.116,0c-0.349,0-0.582,0-0.931,0h-0.349l0,0l0,0h-0.349c-0.232,0-0.465,0-0.698,0
				c-0.116,0-0.116,0-0.116,0c-0.349,0-0.698,0-1.047,0.116c-0.814,0.116-1.28,0.116-1.978,0.233h-0.117l0,0l0,0
				c-0.116,0-0.232,0-0.232,0c-0.233,0-0.465,0.116-0.814,0.116c-0.233,0-0.465,0.116-0.698,0.116l0,0l0,0h-0.116h-0.349h-0.116
				h-0.117l-0.349,0.116h-0.233c-0.116,0-0.233,0-0.349,0.117l0,0l0,0c0,0,0,0-0.116,0l0,0h-0.116l0,0l0,0
				c-0.117,0-0.233,0.116-0.349,0.116c0,0,0,0-0.117,0c-0.116,0.116-0.232,0.116-0.349,0.116l0,0l0,0
				c-0.116,0.116-0.349,0.116-0.582,0.349c-0.116,0-0.116,0.116-0.232,0.116l0,0h-0.117l0,0l0,0l0,0c0,0,0,0-0.116,0
				c0,0-0.116,0-0.116,0.117l0,0l-0.117,0.116l0,0c0,0,0,0,0.117-0.116c0,0-0.117,0-0.117,0.116l0,0l0,0
				c-0.116,0-0.116,0.116-0.232,0.116l0.116-0.116c0,0-0.116,0-0.116,0.116l0,0l-0.117,0.116l0.117-0.116l0,0
				c0.116-0.116,0.232-0.116,0.232-0.232l0,0c0,0,0,0-0.116,0.116c0,0,0,0-0.116,0l0,0c-0.117,0.116-0.233,0.116-0.349,0.232
				c0.116,0,0.116-0.116,0.232-0.116L269,316.417l0,0c0,0,0,0.117-0.116,0.117c0,0,0,0-0.117,0.116l0,0c0,0,0,0-0.116,0.116
				c0,0,0,0.117-0.116,0.117l-0.116,0.116l0,0l0,0c0,0,0,0,0,0.116c0,0,0,0.116-0.117,0.116c-0.232,0.349-0.349,0.465-0.349,0.582
				l0,0l0,0l0,0l0,0l0,0l0,0l0,0l0,0l0,0l0,0l0,0l0,0l0,0l0,0l0,0l0,0l0,0l0,0l0,0l0,0l0,0l0,0v0.116v0.116
				c0,0.117-0.116,0.117-0.116,0.233l0,0c0,0.116,0,0.116-0.116,0.232c0,0,0,0,0,0.117c0,0.116-0.116,0.232-0.116,0.349l0,0
				c0,0.116,0,0.232-0.117,0.232l0,0l0,0c0,0,0,0,0,0.116v0.117c0,0.116,0,0.232,0,0.232v0.117l0,0l0,0v0.116c0,0,0,0,0-0.116v0.116
				c0,0,0,0,0,0.116v-0.116v0.116c0,0,0,0,0,0.116l0,0v0.233l0,0l0,0l0,0l0,0l0,0l0,0c0,0.116,0,0.116,0,0.233v0.116v0.116v0.116
				c0,0.117,0,0.117,0,0.233l0,0c0,0.116,0,0.116,0,0.233c-0.232-0.931-0.232-1.862-0.116-2.676l0,0c0,0.116,0,0.233,0,0.349v0.116
				c0,0.116,0,0.233,0,0.349l0,0c0,0.116,0,0.233,0,0.349c0-0.349,0-0.814,0.116-1.396c0.117-0.349,0.117-0.582,0.349-0.814
				c-0.116,0.233-0.232,0.466-0.232,0.814v-0.116c0,0,0,0,0,0.116l0,0c0,0,0,0,0,0.117l0,0l0,0v0.116
				c-0.349,1.629,0,3.258,0.698,4.654l0,0l0,0c0.117,0.117,0.117,0.233,0.233,0.466l0,0l0,0l0,0l0,0l0,0l0,0l0,0l0,0l0,0l0,0
				c0.116,0.116,0.116,0.232,0.232,0.349c0.117,0.233,0.233,0.466,0.349,0.698c0,0,0,0.116,0.117,0.116l0.116,0.233l0,0l0,0
				l0.116,0.233v0.116c0.116,0.349,0.349,0.582,0.582,0.931c0,0,0,0.116,0.116,0.116c0.116,0.117,0.116,0.233,0.232,0.349
				c7.563,12.798,17.22,23.038,27.226,31.065c1.396,1.164,2.677,2.094,3.491,2.792c1.279,0.931,2.676,1.861,3.839,2.676
				c0.117,0,0.117,0.117,0.233,0.117l0.116,0.116l0.349,0.233l0.116,0.116c0.814,0.582,1.629,1.047,2.327,1.513
				c1.164,0.814,2.443,1.512,3.956,2.327l0,0l0,0c0.116,0,0.116,0.117,0.232,0.117c0.117,0.116,0.233,0.116,0.35,0.232l0,0l0,0
				c1.629,0.931,2.56,1.396,4.072,2.094c0.116,0.117,0.349,0.233,0.581,0.349c6.981,3.491,13.729,6.05,20.013,7.679
				c19.896,5.352,32.229,0.814,36.767-7.563c0,0,0,0,0-0.116l0,0c0,0,0-0.116,0.116-0.116l0,0v-0.116c0,0,0,0,0-0.117l0,0
				c0-0.116,0.116-0.232,0.116-0.232c0.116-0.117,0.116-0.349,0.232-0.465c0,0,0,0,0-0.117
				C375.81,366.913,375.81,362.142,373.716,356.79z M266.558,319.791L266.558,319.791L266.558,319.791L266.558,319.791z"/>
			<path fill="#F8E12E" d="M266.674,319.674v-0.116l0,0l0,0l0,0c0-0.116,0-0.232,0.116-0.349c0,0,0,0,0,0.117l0,0l0,0
				c0,0,0,0,0,0.116v0.116C266.674,319.558,266.674,319.674,266.674,319.674L266.674,319.674L266.674,319.674z"/>
			<path fill="#F8E12E" d="M267.255,318.278l0.117-0.116l0,0l0,0l0,0c0.349-0.349,0.582-0.582,0.931-0.814
				c-0.116,0.116-0.349,0.232-0.465,0.349l0,0l0,0l0,0l-0.117,0.116l0.117-0.116c-0.117,0.116-0.233,0.232-0.349,0.349
				c0-0.116,0.116-0.116,0.232-0.232c0,0-0.116,0.116-0.232,0.232l0,0L267.255,318.278L267.255,318.278L267.255,318.278
				L267.255,318.278z"/>
			<path fill="#F8E12E" d="M266.79,319.093c0-0.116,0.116-0.233,0.116-0.233l0,0v-0.116c0,0,0,0,0,0.116
				c0-0.116,0.117-0.116,0.117-0.232c0,0,0,0.116-0.117,0.116l0.117-0.116c0,0,0,0,0,0.116c0-0.116,0.116-0.232,0.232-0.349
				l-0.116,0.117c0,0,0,0,0-0.117l-0.116,0.117l0,0l0,0c0,0-0.117,0.116-0.117,0.232l0,0v0.116
				C266.906,318.86,266.906,318.86,266.79,319.093c0-0.116,0.116-0.116,0.116-0.233C266.906,318.977,266.79,318.977,266.79,319.093z
				"/>
			<path fill="#F8E12E" d="M266.79,319.209c0,0,0-0.116,0.116-0.116C266.79,319.093,266.79,319.093,266.79,319.209
				c0-0.116,0.116-0.232,0.116-0.232L266.79,319.209L266.79,319.209L266.79,319.209L266.79,319.209z"/>
			<path fill="#F8E12E" d="M266.906,318.977c0.117-0.349,0.349-0.698,0.698-1.047C267.255,318.278,267.023,318.627,266.906,318.977z
				"/>
			<path fill="#F8E12E" d="M266.79,319.326L266.79,319.326L266.79,319.326z"/>
			<path fill="#F8E12E" d="M268.652,316.999l-0.233,0.116c0.116-0.116,0.349-0.232,0.465-0.349L268.652,316.999z"/>
			<path fill="#F8E12E" d="M267.837,317.58c0.116-0.116,0.232-0.232,0.349-0.232C268.07,317.464,267.954,317.464,267.837,317.58z"/>
			<path fill="#F8E12E" d="M268.187,317.348L268.187,317.348L268.187,317.348L268.187,317.348z"/>
			<path fill="#F8E12E" d="M267.604,317.813L267.604,317.813L267.604,317.813z"/>
		</g>
		<g>
			<path fill="#FF9000" d="M266.79,319.674L266.79,319.674L266.79,319.674L266.79,319.674z"/>
			<path fill="#FF9000" d="M372.203,365.982c0-0.117-0.116-0.233-0.116-0.233s0-0.116-0.116-0.116
				c-0.233-0.582-0.582-1.164-0.932-1.745c0,0,0,0,0-0.117c-0.116-0.232-0.232-0.349-0.349-0.582
				c-0.116-0.233-0.232-0.465-0.349-0.582c-0.117-0.116-0.117-0.232-0.233-0.349c-0.232-0.349-0.465-0.582-0.698-0.931l0,0
				c-2.326-3.025-5.817-6.283-10.704-10.006c-2.443-1.862-5.235-3.84-8.027-5.585c-2.909-1.862-6.167-3.839-9.773-5.701
				c0,0-0.116,0-0.116-0.116c-0.117-0.116-0.233-0.116-0.466-0.233c-0.466-0.232-0.931-0.582-1.513-0.814
				c-0.349-0.116-0.582-0.349-0.931-0.465c-0.349-0.232-0.698-0.349-1.047-0.582c-0.582-0.233-1.048-0.582-1.629-0.814
				c-0.116-0.116-0.35-0.116-0.466-0.233c-0.698-0.349-1.279-0.698-1.978-0.931c0,0-0.116,0-0.116-0.116
				c-0.117,0-0.117,0-0.233-0.117c-0.349-0.116-0.698-0.349-0.931-0.465c0,0-0.116,0-0.116-0.116
				c-0.232-0.116-0.582-0.233-0.814-0.349s-0.582-0.232-0.814-0.349c-0.116,0-0.116-0.116-0.232-0.116s-0.233-0.116-0.233-0.116
				l-0.116-0.117c0,0,0,0-0.116,0s-0.116-0.116-0.232-0.116l0,0l0,0c-0.582-0.232-1.164-0.582-1.745-0.814
				c-3.724-1.629-7.912-3.258-12.45-4.887c-10.122-3.607-19.663-6.167-27.691-7.912c-0.116,0-0.116,0-0.232,0
				c-0.233,0-0.465-0.117-0.698-0.117l0,0l0,0c-0.233,0-0.349-0.116-0.582-0.116c-0.698-0.116-1.28-0.232-1.978-0.349h-0.117l0,0
				c0,0,0,0-0.116,0h-0.116c-0.349-0.116-0.698-0.116-1.047-0.232c0,0,0,0-0.116,0c-0.349-0.116-0.582-0.116-0.931-0.116
				l-0.349-0.117l0,0l0,0l-0.349-0.116c-0.233,0-0.465-0.116-0.814-0.116c-0.116,0-0.116,0-0.233,0
				c-0.349-0.117-0.698-0.117-1.047-0.233c-0.814-0.116-1.28-0.232-2.094-0.349h-0.117l0,0l0,0c-0.116,0-0.232,0-0.349,0
				c-0.233,0-0.582-0.116-0.814-0.116c-0.233,0-0.466-0.116-0.698-0.116l0,0l0,0h-0.116h-0.349h-0.117h-0.116h-0.349h-0.232
				c-0.117,0-0.233,0-0.349,0l0,0l0,0c0,0,0,0-0.117,0l0,0h-0.116l0,0l0,0c-0.116,0-0.232,0-0.465,0c0,0,0,0-0.116,0
				c-0.233,0-0.349,0-0.465,0h-0.117l0,0c-0.232,0-0.349,0-0.698,0c-0.117,0-0.117,0-0.233,0l0,0h-0.116l0,0l0,0l0,0h-0.117h-0.116
				l0,0h-0.116l0,0h0.116h-0.116l0,0l0,0c-0.116,0-0.233,0-0.233,0h0.117h-0.117l0,0h-0.116h0.116l0,0c0.117,0,0.233,0,0.349,0l0,0
				h-0.116c0,0,0,0-0.116,0l0,0c-0.117,0-0.233,0-0.349,0.116c0.116,0,0.116,0,0.232,0h-0.116l0,0h-0.116h-0.117l0,0
				c0,0,0,0-0.116,0h-0.116h-0.117l0,0l0,0l0,0c0,0,0,0-0.116,0c-0.232,0.116-0.349,0.233-0.465,0.233l0,0l0,0l0,0l0,0l0,0l0,0l0,0
				l0,0l0,0l0,0l0,0l0,0l0,0l0,0l0,0l0,0l0,0l0,0l0,0l0,0l0,0l0,0c0,0,0,0,0,0.116c0,0,0,0-0.116,0.116l-0.117,0.116l0,0
				l-0.116,0.117l0,0l-0.116,0.116l0,0l-0.116,0.116l0,0l0,0l0,0c0,0,0,0,0,0.116c0,0,0,0.117-0.117,0.117l0,0l0,0l0,0v0.116l0,0
				v0.116l0,0c0,0,0,0,0-0.116v0.116l0,0l0,0v0.117l0,0l0,0l0,0l0,0l0,0l0,0v0.116v0.116l0,0c0,0,0,0,0,0.116v0.117l0,0v0.116
				c-0.116-0.582,0-1.164,0.233-1.629l0,0c0,0-0.116,0.116-0.116,0.233c0,0,0,0,0,0.116s0,0.116-0.117,0.232l0,0
				c0,0.117,0,0.117,0,0.233c0-0.233,0.117-0.465,0.233-0.814c0.116-0.116,0.232-0.349,0.465-0.465
				c-0.116,0.116-0.233,0.232-0.349,0.349c0,0,0,0,0-0.117l0,0l0,0l0,0l0,0l0,0l0,0c-0.582,0.814-0.349,1.978,0.116,2.909l0,0l0,0
				c0,0.116,0.117,0.232,0.117,0.349l0,0l0,0l0,0l0,0l0,0l0,0l0,0l0,0l0,0l0,0c0,0.117,0.116,0.233,0.232,0.349
				c0.117,0.117,0.233,0.349,0.349,0.465v0.117l0.116,0.232l0,0l0,0l0.117,0.117c0,0,0,0,0,0.116
				c0.116,0.232,0.232,0.465,0.465,0.698c0,0,0,0,0,0.116c0.116,0.116,0.116,0.116,0.116,0.232
				c6.05,9.308,14.66,17.686,23.968,24.783c1.28,1.047,2.443,1.862,3.258,2.443c1.164,0.931,2.443,1.745,3.607,2.443
				c0.116,0,0.116,0.116,0.116,0.116s0.116,0,0.116,0.117l0.232,0.232l0.116,0.116c0.815,0.466,1.513,1.047,2.211,1.396
				c1.164,0.698,2.327,1.396,3.724,2.327l0,0l0,0c0.116,0,0.116,0.116,0.232,0.116c0.116,0.116,0.232,0.116,0.349,0.232l0,0l0,0
				c1.629,0.931,2.443,1.513,3.84,2.211c0.116,0.116,0.35,0.232,0.582,0.349c6.632,3.723,13.264,6.748,19.547,9.191
				c19.779,7.795,33.043,8.028,38.744,4.072l0,0l0,0c0,0,0,0,0.116,0l0,0c0,0,0,0,0.116,0l0,0l0,0c0.116,0,0.116-0.116,0.233-0.116
				c0.116-0.117,0.232-0.117,0.232-0.233l0,0C372.901,372.497,373.6,369.588,372.203,365.982z M267.023,319.093L267.023,319.093
				L267.023,319.093L267.023,319.093z"/>
			<path fill="#FF9000" d="M267.139,318.977L267.139,318.977L267.139,318.977C267.139,318.977,267.139,318.86,267.139,318.977
				C267.139,318.86,267.139,318.86,267.139,318.977c0.116-0.117,0.116-0.233,0.233-0.233l0,0l0,0l0,0l0,0v0.116
				C267.139,318.977,267.139,318.977,267.139,318.977L267.139,318.977L267.139,318.977z"/>
			<path fill="#FF9000" d="M267.954,318.278c0,0,0.116,0,0.116-0.116l0,0l0,0l0,0c0.349-0.117,0.698-0.233,1.047-0.349
				c-0.116,0-0.349,0.116-0.465,0.116l0,0l0,0l0,0c-0.117,0-0.117,0-0.117,0h0.117c-0.117,0-0.233,0.116-0.349,0.116
				c0.116,0,0.116,0,0.232-0.116c0,0-0.116,0-0.232,0.116l0,0L267.954,318.278L267.954,318.278
				C267.837,318.278,267.954,318.278,267.954,318.278L267.954,318.278z"/>
			<path fill="#FF9000" d="M267.372,318.744l0.116-0.116l0,0c0,0,0,0,0.116,0l0,0l0.116-0.116c0,0,0,0-0.116,0
				c0,0,0.116,0,0.116-0.117l0,0c0.117,0,0.117-0.116,0.233-0.116h-0.116l0,0h-0.117l0,0l0,0c0,0-0.116,0-0.116,0.116l0,0h-0.116
				C267.488,318.627,267.488,318.627,267.372,318.744C267.488,318.627,267.488,318.627,267.372,318.744
				C267.488,318.627,267.372,318.627,267.372,318.744z"/>
			<path fill="#FF9000" d="M267.255,318.744C267.255,318.744,267.372,318.744,267.255,318.744
				C267.372,318.744,267.372,318.744,267.255,318.744c0.117-0.116,0.117-0.116,0.117-0.116L267.255,318.744L267.255,318.744
				L267.255,318.744L267.255,318.744z"/>
			<path fill="#FF9000" d="M267.488,318.627c0.232-0.116,0.465-0.349,0.814-0.465C267.954,318.395,267.604,318.511,267.488,318.627z
				"/>
			<path fill="#FF9000" d="M267.255,318.744L267.255,318.744L267.255,318.744z"/>
			<path fill="#FF9000" d="M269.466,317.929h-0.233c0.116,0,0.349-0.116,0.582-0.116L269.466,317.929z"/>
			<path fill="#FF9000" d="M268.652,318.045c0.116,0,0.232-0.116,0.349-0.116C268.884,318.045,268.768,318.045,268.652,318.045z"/>
			<path fill="#FF9000" d="M269.001,317.929L269.001,317.929L269.001,317.929L269.001,317.929z"/>
			<path fill="#FF9000" d="M268.419,318.162L268.419,318.162L268.419,318.162z"/>
		</g>
		<g>
			<path fill="#F8E12E" d="M267.139,319.558L267.139,319.558L267.139,319.558L267.139,319.558z"/>
			<path fill="#F8E12E" d="M369.76,371.799c0,0,0-0.117-0.116-0.117c0,0,0,0,0-0.116c-0.233-0.349-0.466-0.582-0.698-1.047l0,0
				c-0.116-0.117-0.232-0.233-0.232-0.349c-0.117-0.117-0.233-0.233-0.35-0.349c0-0.116-0.116-0.116-0.232-0.233
				c-0.232-0.232-0.35-0.349-0.582-0.582l0,0c-1.978-1.862-5.119-4.305-9.657-7.33c-2.326-1.513-4.887-3.142-7.562-4.771
				c-2.792-1.745-5.934-3.49-9.308-5.352c0,0-0.116,0-0.116-0.116c-0.117-0.116-0.233-0.116-0.35-0.233
				c-0.465-0.232-0.931-0.465-1.396-0.814c-0.349-0.116-0.581-0.349-0.931-0.465c-0.349-0.232-0.697-0.349-1.047-0.582
				c-0.465-0.233-1.047-0.582-1.513-0.814c-0.116-0.116-0.349-0.116-0.465-0.233c-0.698-0.349-1.28-0.698-1.862-1.047
				c0,0-0.116,0-0.116-0.117l-0.116-0.116c-0.349-0.232-0.698-0.349-0.931-0.465c0,0-0.116,0-0.116-0.116
				c-0.232-0.117-0.582-0.233-0.814-0.465c-0.232-0.117-0.582-0.233-0.814-0.349c-0.116,0-0.116-0.117-0.232-0.117
				c-0.117,0-0.233-0.116-0.233-0.116l-0.116-0.116c0,0,0,0-0.116,0s-0.116-0.116-0.232-0.116l0,0l0,0
				c-0.582-0.349-1.164-0.582-1.629-0.814c-3.607-1.862-7.68-3.84-12.217-5.934c-10.007-4.77-19.547-8.842-27.575-12.1
				c-0.116,0-0.116-0.117-0.233-0.117c-0.232-0.116-0.465-0.232-0.698-0.349l0,0l0,0c-0.233-0.116-0.465-0.116-0.582-0.232
				c-0.698-0.233-1.396-0.582-1.978-0.814c0,0-0.117,0-0.117-0.116l0,0c0,0,0,0-0.116,0h-0.116
				c-0.349-0.117-0.698-0.233-1.047-0.349c0,0,0,0-0.116,0c-0.349-0.117-0.582-0.233-0.931-0.349l-0.349-0.116l0,0l0,0l-0.349-0.117
				c-0.233-0.116-0.465-0.232-0.814-0.349c-0.117,0-0.117,0-0.233-0.116c-0.349-0.116-0.814-0.349-1.047-0.465
				c-0.814-0.349-1.28-0.465-2.094-0.814h-0.117l0,0l0,0c-0.116,0-0.232-0.116-0.349-0.116c-0.232-0.116-0.582-0.233-0.814-0.349
				c-0.232-0.116-0.465-0.233-0.698-0.233l0,0l0,0h-0.117l-0.349-0.116h-0.117h-0.116l-0.349-0.116l-0.232-0.116
				c-0.117,0-0.233-0.117-0.349-0.117l0,0l0,0c0,0,0,0-0.117,0l0,0h-0.116l0,0l0,0c-0.116,0-0.349-0.116-0.465-0.116
				c0,0,0,0-0.116,0c-0.233-0.116-0.349-0.116-0.466-0.116h-0.116l0,0c-0.232,0-0.349-0.117-0.698-0.233
				c-0.116,0-0.232,0-0.232-0.116l0,0h-0.116l0,0l0,0l0,0h-0.117h-0.116l0,0h-0.116l0,0h0.116h-0.116l0,0l0,0
				c-0.117,0-0.233,0-0.233-0.116h0.116h-0.116l0,0h-0.116h0.116l0,0c0.116,0,0.233,0,0.349,0.116l0,0h-0.116c0,0,0,0-0.117,0l0,0
				c-0.116,0-0.232,0-0.349-0.116c0.117,0,0.117,0,0.233,0h-0.116l0,0h-0.117h-0.116l0,0h-0.116h-0.116h-0.117l0,0l0,0l0,0
				c0,0,0,0-0.116,0c-0.233,0-0.465,0-0.465,0l0,0l0,0l0,0l0,0l0,0l0,0l0,0l0,0l0,0l0,0l0,0l0,0l0,0l0,0l0,0l0,0l0,0l0,0l0,0l0,0
				l0,0l0,0c0,0,0,0-0.116,0c0,0,0,0-0.117,0H269l0,0h-0.116l0,0h-0.117l0,0h-0.116l0,0l0,0l0,0l0,0h-0.116l0,0l0,0l0,0l0,0l0,0l0,0
				l0,0l0,0l0,0l0,0l0,0l0,0l0,0l0,0l0,0l0,0l0,0l0,0l0,0l0,0l0,0l0,0l0,0l0,0l0,0c0-0.233,0.116-0.466,0.465-0.582l0,0h-0.116l0,0
				c0,0-0.117,0-0.117,0.116l0,0c0,0-0.116,0-0.116,0.117c0.116-0.117,0.233-0.117,0.349-0.233c0.116,0,0.349,0,0.465,0
				c-0.233,0-0.349,0-0.465,0l0,0l0,0l0,0l0,0l0,0l0,0l0,0c-0.814,0.116-0.698,0.582-0.233,1.164l0,0l0,0
				c0,0,0.117,0.116,0.117,0.233l0,0l0,0l0,0l0,0l0,0l0,0l0,0l0,0l0,0l0,0l0.116,0.116c0.116,0.116,0.116,0.232,0.232,0.349l0,0
				l0.117,0.116l0,0l0,0l0.116,0.116l0,0c0.116,0.117,0.233,0.233,0.349,0.349l0,0l0.116,0.116
				c5.003,5.585,12.682,11.519,21.292,17.336c1.28,0.814,2.327,1.513,3.025,1.978c1.164,0.698,2.327,1.512,3.374,2.094l0.117,0.116
				c0,0,0.116,0,0.116,0.116l0.232,0.117c0,0,0.116,0,0.116,0.116c0.698,0.465,1.396,0.814,2.095,1.28
				c1.047,0.698,2.21,1.28,3.49,2.094l0,0l0,0c0.116,0,0.116,0.116,0.232,0.116c0.116,0.117,0.233,0.117,0.35,0.233l0,0l0,0
				c1.513,0.931,2.327,1.396,3.723,2.094c0.116,0.116,0.35,0.233,0.582,0.349c6.399,3.607,12.799,6.981,18.965,9.89
				c19.314,9.424,33.044,13.846,39.559,14.195c0,0,0,0,0.117,0l0,0c0,0,0,0,0.116,0l0,0c0,0,0,0,0.116,0c0,0,0,0,0.116,0l0,0
				c0.116,0,0.116,0,0.232,0c0.117,0,0.233,0,0.35,0l0,0C369.644,374.475,370.807,373.661,369.76,371.799z M267.488,319.442
				L267.488,319.442L267.488,319.442L267.488,319.442z"/>
			<path fill="#F8E12E" d="M267.488,319.442C267.604,319.442,267.604,319.442,267.488,319.442
				C267.604,319.442,267.604,319.442,267.488,319.442C267.604,319.442,267.604,319.442,267.488,319.442
				C267.604,319.442,267.604,319.442,267.488,319.442c0.116,0,0.232,0,0.232,0l0,0l0,0l0,0l0,0H267.488
				C267.604,319.442,267.488,319.442,267.488,319.442L267.488,319.442L267.488,319.442z"/>
			<path fill="#F8E12E" d="M268.535,319.442h0.117l0,0l0,0l0,0c0.349,0.116,0.698,0.116,1.047,0.232
				c-0.232,0-0.349-0.116-0.582-0.116l0,0l0,0l0,0c-0.116,0-0.116,0-0.116,0h0.116c-0.116,0-0.233,0-0.349-0.116
				c0.116,0,0.116,0,0.233,0c0,0-0.117,0-0.233,0l0,0H268.535C268.535,319.442,268.419,319.442,268.535,319.442
				C268.419,319.442,268.535,319.442,268.535,319.442L268.535,319.442z"/>
			<path fill="#F8E12E" d="M267.837,319.442c0,0,0.116,0,0.232,0l0,0c0,0,0,0,0.117,0l0,0c0,0,0.116,0,0.232,0c0,0,0,0-0.116,0
				h0.116l0,0c0.116,0,0.116,0,0.233,0h-0.117l0,0h-0.116l0,0l0,0h-0.116l0,0h-0.117
				C267.954,319.442,267.954,319.442,267.837,319.442C267.954,319.442,267.954,319.442,267.837,319.442
				C267.954,319.442,267.954,319.442,267.837,319.442z"/>
			<path fill="#F8E12E" d="M267.721,319.442C267.837,319.442,267.837,319.442,267.721,319.442
				C267.837,319.442,267.837,319.442,267.721,319.442c0.117,0,0.117,0,0.117,0H267.721
				C267.837,319.442,267.721,319.442,267.721,319.442L267.721,319.442L267.721,319.442z"/>
			<path fill="#F8E12E" d="M267.954,319.442c0.233,0,0.582,0,0.931,0.116C268.535,319.442,268.187,319.442,267.954,319.442z"/>
			<path fill="#F8E12E" d="M267.721,319.442L267.721,319.442L267.721,319.442z"/>
			<path fill="#F8E12E" d="M270.164,319.791h-0.232c0.232,0,0.465,0.116,0.582,0.116L270.164,319.791z"/>
			<path fill="#F8E12E" d="M269.233,319.558c0.116,0,0.233,0,0.349,0.116C269.466,319.674,269.466,319.558,269.233,319.558z"/>
			<path fill="#F8E12E" d="M269.583,319.674L269.583,319.674L269.583,319.674L269.583,319.674z"/>
			<path fill="#F8E12E" d="M269.001,319.558L269.001,319.558L269.001,319.558z"/>
		</g>
		<g>
			<path fill="none" stroke="#82623C" stroke-linecap="round" stroke-linejoin="round" stroke-miterlimit="10" d="M364.407,379.362
				c-3.606-1.512-4.537-7.562-1.978-13.38c2.56-5.818,7.562-9.424,11.286-7.912"/>
			<path fill="none" stroke="#82623C" stroke-linecap="round" stroke-linejoin="round" stroke-miterlimit="10" d="M333.342,378.664
				c-6.98-2.909-8.377-15.242-3.024-27.575c5.352-12.333,15.357-19.779,22.455-16.871"/>
			<path fill="none" stroke="#82623C" stroke-linecap="round" stroke-linejoin="round" stroke-miterlimit="10" d="M304.139,364.585
				c-7.33-3.141-9.076-15.475-3.724-27.691c5.353-12.217,15.591-19.547,23.037-16.522"/>
			<path fill="none" stroke="#82623C" stroke-linecap="round" stroke-linejoin="round" stroke-miterlimit="10" d="M281.334,344.341
				c-5.12-2.094-6.283-10.472-2.676-18.732s10.588-13.147,15.708-11.053"/>
		</g>
		<path fill="none" stroke="#82623C" stroke-linecap="round" stroke-linejoin="round" stroke-miterlimit="10" d="M277.611,329.215
			c0,0,20.245,14.194,35.603,22.921c15.358,8.61,49.1,21.641,49.1,21.641"/>
		<g>
			<polygon fill="#009AA9" points="272.491,314.439 279.007,317.348 275.749,306.294 271.677,304.666 			"/>
			<polygon fill="#0BE9F4" points="271.677,304.666 273.306,303.734 277.378,305.363 275.749,306.294 			"/>
			<polygon fill="#00C7DC" points="279.007,317.348 280.636,316.417 277.378,305.363 275.749,306.294 			"/>
		</g>
		<g>
			<polygon fill="#0BE9F4" points="267.139,323.863 273.771,326.655 261.671,329.215 257.599,327.586 			"/>
			<polygon fill="#009AA9" points="261.671,330.844 261.671,329.215 257.599,327.586 257.599,329.215 			"/>
			<polygon fill="#00C7DC" points="273.771,328.401 273.771,326.655 261.671,329.215 261.671,330.844 			"/>
		</g>
	</g>
	<g>
		<g enable-background="new    ">
			<g>
				<path fill="#FBFBFB" d="M175.921,463.716l6.516,4.188c-3.956-2.56-9.541-2.443-15.94,0.931c-2.443,1.28-4.887,3.025-7.097,5.003
					l-6.516-4.188c2.21-1.978,4.654-3.724,7.097-5.003C166.264,461.272,171.965,461.156,175.921,463.716z"/>
				<path fill="#FBFBFB" d="M79.234,488.498c5.584-2.909,10.704-3.956,15.125-3.49c6.632-11.17,16.056-20.827,26.179-26.062
					c9.657-5.003,18.267-5.235,24.201-1.396l6.516,4.188c-6.05-3.839-14.544-3.723-24.201,1.396
					c-10.123,5.353-19.547,15.009-26.179,26.062c-4.421-0.466-9.541,0.582-15.125,3.49c-17.22,8.959-31.764,31.88-32.462,51.194
					c-0.349,9.54,2.676,16.405,8.028,19.896l-6.516-4.188c-5.352-3.374-8.377-10.239-8.028-19.896
					C47.587,520.378,62.131,497.457,79.234,488.498z"/>
			</g>
			<g>
				<path fill="#E2E2E2" d="M127.054,463.134c-10.123,5.353-19.547,15.009-26.179,26.062c-4.421-0.466-9.541,0.582-15.125,3.49
					c-17.22,8.959-31.764,31.88-32.462,51.194c-0.814,19.313,12.566,27.691,29.786,18.615l81.445-42.467
					c12.566-6.633,23.27-23.387,23.852-37.581c0.582-14.195-9.191-20.245-21.874-13.729c-2.443,1.279-4.887,3.025-7.097,5.003
					C155.792,459.76,142.877,454.873,127.054,463.134z"/>
			</g>
		</g>
	</g>
</g>
</svg>
