<?xml version="1.0" encoding="utf-8"?>
<!-- Generator: Adobe Illustrator 16.0.0, SVG Export Plug-In . SVG Version: 6.00 Build 0)  -->
<!DOCTYPE svg PUBLIC "-//W3C//DTD SVG 1.1//EN" "http://www.w3.org/Graphics/SVG/1.1/DTD/svg11.dtd">
<svg version="1.1" id="Camada_1" xmlns="http://www.w3.org/2000/svg" xmlns:xlink="http://www.w3.org/1999/xlink" x="0px" y="0px"
	 width="585.277px" height="370px" viewBox="18.73 214.5 585.277 370" enable-background="new 18.73 214.5 585.277 370"
	 xml:space="preserve">
<g>
	<rect x="18.73" y="215.024" fill="#F9C30C" width="585.277" height="369.229"/>
</g>
<g>
	<g>
		<defs>
			<rect id="SVGID_1_" x="18.73" y="215.024" width="585.277" height="369.229"/>
		</defs>
		<clipPath id="SVGID_2_">
			<use xlink:href="#SVGID_1_"  overflow="visible"/>
		</clipPath>
		<g clip-path="url(#SVGID_2_)">
			<g opacity="0.2">
				<polygon fill="#383831" points="201.853,568.505 371.256,510.288 141.965,403.277 				"/>
			</g>
			<g>
				<g>
					<path fill="#CB6120" d="M345.249,478.912c-0.238,0-0.597-0.119-0.835-0.238l-3.102-1.67c-0.835-0.478-1.193-1.551-0.716-2.387
						c0.477-0.835,1.551-1.192,2.386-0.716l0.478,0.239v-6.204c0-0.954,0.835-1.789,1.789-1.789l0,0
						c0.954,0,1.789,0.835,1.789,1.789v9.306c0,0.597-0.357,1.193-0.835,1.551C345.846,478.793,345.607,478.912,345.249,478.912z
						 M336.063,473.901c-0.239,0-0.597-0.119-0.835-0.238l-11.215-6.084c-0.835-0.478-1.192-1.551-0.716-2.386
						c0.478-0.836,1.551-1.193,2.387-0.716l11.214,6.084c0.835,0.478,1.192,1.551,0.716,2.386
						C337.256,473.544,336.66,473.901,336.063,473.901z M204.119,473.544c-0.358,0-0.716-0.119-0.954-0.358
						c-0.835-0.596-1.074-1.67-0.478-2.505c0.358-0.597,1.074-1.67,11.095-7.754c0.835-0.478,1.909-0.239,2.505,0.596
						c0.478,0.835,0.239,1.909-0.596,2.506c-8.47,5.13-9.783,6.441-10.021,6.681C205.193,473.306,204.716,473.544,204.119,473.544z
						 M318.646,464.478c-0.238,0-0.597-0.12-0.835-0.239l-11.214-6.084c-0.835-0.478-1.193-1.551-0.716-2.386
						c0.477-0.835,1.551-1.193,2.386-0.716l11.214,6.084c0.835,0.478,1.193,1.551,0.716,2.386
						C319.839,464.238,319.242,464.478,318.646,464.478z M220.702,462.807c-0.596,0-1.193-0.357-1.551-0.835
						c-0.477-0.835-0.239-1.908,0.597-2.505c3.221-1.909,7.039-4.057,11.095-6.442c0.835-0.477,1.909-0.238,2.386,0.716
						c0.477,0.835,0.239,1.909-0.716,2.386c-4.056,2.387-7.874,4.534-11.095,6.442C221.298,462.688,221.06,462.807,220.702,462.807z
						 M345.249,462.688c-0.954,0-1.789-0.835-1.789-1.789v-12.765c0-0.955,0.835-1.79,1.789-1.79l0,0c0.954,0,1.79,0.835,1.79,1.79
						v12.765C347.039,461.853,346.203,462.688,345.249,462.688L345.249,462.688z M301.229,455.172c-0.239,0-0.597-0.119-0.836-0.238
						l-11.214-6.084c-0.835-0.478-1.193-1.552-0.715-2.387c0.477-0.835,1.551-1.192,2.386-0.716l11.214,6.085
						c0.835,0.477,1.192,1.551,0.716,2.386C302.421,454.814,301.824,455.172,301.229,455.172z M237.881,452.905
						c-0.597,0-1.193-0.358-1.551-0.954c-0.477-0.835-0.238-1.909,0.716-2.387c3.818-2.146,7.635-4.294,11.214-6.322
						c0.835-0.478,1.909-0.119,2.386,0.716c0.478,0.835,0.119,1.909-0.716,2.386c-3.579,1.909-7.277,4.057-11.214,6.323
						C238.477,452.786,238.119,452.905,237.881,452.905z M283.811,445.867c-0.239,0-0.597-0.12-0.835-0.239l-11.214-6.084
						c-0.835-0.478-1.193-1.551-0.716-2.386c0.478-0.835,1.551-1.193,2.386-0.716l11.214,6.084c0.835,0.478,1.193,1.551,0.716,2.386
						C285.123,445.509,284.407,445.867,283.811,445.867z M255.179,443.242c-0.596,0-1.193-0.358-1.551-0.954
						c-0.477-0.835-0.119-1.909,0.716-2.387c5.607-3.102,9.783-5.368,11.214-6.203c0.835-0.478,1.909-0.119,2.386,0.716
						s0.119,1.909-0.716,2.386c-1.432,0.835-5.607,3.102-11.214,6.204C255.775,443.123,255.417,443.242,255.179,443.242z
						 M345.13,442.884c-0.954,0-1.79-0.835-1.79-1.789V428.33c0-0.955,0.836-1.79,1.79-1.79l0,0c0.954,0,1.789,0.835,1.789,1.79
						v12.765C346.919,442.049,346.084,442.884,345.13,442.884L345.13,442.884z M345.13,423.081c-0.954,0-1.79-0.835-1.79-1.79
						v-12.765c0-0.954,0.836-1.79,1.79-1.79l0,0c0.954,0,1.789,0.836,1.789,1.79v12.765
						C346.919,422.365,346.084,423.081,345.13,423.081L345.13,423.081z M345.011,403.396c-0.954,0-1.79-0.835-1.79-1.789v-12.765
						c0-0.955,0.836-1.79,1.79-1.79l0,0c0.954,0,1.789,0.835,1.789,1.79v12.765C346.8,402.562,345.965,403.396,345.011,403.396
						L345.011,403.396z M344.892,383.593c-0.955,0-1.79-0.835-1.79-1.789v-12.765c0-0.955,0.835-1.79,1.79-1.79l0,0
						c0.954,0,1.789,0.835,1.789,1.79v12.765C346.681,382.877,345.965,383.593,344.892,383.593L344.892,383.593z M344.892,363.909
						c-0.955,0-1.79-0.835-1.79-1.79v-12.765c0-0.955,0.835-1.79,1.79-1.79l0,0c0.954,0,1.789,0.835,1.789,1.79v12.765
						C346.681,363.074,345.846,363.909,344.892,363.909L344.892,363.909z M344.771,344.105c-0.954,0-1.789-0.835-1.789-1.79v-12.765
						c0-0.954,0.835-1.79,1.789-1.79l0,0c0.955,0,1.79,0.835,1.79,1.79v12.765C346.562,343.27,345.846,344.105,344.771,344.105
						L344.771,344.105z M344.771,324.302c-0.954,0-1.789-0.835-1.789-1.79v-12.765c0-0.955,0.835-1.79,1.789-1.79l0,0
						c0.955,0,1.79,0.835,1.79,1.79v12.765C346.562,323.586,345.727,324.302,344.771,324.302L344.771,324.302z M344.652,304.618
						c-0.954,0-1.789-0.835-1.789-1.79v-12.765c0-0.954,0.835-1.79,1.789-1.79l0,0c0.955,0,1.79,0.835,1.79,1.79v12.765
						C346.442,303.782,345.727,304.618,344.652,304.618L344.652,304.618z M344.652,284.814c-0.954,0-1.789-0.835-1.789-1.79V270.26
						c0-0.955,0.835-1.79,1.789-1.79l0,0c0.955,0,1.79,0.835,1.79,1.79v12.765C346.442,283.979,345.607,284.814,344.652,284.814
						L344.652,284.814z M394.996,280.4c-0.238,0-0.596-0.119-0.835-0.238l-9.663-5.369c-0.835-0.477-1.192-1.551-0.716-2.386
						c0.478-0.835,1.551-1.193,2.386-0.716l9.664,5.368c0.835,0.478,1.192,1.551,0.715,2.386
						C396.189,280.042,395.593,280.4,394.996,280.4z M379.249,271.691c-0.238,0-0.597-0.12-0.835-0.239l-11.214-6.204
						c-0.835-0.477-1.193-1.551-0.716-2.386c0.477-0.835,1.551-1.193,2.386-0.716l11.214,6.204c0.835,0.477,1.193,1.551,0.716,2.386
						C380.442,271.333,379.846,271.691,379.249,271.691z M344.533,265.13c-0.954,0-1.789-0.835-1.789-1.79v-12.646
						c0-0.597,0.357-1.193,0.835-1.551c0.597-0.358,1.192-0.358,1.789,0l0.119,0.119c0.836,0.477,1.193,1.432,0.836,2.267v11.811
						C346.323,264.295,345.487,265.13,344.533,265.13L344.533,265.13z M361.951,262.147c-0.239,0-0.597-0.119-0.835-0.239
						l-11.215-6.204c-0.835-0.477-1.192-1.551-0.716-2.386c0.478-0.835,1.551-1.193,2.387-0.716l11.214,6.204
						c0.835,0.477,1.192,1.551,0.716,2.386C363.144,261.79,362.547,262.147,361.951,262.147z"/>
				</g>
				<g>
					<g>
						<g>
							<g>
								<g enable-background="new    ">
									<defs>
										<path id="SVGID_3_" enable-background="new    " d="M126.695,377.032l185.032,93.53c-1.909-0.954-4.414-0.835-7.277,0.716
											l-185.032-93.53C122.281,376.196,124.786,376.077,126.695,377.032z"/>
									</defs>
									<clipPath id="SVGID_4_">
										<use xlink:href="#SVGID_3_"  overflow="visible"/>
									</clipPath>
									<g clip-path="url(#SVGID_4_)" enable-background="new    ">
										<g>
											<path fill="#AEAEB2" d="M304.449,471.277l-185.032-93.53c0.239-0.12,0.477-0.239,0.716-0.358l185.032,93.529
												C304.927,471.039,304.688,471.158,304.449,471.277"/>
										</g>
										<g>
											<path fill="#AAA9AE" d="M305.165,470.919L120.133,377.39c0.358-0.12,0.716-0.358,1.074-0.478l185.031,93.53
												C305.881,470.681,305.522,470.8,305.165,470.919"/>
										</g>
										<g>
											<path fill="#A6A5A9" d="M306.119,470.442l-185.031-93.53c0.358-0.119,0.596-0.238,0.954-0.238l185.031,93.529
												C306.835,470.323,306.478,470.442,306.119,470.442"/>
										</g>
										<g>
											<path fill="#A1A1A5" d="M307.073,470.203l-185.031-93.529c0.239-0.12,0.597-0.12,0.835-0.12l185.032,93.53
												C307.67,470.084,307.312,470.084,307.073,470.203"/>
										</g>
										<g>
											<path fill="#9D9CA1" d="M307.909,470.084l-185.032-93.649c0.239,0,0.478-0.119,0.716-0.119l185.032,93.53
												C308.386,469.965,308.147,469.965,307.909,470.084"/>
										</g>
										<g>
											<path fill="#99989C" d="M308.625,469.965l-185.032-93.53c0.239,0,0.478,0,0.716,0l185.032,93.53
												C309.102,469.965,308.863,469.965,308.625,469.965"/>
										</g>
										<g>
											<path fill="#949498" d="M309.34,469.965l-185.031-93.53c0.239,0,0.478,0,0.716,0.119l185.031,93.53
												C309.817,469.965,309.579,469.965,309.34,469.965"/>
										</g>
										<g>
											<path fill="#908F93" d="M310.056,470.084l-185.031-93.53c0.239,0,0.478,0.12,0.716,0.12l185.031,93.529
												C310.533,470.084,310.295,470.084,310.056,470.084"/>
										</g>
										<g>
											<path fill="#8C8B8F" d="M310.771,470.203L125.74,376.674c0.239,0.119,0.478,0.119,0.716,0.238l185.031,93.53
												C311.249,470.323,311.011,470.323,310.771,470.203"/>
										</g>
										<g>
											<path fill="#87878A" d="M311.487,470.442l-185.031-93.53c0.119,0,0.119,0.12,0.239,0.12l185.032,93.53
												C311.607,470.562,311.487,470.442,311.487,470.442"/>
										</g>
									</g>
								</g>
								<g>
									<g>
										<polygon fill="#CCCCCC" points="218.435,519.951 34.835,424.273 119.417,377.748 304.449,471.277 										"/>
									</g>
								</g>
								<g enable-background="new    ">
									<g>
										<path id="SVGID_5_" fill="#C2C3C9" d="M200.779,552.28l-183.6-95.677c0-0.357,0.12-0.716,0.12-1.073
											c1.67-12.766,9.544-26.843,17.537-31.257l183.6,95.678c-7.993,4.414-15.986,18.491-17.537,31.256
											C200.779,551.564,200.779,551.923,200.779,552.28z"/>
									</g>
									<g>
										<defs>
											<path id="SVGID_6_" d="M200.779,552.28l-183.6-95.677c0-0.357,0.12-0.716,0.12-1.073
												c1.67-12.766,9.544-26.843,17.537-31.257l183.6,95.678c-7.993,4.414-15.986,18.491-17.537,31.256
												C200.779,551.564,200.779,551.923,200.779,552.28z"/>
										</defs>
										<clipPath id="SVGID_7_">
											<use xlink:href="#SVGID_6_"  overflow="visible"/>
										</clipPath>
										<g clip-path="url(#SVGID_7_)" enable-background="new    ">
											<g>
												<path fill="#C2C3C9" d="M200.779,552.28l-183.6-95.677c0-0.357,0.12-0.716,0.12-1.073c0-0.478,0.119-0.955,0.238-1.312
													l183.6,95.677c-0.119,0.478-0.119,0.955-0.238,1.312C200.779,551.564,200.779,551.923,200.779,552.28"/>
											</g>
											<g>
												<path fill="#C2C3C9" d="M201.018,549.775L17.537,454.218c0.12-0.835,0.239-1.551,0.478-2.386l183.6,95.677
													C201.375,548.225,201.137,549.06,201.018,549.775"/>
											</g>
											<g>
												<path fill="#C2C3C9" d="M201.495,547.39l-183.6-95.558c0.12-0.716,0.358-1.432,0.478-2.028l183.6,95.677
													C201.853,546.077,201.614,546.793,201.495,547.39"/>
											</g>
											<g>
												<path fill="#C2C3C9" d="M201.972,545.361l-183.6-95.677c0.119-0.597,0.358-1.312,0.596-1.909l183.6,95.677
													C202.33,544.049,202.21,544.765,201.972,545.361"/>
											</g>
											<g>
												<path fill="#C2C3C9" d="M202.568,543.453l-183.6-95.678c0.239-0.597,0.358-1.193,0.597-1.789l183.6,95.677
													C202.926,542.26,202.688,542.856,202.568,543.453"/>
											</g>
											<g>
												<path fill="#C2C3C9" d="M203.165,541.663l-183.6-95.677c0.239-0.597,0.358-1.193,0.597-1.671l183.6,95.678
													C203.523,540.47,203.284,541.066,203.165,541.663"/>
											</g>
											<g>
												<path fill="#C2C3C9" d="M203.761,539.993l-183.6-95.678c0.238-0.596,0.477-1.073,0.596-1.67l183.6,95.678
													C204.119,538.8,204,539.396,203.761,539.993"/>
											</g>
											<g>
												<path fill="#C2C3C9" d="M204.358,538.323l-183.6-95.678c0.239-0.597,0.477-1.073,0.716-1.551l183.6,95.677
													C204.835,537.249,204.597,537.727,204.358,538.323"/>
											</g>
											<g>
												<path fill="#C2C3C9" d="M205.074,536.652l-183.6-95.558c0.239-0.478,0.477-1.073,0.716-1.551l183.6,95.677
													C205.551,535.698,205.312,536.176,205.074,536.652"/>
											</g>
											<g>
												<path fill="#C2C3C9" d="M205.79,535.102l-183.6-95.677c0.239-0.478,0.477-1.074,0.835-1.551l183.6,95.677
													C206.386,534.028,206.028,534.625,205.79,535.102"/>
											</g>
											<g>
												<path fill="#C2C3C9" d="M206.625,533.551l-183.6-95.677c0.239-0.478,0.597-1.074,0.835-1.551L207.459,532
													C207.221,532.478,206.863,533.073,206.625,533.551"/>
											</g>
											<g>
												<path fill="#C2C3C9" d="M207.459,532l-183.6-95.677c0.358-0.478,0.596-1.074,0.954-1.552l183.6,95.678
													C208.056,530.927,207.817,531.522,207.459,532"/>
											</g>
											<g>
												<path fill="#C2C3C9" d="M208.414,530.449l-183.6-95.678c0.358-0.596,0.716-1.073,1.074-1.67l183.6,95.678
													C209.13,529.375,208.772,529.853,208.414,530.449"/>
											</g>
											<g>
												<path fill="#C2C3C9" d="M209.488,528.779l-183.6-95.678c0.477-0.597,0.955-1.312,1.312-1.908l183.6,95.677
													C210.442,527.467,209.965,528.183,209.488,528.779"/>
											</g>
											<g>
												<path fill="#C2C3C9" d="M210.919,526.87l-183.6-95.558c0.835-1.074,1.67-2.028,2.505-2.863l183.6,95.677
													C212.47,524.842,211.635,525.916,210.919,526.87"/>
											</g>
											<g>
												<path fill="#C2C3C9" d="M213.305,524.007L29.825,428.33c0.596-0.716,1.312-1.312,2.028-1.909l183.6,95.678
													C214.618,522.694,214.021,523.291,213.305,524.007"/>
											</g>
											<g>
												<path fill="#C2C3C9" d="M215.333,522.099l-183.6-95.678c0.835-0.716,1.67-1.312,2.505-1.789l183.6,95.677
													C217.003,520.786,216.168,521.383,215.333,522.099"/>
											</g>
											<g>
												<path fill="#C2C3C9" d="M217.838,520.309l-183.6-95.677c0.238-0.119,0.477-0.239,0.596-0.358l183.6,95.678
													C218.196,520.07,217.958,520.189,217.838,520.309"/>
											</g>
										</g>
									</g>
									<g>
										<g>
											<path fill="#87868A" d="M304.449,471.277c7.993-4.414,13.361,2.386,11.691,15.15c0,0.358-0.119,0.716-0.119,1.074
												l-115.243,64.659c0-0.357,0.12-0.716,0.12-1.073c1.67-12.765,9.543-26.842,17.537-31.256L304.449,471.277z"/>
										</g>
									</g>
								</g>
							</g>
							<g>
								<path fill="#38383A" d="M218.554,507.306c1.67-2.744,67.881-37.341,67.881-37.341l-29.944-15.866l-67.403,38.414
									L218.554,507.306z"/>
							</g>
							<g>
								<polygon fill="#38383A" points="218.316,432.625 150.316,473.663 156.639,476.646 224.52,435.846 								"/>
							</g>
							<g>
								<g>
									<polygon fill="#38383A" points="211.158,419.979 211.039,419.859 211.039,419.859 									"/>
								</g>
								<g>
									<polygon fill="#38383A" points="203.045,424.632 134.688,465.909 141.13,469.011 209.249,427.853 									"/>
								</g>
							</g>
							<g>
								<g>
									<polygon fill="#38383A" points="195.411,412.701 195.291,412.582 195.291,412.582 									"/>
								</g>
								<g>
									<polygon fill="#38383A" points="187.298,417.474 118.94,458.632 125.263,461.733 193.502,420.695 									"/>
								</g>
							</g>
							<g>
								<polygon fill="#38383A" points="117.509,466.147 117.628,466.147 117.509,466.028 								"/>
							</g>
							<g>
								<polygon fill="#38383A" points="172.505,408.885 103.432,450.52 109.754,453.74 178.709,412.105 								"/>
							</g>
							<g>
								<polygon fill="#38383A" points="157.235,401.011 87.804,442.884 94.126,445.986 163.438,404.231 								"/>
							</g>
							<g>
								<polygon fill="#38383A" points="141.965,393.137 72.175,435.249 78.498,438.351 148.288,396.358 								"/>
							</g>
							<g>
								<polygon fill="#38383A" points="126.695,385.144 56.547,427.495 62.87,430.716 133.018,388.365 								"/>
							</g>
							<g>
								<polygon fill="#38383A" points="233.825,440.617 166.541,480.94 172.863,484.042 240.028,443.839 								"/>
							</g>
							<g>
								<path fill="#3A89D8" d="M264.961,467.46c1.909,4.056-2.386,10.021-9.544,13.361c-7.158,3.34-14.554,2.743-16.463-1.312
									c-1.909-4.056,2.386-10.021,9.543-13.361C255.775,462.807,263.172,463.403,264.961,467.46z"/>
							</g>
							<g>
								<polygon fill="#727176" points="17.179,456.604 200.898,551.207 200.898,573.277 18.014,476.407 								"/>
							</g>
							<g>
								<path fill="#2D2D2F" d="M200.898,573.277c2.147-2.506,114.049-62.87,114.049-64.063c0-1.192,1.074-21.712,1.074-21.712
									l-115.243,64.659L200.898,573.277z"/>
							</g>
						</g>
					</g>
				</g>
				<g>
					<defs>
						<rect id="SVGID_8_" x="18.73" y="215.024" width="585.277" height="369.229"/>
					</defs>
					<clipPath id="SVGID_9_">
						<use xlink:href="#SVGID_8_"  overflow="visible"/>
					</clipPath>
					<g clip-path="url(#SVGID_9_)">
						<g opacity="0.2">
							<path fill="#383831" d="M499.979,552.758c5.13-2.982,161.769-55.115,161.769-55.115l-136.597-71.46L499.979,552.758z"/>
						</g>
						<g>
							<g>
								<g>
									<g>
										<g>
											<path fill="#B0B0B0" d="M399.41,434.652"/>
										</g>
									</g>
								</g>
								<g>
									<g>
										<g>
											<polygon fill="#F4F0F2" points="580.625,268.709 498.428,309.986 371.733,246.281 453.93,205.003 											"/>
										</g>
									</g>
									<g>
										<g>
											<polyline fill="#535C65" points="523.6,245.088 570.723,268.709 498.428,304.976 381.516,246.281 453.93,209.895 
												497.712,231.846 											"/>
										</g>
									</g>
									<g>
										<g>
											<polygon fill="#9C998C" points="453.93,209.895 381.516,246.281 388.555,249.74 453.93,216.934 454.168,218.126 
												454.168,210.014 											"/>
										</g>
										<g>
											<polygon fill="#C2BFAF" points="570.723,268.709 563.564,272.288 454.168,217.053 454.168,210.014 											"/>
										</g>
									</g>
								</g>
								<g>
									<g>
										<polygon fill="#B5B6A9" points="498.428,553.474 371.733,489.769 371.733,246.162 498.428,309.867 										"/>
									</g>
								</g>
								<g>
									<g>
										<polygon fill="#576878" points="498.428,548.702 371.733,484.996 371.733,454.456 498.428,518.28 										"/>
									</g>
								</g>
								<g>
									<g>
										<polygon fill="#E5E7D5" points="580.625,512.196 498.428,553.474 498.428,309.867 580.625,268.589 										"/>
									</g>
								</g>
								<g>
									<g>
										<polygon fill="#6D8296" points="498.428,553.474 371.733,489.769 371.733,459.229 498.428,523.053 										"/>
									</g>
								</g>
								<g>
									<g>
										<polygon fill="#4A525A" points="477.073,542.856 461.685,535.102 461.685,522.814 477.073,530.449 										"/>
									</g>
								</g>
								<g>
									<g>
										<polygon fill="#4A525A" points="408,508.141 392.61,500.386 392.61,488.099 408,495.733 										"/>
									</g>
								</g>
								<g>
									<g>
										<polygon fill="#4A525A" points="446.414,527.467 419.691,513.986 419.691,495.972 446.414,509.333 										"/>
									</g>
								</g>
								<g>
									<g>
										<polygon fill="#2E3338" points="421.958,512.793 446.414,525.2 446.414,527.467 419.691,513.986 419.691,495.972 
											421.958,497.165 										"/>
									</g>
									<g>
										<polygon fill="#2E3338" points="463.951,534.028 477.073,540.59 477.073,542.856 461.685,535.102 461.685,522.814 
											463.951,523.888 										"/>
									</g>
									<g>
										<polygon fill="#2E3338" points="394.877,499.312 408,505.874 408,508.141 392.61,500.386 392.61,488.099 394.877,489.172 
																					"/>
									</g>
								</g>
								<g>
									<g>
										<polygon fill="#535C65" points="580.625,507.544 498.428,548.702 498.428,518.28 580.625,477.004 										"/>
									</g>
								</g>
								<g>
									<g>
										<polygon fill="#69747F" points="580.625,512.196 498.428,553.474 498.428,523.053 580.625,481.775 										"/>
									</g>
								</g>
								<g>
									<g>
										<polygon fill="#B3B3B3" points="445.579,269.305 455.958,271.453 478.505,259.523 465.621,254.393 450.947,261.909 
																					"/>
									</g>
									<g>
										<polygon fill="#697B8D" points="412.295,244.372 445.579,260.955 467.53,249.86 434.246,233.396 										"/>
									</g>
									<g>
										<polygon fill="#CCCCCC" points="412.295,252.842 445.579,269.305 445.579,260.955 412.295,244.372 										"/>
									</g>
									<g>
										<polygon fill="#808080" points="467.53,258.33 467.53,249.979 445.579,260.955 445.579,269.305 										"/>
									</g>
								</g>
								<g>
									<g>
										<polygon fill="#B3B3B3" points="522.168,279.207 529.564,280.758 545.789,272.288 536.604,268.47 525.986,273.958 
																					"/>
									</g>
									<g>
										<polygon fill="#697B8D" points="498.189,260.477 522.168,272.407 537.916,264.414 514.057,252.604 										"/>
									</g>
									<g>
										<polygon fill="#CCCCCC" points="498.189,267.396 522.168,279.207 522.168,272.288 498.189,260.477 										"/>
									</g>
									<g>
										<polygon fill="#808080" points="537.916,271.333 537.916,264.414 522.168,272.288 522.168,279.207 										"/>
									</g>
								</g>
								<g>
									<g>
										<path fill="#4FA0CA" d="M387.839,427.018v17.418l91.859,46.406v-17.417L387.839,427.018z"/>
									</g>
									<g>
										<g>
											<polygon fill="#3B7897" points="470.154,486.07 468.126,484.996 468.126,467.579 470.154,468.652 											"/>
										</g>
										<g>
											<polygon fill="#3B7897" points="425.656,446.225 427.685,447.298 427.685,464.716 425.656,463.643 											"/>
										</g>
										<g>
											<polygon fill="#3B7897" points="446.892,456.842 448.919,457.916 448.919,475.333 446.892,474.379 											"/>
										</g>
										<g>
											<polygon fill="#3B7897" points="389.509,445.271 387.839,444.436 387.839,427.018 389.509,427.853 											"/>
										</g>
										<g>
											<polygon fill="#3B7897" points="404.421,435.487 406.449,436.562 406.449,453.979 404.421,453.024 											"/>
										</g>
									</g>
									<g>
										<path fill="#4FA0CA" d="M387.839,395.523v17.417l91.859,46.407V441.93L387.839,395.523z"/>
									</g>
									<g>
										<g>
											<polygon fill="#3B7897" points="470.154,454.694 468.126,453.621 468.126,436.203 470.154,437.158 											"/>
										</g>
										<g>
											<polygon fill="#3B7897" points="425.656,414.73 427.685,415.804 427.685,433.221 425.656,432.267 											"/>
										</g>
										<g>
											<polygon fill="#3B7897" points="446.892,425.467 448.919,426.54 448.919,443.958 446.892,442.884 											"/>
										</g>
										<g>
											<polygon fill="#3B7897" points="389.509,413.895 387.839,413.06 387.839,395.523 389.509,396.477 											"/>
										</g>
										<g>
											<polygon fill="#3B7897" points="404.421,404.112 406.449,405.186 406.449,422.604 404.421,421.53 											"/>
										</g>
									</g>
									<g>
										<path fill="#4FA0CA" d="M387.839,364.147v17.417l91.859,46.407v-17.417L387.839,364.147z"/>
									</g>
									<g>
										<g>
											<polygon fill="#3B7897" points="470.154,423.2 468.126,422.246 468.126,404.709 470.154,405.782 											"/>
										</g>
										<g>
											<polygon fill="#3B7897" points="425.656,383.354 427.685,384.428 427.685,401.846 425.656,400.771 											"/>
										</g>
										<g>
											<polygon fill="#3B7897" points="446.892,394.091 448.919,395.045 448.919,412.582 446.892,411.509 											"/>
										</g>
										<g>
											<polygon fill="#3B7897" points="389.509,382.52 387.839,381.565 387.839,364.147 389.509,364.982 											"/>
										</g>
										<g>
											<polygon fill="#3B7897" points="404.421,372.737 406.449,373.691 406.449,391.228 404.421,390.154 											"/>
										</g>
									</g>
									<g>
										<path fill="#4FA0CA" d="M387.839,332.772v17.417l91.859,46.407v-17.418L387.839,332.772z"/>
									</g>
									<g>
										<g>
											<polygon fill="#3B7897" points="470.154,391.825 468.126,390.751 468.126,373.333 470.154,374.407 											"/>
										</g>
										<g>
											<polygon fill="#3B7897" points="425.656,351.979 427.685,352.934 427.685,370.47 425.656,369.396 											"/>
										</g>
										<g>
											<polygon fill="#3B7897" points="446.892,362.597 448.919,363.67 448.919,381.088 446.892,380.014 											"/>
										</g>
										<g>
											<polygon fill="#3B7897" points="389.509,351.024 387.839,350.189 387.839,332.772 389.509,333.607 											"/>
										</g>
										<g>
											<polygon fill="#3B7897" points="404.421,341.242 406.449,342.316 406.449,359.733 404.421,358.779 											"/>
										</g>
									</g>
									<g>
										<path fill="#4FA0CA" d="M387.839,301.277v17.417l91.859,46.407v-17.417L387.839,301.277z"/>
									</g>
									<g>
										<g>
											<polygon fill="#3B7897" points="470.154,360.449 468.126,359.375 468.126,341.839 470.154,342.912 											"/>
										</g>
										<g>
											<polygon fill="#3B7897" points="425.656,320.484 427.685,321.558 427.685,338.976 425.656,338.021 											"/>
										</g>
										<g>
											<polygon fill="#3B7897" points="446.892,331.221 448.919,332.295 448.919,349.712 446.892,348.639 											"/>
										</g>
										<g>
											<polygon fill="#3B7897" points="389.509,319.649 387.839,318.814 387.839,301.277 389.509,302.231 											"/>
										</g>
										<g>
											<polygon fill="#3B7897" points="404.421,309.867 406.449,310.94 406.449,328.358 404.421,327.284 											"/>
										</g>
									</g>
									<g>
										<path fill="#4FA0CA" d="M387.839,269.902v17.537l91.859,46.407v-17.417L387.839,269.902z"/>
									</g>
									<g>
										<g>
											<polygon fill="#3B7897" points="479.698,427.972 387.839,381.565 387.839,379.179 479.698,425.586 											"/>
										</g>
										<g>
											<polygon fill="#3B7897" points="479.698,459.467 387.839,413.06 387.839,410.674 479.698,456.961 											"/>
										</g>
										<g>
											<polygon fill="#3B7897" points="479.698,490.842 387.839,444.436 387.839,442.049 479.698,488.456 											"/>
										</g>
										<g>
											<polygon fill="#3B7897" points="479.698,396.597 387.839,350.189 387.839,347.804 479.698,394.21 											"/>
										</g>
										<g>
											<polygon fill="#3B7897" points="479.698,333.727 387.839,287.319 387.839,284.934 479.698,331.34 											"/>
										</g>
										<g>
											<polygon fill="#3B7897" points="479.698,365.221 387.839,318.814 387.839,316.309 479.698,362.716 											"/>
										</g>
									</g>
									<g>
										<g>
											<polygon fill="#3B7897" points="470.154,328.955 468.126,327.881 468.126,310.463 470.154,311.537 											"/>
										</g>
										<g>
											<polygon fill="#3B7897" points="425.656,289.109 427.685,290.183 427.685,307.6 425.656,306.526 											"/>
										</g>
										<g>
											<polygon fill="#3B7897" points="446.892,299.846 448.919,300.8 448.919,318.337 446.892,317.263 											"/>
										</g>
										<g>
											<polygon fill="#3B7897" points="389.509,288.273 387.839,287.319 387.839,269.902 389.509,270.737 											"/>
										</g>
										<g>
											<polygon fill="#3B7897" points="404.421,278.491 406.449,279.446 406.449,296.982 404.421,295.909 											"/>
										</g>
									</g>
								</g>
								<g>
									<g>
										<polygon fill="#3D4349" points="517.158,544.049 532.547,536.295 532.547,524.007 517.158,531.643 										"/>
									</g>
								</g>
								<g>
									<g>
										<polygon fill="#3D4349" points="551.158,526.989 566.547,519.235 566.547,506.947 551.158,514.582 										"/>
									</g>
								</g>
								<g>
									<polygon fill="#1A1D1F" points="564.28,518.161 551.158,524.842 551.158,526.989 566.547,519.235 566.547,506.947 
										564.28,508.141 									"/>
								</g>
								<g>
									<polygon fill="#1A1D1F" points="530.28,535.221 517.158,541.901 517.158,544.049 532.547,536.295 532.547,524.007 
										530.28,525.2 									"/>
								</g>
							</g>
						</g>
					</g>
				</g>
			</g>
			<g>
				<g enable-background="new    ">
					<g>
						<g>
							<polygon fill="#5E7B85" points="187.417,419.024 181.453,416.758 180.379,362.119 186.344,364.386 							"/>
						</g>
					</g>
					<g enable-background="new    ">
						<g>
							<defs>
								<path id="SVGID_10_" d="M231.2,250.337l5.965,2.267c-2.982-1.074-6.442-1.074-10.141,0.358l-5.965-2.267
									C224.758,249.263,228.218,249.263,231.2,250.337z"/>
							</defs>
							<clipPath id="SVGID_11_">
								<use xlink:href="#SVGID_10_"  overflow="visible"/>
							</clipPath>
							<g clip-path="url(#SVGID_11_)" enable-background="new    ">
								<g>
									<path fill="#789CA8" d="M227.024,253.081l-5.965-2.267c0.239-0.119,0.358-0.119,0.597-0.239l5.965,2.267
										C227.382,252.842,227.144,252.961,227.024,253.081"/>
								</g>
								<g>
									<path fill="#7498A4" d="M227.502,252.842l-5.965-2.267c0.835-0.357,1.79-0.596,2.625-0.715l5.965,2.267
										C229.291,252.246,228.456,252.484,227.502,252.842"/>
								</g>
								<g>
									<path fill="#71949F" d="M230.126,252.126l-5.965-2.267c0.715-0.12,1.431-0.239,2.028-0.239l5.965,2.267
										C231.558,251.888,230.842,252.007,230.126,252.126"/>
								</g>
								<g>
									<path fill="#6E8F9A" d="M232.154,251.888l-5.965-2.267c0.597,0,1.193,0,1.79,0l5.965,2.267
										C233.467,251.888,232.87,251.888,232.154,251.888"/>
								</g>
								<g>
									<path fill="#6A8B96" d="M234.063,251.888l-5.965-2.267c0.597,0,1.074,0.119,1.67,0.239l5.965,2.267
										C235.137,252.007,234.541,252.007,234.063,251.888"/>
								</g>
								<g>
									<path fill="#678791" d="M235.733,252.246l-5.965-2.267c0.477,0.119,0.954,0.239,1.432,0.477l5.965,2.267
										C236.688,252.484,236.21,252.365,235.733,252.246"/>
								</g>
							</g>
						</g>
					</g>
					<g enable-background="new    ">
						<g>
							<defs>
								<path id="SVGID_12_" d="M148.765,375.719l-5.965-2.267c-5.965-2.267-10.021-9.186-10.021-18.968l5.965,2.267
									C138.744,366.414,142.8,373.453,148.765,375.719z"/>
							</defs>
							<clipPath id="SVGID_13_">
								<use xlink:href="#SVGID_12_"  overflow="visible"/>
							</clipPath>
							<g clip-path="url(#SVGID_13_)" enable-background="new    ">
								<g>
									<path fill="#56717A" d="M148.765,375.719l-5.965-2.267c-5.965-2.267-10.021-9.186-10.021-18.968l5.965,2.267
										C138.744,366.414,142.8,373.453,148.765,375.719"/>
								</g>
							</g>
						</g>
					</g>
					<g>
						<g>
							<polygon fill="#80A7B4" points="158.905,279.923 152.94,277.775 221.06,250.814 227.024,253.081 							"/>
						</g>
					</g>
					<g>
						<g>
							<polygon fill="#5F7C86" points="138.744,356.632 132.779,354.484 132.779,312.252 138.744,314.52 							"/>
						</g>
					</g>
					<g enable-background="new    ">
						<g>
							<defs>
								<path id="SVGID_14_" d="M138.744,314.52l-5.965-2.267c0-14.673,9.067-30.182,20.162-34.596l5.965,2.267
									C147.811,284.337,138.744,299.846,138.744,314.52z"/>
							</defs>
							<clipPath id="SVGID_15_">
								<use xlink:href="#SVGID_14_"  overflow="visible"/>
							</clipPath>
							<g clip-path="url(#SVGID_15_)" enable-background="new    ">
								<g>
									<path fill="#56717A" d="M138.744,314.52l-5.965-2.267c0,0,0,0,0-0.119L138.744,314.52L138.744,314.52"/>
								</g>
								<g>
									<path fill="#5A757E" d="M138.744,314.4l-5.965-2.267c0-1.193,0.12-2.386,0.239-3.579l5.965,2.267
										C138.863,312.014,138.744,313.207,138.744,314.4"/>
								</g>
								<g>
									<path fill="#5D7A83" d="M138.982,310.821l-5.965-2.267c0.119-0.954,0.239-2.028,0.358-2.982l5.965,2.267
										C139.221,308.912,139.102,309.867,138.982,310.821"/>
								</g>
								<g>
									<path fill="#607E88" d="M139.34,307.839l-5.965-2.267c0.119-0.835,0.358-1.79,0.596-2.625l5.965,2.267
										C139.698,306.049,139.459,307.003,139.34,307.839"/>
								</g>
								<g>
									<path fill="#64828C" d="M139.937,305.214l-5.965-2.267c0.239-0.835,0.478-1.67,0.716-2.505l5.965,2.267
										C140.295,303.544,140.175,304.379,139.937,305.214"/>
								</g>
								<g>
									<path fill="#678791" d="M140.653,302.709l-5.965-2.267c0.239-0.835,0.478-1.67,0.835-2.386l5.965,2.267
										C141.13,301.039,140.891,301.874,140.653,302.709"/>
								</g>
								<g>
									<path fill="#6A8B96" d="M141.488,300.204l-5.965-2.267c0.358-0.835,0.596-1.67,0.954-2.386l5.965,2.267
										C142.084,298.653,141.727,299.488,141.488,300.204"/>
								</g>
								<g>
									<path fill="#6E8F9A" d="M142.442,297.817l-5.965-2.267c0.358-0.835,0.716-1.67,1.193-2.505l5.965,2.267
										C143.158,296.147,142.8,296.982,142.442,297.817"/>
								</g>
								<g>
									<path fill="#71949F" d="M143.635,295.312l-5.965-2.267c0.477-0.955,0.954-1.79,1.431-2.625l5.965,2.267
										C144.589,293.523,144.112,294.477,143.635,295.312"/>
								</g>
								<g>
									<path fill="#7498A4" d="M145.067,292.688l-5.965-2.267c0.597-0.954,1.312-2.028,1.909-2.982l5.965,2.267
										C146.379,290.66,145.663,291.733,145.067,292.688"/>
								</g>
								<g>
									<path fill="#789CA8" d="M147.095,289.825l-5.965-2.267c1.074-1.551,2.386-2.983,3.698-4.176l5.965,2.267
										C149.361,286.842,148.168,288.273,147.095,289.825"/>
								</g>
								<g>
									<path fill="#7BA1AD" d="M150.674,285.53l-5.965-2.267c1.431-1.432,2.982-2.625,4.533-3.698l5.965,2.267
										C153.656,282.905,152.105,284.098,150.674,285.53"/>
								</g>
								<g>
									<path fill="#789CA8" d="M155.207,281.832l-5.965-2.267c1.193-0.716,2.386-1.432,3.698-1.909l5.965,2.267
										C157.712,280.52,156.4,281.116,155.207,281.832"/>
								</g>
							</g>
						</g>
					</g>
					<g>
						<g>
							<path fill="#8BB6C5" d="M227.024,253.081c11.095-4.414,20.162,3.937,20.162,18.611v42.112
								c0,14.673-9.067,30.182-20.162,34.596l-13.6,5.369l-26.007,65.256l-1.074-54.639l-27.438,10.856
								c-11.095,4.414-20.162-3.937-20.162-18.61V314.52c0-14.674,9.067-30.183,20.162-34.597L227.024,253.081z"/>
						</g>
					</g>
				</g>
			</g>
		</g>
	</g>
</g>
</svg>
