<?xml version="1.0" encoding="utf-8"?>
<!-- Generator: Adobe Illustrator 18.1.1, SVG Export Plug-In . SVG Version: 6.00 Build 0)  -->
<svg version="1.1" id="Camada_1" xmlns="http://www.w3.org/2000/svg" xmlns:xlink="http://www.w3.org/1999/xlink" x="0px" y="0px"
	 viewBox="0 0 516.7 327.7" enable-background="new 0 0 516.7 327.7" xml:space="preserve">
<g>
	<rect x="13.1" y="9.1" fill="#F9C30C" width="490.6" height="309.5"/>
	<polygon opacity="0.2" fill="#383831" points="215.4,302.5 353.1,250.9 166.7,156 	"/>
	<polygon opacity="0.2" fill="#383831" points="340.4,238.6 478,187 291.6,92.1 	"/>
	<g>
		<polygon fill="#ECECEB" points="200.7,170.2 339.9,239.8 428.7,195.4 287.2,128 		"/>
		<polygon fill="#FFFFFF" points="200.7,166.2 339.9,235.8 428.7,191.3 287.2,123.9 		"/>
		<polygon fill="#ECECEB" points="200.7,162.1 339.9,231.7 428.7,187.3 287.2,119.9 		"/>
		<polygon fill="#FFFFFF" points="200.7,158.1 339.9,227.7 428.7,183.3 287.2,115.9 		"/>
		<polygon fill="#ECECEB" points="200.7,152.6 339.9,222.2 428.7,177.8 287.2,110.4 		"/>
		<polygon fill="#FFFFFF" points="200.7,148.6 339.9,218.2 428.7,173.8 287.2,106.4 		"/>
		<polygon fill="#ECECEB" points="200.7,144.6 339.9,214.2 428.7,169.7 287.2,102.3 		"/>
		<polygon fill="#FFFFFF" points="200.7,141.9 339.9,211.5 428.7,167.1 287.2,99.7 		"/>
		<polygon fill="#ECECEB" points="210.8,139.4 349.9,208.9 438.7,164.5 297.3,97.1 		"/>
		<polygon fill="#FFFFFF" points="210.8,135.3 349.9,204.9 438.7,160.5 297.3,93.1 		"/>
		<polygon fill="#ECECEB" points="210.8,131.2 349.9,200.8 438.7,156.4 297.3,89 		"/>
		<polygon fill="#FFFFFF" points="210.8,127.2 349.9,196.8 438.7,152.4 297.3,85 		"/>
		<polygon fill="#ECECEB" points="210.8,121.7 349.9,191.3 438.7,146.9 297.3,79.5 		"/>
		<polygon fill="#FFFFFF" points="210.8,117.8 349.9,187.3 438.7,142.9 297.3,75.5 		"/>
		<polygon fill="#ECECEB" points="210.8,113.7 349.9,183.3 438.7,138.9 297.3,71.5 		"/>
		<polygon fill="#FFFFFF" points="210.8,111.1 349.9,180.6 438.7,136.2 297.3,68.8 		"/>
		<polygon fill="#ECECEB" points="204.3,104.9 343.5,174.5 432.3,130.1 290.8,62.6 		"/>
		<polygon fill="#FFFFFF" points="204.3,100.8 343.5,170.4 432.3,126 290.8,58.6 		"/>
		<polygon fill="#ECECEB" points="204.3,96.8 343.5,166.3 432.3,121.9 290.8,54.5 		"/>
		<polygon fill="#FFFFFF" points="204.3,92.8 343.5,162.3 432.3,117.9 290.8,50.5 		"/>
		<polygon fill="#ECECEB" points="204.3,87.3 343.5,156.8 432.3,112.4 290.8,45 		"/>
		<polygon fill="#FFFFFF" points="204.3,83.3 343.5,152.9 432.3,108.4 290.8,41 		"/>
		<polygon fill="#ECECEB" points="204.3,79.2 343.5,148.8 432.3,104.4 290.8,37 		"/>
		<polygon fill="#FFFCF5" points="204.3,76.6 343.5,146.2 432.3,101.8 290.8,34.3 		"/>
	</g>
	<polygon fill="#779CA6" points="173.2,178 67.6,229.7 214.8,303 320.4,251.3 	"/>
	<polygon fill="#5B838C" points="173.2,178 67.6,229.7 67.6,188.8 173.2,137.1 	"/>
	<polygon fill="#6D969F" points="172.6,178.3 320.4,251.7 320.4,210.8 172.6,137.3 	"/>
	<g>
		<polygon fill="#ECECEB" points="82.9,218.4 222.1,287.9 310.9,243.5 169.4,176.1 		"/>
		<polygon fill="#FFFFFF" points="82.9,214.3 222.1,283.9 310.9,239.5 169.4,172.1 		"/>
		<polygon fill="#ECECEB" points="82.9,210.2 222.1,279.8 310.9,235.4 169.4,168 		"/>
		<polygon fill="#FFFFFF" points="82.9,204.8 222.1,274.4 310.9,230 169.4,162.6 		"/>
		<polygon fill="#ECECEB" points="82.9,200.8 222.1,270.3 310.9,225.9 169.4,158.5 		"/>
		<polygon fill="#FFFFFF" points="82.9,195.3 222.1,264.9 310.9,220.5 169.4,153.1 		"/>
		<polygon fill="#ECECEB" points="82.9,191.3 222.1,260.8 310.9,216.4 169.4,149 		"/>
		<polygon fill="#FFFFFF" points="82.9,187.2 222.1,256.8 310.9,212.4 169.4,145 		"/>
	</g>
	<polygon fill="#7DA1A8" points="67.6,229.7 214.4,303 214.4,262 67.6,188.8 	"/>
	<polygon fill="#5B838C" points="292.2,224.1 292.2,236.3 241.2,261.3 241.2,249.1 214.4,262 214.8,303 320.4,251.3 320.4,210.3 	
		"/>
	<g>
		<g enable-background="new    ">
			<defs>
				<polygon id="SVGID_1_" enable-background="new    " points="198.8,239.2 111.7,194.5 188.9,157.6 276,202.3 				"/>
			</defs>
			<clipPath id="SVGID_2_">
				<use xlink:href="#SVGID_1_"  overflow="visible"/>
			</clipPath>
			<g clip-path="url(#SVGID_2_)">
				<polyline fill="#ACAAAB" points="213.1,172.7 145.9,206.1 148.8,207.5 216,174.1 213.1,172.7 				"/>
				<polyline fill="#ACAAAB" points="218.4,175.3 151.2,208.6 154,210 221.2,176.7 218.4,175.3 				"/>
				<polyline fill="#ACAAAB" points="223.6,177.8 156.4,211.2 159.2,212.6 226.4,179.2 223.6,177.8 				"/>
				<polyline fill="#ACAAAB" points="228.8,180.4 161.6,213.8 164.5,215.1 231.7,181.8 228.8,180.4 				"/>
				<polyline fill="#ACAAAB" points="234.1,182.9 166.8,216.3 169.7,217.7 236.9,184.3 234.1,182.9 				"/>
				<polyline fill="#ACAAAB" points="239.3,185.5 172.1,218.9 174.9,220.3 242.1,186.9 239.3,185.5 				"/>
				<polyline fill="#ACAAAB" points="244.5,188 177.3,221.4 180.1,222.8 247.4,189.4 244.5,188 				"/>
				<polyline fill="#ACAAAB" points="249.7,190.6 182.5,224 185.4,225.4 252.6,192 249.7,190.6 				"/>
				<polyline fill="#ACAAAB" points="255,193.1 187.8,226.5 190.6,227.9 257.8,194.5 255,193.1 				"/>
				<polyline fill="#ACAAAB" points="260.2,195.7 193,229.1 195.8,230.5 263.1,197.1 260.2,195.7 				"/>
				<polyline fill="#ACAAAB" points="265.4,198.3 198.2,231.6 201.1,233 268.3,199.7 265.4,198.3 				"/>
				<polyline fill="#ACAAAB" points="222.8,224.6 203.4,234.2 206.3,235.6 225.6,226 222.8,224.6 				"/>
				<polyline fill="#ACAAAB" points="141,189.8 121.6,199.4 123.5,200.3 142.9,190.7 141,189.8 				"/>
				<polyline fill="#ACAAAB" points="136.7,187.7 117.4,197.3 119.3,198.3 138.6,188.7 136.7,187.7 				"/>
				<polyline fill="#ACAAAB" points="132.4,185.6 113.1,195.2 115,196.2 134.3,186.6 132.4,185.6 				"/>
				<polyline fill="#ACAAAB" points="197.2,161.9 177.9,171.5 179.8,172.4 199.1,162.8 197.2,161.9 				"/>
				<polyline fill="#ACAAAB" points="192.9,159.8 173.6,169.4 175.5,170.3 194.8,160.7 192.9,159.8 				"/>
				<polyline fill="#ACAAAB" points="188.6,157.7 169.3,167.3 171.2,168.2 190.5,158.6 188.6,157.7 				"/>
				<polyline fill="#ACAAAB" points="162.2,192.8 140.7,203.5 143.5,204.9 165.1,194.2 162.2,192.8 				"/>
			</g>
		</g>
	</g>
	<g>
		<g enable-background="new    ">
			<defs>
				<polygon id="SVGID_3_" enable-background="new    " points="318.7,130.7 231.6,86.1 308.8,49.1 395.9,93.8 				"/>
			</defs>
			<clipPath id="SVGID_4_">
				<use xlink:href="#SVGID_3_"  overflow="visible"/>
			</clipPath>
			<g clip-path="url(#SVGID_4_)">
				<polyline fill="#ACAAAB" points="333.1,64.3 265.9,97.6 268.7,99 335.9,65.6 333.1,64.3 				"/>
				<polyline fill="#ACAAAB" points="338.3,66.8 271.1,100.2 273.9,101.6 341.2,68.2 338.3,66.8 				"/>
				<polyline fill="#ACAAAB" points="343.5,69.4 276.3,102.7 279.2,104.1 346.4,70.8 343.5,69.4 				"/>
				<polyline fill="#ACAAAB" points="348.8,71.9 281.6,105.3 284.4,106.7 351.6,73.3 348.8,71.9 				"/>
				<polyline fill="#ACAAAB" points="354,74.5 286.8,107.9 289.6,109.3 356.9,75.9 354,74.5 				"/>
				<polyline fill="#ACAAAB" points="359.2,77 292,110.4 294.9,111.8 362.1,78.4 359.2,77 				"/>
				<polyline fill="#ACAAAB" points="364.5,79.6 297.2,113 300.1,114.4 367.3,81 364.5,79.6 				"/>
				<polyline fill="#ACAAAB" points="369.7,82.1 302.5,115.5 305.3,116.9 372.5,83.5 369.7,82.1 				"/>
				<polyline fill="#ACAAAB" points="374.9,84.7 307.7,118.1 310.6,119.5 377.8,86.1 374.9,84.7 				"/>
				<polyline fill="#ACAAAB" points="380.1,87.2 312.9,120.6 315.8,122 383,88.6 380.1,87.2 				"/>
				<polyline fill="#ACAAAB" points="385.4,89.8 318.2,123.2 321,124.6 388.2,91.2 385.4,89.8 				"/>
				<polyline fill="#ACAAAB" points="342.7,116.1 323.4,125.7 326.2,127.1 345.6,117.5 342.7,116.1 				"/>
				<polyline fill="#ACAAAB" points="260.9,81.4 241.6,91 243.5,91.9 262.8,82.3 260.9,81.4 				"/>
				<polyline fill="#ACAAAB" points="256.6,79.3 237.3,88.9 239.2,89.8 258.5,80.2 256.6,79.3 				"/>
				<polyline fill="#ACAAAB" points="252.4,77.2 233,86.8 234.9,87.7 254.3,78.1 252.4,77.2 				"/>
				<polyline fill="#ACAAAB" points="317.1,53.4 297.8,63 299.7,64 319,54.4 317.1,53.4 				"/>
				<polyline fill="#ACAAAB" points="312.9,51.3 293.5,60.9 295.4,61.9 314.8,52.3 312.9,51.3 				"/>
				<polyline fill="#ACAAAB" points="308.6,49.2 289.3,58.9 291.2,59.8 310.5,50.2 308.6,49.2 				"/>
				<polyline fill="#ACAAAB" points="282.2,84.4 260.6,95.1 263.5,96.5 285,85.8 282.2,84.4 				"/>
			</g>
		</g>
	</g>
	<polygon fill="#FFECD0" stroke="#100002" stroke-miterlimit="10" points="288.1,259.2 250,277.8 250,263.1 288.1,244.4 	"/>
</g>
</svg>
