<?xml version="1.0" encoding="utf-8"?>
<!-- Generator: Adobe Illustrator 18.1.1, SVG Export Plug-In . SVG Version: 6.00 Build 0)  -->
<svg version="1.1" id="Camada_1" xmlns="http://www.w3.org/2000/svg" xmlns:xlink="http://www.w3.org/1999/xlink" x="0px" y="0px"
	 viewBox="0 0 516.7 327.7" enable-background="new 0 0 516.7 327.7" xml:space="preserve">
<g>
	<g>
		<rect x="7.4" y="9.5" fill="#7E57C2" width="502" height="309.5"/>
	</g>
	<g>
		<g opacity="0.2">
			<polygon fill="#211915" points="255.5,314.5 369.8,272.2 203.8,203.1 			"/>
		</g>
		<g>
			<g>
				<g>
					<polygon fill="#64A4A7" points="203.8,203.1 121.3,243.6 253.6,310.5 335.4,269.3 					"/>
				</g>
				<g>
					<path fill="#303030" d="M189.2,255.5l-16.1,7.9c-1.4,0.7-1.4,2.6,0,3.3l28.4,14.4c0.5,0.3,1.1,0.3,1.7,0l16-8.1
						c1.3-0.7,1.3-2.6,0-3.3l-28.3-14.2C190.3,255.3,189.7,255.3,189.2,255.5z"/>
				</g>
				<g>
					<g>
						<g>
							<polygon fill="#FFFFFF" points="160.6,237.3 152,233 160.3,228.8 168.9,233.2 							"/>
						</g>
						<g>
							<polygon fill="#FFFFFF" points="170.9,242.3 162.3,238.1 170.6,233.8 179.2,238.2 							"/>
						</g>
						<g>
							<polygon fill="#FFFFFF" points="181.2,247.4 172.6,243.2 180.9,238.9 189.5,243.3 							"/>
						</g>
						<g>
							<polygon fill="#FFFFFF" points="191.5,252.5 182.9,248.2 191.2,244 199.8,248.4 							"/>
						</g>
						<g>
							<polygon fill="#FFFFFF" points="201.8,257.6 193.2,253.3 201.5,249.1 210.2,253.4 							"/>
						</g>
						<g>
							<polygon fill="#FFFFFF" points="212.1,262.6 203.5,258.4 211.8,254.1 220.5,258.5 							"/>
						</g>
						<g>
							<polygon fill="#FFFFFF" points="222.4,267.7 213.8,263.4 222.1,259.2 230.8,263.6 							"/>
						</g>
						<g>
							<polygon fill="#FFFFFF" points="232.7,272.8 224.1,268.5 232.4,264.3 241.1,268.7 							"/>
						</g>
						<g>
							<polygon fill="#FFFFFF" points="243,277.8 234.5,273.6 242.7,269.3 251.4,273.7 							"/>
						</g>
						<g>
							<polygon fill="#FFFFFF" points="253.3,282.9 244.8,278.7 253.1,274.4 261.7,278.8 							"/>
						</g>
						<g>
							<polygon fill="#FFFFFF" points="263.7,288 255.1,283.7 263.4,279.5 272,283.9 							"/>
						</g>
						<g>
							<polygon fill="#FFFFFF" points="274,293.1 265.4,288.8 273.7,284.6 282.3,288.9 							"/>
						</g>
					</g>
					<g>
						<g>
							<polygon fill="#FFFFFF" points="172.3,231.8 163.7,227.5 172,223.3 180.6,227.7 							"/>
						</g>
						<g>
							<polygon fill="#FFFFFF" points="182.6,236.9 174,232.6 182.3,228.4 190.9,232.8 							"/>
						</g>
						<g>
							<polygon fill="#FFFFFF" points="192.9,241.9 184.3,237.7 192.6,233.4 201.3,237.8 							"/>
						</g>
						<g>
							<polygon fill="#FFFFFF" points="203.2,247 194.6,242.8 202.9,238.5 211.6,242.9 							"/>
						</g>
						<g>
							<polygon fill="#FFFFFF" points="213.5,252.1 204.9,247.8 213.2,243.6 221.9,248 							"/>
						</g>
						<g>
							<polygon fill="#FFFFFF" points="223.8,257.2 215.3,252.9 223.5,248.7 232.2,253 							"/>
						</g>
						<g>
							<polygon fill="#FFFFFF" points="234.1,262.2 225.6,258 233.8,253.7 242.5,258.1 							"/>
						</g>
						<g>
							<polygon fill="#FFFFFF" points="244.5,267.3 235.9,263 244.2,258.8 252.8,263.2 							"/>
						</g>
						<g>
							<polygon fill="#FFFFFF" points="254.8,272.4 246.2,268.1 254.5,263.9 263.1,268.3 							"/>
						</g>
						<g>
							<polygon fill="#FFFFFF" points="265.1,277.4 256.5,273.2 264.8,268.9 273.4,273.3 							"/>
						</g>
						<g>
							<polygon fill="#FFFFFF" points="275.4,282.5 266.8,278.3 275.1,274 283.7,278.4 							"/>
						</g>
						<g>
							<polygon fill="#FFFFFF" points="285.7,287.6 277.1,283.3 285.4,279.1 294,283.5 							"/>
						</g>
					</g>
					<g>
						<g>
							<polygon fill="#FFFFFF" points="184,226.3 175.4,222.1 183.7,217.8 192.4,222.2 							"/>
						</g>
						<g>
							<polygon fill="#FFFFFF" points="194.3,231.4 185.7,227.1 194,222.9 202.7,227.3 							"/>
						</g>
						<g>
							<polygon fill="#FFFFFF" points="204.6,236.5 196,232.2 204.3,228 213,232.4 							"/>
						</g>
						<g>
							<polygon fill="#FFFFFF" points="214.9,241.5 206.4,237.3 214.6,233 223.3,237.4 							"/>
						</g>
						<g>
							<polygon fill="#FFFFFF" points="225.2,246.6 216.7,242.4 225,238.1 233.6,242.5 							"/>
						</g>
						<g>
							<polygon fill="#FFFFFF" points="235.6,251.7 227,247.4 235.3,243.2 243.9,247.6 							"/>
						</g>
						<g>
							<polygon fill="#FFFFFF" points="245.9,256.8 237.3,252.5 245.6,248.3 254.2,252.6 							"/>
						</g>
						<g>
							<polygon fill="#FFFFFF" points="256.2,261.8 247.6,257.6 255.9,253.3 264.5,257.7 							"/>
						</g>
						<g>
							<polygon fill="#FFFFFF" points="266.5,266.9 257.9,262.6 266.2,258.4 274.8,262.8 							"/>
						</g>
						<g>
							<polygon fill="#FFFFFF" points="276.8,272 268.2,267.7 276.5,263.5 285.2,267.9 							"/>
						</g>
						<g>
							<polygon fill="#FFFFFF" points="287.1,277 278.5,272.8 286.8,268.5 295.5,272.9 							"/>
						</g>
						<g>
							<polygon fill="#FFFFFF" points="297.4,282.1 288.8,277.9 297.1,273.6 305.8,278 							"/>
						</g>
					</g>
					<g>
						<g>
							<polygon fill="#FFFFFF" points="195.7,220.9 187.2,216.6 195.4,212.3 204.1,216.7 							"/>
						</g>
						<g>
							<polygon fill="#FFFFFF" points="206,225.9 197.5,221.7 205.7,217.4 214.4,221.8 							"/>
						</g>
						<g>
							<polygon fill="#FFFFFF" points="216.3,231 207.8,226.7 216.1,222.5 224.7,226.9 							"/>
						</g>
						<g>
							<polygon fill="#FFFFFF" points="226.7,236.1 218.1,231.8 226.4,227.6 235,232 							"/>
						</g>
						<g>
							<polygon fill="#FFFFFF" points="237,241.1 228.4,236.9 236.7,232.6 245.3,237 							"/>
						</g>
						<g>
							<polygon fill="#FFFFFF" points="247.3,246.2 238.7,242 247,237.7 255.6,242.1 							"/>
						</g>
						<g>
							<polygon fill="#FFFFFF" points="257.6,251.3 249,247 257.3,242.8 265.9,247.2 							"/>
						</g>
						<g>
							<polygon fill="#FFFFFF" points="267.9,256.4 259.3,252.1 267.6,247.9 276.3,252.2 							"/>
						</g>
						<g>
							<polygon fill="#FFFFFF" points="278.2,261.4 269.6,257.2 277.9,252.9 286.6,257.3 							"/>
						</g>
						<g>
							<polygon fill="#FFFFFF" points="288.5,266.5 279.9,262.2 288.2,258 296.9,262.4 							"/>
						</g>
						<g>
							<polygon fill="#FFFFFF" points="298.8,271.6 290.3,267.3 298.5,263.1 307.2,267.5 							"/>
						</g>
						<g>
							<polygon fill="#FFFFFF" points="309.1,276.6 300.6,272.4 308.8,268.1 317.5,272.5 							"/>
						</g>
					</g>
				</g>
				<g>
					<polygon fill="#3E6D64" points="335.4,269.3 253.6,310.4 253.6,310.4 253.6,315.5 253.6,315.6 335.3,274.4 					"/>
				</g>
				<g>
					<polygon fill="#498079" points="121.4,243.6 253.5,310.4 253.6,310.3 253.6,315.5 253.5,315.5 121.4,248.6 					"/>
				</g>
			</g>
			<g>
				<polygon fill="#345B55" points="335.4,269.3 336,184 203.8,117 203.8,203.1 				"/>
			</g>
			<g>
				<g>
					<path fill="#CAF8FD" d="M328,185.9c1.1,0.6,2,2.2,2,3.5l-0.3,68.8c0,1.3-0.9,1.8-2,1.1l-117.3-58.6c-1.1-0.6-2-2.2-2-3.5
						l0.3-68.8c0-1.3,0.9-1.8,2-1.1L328,185.9z"/>
				</g>
			</g>
			<g>
				<polygon fill="#3E6D64" points="208.1,115.3 208.1,119.2 336,184 335.5,274.2 339.3,272 340.3,182.3 				"/>
			</g>
			<g>
				<polygon fill="#529085" points="203.8,117 208.1,115.3 340.3,182.3 336,184 				"/>
			</g>
		</g>
	</g>
	<g>
		<g>
			<g opacity="0.2">
				<polygon fill="#211915" points="414.3,248.9 448.2,236.1 404.2,212.6 				"/>
			</g>
			<g>
				<g>
					<g>
						<g>
							<g enable-background="new    ">
								<g>
									<g>
										<path fill="#495160" d="M400.7,234.2c0.8,0.4,1.5,0.5,2,0.2l-5,2.9c-0.5,0.3-1.2,0.2-2-0.2
											C397.2,236.2,399.2,235.1,400.7,234.2z"/>
									</g>
								</g>
								<g>
									<g>
										<path fill="#495160" d="M397.9,229.4c0,1.8,1.2,3.9,2.7,4.8l-5,2.9c-1.5-0.9-2.8-3-2.7-4.8
											C394.6,231.3,396.3,230.4,397.9,229.4c-1.7,1-3.3,1.9-5,2.9c0-0.9,0.3-1.5,0.8-1.8l5-2.9
											C398.3,227.9,397.9,228.5,397.9,229.4z"/>
									</g>
								</g>
								<g>
									<g>
										<path fill="#3F4651" d="M393.8,230.5l5-2.9c0.5-0.3,1.2-0.2,2,0.2l-5,2.9C395,230.3,394.3,230.2,393.8,230.5z"/>
									</g>
								</g>
								<g>
									<g>
										<path fill="#3F4651" d="M402.7,234.4l-5,2.9c0.5-0.3,0.8-0.9,0.8-1.8c0-1.8-1.2-3.9-2.8-4.8l5-2.9c1.5,0.9,2.8,3,2.8,4.8
											C403.5,233.5,403.2,234.1,402.7,234.4z"/>
									</g>
								</g>
								<g>
									<g>
										<polygon fill="#495160" points="379.7,219.8 384.7,216.9 416.7,235.5 411.7,238.4 										"/>
									</g>
								</g>
								<g>
									<g>
										<path fill="#EBEAEA" d="M395.4,217.3c-1.7,1-3.3,1.9-5,2.9c-0.2-0.2-0.3-0.5-0.4-0.7c1.7-1,3.3-1.9,5-2.9
											C395.1,216.9,395.3,217.1,395.4,217.3z"/>
									</g>
								</g>
								<g>
									<g>
										<path fill="#EBEAEA" d="M395.4,217.3c0.6,1,1.4,2,2.2,2.8c-1.7,1-3.3,1.9-5,2.9c-0.8-0.8-1.5-1.8-2.2-2.8
											C392.1,219.3,393.7,218.3,395.4,217.3z"/>
									</g>
								</g>
								<g>
									<g>
										<path fill="#EBEAEA" d="M397.6,220.1c1,1,2.1,1.9,3.2,2.6l-5,2.9c-1.1-0.7-2.2-1.5-3.2-2.6
											C394.2,222.1,395.9,221.1,397.6,220.1z"/>
									</g>
								</g>
								<g>
									<g>
										<path fill="#EBEAEA" d="M392.6,208.6c0,2.6,0.9,5.5,2.4,8.1c-1.7,1-3.3,1.9-5,2.9c-1.5-2.6-2.4-5.4-2.4-8.1
											c0-2.6,0.9-4.4,2.4-5.3l5-2.9C393.5,204.2,392.6,206,392.6,208.6z"/>
									</g>
								</g>
								<g>
									<g>
										<path fill="#EBEAEA" d="M400.7,222.7c2.3,1.3,4.3,1.4,5.8,0.6l-5,2.9c-1.5,0.9-3.6,0.7-5.8-0.6
											C397.2,224.8,399.2,223.6,400.7,222.7z"/>
									</g>
								</g>
								<g>
									<g>
										<polygon fill="#495160" points="380,152.2 385,149.3 384.7,216.9 379.7,219.8 										"/>
									</g>
								</g>
								<g>
									<g>
										<polygon fill="#EBEAEA" points="382.8,191.2 387.8,188.3 387.8,190.4 382.8,193.3 										"/>
									</g>
								</g>
								<g>
									<g>
										<polygon fill="#EBEAEA" points="382.8,186.1 387.8,183.2 387.8,185.3 382.8,188.2 										"/>
									</g>
								</g>
								<g>
									<g>
										<path fill="#C94C51" d="M390,206.2l5-2.9c1.5-0.9,3.6-0.7,5.8,0.6l-5,2.9C393.6,205.5,391.5,205.3,390,206.2z"/>
									</g>
								</g>
								<g>
									<g>
										<polygon fill="#EBEAEA" points="382.9,181 387.9,178.1 387.8,180.2 382.9,183.1 										"/>
									</g>
								</g>
								<g>
									<g>
										<path fill="#C94C51" d="M406.6,223.3l-5,2.9c1.5-0.9,2.4-2.7,2.4-5.3c0-5.2-3.6-11.5-8.2-14.2l5-2.9
											c4.5,2.6,8.2,9,8.2,14.2C409,220.6,408,222.5,406.6,223.3z"/>
									</g>
								</g>
								<g>
									<g>
										<polygon fill="#EBEAEA" points="382.9,175.9 387.9,173 387.9,175.1 382.9,178 										"/>
									</g>
								</g>
								<g>
									<g>
										<polygon fill="#EBEAEA" points="382.9,170.8 387.9,167.9 387.9,170 382.9,172.9 										"/>
									</g>
								</g>
								<g>
									<g>
										<polygon fill="#EBEAEA" points="382.8,193.3 387.8,190.4 414.5,205.9 409.5,208.8 										"/>
									</g>
								</g>
								<g>
									<g>
										<polygon fill="#708195" points="409.5,206.7 414.5,203.8 414.5,205.9 409.5,208.8 										"/>
									</g>
								</g>
								<g>
									<g>
										<polygon fill="#708195" points="409.5,206.7 409.5,208.8 382.8,193.3 382.8,191.2 										"/>
									</g>
								</g>
								<g>
									<g>
										<polygon fill="#708195" points="382.8,191.2 387.8,188.3 414.5,203.8 409.5,206.7 										"/>
									</g>
								</g>
								<g>
									<g>
										<polygon fill="#EBEAEA" points="382.8,188.2 387.8,185.3 414.5,200.8 409.5,203.7 										"/>
									</g>
								</g>
								<g>
									<g>
										<polygon fill="#708195" points="382.8,186.1 387.8,183.2 414.6,198.7 409.6,201.6 										"/>
									</g>
								</g>
								<g>
									<g>
										<polygon fill="#EBEAEA" points="382.9,183.1 387.8,180.2 414.6,195.7 409.6,198.6 										"/>
									</g>
								</g>
								<g>
									<g>
										<polygon fill="#708195" points="382.9,181 387.9,178.1 414.6,193.6 409.6,196.5 										"/>
									</g>
								</g>
								<g>
									<g>
										<polygon fill="#EBEAEA" points="382.9,178 387.9,175.1 414.6,190.6 409.6,193.5 										"/>
									</g>
								</g>
								<g>
									<g>
										<polygon fill="#708195" points="382.9,175.9 387.9,173 414.6,188.5 409.6,191.4 										"/>
									</g>
								</g>
								<g>
									<g>
										<polygon fill="#EBEAEA" points="382.9,172.9 387.9,170 414.6,185.5 409.6,188.4 										"/>
									</g>
								</g>
								<g>
									<g>
										<polygon fill="#708195" points="382.9,170.8 387.9,167.9 414.6,183.4 409.6,186.3 										"/>
									</g>
								</g>
								<g>
									<g>
										<polygon fill="#EBEAEA" points="382.9,168.4 387.9,165.6 397.8,171.3 392.8,174.2 										"/>
									</g>
								</g>
								<g>
									<g>
										<polygon fill="#EBEAEA" points="383,157 388,154.2 387.9,165.6 382.9,168.4 										"/>
									</g>
								</g>
								<g>
									<g>
										<polygon fill="#708195" points="409.6,201.6 414.6,198.7 414.5,200.8 409.5,203.7 										"/>
									</g>
								</g>
								<g>
									<g>
										<polygon fill="#708195" points="409.6,201.6 409.5,203.7 382.8,188.2 382.8,186.1 										"/>
									</g>
								</g>
								<g>
									<g>
										<polygon fill="#708195" points="409.6,196.5 409.6,198.6 382.9,183.1 382.9,181 										"/>
									</g>
								</g>
								<g>
									<g>
										<polygon fill="#708195" points="409.6,196.5 414.6,193.6 414.6,195.7 409.6,198.6 										"/>
									</g>
								</g>
								<g>
									<g>
										<polygon fill="#708195" points="392.9,162.8 397.9,159.9 397.8,171.3 392.8,174.2 										"/>
									</g>
								</g>
								<g>
									<g>
										<polygon fill="#708195" points="383,157 388,154.2 397.9,159.9 392.9,162.8 										"/>
									</g>
								</g>
								<g>
									<g>
										<polygon fill="#708195" points="409.6,191.4 414.6,188.5 414.6,190.6 409.6,193.5 										"/>
									</g>
								</g>
								<g>
									<g>
										<polygon fill="#708195" points="409.6,186.3 414.6,183.4 414.6,185.5 409.6,188.4 										"/>
									</g>
								</g>
								<g>
									<g>
										<path fill="#FBFBFB" d="M380,152.2l32,18.5l-0.3,67.6l-32-18.5L380,152.2z M395.7,225.6c4.5,2.6,8.2,0.5,8.2-4.7
											c0-5.2-3.6-11.5-8.2-14.2c-4.5-2.6-8.2-0.5-8.2,4.7C387.6,216.7,391.2,223,395.7,225.6 M383,157l0,11.4l9.9,5.7l0-11.4
											L383,157 M409.6,188.4l0-2.1l-26.7-15.5l0,2.1L409.6,188.4 M409.6,198.6l0-2.1L382.9,181l0,2.1L409.6,198.6 M409.5,208.8
											l0-2.1l-26.7-15.5l0,2.1L409.5,208.8 M409.5,203.7l0-2.1l-26.7-15.5l0,2.1L409.5,203.7 M409.6,193.5l0-2.1l-26.7-15.5
											l0,2.1L409.6,193.5"/>
									</g>
								</g>
								<g>
									<g>
										<path fill="#DD535F" d="M395.8,206.8c4.5,2.6,8.2,9,8.2,14.2c0,5.2-3.7,7.3-8.2,4.7c-4.5-2.6-8.2-9-8.1-14.2
											C387.6,206.3,391.3,204.2,395.8,206.8z"/>
									</g>
								</g>
								<g>
									<g>
										<polygon fill="#EBEAEA" points="412,170.8 417,167.9 416.7,235.5 411.7,238.4 										"/>
									</g>
								</g>
								<g>
									<g>
										<polygon fill="#EBEAEA" points="380,152.2 385,149.3 417,167.9 412,170.8 										"/>
									</g>
								</g>
								<g>
									<g>
										<path fill="#353E51" d="M411.9,165.2c2.1,1.2,3.8,4.2,3.8,6.6l-0.3,74.6c0,2.4-1.7,3.4-3.8,2.2l-31.8-18.4
											c-2.1-1.2-3.8-4.2-3.8-6.6l0.3-74.6c0-2.4,1.7-3.4,3.8-2.2L411.9,165.2z M411.7,238.4l0.3-67.6l-32-18.5l-0.3,67.6
											L411.7,238.4 M395.7,237.1c1.5,0.9,2.8,0.2,2.8-1.6c0-1.8-1.2-3.9-2.8-4.8c-1.5-0.9-2.8-0.2-2.8,1.6
											C392.9,234.1,394.2,236.2,395.7,237.1"/>
									</g>
								</g>
								<g>
									<g>
										<path fill="#3F4651" d="M395.7,230.7c1.5,0.9,2.8,3,2.8,4.8c0,1.8-1.3,2.5-2.8,1.6c-1.5-0.9-2.8-3-2.7-4.8
											C393,230.6,394.2,229.8,395.7,230.7z"/>
									</g>
								</g>
								<g>
									<g>
										<polygon fill="#708195" points="392.9,162.8 392.8,174.2 382.9,168.4 383,157 										"/>
									</g>
								</g>
								<g>
									<g>
										<polygon fill="#708195" points="409.6,191.4 409.6,193.5 382.9,178 382.9,175.9 										"/>
									</g>
								</g>
								<g>
									<g>
										<polygon fill="#708195" points="409.6,186.3 409.6,188.4 382.9,172.9 382.9,170.8 										"/>
									</g>
								</g>
								<g>
									<path fill="#495160" d="M416.9,162.3l-31.8-18.4c-1.1-0.6-2-0.7-2.7-0.3l-5,2.9c0.7-0.4,1.7-0.3,2.7,0.3l31.8,18.4
										c2.1,1.2,3.8,4.2,3.8,6.6l-0.3,74.6c0,1.2-0.4,2.1-1.1,2.5l5-2.9c0.7-0.4,1.1-1.2,1.1-2.5l0.3-74.6
										C420.8,166.5,419,163.5,416.9,162.3z"/>
								</g>
							</g>
						</g>
						<g>
							<g enable-background="new    ">
								<g>
									<g>
										<path fill="#495160" d="M400.7,234.2c0.8,0.4,1.5,0.5,2,0.2l-5,2.9c-0.5,0.3-1.2,0.2-2-0.2
											C397.2,236.2,399.2,235.1,400.7,234.2z"/>
									</g>
								</g>
								<g>
									<g>
										<path fill="#495160" d="M397.9,229.4c0,1.8,1.2,3.9,2.7,4.8l-5,2.9c-1.5-0.9-2.8-3-2.7-4.8
											C394.6,231.3,396.3,230.4,397.9,229.4c-1.7,1-3.3,1.9-5,2.9c0-0.9,0.3-1.5,0.8-1.8l5-2.9
											C398.3,227.9,397.9,228.5,397.9,229.4z"/>
									</g>
								</g>
								<g>
									<g>
										<path fill="#3F4651" d="M393.8,230.5l5-2.9c0.5-0.3,1.2-0.2,2,0.2l-5,2.9C395,230.3,394.3,230.2,393.8,230.5z"/>
									</g>
								</g>
								<g>
									<g>
										<path fill="#3F4651" d="M402.7,234.4l-5,2.9c0.5-0.3,0.8-0.9,0.8-1.8c0-1.8-1.2-3.9-2.8-4.8l5-2.9c1.5,0.9,2.8,3,2.8,4.8
											C403.5,233.5,403.2,234.1,402.7,234.4z"/>
									</g>
								</g>
								<g>
									<g>
										<polygon fill="#495160" points="379.7,219.8 384.7,216.9 416.7,235.5 411.7,238.4 										"/>
									</g>
								</g>
								<g>
									<g>
										<path fill="#EBEAEA" d="M395.4,217.3c-1.7,1-3.3,1.9-5,2.9c-0.2-0.2-0.3-0.5-0.4-0.7c1.7-1,3.3-1.9,5-2.9
											C395.1,216.9,395.3,217.1,395.4,217.3z"/>
									</g>
								</g>
								<g>
									<g>
										<path fill="#EBEAEA" d="M395.4,217.3c0.6,1,1.4,2,2.2,2.8c-1.7,1-3.3,1.9-5,2.9c-0.8-0.8-1.5-1.8-2.2-2.8
											C392.1,219.3,393.7,218.3,395.4,217.3z"/>
									</g>
								</g>
								<g>
									<g>
										<path fill="#EBEAEA" d="M397.6,220.1c1,1,2.1,1.9,3.2,2.6l-5,2.9c-1.1-0.7-2.2-1.5-3.2-2.6
											C394.2,222.1,395.9,221.1,397.6,220.1z"/>
									</g>
								</g>
								<g>
									<g>
										<path fill="#EBEAEA" d="M392.6,208.6c0,2.6,0.9,5.5,2.4,8.1c-1.7,1-3.3,1.9-5,2.9c-1.5-2.6-2.4-5.4-2.4-8.1
											c0-2.6,0.9-4.4,2.4-5.3l5-2.9C393.5,204.2,392.6,206,392.6,208.6z"/>
									</g>
								</g>
								<g>
									<g>
										<path fill="#EBEAEA" d="M400.7,222.7c2.3,1.3,4.3,1.4,5.8,0.6l-5,2.9c-1.5,0.9-3.6,0.7-5.8-0.6
											C397.2,224.8,399.2,223.6,400.7,222.7z"/>
									</g>
								</g>
								<g>
									<g>
										<polygon fill="#495160" points="380,152.2 385,149.3 384.7,216.9 379.7,219.8 										"/>
									</g>
								</g>
								<g>
									<g>
										<polygon fill="#EBEAEA" points="382.8,191.2 387.8,188.3 387.8,190.4 382.8,193.3 										"/>
									</g>
								</g>
								<g>
									<g>
										<polygon fill="#EBEAEA" points="382.8,186.1 387.8,183.2 387.8,185.3 382.8,188.2 										"/>
									</g>
								</g>
								<g>
									<g>
										<path fill="#C94C51" d="M390,206.2l5-2.9c1.5-0.9,3.6-0.7,5.8,0.6l-5,2.9C393.6,205.5,391.5,205.3,390,206.2z"/>
									</g>
								</g>
								<g>
									<g>
										<polygon fill="#EBEAEA" points="382.9,181 387.9,178.1 387.8,180.2 382.9,183.1 										"/>
									</g>
								</g>
								<g>
									<g>
										<path fill="#C94C51" d="M406.6,223.3l-5,2.9c1.5-0.9,2.4-2.7,2.4-5.3c0-5.2-3.6-11.5-8.2-14.2l5-2.9
											c4.5,2.6,8.2,9,8.2,14.2C409,220.6,408,222.5,406.6,223.3z"/>
									</g>
								</g>
								<g>
									<g>
										<polygon fill="#EBEAEA" points="382.9,175.9 387.9,173 387.9,175.1 382.9,178 										"/>
									</g>
								</g>
								<g>
									<g>
										<polygon fill="#EBEAEA" points="382.9,170.8 387.9,167.9 387.9,170 382.9,172.9 										"/>
									</g>
								</g>
								<g>
									<g>
										<polygon fill="#EBEAEA" points="382.8,193.3 387.8,190.4 414.5,205.9 409.5,208.8 										"/>
									</g>
								</g>
								<g>
									<g>
										<polygon fill="#708195" points="409.5,206.7 414.5,203.8 414.5,205.9 409.5,208.8 										"/>
									</g>
								</g>
								<g>
									<g>
										<polygon fill="#708195" points="409.5,206.7 409.5,208.8 382.8,193.3 382.8,191.2 										"/>
									</g>
								</g>
								<g>
									<g>
										<polygon fill="#708195" points="382.8,191.2 387.8,188.3 414.5,203.8 409.5,206.7 										"/>
									</g>
								</g>
								<g>
									<g>
										<polygon fill="#EBEAEA" points="382.8,188.2 387.8,185.3 414.5,200.8 409.5,203.7 										"/>
									</g>
								</g>
								<g>
									<g>
										<polygon fill="#708195" points="382.8,186.1 387.8,183.2 414.6,198.7 409.6,201.6 										"/>
									</g>
								</g>
								<g>
									<g>
										<polygon fill="#EBEAEA" points="382.9,183.1 387.8,180.2 414.6,195.7 409.6,198.6 										"/>
									</g>
								</g>
								<g>
									<g>
										<polygon fill="#708195" points="382.9,181 387.9,178.1 414.6,193.6 409.6,196.5 										"/>
									</g>
								</g>
								<g>
									<g>
										<polygon fill="#708195" points="382.9,175.9 387.9,173 414.6,188.5 409.6,191.4 										"/>
									</g>
								</g>
								<g>
									<g>
										<polygon fill="#EBEAEA" points="382.9,172.9 387.9,170 414.6,185.5 409.6,188.4 										"/>
									</g>
								</g>
								<g>
									<g>
										<polygon fill="#708195" points="382.9,170.8 387.9,167.9 414.6,183.4 409.6,186.3 										"/>
									</g>
								</g>
								<g>
									<g>
										<polygon fill="#EBEAEA" points="382.9,168.4 387.9,165.6 397.8,171.3 392.8,174.2 										"/>
									</g>
								</g>
								<g>
									<g>
										<polygon fill="#EBEAEA" points="383,157 388,154.2 387.9,165.6 382.9,168.4 										"/>
									</g>
								</g>
								<g>
									<g>
										<polygon fill="#708195" points="409.6,201.6 414.6,198.7 414.5,200.8 409.5,203.7 										"/>
									</g>
								</g>
								<g>
									<g>
										<polygon fill="#708195" points="409.6,201.6 409.5,203.7 382.8,188.2 382.8,186.1 										"/>
									</g>
								</g>
								<g>
									<g>
										<polygon fill="#708195" points="409.6,196.5 414.6,193.6 414.6,195.7 409.6,198.6 										"/>
									</g>
								</g>
								<g>
									<g>
										<polygon fill="#708195" points="392.9,162.8 397.9,159.9 397.8,171.3 392.8,174.2 										"/>
									</g>
								</g>
								<g>
									<g>
										<polygon fill="#708195" points="383,157 388,154.2 397.9,159.9 392.9,162.8 										"/>
									</g>
								</g>
								<g>
									<g>
										<polygon fill="#708195" points="409.6,191.4 414.6,188.5 414.6,190.6 409.6,193.5 										"/>
									</g>
								</g>
								<g>
									<g>
										<polygon fill="#708195" points="409.6,186.3 414.6,183.4 414.6,185.5 409.6,188.4 										"/>
									</g>
								</g>
								<g>
									<g>
										<path fill="#CAF8FD" d="M380,152.2l32,18.5l-0.3,67.6l-32-18.5L380,152.2z"/>
									</g>
								</g>
								<g>
									<g>
										<polygon fill="#EBEAEA" points="412,170.8 417,167.9 416.7,235.5 411.7,238.4 										"/>
									</g>
								</g>
								<g>
									<g>
										<polygon fill="#EBEAEA" points="380,152.2 385,149.3 417,167.9 412,170.8 										"/>
									</g>
								</g>
								<g>
									<g>
										<path fill="#353E51" d="M411.9,165.2c2.1,1.2,3.8,4.2,3.8,6.6l-0.3,74.6c0,2.4-1.7,3.4-3.8,2.2l-31.8-18.4
											c-2.1-1.2-3.8-4.2-3.8-6.6l0.3-74.6c0-2.4,1.7-3.4,3.8-2.2L411.9,165.2z M411.7,238.4l0.3-67.6l-32-18.5l-0.3,67.6
											L411.7,238.4 M395.7,237.1c1.5,0.9,2.8,0.2,2.8-1.6c0-1.8-1.2-3.9-2.8-4.8c-1.5-0.9-2.8-0.2-2.8,1.6
											C392.9,234.1,394.2,236.2,395.7,237.1"/>
									</g>
								</g>
								<g>
									<g>
										<path fill="#3F4651" d="M395.7,230.7c1.5,0.9,2.8,3,2.8,4.8c0,1.8-1.3,2.5-2.8,1.6c-1.5-0.9-2.8-3-2.7-4.8
											C393,230.6,394.2,229.8,395.7,230.7z"/>
									</g>
								</g>
								<g>
									<path fill="#495160" d="M416.9,162.3l-31.8-18.4c-1.1-0.6-2-0.7-2.7-0.3l-5,2.9c0.7-0.4,1.7-0.3,2.7,0.3l31.8,18.4
										c2.1,1.2,3.8,4.2,3.8,6.6l-0.3,74.6c0,1.2-0.4,2.1-1.1,2.5l5-2.9c0.7-0.4,1.1-1.2,1.1-2.5l0.3-74.6
										C420.8,166.5,419,163.5,416.9,162.3z"/>
								</g>
							</g>
						</g>
					</g>
					<g>
						<polygon fill="#353E51" points="415.7,171.3 415.6,246.9 414.3,245.6 414.4,173 						"/>
					</g>
				</g>
			</g>
		</g>
	</g>
	<g>
		<g opacity="0.2">
			<path fill="#211915" d="M67.2,183.3l32.5-12.1c0,0,15.2-8.1,13.7-8.1s-21.2,2.4-21.2,2.4L67.2,183.3z"/>
		</g>
		<g>
			<g>
				<g opacity="0.6">
					<polygon fill="#728090" points="93.2,168.3 67.2,183.2 67.2,127.1 93.3,112.1 					"/>
				</g>
				<g>
					<polygon fill="#233744" points="93.2,168.3 67.2,183.2 67.2,127.1 93.3,112.1 					"/>
				</g>
				<g>
					<path fill="#2E353A" d="M92.1,165.4c0,0.6-0.4,1.4-1,1.7l-21.9,12.6c-0.5,0.3-1,0.1-1-0.6l0.1-49.2c0-0.6,0.4-1.4,1-1.7
						l21.9-12.6c0.5-0.3,1-0.1,1,0.6L92.1,165.4z"/>
				</g>
				<g>
					<polygon fill="#FFFFFF" points="86.1,120.9 74.4,127.6 74.4,126.4 86.1,119.7 					"/>
				</g>
				<g>
					<path fill="#FFFFFF" d="M81,168.5c0,0.5-0.4,1.1-0.8,1.4c-0.4,0.3-0.8,0-0.8-0.5c0-0.5,0.4-1.1,0.8-1.4
						C80.6,167.8,81,168,81,168.5z"/>
				</g>
				<g>
					<path fill="#FFFFFF" d="M74.6,172.2c0,0.4-0.3,0.8-0.6,1c-0.3,0.2-0.6,0-0.6-0.3c0-0.4,0.3-0.8,0.6-1
						C74.4,171.7,74.6,171.8,74.6,172.2z"/>
				</g>
				<g>
					<path fill="#FFFFFF" d="M86.9,165.1c0,0.4-0.3,0.8-0.6,1c-0.3,0.2-0.6,0-0.6-0.3c0-0.4,0.3-0.8,0.6-1
						C86.6,164.6,86.9,164.7,86.9,165.1z"/>
				</g>
				<g>
					<polygon fill="#CAF8FD" points="90.9,159.8 69.3,172.2 69.4,132.8 90.9,120.4 					"/>
				</g>
				<g>
					<polygon fill="#3B617A" points="67.2,183.3 63.4,181.1 63.4,124.9 67.2,127.1 					"/>
				</g>
				<g>
					<polygon fill="#34556A" points="93.3,112.1 67.2,127.1 63.4,124.9 89.8,110.1 					"/>
				</g>
				<g>
					<polygon fill="#2E353A" points="74.4,121.2 67.4,125.3 66.3,124.7 73.5,120.6 					"/>
				</g>
				<g>
					<polygon fill="#34556A" points="67.2,183.3 63.4,181.1 63.4,124.9 67.2,127.1 					"/>
				</g>
				<g>
					<polygon fill="#2E353A" points="66,142.7 64.7,142 64.7,129.6 66,130.4 					"/>
				</g>
			</g>
		</g>
	</g>
	<g>
		<path fill="#FFFFFF" d="M75.1,106.5C75.1,106.5,75.1,106.5,75.1,106.5c-0.8,0-1.5-0.7-1.5-1.5l0.1-10.7c0-0.8,0.7-1.5,1.5-1.5
			c0,0,0,0,0,0c0.8,0,1.5,0.7,1.5,1.5L76.6,105C76.6,105.8,75.9,106.5,75.1,106.5z M75.2,89.9C75.2,89.9,75.2,89.9,75.2,89.9
			c-0.8,0-1.5-0.7-1.5-1.5l0.1-10.7c0-0.8,0.7-1.5,1.5-1.5c0,0,0,0,0,0c0.8,0,1.5,0.7,1.5,1.5l-0.1,10.7
			C76.7,89.2,76,89.9,75.2,89.9z M75.3,73.3C75.3,73.3,75.3,73.3,75.3,73.3c-0.8,0-1.5-0.7-1.5-1.5l0-1.7c0-0.6,0.3-1.1,0.8-1.3
			l8-4.1c0.7-0.4,1.6-0.1,2,0.7c0.4,0.7,0.1,1.6-0.7,2l-7.2,3.7l0,0.8C76.8,72.7,76.1,73.3,75.3,73.3z M88.5,64.9
			c-0.5,0-1.1-0.3-1.3-0.8c-0.4-0.7-0.1-1.6,0.7-2l9.6-4.8c0.7-0.4,1.6-0.1,2,0.7c0.4,0.7,0.1,1.6-0.7,2l-9.6,4.8
			C89,64.9,88.8,64.9,88.5,64.9z M103.3,57.4c-0.5,0-1.1-0.3-1.3-0.8c-0.4-0.7-0.1-1.6,0.7-2l9.6-4.8c0.7-0.4,1.6-0.1,2,0.7
			c0.4,0.7,0.1,1.6-0.7,2l-9.6,4.8C103.8,57.4,103.5,57.4,103.3,57.4z M118.1,49.9c-0.5,0-1.1-0.3-1.3-0.8c-0.4-0.7-0.1-1.6,0.7-2
			l9.6-4.8c0.7-0.4,1.6-0.1,2,0.7c0.4,0.7,0.1,1.6-0.7,2l-9.6,4.8C118.5,49.9,118.3,49.9,118.1,49.9z M201.6,45.9
			c-0.2,0-0.5-0.1-0.7-0.2l-9.6-4.8c-0.7-0.4-1-1.3-0.7-2c0.4-0.7,1.3-1,2-0.7l9.6,4.8c0.7,0.4,1,1.3,0.7,2
			C202.7,45.6,202.1,45.9,201.6,45.9z M132.9,42.4c-0.5,0-1.1-0.3-1.3-0.8c-0.4-0.7-0.1-1.6,0.7-2l9.6-4.8c0.7-0.4,1.6-0.1,2,0.7
			c0.4,0.7,0.1,1.6-0.7,2l-9.6,4.8C133.3,42.4,133.1,42.4,132.9,42.4z M186.8,38.5c-0.2,0-0.5-0.1-0.7-0.2l-9.6-4.8
			c-0.7-0.4-1-1.3-0.7-2c0.4-0.7,1.3-1,2-0.7l9.6,4.8c0.7,0.4,1,1.3,0.7,2C187.9,38.2,187.3,38.5,186.8,38.5z M147.6,34.9
			c-0.5,0-1.1-0.3-1.3-0.8c-0.4-0.7-0.1-1.6,0.7-2l9.6-4.8c0.7-0.4,1.6-0.1,2,0.7c0.4,0.7,0.1,1.6-0.7,2l-9.6,4.8
			C148.1,34.9,147.9,34.9,147.6,34.9z M172,31.1c-0.2,0-0.5-0.1-0.7-0.2l-7.7-3.9l-0.5,0.2c-0.7,0.4-1.6,0.1-2-0.7
			c-0.4-0.7-0.1-1.6,0.7-2l1.2-0.6c0.4-0.2,0.9-0.2,1.4,0l8.4,4.2c0.7,0.4,1,1.3,0.7,2C173.1,30.8,172.5,31.1,172,31.1z"/>
	</g>
	<g>
		<path fill="#FFFFFF" d="M278.4,147.9c-0.8,0-1.5-0.7-1.5-1.5V139c0-0.8,0.7-1.5,1.5-1.5s1.5,0.7,1.5,1.5v7.4
			C279.9,147.2,279.3,147.9,278.4,147.9z M278.4,134.7c-0.8,0-1.5-0.7-1.5-1.5v-10.7c0-0.8,0.7-1.5,1.5-1.5s1.5,0.7,1.5,1.5v10.7
			C279.9,134,279.3,134.7,278.4,134.7z M278.4,118.1c-0.8,0-1.5-0.7-1.5-1.5v-10.7c0-0.8,0.7-1.5,1.5-1.5s1.5,0.7,1.5,1.5v10.7
			C279.9,117.4,279.3,118.1,278.4,118.1z M278.4,101.5c-0.8,0-1.5-0.7-1.5-1.5V89.3c0-0.8,0.7-1.5,1.5-1.5s1.5,0.7,1.5,1.5V100
			C279.9,100.9,279.3,101.5,278.4,101.5z M277.6,85.5c-0.2,0-0.4,0-0.7-0.2l-9.6-4.7c-0.7-0.4-1.1-1.3-0.7-2c0.4-0.7,1.3-1.1,2-0.7
			l9.6,4.7c0.7,0.4,1.1,1.3,0.7,2C278.7,85.2,278.2,85.5,277.6,85.5z M262.7,78.2c-0.2,0-0.4,0-0.7-0.2l-9.6-4.7
			c-0.7-0.4-1.1-1.3-0.7-2c0.4-0.7,1.3-1.1,2-0.7l9.6,4.7c0.7,0.4,1.1,1.3,0.7,2C263.8,77.9,263.3,78.2,262.7,78.2z"/>
	</g>
	<g>
		<g enable-background="new    ">
			<g>
				<g>
					<path fill="#FBFBFB" d="M264.2,23.8l4.6,3c-2.8-1.8-6.8-1.7-11.3,0.6c-1.8,0.9-3.5,2.1-5.1,3.6l-4.6-3c1.6-1.4,3.3-2.6,5.1-3.6
						C257.4,22,261.4,22,264.2,23.8z"/>
				</g>
				<g>
					<path fill="#FBFBFB" d="M195.7,41.5c3.9-2.1,7.6-2.9,10.7-2.5c4.7-7.9,11.4-14.9,18.6-18.7c6.9-3.6,12.9-3.7,17.2-1l4.6,3
						c-4.3-2.7-10.3-2.6-17.2,1C222.4,27.1,215.8,34,211,42c-3.1-0.4-6.8,0.4-10.7,2.5c-12.2,6.4-22.5,22.8-23.1,36.6
						c-0.3,6.8,1.9,11.8,5.7,14.2l-4.6-3c-3.8-2.4-6-7.3-5.7-14.2C173.2,64.3,183.5,47.9,195.7,41.5z"/>
				</g>
			</g>
			<g>
				<g>
					<path fill="#E2E2E2" d="M229.6,23.3C222.4,27.1,215.8,34,211,42c-3.1-0.4-6.8,0.4-10.7,2.5c-12.2,6.4-22.5,22.8-23.1,36.6
						c-0.5,13.8,8.9,19.7,21.1,13.3L256.1,64c8.9-4.7,16.5-16.7,16.9-26.8c0.4-10.1-6.5-14.5-15.5-9.8c-1.8,0.9-3.5,2.1-5.1,3.6
						C250,20.9,240.8,17.4,229.6,23.3z"/>
				</g>
			</g>
		</g>
	</g>
	<g>
		<g enable-background="new    ">
			<g>
				<g>
					<polygon fill="#AD2C3F" points="239.4,81.4 232.1,78.5 240,74.5 247.3,77.3 					"/>
				</g>
			</g>
			<g>
				<g>
					<polygon fill="#6D1C28" points="232.2,123.1 224.9,120.3 215.9,105.8 223.2,108.6 					"/>
				</g>
			</g>
			<g>
				<g>
					<polygon fill="#6D1C28" points="223.2,108.6 215.9,105.8 207,91.3 214.3,94.1 					"/>
				</g>
			</g>
			<g>
				<g>
					<polygon fill="#AD2C3F" points="214.3,94.1 207,91.3 214.9,87.3 222.2,90.1 					"/>
				</g>
			</g>
			<g>
				<g>
					<polygon fill="#7A1F2C" points="222.2,90.1 214.9,87.3 213.8,57.5 221.1,60.4 					"/>
				</g>
			</g>
			<g>
				<g>
					<polygon fill="#AD2C3F" points="221.1,60.4 213.8,57.5 231,48.8 238.3,51.6 					"/>
				</g>
			</g>
			<g>
				<g>
					<polygon fill="#B52E41" points="239.4,81.4 247.3,77.3 239.7,100.2 232.2,123.1 223.2,108.6 214.3,94.1 222.2,90.1 221.1,60.4 
						238.3,51.6 					"/>
				</g>
			</g>
		</g>
	</g>
	<g>
		<path fill="#FFFFFF" d="M403.1,142.3c-0.8,0-1.5-0.7-1.5-1.5l0-10.7c0-0.8,0.7-1.5,1.5-1.5c0,0,0,0,0,0c0.8,0,1.5,0.7,1.5,1.5
			l0,10.7C404.6,141.7,403.9,142.3,403.1,142.3C403.1,142.3,403.1,142.3,403.1,142.3z M403,125.8c-0.8,0-1.5-0.7-1.5-1.5l0-10.7
			c0-0.8,0.7-1.5,1.5-1.5c0,0,0,0,0,0c0.8,0,1.5,0.7,1.5,1.5l0,10.7C404.5,125.1,403.8,125.8,403,125.8
			C403,125.8,403,125.8,403,125.8z M403,109.2c-0.8,0-1.5-0.7-1.5-1.5l0-10.7c0-0.8,0.7-1.5,1.5-1.5c0,0,0,0,0,0
			c0.8,0,1.5,0.7,1.5,1.5l0,10.7C404.5,108.5,403.8,109.2,403,109.2C403,109.2,403,109.2,403,109.2z M402.9,92.7
			c-0.8,0-1.5-0.7-1.5-1.5l0-10.7c0-0.8,0.7-1.5,1.5-1.5c0,0,0,0,0,0c0.8,0,1.5,0.7,1.5,1.5l0,10.7C404.4,92,403.7,92.7,402.9,92.7
			C402.9,92.7,402.9,92.7,402.9,92.7z M402.9,76.1c-0.8,0-1.5-0.7-1.5-1.5l0-2.9L396,69c-0.7-0.4-1-1.3-0.7-2c0.4-0.7,1.3-1,2-0.7
			l6.2,3.1c0.5,0.3,0.8,0.8,0.8,1.3l0,3.8C404.4,75.4,403.7,76.1,402.9,76.1C402.9,76.1,402.9,76.1,402.9,76.1z M391.5,66.5
			c-0.2,0-0.5-0.1-0.7-0.2l-9.6-4.8c-0.7-0.4-1-1.3-0.7-2c0.4-0.7,1.3-1,2-0.7l9.6,4.8c0.7,0.4,1,1.3,0.7,2
			C392.5,66.2,392,66.5,391.5,66.5z M376.7,59c-0.2,0-0.5-0.1-0.7-0.2l-9.6-4.8c-0.7-0.4-1-1.3-0.7-2c0.4-0.7,1.3-1,2-0.7l9.6,4.8
			c0.7,0.4,1,1.3,0.7,2C377.8,58.7,377.2,59,376.7,59z M361.9,51.6c-0.2,0-0.5-0.1-0.7-0.2l-9.6-4.8c-0.7-0.4-1-1.3-0.7-2
			c0.4-0.7,1.3-1,2-0.7l9.6,4.8c0.7,0.4,1,1.3,0.7,2C363,51.3,362.5,51.6,361.9,51.6z M272.7,48.6c-0.5,0-1.1-0.3-1.3-0.8
			c-0.4-0.7-0.1-1.6,0.7-2l0.5-0.2c0.7-0.4,1.6-0.1,2,0.7c0.4,0.7,0.1,1.6-0.7,2l-0.5,0.2C273.2,48.5,272.9,48.6,272.7,48.6z
			 M278.4,45.7c-0.5,0-1.1-0.3-1.3-0.8c-0.4-0.7-0.1-1.6,0.7-2l9.6-4.8c0.7-0.4,1.6-0.1,2,0.7c0.4,0.7,0.1,1.6-0.7,2l-9.6,4.8
			C278.9,45.6,278.7,45.7,278.4,45.7z M347.1,44.1c-0.2,0-0.5-0.1-0.7-0.2l-9.6-4.8c-0.7-0.4-1-1.3-0.7-2c0.4-0.7,1.3-1,2-0.7
			l9.6,4.8c0.7,0.4,1,1.3,0.7,2C348.2,43.8,347.7,44.1,347.1,44.1z M293.2,38.3c-0.5,0-1.1-0.3-1.3-0.8c-0.4-0.7-0.1-1.6,0.7-2
			l9.6-4.8c0.7-0.4,1.6-0.1,2,0.7s0.1,1.6-0.7,2l-9.6,4.8C293.7,38.2,293.5,38.3,293.2,38.3z M332.4,36.6c-0.2,0-0.5-0.1-0.7-0.2
			l-9.6-4.8c-0.7-0.4-1-1.3-0.7-2c0.4-0.7,1.3-1,2-0.7l9.6,4.8c0.7,0.4,1,1.3,0.7,2C333.4,36.3,332.9,36.6,332.4,36.6z M308,30.9
			c-0.5,0-1.1-0.3-1.3-0.8c-0.4-0.7-0.1-1.6,0.7-2l6.6-3.3c0.4-0.2,0.9-0.2,1.4,0l3,1.5c0.7,0.4,1,1.3,0.7,2c-0.4,0.7-1.3,1-2,0.7
			l-2.3-1.2l-5.9,3C308.5,30.8,308.3,30.9,308,30.9z"/>
	</g>
</g>
</svg>
