<?xml version="1.0" encoding="utf-8"?>
<!-- Generator: Adobe Illustrator 18.1.1, SVG Export Plug-In . SVG Version: 6.00 Build 0)  -->
<svg version="1.1" id="Layer_1" xmlns="http://www.w3.org/2000/svg" xmlns:xlink="http://www.w3.org/1999/xlink" x="0px" y="0px"
	 viewBox="0 0 458 366" enable-background="new 0 0 458 366" xml:space="preserve">
<g display="none">
	<line display="inline" fill="none" stroke="#000000" stroke-miterlimit="10" x1="945.4" y1="353.4" x2="748.7" y2="252.8"/>
	<line display="inline" fill="none" stroke="#000000" stroke-miterlimit="10" x1="932.6" y1="366.8" x2="732.4" y2="264.4"/>
	<line display="inline" fill="none" stroke="#000000" stroke-miterlimit="10" x1="744.6" y1="368.3" x2="945.4" y2="265.4"/>
	<line display="inline" fill="none" stroke="#000000" stroke-miterlimit="10" x1="731.5" y1="354.5" x2="928.9" y2="253.3"/>
</g>
<g>
	<g enable-background="new    ">
		<path fill="#076D7F" d="M231.2,304.6c-0.3,0-0.7,0-1,0c-0.9,0-1.9,0-2.8,0c-7.3-0.1-14.6-0.4-21.4-1c-9-0.8-18-2-27-3.6
			c-9.4-1.7-18.7-3.8-27.5-6.3c-2.9-0.8-5.7-1.7-8.5-2.6c0,0,0,0,0,0c-1.3-0.4-2.5-0.9-3.8-1.3c-0.4-0.1-0.7-0.3-1.1-0.4
			c-0.9-0.3-1.8-0.7-2.7-1c-1.1-0.4-2.2-0.8-3.2-1.2c-0.4-0.2-0.8-0.3-1.2-0.5c-0.9-0.4-1.9-0.7-2.8-1.1c-0.1-0.1-0.3-0.1-0.4-0.2
			c-49.1-19.9-85-53.7-96.1-93.5c0-0.2-0.1-0.3-0.1-0.5c-0.2-0.7-0.4-1.3-0.5-2c-0.1-0.3-0.2-0.7-0.2-1c-0.1-0.6-0.3-1.2-0.4-1.9
			c-0.2-0.9-0.4-1.7-0.5-2.6c-0.1-0.5-0.2-1-0.3-1.4c-0.1-0.6-0.2-1.2-0.3-1.7c-0.1-0.4-0.1-0.9-0.2-1.3c-0.1-0.7-0.2-1.5-0.3-2.2
			c0-0.3-0.1-0.6-0.1-0.9c-0.1-1-0.2-2-0.3-3c0-0.3,0-0.6-0.1-1c-0.1-0.8-0.1-1.6-0.1-2.3c0-0.3,0-0.6,0-1c0-1.1-0.1-2.1-0.1-3.2
			v36.5c0,1.1,0,2.1,0.1,3.2c0,0.3,0,0.6,0,1c0,0.8,0.1,1.6,0.1,2.3c0,0.3,0,0.6,0.1,1c0.1,1,0.2,2,0.3,3c0,0.3,0.1,0.6,0.1,0.9
			c0.1,0.7,0.2,1.5,0.3,2.2c0.1,0.4,0.1,0.9,0.2,1.3c0.1,0.6,0.2,1.2,0.3,1.7c0.1,0.5,0.2,1,0.3,1.4c0.2,0.9,0.3,1.7,0.5,2.6
			c0.1,0.6,0.3,1.2,0.4,1.9c0.1,0.3,0.2,0.7,0.2,1c0.2,0.7,0.3,1.3,0.5,2c0,0.2,0.1,0.3,0.1,0.5c11,39.8,46.9,73.5,96.1,93.5
			c0.1,0.1,0.3,0.1,0.4,0.2c0.9,0.4,1.8,0.7,2.8,1.1c0.4,0.2,0.8,0.3,1.3,0.5c1.1,0.4,2.1,0.8,3.2,1.2c0.9,0.3,1.8,0.7,2.8,1
			c0.4,0.1,0.7,0.3,1.1,0.4c1.3,0.4,2.5,0.9,3.8,1.3c0,0,0,0,0,0c1.3,0.4,2.7,0.9,4,1.3c1.5,0.5,3,0.9,4.5,1.4
			c1,0.3,2.1,0.6,3.1,0.9c0,0,0,0,0,0c22.5,6.2,47,9.8,72.7,10.1c0.9,0,1.9,0,2.8,0c0.3,0,0.5,0,0.8,0c0.1,0,0.1,0,0.2,0
			c0.1,0,0.2,0,0.3,0c0.4,0,0.5,0,1.5,0c9,0,17-0.5,26-1.3c10-0.9,19-2.2,28-4c11-2.2,22-5.1,33-8.6c40-13.4,73-35.7,93-63.1
			c5-7.1,10-14.6,13-22.3c3-6.2,5-12.5,6-19.1c1-5.9,2-12,2-18.1c0-0.8,0-1.6,0-2.4v-34V168v-2v-0.2
			C434,242.4,343.2,304.5,231.2,304.6z"/>
		<g>
			<path fill="#0DBBDB" d="M231.3,26.9c112.1,0,203,62.2,203,138.8c0,76.7-90.9,138.8-203,138.8s-203-62.2-203-138.8
				C28.3,89.1,119.2,26.9,231.3,26.9z"/>
		</g>
	</g>
</g>
<path opacity="0.15" d="M375.4,103.2c-10-47.9-71.6-75.6-137.7-61.8s-111.5,63.8-101.5,111.7c0,0,0,0,0,0l6.7,32.3
	c0.2,1,0.8,1.8,1.1,2.8c0.1,0.3,0.4,0.5,0.4,0.8c0.2,0.7,0.5,1.5,0.7,2.2c0.1,0.2,0.2,0.4,0.3,0.7c0.3,0.8,0.6,1.6,0.9,2.4
	c0.2,0.4,0.3,0.9,0.5,1.3c0.1,0.4,0.3,0.7,0.5,1.1c9.8,24.1,33.6,41.7,64.2,49.5c0.1,0,0.3,0.1,0.4,0.1c1,0.2,1.9,0.5,2.9,0.7
	c7.1,1.6,14.5,2.7,22.2,3.2c3.5,0.3,7,0.4,10.8,0.4c1.2,0,2.5,0,3.7-0.1c1.6,0,3.2-0.1,4.8-0.2c0.6,0,1.1-0.1,1.7-0.1
	c0.1,0,0.2,0,0.3,0c1.2-0.1,2.5-0.2,3.7-0.3c0.2,0,0.3,0,0.5,0c0.3,0,0.7-0.1,1-0.1c1-0.1,1.9-0.2,2.8-0.3c1.7-0.2,3.5-0.4,5.2-0.7
	c0.5-0.1,1-0.1,1.5-0.2c0.6-0.1,1.1-0.2,1.7-0.3c0.7-0.1,1.4-0.2,2.1-0.4c0.4-0.1,0.9-0.2,1.3-0.2c1.1-0.2,2.2-0.4,3.3-0.6
	c0,0,0.1,0,0.1,0c0.2-0.1,0.9-0.2,0.9-0.2c0.7-0.1,1.4-0.3,2.1-0.5c0.2,0,0.4-0.1,0.6-0.1c0.6-0.1,1.2-0.3,1.8-0.4
	c2.4-0.6,4.8-1.2,7.1-1.9c1.3-0.4,2.7-0.8,4.1-1.2c2.1-0.7,4.3-1.4,6.5-2.3c0.4-0.1,0.8-0.3,1.2-0.4c0,0,0.1,0,0.1,0
	c17.3-6.5,32.5-15.5,44.9-26.2c0,0,0,0,0.1,0c1-0.9,2-1.7,2.9-2.6c0.4-0.3,0.7-0.7,1.1-1c0.5-0.4,0.9-0.9,1.3-1.3
	c0.9-0.9,1.8-1.8,2.7-2.7c0.1-0.1,0.2-0.2,0.3-0.3c2.9-3.1,5.6-6.2,8-9.5c0.1-0.1,0.1-0.1,0.2-0.2c0.8-1,1.5-2.1,2.3-3.2
	c0.3-0.4,0.5-0.7,0.8-1.1c0.3-0.5,0.6-0.9,0.9-1.4c0.6-0.9,1.1-1.8,1.7-2.7c0.1-0.2,0.2-0.4,0.3-0.5c2.2-3.8,4.1-7.6,5.7-11.6
	c1.9-4.3,3.2-8.5,3.9-12.8c1.6-7.5,1.5-15.1,0.5-22.7c-0.1-1-0.7-2-0.9-3c-0.1-0.5-0.2-1-0.3-1.5v0l-6.4-30.8l-0.1-0.4l-0.2-0.9
	L375.4,103.2C375.4,103.3,375.4,103.2,375.4,103.2z"/>
<g>
	<path fill="#CACACA" d="M242.7,124.9c1,0.1,1.9,0.2,2.9,0.3c0.4,0.1,0.8,0.1,1.2,0.2c0.9,0.1,1.8,0.3,2.6,0.4
		c0.4,0.1,0.8,0.1,1.2,0.2c1.3,0.2,2.6,0.5,3.8,0.8c0.1,0,0.1,0,0.2,0c1.3,0.3,2.6,0.7,3.9,1c0.3,0.1,0.6,0.2,0.9,0.3
		c1.5,0.4,2.9,0.9,4.3,1.4c0.4,0.1,0.7,0.3,1.1,0.4c0.6,0.2,1.1,0.4,1.7,0.6c0.4,0.2,0.8,0.3,1.2,0.5c0.5,0.2,1.1,0.5,1.6,0.7
		c0.4,0.2,0.7,0.3,1.1,0.5c0.7,0.3,1.4,0.7,2.2,1c0.3,0.1,0.6,0.3,0.8,0.4c1,0.5,1.9,1,2.8,1.5c0.2,0.1,0.3,0.2,0.5,0.3
		c0.7,0.4,1.5,0.9,2.2,1.3c0.3,0.2,0.6,0.4,0.9,0.6c0.6,0.4,1.2,0.8,1.7,1.2c0.3,0.2,0.6,0.4,0.8,0.6c0.7,0.5,1.3,1,1.9,1.5
		c0.2,0.1,0.3,0.2,0.5,0.4c0.8,0.6,1.5,1.3,2.2,1.9c0.2,0.2,0.4,0.4,0.6,0.6c0.5,0.5,1,1,1.5,1.5c0.2,0.2,0.4,0.5,0.7,0.7
		c0.4,0.5,0.9,1,1.3,1.5c0.2,0.2,0.4,0.4,0.5,0.6c0.6,0.7,1.1,1.4,1.6,2.2c0.1,0.1,0.1,0.2,0.2,0.3c0.4,0.6,0.9,1.3,1.3,2
		c0.1,0.2,0.3,0.5,0.4,0.7c0.3,0.5,0.6,1.1,0.9,1.6c0.1,0.3,0.3,0.5,0.4,0.8c0.3,0.6,0.5,1.2,0.8,1.8c0.1,0.2,0.2,0.4,0.2,0.5
		c0.3,0.8,0.6,1.6,0.8,2.4c0.1,0.2,0.1,0.4,0.2,0.6c0.2,0.6,0.3,1.2,0.4,1.9c0.1,0.3,0.1,0.6,0.1,0.8c0.1,0.6,0.2,1.2,0.2,1.8
		c0,0.3,0.1,0.5,0.1,0.8c0.1,0.8,0.1,1.7,0.1,2.5l0.6-42.9c0-0.9,0-1.7-0.1-2.5c0-0.3-0.1-0.5-0.1-0.8c-0.1-0.6-0.1-1.2-0.2-1.8
		c0-0.3-0.1-0.6-0.1-0.8c-0.1-0.6-0.3-1.2-0.4-1.9c-0.1-0.2-0.1-0.4-0.2-0.6c-0.2-0.8-0.5-1.6-0.8-2.4c-0.1-0.2-0.1-0.4-0.2-0.5
		c-0.2-0.6-0.5-1.2-0.8-1.8c-0.1-0.3-0.3-0.5-0.4-0.8c-0.3-0.5-0.6-1.1-0.9-1.6c-0.1-0.2-0.3-0.5-0.4-0.7c-0.4-0.7-0.8-1.3-1.3-2
		c-0.1-0.1-0.1-0.2-0.2-0.2c-0.5-0.7-1.1-1.4-1.6-2.2c-0.2-0.2-0.4-0.4-0.5-0.6c-0.4-0.5-0.9-1-1.3-1.5c-0.2-0.2-0.4-0.5-0.7-0.7
		c-0.5-0.5-1-1-1.5-1.5c-0.2-0.2-0.4-0.4-0.6-0.6c-0.7-0.7-1.4-1.3-2.2-1.9c-0.1-0.1-0.3-0.2-0.4-0.4c-0.6-0.5-1.3-1-1.9-1.5
		c-0.3-0.2-0.5-0.4-0.8-0.6c-0.6-0.4-1.2-0.8-1.8-1.2c-0.3-0.2-0.6-0.4-0.9-0.6c-0.7-0.5-1.5-0.9-2.2-1.4c-0.2-0.1-0.3-0.2-0.5-0.3
		c-0.9-0.5-1.9-1-2.8-1.5c-0.3-0.1-0.6-0.3-0.8-0.4c-0.7-0.4-1.4-0.7-2.2-1c-0.2-0.1-0.3-0.2-0.5-0.2c-0.2-0.1-0.4-0.2-0.6-0.3
		c-0.5-0.2-1.1-0.5-1.6-0.7c-0.4-0.2-0.8-0.3-1.2-0.5c-0.6-0.2-1.1-0.4-1.7-0.6c-0.3-0.1-0.6-0.2-0.8-0.3c-0.1,0-0.2-0.1-0.3-0.1
		c-1.4-0.5-2.9-1-4.3-1.4c-0.1,0-0.3-0.1-0.4-0.1c-0.2,0-0.4-0.1-0.5-0.1c-1.3-0.4-2.6-0.7-3.9-1c0,0-0.1,0-0.1,0c0,0,0,0,0,0
		c-1.2-0.3-2.5-0.5-3.8-0.8c-0.2,0-0.3-0.1-0.5-0.1c-0.2,0-0.5-0.1-0.7-0.1c-0.9-0.2-1.8-0.3-2.6-0.4c-0.3,0-0.5-0.1-0.8-0.1
		c-0.2,0-0.3,0-0.5-0.1c-1-0.1-1.9-0.2-2.9-0.3c-0.2,0-0.4-0.1-0.7-0.1c0,0-0.1,0-0.1,0c-1.2-0.1-2.5-0.2-3.7-0.3
		c-0.1,0-0.1,0-0.2,0c-1-0.1-2-0.1-2.9-0.1c-0.4,0-0.7,0-1.1,0c-0.3,0-0.6,0-0.9,0c-0.8,0-1.6,0-2.4,0c-0.2,0-0.5,0-0.7,0
		c-0.2,0-0.4,0-0.7,0c-0.9,0-1.8,0.1-2.6,0.1c-0.3,0-0.6,0-0.9,0c-0.1,0-0.2,0-0.3,0c-1.3,0.1-2.6,0.2-3.8,0.3c0,0-0.1,0-0.1,0
		c-0.1,0-0.3,0-0.4,0.1c-1.2,0.1-2.4,0.3-3.5,0.5c-0.2,0-0.4,0-0.5,0.1c-0.2,0-0.3,0.1-0.5,0.1c-1.5,0.2-2.9,0.5-4.3,0.8
		c0,0,0,0,0,0c-1,0.2-1.9,0.4-2.9,0.7c-0.2,0.1-0.4,0.1-0.7,0.2c-0.7,0.2-1.4,0.3-2,0.5c0,0-0.1,0-0.1,0c-1.1,0.3-2.2,0.6-3.3,1
		c-0.3,0.1-0.5,0.2-0.8,0.3c-0.8,0.3-1.6,0.6-2.4,0.8c-0.2,0.1-0.3,0.1-0.5,0.2c-0.3,0.1-0.5,0.2-0.8,0.3c-0.5,0.2-0.9,0.4-1.4,0.6
		c-0.4,0.2-0.9,0.4-1.3,0.5c-0.5,0.2-0.9,0.4-1.4,0.6c-0.4,0.2-0.8,0.4-1.2,0.6c-0.5,0.2-0.9,0.4-1.4,0.7c-0.4,0.2-0.8,0.4-1.2,0.6
		c-0.4,0.2-0.9,0.5-1.3,0.7c-0.4,0.2-0.8,0.4-1.1,0.6c-0.4,0.2-0.8,0.5-1.2,0.8c-0.4,0.2-0.7,0.5-1.1,0.7c-0.4,0.3-0.8,0.5-1.2,0.8
		c-0.3,0.2-0.7,0.5-1,0.7c-0.4,0.3-0.7,0.5-1.1,0.8c-0.3,0.3-0.7,0.5-1,0.8c-0.3,0.3-0.7,0.6-1,0.8c-0.2,0.2-0.4,0.3-0.6,0.5
		c-0.1,0.1-0.2,0.2-0.3,0.3c-0.6,0.5-1.1,1-1.6,1.5c-0.2,0.2-0.4,0.3-0.5,0.5c-0.7,0.7-1.3,1.3-1.9,2c0,0-0.1,0.1-0.1,0.1
		c-0.3,0.4-0.6,0.7-0.9,1.1c-0.2,0.2-0.3,0.4-0.5,0.6c-0.5,0.6-0.9,1.2-1.3,1.8c0,0,0,0,0,0c0,0,0,0,0,0c-0.4,0.6-0.8,1.2-1.2,1.8
		c-0.1,0.2-0.2,0.4-0.3,0.5c-0.1,0.2-0.3,0.5-0.4,0.7c-0.1,0.1-0.1,0.2-0.2,0.3c-0.4,0.8-0.8,1.5-1.2,2.3c0,0.1-0.1,0.1-0.1,0.2
		c0,0,0,0,0,0c-0.4,0.8-0.7,1.6-1,2.4c0,0.1-0.1,0.2-0.1,0.2c-0.1,0.2-0.1,0.4-0.2,0.5c-0.2,0.6-0.3,1.1-0.5,1.7
		c0,0.1-0.1,0.3-0.1,0.4c0,0.1-0.1,0.3-0.1,0.4c-0.1,0.5-0.2,1.1-0.3,1.6c0,0.2-0.1,0.4-0.1,0.6c0,0.1,0,0.2,0,0.3
		c-0.1,0.6-0.1,1.2-0.2,1.8c0,0.2,0,0.4-0.1,0.6c0,0.1,0,0.2,0,0.2c0,0.3,0,0.7,0,1l-0.6,42.9c0-0.3,0-0.7,0-1c0-0.3,0-0.5,0.1-0.8
		c0-0.6,0.1-1.2,0.2-1.8c0-0.3,0.1-0.6,0.1-0.9c0.1-0.5,0.2-1.1,0.3-1.6c0.1-0.3,0.1-0.6,0.2-0.9c0.1-0.6,0.3-1.1,0.5-1.7
		c0.1-0.3,0.2-0.5,0.3-0.8c0.3-0.8,0.6-1.6,1-2.4c0-0.1,0.1-0.2,0.1-0.3c0.4-0.8,0.7-1.5,1.2-2.3c0.2-0.4,0.4-0.7,0.6-1.1
		c0.1-0.2,0.2-0.4,0.3-0.5c0.4-0.6,0.8-1.2,1.2-1.8c0,0,0,0,0,0c0.4-0.6,0.9-1.2,1.3-1.8c0.2-0.2,0.3-0.4,0.5-0.6
		c0.3-0.4,0.7-0.8,1-1.2c0.6-0.7,1.3-1.4,1.9-2c0.2-0.2,0.4-0.3,0.5-0.5c0.5-0.5,1.1-1,1.6-1.5c0.3-0.3,0.6-0.5,0.9-0.8
		c0.3-0.3,0.7-0.6,1-0.8c0.3-0.3,0.7-0.5,1-0.8c0.4-0.3,0.7-0.5,1.1-0.8c0.4-0.3,0.7-0.5,1.1-0.7c0.4-0.3,0.8-0.5,1.1-0.8
		c0.4-0.2,0.7-0.5,1.1-0.7c0.4-0.2,0.8-0.5,1.2-0.7c0.4-0.2,0.8-0.4,1.2-0.7c0.4-0.2,0.8-0.5,1.3-0.7c0.4-0.2,0.8-0.4,1.2-0.6
		c0.4-0.2,0.9-0.4,1.3-0.7c0.4-0.2,0.8-0.4,1.3-0.6c0.5-0.2,0.9-0.4,1.4-0.6c0.4-0.2,0.9-0.4,1.3-0.6c0.5-0.2,0.9-0.4,1.4-0.6
		c0.4-0.2,0.8-0.3,1.3-0.5c0.8-0.3,1.6-0.6,2.4-0.8c0.3-0.1,0.5-0.2,0.8-0.3c1.1-0.4,2.2-0.7,3.3-1c0.7-0.2,1.4-0.4,2.2-0.6
		c0.2-0.1,0.4-0.1,0.7-0.2c1-0.2,1.9-0.5,2.9-0.7c1.4-0.3,2.9-0.6,4.3-0.8c0.4-0.1,0.7-0.1,1.1-0.2c1.2-0.2,2.3-0.3,3.5-0.5
		c0.2,0,0.4,0,0.6-0.1c1.3-0.1,2.5-0.2,3.8-0.3c0.4,0,0.8,0,1.2-0.1c0.9,0,1.8-0.1,2.6-0.1c0.5,0,0.9,0,1.4,0c0.8,0,1.6,0,2.4,0
		c0.7,0,1.3,0,2,0c1.1,0,2.1,0.1,3.1,0.1c1.2,0.1,2.5,0.2,3.7,0.3C242.1,124.8,242.4,124.8,242.7,124.9z"/>
	<path fill="#E4E4E4" d="M358.7,128.3c0,0.3,0,0.7-0.1,1c0,0.5-0.1,1-0.1,1.5c0,0.3-0.1,0.6-0.1,0.9c-0.1,0.5-0.1,1-0.2,1.5
		c0,0.3-0.1,0.6-0.1,0.9c-0.1,0.5-0.2,1.1-0.3,1.6c0,0.2-0.1,0.5-0.1,0.7c-0.1,0.7-0.3,1.5-0.5,2.2c0,0.1,0,0.1,0,0.2
		c-0.2,0.7-0.4,1.5-0.6,2.2c-0.1,0.2-0.1,0.5-0.2,0.7c-0.2,0.5-0.3,1.1-0.5,1.6c-0.1,0.3-0.2,0.5-0.3,0.8c-0.2,0.6-0.4,1.1-0.6,1.7
		c-0.1,0.2-0.2,0.4-0.3,0.7c-0.3,0.8-0.6,1.5-1,2.3c-0.1,0.1-0.1,0.3-0.2,0.4c-0.3,0.7-0.6,1.3-1,2c-0.1,0.2-0.2,0.5-0.4,0.7
		c-0.3,0.6-0.7,1.3-1,1.9c-0.1,0.1-0.2,0.3-0.2,0.4c-0.5,0.8-1,1.7-1.5,2.5c-0.1,0.2-0.3,0.4-0.4,0.6c-0.5,0.8-1.1,1.7-1.7,2.5
		c0,0,0,0,0,0c-0.8,1.1-1.5,2.1-2.4,3.2c-0.1,0.1-0.1,0.2-0.2,0.3c-0.8,1-1.6,2-2.5,2.9c-0.1,0.1-0.2,0.3-0.4,0.4
		c-0.6,0.7-1.2,1.3-1.8,2c-0.1,0.1-0.1,0.1-0.2,0.2c-0.6,0.6-1.1,1.1-1.7,1.7c-0.2,0.2-0.4,0.4-0.6,0.6c-0.4,0.4-0.9,0.9-1.4,1.3
		c-0.2,0.2-0.5,0.4-0.7,0.6c-0.5,0.5-1,0.9-1.5,1.4c-0.2,0.1-0.3,0.3-0.5,0.4c-1.2,1-2.4,2-3.6,2.9c-0.1,0.1-0.1,0.1-0.2,0.2
		c-1.3,1-2.6,1.9-3.9,2.9c0,0-0.1,0.1-0.1,0.1c-1.4,1-2.8,1.9-4.2,2.8c0,0,0,0-0.1,0c-1.4,0.9-2.9,1.8-4.4,2.7c0,0-0.1,0.1-0.1,0.1
		c-1.5,0.8-3,1.7-4.5,2.5c-0.1,0-0.2,0.1-0.3,0.1c-1.5,0.8-3,1.5-4.6,2.3c-0.1,0.1-0.2,0.1-0.4,0.2c-1.5,0.7-3.1,1.4-4.7,2.1
		c-0.2,0.1-0.3,0.1-0.5,0.2c-1.6,0.7-3.1,1.3-4.7,1.9c-0.2,0.1-0.3,0.1-0.5,0.2c-2,0.7-4,1.5-6.1,2.1c-0.2,0.1-0.3,0.1-0.5,0.2
		c-2.1,0.7-4.3,1.3-6.5,2c-0.2,0-0.4,0.1-0.5,0.1c-1.6,0.4-3.2,0.9-4.8,1.2c-0.1,0-0.2,0-0.3,0.1c-1.6,0.4-3.2,0.8-4.9,1.1
		c-0.1,0-0.2,0.1-0.4,0.1c-1.3,0.3-2.6,0.5-4,0.8c-0.3,0.1-0.7,0.1-1,0.2c-1.3,0.2-2.7,0.5-4.1,0.7c-0.2,0-0.3,0-0.5,0.1
		c-1.1,0.2-2.2,0.3-3.3,0.5c-0.4,0.1-0.8,0.1-1.2,0.2c-1,0.1-2,0.2-3,0.4c-0.3,0-0.6,0.1-0.9,0.1c-1.2,0.1-2.4,0.2-3.6,0.3
		c-0.3,0-0.7,0.1-1,0.1c-0.9,0.1-1.8,0.1-2.7,0.2c-0.3,0-0.6,0-0.9,0.1c-2.4,0.1-4.9,0.3-7.4,0.3c-0.1,0-0.1,0-0.2,0
		c-2.4,0.1-4.9,0.1-7.4,0c-0.8,0-1.6,0-2.4,0c-2-0.1-4-0.2-5.9-0.3c-2.4-0.1-4.7-0.3-7-0.5c-0.5,0-1-0.1-1.5-0.2
		c-1.8-0.2-3.7-0.4-5.5-0.7c-0.8-0.1-1.5-0.2-2.3-0.3c-1.7-0.2-3.3-0.5-5-0.8c-0.9-0.2-1.9-0.3-2.8-0.5c-0.5-0.1-0.9-0.2-1.4-0.3
		c-1.7-0.3-3.4-0.7-5-1.1c-0.1,0-0.1,0-0.2,0c-1.7-0.4-3.4-0.8-5.1-1.3c-0.5-0.1-1-0.3-1.5-0.4c-1.2-0.3-2.3-0.7-3.5-1
		c-0.7-0.2-1.4-0.4-2.1-0.6c-1-0.3-2.1-0.7-3.1-1c-0.7-0.2-1.3-0.4-2-0.7c-0.8-0.3-1.6-0.6-2.4-0.9c-1.1-0.4-2.2-0.8-3.3-1.2
		c-0.8-0.3-1.5-0.6-2.3-0.9c-1-0.4-2.1-0.9-3.1-1.3c-1-0.4-2-0.9-3-1.3c-0.3-0.1-0.6-0.3-0.8-0.4c-1.4-0.7-2.8-1.4-4.1-2.1
		c-0.3-0.2-0.6-0.3-0.9-0.5c-1.2-0.7-2.5-1.3-3.7-2c-0.2-0.1-0.3-0.2-0.5-0.3c-1.3-0.8-2.6-1.5-3.9-2.3c-0.3-0.2-0.6-0.4-0.9-0.6
		c-1.3-0.8-2.5-1.6-3.7-2.5c0,0,0,0-0.1,0c-1.2-0.8-2.4-1.7-3.5-2.5c-0.3-0.2-0.5-0.4-0.8-0.6c-1.1-0.9-2.2-1.7-3.3-2.6
		c-0.2-0.1-0.3-0.3-0.4-0.4c-1-0.8-1.9-1.6-2.8-2.5c-0.2-0.2-0.4-0.4-0.6-0.6c-1-0.9-2-1.9-2.9-2.8c-0.2-0.2-0.4-0.4-0.6-0.6
		c-0.8-0.9-1.7-1.7-2.4-2.6c-0.1-0.2-0.3-0.3-0.4-0.5c-0.9-1-1.7-2-2.5-3c-0.2-0.2-0.4-0.5-0.5-0.7c-0.8-1-1.5-2-2.2-3
		c-0.1-0.1-0.1-0.1-0.2-0.2c-0.7-1.1-1.4-2.1-2.1-3.2c-0.2-0.2-0.3-0.5-0.5-0.7c-0.7-1.1-1.3-2.2-1.9-3.3c0-0.1-0.1-0.2-0.1-0.3
		c-0.5-1-1.1-2.1-1.5-3.2c-0.1-0.2-0.2-0.5-0.3-0.7c-0.5-1.1-1-2.2-1.4-3.4c-0.1-0.2-0.1-0.4-0.2-0.6c-0.4-1-0.7-2.1-1-3.1
		c-0.1-0.2-0.1-0.4-0.2-0.7c-0.3-1.2-0.6-2.3-0.9-3.5c-0.1-0.2-0.1-0.5-0.2-0.7c-0.2-1.1-0.4-2.2-0.6-3.2c0-0.2-0.1-0.3-0.1-0.5
		c-0.2-1.2-0.3-2.4-0.4-3.6c0-0.3,0-0.6,0-0.8c-0.1-1.2-0.1-2.5-0.1-3.7l-0.6,42.9v0l0,0v0c0,1.2,0,2.5,0.1,3.7c0,0.3,0,0.6,0,0.8
		c0.1,1.2,0.2,2.4,0.4,3.6c0,0.2,0.1,0.3,0.1,0.5c0.2,1.1,0.3,2.2,0.6,3.2c0.1,0.3,0.1,0.5,0.2,0.8c0.3,1.2,0.5,2.3,0.9,3.5
		c0.1,0.2,0.1,0.5,0.2,0.7c0.3,1,0.6,2,1,3.1c0.1,0.2,0.1,0.4,0.2,0.6c0.4,1.1,0.9,2.2,1.4,3.4c0.1,0.3,0.2,0.5,0.3,0.8
		c0.5,1,1,2.1,1.5,3.1c0.1,0.1,0.1,0.2,0.1,0.3c0.6,1.1,1.2,2.2,1.9,3.3c0.2,0.3,0.3,0.5,0.5,0.8c0.7,1.1,1.4,2.1,2.1,3.2
		c0.1,0.1,0.1,0.2,0.2,0.2c0.7,1,1.4,2,2.2,2.9c0.2,0.2,0.4,0.5,0.6,0.7c0.8,1,1.6,2,2.5,3c0.1,0.2,0.3,0.3,0.5,0.5
		c0.8,0.9,1.6,1.7,2.4,2.6c0.2,0.2,0.4,0.4,0.6,0.6c0.9,0.9,1.9,1.9,2.9,2.8c0.2,0.2,0.4,0.4,0.7,0.6c0.9,0.8,1.9,1.7,2.8,2.5
		c0.2,0.1,0.3,0.3,0.5,0.4c1.1,0.9,2.2,1.8,3.3,2.6c0.3,0.2,0.5,0.4,0.8,0.6c1.1,0.9,2.3,1.7,3.5,2.5c0,0,0,0,0.1,0.1
		c1.2,0.8,2.5,1.7,3.7,2.5c0.3,0.2,0.6,0.4,0.9,0.6c1.3,0.8,2.5,1.6,3.8,2.3c0.2,0.1,0.3,0.2,0.5,0.3c1.2,0.7,2.4,1.3,3.7,2
		c0.3,0.2,0.6,0.3,0.9,0.5c1.4,0.7,2.7,1.4,4.1,2.1c0.3,0.1,0.6,0.3,0.8,0.4c0.6,0.3,1.2,0.6,1.8,0.8c0.4,0.2,0.8,0.3,1.1,0.5
		c1,0.5,2.1,0.9,3.1,1.3c0.7,0.3,1.5,0.6,2.3,0.9c1.1,0.4,2.2,0.8,3.3,1.2c0.5,0.2,1,0.4,1.5,0.6c0.3,0.1,0.6,0.2,0.9,0.3
		c0.7,0.2,1.3,0.5,2,0.7c1,0.3,2.1,0.7,3.1,1c0.7,0.2,1.4,0.4,2.1,0.6c0.5,0.1,1,0.3,1.4,0.4c0.7,0.2,1.4,0.4,2,0.6
		c0.5,0.1,1,0.3,1.5,0.4c1.7,0.4,3.4,0.9,5.1,1.3c0,0,0,0,0,0c0.1,0,0.1,0,0.2,0c1.6,0.4,3.3,0.7,5,1.1c0.5,0.1,1,0.2,1.4,0.3
		c0.5,0.1,1,0.2,1.4,0.3c0.4,0.1,0.9,0.1,1.3,0.2c1.7,0.3,3.3,0.6,5,0.8c0.5,0.1,0.9,0.2,1.4,0.2c0.3,0,0.6,0.1,0.9,0.1
		c1.8,0.2,3.7,0.5,5.5,0.7c0.4,0,0.8,0.1,1.2,0.1c0.1,0,0.2,0,0.3,0c2.3,0.2,4.6,0.4,7,0.5c0.1,0,0.2,0,0.4,0
		c1.8,0.1,3.7-0.1,5.6-0.1c0.7,0,1.4-0.3,2.1-0.3c0.1,0,0.2,0,0.3,0c2.5,0,4.9,0,7.4,0c0,0,0,0,0.1,0c0,0,0.1,0.3,0.1,0.3
		c2.5-0.1,4.9,0,7.4-0.2c0.1,0,0.2,0.1,0.3,0.1c0.2,0,0.4,0,0.6,0c0.9-0.1,1.9-0.1,2.8-0.2c0.3,0,0.6,0,0.9-0.1
		c1.2-0.1,2.4-0.2,3.6-0.3c0.1,0,0.1,0,0.2,0c0.2,0,0.4,0,0.5-0.1c1-0.1,2.1-0.2,3.1-0.4c0.4,0,0.8-0.1,1.1-0.1
		c1.1-0.1,2.2-0.3,3.3-0.5c0.1,0,0.3,0,0.4-0.1c0,0,0.1,0,0.1,0c1.4-0.2,2.7-0.4,4.1-0.7c0.3-0.1,0.7-0.1,1-0.2
		c1.3-0.2,2.7-0.5,4-0.8c0,0,0.1,0,0.1,0c0.1,0,0.2,0,0.3-0.1c1.6-0.3,3.3-0.7,4.9-1.1c0.1,0,0.2,0,0.3-0.1c1.6-0.4,3.2-0.8,4.8-1.2
		c0.1,0,0.3-0.1,0.4-0.1c0.1,0,0.1,0,0.2,0c2.2-0.6,4.4-1.3,6.5-2c0.2-0.1,0.3-0.1,0.5-0.2c2.1-0.7,4.1-1.4,6.1-2.2
		c0.1,0,0.2-0.1,0.2-0.1c0.1,0,0.1,0,0.2-0.1c1.6-0.6,3.2-1.3,4.8-1.9c0.1-0.1,0.3-0.1,0.4-0.2c1.6-0.7,3.2-1.4,4.7-2.1
		c0.1-0.1,0.2-0.1,0.3-0.2c1.6-0.7,3.1-1.5,4.6-2.3c0.1,0,0.2-0.1,0.2-0.1c1.5-0.8,3-1.6,4.5-2.5c0,0,0.1,0,0.1-0.1
		c1.5-0.9,3-1.8,4.4-2.7c0,0,0,0,0,0c1.4-0.9,2.8-1.8,4.2-2.8c0,0,0.1-0.1,0.1-0.1c1.3-0.9,2.6-1.9,3.9-2.9c0.1-0.1,0.1-0.1,0.2-0.2
		c1.2-1,2.4-1.9,3.6-2.9c0,0,0.1,0,0.1-0.1c0.1-0.1,0.3-0.3,0.4-0.4c0.5-0.4,1-0.9,1.5-1.3c0.2-0.2,0.5-0.4,0.7-0.7
		c0.5-0.4,0.9-0.8,1.3-1.3c0.2-0.2,0.4-0.4,0.7-0.6c0.6-0.6,1.1-1.1,1.7-1.7c0.1-0.1,0.2-0.2,0.2-0.2c0.6-0.6,1.2-1.3,1.8-1.9
		c0.1-0.1,0.1-0.1,0.2-0.2c0.1-0.1,0.1-0.2,0.2-0.2c0.9-1,1.7-1.9,2.5-2.9c0.1-0.1,0.1-0.2,0.2-0.3c0.8-1,1.6-2.1,2.4-3.1
		c0,0,0,0,0,0c0,0,0,0,0-0.1c0.6-0.8,1.1-1.6,1.7-2.5c0.1-0.2,0.3-0.4,0.4-0.6c0.5-0.8,1-1.7,1.5-2.5c0,0,0-0.1,0.1-0.1
		c0.1-0.1,0.1-0.2,0.2-0.4c0.4-0.6,0.7-1.3,1-1.9c0.1-0.2,0.2-0.5,0.4-0.7c0.3-0.7,0.6-1.3,0.9-2c0.1-0.1,0.1-0.2,0.2-0.4
		c0,0,0-0.1,0-0.1c0.3-0.7,0.6-1.5,1-2.2c0.1-0.2,0.2-0.5,0.3-0.7c0.2-0.6,0.4-1.1,0.6-1.7c0-0.1,0.1-0.3,0.1-0.4
		c0-0.1,0.1-0.3,0.1-0.4c0.2-0.5,0.3-1,0.5-1.6c0.1-0.3,0.2-0.5,0.2-0.8c0.2-0.7,0.4-1.5,0.6-2.2c0,0,0-0.1,0-0.1c0,0,0-0.1,0-0.1
		c0.2-0.7,0.3-1.4,0.5-2.1c0-0.3,0.1-0.5,0.1-0.8c0.1-0.5,0.2-1,0.3-1.6c0-0.1,0-0.2,0.1-0.4c0-0.2,0-0.3,0.1-0.5
		c0.1-0.5,0.1-1,0.2-1.5c0-0.3,0.1-0.6,0.1-0.9c0-0.5,0.1-1,0.1-1.5c0-0.2,0-0.4,0-0.6c0-0.1,0-0.3,0-0.4c0-0.6,0-1.2,0.1-1.9
		c0.2-14.3,0.4-28.6,0.6-42.9C358.8,127.1,358.8,127.7,358.7,128.3z"/>
	<g>
		<path fill="#F5F3F4" d="M237.5,42.8c69.1,2,123.4,40.3,121.2,85.5c-2.2,45.2-60,80.3-129.2,78.3c-69.1-2-123.4-40.3-121.2-85.5
			C110.6,75.8,168.4,40.8,237.5,42.8z M231.5,168c36.5,1.1,67.1-17.5,68.3-41.4c1.2-23.9-27.5-44.2-64.1-45.2
			c-36.5-1.1-67.1,17.5-68.3,41.4C166.2,146.7,194.9,167,231.5,168"/>
	</g>
	<path fill="#EF5A24" d="M146.9,64.8c0,0-3.8,1.5-10.9,7.5c-7.5,6.4-10.1,10.1-10.1,10.1l47.6,23.9l-1.3,43.5c0,0,3.7-4.4,9-9.4
		c5.3-5,10.8-7.6,10.8-7.6l2.1-43.5L146.9,64.8z"/>
	<path opacity="0.2" d="M194.2,89.6c-0.1,0.1-0.2,0.1-0.4,0.2c-0.5,0.2-0.9,0.4-1.4,0.7c-0.4,0.2-0.8,0.4-1.2,0.6
		c-0.4,0.2-0.9,0.5-1.3,0.7c-0.4,0.2-0.8,0.4-1.1,0.6c-0.4,0.2-0.8,0.5-1.2,0.8c-0.4,0.2-0.7,0.5-1.1,0.7c-0.4,0.3-0.8,0.5-1.2,0.8
		c-0.3,0.2-0.7,0.5-1,0.7c-0.4,0.3-0.7,0.5-1.1,0.8c-0.3,0.3-0.7,0.5-1,0.8c-0.3,0.3-0.7,0.6-1,0.8c-0.2,0.2-0.4,0.3-0.6,0.5
		c-0.1,0.1-0.2,0.2-0.3,0.3c-0.6,0.5-1.1,1-1.6,1.5c-0.2,0.2-0.4,0.3-0.5,0.5c-0.7,0.7-1.3,1.3-1.9,2c0,0-0.1,0.1-0.1,0.1
		c-0.3,0.4-0.6,0.7-0.9,1.1c-0.2,0.2-0.3,0.4-0.5,0.6c-0.5,0.6-0.9,1.2-1.3,1.8c0,0,0,0,0,0c0,0,0,0,0,0c0,0,0,0.1-0.1,0.1l0.2,0.1
		l-1.3,43.5c0,0,0.1-0.1,0.4-0.4c0.1-0.1,0.1-0.2,0.2-0.3c0,0,0,0,0,0c0.4-0.6,0.9-1.2,1.3-1.8c0.2-0.2,0.3-0.4,0.5-0.6
		c0.3-0.4,0.7-0.8,1-1.2c0.6-0.7,1.3-1.4,1.9-2c0.2-0.2,0.4-0.3,0.5-0.5c0.5-0.5,1.1-1,1.6-1.5c0.3-0.3,0.6-0.5,0.9-0.8
		c0.3-0.3,0.7-0.6,1-0.8c0.3-0.3,0.7-0.5,1-0.8c0.1-0.1,0.2-0.2,0.3-0.2c4.7-4,9.1-6.1,9.1-6.1L194.2,89.6z"/>
	<path fill="#EF5A24" d="M318,64.8c0,0,3.8,1.5,10.9,7.5c7.5,6.4,10.1,10.1,10.1,10.1l-46.7,24.5l0.9,42.1c0,0-5.4-6.4-10.5-9.9
		c-6-4.2-12.3-6.7-12.3-6.7l0.3-43L318,64.8z"/>
	<path opacity="0.2" d="M293.2,148.9l-0.9-42.1l0.8-0.4c-0.4-0.5-0.7-1-1.1-1.4c-0.2-0.2-0.4-0.4-0.5-0.6c-0.4-0.5-0.9-1-1.3-1.5
		c-0.2-0.2-0.4-0.5-0.7-0.7c-0.5-0.5-1-1-1.5-1.5c-0.2-0.2-0.4-0.4-0.6-0.6c-0.7-0.7-1.4-1.3-2.2-1.9c-0.1-0.1-0.3-0.2-0.4-0.4
		c-0.6-0.5-1.3-1-1.9-1.5c-0.3-0.2-0.5-0.4-0.8-0.6c-0.6-0.4-1.2-0.8-1.8-1.2c-0.3-0.2-0.6-0.4-0.9-0.6c-0.7-0.5-1.5-0.9-2.2-1.4
		c-0.2-0.1-0.3-0.2-0.5-0.3c-0.9-0.5-1.9-1-2.8-1.5c-0.3-0.1-0.6-0.3-0.8-0.4c-0.7-0.4-1.4-0.7-2.2-1c-0.1,0-0.2-0.1-0.3-0.1l-0.1,0
		l-0.3,43c0,0,6.3,2.5,12.3,6.7C287.9,142.5,293.2,148.9,293.2,148.9z"/>
	<path fill="#EF5A24" d="M296.5,140.2c0,0-2.3,4-9,10.4c-8.2,6-11.8,7.6-11.8,7.6l46.9,24.7l-1.1,42.6c0,0,6.8-3,12.1-8.1
		c5.3-5,7.6-8.8,7.6-8.8l1.6-43.7L296.5,140.2z"/>
	<path opacity="0.32" fill="#FFFFFF" d="M342.8,165.7c-0.2,0.2-0.3,0.4-0.5,0.6c-0.1,0.1-0.2,0.3-0.4,0.4c-0.6,0.7-1.2,1.3-1.8,2
		c-0.1,0.1-0.1,0.1-0.2,0.2c-0.6,0.6-1.1,1.1-1.7,1.7c-0.2,0.2-0.4,0.4-0.6,0.6c-0.4,0.4-0.9,0.9-1.4,1.3c-0.2,0.2-0.5,0.4-0.7,0.6
		c-0.5,0.5-1,0.9-1.5,1.4c-0.2,0.1-0.3,0.3-0.5,0.4c-1.2,1-2.4,2-3.6,2.9c-0.1,0.1-0.1,0.1-0.2,0.2c-1.3,1-2.6,1.9-3.9,2.9
		c0,0-0.1,0.1-0.1,0.1c-1,0.7-2,1.4-3.1,2.1l-1.1,42.4c0,0,2.5-1.1,5.6-3.1c0.6-0.5,1.3-0.9,1.9-1.4c0.1-0.1,0.1-0.1,0.2-0.2
		c1.2-1,2.4-1.9,3.6-2.9c0,0,0.1,0,0.1-0.1c0.1-0.1,0.3-0.3,0.4-0.4c0.5-0.4,1-0.9,1.5-1.3c0.2-0.2,0.5-0.4,0.7-0.7c0,0,0,0,0,0
		c3.8-4,5.5-6.7,5.5-6.7L342.8,165.7z"/>
	<path fill="#EF5A24" d="M171.5,140.2c0,0,2.3,4,9,10.4c8.2,6,11.8,7.6,11.8,7.6l-46.9,24.7l1.1,42.6c0,0-6.8-3-12.1-8.1
		c-5.3-5-7.6-8.8-7.6-8.8l-1.6-43.7L171.5,140.2z"/>
	<path opacity="0.32" fill="#FFFFFF" d="M138.2,220.5c0.3,0.2,0.5,0.4,0.8,0.6c0.5,0.4,1,0.7,1.5,1.1c3.3,2.1,6,3.4,6,3.4l-1.1-42.6
		l0.6-0.3c-1-0.6-1.9-1.2-2.9-1.9c0,0,0,0-0.1,0c-1.2-0.8-2.4-1.7-3.5-2.5c-0.3-0.2-0.5-0.4-0.8-0.6c-1.1-0.9-2.2-1.7-3.3-2.6
		c-0.2-0.1-0.3-0.3-0.4-0.4c-1-0.8-1.9-1.6-2.8-2.5c-0.2-0.2-0.4-0.4-0.6-0.6c-1-0.9-2-1.9-2.9-2.8c-0.2-0.2-0.4-0.4-0.6-0.6
		c-0.8-0.9-1.7-1.7-2.4-2.6c-0.1-0.2-0.3-0.3-0.4-0.5l1.6,43.7c0,0,2.3,3.7,7.6,8.8c0.2,0.1,0.3,0.3,0.5,0.4
		C135.9,218.7,137,219.6,138.2,220.5z"/>
	<g>
		<g enable-background="new    ">
			<g enable-background="new    ">
				<defs>
					<path id="SVGID_1_" enable-background="new    " d="M130.9,201.1l-7.8-4.8c0.7,0.4,1.5,0.5,2.4,0.2l7.8,4.8
						C132.4,201.6,131.5,201.5,130.9,201.1z"/>
				</defs>
				<clipPath id="SVGID_2_">
					<use xlink:href="#SVGID_1_"  overflow="visible"/>
				</clipPath>
				<g clip-path="url(#SVGID_2_)" enable-background="new    ">
					<polyline fill="#78181B" points="130.9,201.1 123,196.3 123.1,196.3 130.9,201.1 130.9,201.1 					"/>
					<path fill="#7C191D" d="M130.9,201.1l-7.8-4.8c0.1,0,0.2,0.1,0.2,0.1l7.8,4.8C131,201.2,131,201.2,130.9,201.1"/>
					<path fill="#7F1A1E" d="M131.1,201.3l-7.8-4.8c0.1,0,0.2,0.1,0.3,0.1l7.8,4.8C131.3,201.3,131.2,201.3,131.1,201.3"/>
					<path fill="#831B1F" d="M131.4,201.4l-7.8-4.8c0.1,0,0.2,0.1,0.3,0.1l7.8,4.8C131.6,201.4,131.5,201.4,131.4,201.4"/>
					<path fill="#861B20" d="M131.7,201.4l-7.8-4.8c0.1,0,0.2,0,0.3,0l7.8,4.8C131.9,201.5,131.8,201.5,131.7,201.4"/>
					<path fill="#8A1C20" d="M132,201.5l-7.8-4.8c0.1,0,0.3,0,0.4,0l7.8,4.8C132.3,201.5,132.2,201.5,132,201.5"/>
					<path fill="#8E1E21" d="M132.5,201.5l-7.8-4.8c0.2,0,0.4-0.1,0.7-0.1l7.8,4.8C132.9,201.4,132.7,201.5,132.5,201.5"/>
					<path fill="#921E22" d="M133.1,201.4l-7.8-4.8c0.1,0,0.1,0,0.2-0.1l7.8,4.8C133.3,201.3,133.2,201.3,133.1,201.4"/>
				</g>
			</g>
			<g enable-background="new    ">
				<defs>
					<path id="SVGID_3_" enable-background="new    " d="M128.3,187.8l7.8,4.8c0.9,0.5,1.4,1.6,1.3,3c-0.1,2.4-1.9,5-4.1,5.7
						l-7.8-4.8c2.2-0.7,4-3.3,4.1-5.7C129.6,189.4,129.1,188.4,128.3,187.8z"/>
				</defs>
				<clipPath id="SVGID_4_">
					<use xlink:href="#SVGID_3_"  overflow="visible"/>
				</clipPath>
				<g clip-path="url(#SVGID_4_)" enable-background="new    ">
					<path fill="#921E22" d="M133.3,201.3l-7.8-4.8c0.4-0.1,0.7-0.3,1.1-0.5l7.8,4.8C134.1,201,133.7,201.2,133.3,201.3"/>
					<path fill="#8E1E21" d="M134.4,200.8l-7.8-4.8c0.2-0.1,0.4-0.3,0.6-0.5l7.8,4.8C134.8,200.5,134.6,200.6,134.4,200.8"/>
					<path fill="#8A1C20" d="M135,200.3l-7.8-4.8c0.1-0.1,0.3-0.2,0.4-0.4l7.8,4.8C135.3,200.1,135.2,200.2,135,200.3"/>
					<path fill="#861B20" d="M135.5,199.9l-7.8-4.8c0.1-0.1,0.2-0.2,0.3-0.3l7.8,4.8C135.7,199.7,135.6,199.8,135.5,199.9"/>
					<path fill="#831B1F" d="M135.8,199.6l-7.8-4.8c0.1-0.1,0.2-0.2,0.3-0.3l7.8,4.8C136,199.4,135.9,199.5,135.8,199.6"/>
					<path fill="#7F1A1E" d="M136,199.2l-7.8-4.8c0.1-0.1,0.2-0.2,0.2-0.3l7.8,4.8C136.2,199,136.1,199.1,136,199.2"/>
					<path fill="#7C191D" d="M136.3,198.9l-7.8-4.8c0.1-0.1,0.1-0.2,0.2-0.3l7.8,4.8C136.4,198.7,136.4,198.8,136.3,198.9"/>
					<path fill="#78181B" d="M136.5,198.6l-7.8-4.8c0.1-0.1,0.1-0.2,0.2-0.4l7.8,4.8C136.6,198.3,136.6,198.5,136.5,198.6"/>
					<path fill="#74171B" d="M136.7,198.2l-7.8-4.8c0.1-0.1,0.1-0.2,0.2-0.4l7.8,4.8C136.8,198,136.8,198.1,136.7,198.2"/>
					<path fill="#70171A" d="M136.9,197.8L129,193c0.1-0.1,0.1-0.3,0.2-0.4l7.8,4.8C137,197.6,136.9,197.7,136.9,197.8"/>
					<path fill="#6C1619" d="M137,197.4l-7.8-4.8c0.1-0.2,0.1-0.3,0.2-0.5l7.8,4.8C137.1,197.1,137.1,197.3,137,197.4"/>
					<path fill="#681618" d="M137.2,197l-7.8-4.8c0.1-0.2,0.1-0.4,0.1-0.6l7.8,4.8C137.3,196.6,137.2,196.8,137.2,197"/>
					<path fill="#641417" d="M137.3,196.4l-7.8-4.8c0-0.3,0.1-0.5,0.1-0.8c0-1.4-0.5-2.4-1.3-3l7.8,4.8c0.9,0.5,1.4,1.6,1.3,3
						C137.4,195.9,137.4,196.1,137.3,196.4"/>
				</g>
			</g>
			<g enable-background="new    ">
				<defs>
					<path id="SVGID_5_" enable-background="new    " d="M129.6,185.6l7.8,4.8c-1-0.6-2.3-0.8-3.7-0.3l-7.8-4.8
						C127.3,184.9,128.6,185,129.6,185.6z"/>
				</defs>
				<clipPath id="SVGID_6_">
					<use xlink:href="#SVGID_5_"  overflow="visible"/>
				</clipPath>
				<g clip-path="url(#SVGID_6_)" enable-background="new    ">
					<path fill="#921E22" d="M133.7,190.2l-7.8-4.8c0.1,0,0.2-0.1,0.3-0.1l7.8,4.8C133.9,190.1,133.8,190.1,133.7,190.2"/>
					<path fill="#8E1E21" d="M134,190.1l-7.8-4.8c0.3-0.1,0.7-0.1,1-0.2l7.8,4.8C134.7,189.9,134.4,190,134,190.1"/>
					<path fill="#8A1C20" d="M135,189.9l-7.8-4.8c0.2,0,0.4,0,0.6,0l7.8,4.8C135.5,189.9,135.2,189.9,135,189.9"/>
					<path fill="#861B20" d="M135.7,189.9l-7.8-4.8c0.2,0,0.4,0,0.5,0.1l7.8,4.8C136,189.9,135.9,189.9,135.7,189.9"/>
					<path fill="#831B1F" d="M136.2,190l-7.8-4.8c0.2,0,0.3,0.1,0.5,0.1l7.8,4.8C136.5,190,136.4,190,136.2,190"/>
					<path fill="#7F1A1E" d="M136.7,190.1l-7.8-4.8c0.1,0,0.3,0.1,0.4,0.2l7.8,4.8C136.9,190.2,136.8,190.1,136.7,190.1"/>
					<path fill="#7C191D" d="M137.1,190.2l-7.8-4.8c0.1,0.1,0.3,0.1,0.4,0.2l7.8,4.8C137.3,190.4,137.2,190.3,137.1,190.2"/>
					<polyline fill="#78181B" points="137.4,190.4 129.6,185.6 129.6,185.6 137.4,190.4 137.4,190.4 					"/>
				</g>
			</g>
			<g enable-background="new    ">
				<defs>
					<path id="SVGID_7_" enable-background="new    " d="M129.5,203.3l-7.8-4.8c-1.3-0.8-2.1-2.4-2-4.5c0.1-3.7,2.9-7.6,6.2-8.7
						l7.8,4.8c-3.3,1.1-6.1,5-6.2,8.7C127.4,200.9,128.2,202.5,129.5,203.3z"/>
				</defs>
				<clipPath id="SVGID_8_">
					<use xlink:href="#SVGID_7_"  overflow="visible"/>
				</clipPath>
				<g clip-path="url(#SVGID_8_)" enable-background="new    ">
					<path fill="#641417" d="M129.5,203.3l-7.8-4.8c-1.3-0.8-2.1-2.4-2-4.5c0-0.4,0.1-0.8,0.1-1.2l7.8,4.8c-0.1,0.4-0.1,0.8-0.1,1.2
						C127.4,200.9,128.2,202.5,129.5,203.3"/>
					<path fill="#681618" d="M127.6,197.6l-7.8-4.8c0.1-0.3,0.1-0.6,0.2-0.9l7.8,4.8C127.7,197.1,127.7,197.3,127.6,197.6"/>
					<path fill="#6C1619" d="M127.8,196.8l-7.8-4.8c0.1-0.2,0.1-0.5,0.2-0.7l7.8,4.8C128,196.3,127.9,196.5,127.8,196.8"/>
					<path fill="#70171A" d="M128.1,196.1l-7.8-4.8c0.1-0.2,0.2-0.4,0.2-0.6l7.8,4.8C128.2,195.6,128.1,195.8,128.1,196.1"/>
					<path fill="#74171B" d="M128.3,195.4l-7.8-4.8c0.1-0.2,0.2-0.4,0.3-0.6l7.8,4.8C128.5,195.1,128.4,195.2,128.3,195.4"/>
					<path fill="#78181B" d="M128.6,194.9l-7.8-4.8c0.1-0.2,0.2-0.4,0.3-0.5l7.8,4.8C128.8,194.5,128.7,194.7,128.6,194.9"/>
					<path fill="#7C191D" d="M128.9,194.3l-7.8-4.8c0.1-0.2,0.2-0.4,0.3-0.5l7.8,4.8C129.1,194,129,194.1,128.9,194.3"/>
					<path fill="#7F1A1E" d="M129.2,193.8l-7.8-4.8c0.1-0.2,0.2-0.3,0.4-0.5l7.8,4.8C129.4,193.5,129.3,193.6,129.2,193.8"/>
					<path fill="#831B1F" d="M129.6,193.3l-7.8-4.8c0.1-0.2,0.3-0.3,0.4-0.5l7.8,4.8C129.8,192.9,129.7,193.1,129.6,193.3"/>
					<path fill="#861B20" d="M130,192.8l-7.8-4.8c0.2-0.2,0.3-0.4,0.5-0.5l7.8,4.8C130.3,192.4,130.1,192.6,130,192.8"/>
					<path fill="#8A1C20" d="M130.5,192.2l-7.8-4.8c0.2-0.2,0.4-0.4,0.6-0.6l7.8,4.8C130.9,191.9,130.7,192,130.5,192.2"/>
					<path fill="#8E1E21" d="M131.1,191.7l-7.8-4.8c0.3-0.3,0.6-0.5,1-0.7l7.8,4.8C131.7,191.2,131.4,191.4,131.1,191.7"/>
					<path fill="#921E22" d="M132,191l-7.8-4.8c0.5-0.3,1.1-0.6,1.7-0.8l7.8,4.8C133.1,190.3,132.6,190.6,132,191"/>
				</g>
			</g>
			<g>
				<path fill="#9B2025" d="M133.7,190.2c3.3-1.1,5.9,1.1,5.8,4.8c-0.1,3.7-2.9,7.6-6.2,8.7c-3.3,1.1-5.9-1.1-5.7-4.8
					C127.6,195.1,130.4,191.2,133.7,190.2z M133.3,201.3c2.2-0.7,4-3.3,4.1-5.7s-1.6-3.9-3.8-3.1c-2.2,0.7-4,3.3-4.1,5.7
					S131.1,202,133.3,201.3"/>
			</g>
		</g>
	</g>
	<g>
		<g enable-background="new    ">
			<g enable-background="new    ">
				<defs>
					<path id="SVGID_9_" enable-background="new    " d="M334.1,201.1l7.8-4.8c-0.7,0.4-1.5,0.5-2.4,0.2l-7.8,4.8
						C332.6,201.6,333.5,201.5,334.1,201.1z"/>
				</defs>
				<clipPath id="SVGID_10_">
					<use xlink:href="#SVGID_9_"  overflow="visible"/>
				</clipPath>
				<g clip-path="url(#SVGID_10_)" enable-background="new    ">
					<polyline fill="#78181B" points="334.1,201.1 341.9,196.3 341.9,196.3 334.1,201.1 334.1,201.1 					"/>
					<path fill="#7C191D" d="M334.1,201.1l7.8-4.8c-0.1,0-0.2,0.1-0.2,0.1l-7.8,4.8C333.9,201.2,334,201.2,334.1,201.1"/>
					<path fill="#7F1A1E" d="M333.9,201.3l7.8-4.8c-0.1,0-0.2,0.1-0.3,0.1l-7.8,4.8C333.7,201.3,333.8,201.3,333.9,201.3"/>
					<path fill="#831B1F" d="M333.6,201.4l7.8-4.8c-0.1,0-0.2,0.1-0.3,0.1l-7.8,4.8C333.4,201.4,333.5,201.4,333.6,201.4"/>
					<path fill="#861B20" d="M333.3,201.4l7.8-4.8c-0.1,0-0.2,0-0.3,0l-7.8,4.8C333.1,201.5,333.2,201.5,333.3,201.4"/>
					<path fill="#8A1C20" d="M332.9,201.5l7.8-4.8c-0.1,0-0.3,0-0.4,0l-7.8,4.8C332.7,201.5,332.8,201.5,332.9,201.5"/>
					<path fill="#8E1E21" d="M332.5,201.5l7.8-4.8c-0.2,0-0.4-0.1-0.7-0.1l-7.8,4.8C332.1,201.4,332.3,201.5,332.5,201.5"/>
					<path fill="#921E22" d="M331.9,201.4l7.8-4.8c-0.1,0-0.1,0-0.2-0.1l-7.8,4.8C331.7,201.3,331.8,201.3,331.9,201.4"/>
				</g>
			</g>
			<g enable-background="new    ">
				<defs>
					<path id="SVGID_11_" enable-background="new    " d="M336.7,187.8l-7.8,4.8c-0.9,0.5-1.4,1.6-1.3,3c0.1,2.4,1.9,5,4.1,5.7
						l7.8-4.8c-2.2-0.7-4-3.3-4.1-5.7C335.3,189.4,335.9,188.4,336.7,187.8z"/>
				</defs>
				<clipPath id="SVGID_12_">
					<use xlink:href="#SVGID_11_"  overflow="visible"/>
				</clipPath>
				<g clip-path="url(#SVGID_12_)" enable-background="new    ">
					<path fill="#921E22" d="M331.7,201.3l7.8-4.8c-0.4-0.1-0.7-0.3-1.1-0.5l-7.8,4.8C330.9,201,331.3,201.2,331.7,201.3"/>
					<path fill="#8E1E21" d="M330.6,200.8l7.8-4.8c-0.2-0.1-0.4-0.3-0.6-0.5l-7.8,4.8C330.1,200.5,330.3,200.6,330.6,200.8"/>
					<path fill="#8A1C20" d="M329.9,200.3l7.8-4.8c-0.1-0.1-0.3-0.2-0.4-0.4l-7.8,4.8C329.7,200.1,329.8,200.2,329.9,200.3"/>
					<path fill="#861B20" d="M329.5,199.9l7.8-4.8c-0.1-0.1-0.2-0.2-0.3-0.3l-7.8,4.8C329.3,199.7,329.4,199.8,329.5,199.9"/>
					<path fill="#831B1F" d="M329.2,199.6l7.8-4.8c-0.1-0.1-0.2-0.2-0.3-0.3l-7.8,4.8C329,199.4,329.1,199.5,329.2,199.6"/>
					<path fill="#7F1A1E" d="M328.9,199.2l7.8-4.8c-0.1-0.1-0.2-0.2-0.2-0.3l-7.8,4.8C328.8,199,328.9,199.1,328.9,199.2"/>
					<path fill="#7C191D" d="M328.7,198.9l7.8-4.8c-0.1-0.1-0.1-0.2-0.2-0.3l-7.8,4.8C328.6,198.7,328.6,198.8,328.7,198.9"/>
					<path fill="#78181B" d="M328.5,198.6l7.8-4.8c-0.1-0.1-0.1-0.2-0.2-0.4l-7.8,4.8C328.3,198.3,328.4,198.5,328.5,198.6"/>
					<path fill="#74171B" d="M328.3,198.2l7.8-4.8c-0.1-0.1-0.1-0.2-0.2-0.4l-7.8,4.8C328.2,198,328.2,198.1,328.3,198.2"/>
					<path fill="#70171A" d="M328.1,197.8l7.8-4.8c-0.1-0.1-0.1-0.3-0.2-0.4l-7.8,4.8C328,197.6,328,197.7,328.1,197.8"/>
					<path fill="#6C1619" d="M327.9,197.4l7.8-4.8c-0.1-0.2-0.1-0.3-0.2-0.5l-7.8,4.8C327.8,197.1,327.9,197.3,327.9,197.4"/>
					<path fill="#681618" d="M327.8,197l7.8-4.8c-0.1-0.2-0.1-0.4-0.1-0.6l-7.8,4.8C327.7,196.6,327.7,196.8,327.8,197"/>
					<path fill="#641417" d="M327.7,196.4l7.8-4.8c0-0.3-0.1-0.5-0.1-0.8c0-1.4,0.5-2.4,1.3-3l-7.8,4.8c-0.9,0.5-1.4,1.6-1.3,3
						C327.6,195.9,327.6,196.1,327.7,196.4"/>
				</g>
			</g>
			<g enable-background="new    ">
				<defs>
					<path id="SVGID_13_" enable-background="new    " d="M335.4,185.6l-7.8,4.8c1-0.6,2.3-0.8,3.7-0.3l7.8-4.8
						C337.7,184.9,336.4,185,335.4,185.6z"/>
				</defs>
				<clipPath id="SVGID_14_">
					<use xlink:href="#SVGID_13_"  overflow="visible"/>
				</clipPath>
				<g clip-path="url(#SVGID_14_)" enable-background="new    ">
					<path fill="#921E22" d="M331.3,190.2l7.8-4.8c-0.1,0-0.2-0.1-0.3-0.1l-7.8,4.8C331.1,190.1,331.2,190.1,331.3,190.2"/>
					<path fill="#8E1E21" d="M331,190.1l7.8-4.8c-0.3-0.1-0.7-0.1-1-0.2l-7.8,4.8C330.3,189.9,330.6,190,331,190.1"/>
					<path fill="#8A1C20" d="M330,189.9l7.8-4.8c-0.2,0-0.4,0-0.6,0l-7.8,4.8C329.5,189.9,329.7,189.9,330,189.9"/>
					<path fill="#861B20" d="M329.3,189.9l7.8-4.8c-0.2,0-0.4,0-0.5,0.1l-7.8,4.8C329,189.9,329.1,189.9,329.3,189.9"/>
					<path fill="#831B1F" d="M328.8,190l7.8-4.8c-0.2,0-0.3,0.1-0.5,0.1l-7.8,4.8C328.5,190,328.6,190,328.8,190"/>
					<path fill="#7F1A1E" d="M328.3,190.1l7.8-4.8c-0.1,0-0.3,0.1-0.4,0.2l-7.8,4.8C328,190.2,328.2,190.1,328.3,190.1"/>
					<path fill="#7C191D" d="M327.9,190.2l7.8-4.8c-0.1,0.1-0.3,0.1-0.4,0.2l-7.8,4.8C327.7,190.4,327.8,190.3,327.9,190.2"/>
					<polyline fill="#78181B" points="327.5,190.4 335.4,185.6 335.4,185.6 327.5,190.4 327.5,190.4 					"/>
				</g>
			</g>
			<g enable-background="new    ">
				<defs>
					<path id="SVGID_15_" enable-background="new    " d="M335.5,203.3l7.8-4.8c1.3-0.8,2.1-2.4,2-4.5c-0.1-3.7-2.9-7.6-6.2-8.7
						l-7.8,4.8c3.3,1.1,6.1,5,6.2,8.7C337.6,200.9,336.8,202.5,335.5,203.3z"/>
				</defs>
				<clipPath id="SVGID_16_">
					<use xlink:href="#SVGID_15_"  overflow="visible"/>
				</clipPath>
				<g clip-path="url(#SVGID_16_)" enable-background="new    ">
					<path fill="#641417" d="M335.5,203.3l7.8-4.8c1.3-0.8,2.1-2.4,2-4.5c0-0.4-0.1-0.8-0.1-1.2l-7.8,4.8c0.1,0.4,0.1,0.8,0.1,1.2
						C337.6,200.9,336.8,202.5,335.5,203.3"/>
					<path fill="#681618" d="M337.3,197.6l7.8-4.8c-0.1-0.3-0.1-0.6-0.2-0.9l-7.8,4.8C337.2,197.1,337.3,197.3,337.3,197.6"/>
					<path fill="#6C1619" d="M337.1,196.8l7.8-4.8c-0.1-0.2-0.1-0.5-0.2-0.7l-7.8,4.8C337,196.3,337.1,196.5,337.1,196.8"/>
					<path fill="#70171A" d="M336.9,196.1l7.8-4.8c-0.1-0.2-0.2-0.4-0.2-0.6l-7.8,4.8C336.8,195.6,336.8,195.8,336.9,196.1"/>
					<path fill="#74171B" d="M336.7,195.4l7.8-4.8c-0.1-0.2-0.2-0.4-0.3-0.6l-7.8,4.8C336.5,195.1,336.6,195.2,336.7,195.4"/>
					<path fill="#78181B" d="M336.4,194.9l7.8-4.8c-0.1-0.2-0.2-0.4-0.3-0.5l-7.8,4.8C336.2,194.5,336.3,194.7,336.4,194.9"/>
					<path fill="#7C191D" d="M336.1,194.3l7.8-4.8c-0.1-0.2-0.2-0.4-0.3-0.5l-7.8,4.8C335.9,194,336,194.1,336.1,194.3"/>
					<path fill="#7F1A1E" d="M335.8,193.8l7.8-4.8c-0.1-0.2-0.2-0.3-0.4-0.5l-7.8,4.8C335.5,193.5,335.7,193.6,335.8,193.8"/>
					<path fill="#831B1F" d="M335.4,193.3l7.8-4.8c-0.1-0.2-0.3-0.3-0.4-0.5l-7.8,4.8C335.1,192.9,335.3,193.1,335.4,193.3"/>
					<path fill="#861B20" d="M335,192.8l7.8-4.8c-0.2-0.2-0.3-0.4-0.5-0.5l-7.8,4.8C334.7,192.4,334.8,192.6,335,192.8"/>
					<path fill="#8A1C20" d="M334.5,192.2l7.8-4.8c-0.2-0.2-0.4-0.4-0.6-0.6l-7.8,4.8C334.1,191.9,334.3,192,334.5,192.2"/>
					<path fill="#8E1E21" d="M333.9,191.7l7.8-4.8c-0.3-0.3-0.6-0.5-1-0.7l-7.8,4.8C333.3,191.2,333.6,191.4,333.9,191.7"/>
					<path fill="#921E22" d="M332.9,191l7.8-4.8c-0.5-0.3-1.1-0.6-1.7-0.8l-7.8,4.8C331.8,190.3,332.4,190.6,332.9,191"/>
				</g>
			</g>
			<g>
				<path fill="#9B2025" d="M337.5,198.8c0.1,3.7-2.4,5.9-5.7,4.8c-3.3-1.1-6.1-5-6.2-8.7c-0.1-3.7,2.4-5.9,5.8-4.8
					C334.6,191.2,337.3,195.1,337.5,198.8z M331.7,201.3c2.2,0.7,3.9-0.7,3.8-3.1s-1.9-5-4.1-5.7c-2.2-0.7-3.9,0.7-3.8,3.1
					S329.5,200.6,331.7,201.3"/>
			</g>
		</g>
	</g>
	<path fill="#333333" d="M335.4,198.2c0.1-1.3-0.6-2.6-1.3-3.5l-71,36.4c-10,5.1-21.2,7.9-32.5,7.9h0c-11.2,0-22.4-2.8-32.4-7.9
		l-67.7-35.8c-0.2,0.5-1,1.6-1.1,2.3c-0.3,1,0,1.6,0,2.3l66.9,35.4c10.6,5.4,22.5,8.7,34.4,8.7c0,0,0,0,0,0
		c11.9,0,23.8-3.3,34.4-8.8l70.4-36.3C335.4,198.7,335.4,198.4,335.4,198.2z"/>
	<path fill="#333333" d="M118.7,190.4c-18.4-9.4-29.5-27.4-29.5-48.1c0-19.7,9.9-36.9,26.7-46.7c1.3-2.3,3-4.8,5.1-7.5l-4.3,2.2
		c-19.9,10.2-31.7,29.6-31.7,52c0,22.3,11.9,41.7,31.8,51.9l3.2,1.6c-0.2-0.5-0.3-1.2-0.2-1.8c0-1,0.3-2,0.6-2.8L118.7,190.4z"/>
	<path fill="#333333" d="M224.5,43.2c4.4-0.8,8.9-1.3,13.4-1.3c5.4,0,10.8,0.6,16,1.9c7,0.7,14.2,1.8,21.1,3.6l-2.7-1.4
		c-10.6-5.4-22.5-8.3-34.4-8.3c-11,0-22.1,2.5-32.1,7.2C209.4,44.3,216.1,43.6,224.5,43.2z"/>
	<path fill="#333333" d="M352,87l-17.4-9.8c1.7,1.5,3.1,3.8,4.4,5.2c1.8,1.9,3.3,3.5,4.6,5l6.5,3.3c18.3,9.4,29.2,27.3,29.2,47.9
		c0,20.6-11,38.4-29.3,47.8l-6.1,3.1c0.6,0.9,1.3,2.4,1.3,4.3l6.7-3.5c19.7-10.1,31.6-29.5,31.6-51.7C383.5,116.5,371.8,97.1,352,87
		z"/>
</g>
</svg>
