<?xml version="1.0" encoding="utf-8"?>
<!-- Generator: Adobe Illustrator 16.0.0, SVG Export Plug-In . SVG Version: 6.00 Build 0)  -->
<!DOCTYPE svg PUBLIC "-//W3C//DTD SVG 1.1//EN" "http://www.w3.org/Graphics/SVG/1.1/DTD/svg11.dtd">
<svg version="1.1" id="Camada_1" xmlns="http://www.w3.org/2000/svg" xmlns:xlink="http://www.w3.org/1999/xlink" x="0px" y="0px"
	 width="100px" height="100px" viewBox="913 155 100 100" enable-background="new 913 155 100 100" xml:space="preserve">
<g>
	<g opacity="0.2">
		<g>
			<g>
				<defs>
					<rect id="SVGID_50_" x="946.278" y="207.992" width="59.104" height="31.273"/>
				</defs>
				<clipPath id="SVGID_3_">
					<use xlink:href="#SVGID_50_"  overflow="visible"/>
				</clipPath>
				<polygon clip-path="url(#SVGID_3_)" fill="#1E120D" points="946.276,239.266 1005.384,215.223 989.774,207.992 				"/>
			</g>
		</g>
	</g>
	<g>
		<g>
			<defs>
				<path id="SVGID_52_" d="M968.448,184.355l-47.578,22.059c0.118-0.053,0.262-0.053,0.414,0.02l47.577-22.059
					c-0.083-0.039-0.163-0.057-0.238-0.057C968.56,184.318,968.502,184.33,968.448,184.355"/>
			</defs>
			<clipPath id="SVGID_6_">
				<use xlink:href="#SVGID_52_"  overflow="visible"/>
			</clipPath>
			<path clip-path="url(#SVGID_6_)" fill="#474C54" d="M920.87,206.414l47.578-22.059c0.011-0.006,0.026-0.01,0.037-0.016
				l-47.577,22.059C920.895,206.402,920.884,206.408,920.87,206.414"/>
		</g>
		<g>
			<defs>
				<path id="SVGID_54_" d="M968.448,184.355l-47.578,22.059c0.118-0.053,0.262-0.053,0.414,0.02l47.577-22.059
					c-0.083-0.039-0.163-0.057-0.238-0.057C968.56,184.318,968.502,184.33,968.448,184.355"/>
			</defs>
			<clipPath id="SVGID_8_">
				<use xlink:href="#SVGID_54_"  overflow="visible"/>
			</clipPath>
			<path clip-path="url(#SVGID_8_)" fill="#4A4F57" d="M920.908,206.398l47.577-22.059c0.017-0.004,0.032-0.01,0.049-0.014
				l-47.577,22.059C920.939,206.389,920.925,206.393,920.908,206.398"/>
		</g>
		<g>
			<defs>
				<path id="SVGID_56_" d="M968.448,184.355l-47.578,22.059c0.118-0.053,0.262-0.053,0.414,0.02l47.577-22.059
					c-0.083-0.039-0.163-0.057-0.238-0.057C968.56,184.318,968.502,184.33,968.448,184.355"/>
			</defs>
			<clipPath id="SVGID_10_">
				<use xlink:href="#SVGID_56_"  overflow="visible"/>
			</clipPath>
			<path clip-path="url(#SVGID_10_)" fill="#4E525B" d="M920.957,206.385l47.577-22.059c0.012,0,0.023-0.004,0.037-0.004
				l-47.577,22.057C920.982,206.381,920.968,206.383,920.957,206.385"/>
		</g>
		<g>
			<defs>
				<path id="SVGID_58_" d="M968.448,184.355l-47.578,22.059c0.118-0.053,0.262-0.053,0.414,0.02l47.577-22.059
					c-0.083-0.039-0.163-0.057-0.238-0.057C968.56,184.318,968.502,184.33,968.448,184.355"/>
			</defs>
			<clipPath id="SVGID_12_">
				<use xlink:href="#SVGID_58_"  overflow="visible"/>
			</clipPath>
			<path clip-path="url(#SVGID_12_)" fill="#4F555E" d="M920.994,206.379l47.577-22.059c0.012-0.002,0.021-0.002,0.033-0.002
				l-47.577,22.059C921.016,206.377,921.005,206.379,920.994,206.379"/>
		</g>
		<g>
			<defs>
				<path id="SVGID_60_" d="M968.448,184.355l-47.578,22.059c0.118-0.053,0.262-0.053,0.414,0.02l47.577-22.059
					c-0.083-0.039-0.163-0.057-0.238-0.057C968.56,184.318,968.502,184.33,968.448,184.355"/>
			</defs>
			<clipPath id="SVGID_14_">
				<use xlink:href="#SVGID_60_"  overflow="visible"/>
			</clipPath>
			<path clip-path="url(#SVGID_14_)" fill="#535961" d="M921.027,206.377l47.577-22.059c0.012-0.002,0.022-0.002,0.031,0
				l-47.577,22.059C921.049,206.377,921.039,206.377,921.027,206.377"/>
		</g>
		<g>
			<defs>
				<path id="SVGID_62_" d="M968.448,184.355l-47.578,22.059c0.118-0.053,0.262-0.053,0.414,0.02l47.577-22.059
					c-0.083-0.039-0.163-0.057-0.238-0.057C968.56,184.318,968.502,184.33,968.448,184.355"/>
			</defs>
			<clipPath id="SVGID_16_">
				<use xlink:href="#SVGID_62_"  overflow="visible"/>
			</clipPath>
			<path clip-path="url(#SVGID_16_)" fill="#565C64" d="M921.059,206.377l47.577-22.059c0.01,0,0.02,0,0.03,0l-47.579,22.061
				C921.078,206.377,921.068,206.377,921.059,206.377"/>
		</g>
		<g>
			<defs>
				<path id="SVGID_64_" d="M968.448,184.355l-47.578,22.059c0.118-0.053,0.262-0.053,0.414,0.02l47.577-22.059
					c-0.083-0.039-0.163-0.057-0.238-0.057C968.56,184.318,968.502,184.33,968.448,184.355"/>
			</defs>
			<clipPath id="SVGID_18_">
				<use xlink:href="#SVGID_64_"  overflow="visible"/>
			</clipPath>
			<path clip-path="url(#SVGID_18_)" fill="#595F69" d="M921.087,206.379l47.579-22.061c0.009,0.004,0.019,0.004,0.026,0.004
				l-47.576,22.059C921.107,206.379,921.098,206.379,921.087,206.379"/>
		</g>
		<g>
			<defs>
				<path id="SVGID_66_" d="M968.448,184.355l-47.578,22.059c0.118-0.053,0.262-0.053,0.414,0.02l47.577-22.059
					c-0.083-0.039-0.163-0.057-0.238-0.057C968.56,184.318,968.502,184.33,968.448,184.355"/>
			</defs>
			<clipPath id="SVGID_20_">
				<use xlink:href="#SVGID_66_"  overflow="visible"/>
			</clipPath>
			<path clip-path="url(#SVGID_20_)" fill="#5C626C" d="M921.116,206.381l47.576-22.059c0.01,0.004,0.017,0.004,0.027,0.006
				l-47.575,22.059C921.134,206.385,921.124,206.383,921.116,206.381"/>
		</g>
		<g>
			<defs>
				<path id="SVGID_68_" d="M968.448,184.355l-47.578,22.059c0.118-0.053,0.262-0.053,0.414,0.02l47.577-22.059
					c-0.083-0.039-0.163-0.057-0.238-0.057C968.56,184.318,968.502,184.33,968.448,184.355"/>
			</defs>
			<clipPath id="SVGID_22_">
				<use xlink:href="#SVGID_68_"  overflow="visible"/>
			</clipPath>
			<path clip-path="url(#SVGID_22_)" fill="#5F656F" d="M921.143,206.387l47.577-22.059c0.01,0.002,0.018,0.004,0.026,0.006
				l-47.576,22.059C921.161,206.391,921.151,206.389,921.143,206.387"/>
		</g>
		<g>
			<defs>
				<path id="SVGID_70_" d="M968.448,184.355l-47.578,22.059c0.118-0.053,0.262-0.053,0.414,0.02l47.577-22.059
					c-0.083-0.039-0.163-0.057-0.238-0.057C968.56,184.318,968.502,184.33,968.448,184.355"/>
			</defs>
			<clipPath id="SVGID_24_">
				<use xlink:href="#SVGID_70_"  overflow="visible"/>
			</clipPath>
			<path clip-path="url(#SVGID_24_)" fill="#616872" d="M921.17,206.391l47.576-22.057c0.008,0.002,0.018,0.004,0.028,0.008
				l-47.58,22.057C921.187,206.396,921.178,206.395,921.17,206.391"/>
		</g>
		<g>
			<defs>
				<path id="SVGID_72_" d="M968.448,184.355l-47.578,22.059c0.118-0.053,0.262-0.053,0.414,0.02l47.577-22.059
					c-0.083-0.039-0.163-0.057-0.238-0.057C968.56,184.318,968.502,184.33,968.448,184.355"/>
			</defs>
			<clipPath id="SVGID_26_">
				<use xlink:href="#SVGID_72_"  overflow="visible"/>
			</clipPath>
			<path clip-path="url(#SVGID_26_)" fill="#646B76" d="M921.194,206.398l47.578-22.057c0.01,0.002,0.018,0.004,0.025,0.008
				l-47.577,22.059C921.213,206.404,921.205,206.4,921.194,206.398"/>
		</g>
		<g>
			<defs>
				<path id="SVGID_74_" d="M968.448,184.355l-47.578,22.059c0.118-0.053,0.262-0.053,0.414,0.02l47.577-22.059
					c-0.083-0.039-0.163-0.057-0.238-0.057C968.56,184.318,968.502,184.33,968.448,184.355"/>
			</defs>
			<clipPath id="SVGID_28_">
				<use xlink:href="#SVGID_74_"  overflow="visible"/>
			</clipPath>
			<path clip-path="url(#SVGID_28_)" fill="#676E79" d="M921.221,206.408l47.577-22.059c0.01,0.004,0.018,0.006,0.027,0.01
				l-47.578,22.057C921.237,206.414,921.229,206.41,921.221,206.408"/>
		</g>
		<g>
			<defs>
				<path id="SVGID_76_" d="M968.448,184.355l-47.578,22.059c0.118-0.053,0.262-0.053,0.414,0.02l47.577-22.059
					c-0.083-0.039-0.163-0.057-0.238-0.057C968.56,184.318,968.502,184.33,968.448,184.355"/>
			</defs>
			<clipPath id="SVGID_30_">
				<use xlink:href="#SVGID_76_"  overflow="visible"/>
			</clipPath>
			<path clip-path="url(#SVGID_30_)" fill="#6A727C" d="M921.247,206.416l47.576-22.057c0.01,0.002,0.018,0.006,0.027,0.01
				l-47.578,22.059C921.265,206.426,921.256,206.42,921.247,206.416"/>
		</g>
		<g>
			<defs>
				<path id="SVGID_78_" d="M968.448,184.355l-47.578,22.059c0.118-0.053,0.262-0.053,0.414,0.02l47.577-22.059
					c-0.083-0.039-0.163-0.057-0.238-0.057C968.56,184.318,968.502,184.33,968.448,184.355"/>
			</defs>
			<clipPath id="SVGID_32_">
				<use xlink:href="#SVGID_78_"  overflow="visible"/>
			</clipPath>
			<path clip-path="url(#SVGID_32_)" fill="#6D757F" d="M921.272,206.428l47.578-22.059c0.003,0.002,0.007,0.004,0.011,0.006
				l-47.577,22.059C921.28,206.432,921.276,206.43,921.272,206.428"/>
		</g>
	</g>
	<g>
		<g>
			<defs>
				<path id="SVGID_80_" d="M931.526,225.055c-0.006,0.156,0.036,0.328,0.122,0.484l47.578-22.059
					c-0.087-0.154-0.129-0.326-0.123-0.484L931.526,225.055z"/>
			</defs>
			<clipPath id="SVGID_33_">
				<use xlink:href="#SVGID_80_"  overflow="visible"/>
			</clipPath>
			<path clip-path="url(#SVGID_33_)" fill="#6A727C" d="M931.524,225.055l47.579-22.059c-0.002,0.01-0.002,0.02-0.002,0.027
				l-47.577,22.059C931.524,225.074,931.524,225.064,931.524,225.055"/>
		</g>
		<g>
			<defs>
				<path id="SVGID_82_" d="M931.526,225.055c-0.006,0.156,0.036,0.328,0.122,0.484l47.578-22.059
					c-0.087-0.154-0.129-0.326-0.123-0.484L931.526,225.055z"/>
			</defs>
			<clipPath id="SVGID_35_">
				<use xlink:href="#SVGID_82_"  overflow="visible"/>
			</clipPath>
			<path clip-path="url(#SVGID_35_)" fill="#6D757F" d="M931.524,225.082l47.577-22.059c0.002,0.01,0.002,0.021,0.002,0.031
				l-47.577,22.059C931.526,225.104,931.524,225.094,931.524,225.082"/>
		</g>
		<g>
			<defs>
				<path id="SVGID_84_" d="M931.526,225.055c-0.006,0.156,0.036,0.328,0.122,0.484l47.578-22.059
					c-0.087-0.154-0.129-0.326-0.123-0.484L931.526,225.055z"/>
			</defs>
			<clipPath id="SVGID_36_">
				<use xlink:href="#SVGID_84_"  overflow="visible"/>
			</clipPath>
			<path clip-path="url(#SVGID_36_)" fill="#707883" d="M931.526,225.111l47.577-22.057c0,0.01,0,0.02,0,0.031l-47.575,22.059
				C931.526,225.133,931.526,225.123,931.526,225.111"/>
		</g>
		<g>
			<defs>
				<path id="SVGID_86_" d="M931.526,225.055c-0.006,0.156,0.036,0.328,0.122,0.484l47.578-22.059
					c-0.087-0.154-0.129-0.326-0.123-0.484L931.526,225.055z"/>
			</defs>
			<clipPath id="SVGID_38_">
				<use xlink:href="#SVGID_86_"  overflow="visible"/>
			</clipPath>
			<path clip-path="url(#SVGID_38_)" fill="#727B86" d="M931.528,225.145l47.575-22.059c0.002,0.01,0.004,0.021,0.004,0.031
				l-47.577,22.057C931.53,225.164,931.528,225.154,931.528,225.145"/>
		</g>
		<g>
			<defs>
				<path id="SVGID_88_" d="M931.526,225.055c-0.006,0.156,0.036,0.328,0.122,0.484l47.578-22.059
					c-0.087-0.154-0.129-0.326-0.123-0.484L931.526,225.055z"/>
			</defs>
			<clipPath id="SVGID_40_">
				<use xlink:href="#SVGID_88_"  overflow="visible"/>
			</clipPath>
			<path clip-path="url(#SVGID_40_)" fill="#757E89" d="M931.53,225.176l47.577-22.059c0,0.012,0.004,0.021,0.004,0.033
				l-47.578,22.059C931.533,225.197,931.532,225.186,931.53,225.176"/>
		</g>
		<g>
			<defs>
				<path id="SVGID_90_" d="M931.526,225.055c-0.006,0.156,0.036,0.328,0.122,0.484l47.578-22.059
					c-0.087-0.154-0.129-0.326-0.123-0.484L931.526,225.055z"/>
			</defs>
			<clipPath id="SVGID_41_">
				<use xlink:href="#SVGID_90_"  overflow="visible"/>
			</clipPath>
			<path clip-path="url(#SVGID_41_)" fill="#78808C" d="M931.533,225.207l47.578-22.057c0.002,0.012,0.006,0.023,0.006,0.035
				l-47.576,22.059C931.539,225.232,931.537,225.221,931.533,225.207"/>
		</g>
		<g>
			<defs>
				<path id="SVGID_92_" d="M931.526,225.055c-0.006,0.156,0.036,0.328,0.122,0.484l47.578-22.059
					c-0.087-0.154-0.129-0.326-0.123-0.484L931.526,225.055z"/>
			</defs>
			<clipPath id="SVGID_43_">
				<use xlink:href="#SVGID_92_"  overflow="visible"/>
			</clipPath>
			<path clip-path="url(#SVGID_43_)" fill="#7B8390" d="M931.541,225.244l47.578-22.059c0.002,0.012,0.006,0.025,0.008,0.039
				l-47.578,22.057C931.547,225.268,931.543,225.258,931.541,225.244"/>
		</g>
		<g>
			<defs>
				<path id="SVGID_94_" d="M931.526,225.055c-0.006,0.156,0.036,0.328,0.122,0.484l47.578-22.059
					c-0.087-0.154-0.129-0.326-0.123-0.484L931.526,225.055z"/>
			</defs>
			<clipPath id="SVGID_45_">
				<use xlink:href="#SVGID_94_"  overflow="visible"/>
			</clipPath>
			<path clip-path="url(#SVGID_45_)" fill="#7E8693" d="M931.549,225.281l47.578-22.059c0.003,0.014,0.005,0.027,0.009,0.039
				l-47.577,22.059C931.557,225.307,931.551,225.295,931.549,225.281"/>
		</g>
		<g>
			<defs>
				<path id="SVGID_96_" d="M931.526,225.055c-0.006,0.156,0.036,0.328,0.122,0.484l47.578-22.059
					c-0.087-0.154-0.129-0.326-0.123-0.484L931.526,225.055z"/>
			</defs>
			<clipPath id="SVGID_47_">
				<use xlink:href="#SVGID_96_"  overflow="visible"/>
			</clipPath>
			<path clip-path="url(#SVGID_47_)" fill="#818996" d="M931.559,225.32l47.577-22.059c0.004,0.018,0.011,0.031,0.015,0.047
				l-47.578,22.057C931.568,225.352,931.564,225.336,931.559,225.32"/>
		</g>
		<g>
			<defs>
				<path id="SVGID_98_" d="M931.526,225.055c-0.006,0.156,0.036,0.328,0.122,0.484l47.578-22.059
					c-0.087-0.154-0.129-0.326-0.123-0.484L931.526,225.055z"/>
			</defs>
			<clipPath id="SVGID_49_">
				<use xlink:href="#SVGID_98_"  overflow="visible"/>
			</clipPath>
			<path clip-path="url(#SVGID_49_)" fill="#828C99" d="M931.572,225.365l47.578-22.059c0.006,0.018,0.012,0.035,0.019,0.051
				l-47.577,22.061C931.584,225.4,931.578,225.383,931.572,225.365"/>
		</g>
		<g>
			<defs>
				<path id="SVGID_100_" d="M931.526,225.055c-0.006,0.156,0.036,0.328,0.122,0.484l47.578-22.059
					c-0.087-0.154-0.129-0.326-0.123-0.484L931.526,225.055z"/>
			</defs>
			<clipPath id="SVGID_51_">
				<use xlink:href="#SVGID_100_"  overflow="visible"/>
			</clipPath>
			<path clip-path="url(#SVGID_51_)" fill="#858F9D" d="M931.592,225.418l47.575-22.061c0.01,0.025,0.02,0.047,0.032,0.068
				l-47.578,22.061C931.611,225.465,931.601,225.441,931.592,225.418"/>
		</g>
		<g>
			<defs>
				<path id="SVGID_102_" d="M931.526,225.055c-0.006,0.156,0.036,0.328,0.122,0.484l47.578-22.059
					c-0.087-0.154-0.129-0.326-0.123-0.484L931.526,225.055z"/>
			</defs>
			<clipPath id="SVGID_53_">
				<use xlink:href="#SVGID_102_"  overflow="visible"/>
			</clipPath>
			<path clip-path="url(#SVGID_53_)" fill="#8892A0" d="M931.621,225.486l47.578-22.061c0.007,0.021,0.017,0.037,0.027,0.055
				l-47.578,22.061C931.64,225.521,931.63,225.504,931.621,225.486"/>
		</g>
	</g>
	<g>
		<g>
			<defs>
				<path id="SVGID_104_" d="M932.253,226.645c0.104,0.193,0.256,0.336,0.416,0.412c0.145,0.064,0.295,0.074,0.419,0.018
					l47.577-22.057c-0.124,0.055-0.274,0.045-0.416-0.02c-0.162-0.074-0.314-0.219-0.42-0.412L932.253,226.645z"/>
			</defs>
			<clipPath id="SVGID_55_">
				<use xlink:href="#SVGID_104_"  overflow="visible"/>
			</clipPath>
			<path clip-path="url(#SVGID_55_)" fill="#8892A0" d="M932.253,226.645l47.576-22.059c0.033,0.062,0.074,0.121,0.115,0.17
				l-47.577,22.059C932.324,226.764,932.285,226.707,932.253,226.645"/>
		</g>
		<g>
			<defs>
				<path id="SVGID_106_" d="M932.253,226.645c0.104,0.193,0.256,0.336,0.416,0.412c0.145,0.064,0.295,0.074,0.419,0.018
					l47.577-22.057c-0.124,0.055-0.274,0.045-0.416-0.02c-0.162-0.074-0.314-0.219-0.42-0.412L932.253,226.645z"/>
			</defs>
			<clipPath id="SVGID_57_">
				<use xlink:href="#SVGID_106_"  overflow="visible"/>
			</clipPath>
			<path clip-path="url(#SVGID_57_)" fill="#858F9D" d="M932.367,226.814l47.575-22.059c0.016,0.02,0.033,0.037,0.051,0.055
				l-47.578,22.059C932.397,226.852,932.382,226.834,932.367,226.814"/>
		</g>
		<g>
			<defs>
				<path id="SVGID_108_" d="M932.253,226.645c0.104,0.193,0.256,0.336,0.416,0.412c0.145,0.064,0.295,0.074,0.419,0.018
					l47.577-22.057c-0.124,0.055-0.274,0.045-0.416-0.02c-0.162-0.074-0.314-0.219-0.42-0.412L932.253,226.645z"/>
			</defs>
			<clipPath id="SVGID_59_">
				<use xlink:href="#SVGID_108_"  overflow="visible"/>
			</clipPath>
			<path clip-path="url(#SVGID_59_)" fill="#828C99" d="M932.415,226.869l47.578-22.059c0.012,0.014,0.024,0.027,0.037,0.039
				l-47.577,22.059C932.439,226.896,932.428,226.883,932.415,226.869"/>
		</g>
		<g>
			<defs>
				<path id="SVGID_110_" d="M932.253,226.645c0.104,0.193,0.256,0.336,0.416,0.412c0.145,0.064,0.295,0.074,0.419,0.018
					l47.577-22.057c-0.124,0.055-0.274,0.045-0.416-0.02c-0.162-0.074-0.314-0.219-0.42-0.412L932.253,226.645z"/>
			</defs>
			<clipPath id="SVGID_61_">
				<use xlink:href="#SVGID_110_"  overflow="visible"/>
			</clipPath>
			<path clip-path="url(#SVGID_61_)" fill="#818996" d="M932.453,226.908l47.577-22.059c0.013,0.01,0.021,0.02,0.033,0.029
				l-47.577,22.059C932.477,226.926,932.465,226.918,932.453,226.908"/>
		</g>
		<g>
			<defs>
				<path id="SVGID_112_" d="M932.253,226.645c0.104,0.193,0.256,0.336,0.416,0.412c0.145,0.064,0.295,0.074,0.419,0.018
					l47.577-22.057c-0.124,0.055-0.274,0.045-0.416-0.02c-0.162-0.074-0.314-0.219-0.42-0.412L932.253,226.645z"/>
			</defs>
			<clipPath id="SVGID_63_">
				<use xlink:href="#SVGID_112_"  overflow="visible"/>
			</clipPath>
			<path clip-path="url(#SVGID_63_)" fill="#7E8693" d="M932.486,226.938l47.577-22.059c0.012,0.01,0.021,0.016,0.033,0.023
				l-47.579,22.061C932.507,226.953,932.497,226.945,932.486,226.938"/>
		</g>
		<g>
			<defs>
				<path id="SVGID_114_" d="M932.253,226.645c0.104,0.193,0.256,0.336,0.416,0.412c0.145,0.064,0.295,0.074,0.419,0.018
					l47.577-22.057c-0.124,0.055-0.274,0.045-0.416-0.02c-0.162-0.074-0.314-0.219-0.42-0.412L932.253,226.645z"/>
			</defs>
			<clipPath id="SVGID_65_">
				<use xlink:href="#SVGID_114_"  overflow="visible"/>
			</clipPath>
			<path clip-path="url(#SVGID_65_)" fill="#7B8390" d="M932.518,226.961l47.577-22.059c0.012,0.01,0.02,0.016,0.028,0.023
				l-47.577,22.059C932.536,226.977,932.528,226.969,932.518,226.961"/>
		</g>
		<g>
			<defs>
				<path id="SVGID_116_" d="M932.253,226.645c0.104,0.193,0.256,0.336,0.416,0.412c0.145,0.064,0.295,0.074,0.419,0.018
					l47.577-22.057c-0.124,0.055-0.274,0.045-0.416-0.02c-0.162-0.074-0.314-0.219-0.42-0.412L932.253,226.645z"/>
			</defs>
			<clipPath id="SVGID_67_">
				<use xlink:href="#SVGID_116_"  overflow="visible"/>
			</clipPath>
			<path clip-path="url(#SVGID_67_)" fill="#78808C" d="M932.548,226.984l47.575-22.059c0.01,0.006,0.021,0.012,0.029,0.018
				l-47.577,22.061C932.564,226.996,932.556,226.988,932.548,226.984"/>
		</g>
		<g>
			<defs>
				<path id="SVGID_118_" d="M932.253,226.645c0.104,0.193,0.256,0.336,0.416,0.412c0.145,0.064,0.295,0.074,0.419,0.018
					l47.577-22.057c-0.124,0.055-0.274,0.045-0.416-0.02c-0.162-0.074-0.314-0.219-0.42-0.412L932.253,226.645z"/>
			</defs>
			<clipPath id="SVGID_69_">
				<use xlink:href="#SVGID_118_"  overflow="visible"/>
			</clipPath>
			<path clip-path="url(#SVGID_69_)" fill="#757E89" d="M932.575,227.002l47.577-22.059c0.01,0.008,0.018,0.012,0.027,0.018
				l-47.577,22.059C932.594,227.014,932.584,227.008,932.575,227.002"/>
		</g>
		<g>
			<defs>
				<path id="SVGID_120_" d="M932.253,226.645c0.104,0.193,0.256,0.336,0.416,0.412c0.145,0.064,0.295,0.074,0.419,0.018
					l47.577-22.057c-0.124,0.055-0.274,0.045-0.416-0.02c-0.162-0.074-0.314-0.219-0.42-0.412L932.253,226.645z"/>
			</defs>
			<clipPath id="SVGID_71_">
				<use xlink:href="#SVGID_120_"  overflow="visible"/>
			</clipPath>
			<path clip-path="url(#SVGID_71_)" fill="#727B86" d="M932.603,227.02l47.577-22.059c0.011,0.006,0.019,0.01,0.028,0.016
				l-47.577,22.059C932.62,227.029,932.612,227.025,932.603,227.02"/>
		</g>
		<g>
			<defs>
				<path id="SVGID_122_" d="M932.253,226.645c0.104,0.193,0.256,0.336,0.416,0.412c0.145,0.064,0.295,0.074,0.419,0.018
					l47.577-22.057c-0.124,0.055-0.274,0.045-0.416-0.02c-0.162-0.074-0.314-0.219-0.42-0.412L932.253,226.645z"/>
			</defs>
			<clipPath id="SVGID_73_">
				<use xlink:href="#SVGID_122_"  overflow="visible"/>
			</clipPath>
			<path clip-path="url(#SVGID_73_)" fill="#707883" d="M932.631,227.035l47.575-22.059c0.01,0.006,0.018,0.01,0.026,0.014
				l-47.577,22.057C932.647,227.043,932.638,227.039,932.631,227.035"/>
		</g>
		<g>
			<defs>
				<path id="SVGID_124_" d="M932.253,226.645c0.104,0.193,0.256,0.336,0.416,0.412c0.145,0.064,0.295,0.074,0.419,0.018
					l47.577-22.057c-0.124,0.055-0.274,0.045-0.416-0.02c-0.162-0.074-0.314-0.219-0.42-0.412L932.253,226.645z"/>
			</defs>
			<clipPath id="SVGID_75_">
				<use xlink:href="#SVGID_124_"  overflow="visible"/>
			</clipPath>
			<path clip-path="url(#SVGID_75_)" fill="#6D757F" d="M932.655,227.047l47.577-22.057c0.006,0.002,0.01,0.004,0.014,0.008
				c0.005,0.002,0.011,0.004,0.013,0.006l-47.578,22.057c-0.005-0.002-0.008-0.004-0.012-0.004
				C932.665,227.053,932.659,227.051,932.655,227.047"/>
		</g>
		<g>
			<defs>
				<path id="SVGID_126_" d="M932.253,226.645c0.104,0.193,0.256,0.336,0.416,0.412c0.145,0.064,0.295,0.074,0.419,0.018
					l47.577-22.057c-0.124,0.055-0.274,0.045-0.416-0.02c-0.162-0.074-0.314-0.219-0.42-0.412L932.253,226.645z"/>
			</defs>
			<clipPath id="SVGID_77_">
				<use xlink:href="#SVGID_126_"  overflow="visible"/>
			</clipPath>
			<path clip-path="url(#SVGID_77_)" fill="#6A727C" d="M932.683,227.061l47.576-22.057c0.007,0.002,0.017,0.006,0.026,0.01
				l-47.579,22.059C932.698,227.068,932.69,227.064,932.683,227.061"/>
		</g>
		<g>
			<defs>
				<path id="SVGID_128_" d="M932.253,226.645c0.104,0.193,0.256,0.336,0.416,0.412c0.145,0.064,0.295,0.074,0.419,0.018
					l47.577-22.057c-0.124,0.055-0.274,0.045-0.416-0.02c-0.162-0.074-0.314-0.219-0.42-0.412L932.253,226.645z"/>
			</defs>
			<clipPath id="SVGID_79_">
				<use xlink:href="#SVGID_128_"  overflow="visible"/>
			</clipPath>
			<path clip-path="url(#SVGID_79_)" fill="#676E79" d="M932.706,227.07l47.577-22.057c0.01,0.002,0.02,0.004,0.027,0.008
				l-47.577,22.061C932.723,227.078,932.715,227.074,932.706,227.07"/>
		</g>
		<g>
			<defs>
				<path id="SVGID_130_" d="M932.253,226.645c0.104,0.193,0.256,0.336,0.416,0.412c0.145,0.064,0.295,0.074,0.419,0.018
					l47.577-22.057c-0.124,0.055-0.274,0.045-0.416-0.02c-0.162-0.074-0.314-0.219-0.42-0.412L932.253,226.645z"/>
			</defs>
			<clipPath id="SVGID_81_">
				<use xlink:href="#SVGID_130_"  overflow="visible"/>
			</clipPath>
			<path clip-path="url(#SVGID_81_)" fill="#646B76" d="M932.733,227.08l47.577-22.059c0.01,0.004,0.018,0.008,0.026,0.012
				l-47.576,22.055C932.751,227.086,932.743,227.082,932.733,227.08"/>
		</g>
		<g>
			<defs>
				<path id="SVGID_132_" d="M932.253,226.645c0.104,0.193,0.256,0.336,0.416,0.412c0.145,0.064,0.295,0.074,0.419,0.018
					l47.577-22.057c-0.124,0.055-0.274,0.045-0.416-0.02c-0.162-0.074-0.314-0.219-0.42-0.412L932.253,226.645z"/>
			</defs>
			<clipPath id="SVGID_83_">
				<use xlink:href="#SVGID_132_"  overflow="visible"/>
			</clipPath>
			<path clip-path="url(#SVGID_83_)" fill="#616872" d="M932.759,227.088l47.577-22.055c0.009,0.002,0.017,0.004,0.028,0.006
				l-47.579,22.057C932.776,227.094,932.769,227.092,932.759,227.088"/>
		</g>
		<g>
			<defs>
				<path id="SVGID_134_" d="M932.253,226.645c0.104,0.193,0.256,0.336,0.416,0.412c0.145,0.064,0.295,0.074,0.419,0.018
					l47.577-22.057c-0.124,0.055-0.274,0.045-0.416-0.02c-0.162-0.074-0.314-0.219-0.42-0.412L932.253,226.645z"/>
			</defs>
			<clipPath id="SVGID_85_">
				<use xlink:href="#SVGID_134_"  overflow="visible"/>
			</clipPath>
			<path clip-path="url(#SVGID_85_)" fill="#5F656F" d="M932.785,227.096l47.579-22.057c0.008,0.002,0.017,0.004,0.026,0.006
				l-47.577,22.057C932.804,227.1,932.796,227.098,932.785,227.096"/>
		</g>
		<g>
			<defs>
				<path id="SVGID_136_" d="M932.253,226.645c0.104,0.193,0.256,0.336,0.416,0.412c0.145,0.064,0.295,0.074,0.419,0.018
					l47.577-22.057c-0.124,0.055-0.274,0.045-0.416-0.02c-0.162-0.074-0.314-0.219-0.42-0.412L932.253,226.645z"/>
			</defs>
			<clipPath id="SVGID_87_">
				<use xlink:href="#SVGID_136_"  overflow="visible"/>
			</clipPath>
			<path clip-path="url(#SVGID_87_)" fill="#5C626C" d="M932.813,227.102l47.577-22.057c0.008,0,0.018,0.002,0.027,0.004
				l-47.578,22.059C932.83,227.105,932.82,227.104,932.813,227.102"/>
		</g>
		<g>
			<defs>
				<path id="SVGID_138_" d="M932.253,226.645c0.104,0.193,0.256,0.336,0.416,0.412c0.145,0.064,0.295,0.074,0.419,0.018
					l47.577-22.057c-0.124,0.055-0.274,0.045-0.416-0.02c-0.162-0.074-0.314-0.219-0.42-0.412L932.253,226.645z"/>
			</defs>
			<clipPath id="SVGID_89_">
				<use xlink:href="#SVGID_138_"  overflow="visible"/>
			</clipPath>
			<path clip-path="url(#SVGID_89_)" fill="#595F69" d="M932.84,227.107l47.578-22.059c0.01,0.002,0.02,0.002,0.027,0.004
				l-47.578,22.057C932.857,227.109,932.849,227.109,932.84,227.107"/>
		</g>
		<g>
			<defs>
				<path id="SVGID_140_" d="M932.253,226.645c0.104,0.193,0.256,0.336,0.416,0.412c0.145,0.064,0.295,0.074,0.419,0.018
					l47.577-22.057c-0.124,0.055-0.274,0.045-0.416-0.02c-0.162-0.074-0.314-0.219-0.42-0.412L932.253,226.645z"/>
			</defs>
			<clipPath id="SVGID_91_">
				<use xlink:href="#SVGID_140_"  overflow="visible"/>
			</clipPath>
			<path clip-path="url(#SVGID_91_)" fill="#565C64" d="M932.867,227.109l47.578-22.057c0.009,0.002,0.019,0.002,0.029,0.002
				l-47.579,22.057C932.887,227.111,932.877,227.111,932.867,227.109"/>
		</g>
		<g>
			<defs>
				<path id="SVGID_142_" d="M932.253,226.645c0.104,0.193,0.256,0.336,0.416,0.412c0.145,0.064,0.295,0.074,0.419,0.018
					l47.577-22.057c-0.124,0.055-0.274,0.045-0.416-0.02c-0.162-0.074-0.314-0.219-0.42-0.412L932.253,226.645z"/>
			</defs>
			<clipPath id="SVGID_93_">
				<use xlink:href="#SVGID_142_"  overflow="visible"/>
			</clipPath>
			<path clip-path="url(#SVGID_93_)" fill="#535961" d="M932.896,227.111l47.581-22.057c0.009,0,0.019,0,0.03,0l-47.578,22.057
				C932.919,227.111,932.909,227.113,932.896,227.111"/>
		</g>
		<g>
			<defs>
				<path id="SVGID_144_" d="M932.253,226.645c0.104,0.193,0.256,0.336,0.416,0.412c0.145,0.064,0.295,0.074,0.419,0.018
					l47.577-22.057c-0.124,0.055-0.274,0.045-0.416-0.02c-0.162-0.074-0.314-0.219-0.42-0.412L932.253,226.645z"/>
			</defs>
			<clipPath id="SVGID_95_">
				<use xlink:href="#SVGID_144_"  overflow="visible"/>
			</clipPath>
			<path clip-path="url(#SVGID_95_)" fill="#4F555E" d="M932.929,227.111l47.576-22.057c0.012,0,0.024-0.002,0.036-0.004
				l-47.577,22.059C932.951,227.111,932.939,227.111,932.929,227.111"/>
		</g>
		<g>
			<defs>
				<path id="SVGID_146_" d="M932.253,226.645c0.104,0.193,0.256,0.336,0.416,0.412c0.145,0.064,0.295,0.074,0.419,0.018
					l47.577-22.057c-0.124,0.055-0.274,0.045-0.416-0.02c-0.162-0.074-0.314-0.219-0.42-0.412L932.253,226.645z"/>
			</defs>
			<clipPath id="SVGID_97_">
				<use xlink:href="#SVGID_146_"  overflow="visible"/>
			</clipPath>
			<path clip-path="url(#SVGID_97_)" fill="#4E525B" d="M932.964,227.109l47.577-22.059c0.012-0.002,0.024-0.002,0.039-0.006
				L933,227.104C932.988,227.105,932.977,227.107,932.964,227.109"/>
		</g>
		<g>
			<defs>
				<path id="SVGID_148_" d="M932.253,226.645c0.104,0.193,0.256,0.336,0.416,0.412c0.145,0.064,0.295,0.074,0.419,0.018
					l47.577-22.057c-0.124,0.055-0.274,0.045-0.416-0.02c-0.162-0.074-0.314-0.219-0.42-0.412L932.253,226.645z"/>
			</defs>
			<clipPath id="SVGID_99_">
				<use xlink:href="#SVGID_148_"  overflow="visible"/>
			</clipPath>
			<path clip-path="url(#SVGID_99_)" fill="#4A4F57" d="M933,227.102l47.577-22.057c0.017-0.004,0.033-0.008,0.047-0.012
				l-47.578,22.059C933.033,227.096,933.016,227.1,933,227.102"/>
		</g>
		<g>
			<defs>
				<path id="SVGID_150_" d="M932.253,226.645c0.104,0.193,0.256,0.336,0.416,0.412c0.145,0.064,0.295,0.074,0.419,0.018
					l47.577-22.057c-0.124,0.055-0.274,0.045-0.416-0.02c-0.162-0.074-0.314-0.219-0.42-0.412L932.253,226.645z"/>
			</defs>
			<clipPath id="SVGID_101_">
				<use xlink:href="#SVGID_150_"  overflow="visible"/>
			</clipPath>
			<path clip-path="url(#SVGID_101_)" fill="#474C54" d="M933.046,227.092l47.578-22.059c0.014-0.004,0.027-0.012,0.041-0.016
				l-47.579,22.059C933.075,227.08,933.06,227.086,933.046,227.092"/>
		</g>
	</g>
	<polygon fill="#757E89" points="921.284,206.434 968.861,184.375 978.963,189.068 931.386,211.127 	"/>
	<polygon fill="#50565E" points="931.929,212.025 979.506,189.965 979.104,202.996 931.526,225.055 	"/>
	<g>
		<g>
			<defs>
				<path id="SVGID_152_" d="M946.944,238.883c-0.02,0.199-0.115,0.34-0.253,0.402l47.177-22.789
					c0.139-0.062,0.232-0.205,0.252-0.402L946.944,238.883z"/>
			</defs>
			<clipPath id="SVGID_103_">
				<use xlink:href="#SVGID_152_"  overflow="visible"/>
			</clipPath>
			<path clip-path="url(#SVGID_103_)" fill="#646B76" d="M946.944,238.883l47.174-22.789c0,0.002,0,0.006,0,0.008l-47.174,22.789
				V238.883"/>
		</g>
		<g>
			<defs>
				<path id="SVGID_154_" d="M946.944,238.883c-0.02,0.199-0.115,0.34-0.253,0.402l47.177-22.789
					c0.139-0.062,0.232-0.205,0.252-0.402L946.944,238.883z"/>
			</defs>
			<clipPath id="SVGID_105_">
				<use xlink:href="#SVGID_154_"  overflow="visible"/>
			</clipPath>
			<path clip-path="url(#SVGID_105_)" fill="#616872" d="M946.944,238.891l47.174-22.789c0,0.01-0.002,0.018-0.002,0.029
				l-47.178,22.789C946.94,238.91,946.942,238.9,946.944,238.891"/>
		</g>
		<g>
			<defs>
				<path id="SVGID_156_" d="M946.944,238.883c-0.02,0.199-0.115,0.34-0.253,0.402l47.177-22.789
					c0.139-0.062,0.232-0.205,0.252-0.402L946.944,238.883z"/>
			</defs>
			<clipPath id="SVGID_107_">
				<use xlink:href="#SVGID_156_"  overflow="visible"/>
			</clipPath>
			<path clip-path="url(#SVGID_107_)" fill="#5F656F" d="M946.938,238.92l47.176-22.789c0,0.01-0.002,0.02-0.004,0.029
				l-47.176,22.789C946.937,238.939,946.938,238.93,946.938,238.92"/>
		</g>
		<g>
			<defs>
				<path id="SVGID_158_" d="M946.944,238.883c-0.02,0.199-0.115,0.34-0.253,0.402l47.177-22.789
					c0.139-0.062,0.232-0.205,0.252-0.402L946.944,238.883z"/>
			</defs>
			<clipPath id="SVGID_109_">
				<use xlink:href="#SVGID_158_"  overflow="visible"/>
			</clipPath>
			<path clip-path="url(#SVGID_109_)" fill="#5C626C" d="M946.935,238.949l47.176-22.789c-0.002,0.008-0.004,0.02-0.006,0.029
				l-47.176,22.789C946.931,238.969,946.933,238.957,946.935,238.949"/>
		</g>
		<g>
			<defs>
				<path id="SVGID_160_" d="M946.944,238.883c-0.02,0.199-0.115,0.34-0.253,0.402l47.177-22.789
					c0.139-0.062,0.232-0.205,0.252-0.402L946.944,238.883z"/>
			</defs>
			<clipPath id="SVGID_111_">
				<use xlink:href="#SVGID_160_"  overflow="visible"/>
			</clipPath>
			<path clip-path="url(#SVGID_111_)" fill="#595F69" d="M946.929,238.977l47.176-22.789c-0.002,0.01-0.005,0.018-0.007,0.029
				l-47.178,22.789C946.923,238.996,946.927,238.986,946.929,238.977"/>
		</g>
		<g>
			<defs>
				<path id="SVGID_162_" d="M946.944,238.883c-0.02,0.199-0.115,0.34-0.253,0.402l47.177-22.789
					c0.139-0.062,0.232-0.205,0.252-0.402L946.944,238.883z"/>
			</defs>
			<clipPath id="SVGID_113_">
				<use xlink:href="#SVGID_162_"  overflow="visible"/>
			</clipPath>
			<path clip-path="url(#SVGID_113_)" fill="#565C64" d="M946.92,239.006l47.176-22.789c0,0.01-0.005,0.02-0.009,0.027
				l-47.177,22.791C946.913,239.025,946.915,239.016,946.92,239.006"/>
		</g>
		<g>
			<defs>
				<path id="SVGID_164_" d="M946.944,238.883c-0.02,0.199-0.115,0.34-0.253,0.402l47.177-22.789
					c0.139-0.062,0.232-0.205,0.252-0.402L946.944,238.883z"/>
			</defs>
			<clipPath id="SVGID_115_">
				<use xlink:href="#SVGID_164_"  overflow="visible"/>
			</clipPath>
			<path clip-path="url(#SVGID_115_)" fill="#535961" d="M946.91,239.035l47.177-22.789c-0.004,0.012-0.008,0.021-0.012,0.029
				l-47.177,22.789C946.902,239.057,946.906,239.045,946.91,239.035"/>
		</g>
		<g>
			<defs>
				<path id="SVGID_166_" d="M946.944,238.883c-0.02,0.199-0.115,0.34-0.253,0.402l47.177-22.789
					c0.139-0.062,0.232-0.205,0.252-0.402L946.944,238.883z"/>
			</defs>
			<clipPath id="SVGID_117_">
				<use xlink:href="#SVGID_166_"  overflow="visible"/>
			</clipPath>
			<path clip-path="url(#SVGID_117_)" fill="#4F555E" d="M946.898,239.064l47.177-22.789c-0.006,0.012-0.01,0.023-0.015,0.031
				L946.883,239.1C946.889,239.088,946.893,239.076,946.898,239.064"/>
		</g>
		<g>
			<defs>
				<path id="SVGID_168_" d="M946.944,238.883c-0.02,0.199-0.115,0.34-0.253,0.402l47.177-22.789
					c0.139-0.062,0.232-0.205,0.252-0.402L946.944,238.883z"/>
			</defs>
			<clipPath id="SVGID_119_">
				<use xlink:href="#SVGID_168_"  overflow="visible"/>
			</clipPath>
			<path clip-path="url(#SVGID_119_)" fill="#4E525B" d="M946.883,239.1l47.178-22.791c-0.007,0.012-0.013,0.023-0.021,0.033
				l-47.175,22.789C946.87,239.123,946.877,239.109,946.883,239.1"/>
		</g>
		<g>
			<defs>
				<path id="SVGID_170_" d="M946.944,238.883c-0.02,0.199-0.115,0.34-0.253,0.402l47.177-22.789
					c0.139-0.062,0.232-0.205,0.252-0.402L946.944,238.883z"/>
			</defs>
			<clipPath id="SVGID_121_">
				<use xlink:href="#SVGID_170_"  overflow="visible"/>
			</clipPath>
			<path clip-path="url(#SVGID_121_)" fill="#4A4F57" d="M946.864,239.131l47.175-22.789c-0.01,0.016-0.019,0.029-0.028,0.041
				l-47.176,22.789C946.844,239.16,946.854,239.146,946.864,239.131"/>
		</g>
		<g>
			<defs>
				<path id="SVGID_172_" d="M946.944,238.883c-0.02,0.199-0.115,0.34-0.253,0.402l47.177-22.789
					c0.139-0.062,0.232-0.205,0.252-0.402L946.944,238.883z"/>
			</defs>
			<clipPath id="SVGID_123_">
				<use xlink:href="#SVGID_172_"  overflow="visible"/>
			</clipPath>
			<path clip-path="url(#SVGID_123_)" fill="#474C54" d="M946.833,239.172l47.178-22.789c-0.039,0.051-0.088,0.088-0.143,0.113
				l-47.177,22.789C946.746,239.26,946.794,239.223,946.833,239.172"/>
		</g>
	</g>
	<g>
		<g>
			<defs>
				<path id="SVGID_174_" d="M931.386,211.127c0.317,0.148,0.553,0.541,0.543,0.896l47.577-22.057
					c0.01-0.357-0.226-0.75-0.543-0.898L931.386,211.127z"/>
			</defs>
			<clipPath id="SVGID_125_">
				<use xlink:href="#SVGID_174_"  overflow="visible"/>
			</clipPath>
			<path clip-path="url(#SVGID_125_)" fill="#6D757F" d="M931.386,211.127l47.577-22.059c0.004,0.002,0.01,0.006,0.015,0.008
				l-47.579,22.057C931.395,211.131,931.391,211.129,931.386,211.127"/>
		</g>
		<g>
			<defs>
				<path id="SVGID_176_" d="M931.386,211.127c0.317,0.148,0.553,0.541,0.543,0.896l47.577-22.057
					c0.01-0.357-0.226-0.75-0.543-0.898L931.386,211.127z"/>
			</defs>
			<clipPath id="SVGID_127_">
				<use xlink:href="#SVGID_176_"  overflow="visible"/>
			</clipPath>
			<path clip-path="url(#SVGID_127_)" fill="#707883" d="M931.398,211.133l47.579-22.057c0.007,0.004,0.017,0.008,0.026,0.012
				l-47.578,22.059C931.417,211.143,931.409,211.139,931.398,211.133"/>
		</g>
		<g>
			<defs>
				<path id="SVGID_178_" d="M931.386,211.127c0.317,0.148,0.553,0.541,0.543,0.896l47.577-22.057
					c0.01-0.357-0.226-0.75-0.543-0.898L931.386,211.127z"/>
			</defs>
			<clipPath id="SVGID_129_">
				<use xlink:href="#SVGID_178_"  overflow="visible"/>
			</clipPath>
			<path clip-path="url(#SVGID_129_)" fill="#727B86" d="M931.426,211.146l47.576-22.059c0.012,0.006,0.019,0.012,0.026,0.018
				l-47.576,22.057C931.444,211.158,931.435,211.15,931.426,211.146"/>
		</g>
		<g>
			<defs>
				<path id="SVGID_180_" d="M931.386,211.127c0.317,0.148,0.553,0.541,0.543,0.896l47.577-22.057
					c0.01-0.357-0.226-0.75-0.543-0.898L931.386,211.127z"/>
			</defs>
			<clipPath id="SVGID_131_">
				<use xlink:href="#SVGID_180_"  overflow="visible"/>
			</clipPath>
			<path clip-path="url(#SVGID_131_)" fill="#757E89" d="M931.452,211.162l47.576-22.059c0.011,0.006,0.02,0.012,0.028,0.016
				l-47.577,22.059C931.47,211.172,931.46,211.168,931.452,211.162"/>
		</g>
		<g>
			<defs>
				<path id="SVGID_182_" d="M931.386,211.127c0.317,0.148,0.553,0.541,0.543,0.896l47.577-22.057
					c0.01-0.357-0.226-0.75-0.543-0.898L931.386,211.127z"/>
			</defs>
			<clipPath id="SVGID_133_">
				<use xlink:href="#SVGID_182_"  overflow="visible"/>
			</clipPath>
			<path clip-path="url(#SVGID_133_)" fill="#78808C" d="M931.479,211.178l47.577-22.059c0.01,0.008,0.02,0.014,0.027,0.021
				l-47.578,22.059C931.497,211.191,931.489,211.184,931.479,211.178"/>
		</g>
		<g>
			<defs>
				<path id="SVGID_184_" d="M931.386,211.127c0.317,0.148,0.553,0.541,0.543,0.896l47.577-22.057
					c0.01-0.357-0.226-0.75-0.543-0.898L931.386,211.127z"/>
			</defs>
			<clipPath id="SVGID_135_">
				<use xlink:href="#SVGID_184_"  overflow="visible"/>
			</clipPath>
			<path clip-path="url(#SVGID_135_)" fill="#7B8390" d="M931.506,211.199l47.578-22.059c0.01,0.008,0.02,0.012,0.029,0.02
				l-47.578,22.059C931.528,211.213,931.516,211.205,931.506,211.199"/>
		</g>
		<g>
			<defs>
				<path id="SVGID_186_" d="M931.386,211.127c0.317,0.148,0.553,0.541,0.543,0.896l47.577-22.057
					c0.01-0.357-0.226-0.75-0.543-0.898L931.386,211.127z"/>
			</defs>
			<clipPath id="SVGID_137_">
				<use xlink:href="#SVGID_186_"  overflow="visible"/>
			</clipPath>
			<path clip-path="url(#SVGID_137_)" fill="#7E8693" d="M931.535,211.219l47.578-22.059c0.012,0.01,0.019,0.016,0.03,0.027
				l-47.577,22.057C931.557,211.236,931.547,211.227,931.535,211.219"/>
		</g>
		<g>
			<defs>
				<path id="SVGID_188_" d="M931.386,211.127c0.317,0.148,0.553,0.541,0.543,0.896l47.577-22.057
					c0.01-0.357-0.226-0.75-0.543-0.898L931.386,211.127z"/>
			</defs>
			<clipPath id="SVGID_139_">
				<use xlink:href="#SVGID_188_"  overflow="visible"/>
			</clipPath>
			<path clip-path="url(#SVGID_139_)" fill="#818996" d="M931.566,211.244l47.575-22.057c0.013,0.01,0.023,0.02,0.035,0.029
				l-47.576,22.059C931.588,211.262,931.578,211.254,931.566,211.244"/>
		</g>
		<g>
			<defs>
				<path id="SVGID_190_" d="M931.386,211.127c0.317,0.148,0.553,0.541,0.543,0.896l47.577-22.057
					c0.01-0.357-0.226-0.75-0.543-0.898L931.386,211.127z"/>
			</defs>
			<clipPath id="SVGID_141_">
				<use xlink:href="#SVGID_190_"  overflow="visible"/>
			</clipPath>
			<path clip-path="url(#SVGID_141_)" fill="#828C99" d="M931.601,211.273l47.576-22.057c0.014,0.012,0.027,0.023,0.039,0.039
				l-47.576,22.055C931.625,211.299,931.613,211.285,931.601,211.273"/>
		</g>
		<g>
			<defs>
				<path id="SVGID_192_" d="M931.386,211.127c0.317,0.148,0.553,0.541,0.543,0.896l47.577-22.057
					c0.01-0.357-0.226-0.75-0.543-0.898L931.386,211.127z"/>
			</defs>
			<clipPath id="SVGID_143_">
				<use xlink:href="#SVGID_192_"  overflow="visible"/>
			</clipPath>
			<path clip-path="url(#SVGID_143_)" fill="#858F9D" d="M931.64,211.312l47.576-22.059c0.017,0.018,0.031,0.035,0.05,0.055
				l-47.578,22.059C931.672,211.348,931.656,211.33,931.64,211.312"/>
		</g>
		<g>
			<defs>
				<path id="SVGID_194_" d="M931.386,211.127c0.317,0.148,0.553,0.541,0.543,0.896l47.577-22.057
					c0.01-0.357-0.226-0.75-0.543-0.898L931.386,211.127z"/>
			</defs>
			<clipPath id="SVGID_145_">
				<use xlink:href="#SVGID_194_"  overflow="visible"/>
			</clipPath>
			<path clip-path="url(#SVGID_145_)" fill="#8892A0" d="M931.688,211.367l47.578-22.059c0.056,0.07,0.104,0.146,0.144,0.229
				l-47.578,22.059C931.794,211.512,931.744,211.436,931.688,211.367"/>
		</g>
		<g>
			<defs>
				<path id="SVGID_196_" d="M931.386,211.127c0.317,0.148,0.553,0.541,0.543,0.896l47.577-22.057
					c0.01-0.357-0.226-0.75-0.543-0.898L931.386,211.127z"/>
			</defs>
			<clipPath id="SVGID_147_">
				<use xlink:href="#SVGID_196_"  overflow="visible"/>
			</clipPath>
			<path clip-path="url(#SVGID_147_)" fill="#858F9D" d="M931.831,211.594l47.58-22.057c0.011,0.021,0.02,0.045,0.027,0.066
				l-47.577,22.059C931.854,211.639,931.841,211.617,931.831,211.594"/>
		</g>
		<g>
			<defs>
				<path id="SVGID_198_" d="M931.386,211.127c0.317,0.148,0.553,0.541,0.543,0.896l47.577-22.057
					c0.01-0.357-0.226-0.75-0.543-0.898L931.386,211.127z"/>
			</defs>
			<clipPath id="SVGID_149_">
				<use xlink:href="#SVGID_198_"  overflow="visible"/>
			</clipPath>
			<path clip-path="url(#SVGID_149_)" fill="#828C99" d="M931.861,211.662l47.577-22.059c0.008,0.018,0.014,0.035,0.019,0.053
				l-47.577,22.061C931.874,211.697,931.868,211.682,931.861,211.662"/>
		</g>
		<g>
			<defs>
				<path id="SVGID_200_" d="M931.386,211.127c0.317,0.148,0.553,0.541,0.543,0.896l47.577-22.057
					c0.01-0.357-0.226-0.75-0.543-0.898L931.386,211.127z"/>
			</defs>
			<clipPath id="SVGID_151_">
				<use xlink:href="#SVGID_200_"  overflow="visible"/>
			</clipPath>
			<path clip-path="url(#SVGID_151_)" fill="#818996" d="M931.88,211.717l47.577-22.061c0.006,0.016,0.01,0.031,0.014,0.047
				l-47.577,22.057C931.89,211.746,931.886,211.73,931.88,211.717"/>
		</g>
		<g>
			<defs>
				<path id="SVGID_202_" d="M931.386,211.127c0.317,0.148,0.553,0.541,0.543,0.896l47.577-22.057
					c0.01-0.357-0.226-0.75-0.543-0.898L931.386,211.127z"/>
			</defs>
			<clipPath id="SVGID_153_">
				<use xlink:href="#SVGID_202_"  overflow="visible"/>
			</clipPath>
			<path clip-path="url(#SVGID_153_)" fill="#7E8693" d="M931.894,211.76l47.579-22.057c0.002,0.012,0.007,0.025,0.011,0.039
				l-47.579,22.059C931.9,211.787,931.897,211.773,931.894,211.76"/>
		</g>
		<g>
			<defs>
				<path id="SVGID_204_" d="M931.386,211.127c0.317,0.148,0.553,0.541,0.543,0.896l47.577-22.057
					c0.01-0.357-0.226-0.75-0.543-0.898L931.386,211.127z"/>
			</defs>
			<clipPath id="SVGID_155_">
				<use xlink:href="#SVGID_204_"  overflow="visible"/>
			</clipPath>
			<path clip-path="url(#SVGID_155_)" fill="#7B8390" d="M931.904,211.799l47.579-22.057c0.002,0.012,0.006,0.025,0.008,0.035
				l-47.578,22.059C931.909,211.824,931.907,211.811,931.904,211.799"/>
		</g>
		<g>
			<defs>
				<path id="SVGID_206_" d="M931.386,211.127c0.317,0.148,0.553,0.541,0.543,0.896l47.577-22.057
					c0.01-0.357-0.226-0.75-0.543-0.898L931.386,211.127z"/>
			</defs>
			<clipPath id="SVGID_157_">
				<use xlink:href="#SVGID_206_"  overflow="visible"/>
			</clipPath>
			<path clip-path="url(#SVGID_157_)" fill="#78808C" d="M931.911,211.836l47.58-22.059c0.001,0.012,0.001,0.023,0.005,0.035
				l-47.577,22.057C931.917,211.859,931.915,211.848,931.911,211.836"/>
		</g>
		<g>
			<defs>
				<path id="SVGID_208_" d="M931.386,211.127c0.317,0.148,0.553,0.541,0.543,0.896l47.577-22.057
					c0.01-0.357-0.226-0.75-0.543-0.898L931.386,211.127z"/>
			</defs>
			<clipPath id="SVGID_159_">
				<use xlink:href="#SVGID_208_"  overflow="visible"/>
			</clipPath>
			<path clip-path="url(#SVGID_159_)" fill="#757E89" d="M931.919,211.871l47.577-22.059c0.002,0.012,0.002,0.021,0.004,0.033
				l-47.577,22.059C931.921,211.895,931.921,211.883,931.919,211.871"/>
		</g>
		<g>
			<defs>
				<path id="SVGID_210_" d="M931.386,211.127c0.317,0.148,0.553,0.541,0.543,0.896l47.577-22.057
					c0.01-0.357-0.226-0.75-0.543-0.898L931.386,211.127z"/>
			</defs>
			<clipPath id="SVGID_161_">
				<use xlink:href="#SVGID_210_"  overflow="visible"/>
			</clipPath>
			<path clip-path="url(#SVGID_161_)" fill="#727B86" d="M931.923,211.904l47.579-22.059c0,0.01,0,0.021,0,0.033l-47.575,22.057
				C931.925,211.924,931.925,211.914,931.923,211.904"/>
		</g>
		<g>
			<defs>
				<path id="SVGID_212_" d="M931.386,211.127c0.317,0.148,0.553,0.541,0.543,0.896l47.577-22.057
					c0.01-0.357-0.226-0.75-0.543-0.898L931.386,211.127z"/>
			</defs>
			<clipPath id="SVGID_163_">
				<use xlink:href="#SVGID_212_"  overflow="visible"/>
			</clipPath>
			<path clip-path="url(#SVGID_163_)" fill="#707883" d="M931.927,211.936l47.575-22.057c0.002,0.008,0.004,0.018,0.004,0.029
				l-47.577,22.059C931.929,211.955,931.927,211.945,931.927,211.936"/>
		</g>
		<g>
			<defs>
				<path id="SVGID_214_" d="M931.386,211.127c0.317,0.148,0.553,0.541,0.543,0.896l47.577-22.057
					c0.01-0.357-0.226-0.75-0.543-0.898L931.386,211.127z"/>
			</defs>
			<clipPath id="SVGID_165_">
				<use xlink:href="#SVGID_214_"  overflow="visible"/>
			</clipPath>
			<path clip-path="url(#SVGID_165_)" fill="#6D757F" d="M931.929,211.967l47.577-22.059c0,0.01,0,0.02,0,0.031l-47.577,22.057
				C931.929,211.984,931.929,211.975,931.929,211.967"/>
		</g>
		<g>
			<defs>
				<path id="SVGID_216_" d="M931.386,211.127c0.317,0.148,0.553,0.541,0.543,0.896l47.577-22.057
					c0.01-0.357-0.226-0.75-0.543-0.898L931.386,211.127z"/>
			</defs>
			<clipPath id="SVGID_167_">
				<use xlink:href="#SVGID_216_"  overflow="visible"/>
			</clipPath>
			<path clip-path="url(#SVGID_167_)" fill="#6A727C" d="M931.929,211.996l47.577-22.059c0,0.01,0,0.02,0,0.029l-47.577,22.057
				C931.929,212.016,931.929,212.006,931.929,211.996"/>
		</g>
	</g>
	<g>
		<g>
			<defs>
				<path id="SVGID_218_" d="M983.907,191.541l-47.576,22.057c0.116-0.053,0.26-0.051,0.412,0.02l47.579-22.059
					c-0.084-0.037-0.164-0.057-0.24-0.057C984.021,191.502,983.961,191.516,983.907,191.541"/>
			</defs>
			<clipPath id="SVGID_169_">
				<use xlink:href="#SVGID_218_"  overflow="visible"/>
			</clipPath>
			<path clip-path="url(#SVGID_169_)" fill="#474C54" d="M936.331,213.598l47.574-22.059c0.014-0.004,0.025-0.01,0.039-0.014
				l-47.577,22.057C936.355,213.588,936.342,213.592,936.331,213.598"/>
		</g>
		<g>
			<defs>
				<path id="SVGID_220_" d="M983.907,191.541l-47.576,22.057c0.116-0.053,0.26-0.051,0.412,0.02l47.579-22.059
					c-0.084-0.037-0.164-0.057-0.24-0.057C984.021,191.502,983.961,191.516,983.907,191.541"/>
			</defs>
			<clipPath id="SVGID_171_">
				<use xlink:href="#SVGID_220_"  overflow="visible"/>
			</clipPath>
			<path clip-path="url(#SVGID_171_)" fill="#4A4F57" d="M936.367,213.582l47.577-22.057c0.017-0.006,0.031-0.01,0.047-0.014
				l-47.575,22.059C936.398,213.572,936.383,213.576,936.367,213.582"/>
		</g>
		<g>
			<defs>
				<path id="SVGID_222_" d="M983.907,191.541l-47.576,22.057c0.116-0.053,0.26-0.051,0.412,0.02l47.579-22.059
					c-0.084-0.037-0.164-0.057-0.24-0.057C984.021,191.502,983.961,191.516,983.907,191.541"/>
			</defs>
			<clipPath id="SVGID_173_">
				<use xlink:href="#SVGID_222_"  overflow="visible"/>
			</clipPath>
			<path clip-path="url(#SVGID_173_)" fill="#4E525B" d="M936.416,213.568l47.575-22.057c0.015-0.004,0.027-0.006,0.041-0.008
				l-47.58,22.059C936.441,213.564,936.427,213.566,936.416,213.568"/>
		</g>
		<g>
			<defs>
				<path id="SVGID_224_" d="M983.907,191.541l-47.576,22.057c0.116-0.053,0.26-0.051,0.412,0.02l47.579-22.059
					c-0.084-0.037-0.164-0.057-0.24-0.057C984.021,191.502,983.961,191.516,983.907,191.541"/>
			</defs>
			<clipPath id="SVGID_175_">
				<use xlink:href="#SVGID_224_"  overflow="visible"/>
			</clipPath>
			<path clip-path="url(#SVGID_175_)" fill="#4F555E" d="M936.452,213.562l47.58-22.057c0.01-0.002,0.021-0.004,0.033-0.004
				l-47.576,22.059C936.476,213.561,936.464,213.562,936.452,213.562"/>
		</g>
		<g>
			<defs>
				<path id="SVGID_226_" d="M983.907,191.541l-47.576,22.057c0.116-0.053,0.26-0.051,0.412,0.02l47.579-22.059
					c-0.084-0.037-0.164-0.057-0.24-0.057C984.021,191.502,983.961,191.516,983.907,191.541"/>
			</defs>
			<clipPath id="SVGID_177_">
				<use xlink:href="#SVGID_226_"  overflow="visible"/>
			</clipPath>
			<path clip-path="url(#SVGID_177_)" fill="#535961" d="M936.489,213.561l47.576-22.059c0.01,0,0.021,0,0.03,0l-47.576,22.059
				C936.51,213.561,936.498,213.561,936.489,213.561"/>
		</g>
		<g>
			<defs>
				<path id="SVGID_228_" d="M983.907,191.541l-47.576,22.057c0.116-0.053,0.26-0.051,0.412,0.02l47.579-22.059
					c-0.084-0.037-0.164-0.057-0.24-0.057C984.021,191.502,983.961,191.516,983.907,191.541"/>
			</defs>
			<clipPath id="SVGID_179_">
				<use xlink:href="#SVGID_228_"  overflow="visible"/>
			</clipPath>
			<path clip-path="url(#SVGID_179_)" fill="#565C64" d="M936.52,213.561l47.576-22.059c0.011,0,0.021,0.002,0.03,0.002
				l-47.577,22.059C936.538,213.562,936.528,213.561,936.52,213.561"/>
		</g>
		<g>
			<defs>
				<path id="SVGID_230_" d="M983.907,191.541l-47.576,22.057c0.116-0.053,0.26-0.051,0.412,0.02l47.579-22.059
					c-0.084-0.037-0.164-0.057-0.24-0.057C984.021,191.502,983.961,191.516,983.907,191.541"/>
			</defs>
			<clipPath id="SVGID_181_">
				<use xlink:href="#SVGID_230_"  overflow="visible"/>
			</clipPath>
			<path clip-path="url(#SVGID_181_)" fill="#595F69" d="M936.549,213.562l47.577-22.059c0.01,0.002,0.018,0.002,0.029,0.002
				l-47.578,22.061C936.567,213.562,936.559,213.562,936.549,213.562"/>
		</g>
		<g>
			<defs>
				<path id="SVGID_232_" d="M983.907,191.541l-47.576,22.057c0.116-0.053,0.26-0.051,0.412,0.02l47.579-22.059
					c-0.084-0.037-0.164-0.057-0.24-0.057C984.021,191.502,983.961,191.516,983.907,191.541"/>
			</defs>
			<clipPath id="SVGID_183_">
				<use xlink:href="#SVGID_232_"  overflow="visible"/>
			</clipPath>
			<path clip-path="url(#SVGID_183_)" fill="#5C626C" d="M936.577,213.566l47.576-22.061c0.01,0.004,0.018,0.006,0.027,0.008
				l-47.578,22.057C936.596,213.566,936.585,213.566,936.577,213.566"/>
		</g>
		<g>
			<defs>
				<path id="SVGID_234_" d="M983.907,191.541l-47.576,22.057c0.116-0.053,0.26-0.051,0.412,0.02l47.579-22.059
					c-0.084-0.037-0.164-0.057-0.24-0.057C984.021,191.502,983.961,191.516,983.907,191.541"/>
			</defs>
			<clipPath id="SVGID_185_">
				<use xlink:href="#SVGID_234_"  overflow="visible"/>
			</clipPath>
			<path clip-path="url(#SVGID_185_)" fill="#5F656F" d="M936.603,213.57l47.578-22.059c0.01,0.002,0.017,0.004,0.026,0.008
				l-47.577,22.057C936.62,213.574,936.612,213.57,936.603,213.57"/>
		</g>
		<g>
			<defs>
				<path id="SVGID_236_" d="M983.907,191.541l-47.576,22.057c0.116-0.053,0.26-0.051,0.412,0.02l47.579-22.059
					c-0.084-0.037-0.164-0.057-0.24-0.057C984.021,191.502,983.961,191.516,983.907,191.541"/>
			</defs>
			<clipPath id="SVGID_187_">
				<use xlink:href="#SVGID_236_"  overflow="visible"/>
			</clipPath>
			<path clip-path="url(#SVGID_187_)" fill="#616872" d="M936.63,213.576l47.577-22.057c0.01,0.002,0.019,0.004,0.025,0.006
				l-47.577,22.057C936.646,213.58,936.637,213.578,936.63,213.576"/>
		</g>
		<g>
			<defs>
				<path id="SVGID_238_" d="M983.907,191.541l-47.576,22.057c0.116-0.053,0.26-0.051,0.412,0.02l47.579-22.059
					c-0.084-0.037-0.164-0.057-0.24-0.057C984.021,191.502,983.961,191.516,983.907,191.541"/>
			</defs>
			<clipPath id="SVGID_189_">
				<use xlink:href="#SVGID_238_"  overflow="visible"/>
			</clipPath>
			<path clip-path="url(#SVGID_189_)" fill="#646B76" d="M936.655,213.582l47.577-22.057c0.01,0.004,0.018,0.006,0.025,0.01
				l-47.575,22.055C936.673,213.588,936.664,213.586,936.655,213.582"/>
		</g>
		<g>
			<defs>
				<path id="SVGID_240_" d="M983.907,191.541l-47.576,22.057c0.116-0.053,0.26-0.051,0.412,0.02l47.579-22.059
					c-0.084-0.037-0.164-0.057-0.24-0.057C984.021,191.502,983.961,191.516,983.907,191.541"/>
			</defs>
			<clipPath id="SVGID_191_">
				<use xlink:href="#SVGID_240_"  overflow="visible"/>
			</clipPath>
			<path clip-path="url(#SVGID_191_)" fill="#676E79" d="M936.681,213.59l47.577-22.057c0.009,0.004,0.019,0.006,0.026,0.01
				L936.707,213.6C936.698,213.598,936.69,213.594,936.681,213.59"/>
		</g>
		<g>
			<defs>
				<path id="SVGID_242_" d="M983.907,191.541l-47.576,22.057c0.116-0.053,0.26-0.051,0.412,0.02l47.579-22.059
					c-0.084-0.037-0.164-0.057-0.24-0.057C984.021,191.502,983.961,191.516,983.907,191.541"/>
			</defs>
			<clipPath id="SVGID_193_">
				<use xlink:href="#SVGID_242_"  overflow="visible"/>
			</clipPath>
			<path clip-path="url(#SVGID_193_)" fill="#6A727C" d="M936.707,213.6l47.577-22.057c0.01,0.002,0.017,0.008,0.024,0.01
				l-47.575,22.061C936.724,213.607,936.716,213.604,936.707,213.6"/>
		</g>
		<g>
			<defs>
				<path id="SVGID_244_" d="M983.907,191.541l-47.576,22.057c0.116-0.053,0.26-0.051,0.412,0.02l47.579-22.059
					c-0.084-0.037-0.164-0.057-0.24-0.057C984.021,191.502,983.961,191.516,983.907,191.541"/>
			</defs>
			<clipPath id="SVGID_195_">
				<use xlink:href="#SVGID_244_"  overflow="visible"/>
			</clipPath>
			<path clip-path="url(#SVGID_195_)" fill="#6D757F" d="M936.731,213.611l47.577-22.059c0.004,0.002,0.008,0.004,0.014,0.006
				l-47.579,22.059C936.739,213.613,936.735,213.613,936.731,213.611"/>
		</g>
	</g>
	<polygon fill="#757E89" points="936.743,213.617 984.322,191.559 994.424,196.252 946.846,218.312 	"/>
	<polygon fill="#50565E" points="947.387,219.258 994.963,197.199 994.118,216.092 946.944,238.883 	"/>
	<path fill="#616871" d="M946.846,218.312c0.333,0.154,0.578,0.578,0.54,0.945l-0.441,19.625c-0.038,0.369-0.335,0.539-0.668,0.383
		l-24.673-11.893c-0.333-0.156-0.574-0.576-0.539-0.943l-0.446-19.609c0.033-0.371,0.333-0.541,0.666-0.387l10.102,4.693
		c0.317,0.148,0.553,0.541,0.543,0.898l-0.404,13.029c-0.004,0.156,0.038,0.33,0.124,0.486l0.603,1.104
		c0.106,0.193,0.258,0.336,0.418,0.412c0.163,0.074,0.334,0.078,0.47-0.012l0.621-0.418c0.099-0.068,0.167-0.18,0.193-0.322
		l2.128-12.354c0.06-0.334,0.348-0.48,0.662-0.334L946.846,218.312z"/>
	<g>
		<g>
			<defs>
				<path id="SVGID_246_" d="M946.846,218.312c0.333,0.154,0.578,0.578,0.54,0.945l47.577-22.059
					c0.037-0.369-0.205-0.791-0.539-0.945L946.846,218.312z"/>
			</defs>
			<clipPath id="SVGID_197_">
				<use xlink:href="#SVGID_246_"  overflow="visible"/>
			</clipPath>
			<path clip-path="url(#SVGID_197_)" fill="#6D757F" d="M946.846,218.312l47.581-22.059c0.003,0.004,0.007,0.004,0.013,0.008
				l-47.579,22.057C946.855,218.316,946.852,218.312,946.846,218.312"/>
		</g>
		<g>
			<defs>
				<path id="SVGID_248_" d="M946.846,218.312c0.333,0.154,0.578,0.578,0.54,0.945l47.577-22.059
					c0.037-0.369-0.205-0.791-0.539-0.945L946.846,218.312z"/>
			</defs>
			<clipPath id="SVGID_199_">
				<use xlink:href="#SVGID_248_"  overflow="visible"/>
			</clipPath>
			<path clip-path="url(#SVGID_199_)" fill="#707883" d="M946.862,218.318l47.577-22.057c0.01,0.004,0.018,0.008,0.025,0.012
				l-47.576,22.059C946.879,218.326,946.87,218.322,946.862,218.318"/>
		</g>
		<g>
			<defs>
				<path id="SVGID_250_" d="M946.846,218.312c0.333,0.154,0.578,0.578,0.54,0.945l47.577-22.059
					c0.037-0.369-0.205-0.791-0.539-0.945L946.846,218.312z"/>
			</defs>
			<clipPath id="SVGID_201_">
				<use xlink:href="#SVGID_250_"  overflow="visible"/>
			</clipPath>
			<path clip-path="url(#SVGID_201_)" fill="#727B86" d="M946.889,218.332l47.576-22.059c0.009,0.006,0.019,0.012,0.027,0.016
				l-47.579,22.059C946.906,218.342,946.896,218.336,946.889,218.332"/>
		</g>
		<g>
			<defs>
				<path id="SVGID_252_" d="M946.846,218.312c0.333,0.154,0.578,0.578,0.54,0.945l47.577-22.059
					c0.037-0.369-0.205-0.791-0.539-0.945L946.846,218.312z"/>
			</defs>
			<clipPath id="SVGID_203_">
				<use xlink:href="#SVGID_252_"  overflow="visible"/>
			</clipPath>
			<path clip-path="url(#SVGID_203_)" fill="#757E89" d="M946.913,218.346l47.579-22.057c0.01,0.006,0.017,0.01,0.024,0.016
				l-47.574,22.059C946.935,218.359,946.925,218.354,946.913,218.346"/>
		</g>
		<g>
			<defs>
				<path id="SVGID_254_" d="M946.846,218.312c0.333,0.154,0.578,0.578,0.54,0.945l47.577-22.059
					c0.037-0.369-0.205-0.791-0.539-0.945L946.846,218.312z"/>
			</defs>
			<clipPath id="SVGID_205_">
				<use xlink:href="#SVGID_254_"  overflow="visible"/>
			</clipPath>
			<path clip-path="url(#SVGID_205_)" fill="#78808C" d="M946.942,218.363l47.574-22.057c0.01,0.004,0.021,0.012,0.03,0.018
				l-47.577,22.059C946.959,218.377,946.951,218.371,946.942,218.363"/>
		</g>
		<g>
			<defs>
				<path id="SVGID_256_" d="M946.846,218.312c0.333,0.154,0.578,0.578,0.54,0.945l47.577-22.059
					c0.037-0.369-0.205-0.791-0.539-0.945L946.846,218.312z"/>
			</defs>
			<clipPath id="SVGID_207_">
				<use xlink:href="#SVGID_256_"  overflow="visible"/>
			</clipPath>
			<path clip-path="url(#SVGID_207_)" fill="#7B8390" d="M946.97,218.383l47.577-22.059c0.01,0.006,0.02,0.014,0.028,0.021
				l-47.577,22.059C946.988,218.398,946.979,218.391,946.97,218.383"/>
		</g>
		<g>
			<defs>
				<path id="SVGID_258_" d="M946.846,218.312c0.333,0.154,0.578,0.578,0.54,0.945l47.577-22.059
					c0.037-0.369-0.205-0.791-0.539-0.945L946.846,218.312z"/>
			</defs>
			<clipPath id="SVGID_209_">
				<use xlink:href="#SVGID_258_"  overflow="visible"/>
			</clipPath>
			<path clip-path="url(#SVGID_209_)" fill="#7E8693" d="M946.998,218.404l47.577-22.059c0.01,0.008,0.02,0.018,0.03,0.025
				l-47.576,22.059C947.019,218.42,947.008,218.412,946.998,218.404"/>
		</g>
		<g>
			<defs>
				<path id="SVGID_260_" d="M946.846,218.312c0.333,0.154,0.578,0.578,0.54,0.945l47.577-22.059
					c0.037-0.369-0.205-0.791-0.539-0.945L946.846,218.312z"/>
			</defs>
			<clipPath id="SVGID_211_">
				<use xlink:href="#SVGID_260_"  overflow="visible"/>
			</clipPath>
			<path clip-path="url(#SVGID_211_)" fill="#818996" d="M947.029,218.43l47.576-22.059c0.011,0.01,0.022,0.02,0.034,0.031
				l-47.578,22.057C947.053,218.449,947.041,218.439,947.029,218.43"/>
		</g>
		<g>
			<defs>
				<path id="SVGID_262_" d="M946.846,218.312c0.333,0.154,0.578,0.578,0.54,0.945l47.577-22.059
					c0.037-0.369-0.205-0.791-0.539-0.945L946.846,218.312z"/>
			</defs>
			<clipPath id="SVGID_213_">
				<use xlink:href="#SVGID_262_"  overflow="visible"/>
			</clipPath>
			<path clip-path="url(#SVGID_213_)" fill="#828C99" d="M947.062,218.459l47.578-22.057c0.012,0.012,0.025,0.025,0.039,0.039
				L947.1,218.496C947.089,218.484,947.075,218.471,947.062,218.459"/>
		</g>
		<g>
			<defs>
				<path id="SVGID_264_" d="M946.846,218.312c0.333,0.154,0.578,0.578,0.54,0.945l47.577-22.059
					c0.037-0.369-0.205-0.791-0.539-0.945L946.846,218.312z"/>
			</defs>
			<clipPath id="SVGID_215_">
				<use xlink:href="#SVGID_264_"  overflow="visible"/>
			</clipPath>
			<path clip-path="url(#SVGID_215_)" fill="#858F9D" d="M947.102,218.498l47.577-22.059c0.015,0.018,0.034,0.035,0.049,0.053
				l-47.577,22.061C947.134,218.533,947.119,218.514,947.102,218.498"/>
		</g>
		<g>
			<defs>
				<path id="SVGID_266_" d="M946.846,218.312c0.333,0.154,0.578,0.578,0.54,0.945l47.577-22.059
					c0.037-0.369-0.205-0.791-0.539-0.945L946.846,218.312z"/>
			</defs>
			<clipPath id="SVGID_217_">
				<use xlink:href="#SVGID_266_"  overflow="visible"/>
			</clipPath>
			<path clip-path="url(#SVGID_217_)" fill="#8892A0" d="M947.15,218.553l47.575-22.059c0.057,0.068,0.104,0.143,0.145,0.223
				l-47.578,22.059C947.253,218.695,947.206,218.619,947.15,218.553"/>
		</g>
		<g>
			<defs>
				<path id="SVGID_268_" d="M946.846,218.312c0.333,0.154,0.578,0.578,0.54,0.945l47.577-22.059
					c0.037-0.369-0.205-0.791-0.539-0.945L946.846,218.312z"/>
			</defs>
			<clipPath id="SVGID_219_">
				<use xlink:href="#SVGID_268_"  overflow="visible"/>
			</clipPath>
			<path clip-path="url(#SVGID_219_)" fill="#858F9D" d="M947.292,218.775l47.578-22.059c0.012,0.023,0.021,0.047,0.029,0.068
				l-47.578,22.059C947.312,218.82,947.305,218.799,947.292,218.775"/>
		</g>
		<g>
			<defs>
				<path id="SVGID_270_" d="M946.846,218.312c0.333,0.154,0.578,0.578,0.54,0.945l47.577-22.059
					c0.037-0.369-0.205-0.791-0.539-0.945L946.846,218.312z"/>
			</defs>
			<clipPath id="SVGID_221_">
				<use xlink:href="#SVGID_270_"  overflow="visible"/>
			</clipPath>
			<path clip-path="url(#SVGID_221_)" fill="#828C99" d="M947.321,218.844l47.578-22.059c0.007,0.018,0.013,0.037,0.019,0.055
				l-47.577,22.059C947.335,218.879,947.329,218.863,947.321,218.844"/>
		</g>
		<g>
			<defs>
				<path id="SVGID_272_" d="M946.846,218.312c0.333,0.154,0.578,0.578,0.54,0.945l47.577-22.059
					c0.037-0.369-0.205-0.791-0.539-0.945L946.846,218.312z"/>
			</defs>
			<clipPath id="SVGID_223_">
				<use xlink:href="#SVGID_272_"  overflow="visible"/>
			</clipPath>
			<path clip-path="url(#SVGID_223_)" fill="#818996" d="M947.341,218.896l47.577-22.057c0.006,0.016,0.01,0.029,0.015,0.045
				l-47.579,22.059C947.351,218.926,947.347,218.91,947.341,218.896"/>
		</g>
		<g>
			<defs>
				<path id="SVGID_274_" d="M946.846,218.312c0.333,0.154,0.578,0.578,0.54,0.945l47.577-22.059
					c0.037-0.369-0.205-0.791-0.539-0.945L946.846,218.312z"/>
			</defs>
			<clipPath id="SVGID_225_">
				<use xlink:href="#SVGID_274_"  overflow="visible"/>
			</clipPath>
			<path clip-path="url(#SVGID_225_)" fill="#7E8693" d="M947.354,218.943l47.579-22.059c0.004,0.012,0.008,0.025,0.011,0.041
				l-47.577,22.057C947.362,218.969,947.358,218.955,947.354,218.943"/>
		</g>
		<g>
			<defs>
				<path id="SVGID_276_" d="M946.846,218.312c0.333,0.154,0.578,0.578,0.54,0.945l47.577-22.059
					c0.037-0.369-0.205-0.791-0.539-0.945L946.846,218.312z"/>
			</defs>
			<clipPath id="SVGID_227_">
				<use xlink:href="#SVGID_276_"  overflow="visible"/>
			</clipPath>
			<path clip-path="url(#SVGID_227_)" fill="#7B8390" d="M947.366,218.982l47.577-22.057c0.002,0.012,0.006,0.021,0.008,0.035
				l-47.577,22.057C947.37,219.008,947.368,218.994,947.366,218.982"/>
		</g>
		<g>
			<defs>
				<path id="SVGID_278_" d="M946.846,218.312c0.333,0.154,0.578,0.578,0.54,0.945l47.577-22.059
					c0.037-0.369-0.205-0.791-0.539-0.945L946.846,218.312z"/>
			</defs>
			<clipPath id="SVGID_229_">
				<use xlink:href="#SVGID_278_"  overflow="visible"/>
			</clipPath>
			<path clip-path="url(#SVGID_229_)" fill="#78808C" d="M947.372,219.02l47.577-22.059c0.004,0.01,0.006,0.021,0.008,0.035
				l-47.577,22.059C947.378,219.041,947.376,219.029,947.372,219.02"/>
		</g>
		<g>
			<defs>
				<path id="SVGID_280_" d="M946.846,218.312c0.333,0.154,0.578,0.578,0.54,0.945l47.577-22.059
					c0.037-0.369-0.205-0.791-0.539-0.945L946.846,218.312z"/>
			</defs>
			<clipPath id="SVGID_231_">
				<use xlink:href="#SVGID_280_"  overflow="visible"/>
			</clipPath>
			<path clip-path="url(#SVGID_231_)" fill="#757E89" d="M947.38,219.055l47.575-22.061c0.004,0.012,0.004,0.023,0.006,0.035
				l-47.577,22.057C947.382,219.074,947.38,219.062,947.38,219.055"/>
		</g>
		<g>
			<defs>
				<path id="SVGID_282_" d="M946.846,218.312c0.333,0.154,0.578,0.578,0.54,0.945l47.577-22.059
					c0.037-0.369-0.205-0.791-0.539-0.945L946.846,218.312z"/>
			</defs>
			<clipPath id="SVGID_233_">
				<use xlink:href="#SVGID_282_"  overflow="visible"/>
			</clipPath>
			<path clip-path="url(#SVGID_233_)" fill="#727B86" d="M947.384,219.086l47.577-22.057c0.002,0.01,0.002,0.02,0.002,0.031
				l-47.576,22.057C947.386,219.107,947.386,219.096,947.384,219.086"/>
		</g>
		<g>
			<defs>
				<path id="SVGID_284_" d="M946.846,218.312c0.333,0.154,0.578,0.578,0.54,0.945l47.577-22.059
					c0.037-0.369-0.205-0.791-0.539-0.945L946.846,218.312z"/>
			</defs>
			<clipPath id="SVGID_235_">
				<use xlink:href="#SVGID_284_"  overflow="visible"/>
			</clipPath>
			<path clip-path="url(#SVGID_235_)" fill="#707883" d="M947.387,219.117l47.578-22.059c0,0.012,0.002,0.021,0.002,0.033
				l-47.578,22.057C947.389,219.137,947.387,219.129,947.387,219.117"/>
		</g>
		<g>
			<defs>
				<path id="SVGID_286_" d="M946.846,218.312c0.333,0.154,0.578,0.578,0.54,0.945l47.577-22.059
					c0.037-0.369-0.205-0.791-0.539-0.945L946.846,218.312z"/>
			</defs>
			<clipPath id="SVGID_237_">
				<use xlink:href="#SVGID_286_"  overflow="visible"/>
			</clipPath>
			<path clip-path="url(#SVGID_237_)" fill="#6D757F" d="M947.389,219.148l47.576-22.059c0,0.012,0.002,0.02,0.002,0.029
				l-47.578,22.059C947.389,219.168,947.389,219.158,947.389,219.148"/>
		</g>
		<g>
			<defs>
				<path id="SVGID_288_" d="M946.846,218.312c0.333,0.154,0.578,0.578,0.54,0.945l47.577-22.059
					c0.037-0.369-0.205-0.791-0.539-0.945L946.846,218.312z"/>
			</defs>
			<clipPath id="SVGID_239_">
				<use xlink:href="#SVGID_288_"  overflow="visible"/>
			</clipPath>
			<path clip-path="url(#SVGID_239_)" fill="#6A727C" d="M947.389,219.178l47.58-22.059c0,0.01,0,0.021-0.002,0.031l-47.578,22.059
				C947.389,219.197,947.389,219.188,947.389,219.178"/>
		</g>
		<g>
			<defs>
				<path id="SVGID_290_" d="M946.846,218.312c0.333,0.154,0.578,0.578,0.54,0.945l47.577-22.059
					c0.037-0.369-0.205-0.791-0.539-0.945L946.846,218.312z"/>
			</defs>
			<clipPath id="SVGID_241_">
				<use xlink:href="#SVGID_290_"  overflow="visible"/>
			</clipPath>
			<path clip-path="url(#SVGID_241_)" fill="#676E79" d="M947.389,219.207l47.576-22.057c0,0.008,0,0.018,0,0.029l-47.578,22.059
				C947.389,219.229,947.389,219.219,947.389,219.207"/>
		</g>
		<g>
			<defs>
				<path id="SVGID_292_" d="M946.846,218.312c0.333,0.154,0.578,0.578,0.54,0.945l47.577-22.059
					c0.037-0.369-0.205-0.791-0.539-0.945L946.846,218.312z"/>
			</defs>
			<clipPath id="SVGID_243_">
				<use xlink:href="#SVGID_292_"  overflow="visible"/>
			</clipPath>
			<path clip-path="url(#SVGID_243_)" fill="#646B76" d="M947.387,219.238l47.578-22.059c-0.002,0.006-0.002,0.014-0.002,0.02
				l-47.577,22.059C947.387,219.25,947.387,219.244,947.387,219.238"/>
		</g>
	</g>
	<g>
		<g>
			<defs>
				<path id="SVGID_294_" d="M988.812,171.977l0.838,0.361c0.581-0.233,1.109-0.236,1.544-0.049l-0.837-0.362
					c-0.203-0.087-0.428-0.133-0.666-0.133C989.415,171.795,989.12,171.853,988.812,171.977"/>
			</defs>
			<clipPath id="SVGID_245_">
				<use xlink:href="#SVGID_294_"  overflow="visible"/>
			</clipPath>
			<path clip-path="url(#SVGID_245_)" fill="#4E93A8" d="M989.649,172.337l-0.838-0.36c0.111-0.044,0.221-0.081,0.327-0.108
				l0.835,0.361C989.869,172.257,989.76,172.294,989.649,172.337"/>
		</g>
		<g>
			<defs>
				<path id="SVGID_296_" d="M988.812,171.977l0.838,0.361c0.581-0.233,1.109-0.236,1.544-0.049l-0.837-0.362
					c-0.203-0.087-0.428-0.133-0.666-0.133C989.415,171.795,989.12,171.853,988.812,171.977"/>
			</defs>
			<clipPath id="SVGID_247_">
				<use xlink:href="#SVGID_296_"  overflow="visible"/>
			</clipPath>
			<path clip-path="url(#SVGID_247_)" fill="#4D8FA3" d="M989.974,172.23l-0.835-0.361c0.093-0.025,0.185-0.043,0.274-0.056
				l0.837,0.36C990.161,172.187,990.066,172.205,989.974,172.23"/>
		</g>
		<g>
			<defs>
				<path id="SVGID_298_" d="M988.812,171.977l0.838,0.361c0.581-0.233,1.109-0.236,1.544-0.049l-0.837-0.362
					c-0.203-0.087-0.428-0.133-0.666-0.133C989.415,171.795,989.12,171.853,988.812,171.977"/>
			</defs>
			<clipPath id="SVGID_249_">
				<use xlink:href="#SVGID_298_"  overflow="visible"/>
			</clipPath>
			<path clip-path="url(#SVGID_249_)" fill="#4B8B9E" d="M990.25,172.174l-0.837-0.36c0.08-0.011,0.16-0.017,0.236-0.019
				l0.837,0.361C990.41,172.156,990.33,172.163,990.25,172.174"/>
		</g>
		<g>
			<defs>
				<path id="SVGID_300_" d="M988.812,171.977l0.838,0.361c0.581-0.233,1.109-0.236,1.544-0.049l-0.837-0.362
					c-0.203-0.087-0.428-0.133-0.666-0.133C989.415,171.795,989.12,171.853,988.812,171.977"/>
			</defs>
			<clipPath id="SVGID_251_">
				<use xlink:href="#SVGID_300_"  overflow="visible"/>
			</clipPath>
			<path clip-path="url(#SVGID_251_)" fill="#48879A" d="M990.486,172.156l-0.837-0.361c0.073-0.002,0.144,0.002,0.214,0.008
				l0.837,0.36C990.63,172.156,990.56,172.154,990.486,172.156"/>
		</g>
		<g>
			<defs>
				<path id="SVGID_302_" d="M988.812,171.977l0.838,0.361c0.581-0.233,1.109-0.236,1.544-0.049l-0.837-0.362
					c-0.203-0.087-0.428-0.133-0.666-0.133C989.415,171.795,989.12,171.853,988.812,171.977"/>
			</defs>
			<clipPath id="SVGID_253_">
				<use xlink:href="#SVGID_302_"  overflow="visible"/>
			</clipPath>
			<path clip-path="url(#SVGID_253_)" fill="#458396" d="M990.7,172.163l-0.837-0.36c0.067,0.006,0.134,0.017,0.198,0.031
				l0.838,0.361C990.834,172.18,990.768,172.169,990.7,172.163"/>
		</g>
		<g>
			<defs>
				<path id="SVGID_304_" d="M988.812,171.977l0.838,0.361c0.581-0.233,1.109-0.236,1.544-0.049l-0.837-0.362
					c-0.203-0.087-0.428-0.133-0.666-0.133C989.415,171.795,989.12,171.853,988.812,171.977"/>
			</defs>
			<clipPath id="SVGID_255_">
				<use xlink:href="#SVGID_304_"  overflow="visible"/>
			</clipPath>
			<path clip-path="url(#SVGID_255_)" fill="#438091" d="M990.899,172.194l-0.838-0.361c0.064,0.014,0.127,0.032,0.188,0.053
				l0.836,0.36C991.025,172.227,990.964,172.208,990.899,172.194"/>
		</g>
		<g>
			<defs>
				<path id="SVGID_306_" d="M988.812,171.977l0.838,0.361c0.581-0.233,1.109-0.236,1.544-0.049l-0.837-0.362
					c-0.203-0.087-0.428-0.133-0.666-0.133C989.415,171.795,989.12,171.853,988.812,171.977"/>
			</defs>
			<clipPath id="SVGID_257_">
				<use xlink:href="#SVGID_306_"  overflow="visible"/>
			</clipPath>
			<path clip-path="url(#SVGID_257_)" fill="#407C8C" d="M991.086,172.246l-0.838-0.36c0.036,0.012,0.072,0.027,0.108,0.041
				l0.837,0.361C991.158,172.274,991.124,172.259,991.086,172.246"/>
		</g>
	</g>
	<g>
		<g>
			<defs>
				<path id="SVGID_308_" d="M982.412,172.3c-1.79,0.605-28.271,12.092-28.271,12.092l-4.225,4.361l-1.695,19.41l35.822-16.57
					l9.092,4.037c0,0,1.17-24.526,0.019-24.892c-0.134-0.043-0.363-0.063-0.666-0.063
					C990.243,170.676,983.991,171.768,982.412,172.3"/>
			</defs>
			<clipPath id="SVGID_259_">
				<use xlink:href="#SVGID_308_"  overflow="visible"/>
			</clipPath>
			<g clip-path="url(#SVGID_259_)">
				<g>
					<defs>
						<path id="SVGID_310_" d="M954.28,217.732l-0.839-0.363c-0.753-0.324-1.214-1.227-1.145-2.488l0.838,0.361
							C953.064,216.504,953.523,217.408,954.28,217.732"/>
					</defs>
					<defs>
						<path id="SVGID_311_" d="M954.28,217.732l-0.839-0.363c-0.753-0.324-1.214-1.227-1.145-2.488l0.838,0.361
							C953.064,216.504,953.523,217.408,954.28,217.732"/>
					</defs>
					<clipPath id="SVGID_261_">
						<use xlink:href="#SVGID_310_"  overflow="visible"/>
					</clipPath>
					<clipPath id="SVGID_263_" clip-path="url(#SVGID_261_)">
						<use xlink:href="#SVGID_311_"  overflow="visible"/>
					</clipPath>
					<path clip-path="url(#SVGID_263_)" fill="#356776" d="M954.28,217.732l-0.839-0.363c-0.745-0.32-1.203-1.203-1.146-2.441
						l0.838,0.361C953.074,216.527,953.533,217.41,954.28,217.732"/>
					<path clip-path="url(#SVGID_263_)" fill="#376B7B" d="M953.133,215.289l-0.84-0.361c0.002-0.016,0.004-0.031,0.004-0.047
						l0.838,0.361C953.135,215.258,953.133,215.275,953.133,215.289"/>
				</g>
				<g>
					<defs>
						<path id="SVGID_314_" d="M982.412,172.3c-1.79,0.605-28.271,12.092-28.271,12.092l-4.225,4.361l-1.695,19.41l35.822-16.57
							l9.092,4.037c0,0,1.17-24.526,0.019-24.892c-0.134-0.043-0.363-0.063-0.666-0.063
							C990.243,170.676,983.991,171.768,982.412,172.3"/>
					</defs>
					<clipPath id="SVGID_265_">
						<use xlink:href="#SVGID_314_"  overflow="visible"/>
					</clipPath>
					<polygon clip-path="url(#SVGID_265_)" fill="#57A0B7" points="956.307,185.711 955.472,185.352 988.812,171.977 
						989.649,172.337 					"/>
				</g>
				<g>
					<defs>
						<path id="SVGID_316_" d="M982.412,172.3c-1.79,0.605-28.271,12.092-28.271,12.092l-4.225,4.361l-1.695,19.41l35.822-16.57
							l9.092,4.037c0,0,1.17-24.526,0.019-24.892c-0.134-0.043-0.363-0.063-0.666-0.063
							C990.243,170.676,983.991,171.768,982.412,172.3"/>
					</defs>
					<clipPath id="SVGID_267_">
						<use xlink:href="#SVGID_316_"  overflow="visible"/>
					</clipPath>
					<polygon clip-path="url(#SVGID_267_)" fill="#3C7383" points="953.135,215.242 952.297,214.881 952.381,190.105 
						953.219,190.467 					"/>
				</g>
			</g>
			<g clip-path="url(#SVGID_259_)">
				<g>
					<defs>
						<path id="SVGID_318_" d="M952.381,190.105l0.838,0.361c0.111-1.986,1.493-4.115,3.088-4.756l-0.835-0.359
							C953.877,185.992,952.492,188.121,952.381,190.105"/>
					</defs>
					<clipPath id="SVGID_269_">
						<use xlink:href="#SVGID_318_"  overflow="visible"/>
					</clipPath>
					<path clip-path="url(#SVGID_269_)" fill="#376B7B" d="M953.219,190.467l-0.838-0.361c0.008-0.133,0.021-0.266,0.04-0.4
						l0.836,0.361C953.239,190.199,953.226,190.334,953.219,190.467"/>
				</g>
				<g>
					<defs>
						<path id="SVGID_320_" d="M952.381,190.105l0.838,0.361c0.111-1.986,1.493-4.115,3.088-4.756l-0.835-0.359
							C953.877,185.992,952.492,188.121,952.381,190.105"/>
					</defs>
					<clipPath id="SVGID_271_">
						<use xlink:href="#SVGID_320_"  overflow="visible"/>
					</clipPath>
					<path clip-path="url(#SVGID_271_)" fill="#3A7080" d="M953.257,190.064l-0.836-0.359c0.019-0.121,0.039-0.246,0.065-0.367
						l0.836,0.363C953.296,189.82,953.274,189.943,953.257,190.064"/>
				</g>
				<g>
					<defs>
						<path id="SVGID_322_" d="M952.381,190.105l0.838,0.361c0.111-1.986,1.493-4.115,3.088-4.756l-0.835-0.359
							C953.877,185.992,952.492,188.121,952.381,190.105"/>
					</defs>
					<clipPath id="SVGID_273_">
						<use xlink:href="#SVGID_322_"  overflow="visible"/>
					</clipPath>
					<path clip-path="url(#SVGID_273_)" fill="#3D7484" d="M953.322,189.701l-0.836-0.363c0.021-0.107,0.05-0.219,0.077-0.326
						l0.838,0.361C953.372,189.482,953.345,189.592,953.322,189.701"/>
				</g>
				<g>
					<defs>
						<path id="SVGID_324_" d="M952.381,190.105l0.838,0.361c0.111-1.986,1.493-4.115,3.088-4.756l-0.835-0.359
							C953.877,185.992,952.492,188.121,952.381,190.105"/>
					</defs>
					<clipPath id="SVGID_275_">
						<use xlink:href="#SVGID_324_"  overflow="visible"/>
					</clipPath>
					<path clip-path="url(#SVGID_275_)" fill="#3F7888" d="M953.401,189.373l-0.838-0.361c0.027-0.102,0.057-0.201,0.092-0.301
						l0.838,0.357C953.458,189.17,953.429,189.271,953.401,189.373"/>
				</g>
				<g>
					<defs>
						<path id="SVGID_326_" d="M952.381,190.105l0.838,0.361c0.111-1.986,1.493-4.115,3.088-4.756l-0.835-0.359
							C953.877,185.992,952.492,188.121,952.381,190.105"/>
					</defs>
					<clipPath id="SVGID_277_">
						<use xlink:href="#SVGID_326_"  overflow="visible"/>
					</clipPath>
					<path clip-path="url(#SVGID_277_)" fill="#407C8C" d="M953.493,189.07l-0.838-0.359c0.031-0.1,0.068-0.197,0.103-0.293
						l0.838,0.361C953.559,188.877,953.523,188.973,953.493,189.07"/>
				</g>
				<g>
					<defs>
						<path id="SVGID_328_" d="M952.381,190.105l0.838,0.361c0.111-1.986,1.493-4.115,3.088-4.756l-0.835-0.359
							C953.877,185.992,952.492,188.121,952.381,190.105"/>
					</defs>
					<clipPath id="SVGID_279_">
						<use xlink:href="#SVGID_328_"  overflow="visible"/>
					</clipPath>
					<path clip-path="url(#SVGID_279_)" fill="#438091" d="M953.596,188.779l-0.838-0.361c0.04-0.096,0.079-0.189,0.12-0.287
						l0.837,0.361C953.674,188.588,953.633,188.682,953.596,188.779"/>
				</g>
				<g>
					<defs>
						<path id="SVGID_330_" d="M952.381,190.105l0.838,0.361c0.111-1.986,1.493-4.115,3.088-4.756l-0.835-0.359
							C953.877,185.992,952.492,188.121,952.381,190.105"/>
					</defs>
					<clipPath id="SVGID_281_">
						<use xlink:href="#SVGID_330_"  overflow="visible"/>
					</clipPath>
					<path clip-path="url(#SVGID_281_)" fill="#458396" d="M953.715,188.492l-0.837-0.361c0.042-0.096,0.086-0.189,0.136-0.283
						l0.835,0.361C953.803,188.303,953.757,188.398,953.715,188.492"/>
				</g>
				<g>
					<defs>
						<path id="SVGID_332_" d="M952.381,190.105l0.838,0.361c0.111-1.986,1.493-4.115,3.088-4.756l-0.835-0.359
							C953.877,185.992,952.492,188.121,952.381,190.105"/>
					</defs>
					<clipPath id="SVGID_283_">
						<use xlink:href="#SVGID_332_"  overflow="visible"/>
					</clipPath>
					<path clip-path="url(#SVGID_283_)" fill="#48879A" d="M953.849,188.209l-0.837-0.361c0.051-0.098,0.101-0.195,0.156-0.289
						l0.835,0.359C953.951,188.014,953.897,188.111,953.849,188.209"/>
				</g>
				<g>
					<defs>
						<path id="SVGID_334_" d="M952.381,190.105l0.838,0.361c0.111-1.986,1.493-4.115,3.088-4.756l-0.835-0.359
							C953.877,185.992,952.492,188.121,952.381,190.105"/>
					</defs>
					<clipPath id="SVGID_285_">
						<use xlink:href="#SVGID_334_"  overflow="visible"/>
					</clipPath>
					<path clip-path="url(#SVGID_285_)" fill="#4B8B9E" d="M954.003,187.92l-0.837-0.361c0.058-0.102,0.118-0.201,0.181-0.299
						l0.837,0.361C954.122,187.719,954.062,187.818,954.003,187.92"/>
				</g>
				<g>
					<defs>
						<path id="SVGID_336_" d="M952.381,190.105l0.838,0.361c0.111-1.986,1.493-4.115,3.088-4.756l-0.835-0.359
							C953.877,185.992,952.492,188.121,952.381,190.105"/>
					</defs>
					<clipPath id="SVGID_287_">
						<use xlink:href="#SVGID_336_"  overflow="visible"/>
					</clipPath>
					<path clip-path="url(#SVGID_287_)" fill="#4D8FA3" d="M954.184,187.621l-0.837-0.363c0.071-0.109,0.146-0.217,0.222-0.32
						l0.835,0.359C954.33,187.402,954.254,187.51,954.184,187.621"/>
				</g>
				<g>
					<defs>
						<path id="SVGID_338_" d="M952.381,190.105l0.838,0.361c0.111-1.986,1.493-4.115,3.088-4.756l-0.835-0.359
							C953.877,185.992,952.492,188.121,952.381,190.105"/>
					</defs>
					<clipPath id="SVGID_289_">
						<use xlink:href="#SVGID_338_"  overflow="visible"/>
					</clipPath>
					<path clip-path="url(#SVGID_289_)" fill="#4E93A8" d="M954.403,187.297l-0.835-0.361c0.096-0.131,0.195-0.254,0.296-0.373
						l0.838,0.359C954.602,187.041,954.5,187.168,954.403,187.297"/>
				</g>
				<g>
					<defs>
						<path id="SVGID_340_" d="M952.381,190.105l0.838,0.361c0.111-1.986,1.493-4.115,3.088-4.756l-0.835-0.359
							C953.877,185.992,952.492,188.121,952.381,190.105"/>
					</defs>
					<clipPath id="SVGID_291_">
						<use xlink:href="#SVGID_340_"  overflow="visible"/>
					</clipPath>
					<path clip-path="url(#SVGID_291_)" fill="#5196AC" d="M954.702,186.922l-0.838-0.361c0.206-0.234,0.423-0.447,0.652-0.635
						l0.837,0.361C955.125,186.473,954.906,186.688,954.702,186.922"/>
				</g>
				<g>
					<defs>
						<path id="SVGID_342_" d="M952.381,190.105l0.838,0.361c0.111-1.986,1.493-4.115,3.088-4.756l-0.835-0.359
							C953.877,185.992,952.492,188.121,952.381,190.105"/>
					</defs>
					<clipPath id="SVGID_293_">
						<use xlink:href="#SVGID_342_"  overflow="visible"/>
					</clipPath>
					<path clip-path="url(#SVGID_293_)" fill="#549AB1" d="M955.354,186.287l-0.837-0.361c0.076-0.062,0.154-0.121,0.234-0.178
						l0.836,0.361C955.508,186.168,955.431,186.225,955.354,186.287"/>
				</g>
				<g>
					<defs>
						<path id="SVGID_344_" d="M952.381,190.105l0.838,0.361c0.111-1.986,1.493-4.115,3.088-4.756l-0.835-0.359
							C953.877,185.992,952.492,188.121,952.381,190.105"/>
					</defs>
					<clipPath id="SVGID_295_">
						<use xlink:href="#SVGID_344_"  overflow="visible"/>
					</clipPath>
					<path clip-path="url(#SVGID_295_)" fill="#5196AC" d="M955.587,186.109l-0.836-0.361c0.227-0.158,0.457-0.289,0.697-0.387
						l0.835,0.361C956.045,185.82,955.812,185.951,955.587,186.109"/>
				</g>
				<g>
					<defs>
						<path id="SVGID_346_" d="M952.381,190.105l0.838,0.361c0.111-1.986,1.493-4.115,3.088-4.756l-0.835-0.359
							C953.877,185.992,952.492,188.121,952.381,190.105"/>
					</defs>
					<clipPath id="SVGID_297_">
						<use xlink:href="#SVGID_346_"  overflow="visible"/>
					</clipPath>
					<path clip-path="url(#SVGID_297_)" fill="#4E93A8" d="M956.283,185.723l-0.835-0.361c0.008-0.004,0.015-0.008,0.021-0.01
						l0.837,0.359C956.302,185.715,956.293,185.719,956.283,185.723"/>
				</g>
			</g>
			<g clip-path="url(#SVGID_259_)">
				<g>
					<defs>
						<path id="SVGID_348_" d="M982.412,172.3c-1.79,0.605-28.271,12.092-28.271,12.092l-4.225,4.361l-1.695,19.41l35.822-16.57
							l9.092,4.037c0,0,1.17-24.526,0.019-24.892c-0.134-0.043-0.363-0.063-0.666-0.063
							C990.243,170.676,983.991,171.768,982.412,172.3"/>
					</defs>
					<clipPath id="SVGID_299_">
						<use xlink:href="#SVGID_348_"  overflow="visible"/>
					</clipPath>
					<path clip-path="url(#SVGID_299_)" fill="#49D5E8" d="M989.649,172.337c1.594-0.639,2.797,0.453,2.688,2.439l-0.118,24.462
						c-0.11,1.986-1.492,4.115-3.088,4.756l-33.307,13.688c-1.596,0.641-2.801-0.451-2.689-2.439l0.084-24.773
						c0.111-1.986,1.493-4.115,3.088-4.758L989.649,172.337z"/>
				</g>
			</g>
		</g>
	</g>
</g>
</svg>
