<?xml version="1.0" encoding="utf-8"?>
<!-- Generator: Adobe Illustrator 16.0.0, SVG Export Plug-In . SVG Version: 6.00 Build 0)  -->
<!DOCTYPE svg PUBLIC "-//W3C//DTD SVG 1.1//EN" "http://www.w3.org/Graphics/SVG/1.1/DTD/svg11.dtd">
<svg version="1.1" id="Camada_1" xmlns="http://www.w3.org/2000/svg" xmlns:xlink="http://www.w3.org/1999/xlink" x="0px" y="0px"
	 width="100px" height="100px" viewBox="0 0 100 100" enable-background="new 0 0 100 100" xml:space="preserve">
<g>
	<polygon opacity="0.2" fill="#211915" enable-background="new    " points="58.5,77.835 93.987,63.563 38.547,34.213 
		13.963,53.529 	"/>
	<g>
		<g>
			<g enable-background="new    ">
				<g>
					<polygon fill="#87868A" points="87.286,62.104 87.281,63.734 58.652,78.149 58.657,76.521 					"/>
				</g>
				<g>
					<polygon fill="#345B55" points="58.657,76.521 58.652,78.149 10.166,53.918 10.17,52.288 					"/>
				</g>
				<g>
					<polygon fill="#5B5B5F" points="87.286,62.104 58.657,76.521 10.17,52.288 36.918,36.368 					"/>
				</g>
			</g>
		</g>
	</g>
	<g>
		<polygon fill="#D8D9DD" points="56.113,70.201 59.411,71.939 62.756,70.196 59.458,68.461 		"/>
		<polygon fill="#D8D9DD" points="62.879,66.139 59.581,64.402 56.236,66.146 59.535,67.882 		"/>
		<polygon fill="#D8D9DD" points="60.049,68.151 63.345,69.888 66.689,68.146 63.394,66.41 		"/>
		<polygon fill="#D8D9DD" points="63.008,62.083 59.707,60.346 56.36,62.09 59.66,63.826 		"/>
		<polygon fill="#D8D9DD" points="63.468,65.831 66.816,64.088 63.519,62.353 60.173,64.096 		"/>
		<polygon fill="#D8D9DD" points="63.983,66.102 67.281,67.837 70.629,66.095 67.33,64.359 		"/>
		<polygon fill="#D8D9DD" points="63.131,58.026 59.833,56.291 56.488,58.032 59.787,59.769 		"/>
		<polygon fill="#D8D9DD" points="63.644,58.295 60.298,60.037 63.599,61.775 66.942,60.032 		"/>
		<polygon fill="#D8D9DD" points="70.752,62.038 67.454,60.302 64.11,62.043 67.407,63.78 		"/>
		<polygon fill="#D8D9DD" points="67.922,64.05 71.219,65.786 74.564,64.045 71.266,62.31 		"/>
		<polygon fill="#D8D9DD" points="63.722,57.719 67.066,55.977 63.77,54.241 60.425,55.982 		"/>
		<polygon fill="#D8D9DD" points="67.534,59.726 70.877,57.982 67.578,56.245 64.233,57.987 		"/>
		<polygon fill="#D8D9DD" points="71.344,61.73 74.688,59.987 71.39,58.252 68.045,59.995 		"/>
		<polygon fill="#D8D9DD" points="75.2,60.259 71.855,62.001 75.154,63.736 78.499,61.994 		"/>
		<polygon fill="#D8D9DD" points="63.356,53.808 60.059,52.071 56.713,53.813 60.01,55.549 		"/>
	</g>
	<g>
		<g enable-background="new    ">
			<g>
				<polygon fill="#87868A" points="58.587,46.901 59.995,46.082 59.908,77.017 58.5,77.835 				"/>
			</g>
			<g>
				<polygon fill="#87868A" points="10.1,22.669 11.508,21.851 59.995,46.082 58.587,46.901 				"/>
			</g>
			<g>
				<polygon fill="#C2C3C9" points="58.587,46.901 58.5,77.835 10.013,53.98 10.1,22.669 				"/>
			</g>
		</g>
	</g>
</g>
</svg>
