<?xml version="1.0" encoding="utf-8"?>
<!-- Generator: Adobe Illustrator 16.0.0, SVG Export Plug-In . SVG Version: 6.00 Build 0)  -->
<!DOCTYPE svg PUBLIC "-//W3C//DTD SVG 1.1//EN" "http://www.w3.org/Graphics/SVG/1.1/DTD/svg11.dtd">
<svg version="1.1" id="Camada_1" xmlns="http://www.w3.org/2000/svg" xmlns:xlink="http://www.w3.org/1999/xlink" x="0px" y="0px"
	 width="100px" height="100px" viewBox="913 155 100 100" enable-background="new 913 155 100 100" xml:space="preserve">
<g>
	<g opacity="0.2">
		<g>
			<g>
				<defs>
					<rect id="SVGID_27_" x="973.466" y="215.663" width="30.534" height="24.792"/>
				</defs>
				<clipPath id="SVGID_3_">
					<use xlink:href="#SVGID_27_"  overflow="visible"/>
				</clipPath>
				<polygon clip-path="url(#SVGID_3_)" fill="#1E120D" points="973.536,240.455 988.563,237.714 1004.002,227.633 973.466,215.663 
									"/>
			</g>
		</g>
	</g>
	<g opacity="0.8">
		<defs>
			<rect id="SVGID_29_" x="919.477" y="220.755" opacity="0.8" width="76.482" height="21.984"/>
		</defs>
		<clipPath id="SVGID_6_">
			<use xlink:href="#SVGID_29_"  overflow="visible"/>
		</clipPath>
		<g clip-path="url(#SVGID_6_)">
			<g>
				<defs>
					<path id="SVGID_31_" d="M995.959,231.747c0,6.072-17.122,10.993-38.242,10.993s-38.241-4.921-38.241-10.993
						c0-6.07,17.121-10.992,38.241-10.992C978.838,220.755,995.959,225.676,995.959,231.747"/>
				</defs>
				<clipPath id="SVGID_8_">
					<use xlink:href="#SVGID_31_"  overflow="visible"/>
				</clipPath>
				
					<radialGradient id="SVGID_10_" cx="-921.1826" cy="-125.9756" r="0.5112" gradientTransform="matrix(74.757 0 0 21.4851 69822.5625 2938.3398)" gradientUnits="userSpaceOnUse">
					<stop  offset="0" style="stop-color:#CCCCCC"/>
					<stop  offset="0.0054" style="stop-color:#CCCCCC"/>
					<stop  offset="1" style="stop-color:#FFFFFF"/>
				</radialGradient>
				<rect x="919.477" y="220.755" clip-path="url(#SVGID_8_)" fill="url(#SVGID_10_)" width="76.482" height="21.984"/>
			</g>
		</g>
	</g>
	<polygon fill="#C3B29F" points="949.482,236.083 949.443,224.059 977.822,207.942 977.822,219.294 	"/>
	<polygon fill="#E9EBDB" points="949.482,235.631 933.061,225.715 933.061,211.58 940.551,209.86 949.482,224.046 	"/>
	<polygon fill="#00A0CC" points="970.746,192.73 970.711,192.744 940.146,209.516 940.231,209.795 949.772,224.532 978.717,207.291 
			"/>
	<polygon fill="#5F5C5E" points="955.611,228.105 955.611,224.77 969.893,216.136 969.893,219.467 	"/>
	<polygon fill="#302E31" points="969.621,219.307 969.623,216.304 969.893,216.136 969.893,219.467 955.611,228.105 
		955.611,227.781 	"/>
	<polygon fill="#007999" points="978.716,207.291 978.716,207.564 949.715,224.712 949.692,224.398 	"/>
	<polygon fill="#007999" points="940.323,210.068 940.323,209.638 949.692,224.379 949.715,224.712 	"/>
	<polygon fill="#004F3D" points="932.425,211.387 940.364,209.716 940.324,210.068 932.589,211.843 	"/>
	<polygon fill="#007999" points="957.353,197.127 932.425,211.387 940.364,209.716 970.711,192.744 	"/>
	<polygon fill="#625A60" points="937.648,228.304 937.648,221.123 941.465,223.332 941.465,230.375 	"/>
	<polygon fill="#3B2D38" points="937.648,228.419 937.648,221.241 941.362,223.383 941.362,230.426 	"/>
	<polygon fill="#4C444A" points="938.233,228.749 938.233,221.839 941.085,223.494 941.085,230.027 	"/>
	<g>
		<g>
			<defs>
				<path id="SVGID_34_" d="M938.483,225.316c0,0.108,0.072,0.197,0.157,0.197c0.089,0,0.158-0.089,0.158-0.197
					s-0.069-0.198-0.158-0.198C938.556,225.118,938.483,225.208,938.483,225.316"/>
			</defs>
			<clipPath id="SVGID_12_">
				<use xlink:href="#SVGID_34_"  overflow="visible"/>
			</clipPath>
			
				<radialGradient id="SVGID_14_" cx="-3718.019" cy="1700.9775" r="0.5102" gradientTransform="matrix(-0.3507 0 0 0.3507 -365.2671 -371.2166)" gradientUnits="userSpaceOnUse">
				<stop  offset="0" style="stop-color:#FFFFFF"/>
				<stop  offset="1" style="stop-color:#9F9DA3"/>
			</radialGradient>
			<rect x="938.483" y="225.118" clip-path="url(#SVGID_12_)" fill="url(#SVGID_14_)" width="0.315" height="0.396"/>
		</g>
	</g>
	<polygon fill="#DADACD" points="949.482,235.449 949.482,236.122 932.384,226.188 932.384,225.615 	"/>
	<polygon fill="#82776B" points="949.482,235.449 949.482,236.122 978.267,219.066 978.267,218.48 	"/>
	<polygon fill="#9C8E7F" points="977.822,218.502 977.822,218.164 978.266,218.48 949.48,235.449 949.48,235.183 	"/>
	<polygon fill="#B9BAAE" points="933.033,225.412 933.033,225.68 949.482,235.183 949.482,235.449 932.384,225.615 	"/>
	<polygon fill="#BEC6C1" points="935.599,228.512 940.507,231.341 940.507,232.924 935.599,230.093 	"/>
	<polygon fill="#909793" points="942.085,230.445 940.507,231.341 940.507,232.924 942.085,232.031 	"/>
	<polygon fill="#DDDDC9" points="935.599,228.512 940.507,231.341 942.085,230.445 937.069,227.646 	"/>
	<g>
		<g>
			<g>
				<defs>
					<rect id="SVGID_37_" x="954.617" y="208.832" width="2.028" height="3.053"/>
				</defs>
				<clipPath id="SVGID_16_">
					<use xlink:href="#SVGID_37_"  overflow="visible"/>
				</clipPath>
				<polyline clip-path="url(#SVGID_16_)" fill="#CCCCCC" points="955.276,211.885 956.646,208.832 954.617,209.058 				"/>
			</g>
		</g>
	</g>
	<polygon fill="#E9EBDB" points="955.276,211.885 955.276,208.095 952.194,208.755 952.194,213.622 	"/>
	<polygon fill="#C3B29F" points="952.194,213.622 949.552,210.281 949.552,208.254 952.194,208.755 	"/>
	<polygon fill="#F1F1F1" points="949.553,208.253 952.629,206.468 955.276,208.095 952.194,209.782 	"/>
	<polygon fill="#4C4C4C" points="954.155,208.069 952.558,207.168 950.724,208.252 952.231,209.153 	"/>
	<polygon fill="#303030" points="952.557,207.168 952.557,208.971 954.155,208.069 	"/>
	<polygon fill="#5F5C5E" points="970.746,218.969 970.746,215.633 973.249,214.195 973.249,217.524 	"/>
	<polygon fill="#302E31" points="972.978,217.366 972.979,214.363 973.25,214.195 973.249,217.524 970.746,218.971 970.746,218.646 
			"/>
	<polygon fill="#C3B29F" points="974.716,241.088 974.754,229.062 957.91,219.952 957.91,231.304 	"/>
	<polygon fill="#E9EBDB" points="974.716,240.636 991.137,230.721 991.137,216.585 983.649,214.866 974.716,229.052 	"/>
	<polygon fill="#00A0CC" points="965.695,204.717 965.73,204.729 984.051,214.521 983.966,214.799 974.426,229.537 957.016,219.3 	
		"/>
	<polygon fill="#5F5C5E" points="968.587,233.109 968.587,229.774 965.839,228.147 965.84,231.478 	"/>
	<polygon fill="#302E31" points="966.111,231.318 966.109,228.314 965.839,228.146 965.839,231.478 968.587,233.109 
		968.587,232.786 	"/>
	<polygon fill="#007999" points="957.734,219.678 957.734,219.952 974.482,229.717 974.505,229.403 	"/>
	<polygon fill="#007999" points="983.874,215.072 983.874,214.642 974.505,229.384 974.482,229.717 	"/>
	<polygon fill="#004F3D" points="991.774,216.393 983.835,214.722 983.874,215.074 991.609,216.849 	"/>
	<polygon fill="#007999" points="979.088,209.113 991.774,216.393 983.835,214.722 965.73,204.729 	"/>
	<polygon fill="#625A60" points="986.549,233.309 986.549,226.129 982.733,228.336 982.733,235.38 	"/>
	<polygon fill="#3B2D38" points="986.549,233.426 986.549,226.249 982.835,228.387 982.835,235.431 	"/>
	<polygon fill="#4C444A" points="985.966,233.756 985.966,226.844 983.112,228.499 983.112,235.032 	"/>
	<g>
		<g>
			<defs>
				<path id="SVGID_39_" d="M985.397,230.321c0,0.109,0.071,0.198,0.16,0.198c0.084,0,0.157-0.089,0.157-0.198
					c0-0.108-0.073-0.197-0.157-0.197C985.47,230.123,985.397,230.212,985.397,230.321"/>
			</defs>
			<clipPath id="SVGID_18_">
				<use xlink:href="#SVGID_39_"  overflow="visible"/>
			</clipPath>
			
				<radialGradient id="SVGID_20_" cx="1719.1826" cy="1685.166" r="0.5118" gradientTransform="matrix(0.3511 0 0 0.3511 381.9474 -361.345)" gradientUnits="userSpaceOnUse">
				<stop  offset="0" style="stop-color:#FFFFFF"/>
				<stop  offset="1" style="stop-color:#9F9DA3"/>
			</radialGradient>
			<rect x="985.397" y="230.123" clip-path="url(#SVGID_18_)" fill="url(#SVGID_20_)" width="0.317" height="0.396"/>
		</g>
	</g>
	<polygon fill="#DADACD" points="974.716,240.454 974.716,241.127 991.814,231.191 991.814,230.621 	"/>
	<polygon fill="#82776B" points="974.716,240.454 974.716,241.127 957.467,231.078 957.467,230.49 	"/>
	<polygon fill="#9C8E7F" points="957.911,230.512 957.911,230.221 957.467,230.49 974.716,240.454 974.716,240.188 	"/>
	<polygon fill="#B9BAAE" points="991.164,230.417 991.164,230.685 974.716,240.188 974.716,240.455 991.814,230.621 	"/>
	<g>
		<g>
			<g>
				<defs>
					<rect id="SVGID_42_" x="967.554" y="213.838" width="2.026" height="3.052"/>
				</defs>
				<clipPath id="SVGID_22_">
					<use xlink:href="#SVGID_42_"  overflow="visible"/>
				</clipPath>
				<polyline clip-path="url(#SVGID_22_)" fill="#CCCCCC" points="968.923,216.89 967.554,213.838 969.58,214.064 				"/>
			</g>
		</g>
	</g>
	<polygon fill="#E9EBDB" points="968.923,216.89 968.923,213.1 972.004,213.761 972.004,218.627 	"/>
	<polygon fill="#C3B29F" points="972.004,218.627 974.646,215.287 974.646,213.26 972.004,213.761 	"/>
	<polygon fill="#F1F1F1" points="974.646,213.26 971.568,211.473 968.924,213.1 972.004,214.788 	"/>
	<polygon fill="#4C4C4C" points="970.041,213.075 971.642,212.174 973.475,213.257 971.968,214.158 	"/>
	<polygon fill="#303030" points="971.642,212.174 971.642,213.976 970.041,213.075 	"/>
	<polygon fill="#5F5C5E" points="964.987,230.979 964.987,227.646 962.482,226.205 962.484,229.535 	"/>
	<polygon fill="#302E31" points="962.755,229.376 962.754,226.374 962.482,226.205 962.484,229.535 964.987,230.979 
		964.987,230.656 	"/>
	<g opacity="0.2">
		<g>
			<g>
				<defs>
					<rect id="SVGID_44_" x="961.814" y="194.824" width="9.273" height="8.879"/>
				</defs>
				<clipPath id="SVGID_24_">
					<use xlink:href="#SVGID_44_"  overflow="visible"/>
				</clipPath>
				<path clip-path="url(#SVGID_24_)" fill="#1E120D" d="M961.814,197.947l1.987,2.84c0,0-0.853,1.419,4.544,2.84
					c1.919,0.505,3.459-1.608,2.391-3.282l-3.527-5.521L961.814,197.947z"/>
			</g>
		</g>
	</g>
	<g>
		<path fill="#7F1A01" d="M968.215,183.036c-0.052,0.019-0.105,0.029-0.157,0.045c-0.074,0.021-0.147,0.047-0.223,0.062
			c-0.005,0.001-0.009,0.002-0.013,0.003c-0.116,0.024-0.236,0.041-0.357,0.052c-0.029,0.004-0.059,0.005-0.088,0.006
			c-0.112,0.008-0.227,0.012-0.345,0.008c-0.01,0-0.019,0-0.027,0c-0.131-0.006-0.266-0.02-0.399-0.039
			c-0.017-0.003-0.032-0.005-0.049-0.008c-0.134-0.021-0.271-0.051-0.409-0.087c-0.013-0.003-0.026-0.006-0.038-0.01
			c-0.146-0.039-0.293-0.087-0.441-0.143c-0.005-0.002-0.009-0.004-0.014-0.006c-0.154-0.058-0.312-0.126-0.471-0.203
			c-0.171-0.084-0.338-0.176-0.502-0.275c-0.017-0.009-0.031-0.02-0.047-0.028c-0.157-0.097-0.312-0.201-0.467-0.313
			c-0.01-0.007-0.021-0.015-0.032-0.023c-0.157-0.115-0.311-0.238-0.461-0.368c-0.009-0.008-0.018-0.014-0.026-0.021
			c-0.144-0.124-0.284-0.257-0.423-0.394c-0.019-0.02-0.039-0.039-0.061-0.059c-0.13-0.132-0.257-0.271-0.381-0.412
			c-0.031-0.034-0.062-0.069-0.092-0.104c-0.102-0.119-0.199-0.241-0.296-0.365c-0.033-0.041-0.064-0.081-0.096-0.122
			c-0.05-0.065-0.096-0.135-0.144-0.202c-0.098-0.134-0.192-0.27-0.282-0.409c-0.06-0.091-0.115-0.185-0.172-0.276
			c-0.06-0.097-0.118-0.192-0.174-0.292c-0.048-0.084-0.094-0.171-0.139-0.257c-0.073-0.137-0.143-0.273-0.21-0.412
			c-0.061-0.124-0.118-0.248-0.173-0.374c-0.016-0.036-0.031-0.07-0.047-0.106c-0.077-0.182-0.147-0.365-0.216-0.551
			c-0.01-0.029-0.02-0.059-0.031-0.088c-0.064-0.185-0.123-0.371-0.177-0.559c-0.008-0.025-0.016-0.05-0.021-0.075
			c-0.054-0.192-0.103-0.384-0.143-0.577c-0.005-0.02-0.009-0.039-0.014-0.058c-0.043-0.206-0.077-0.411-0.106-0.616
			c-0.001-0.004-0.001-0.008-0.001-0.013c-0.029-0.207-0.049-0.414-0.062-0.62c-0.002-0.016-0.003-0.033-0.004-0.05
			c-0.01-0.204-0.015-0.408-0.01-0.611c0.003-0.111,0.009-0.219,0.015-0.327c0.002-0.021,0.004-0.043,0.008-0.064
			c0.005-0.079,0.013-0.157,0.021-0.234c0.005-0.033,0.009-0.065,0.012-0.098c0.01-0.067,0.02-0.134,0.031-0.2
			c0.005-0.032,0.01-0.063,0.017-0.095c0.013-0.071,0.027-0.142,0.045-0.212c0.004-0.023,0.009-0.047,0.014-0.071
			c0.022-0.094,0.047-0.186,0.073-0.276c0.005-0.016,0.012-0.031,0.017-0.046c0.022-0.076,0.048-0.15,0.073-0.223
			c0.034-0.094,0.07-0.185,0.109-0.273c0.005-0.01,0.011-0.019,0.015-0.029c0.038-0.088,0.081-0.172,0.126-0.255
			c0.013-0.023,0.026-0.047,0.039-0.071c0.061-0.106,0.122-0.208,0.19-0.305c0.005-0.007,0.009-0.013,0.014-0.021
			c0.067-0.093,0.138-0.18,0.211-0.264c0.019-0.02,0.035-0.04,0.054-0.06c0.072-0.079,0.146-0.154,0.225-0.224
			c0.005-0.002,0.008-0.007,0.012-0.01c0.081-0.072,0.167-0.137,0.255-0.199c0.021-0.015,0.043-0.029,0.064-0.044
			c0.09-0.06,0.182-0.116,0.276-0.165l-1.95,1.007c-0.095,0.049-0.186,0.105-0.275,0.166c-0.022,0.014-0.044,0.029-0.064,0.044
			c-0.089,0.062-0.173,0.127-0.255,0.198c-0.005,0.004-0.009,0.008-0.013,0.011c-0.078,0.07-0.151,0.145-0.224,0.223
			c-0.019,0.021-0.036,0.041-0.054,0.062c-0.074,0.083-0.144,0.17-0.212,0.263c0,0.001-0.001,0.003-0.004,0.005
			c-0.002,0.004-0.005,0.011-0.009,0.016c-0.068,0.097-0.131,0.199-0.19,0.305c-0.007,0.013-0.017,0.025-0.024,0.039
			c-0.005,0.01-0.01,0.021-0.015,0.033c-0.045,0.082-0.087,0.167-0.127,0.255c-0.004,0.008-0.008,0.016-0.012,0.024
			c0,0.001-0.001,0.003-0.002,0.005c-0.04,0.088-0.074,0.179-0.109,0.273c-0.001,0.002-0.003,0.005-0.004,0.006
			c-0.024,0.07-0.048,0.143-0.069,0.216c-0.005,0.016-0.012,0.031-0.017,0.047c0,0,0,0.001,0,0.001
			c-0.025,0.085-0.049,0.172-0.07,0.262c-0.002,0.004-0.002,0.009-0.004,0.014c-0.005,0.023-0.009,0.046-0.015,0.068
			c-0.013,0.057-0.026,0.113-0.037,0.171c-0.002,0.014-0.005,0.028-0.006,0.042c-0.007,0.031-0.012,0.062-0.017,0.094
			c-0.007,0.038-0.013,0.075-0.02,0.114c-0.004,0.029-0.007,0.058-0.012,0.086c-0.004,0.033-0.008,0.065-0.012,0.098
			c-0.003,0.022-0.007,0.045-0.008,0.067c-0.007,0.055-0.01,0.111-0.015,0.167c-0.002,0.021-0.005,0.042-0.006,0.064
			c-0.001,0.007-0.002,0.013-0.002,0.021c-0.005,0.083-0.009,0.169-0.013,0.256c0,0.017,0,0.034-0.001,0.051
			c-0.003,0.069-0.003,0.138-0.003,0.207c0,0.087,0.003,0.173,0.006,0.26c0.002,0.048,0.006,0.097,0.007,0.145
			c0.002,0.017,0.002,0.033,0.004,0.05c0.001,0.023,0.001,0.047,0.003,0.069c0.006,0.089,0.015,0.178,0.022,0.267
			c0.01,0.091,0.021,0.184,0.035,0.274c0,0.004,0,0.007,0,0.01s0,0.008,0.002,0.012c0.011,0.084,0.024,0.171,0.039,0.257
			c0.016,0.097,0.034,0.193,0.053,0.29c0.005,0.023,0.01,0.045,0.015,0.068c0.005,0.02,0.009,0.039,0.013,0.059
			c0.013,0.056,0.023,0.111,0.036,0.167c0.024,0.102,0.05,0.203,0.077,0.305c0.009,0.034,0.021,0.07,0.029,0.105
			c0.006,0.024,0.014,0.05,0.022,0.074c0.011,0.044,0.022,0.088,0.036,0.131c0.032,0.106,0.066,0.212,0.102,0.317
			c0.012,0.037,0.026,0.074,0.039,0.11c0.01,0.029,0.021,0.059,0.032,0.088c0.016,0.046,0.031,0.092,0.049,0.137
			c0.044,0.121,0.092,0.24,0.142,0.359c0.007,0.019,0.016,0.037,0.023,0.056c0.016,0.034,0.03,0.07,0.047,0.104
			c0.036,0.083,0.07,0.166,0.108,0.248c0.021,0.043,0.044,0.084,0.065,0.127c0.066,0.139,0.137,0.275,0.209,0.411
			c0.028,0.055,0.054,0.11,0.083,0.163c0.019,0.033,0.039,0.062,0.057,0.095c0.055,0.099,0.114,0.195,0.174,0.293
			c0.039,0.064,0.076,0.133,0.117,0.196c0.016,0.027,0.035,0.051,0.054,0.079c0.091,0.14,0.186,0.274,0.283,0.41
			c0.036,0.05,0.067,0.104,0.105,0.153c0.012,0.017,0.024,0.031,0.037,0.048c0.03,0.042,0.063,0.081,0.096,0.122
			c0.06,0.075,0.115,0.153,0.177,0.226c0.039,0.048,0.08,0.094,0.121,0.14c0.03,0.035,0.059,0.07,0.088,0.104
			c0.025,0.028,0.05,0.057,0.072,0.083c0.088,0.099,0.178,0.193,0.268,0.285c0.016,0.016,0.03,0.03,0.044,0.044
			c0.021,0.021,0.04,0.039,0.061,0.06c0.052,0.05,0.103,0.102,0.155,0.151c0.082,0.077,0.167,0.154,0.252,0.229
			c0.005,0.005,0.011,0.009,0.016,0.014c0.009,0.008,0.018,0.013,0.026,0.021c0.065,0.057,0.132,0.114,0.2,0.169
			c0.076,0.062,0.154,0.123,0.232,0.181c0.01,0.007,0.02,0.012,0.028,0.019c0.01,0.009,0.021,0.016,0.032,0.023
			c0.058,0.042,0.114,0.085,0.171,0.123c0.074,0.05,0.146,0.099,0.221,0.146c0.024,0.015,0.05,0.029,0.075,0.045
			c0.014,0.01,0.029,0.019,0.046,0.027c0.033,0.021,0.066,0.042,0.101,0.062c0.072,0.042,0.144,0.082,0.216,0.12
			c0.062,0.033,0.124,0.063,0.186,0.095c0.012,0.005,0.022,0.01,0.033,0.016c0.072,0.035,0.145,0.067,0.215,0.099
			c0.072,0.031,0.146,0.06,0.215,0.086c0.003,0.002,0.005,0.002,0.008,0.003c0.005,0.003,0.01,0.004,0.014,0.005
			c0.065,0.024,0.13,0.048,0.194,0.068c0.071,0.024,0.143,0.047,0.214,0.066c0.011,0.002,0.021,0.005,0.033,0.008
			c0.013,0.004,0.025,0.007,0.038,0.01c0.05,0.014,0.1,0.027,0.147,0.038c0.076,0.017,0.15,0.031,0.224,0.044
			c0.014,0.002,0.026,0.003,0.038,0.006c0.017,0.002,0.032,0.004,0.048,0.007c0.049,0.007,0.097,0.015,0.145,0.02
			c0.082,0.009,0.163,0.016,0.244,0.02c0.004,0,0.007,0,0.012,0c0.009,0.001,0.019,0,0.028,0c0.07,0.003,0.141,0.005,0.211,0.002
			c0.045-0.001,0.088-0.006,0.133-0.009c0.03-0.001,0.059-0.003,0.087-0.006c0.019-0.002,0.037-0.002,0.057-0.003
			c0.103-0.013,0.203-0.029,0.302-0.05c0.003,0,0.007,0,0.012-0.001c0.001-0.001,0.002-0.001,0.002-0.001
			c0.075-0.015,0.148-0.04,0.222-0.062c0.053-0.016,0.106-0.027,0.157-0.045l0,0c0.124-0.044,0.242-0.096,0.356-0.154l1.95-1.008
			C968.457,182.939,968.339,182.992,968.215,183.036"/>
		<path fill="#FD4A01" d="M972.695,179.769c-0.001-0.044-0.001-0.087-0.002-0.131c-0.001-0.015-0.001-0.031-0.002-0.046
			c-0.004-0.117-0.01-0.234-0.019-0.352c-0.001-0.007-0.001-0.013-0.001-0.02c0,0,0-0.001,0-0.003
			c-0.008-0.125-0.02-0.251-0.032-0.377c-0.002-0.013-0.005-0.026-0.006-0.039c-0.005-0.048-0.012-0.095-0.017-0.142
			c-0.008-0.068-0.015-0.139-0.025-0.207c-0.003-0.026-0.007-0.052-0.011-0.077c-0.008-0.056-0.017-0.112-0.024-0.168
			c-0.008-0.051-0.016-0.102-0.024-0.151c-0.006-0.036-0.014-0.073-0.019-0.109c-0.013-0.062-0.023-0.124-0.035-0.185
			c-0.008-0.039-0.014-0.078-0.021-0.117c-0.01-0.045-0.021-0.09-0.03-0.135c-0.013-0.063-0.026-0.127-0.041-0.19
			c-0.007-0.03-0.013-0.062-0.021-0.092c-0.012-0.051-0.025-0.101-0.038-0.15c-0.017-0.069-0.033-0.139-0.051-0.207
			c-0.007-0.027-0.014-0.053-0.02-0.079c-0.015-0.053-0.029-0.105-0.045-0.157c-0.02-0.071-0.04-0.143-0.061-0.214
			c-0.007-0.024-0.015-0.048-0.021-0.072c-0.016-0.052-0.032-0.103-0.049-0.153c-0.024-0.078-0.048-0.154-0.074-0.23
			c-0.006-0.024-0.015-0.049-0.022-0.072c-0.016-0.046-0.032-0.091-0.048-0.137c-0.03-0.088-0.062-0.175-0.094-0.262
			c-0.009-0.026-0.02-0.055-0.03-0.083c-0.013-0.038-0.03-0.075-0.043-0.114c-0.039-0.098-0.077-0.195-0.116-0.292
			c-0.015-0.035-0.028-0.07-0.041-0.104c-0.012-0.027-0.024-0.052-0.035-0.078c-0.059-0.138-0.119-0.276-0.182-0.412
			c-0.013-0.029-0.024-0.059-0.039-0.088c-0.003-0.009-0.008-0.018-0.012-0.027c-0.076-0.161-0.152-0.32-0.233-0.479
			c-0.014-0.029-0.029-0.058-0.045-0.087c-0.066-0.129-0.135-0.256-0.204-0.383c-0.009-0.016-0.018-0.033-0.026-0.049
			c-0.01-0.018-0.021-0.035-0.032-0.052c-0.137-0.248-0.282-0.492-0.433-0.731c-0.007-0.01-0.012-0.021-0.02-0.031
			c-0.021-0.035-0.045-0.069-0.069-0.104c-0.064-0.101-0.129-0.201-0.197-0.299c-0.037-0.054-0.073-0.108-0.11-0.162
			c-0.066-0.095-0.133-0.189-0.202-0.283c-0.024-0.032-0.046-0.065-0.069-0.097c-0.012-0.015-0.023-0.028-0.034-0.043
			c-0.127-0.168-0.255-0.334-0.389-0.496c-0.009-0.01-0.016-0.02-0.023-0.029c-0.021-0.026-0.044-0.051-0.065-0.077
			c-0.093-0.109-0.184-0.217-0.278-0.323c-0.021-0.022-0.04-0.047-0.061-0.07c-0.02-0.021-0.04-0.042-0.061-0.063
			c-0.079-0.088-0.16-0.174-0.242-0.258c-0.026-0.028-0.054-0.059-0.082-0.087c-0.011-0.012-0.022-0.023-0.033-0.034
			c-0.082-0.083-0.166-0.164-0.249-0.244c-0.029-0.028-0.058-0.056-0.086-0.084c-0.006-0.005-0.011-0.009-0.015-0.014
			c-0.1-0.092-0.198-0.182-0.3-0.271c-0.016-0.014-0.03-0.029-0.046-0.042c-0.001-0.001-0.002-0.001-0.002-0.002
			c-0.114-0.099-0.229-0.195-0.345-0.288l-0.001-0.001c-0.108-0.088-0.219-0.173-0.329-0.256c-0.004-0.002-0.007-0.004-0.009-0.006
			c-0.034-0.024-0.066-0.046-0.1-0.07c-0.073-0.054-0.146-0.107-0.221-0.159c-0.008-0.005-0.017-0.009-0.022-0.015
			c-0.037-0.025-0.072-0.047-0.106-0.071c-0.062-0.04-0.122-0.082-0.184-0.12c-0.016-0.01-0.033-0.02-0.05-0.03
			c-0.043-0.027-0.086-0.052-0.129-0.078c-0.044-0.027-0.089-0.056-0.135-0.083c-0.028-0.016-0.056-0.031-0.083-0.046
			c-0.043-0.023-0.086-0.047-0.129-0.071c-0.032-0.018-0.064-0.037-0.098-0.054c-0.068-0.036-0.137-0.071-0.205-0.106
			c-0.018-0.009-0.037-0.018-0.056-0.027c-0.016-0.008-0.032-0.015-0.048-0.023c-0.077-0.037-0.154-0.071-0.23-0.106
			c-0.024-0.01-0.047-0.021-0.071-0.031c-0.001-0.001-0.004-0.003-0.006-0.003c-0.103-0.044-0.205-0.085-0.308-0.125
			c-0.003-0.001-0.007-0.003-0.01-0.003c-0.032-0.012-0.062-0.022-0.095-0.034c-0.067-0.024-0.136-0.05-0.204-0.072
			c-0.008-0.002-0.016-0.004-0.024-0.007c-0.042-0.014-0.084-0.026-0.126-0.039c-0.053-0.016-0.105-0.034-0.158-0.048
			c-0.013-0.003-0.023-0.006-0.035-0.009c-0.051-0.014-0.099-0.025-0.147-0.038c-0.045-0.011-0.089-0.023-0.133-0.034
			c-0.014-0.003-0.027-0.005-0.041-0.008c-0.054-0.012-0.107-0.021-0.16-0.031c-0.041-0.008-0.081-0.018-0.122-0.025
			c-0.014-0.001-0.026-0.003-0.039-0.005c-0.061-0.01-0.117-0.017-0.178-0.025c-0.038-0.005-0.076-0.011-0.114-0.016
			c-0.01-0.002-0.021-0.002-0.032-0.003c-0.078-0.008-0.156-0.014-0.236-0.019c-0.026-0.001-0.056-0.005-0.084-0.007
			c-0.004,0-0.008,0-0.013,0c-0.112-0.005-0.226-0.006-0.337-0.004c-0.005,0-0.009,0-0.014,0c-0.018,0-0.033,0.003-0.05,0.004
			c-0.101,0.004-0.2,0.011-0.299,0.02c-0.018,0.002-0.034,0.002-0.05,0.004c-0.017,0.001-0.033,0.005-0.05,0.007
			c-0.135,0.017-0.272,0.037-0.403,0.065c0,0-0.001,0-0.003,0c-0.055,0.012-0.109,0.027-0.163,0.04
			c-0.037,0.01-0.075,0.018-0.111,0.028c-0.055,0.016-0.109,0.035-0.164,0.053c-0.035,0.012-0.072,0.021-0.106,0.034h-0.001
			c-0.061,0.021-0.12,0.047-0.18,0.071c-0.026,0.011-0.054,0.02-0.079,0.032c-0.088,0.037-0.172,0.078-0.254,0.121l-1.95,1.006
			c0.084-0.042,0.168-0.083,0.253-0.12c0.032-0.014,0.064-0.025,0.096-0.038c0.056-0.022,0.109-0.045,0.167-0.065
			c0.033-0.012,0.067-0.021,0.102-0.033c0.057-0.018,0.113-0.038,0.169-0.054c0.038-0.011,0.077-0.019,0.116-0.028
			c0.053-0.014,0.105-0.028,0.16-0.04c0.132-0.028,0.267-0.049,0.403-0.065c0.033-0.004,0.066-0.008,0.099-0.011
			c0.1-0.01,0.199-0.016,0.3-0.02c0.021,0,0.041-0.003,0.063-0.004c0.111-0.002,0.225-0.001,0.337,0.004
			c0.034,0.001,0.064,0.004,0.098,0.006c0.078,0.005,0.157,0.01,0.236,0.019c0.048,0.005,0.098,0.012,0.146,0.019
			c0.059,0.008,0.117,0.015,0.178,0.025c0.053,0.009,0.107,0.02,0.16,0.03c0.054,0.01,0.106,0.021,0.16,0.032
			c0.059,0.013,0.115,0.027,0.175,0.042c0.049,0.012,0.097,0.024,0.146,0.037c0.065,0.018,0.13,0.038,0.194,0.058
			c0.042,0.012,0.085,0.024,0.126,0.038c0.076,0.025,0.153,0.052,0.229,0.08c0.032,0.012,0.063,0.022,0.096,0.034
			c0.107,0.041,0.214,0.084,0.323,0.131c0.024,0.01,0.047,0.021,0.07,0.032c0.093,0.041,0.185,0.083,0.279,0.129
			c0.018,0.009,0.036,0.018,0.055,0.027c0.102,0.05,0.203,0.104,0.304,0.16c0.043,0.023,0.086,0.047,0.129,0.071
			c0.074,0.041,0.146,0.084,0.219,0.127c0.042,0.026,0.084,0.052,0.128,0.078c0.078,0.048,0.155,0.1,0.232,0.151
			c0.035,0.023,0.071,0.046,0.106,0.071c0.083,0.056,0.166,0.115,0.247,0.175c0.031,0.022,0.064,0.044,0.097,0.068
			c0.113,0.085,0.227,0.172,0.338,0.262c0.116,0.094,0.231,0.189,0.345,0.289c0.017,0.014,0.031,0.03,0.048,0.043
			c0.102,0.088,0.201,0.179,0.3,0.272c0.034,0.032,0.066,0.064,0.101,0.097c0.084,0.08,0.167,0.161,0.249,0.244
			c0.039,0.041,0.078,0.082,0.116,0.121c0.082,0.085,0.163,0.171,0.242,0.259c0.041,0.043,0.08,0.089,0.12,0.133
			c0.095,0.105,0.187,0.213,0.278,0.323c0.029,0.035,0.06,0.07,0.089,0.106c0.133,0.162,0.262,0.328,0.389,0.496
			c0.034,0.047,0.069,0.094,0.103,0.141c0.069,0.094,0.137,0.188,0.204,0.283c0.036,0.053,0.072,0.106,0.109,0.16
			c0.069,0.1,0.134,0.199,0.199,0.301c0.029,0.044,0.059,0.088,0.087,0.134c0.151,0.239,0.296,0.483,0.434,0.732
			c0.02,0.033,0.038,0.067,0.058,0.101c0.07,0.127,0.138,0.255,0.204,0.384c0.015,0.029,0.029,0.058,0.046,0.087
			c0.079,0.158,0.157,0.318,0.232,0.479c0.017,0.038,0.033,0.076,0.051,0.115c0.062,0.135,0.123,0.273,0.182,0.412
			c0.024,0.061,0.051,0.121,0.075,0.182c0.04,0.098,0.078,0.195,0.115,0.293c0.024,0.064,0.051,0.131,0.075,0.195
			c0.031,0.087,0.062,0.176,0.093,0.262c0.024,0.069,0.049,0.14,0.071,0.209c0.025,0.076,0.049,0.154,0.074,0.23
			c0.023,0.075,0.048,0.15,0.069,0.226c0.021,0.071,0.042,0.143,0.061,0.214c0.021,0.079,0.045,0.156,0.065,0.236
			c0.019,0.068,0.034,0.138,0.052,0.206c0.021,0.081,0.039,0.164,0.058,0.244c0.015,0.062,0.028,0.126,0.041,0.188
			c0.019,0.084,0.035,0.168,0.051,0.253c0.011,0.062,0.023,0.122,0.033,0.185c0.017,0.087,0.03,0.174,0.044,0.261
			c0.009,0.056,0.017,0.111,0.026,0.168c0.012,0.095,0.023,0.19,0.036,0.285c0.005,0.047,0.011,0.093,0.017,0.141
			c0.015,0.14,0.027,0.28,0.037,0.419c0,0.009,0,0.017,0.001,0.024c0.01,0.131,0.016,0.262,0.02,0.394
			c0.002,0.043,0.002,0.087,0.003,0.129c0.003,0.119,0.005,0.237,0.003,0.355c-0.002,0.18-0.01,0.351-0.023,0.52
			c-0.001,0.025-0.004,0.049-0.005,0.072c-0.015,0.157-0.03,0.312-0.055,0.461c-0.002,0.016-0.005,0.03-0.007,0.046
			c-0.021,0.139-0.049,0.272-0.076,0.402c-0.006,0.023-0.01,0.047-0.015,0.069c-0.033,0.138-0.068,0.269-0.109,0.396
			c-0.011,0.038-0.023,0.075-0.036,0.112c-0.03,0.091-0.061,0.181-0.095,0.269c-0.021,0.055-0.044,0.108-0.065,0.164
			c-0.028,0.065-0.058,0.13-0.088,0.195c-0.038,0.084-0.08,0.167-0.121,0.246c-0.026,0.05-0.052,0.098-0.077,0.145
			c-0.099,0.175-0.202,0.343-0.314,0.503c-0.038,0.054-0.078,0.107-0.117,0.161c-0.038,0.049-0.073,0.099-0.111,0.146
			c-0.045,0.057-0.091,0.111-0.139,0.166c-0.039,0.046-0.076,0.092-0.116,0.137c-0.048,0.055-0.099,0.107-0.148,0.16
			c-0.039,0.043-0.079,0.086-0.119,0.126c-0.053,0.054-0.106,0.104-0.158,0.155c-0.041,0.04-0.081,0.08-0.124,0.118
			c-0.054,0.052-0.11,0.103-0.169,0.153c-0.039,0.035-0.079,0.073-0.12,0.107c-0.061,0.053-0.122,0.104-0.184,0.155
			c-0.038,0.032-0.075,0.063-0.112,0.095c-0.071,0.057-0.143,0.113-0.213,0.169c-0.03,0.023-0.061,0.048-0.09,0.07
			c-0.102,0.079-0.204,0.157-0.306,0.234l-3.732,2.533l1.95-1.006l3.732-2.533c0.102-0.077,0.203-0.156,0.305-0.234
			c0.034-0.026,0.066-0.053,0.101-0.079c0.067-0.054,0.135-0.106,0.202-0.16c0.039-0.033,0.076-0.065,0.115-0.099
			c0.062-0.051,0.122-0.1,0.183-0.152c0.041-0.034,0.08-0.072,0.119-0.107c0.058-0.051,0.114-0.101,0.17-0.152
			c0.042-0.038,0.081-0.079,0.122-0.119c0.054-0.051,0.106-0.102,0.159-0.154c0.04-0.041,0.08-0.085,0.119-0.128
			c0.05-0.052,0.101-0.104,0.148-0.16c0.04-0.044,0.078-0.09,0.117-0.136c0.046-0.055,0.093-0.11,0.137-0.166
			c0.038-0.049,0.075-0.099,0.112-0.147c0.032-0.044,0.066-0.086,0.099-0.131c0.007-0.01,0.012-0.021,0.019-0.029
			c0.111-0.16,0.215-0.328,0.314-0.502c0.009-0.018,0.021-0.031,0.028-0.048c0.018-0.032,0.032-0.065,0.049-0.098
			c0.042-0.081,0.083-0.162,0.122-0.246c0.013-0.031,0.03-0.059,0.044-0.091c0.017-0.034,0.029-0.07,0.042-0.105
			c0.022-0.055,0.046-0.108,0.066-0.164c0.012-0.033,0.026-0.062,0.039-0.096c0.021-0.057,0.037-0.115,0.058-0.174
			c0.011-0.036,0.023-0.072,0.035-0.11c0.006-0.017,0.011-0.03,0.016-0.047c0.03-0.102,0.058-0.205,0.083-0.311
			c0.003-0.014,0.007-0.026,0.01-0.039c0.005-0.022,0.009-0.048,0.014-0.07c0.014-0.062,0.029-0.122,0.04-0.186
			c0.015-0.071,0.026-0.144,0.038-0.217c0.002-0.016,0.004-0.03,0.007-0.045c0.001-0.009,0.002-0.016,0.005-0.025
			c0.013-0.093,0.025-0.188,0.035-0.287c0.005-0.048,0.009-0.1,0.013-0.149c0.003-0.023,0.005-0.046,0.006-0.071
			c0.003-0.022,0.005-0.044,0.007-0.065c0.006-0.095,0.011-0.191,0.014-0.29c0.003-0.055,0.004-0.109,0.004-0.165
			c0-0.055,0.001-0.109,0-0.164C972.699,179.896,972.698,179.831,972.695,179.769"/>
		<path fill="#C73700" d="M970.75,181.129c-0.035,3.03-1.652,4.504-3.315,5.756l-3.732,2.534c-0.157,0.107-0.361,0.102-0.563,0.003
			c-0.197-0.096-0.392-0.278-0.54-0.527l-3.705-6.216c-0.146-0.235-2.919-4.708-2.878-8.603c0.049-4.856,3.507-7.13,7.573-5.147
			c0.02,0.009,0.038,0.018,0.056,0.027C967.633,170.934,970.806,176.369,970.75,181.129 M963.234,183.723
			c2.848,1.388,5.222-0.226,5.303-3.604c0.082-3.379-2.157-7.24-5.006-8.629c-2.849-1.388-5.223,0.224-5.306,3.602
			C958.146,178.47,960.386,182.333,963.234,183.723"/>
		<g>
			<g>
				<defs>
					<path id="SVGID_46_" d="M961.225,171.125c0,0-7.267,2.452-7.446,2.497c-0.178,0.044,5.44,13.777,5.44,13.777l8.338-3.924
						c0,0,2.407-2.809-0.135-7.847c-2.049-4.063-4.559-4.553-5.647-4.553C961.429,171.076,961.225,171.125,961.225,171.125"/>
				</defs>
				<clipPath id="SVGID_26_">
					<use xlink:href="#SVGID_46_"  overflow="visible"/>
				</clipPath>
				<path clip-path="url(#SVGID_26_)" fill="#2E7780" d="M968.952,177.841c-0.002-0.034-0.005-0.068-0.007-0.103
					c0-0.012,0-0.023-0.001-0.035c-0.002-0.017-0.002-0.033-0.004-0.05c-0.004-0.062-0.009-0.126-0.015-0.188
					c-0.008-0.065-0.016-0.131-0.024-0.196c0-0.002,0-0.004-0.001-0.006c0-0.003-0.001-0.006-0.001-0.009
					c-0.009-0.061-0.018-0.121-0.027-0.182c-0.013-0.07-0.024-0.139-0.038-0.207c-0.003-0.018-0.007-0.033-0.012-0.05
					c-0.002-0.014-0.006-0.027-0.008-0.042c-0.009-0.04-0.018-0.079-0.026-0.118c-0.017-0.072-0.035-0.145-0.054-0.216
					c-0.007-0.025-0.015-0.051-0.021-0.076c-0.005-0.018-0.011-0.035-0.016-0.054c-0.009-0.03-0.018-0.062-0.026-0.093
					c-0.021-0.075-0.047-0.15-0.072-0.226c-0.009-0.026-0.019-0.053-0.027-0.079c-0.008-0.021-0.016-0.042-0.023-0.062
					c-0.011-0.032-0.022-0.064-0.033-0.098c-0.032-0.085-0.065-0.17-0.102-0.255c-0.006-0.014-0.013-0.027-0.018-0.04
					c-0.011-0.026-0.022-0.05-0.034-0.076c-0.025-0.059-0.049-0.118-0.077-0.175c-0.014-0.031-0.03-0.061-0.045-0.09
					c-0.048-0.099-0.099-0.197-0.149-0.293c-0.021-0.039-0.038-0.079-0.06-0.117c-0.013-0.022-0.025-0.044-0.039-0.067
					c-0.041-0.07-0.082-0.139-0.124-0.208c-0.029-0.047-0.055-0.094-0.084-0.141c-0.013-0.02-0.026-0.037-0.038-0.056
					c-0.064-0.099-0.133-0.195-0.201-0.292c-0.026-0.035-0.049-0.074-0.075-0.109c-0.009-0.012-0.019-0.023-0.028-0.035
					c-0.021-0.03-0.044-0.058-0.066-0.086c-0.042-0.054-0.083-0.108-0.126-0.161c-0.028-0.034-0.058-0.066-0.085-0.1
					c-0.021-0.025-0.044-0.05-0.065-0.075c-0.017-0.02-0.034-0.04-0.051-0.06c-0.062-0.069-0.126-0.137-0.19-0.202
					c-0.011-0.011-0.021-0.021-0.032-0.032c-0.013-0.014-0.029-0.028-0.042-0.042c-0.037-0.036-0.072-0.073-0.109-0.108
					c-0.06-0.056-0.119-0.111-0.18-0.164c-0.005-0.002-0.008-0.006-0.012-0.009c-0.007-0.005-0.013-0.01-0.019-0.015
					c-0.048-0.041-0.096-0.082-0.143-0.121c-0.056-0.044-0.111-0.086-0.166-0.128c-0.008-0.005-0.014-0.009-0.02-0.014
					c-0.008-0.005-0.016-0.01-0.022-0.016c-0.041-0.03-0.082-0.059-0.123-0.088c-0.053-0.035-0.104-0.07-0.157-0.104
					c-0.018-0.011-0.035-0.021-0.053-0.032c-0.011-0.007-0.022-0.014-0.034-0.021c-0.022-0.015-0.047-0.029-0.07-0.043
					c-0.051-0.029-0.104-0.058-0.154-0.085c-0.044-0.023-0.088-0.045-0.133-0.067c-0.007-0.004-0.016-0.008-0.023-0.012
					c-0.051-0.024-0.103-0.047-0.152-0.07c-0.051-0.021-0.103-0.042-0.153-0.061c-0.001-0.001-0.004-0.002-0.006-0.002
					c-0.003-0.001-0.006-0.002-0.008-0.003c-0.047-0.017-0.093-0.034-0.139-0.048c-0.052-0.018-0.103-0.033-0.153-0.047
					c-0.007-0.002-0.015-0.004-0.023-0.006c-0.008-0.002-0.019-0.004-0.026-0.007c-0.036-0.01-0.071-0.019-0.105-0.027
					c-0.055-0.012-0.106-0.023-0.158-0.031c-0.009-0.001-0.019-0.002-0.029-0.004c-0.011-0.001-0.021-0.003-0.032-0.004
					c-0.034-0.005-0.068-0.011-0.103-0.015c-0.06-0.006-0.115-0.011-0.173-0.013c-0.004,0-0.007,0-0.01,0c-0.007,0-0.013,0-0.021,0
					c-0.05-0.002-0.1-0.003-0.149-0.002c-0.032,0-0.063,0.004-0.097,0.007c-0.021,0.001-0.04,0.002-0.061,0.004
					c-0.013,0.001-0.027,0.001-0.04,0.003c-0.073,0.008-0.146,0.02-0.217,0.034c-0.001,0-0.004,0-0.006,0.001c0,0-0.001,0-0.002,0
					c-0.051,0.011-0.1,0.028-0.149,0.043c-0.04,0.011-0.081,0.02-0.121,0.034h-0.001c-0.087,0.031-0.171,0.068-0.252,0.11
					l-1.949,1.007c0.081-0.042,0.166-0.079,0.252-0.11c0.04-0.015,0.082-0.023,0.121-0.034c0.05-0.015,0.099-0.032,0.151-0.043
					c0.002,0,0.005,0,0.007-0.001c0.084-0.017,0.17-0.029,0.257-0.037c0.021-0.003,0.04-0.003,0.062-0.004
					c0.08-0.005,0.161-0.008,0.245-0.005c0.007,0,0.014,0,0.021,0c0.093,0.004,0.188,0.014,0.284,0.028
					c0.011,0.001,0.022,0.002,0.034,0.004c0.096,0.015,0.192,0.036,0.292,0.062c0.008,0.003,0.018,0.005,0.026,0.007
					c0.104,0.028,0.209,0.062,0.314,0.101c0.003,0.002,0.006,0.002,0.01,0.004c0.109,0.042,0.222,0.09,0.335,0.145
					c0.12,0.059,0.24,0.125,0.356,0.196c0.011,0.006,0.022,0.014,0.034,0.02c0.113,0.069,0.224,0.144,0.332,0.223
					c0.008,0.006,0.015,0.011,0.022,0.016c0.112,0.082,0.222,0.17,0.329,0.263c0.007,0.005,0.012,0.01,0.018,0.015
					c0.104,0.089,0.203,0.183,0.302,0.28c0.014,0.014,0.028,0.027,0.042,0.042c0.094,0.093,0.184,0.191,0.273,0.292
					c0.021,0.025,0.043,0.05,0.064,0.075c0.072,0.084,0.144,0.172,0.212,0.26c0.022,0.029,0.045,0.058,0.066,0.086
					c0.037,0.047,0.068,0.097,0.104,0.145c0.067,0.096,0.135,0.191,0.2,0.291c0.041,0.065,0.081,0.13,0.122,0.196
					c0.042,0.068,0.083,0.138,0.123,0.208c0.035,0.061,0.067,0.122,0.1,0.184c0.052,0.097,0.102,0.194,0.148,0.293
					c0.042,0.089,0.084,0.177,0.123,0.267c0.012,0.025,0.023,0.051,0.034,0.075c0.055,0.13,0.104,0.26,0.153,0.392
					c0.007,0.021,0.015,0.042,0.021,0.063c0.048,0.132,0.089,0.265,0.128,0.398c0.004,0.018,0.009,0.034,0.015,0.053
					c0.038,0.136,0.073,0.273,0.102,0.409c0.004,0.015,0.007,0.028,0.009,0.043c0.029,0.146,0.057,0.292,0.075,0.438
					c0.002,0.002,0.002,0.005,0.003,0.008c0.02,0.147,0.034,0.294,0.042,0.44c0.002,0.012,0.003,0.023,0.003,0.036
					c0.008,0.146,0.011,0.29,0.007,0.435c-0.003,0.159-0.016,0.313-0.033,0.461c-0.002,0.012-0.003,0.023-0.005,0.035
					c-0.019,0.143-0.043,0.28-0.073,0.412c-0.002,0.006-0.002,0.011-0.004,0.016c-0.032,0.138-0.071,0.268-0.116,0.393
					c-0.003,0.005-0.003,0.01-0.006,0.015c-0.04,0.108-0.088,0.211-0.136,0.31c-0.011,0.021-0.021,0.04-0.029,0.06
					c-0.057,0.104-0.115,0.204-0.182,0.295c-0.006,0.009-0.014,0.016-0.018,0.024c-0.061,0.08-0.122,0.153-0.188,0.225
					c-0.021,0.023-0.046,0.046-0.068,0.067c-0.056,0.055-0.112,0.104-0.171,0.15c-0.024,0.02-0.048,0.039-0.074,0.057
					c-0.083,0.061-0.168,0.116-0.26,0.163l1.95-1.006c0.091-0.048,0.176-0.104,0.259-0.164c0.026-0.018,0.049-0.038,0.074-0.057
					c0.06-0.046,0.116-0.097,0.17-0.149c0.023-0.022,0.047-0.045,0.069-0.068c0.066-0.071,0.129-0.146,0.188-0.226
					c0.006-0.008,0.013-0.015,0.018-0.023c0.002-0.002,0.004-0.003,0.004-0.004c0.058-0.081,0.11-0.166,0.16-0.257
					c0.007-0.011,0.011-0.022,0.018-0.034c0.009-0.02,0.019-0.04,0.029-0.06c0.021-0.042,0.044-0.084,0.062-0.128
					c0.026-0.059,0.051-0.12,0.073-0.183c0.003-0.005,0.004-0.009,0.006-0.014c0.001-0.002,0.001-0.005,0.002-0.007
					c0.022-0.061,0.043-0.123,0.062-0.188c0.018-0.061,0.036-0.122,0.05-0.186c0.001-0.005,0.002-0.01,0.003-0.014
					s0.003-0.009,0.004-0.014c0.011-0.051,0.022-0.103,0.032-0.154c0.012-0.058,0.021-0.117,0.031-0.178
					c0.004-0.027,0.007-0.055,0.01-0.082c0.001-0.011,0.002-0.022,0.004-0.034c0.003-0.021,0.007-0.042,0.009-0.063
					c0.006-0.059,0.011-0.118,0.017-0.179c0.003-0.061,0.006-0.121,0.007-0.182c0.001-0.013,0.001-0.025,0.001-0.038
					c0.001-0.048,0.002-0.098,0.002-0.146C968.954,177.964,968.953,177.902,968.952,177.841"/>
			</g>
			<g>
				<defs>
					<path id="SVGID_48_" d="M961.225,171.125c0,0-7.267,2.452-7.446,2.497c-0.178,0.044,5.44,13.777,5.44,13.777l8.338-3.924
						c0,0,2.407-2.809-0.135-7.847c-2.049-4.063-4.559-4.553-5.647-4.553C961.429,171.076,961.225,171.125,961.225,171.125"/>
				</defs>
				<clipPath id="SVGID_28_">
					<use xlink:href="#SVGID_48_"  overflow="visible"/>
				</clipPath>
				<path clip-path="url(#SVGID_28_)" fill="#00C2F9" d="M963.439,173.037c2.027,0.988,3.624,3.739,3.564,6.143
					c-0.06,2.406-1.747,3.553-3.775,2.565c-2.026-0.989-3.624-3.738-3.565-6.144C959.721,173.197,961.413,172.049,963.439,173.037"
					/>
			</g>
		</g>
	</g>
</g>
</svg>
