<?xml version="1.0" encoding="utf-8"?>
<!-- Generator: Adobe Illustrator 16.0.0, SVG Export Plug-In . SVG Version: 6.00 Build 0)  -->
<!DOCTYPE svg PUBLIC "-//W3C//DTD SVG 1.1//EN" "http://www.w3.org/Graphics/SVG/1.1/DTD/svg11.dtd">
<svg version="1.1" id="Camada_1" xmlns="http://www.w3.org/2000/svg" xmlns:xlink="http://www.w3.org/1999/xlink" x="0px" y="0px"
	 width="100px" height="100px" viewBox="0 0 100 100" enable-background="new 0 0 100 100" xml:space="preserve">
<g>
	<path opacity="0.15" fill="#211915" enable-background="new    " d="M27.562,63.302c0,0,0,0.459,0.46,1.148
		c0.459,0.689,1.148,1.379,1.379,1.609c0,0,0.689,0.92,1.379,1.608c0.459,0.69,1.148,0.919,1.379,0.919
		c0.231,0,4.598-0.919,5.286-0.919h0.229c0.229,0,0.689,0.229,0.919,0.229c1.149,1.149,2.758,2.068,4.138,2.988
		c0.229,0.459,0.459,0.918,0.459,0.918c0,0.461,0,4.367,0,4.598c0,0,0.46,0.459,1.148,0.919c0.92,0.46,1.84,0.919,2.067,0.919
		c0,0,1.15,0.46,2.069,0.919c0.46,0.229,0.689,0.229,0.919,0.229c0.229,0,0.461,0,0.461,0l2.757-4.137
		c1.38,0.229,2.758,0.459,4.137,0.689l0,0c0.46,0.229,0.92,0.46,1.149,0.919c0.46,0.459,3.907,4.825,4.137,5.056
		c0,0,0.46,0.23,1.148,0.23c0.23,0,0.23,0,0.23,0c0.688-0.23,1.608-0.23,1.608-0.23s0.919-0.23,1.608-0.23
		c0.46,0,0.46-0.229,0.688-0.459l4.137-6.205c1.609,0.688,3.218,1.608,3.448,1.608c0,0,0.688,0,0.918-0.46l8.273-12.641
		l-0.229,0.229l0.229-0.229c0.23-0.459,0.461-1.149,0.461-1.149s0.229-0.688,0.459-1.149c0.229-0.459-0.229-1.148-0.229-1.148
		c-0.229-0.23-2.987-2.068-4.596-2.988l3.905-5.976l0,0l-3.905,5.976l0,0l3.905-5.976c0,0,0,0-0.229,0h0.229c0,0,0.23-0.459,0-1.148
		c-0.229-0.69-0.688-1.609-0.918-1.609c0,0-0.46-0.919-0.919-1.609c-0.231-0.688-0.92-1.148-1.149-1.148s-5.517-0.919-6.205-0.919
		c-0.23,0-0.92-0.229-1.149-0.46c-0.918-1.148-2.068-2.527-3.219-3.678c-0.229-0.459-0.229-0.688,0-0.919l0,0l0,0
		c0.231-0.46,2.068-3.447,2.068-3.447s-0.229-0.459-0.919-1.149c-0.689-0.46-1.608-1.149-1.608-1.149s-0.919-0.689-1.608-1.149
		c-0.688-0.459-1.378-0.459-1.608-0.459c-0.229,0.229-2.987,2.298-3.446,2.527c-0.23,0.23-0.461,0.23-0.92,0.23
		c-1.608-0.919-2.987-1.609-4.597-2.068c-0.46-0.229-0.689-0.688-0.92-0.919c-0.229-0.459-2.067-4.826-2.298-5.057
		c0,0-0.688-0.458-1.379-0.689c-0.919-0.229-1.84-0.229-1.84-0.459c0,0-1.148-0.229-1.839-0.46c-0.229,0-0.229,0-0.229,0
		c-0.459,0-0.919,0.23-0.919,0.23l-3.677,5.976c-0.462-0.229-0.689-0.229-0.92-0.46c-0.461-0.46-5.286-4.137-5.516-4.367
		c0,0-0.229,0-0.461-0.229c-0.229,0-0.459,0-0.689,0.229c-0.459,0.229-1.147,0.689-1.147,0.689s-0.689,0.46-1.15,0.69
		c-0.229,0.229-0.229,0.229-0.229,0.229l0,0l-8.274,12.64c-0.229,0.23-0.229,0.689-0.229,0.689l0,0c0,0,0.229,0.229,0.46,0.46
		l-4.367,6.895c-0.229,0.229-0.229,0.229-0.229,0.46c0,0.459,0.229,1.378,0.229,1.378s0.229,0.919,0.229,1.38
		c0,0.459,0.461,1.147,0.689,1.147c0.229,0.229,5.746,2.299,6.436,2.528c0.229,0.229,0.689,0.459,1.148,0.919
		c0.229,0.46,0.459,0.919,0.689,1.608L27.562,63.302z M33.998,28.14L33.998,28.14C33.767,28.368,33.767,28.368,33.998,28.14z
		 M33.767,28.828L33.767,28.828L33.767,28.828z M33.767,28.368L33.767,28.368C33.767,28.599,33.767,28.599,33.767,28.368z"/>
	<g>
		<g enable-background="new    ">
			<g>
				<path fill="#D95F28" d="M35.146,45.605l-13.101,7.583l0,0L35.146,45.605L35.146,45.605z"/>
			</g>
			<g>
				<path fill="#D95F28" d="M28.481,29.518l-13.102,7.584l0,0L28.481,29.518L28.481,29.518z"/>
			</g>
			<g>
				<path fill="#A92933" d="M50.315,63.531l-13.101,7.584c-0.229,0.229-0.229,0.229-0.46,0.459c-0.229,0.46-1.379,4.366-1.608,4.597
					l13.101-7.584c0-0.229,1.378-4.137,1.609-4.597C50.084,63.761,50.084,63.761,50.315,63.531z"/>
			</g>
			<path fill="#D63D51" d="M33.538,31.585c-0.46-0.229-4.826-2.067-5.057-2.298l-13.102,7.584c0.231,0.23,4.368,2.068,5.058,2.299
				c0.229,0.229,0.461,0,0.92,0l13.101-7.585C34.227,31.816,33.767,31.816,33.538,31.585z"/>
			<path fill="#A92933" d="M52.384,58.017c-0.459-0.229-1.148-0.459-1.84-0.92c-5.286-2.987-10.111-9.883-10.801-16.546
				c-0.461-4.367,0.689-7.585,3.217-8.964L29.4,39.171c-2.527,1.378-3.678,4.597-3.218,8.964c0.92,6.435,5.516,13.56,10.802,16.546
				c0.46,0.229,1.149,0.461,1.839,0.92c2.527,0.918,4.366,0.918,5.977-0.229l13.56-7.584C56.75,58.935,54.682,59.164,52.384,58.017z
				"/>
			<path fill="#DD535F" d="M35.376,18.486c0,0-0.461-0.23-0.919,0L21.357,26.07c0.46-0.23,0.919,0,0.919,0
				c0.229,0.229,3.678,5.056,4.137,5.515l13.102-7.584C39.283,23.542,35.606,18.717,35.376,18.486z"/>
			<path fill="#A92933" d="M60.657,64.45l0.459-0.229c0.69-0.459,1.38-0.92,2.068-1.608l-13.101,7.584
				c-0.46,0.459-1.147,0.919-1.607,1.379l-0.688,0.46c0,0.459-0.229,0.919,0,1.148c0.229,0.689,1.837,6.205,2.068,6.436
				c0,0-0.231,0.46-0.461,0.46l13.101-7.584c0.229-0.229,0.459-0.459,0.459-0.459l0,0c-0.229-0.229-1.606-5.746-2.067-6.437
				C60.657,65.142,60.657,64.91,60.657,64.45z"/>
			<path fill="#D63D51" d="M40.663,24.691c-0.46-0.23-0.919-0.46-0.919-0.92l-13.101,7.584c0.229,0.229,0.46,0.46,0.919,0.919
				c0.919-0.23,2.067-0.23,3.218-0.23l13.102-7.584C42.731,24.461,41.582,24.691,40.663,24.691z"/>
			<path fill="#DD535F" d="M70.999,62.612c-0.229-0.23-4.137-4.598-4.365-5.286c-0.23-0.229-0.46-0.69-0.689-1.149l-13.101,7.584
				c0.229,0.459,0.46,0.92,0.689,1.149c0.46,0.46,4.366,5.056,4.366,5.286c0,0,0.23,0.919,0,1.379
				c-0.229,0.46-0.46,1.148-0.46,1.148s-0.229,0.689-0.46,1.148c-0.229,0.23-0.229,0.23-0.229,0.46l13.102-7.584
				c0.229-0.229,0.229-0.229,0.229-0.46c0.229-0.459,0.459-1.148,0.459-1.148s0.231-0.689,0.46-1.149
				C71.229,63.302,70.999,62.612,70.999,62.612z"/>
			<path fill="#D63D51" d="M66.402,51.58l-13.1,7.584c-0.229,0.229-0.229,0.229-0.459,0.46c0.229,1.609,0.229,2.988,0,4.137
				l13.1-7.584c0.229-1.148,0.229-2.758,0-4.137C65.943,52.04,66.173,51.81,66.402,51.58z"/>
			<path fill="#DD535F" d="M50.546,26.301c-0.23-0.689-1.379-5.976-1.379-6.206c0,0-0.461-0.459-0.92-0.919
				c-0.229,0-0.229-0.229-0.229-0.229c-0.689-0.229-1.379-0.46-1.609-0.46c0,0-0.918-0.23-1.606-0.46
				c-0.461-0.229-0.689-0.229-0.919,0L30.781,25.61c0.229-0.23,0.459-0.23,0.919,0c0.69,0.229,1.379,0.46,1.609,0.46
				c0,0,0.919,0.229,1.606,0.46c0.23,0,0.23,0,0.23,0.229c0.46,0.229,0.92,0.919,0.92,0.919c0,0.229,1.148,5.516,1.379,6.206
				c0,0.229,0.229,0.919,0.459,1.148l13.102-7.584C50.774,26.989,50.546,26.53,50.546,26.301z"/>
			<path fill="#D63D51" d="M54.682,30.207L54.682,30.207c-1.148-1.148-2.298-2.067-3.677-2.758l-13.102,7.584
				c1.149,0.919,2.529,1.838,3.678,2.758c0.23,0,0.688,0,0.919,0l13.102-7.584C55.371,30.437,54.912,30.437,54.682,30.207z"/>
			<path fill="#DD535F" d="M70.999,50.432c-0.229-0.919-0.46-1.838-0.46-2.068c0,0-0.229-1.149-0.459-2.068
				c-0.229-0.919-0.688-1.378-0.919-1.378l0,0c-0.229-0.229-4.367-1.379-4.827-1.608c0,0-0.229,0-0.229-0.23
				c-0.229-0.229-0.459-0.46-0.92-0.688l0,0c-0.688-1.609-1.378-2.988-2.298-4.598l-13.1,7.584c0.918,1.609,1.607,2.988,2.297,4.598
				l6.666-3.678l-6.666,3.678c0.23,0.229,0.46,0.459,0.92,0.689c0,0,0.23,0,0.23,0.229c0.458,0.229,4.826,1.608,4.826,1.608
				l6.664-3.677l-6.664,3.677c0,0,0.459,0.459,0.918,1.379c0.229,0.919,0.46,1.84,0.46,2.068c0,0,0.229,1.148,0.46,2.068
				c0.229,0.918,0,1.148-0.229,1.148l13.102-7.584C70.999,51.58,71.459,51.351,70.999,50.432z"/>
			<path fill="#D63D51" d="M63.185,32.965l-13.101,7.584c-0.229,0.23-1.838,3.679-2.067,4.138c-0.229,0.229-0.229,0.688,0,1.148
				l13.1-7.584c0-0.459-0.229-0.919,0-1.148C61.348,36.643,63.185,33.194,63.185,32.965z"/>
			<path fill="#DD535F" d="M62.496,31.585c-0.46-0.688-1.147-1.607-1.147-1.607s-0.69-0.919-1.15-1.609
				c-0.229-0.229-0.459-0.459-0.918-0.688c-0.23-0.23-0.461-0.23-0.461-0.23l-13.1,7.584c0,0,0.229,0,0.46,0.229
				c0.229,0.229,0.459,0.229,0.919,0.689c0.46,0.689,1.148,1.609,1.148,1.609s0.689,0.919,1.148,1.608
				c0.461,0.689,0.688,1.378,0.688,1.378l13.101-7.584C63.185,32.965,63.185,32.275,62.496,31.585z"/>
			<g>
				<path fill="#CC3D48" d="M14.92,37.791c0-0.688,0.46-0.919,0.46-0.919c0.23,0.23,4.598,2.068,5.057,2.299
					c0.229,0.229,0.461,0,0.92,0c0.229-1.148,0.689-2.299,1.379-3.218c0-0.459-0.229-0.919-0.229-1.148
					c-0.459-0.689-3.218-5.977-3.447-6.206c0,0,0-0.689,0.46-1.149c0.46-0.229,0.919-0.688,0.919-0.688s0.461-0.459,0.92-0.689
					c0.46-0.23,0.919,0,1.148,0c0.229,0.229,3.906,5.056,4.138,5.515c0.229,0.23,0.46,0.46,0.919,0.919
					c0.919-0.229,2.068-0.229,3.218-0.229c0.229-0.23,0.459-0.459,0.229-0.919c0-0.46-0.229-5.517-0.229-5.977
					c0,0,0.229-0.46,0.919-0.229c0.69,0.229,1.379,0.46,1.609,0.46c0,0,0.919,0.229,1.606,0.46c0.23,0,0.23,0,0.23,0.229
					c0.46,0.229,0.92,0.919,0.92,0.919c0,0.229,1.379,5.516,1.379,6.206c0,0.229,0.229,0.919,0.459,1.148
					c1.379,0.92,2.529,1.838,3.678,2.758c0.23,0,0.688,0,0.92-0.229c0.229-0.23,2.987-2.758,3.218-2.758c0,0,0.229,0,0.46,0.229
					c0.229,0.229,0.459,0.229,0.919,0.689c0.46,0.689,1.379,1.608,1.379,1.608s0.689,0.919,1.38,1.608
					c0.459,0.689,0.689,1.379,0.689,1.379c-0.23,0.229-1.84,3.677-2.069,4.137c-0.229,0.229-0.229,0.689,0,1.149
					c0.919,1.607,1.608,2.987,2.298,4.596c0.23,0.23,0.461,0.46,0.919,0.689c0,0,0.231,0,0.231,0.229
					c0.459,0.229,4.825,1.607,4.825,1.607s0.46,0.459,0.92,1.379c0.229,0.92,0.46,1.838,0.46,2.069c0,0,0.229,1.149,0.46,2.068
					c0.229,0.918,0,1.149-0.23,1.149c-0.229,0-4.137,0-4.598,0c-0.229,0-0.459,0.229-0.688,0.459c0.229,1.608,0.229,2.987,0,4.137
					c0.229,0.459,0.46,0.919,0.688,1.148c0.461,0.461,4.368,5.057,4.598,5.286c0,0,0.23,0.92,0,1.38
					c-0.229,0.459-0.46,1.148-0.46,1.148s-0.229,0.689-0.46,1.148c-0.229,0.461-0.919,0.461-0.919,0.461
					c-0.229-0.23-4.367-3.678-4.827-4.138l-0.229-0.229c-0.229-0.229-0.459-0.229-0.919-0.229c-0.689,0.689-1.609,1.38-2.299,1.839
					c0,0.459-0.229,0.92,0,1.149c0.229,0.688,1.839,6.206,2.068,6.435c0,0-0.229,0.461-0.69,0.689c-0.457,0-1.378,0.23-1.378,0.23
					s-0.688,0-1.379,0.229c-0.229,0-0.461-0.229-0.688-0.229c-0.23-0.23-0.46-0.23-0.46-0.23c-0.229-0.229-2.758-5.746-2.988-6.205
					c-0.229-0.23-0.46-0.689-0.918-1.148c-0.461-0.23-1.379-0.23-1.84-0.461c-0.459-0.229-1.379-0.459-1.838-0.919
					c-0.23,0.23-0.46,0.23-0.689,0.46c-0.229,0.459-1.379,4.596-1.608,4.596c0,0-0.459,0.23-0.92-0.229
					c-0.229,0-0.229-0.229-0.229-0.229C34,75.021,33.31,74.33,33.08,74.33c0,0-0.919-0.688-1.607-1.149
					c-0.689-0.459-0.92-1.148-0.92-1.148c0-0.23,0.229-4.826,0.46-5.516c0-0.23-0.229-0.92-0.229-1.149
					c-1.148-1.149-2.299-2.528-3.219-3.907c-0.458-0.23-0.918-0.459-0.918-0.459c-0.46,0.229-4.138,0.689-4.367,0.689
					c0,0-0.459-0.461-0.919-1.149c-0.459-0.688-0.92-1.839-0.92-2.067c0,0-0.459-1.149-0.919-2.068s-0.229-1.379-0.229-1.379
					c0.229-0.229,3.218-2.068,3.447-2.068c0.23-0.229,0.23-0.459,0.459-0.919c-0.459-1.608-0.919-2.987-1.378-4.597
					c-0.229-0.459-0.46-0.919-0.919-1.149c-0.461-0.459-4.827-3.446-5.057-3.677c0,0-0.461-0.689-0.461-1.609
					c0-0.688,0-1.607,0-1.607C14.92,39.4,14.92,38.48,14.92,37.791z M26.183,48.134c0.92,6.435,5.516,13.56,10.802,16.316
					c0.46,0.23,1.149,0.46,1.839,0.92c5.977,2.298,10.112-1.839,8.964-8.963c-0.92-6.435-5.518-13.56-10.803-16.317
					c-0.459-0.229-1.149-0.459-1.839-0.919C29.17,36.871,25.264,41.009,26.183,48.134"/>
			</g>
		</g>
	</g>
</g>
</svg>
