<?xml version="1.0" encoding="utf-8"?>
<!-- Generator: Adobe Illustrator 16.0.0, SVG Export Plug-In . SVG Version: 6.00 Build 0)  -->
<!DOCTYPE svg PUBLIC "-//W3C//DTD SVG 1.1//EN" "http://www.w3.org/Graphics/SVG/1.1/DTD/svg11.dtd">
<svg version="1.1" id="Camada_1" xmlns="http://www.w3.org/2000/svg" xmlns:xlink="http://www.w3.org/1999/xlink" x="0px" y="0px"
	 width="100px" height="100px" viewBox="913 155 100 100" enable-background="new 913 155 100 100" xml:space="preserve">
<g>
	<rect x="974.401" y="170.676" fill="none" width="27.893" height="52.749"/>
	<g opacity="0.2">
		<g>
			<g>
				<defs>
					<rect id="SVGID_350_" x="962.817" y="204.286" width="40.814" height="30.075"/>
				</defs>
				<clipPath id="SVGID_3_">
					<use xlink:href="#SVGID_350_"  overflow="visible"/>
				</clipPath>
				<polygon clip-path="url(#SVGID_3_)" fill="#1E120D" points="962.817,234.361 1003.633,218.313 977.494,204.285 				"/>
			</g>
		</g>
	</g>
	<polygon fill="#2EA5A8" points="945.93,196.254 917.979,209.964 962.817,232.675 990.574,218.699 	"/>
	<path fill="#2C2C2C" d="M940.979,214.019l-5.471,2.684c-0.462,0.227-0.466,0.883-0.007,1.116l9.627,4.876
		c0.177,0.089,0.386,0.09,0.562,0.001l5.437-2.737c0.457-0.23,0.457-0.884,0-1.114l-9.594-4.822
		C941.359,213.934,941.154,213.933,940.979,214.019"/>
	<polygon fill="#FFFFFF" points="931.273,207.831 928.364,206.39 931.174,204.947 934.107,206.439 	"/>
	<polygon fill="#FFFFFF" points="934.77,209.552 931.861,208.109 934.67,206.668 937.604,208.159 	"/>
	<polygon fill="#FFFFFF" points="938.266,211.271 935.357,209.829 938.167,208.387 941.101,209.879 	"/>
	<polygon fill="#FFFFFF" points="941.763,212.991 938.854,211.549 941.663,210.106 944.598,211.599 	"/>
	<polygon fill="#FFFFFF" points="945.259,214.711 942.351,213.269 945.16,211.827 948.094,213.318 	"/>
	<polygon fill="#FFFFFF" points="948.756,216.431 945.847,214.988 948.656,213.547 951.59,215.039 	"/>
	<polygon fill="#FFFFFF" points="952.252,218.15 949.344,216.709 952.153,215.267 955.087,216.759 	"/>
	<polygon fill="#FFFFFF" points="955.749,219.87 952.84,218.428 955.649,216.986 958.583,218.479 	"/>
	<polygon fill="#FFFFFF" points="959.245,221.59 956.337,220.148 959.146,218.706 962.08,220.198 	"/>
	<polygon fill="#FFFFFF" points="962.742,223.311 959.833,221.868 962.643,220.427 965.576,221.918 	"/>
	<polygon fill="#FFFFFF" points="966.238,225.03 963.33,223.589 966.139,222.146 969.072,223.638 	"/>
	<polygon fill="#FFFFFF" points="969.735,226.75 966.826,225.309 969.636,223.866 972.569,225.357 	"/>
	<polygon fill="#FFFFFF" points="935.25,205.976 932.34,204.533 935.15,203.092 938.084,204.584 	"/>
	<polygon fill="#FFFFFF" points="938.746,207.695 935.837,206.254 938.646,204.812 941.58,206.304 	"/>
	<polygon fill="#FFFFFF" points="942.242,209.416 939.333,207.974 942.143,206.531 945.077,208.023 	"/>
	<polygon fill="#FFFFFF" points="945.739,211.136 942.83,209.693 945.64,208.252 948.573,209.743 	"/>
	<polygon fill="#FFFFFF" points="949.235,212.855 946.326,211.413 949.136,209.972 952.07,211.463 	"/>
	<polygon fill="#FFFFFF" points="952.732,214.575 949.823,213.133 952.633,211.691 955.566,213.183 	"/>
	<polygon fill="#FFFFFF" points="956.229,216.295 953.319,214.853 956.129,213.411 959.063,214.903 	"/>
	<polygon fill="#FFFFFF" points="959.725,218.015 956.816,216.572 959.625,215.131 962.56,216.623 	"/>
	<polygon fill="#FFFFFF" points="963.222,219.734 960.312,218.293 963.122,216.852 966.056,218.343 	"/>
	<polygon fill="#FFFFFF" points="966.718,221.455 963.81,220.013 966.619,218.571 969.553,220.062 	"/>
	<polygon fill="#FFFFFF" points="970.215,223.174 967.306,221.732 970.115,220.291 973.049,221.782 	"/>
	<polygon fill="#FFFFFF" points="973.711,224.895 970.803,223.452 973.611,222.011 976.546,223.502 	"/>
	<polygon fill="#FFFFFF" points="939.226,204.12 936.316,202.679 939.126,201.236 942.06,202.729 	"/>
	<polygon fill="#FFFFFF" points="942.722,205.841 939.813,204.398 942.622,202.956 945.557,204.448 	"/>
	<polygon fill="#FFFFFF" points="946.219,207.56 943.31,206.118 946.119,204.676 949.053,206.168 	"/>
	<polygon fill="#FFFFFF" points="949.715,209.28 946.807,207.838 949.615,206.396 952.549,207.888 	"/>
	<polygon fill="#FFFFFF" points="953.211,211 950.303,209.558 953.112,208.116 956.046,209.607 	"/>
	<polygon fill="#FFFFFF" points="956.708,212.72 953.799,211.277 956.608,209.836 959.542,211.327 	"/>
	<polygon fill="#FFFFFF" points="960.205,214.439 957.296,212.997 960.105,211.556 963.039,213.048 	"/>
	<polygon fill="#FFFFFF" points="963.701,216.159 960.792,214.718 963.602,213.275 966.535,214.767 	"/>
	<polygon fill="#FFFFFF" points="967.197,217.879 964.289,216.438 967.099,214.995 970.032,216.487 	"/>
	<polygon fill="#FFFFFF" points="970.694,219.599 967.785,218.157 970.595,216.716 973.528,218.207 	"/>
	<polygon fill="#FFFFFF" points="974.19,221.319 971.282,219.877 974.092,218.436 977.025,219.927 	"/>
	<polygon fill="#FFFFFF" points="977.688,223.039 974.778,221.597 977.588,220.155 980.521,221.647 	"/>
	<polygon fill="#FFFFFF" points="943.201,202.265 940.293,200.822 943.103,199.381 946.036,200.872 	"/>
	<polygon fill="#FFFFFF" points="946.698,203.984 943.789,202.543 946.599,201.101 949.532,202.593 	"/>
	<polygon fill="#FFFFFF" points="950.195,205.705 947.285,204.263 950.096,202.821 953.029,204.312 	"/>
	<polygon fill="#FFFFFF" points="953.691,207.425 950.782,205.982 953.592,204.54 956.525,206.032 	"/>
	<polygon fill="#FFFFFF" points="957.188,209.145 954.279,207.702 957.088,206.261 960.022,207.752 	"/>
	<polygon fill="#FFFFFF" points="960.685,210.864 957.775,209.422 960.585,207.979 963.519,209.472 	"/>
	<polygon fill="#FFFFFF" points="964.181,212.584 961.271,211.142 964.081,209.7 967.016,211.192 	"/>
	<polygon fill="#FFFFFF" points="967.678,214.304 964.769,212.862 967.578,211.42 970.512,212.912 	"/>
	<polygon fill="#FFFFFF" points="971.174,216.023 968.266,214.582 971.074,213.14 974.009,214.632 	"/>
	<polygon fill="#FFFFFF" points="974.67,217.744 971.762,216.302 974.571,214.859 977.505,216.352 	"/>
	<polygon fill="#FFFFFF" points="978.167,219.464 975.258,218.021 978.067,216.58 981.001,218.071 	"/>
	<polygon fill="#FFFFFF" points="981.663,221.184 978.755,219.741 981.564,218.3 984.498,219.791 	"/>
	<polygon fill="#036D64" points="990.562,218.699 962.845,232.635 962.828,232.625 962.828,234.373 962.845,234.381 
		990.551,220.422 	"/>
	<polygon fill="#06807A" points="918.001,209.964 962.8,232.622 962.817,232.614 962.817,234.361 962.8,234.369 918.012,211.688 	
		"/>
	<polygon fill="#035B54" points="990.58,218.682 990.773,189.76 945.935,167.049 945.935,196.236 	"/>
	<path fill="#B4F7FC" d="M988.053,190.402c0.372,0.217,0.675,0.741,0.674,1.17l-0.094,23.342c-0.001,0.429-0.306,0.603-0.68,0.387
		l-39.776-19.858c-0.374-0.216-0.676-0.741-0.674-1.171l0.092-23.341c0.002-0.429,0.307-0.603,0.681-0.386L988.053,190.402z"/>
	<polygon fill="#036D64" points="947.386,166.484 947.386,167.784 990.773,189.76 990.588,220.349 991.885,219.621 992.225,189.194 
			"/>
	<polygon fill="#069085" points="945.935,167.049 947.386,166.484 992.225,189.194 990.773,189.76 	"/>
	<rect x="924.783" y="170.865" fill="none" width="86.398" height="65.524"/>
</g>
<g>
	<g opacity="0.2">
		<g>
			<g>
				<defs>
					
						<rect id="SVGID_352_" x="972.458" y="193.853" transform="matrix(-1 -0.0084 0.0084 -1 1954.0908 404.6961)" width="10.866" height="8.824"/>
				</defs>
				<clipPath id="SVGID_6_">
					<use xlink:href="#SVGID_352_"  overflow="visible"/>
				</clipPath>
				<polygon clip-path="url(#SVGID_6_)" fill="#1E120D" points="972.445,202.632 977.803,201.7 983.326,198.16 972.495,193.808 				
					"/>
			</g>
		</g>
	</g>
	<polygon fill="#C3B29F" points="963.899,201.005 963.92,196.726 974.068,191.074 974.035,195.113 	"/>
	<polygon fill="#E9EBDB" points="963.9,200.844 958.087,197.268 958.128,192.235 960.799,191.646 963.936,196.722 	"/>
	<polygon fill="#00A0CC" points="971.595,185.64 971.583,185.646 960.656,191.522 960.686,191.622 964.036,196.896 974.388,190.845 
			"/>
	<polygon fill="#5F5C5E" points="966.104,198.185 966.114,196.997 971.223,193.967 971.213,195.152 	"/>
	<polygon fill="#302E31" points="971.116,195.095 971.126,194.025 971.223,193.967 971.213,195.152 966.104,198.185 
		966.104,198.069 	"/>
	<polygon fill="#007999" points="974.388,190.845 974.387,190.942 964.015,196.959 964.009,196.847 	"/>
	<polygon fill="#007999" points="960.718,191.721 960.719,191.567 964.009,196.841 964.015,196.959 	"/>
	<polygon fill="#004F3D" points="957.902,192.165 960.733,191.595 960.718,191.721 957.959,192.328 	"/>
	<polygon fill="#007999" points="966.815,187.165 957.902,192.165 960.733,191.595 971.583,185.646 	"/>
	<polygon fill="#625A60" points="959.711,198.202 959.732,195.646 961.084,196.443 961.063,198.95 	"/>
	<polygon fill="#3B2D38" points="959.711,198.243 959.732,195.688 961.048,196.462 961.026,198.968 	"/>
	<polygon fill="#4C444A" points="959.919,198.362 959.939,195.902 960.949,196.5 960.93,198.825 	"/>
	<g>
		<g>
			<defs>
				<path id="SVGID_354_" d="M960.018,197.141c0,0.039,0.024,0.07,0.055,0.071c0.032,0,0.058-0.031,0.057-0.07
					c0.001-0.038-0.022-0.07-0.055-0.071C960.044,197.07,960.018,197.103,960.018,197.141"/>
			</defs>
			<clipPath id="SVGID_8_">
				<use xlink:href="#SVGID_354_"  overflow="visible"/>
			</clipPath>
			
				<radialGradient id="SVGID_10_" cx="-3779.7588" cy="1620.8438" r="0.1828" gradientTransform="matrix(-0.3507 -0.0029 -0.0029 0.3507 -360.7182 -382.2844)" gradientUnits="userSpaceOnUse">
				<stop  offset="0" style="stop-color:#FFFFFF"/>
				<stop  offset="1" style="stop-color:#9F9DA3"/>
			</radialGradient>
			<rect x="960.018" y="197.071" clip-path="url(#SVGID_8_)" fill="url(#SVGID_10_)" width="0.112" height="0.141"/>
		</g>
	</g>
	<polygon fill="#DADACD" points="963.902,200.779 963.899,201.019 957.844,197.433 957.846,197.229 	"/>
	<polygon fill="#82776B" points="963.902,200.779 963.899,201.019 974.194,195.034 974.195,194.825 	"/>
	<polygon fill="#9C8E7F" points="974.037,194.833 974.039,194.712 974.194,194.825 963.9,200.78 963.901,200.686 	"/>
	<polygon fill="#B9BAAE" points="958.076,197.158 958.076,197.254 963.902,200.686 963.902,200.779 957.846,197.229 	"/>
	<polygon fill="#BEC6C1" points="958.982,198.27 960.719,199.291 960.715,199.854 958.977,198.833 	"/>
	<polygon fill="#909793" points="961.284,198.977 960.719,199.291 960.715,199.854 961.278,199.541 	"/>
	<polygon fill="#DDDDC9" points="958.982,198.27 960.719,199.291 961.284,198.977 959.508,197.966 	"/>
	<g>
		<g>
			<g>
				<defs>
					
						<rect id="SVGID_357_" x="965.803" y="191.326" transform="matrix(-1 -0.0095 0.0095 -1 1930.4674 392.8801)" width="0.722" height="1.086"/>
				</defs>
				<clipPath id="SVGID_12_">
					<use xlink:href="#SVGID_357_"  overflow="visible"/>
				</clipPath>
				<polyline clip-path="url(#SVGID_12_)" fill="#CCCCCC" points="966.034,192.411 966.529,191.329 965.807,191.402 				"/>
			</g>
		</g>
	</g>
	<polygon fill="#E9EBDB" points="966.034,192.411 966.045,191.062 964.945,191.288 964.932,193.021 	"/>
	<polygon fill="#C3B29F" points="964.932,193.021 964,191.822 964.006,191.103 964.945,191.288 	"/>
	<polygon fill="#F1F1F1" points="964.006,191.102 965.107,190.476 966.045,191.062 964.942,191.654 	"/>
	<polygon fill="#4C4C4C" points="965.646,191.049 965.08,190.723 964.424,191.104 964.958,191.429 	"/>
	<polygon fill="#303030" points="965.079,190.723 965.073,191.366 965.646,191.049 	"/>
	<polygon fill="#5F5C5E" points="971.518,194.978 971.527,193.79 972.422,193.286 972.412,194.471 	"/>
	<polygon fill="#302E31" points="972.316,194.414 972.324,193.346 972.422,193.286 972.412,194.471 971.518,194.979 
		971.519,194.861 	"/>
	<polygon fill="#C3B29F" points="972.865,202.861 972.913,198.58 966.947,195.289 966.914,199.328 	"/>
	<polygon fill="#E9EBDB" points="972.867,202.7 978.738,199.22 978.78,194.188 976.122,193.556 972.901,198.577 	"/>
	<polygon fill="#00A0CC" points="969.762,189.891 969.774,189.895 976.266,193.434 976.235,193.532 972.795,198.749 966.63,195.055 
			"/>
	<polygon fill="#5F5C5E" points="970.707,200.003 970.717,198.816 969.744,198.229 969.734,199.415 	"/>
	<polygon fill="#302E31" points="969.831,199.358 969.84,198.29 969.744,198.229 969.734,199.415 970.707,200.003 970.708,199.889 	
		"/>
	<polygon fill="#007999" points="966.885,195.192 966.885,195.289 972.815,198.813 972.825,198.701 	"/>
	<polygon fill="#007999" points="976.2,193.63 976.201,193.476 972.824,198.695 972.815,198.813 	"/>
	<polygon fill="#004F3D" points="979.008,194.123 976.188,193.505 976.2,193.63 978.948,194.284 	"/>
	<polygon fill="#007999" points="974.515,191.494 979.008,194.123 976.188,193.505 969.774,189.895 	"/>
	<polygon fill="#625A60" points="977.098,200.127 977.119,197.571 975.756,198.347 975.734,200.853 	"/>
	<polygon fill="#3B2D38" points="977.098,200.168 977.119,197.614 975.791,198.364 975.771,200.871 	"/>
	<polygon fill="#4C444A" points="976.89,200.284 976.91,197.825 975.89,198.405 975.87,200.73 	"/>
	<g>
		<g>
			<defs>
				<path id="SVGID_359_" d="M976.697,199.061c0,0.039,0.025,0.07,0.057,0.071c0.03-0.001,0.057-0.031,0.057-0.07
					c0.001-0.038-0.025-0.07-0.056-0.07C976.724,198.99,976.698,199.021,976.697,199.061"/>
			</defs>
			<clipPath id="SVGID_14_">
				<use xlink:href="#SVGID_359_"  overflow="visible"/>
			</clipPath>
			
				<radialGradient id="SVGID_16_" cx="1694.792" cy="1595.9512" r="0.1831" gradientTransform="matrix(0.3511 0.0029 -0.0029 0.3511 386.3885 -366.2039)" gradientUnits="userSpaceOnUse">
				<stop  offset="0" style="stop-color:#FFFFFF"/>
				<stop  offset="1" style="stop-color:#9F9DA3"/>
			</radialGradient>
			<rect x="976.698" y="198.991" clip-path="url(#SVGID_14_)" fill="url(#SVGID_16_)" width="0.113" height="0.14"/>
		</g>
	</g>
	<polygon fill="#DADACD" points="972.867,202.636 972.864,202.875 978.979,199.389 978.98,199.186 	"/>
	<polygon fill="#82776B" points="972.867,202.636 972.864,202.875 966.756,199.247 966.758,199.039 	"/>
	<polygon fill="#9C8E7F" points="966.916,199.047 966.917,198.942 966.758,199.039 972.867,202.636 972.868,202.541 	"/>
	<polygon fill="#B9BAAE" points="978.749,199.111 978.748,199.207 972.868,202.541 972.867,202.636 978.98,199.186 	"/>
	<g>
		<g>
			<g>
				<defs>
					
						<rect id="SVGID_362_" x="970.392" y="193.145" transform="matrix(-1 -0.0095 0.0095 -1 1939.624 396.5746)" width="0.721" height="1.086"/>
				</defs>
				<clipPath id="SVGID_18_">
					<use xlink:href="#SVGID_362_"  overflow="visible"/>
				</clipPath>
				<polyline clip-path="url(#SVGID_18_)" fill="#CCCCCC" points="970.874,194.232 970.396,193.142 971.117,193.229 				"/>
			</g>
		</g>
	</g>
	<polygon fill="#E9EBDB" points="970.874,194.232 970.886,192.883 971.979,193.127 971.965,194.859 	"/>
	<polygon fill="#C3B29F" points="971.965,194.859 972.916,193.679 972.922,192.958 971.979,193.127 	"/>
	<polygon fill="#F1F1F1" points="972.922,192.958 971.833,192.312 970.887,192.883 971.977,193.493 	"/>
	<polygon fill="#4C4C4C" points="971.283,192.878 971.855,192.562 972.505,192.952 971.967,193.27 	"/>
	<polygon fill="#303030" points="971.855,192.562 971.851,193.203 971.283,192.878 	"/>
	<polygon fill="#5F5C5E" points="969.433,199.234 969.442,198.048 968.555,197.527 968.546,198.713 	"/>
	<polygon fill="#302E31" points="968.643,198.658 968.651,197.59 968.555,197.527 968.546,198.713 969.433,199.234 969.433,199.119 
			"/>
</g>
<g>
	<g opacity="0.2">
		<g>
			<g>
				<defs>
					<rect id="SVGID_364_" x="984.475" y="228.995" width="16.762" height="13.829"/>
				</defs>
				<clipPath id="SVGID_20_">
					<use xlink:href="#SVGID_364_"  overflow="visible"/>
				</clipPath>
				<polygon clip-path="url(#SVGID_20_)" fill="#1E120D" points="988.332,242.824 1001.236,237.966 984.475,228.995 				"/>
			</g>
		</g>
	</g>
	<path fill="#445060" d="M983.142,237.228c0.293,0.17,0.56,0.186,0.751,0.075l-1.905,1.103c-0.192,0.111-0.458,0.095-0.751-0.075
		C981.808,238,982.569,237.559,983.142,237.228"/>
	<path fill="#445060" d="M982.094,235.406c-0.003,0.668,0.467,1.485,1.047,1.82l-1.905,1.104c-0.58-0.336-1.05-1.153-1.047-1.821
		C980.824,236.142,981.458,235.773,982.094,235.406c-0.636,0.367-1.27,0.735-1.905,1.104c0.001-0.333,0.119-0.567,0.31-0.677
		l1.904-1.104C982.213,234.84,982.095,235.073,982.094,235.406"/>
	<path fill="#394450" d="M980.498,235.833l1.904-1.103c0.192-0.111,0.457-0.096,0.749,0.073l-1.904,1.104
		C980.954,235.738,980.689,235.723,980.498,235.833"/>
	<path fill="#394450" d="M983.893,237.302l-1.905,1.104c0.188-0.109,0.307-0.343,0.308-0.675c0.004-0.669-0.467-1.486-1.049-1.823
		l1.905-1.104c0.583,0.337,1.053,1.154,1.049,1.824C984.199,236.959,984.082,237.192,983.893,237.302"/>
	<polygon fill="#445060" points="975.15,231.752 977.057,230.648 989.255,237.716 987.35,238.819 	"/>
	<path fill="#EBEAEA" d="M981.125,230.804c-0.636,0.368-1.271,0.736-1.906,1.104c-0.058-0.091-0.113-0.184-0.167-0.276
		c0.635-0.368,1.271-0.736,1.905-1.104C981.011,230.62,981.066,230.713,981.125,230.804"/>
	<path fill="#EBEAEA" d="M981.125,230.804c0.242,0.385,0.521,0.746,0.822,1.068c-0.636,0.367-1.271,0.735-1.906,1.103
		c-0.301-0.321-0.578-0.683-0.822-1.067C979.854,231.54,980.489,231.172,981.125,230.804"/>
	<path fill="#EBEAEA" d="M981.947,231.871c0.372,0.398,0.782,0.737,1.213,0.987l-1.905,1.103c-0.431-0.25-0.841-0.588-1.214-0.986
		C980.676,232.607,981.312,232.239,981.947,231.871"/>
	<path fill="#EBEAEA" d="M980.054,227.457c-0.004,0.992,0.342,2.093,0.904,3.069c-0.635,0.368-1.271,0.736-1.905,1.104
		c-0.562-0.978-0.908-2.078-0.904-3.07c0.004-0.985,0.354-1.678,0.914-2.002l1.906-1.104
		C980.406,225.78,980.058,226.472,980.054,227.457"/>
	<path fill="#EBEAEA" d="M983.16,232.857c0.869,0.503,1.656,0.552,2.226,0.222l-1.905,1.104c-0.569,0.329-1.357,0.281-2.226-0.222
		C981.827,233.63,982.589,233.188,983.16,232.857"/>
	<polygon fill="#445060" points="975.263,205.981 977.168,204.877 977.057,230.648 975.15,231.752 	"/>
	<polygon fill="#EBEAEA" points="976.326,220.842 978.232,219.738 978.229,220.547 976.322,221.65 	"/>
	<polygon fill="#EBEAEA" points="976.335,218.898 978.24,217.795 978.237,218.602 976.331,219.704 	"/>
	<path fill="#E64B50" d="M979.062,226.559l1.906-1.104c0.568-0.33,1.355-0.282,2.223,0.221l-1.905,1.104
		C980.419,226.276,979.632,226.229,979.062,226.559"/>
	<polygon fill="#EBEAEA" points="976.344,216.952 978.249,215.849 978.245,216.657 976.34,217.76 	"/>
	<path fill="#E64B50" d="M985.386,233.079l-1.906,1.104c0.562-0.325,0.911-1.018,0.915-2.002c0.009-1.984-1.384-4.402-3.108-5.401
		l1.905-1.104c1.726,0.999,3.117,3.417,3.108,5.4C986.296,232.062,985.947,232.754,985.386,233.079"/>
	<polygon fill="#EBEAEA" points="976.352,215.008 978.257,213.904 978.254,214.711 976.348,215.814 	"/>
	<polygon fill="#EBEAEA" points="976.36,213.062 978.266,211.958 978.263,212.767 976.356,213.87 	"/>
	<polygon fill="#EBEAEA" points="976.322,221.65 978.229,220.547 988.416,226.449 986.51,227.553 	"/>
	<polygon fill="#698196" points="986.514,226.744 988.419,225.641 988.416,226.45 986.51,227.553 	"/>
	<polygon fill="#698196" points="986.514,226.744 986.51,227.553 976.322,221.65 976.326,220.842 	"/>
	<polygon fill="#698196" points="976.326,220.842 978.232,219.739 988.419,225.641 986.514,226.744 	"/>
	<polygon fill="#EBEAEA" points="976.331,219.704 978.237,218.602 988.424,224.503 986.519,225.606 	"/>
	<polygon fill="#698196" points="976.335,218.898 978.24,217.794 988.428,223.696 986.522,224.8 	"/>
	<polygon fill="#EBEAEA" points="976.34,217.76 978.245,216.657 988.433,222.559 986.527,223.662 	"/>
	<polygon fill="#698196" points="976.344,216.952 978.249,215.849 988.436,221.75 986.531,222.854 	"/>
	<polygon fill="#EBEAEA" points="976.348,215.814 978.254,214.711 988.441,220.612 986.535,221.717 	"/>
	<polygon fill="#698196" points="976.352,215.008 978.257,213.904 988.444,219.807 986.539,220.91 	"/>
	<polygon fill="#EBEAEA" points="976.356,213.87 978.263,212.767 988.449,218.669 986.544,219.772 	"/>
	<polygon fill="#698196" points="976.36,213.062 978.266,211.958 988.453,217.86 986.548,218.964 	"/>
	<polygon fill="#EBEAEA" points="976.364,212.161 978.27,211.059 982.051,213.248 980.145,214.353 	"/>
	<polygon fill="#EBEAEA" points="976.383,207.813 978.289,206.71 978.27,211.059 976.364,212.161 	"/>
	<polygon fill="#698196" points="986.522,224.8 988.428,223.696 988.424,224.503 986.519,225.606 	"/>
	<polygon fill="#698196" points="986.522,224.8 986.519,225.606 976.331,219.704 976.334,218.897 	"/>
	<polygon fill="#698196" points="986.531,222.854 986.527,223.662 976.34,217.76 976.344,216.952 	"/>
	<polygon fill="#698196" points="986.531,222.854 988.437,221.751 988.433,222.559 986.527,223.662 	"/>
	<polygon fill="#698196" points="980.163,210.004 982.069,208.901 982.051,213.249 980.145,214.352 	"/>
	<polygon fill="#698196" points="986.539,220.909 988.444,219.807 988.441,220.613 986.535,221.717 	"/>
	<polygon fill="#698196" points="986.548,218.964 988.453,217.86 988.449,218.669 986.544,219.772 	"/>
	<path fill="#FAFAFA" d="M975.263,205.98l12.198,7.067l-0.111,25.771l-12.199-7.067L975.263,205.98z M981.255,233.961
		c1.725,1,3.131,0.203,3.14-1.78c0.009-1.984-1.384-4.402-3.108-5.401c-1.724-0.999-3.13-0.202-3.138,1.782
		C978.14,230.545,979.531,232.964,981.255,233.961 M976.383,207.813l-0.019,4.349l3.78,2.19l0.02-4.349L976.383,207.813
		 M986.544,219.772l0.004-0.809l-10.188-5.902l-0.004,0.809L986.544,219.772 M986.526,223.662l0.005-0.808l-10.188-5.902
		l-0.004,0.809L986.526,223.662 M986.51,227.553l0.004-0.809l-10.187-5.902l-0.004,0.809L986.51,227.553 M986.519,225.606
		l0.004-0.807l-10.188-5.901l-0.003,0.806L986.519,225.606 M986.535,221.717l0.004-0.808l-10.187-5.901l-0.005,0.807
		L986.535,221.717"/>
	<path fill="#FD525F" d="M981.286,226.779c1.726,0.999,3.117,3.417,3.108,5.401c-0.008,1.984-1.415,2.78-3.14,1.78
		c-1.724-0.998-3.115-3.416-3.106-5.4C978.156,226.577,979.562,225.78,981.286,226.779"/>
	<polygon fill="#EBEAEA" points="987.461,213.048 989.367,211.945 989.255,237.716 987.35,238.819 	"/>
	<polygon fill="#EBEAEA" points="975.263,205.981 977.168,204.877 989.367,211.945 987.461,213.048 	"/>
	<path fill="#2D3C51" d="M987.433,210.927c0.803,0.466,1.456,1.602,1.452,2.525l-0.123,28.438c-0.005,0.924-0.664,1.299-1.467,0.833
		l-12.123-7.023c-0.803-0.465-1.456-1.601-1.452-2.523l0.124-28.438c0.004-0.924,0.663-1.298,1.466-0.833L987.433,210.927z
		 M987.35,238.819l0.112-25.771l-12.199-7.066l-0.112,25.771L987.35,238.819 M981.236,238.331c0.582,0.337,1.057,0.067,1.059-0.6
		c0.004-0.67-0.467-1.487-1.048-1.824c-0.581-0.336-1.056-0.067-1.059,0.603C980.186,237.179,980.655,237.995,981.236,238.331"/>
	<path fill="#394450" d="M981.246,235.907c0.582,0.337,1.053,1.154,1.049,1.824c-0.002,0.667-0.477,0.937-1.059,0.6
		c-0.581-0.336-1.051-1.152-1.048-1.821C980.191,235.84,980.665,235.57,981.246,235.907"/>
	<polygon fill="#698196" points="980.163,210.004 980.145,214.352 976.364,212.162 976.383,207.813 	"/>
	<polygon fill="#698196" points="986.539,220.909 986.535,221.717 976.348,215.814 976.352,215.008 	"/>
	<polygon fill="#698196" points="986.548,218.964 986.544,219.772 976.356,213.87 976.36,213.062 	"/>
	<path fill="#445060" d="M989.338,209.824l-12.122-7.023c-0.404-0.235-0.772-0.256-1.038-0.102l-1.906,1.103
		c0.267-0.154,0.635-0.133,1.038,0.102l12.123,7.023c0.803,0.465,1.456,1.601,1.452,2.524l-0.123,28.438
		c-0.003,0.459-0.167,0.782-0.43,0.935l1.906-1.104c0.263-0.152,0.426-0.476,0.429-0.935l0.123-28.438
		C990.794,211.425,990.141,210.289,989.338,209.824"/>
	<path fill="#445060" d="M983.142,237.228c0.293,0.17,0.56,0.186,0.751,0.075l-1.905,1.103c-0.192,0.111-0.458,0.095-0.751-0.075
		C981.808,238,982.569,237.559,983.142,237.228"/>
	<path fill="#445060" d="M982.094,235.406c-0.003,0.668,0.467,1.485,1.047,1.82l-1.905,1.104c-0.58-0.336-1.05-1.153-1.047-1.821
		C980.824,236.142,981.458,235.773,982.094,235.406c-0.636,0.367-1.27,0.735-1.905,1.104c0.001-0.333,0.119-0.567,0.31-0.677
		l1.904-1.104C982.213,234.84,982.095,235.073,982.094,235.406"/>
	<path fill="#394450" d="M980.498,235.833l1.904-1.103c0.192-0.111,0.457-0.096,0.749,0.073l-1.904,1.104
		C980.954,235.738,980.689,235.723,980.498,235.833"/>
	<path fill="#394450" d="M983.893,237.302l-1.905,1.104c0.188-0.109,0.307-0.343,0.308-0.675c0.004-0.669-0.467-1.486-1.049-1.823
		l1.905-1.104c0.583,0.337,1.053,1.154,1.049,1.824C984.199,236.959,984.082,237.192,983.893,237.302"/>
	<polygon fill="#445060" points="975.15,231.752 977.057,230.648 989.255,237.716 987.35,238.819 	"/>
	<path fill="#EBEAEA" d="M981.125,230.804c-0.636,0.368-1.271,0.736-1.906,1.104c-0.058-0.091-0.113-0.184-0.167-0.276
		c0.635-0.368,1.271-0.736,1.905-1.104C981.011,230.62,981.066,230.713,981.125,230.804"/>
	<path fill="#EBEAEA" d="M981.125,230.804c0.242,0.385,0.521,0.746,0.822,1.068c-0.636,0.367-1.271,0.735-1.906,1.103
		c-0.301-0.321-0.578-0.683-0.822-1.067C979.854,231.54,980.489,231.172,981.125,230.804"/>
	<path fill="#EBEAEA" d="M981.947,231.871c0.372,0.398,0.782,0.737,1.213,0.987l-1.905,1.103c-0.431-0.25-0.841-0.588-1.214-0.986
		C980.676,232.607,981.312,232.239,981.947,231.871"/>
	<path fill="#EBEAEA" d="M980.054,227.457c-0.004,0.992,0.342,2.093,0.904,3.069c-0.635,0.368-1.271,0.736-1.905,1.104
		c-0.562-0.978-0.908-2.078-0.904-3.07c0.004-0.985,0.354-1.678,0.914-2.002l1.906-1.104
		C980.406,225.78,980.058,226.472,980.054,227.457"/>
	<path fill="#EBEAEA" d="M983.16,232.857c0.869,0.503,1.656,0.552,2.226,0.222l-1.905,1.104c-0.569,0.329-1.357,0.281-2.226-0.222
		C981.827,233.63,982.589,233.188,983.16,232.857"/>
	<polygon fill="#445060" points="975.263,205.981 977.168,204.877 977.057,230.648 975.15,231.752 	"/>
	<polygon fill="#EBEAEA" points="976.326,220.842 978.232,219.738 978.229,220.547 976.322,221.65 	"/>
	<polygon fill="#EBEAEA" points="976.335,218.898 978.24,217.795 978.237,218.602 976.331,219.704 	"/>
	<path fill="#E64B50" d="M979.062,226.559l1.906-1.104c0.568-0.33,1.355-0.282,2.223,0.221l-1.905,1.104
		C980.419,226.276,979.632,226.229,979.062,226.559"/>
	<polygon fill="#EBEAEA" points="976.344,216.952 978.249,215.849 978.245,216.657 976.34,217.76 	"/>
	<path fill="#E64B50" d="M985.386,233.079l-1.906,1.104c0.562-0.325,0.911-1.018,0.915-2.002c0.009-1.984-1.384-4.402-3.108-5.401
		l1.905-1.104c1.726,0.999,3.117,3.417,3.108,5.4C986.296,232.062,985.947,232.754,985.386,233.079"/>
	<polygon fill="#EBEAEA" points="976.352,215.008 978.257,213.904 978.254,214.711 976.348,215.814 	"/>
	<polygon fill="#EBEAEA" points="976.36,213.062 978.266,211.958 978.263,212.767 976.356,213.87 	"/>
	<polygon fill="#EBEAEA" points="976.322,221.65 978.229,220.547 988.416,226.449 986.51,227.553 	"/>
	<polygon fill="#698196" points="986.514,226.744 988.419,225.641 988.416,226.45 986.51,227.553 	"/>
	<polygon fill="#698196" points="986.514,226.744 986.51,227.553 976.322,221.65 976.326,220.842 	"/>
	<polygon fill="#698196" points="976.326,220.842 978.232,219.739 988.419,225.641 986.514,226.744 	"/>
	<polygon fill="#EBEAEA" points="976.331,219.704 978.237,218.602 988.424,224.503 986.519,225.606 	"/>
	<polygon fill="#698196" points="976.335,218.898 978.24,217.794 988.428,223.696 986.522,224.8 	"/>
	<polygon fill="#EBEAEA" points="976.34,217.76 978.245,216.657 988.433,222.559 986.527,223.662 	"/>
	<polygon fill="#698196" points="976.344,216.952 978.249,215.849 988.436,221.75 986.531,222.854 	"/>
	<polygon fill="#EBEAEA" points="976.348,215.814 978.254,214.711 988.441,220.612 986.535,221.717 	"/>
	<polygon fill="#698196" points="976.352,215.008 978.257,213.904 988.444,219.807 986.539,220.91 	"/>
	<polygon fill="#EBEAEA" points="976.356,213.87 978.263,212.767 988.449,218.669 986.544,219.772 	"/>
	<polygon fill="#698196" points="976.36,213.062 978.266,211.958 988.453,217.86 986.548,218.964 	"/>
	<polygon fill="#EBEAEA" points="976.364,212.161 978.27,211.059 982.051,213.248 980.145,214.353 	"/>
	<polygon fill="#EBEAEA" points="976.383,207.813 978.289,206.71 978.27,211.059 976.364,212.161 	"/>
	<polygon fill="#698196" points="986.522,224.8 988.428,223.696 988.424,224.503 986.519,225.606 	"/>
	<polygon fill="#698196" points="986.522,224.8 986.519,225.606 976.331,219.704 976.334,218.897 	"/>
	<polygon fill="#698196" points="986.531,222.854 986.527,223.662 976.34,217.76 976.344,216.952 	"/>
	<polygon fill="#698196" points="986.531,222.854 988.437,221.751 988.433,222.559 986.527,223.662 	"/>
	<polygon fill="#698196" points="980.163,210.004 982.069,208.901 982.051,213.249 980.145,214.352 	"/>
	<polygon fill="#698196" points="986.539,220.909 988.444,219.807 988.441,220.613 986.535,221.717 	"/>
	<polygon fill="#698196" points="986.548,218.964 988.453,217.86 988.449,218.669 986.544,219.772 	"/>
	<path fill="#FAFAFA" d="M975.263,205.98l12.198,7.067l-0.111,25.771l-12.199-7.067L975.263,205.98z M976.383,207.813l-0.019,4.349
		l3.78,2.19l0.02-4.349L976.383,207.813 M986.544,219.772l0.004-0.809l-10.188-5.902l-0.004,0.809L986.544,219.772 M986.526,223.662
		l0.005-0.808l-10.188-5.902l-0.004,0.809L986.526,223.662 M986.535,221.717l0.004-0.808l-10.187-5.901l-0.005,0.807
		L986.535,221.717"/>
	<polygon fill="#EBEAEA" points="987.461,213.048 989.367,211.945 989.255,237.716 987.35,238.819 	"/>
	<polygon fill="#EBEAEA" points="975.263,205.981 977.168,204.877 989.367,211.945 987.461,213.048 	"/>
	<path fill="#2D3C51" d="M987.433,210.927c0.803,0.466,1.456,1.602,1.452,2.525l-0.123,28.438c-0.005,0.924-0.664,1.299-1.467,0.833
		l-12.123-7.023c-0.803-0.465-1.456-1.601-1.452-2.523l0.124-28.438c0.004-0.924,0.663-1.298,1.466-0.833L987.433,210.927z
		 M987.35,238.819l0.112-25.771l-12.199-7.066l-0.112,25.771L987.35,238.819 M981.236,238.331c0.582,0.337,1.057,0.067,1.059-0.6
		c0.004-0.67-0.467-1.487-1.048-1.824c-0.581-0.336-1.056-0.067-1.059,0.603C980.186,237.179,980.655,237.995,981.236,238.331"/>
	<path fill="#394450" d="M981.246,235.907c0.582,0.337,1.053,1.154,1.049,1.824c-0.002,0.667-0.477,0.937-1.059,0.6
		c-0.581-0.336-1.051-1.152-1.048-1.821C980.191,235.84,980.665,235.57,981.246,235.907"/>
	<polygon fill="#698196" points="980.163,210.004 980.145,214.352 976.364,212.162 976.383,207.813 	"/>
	<polygon fill="#698196" points="986.539,220.909 986.535,221.717 976.348,215.814 976.352,215.008 	"/>
	<polygon fill="#698196" points="986.548,218.964 986.544,219.772 976.356,213.87 976.36,213.062 	"/>
	<path fill="#445060" d="M989.338,209.824l-12.122-7.023c-0.404-0.235-0.772-0.256-1.038-0.102l-1.906,1.103
		c0.267-0.154,0.635-0.133,1.038,0.102l12.123,7.023c0.803,0.465,1.456,1.601,1.452,2.524l-0.123,28.438
		c-0.003,0.459-0.167,0.782-0.43,0.935l1.906-1.104c0.263-0.152,0.426-0.476,0.429-0.935l0.123-28.438
		C990.794,211.425,990.141,210.289,989.338,209.824"/>
	<polygon fill="#2D3C51" points="988.856,213.26 988.812,242.057 988.344,241.587 988.386,213.888 	"/>
	<g>
		<g opacity="0.2">
			<g>
				<g>
					<defs>
						
							<rect id="SVGID_366_" x="982.669" y="228.536" transform="matrix(-0.9995 -0.0324 0.0324 -0.9995 1960.9261 491.7359)" width="3.557" height="2.887"/>
					</defs>
					<clipPath id="SVGID_22_">
						<use xlink:href="#SVGID_366_"  overflow="visible"/>
					</clipPath>
					<polygon clip-path="url(#SVGID_22_)" fill="#1E120D" points="982.631,231.366 984.391,231.104 986.227,229.988 
						982.717,228.479 					"/>
				</g>
			</g>
		</g>
		<polygon fill="#C3B29F" points="979.847,230.767 979.888,229.366 983.253,227.597 983.21,228.918 		"/>
		<polygon fill="#E9EBDB" points="979.849,230.714 977.975,229.497 978.027,227.852 978.906,227.68 979.893,229.365 		"/>
		<polygon fill="#00A0CC" points="982.486,225.799 982.482,225.801 978.86,227.638 978.869,227.671 979.924,229.423 
			983.359,227.524 		"/>
		<polygon fill="#5F5C5E" points="980.591,229.861 980.604,229.473 982.299,228.521 982.286,228.909 		"/>
		<polygon fill="#302E31" points="982.255,228.89 982.267,228.54 982.299,228.521 982.286,228.909 980.591,229.861 980.592,229.823 
					"/>
		<polygon fill="#007999" points="983.359,227.524 983.357,227.557 979.917,229.443 979.915,229.407 		"/>
		<polygon fill="#007999" points="978.879,227.703 978.881,227.653 979.916,229.405 979.917,229.443 		"/>
		<polygon fill="#004F3D" points="977.954,227.827 978.885,227.662 978.879,227.703 977.972,227.881 		"/>
		<polygon fill="#007999" points="980.91,226.261 977.954,227.827 978.885,227.662 982.482,225.801 		"/>
		<polygon fill="#625A60" points="978.499,229.816 978.525,228.98 978.962,229.251 978.936,230.072 		"/>
		<polygon fill="#3B2D38" points="978.498,229.83 978.525,228.994 978.949,229.257 978.923,230.077 		"/>
		<polygon fill="#4C444A" points="978.565,229.87 978.592,229.065 978.917,229.269 978.893,230.029 		"/>
		<g>
			<g>
				<defs>
					<path id="SVGID_368_" d="M978.607,229.472c-0.001,0.013,0.008,0.023,0.018,0.023s0.019-0.01,0.019-0.022
						c0.001-0.013-0.007-0.023-0.018-0.023C978.616,229.448,978.607,229.459,978.607,229.472"/>
				</defs>
				<clipPath id="SVGID_24_">
					<use xlink:href="#SVGID_368_"  overflow="visible"/>
				</clipPath>
				
					<radialGradient id="SVGID_26_" cx="-3807.7522" cy="1742.0918" r="0.06" gradientTransform="matrix(-0.3505 -0.0114 -0.0114 0.3505 -336.271 -424.3952)" gradientUnits="userSpaceOnUse">
					<stop  offset="0" style="stop-color:#FFFFFF"/>
					<stop  offset="1" style="stop-color:#9F9DA3"/>
				</radialGradient>
				<rect x="978.608" y="229.449" clip-path="url(#SVGID_24_)" fill="url(#SVGID_26_)" width="0.036" height="0.046"/>
			</g>
		</g>
		<polygon fill="#DADACD" points="979.85,230.692 979.847,230.771 977.894,229.55 977.896,229.483 		"/>
		<polygon fill="#82776B" points="979.85,230.692 979.847,230.771 983.263,228.894 983.265,228.825 		"/>
		<polygon fill="#9C8E7F" points="983.213,228.826 983.215,228.787 983.265,228.825 979.85,230.692 979.851,230.662 		"/>
		<polygon fill="#B9BAAE" points="977.972,229.462 977.971,229.493 979.851,230.662 979.85,230.692 977.896,229.483 		"/>
		<polygon fill="#BEC6C1" points="978.26,229.832 978.82,230.181 978.814,230.364 978.254,230.017 		"/>
		<polygon fill="#909793" points="979.008,230.082 978.82,230.181 978.814,230.364 979.001,230.267 		"/>
		<polygon fill="#DDDDC9" points="978.26,229.832 978.82,230.181 979.008,230.082 978.434,229.737 		"/>
		<g>
			<g>
				<g>
					<defs>
						
							<rect id="SVGID_371_" x="980.542" y="227.617" transform="matrix(-0.9995 -0.033 0.033 -0.9995 1953.2585 487.8664)" width="0.236" height="0.356"/>
					</defs>
					<clipPath id="SVGID_28_">
						<use xlink:href="#SVGID_371_"  overflow="visible"/>
					</clipPath>
					<polyline clip-path="url(#SVGID_28_)" fill="#CCCCCC" points="980.613,227.972 980.784,227.621 980.547,227.64 					"/>
				</g>
			</g>
		</g>
		<polygon fill="#E9EBDB" points="980.613,227.972 980.627,227.53 980.266,227.595 980.248,228.162 		"/>
		<polygon fill="#C3B29F" points="980.248,228.162 979.952,227.763 979.96,227.527 980.266,227.595 		"/>
		<polygon fill="#F1F1F1" points="979.96,227.526 980.325,227.331 980.627,227.53 980.262,227.715 		"/>
		<polygon fill="#4C4C4C" points="980.497,227.522 980.314,227.411 980.097,227.53 980.269,227.642 		"/>
		<polygon fill="#303030" points="980.314,227.411 980.308,227.621 980.497,227.522 		"/>
		<polygon fill="#5F5C5E" points="982.388,228.854 982.399,228.466 982.696,228.308 982.685,228.695 		"/>
		<polygon fill="#302E31" points="982.653,228.676 982.664,228.326 982.696,228.308 982.685,228.695 982.388,228.854 
			982.389,228.816 		"/>
		<polygon fill="#C3B29F" points="982.767,231.444 982.816,230.044 980.89,228.92 980.847,230.241 		"/>
		<polygon fill="#E9EBDB" points="982.768,231.392 984.717,230.299 984.77,228.653 983.905,228.425 982.812,230.043 		"/>
		<polygon fill="#00A0CC" points="981.854,227.176 981.857,227.177 983.953,228.387 983.942,228.418 982.775,230.098 
			980.787,228.841 		"/>
		<polygon fill="#5F5C5E" points="982.083,230.492 982.095,230.104 981.781,229.904 981.77,230.292 		"/>
		<polygon fill="#302E31" points="981.801,230.274 981.812,229.925 981.781,229.904 981.77,230.292 982.083,230.492 
			982.084,230.454 		"/>
		<polygon fill="#007999" points="980.87,228.888 980.869,228.919 982.782,230.119 982.786,230.083 		"/>
		<polygon fill="#007999" points="983.931,228.45 983.932,228.399 982.785,230.081 982.782,230.119 		"/>
		<polygon fill="#004F3D" points="984.845,228.634 983.928,228.409 983.931,228.45 984.824,228.686 		"/>
		<polygon fill="#007999" points="983.396,227.738 984.845,228.634 983.928,228.409 981.857,227.177 		"/>
		<polygon fill="#625A60" points="984.173,230.583 984.2,229.747 983.748,229.989 983.721,230.81 		"/>
		<polygon fill="#3B2D38" points="984.172,230.597 984.199,229.761 983.759,229.996 983.732,230.816 		"/>
		<polygon fill="#4C444A" points="984.104,230.633 984.129,229.828 983.791,230.01 983.767,230.771 		"/>
		<g>
			<g>
				<defs>
					<path id="SVGID_373_" d="M984.05,230.23c0,0.014,0.008,0.023,0.019,0.024c0.01,0,0.019-0.01,0.019-0.022
						c0.001-0.013-0.008-0.023-0.018-0.023C984.06,230.208,984.051,230.219,984.05,230.23"/>
				</defs>
				<clipPath id="SVGID_30_">
					<use xlink:href="#SVGID_373_"  overflow="visible"/>
				</clipPath>
				
					<radialGradient id="SVGID_32_" cx="1690.7676" cy="1713.6514" r="0.0602" gradientTransform="matrix(0.3509 0.0114 -0.0114 0.3509 410.2308 -390.3367)" gradientUnits="userSpaceOnUse">
					<stop  offset="0" style="stop-color:#FFFFFF"/>
					<stop  offset="1" style="stop-color:#9F9DA3"/>
				</radialGradient>
				<rect x="984.05" y="230.208" clip-path="url(#SVGID_30_)" fill="url(#SVGID_32_)" width="0.037" height="0.046"/>
			</g>
		</g>
		<polygon fill="#DADACD" points="982.769,231.37 982.766,231.449 984.794,230.356 984.797,230.29 		"/>
		<polygon fill="#82776B" points="982.769,231.37 982.766,231.449 980.796,230.214 980.798,230.146 		"/>
		<polygon fill="#9C8E7F" points="980.85,230.149 980.851,230.115 980.798,230.146 982.769,231.37 982.77,231.34 		"/>
		<polygon fill="#B9BAAE" points="984.721,230.264 984.72,230.295 982.77,231.34 982.769,231.37 984.797,230.29 		"/>
		<g>
			<g>
				<g>
					<defs>
						
							<rect id="SVGID_376_" x="982.03" y="228.248" transform="matrix(-0.9994 -0.0332 0.0332 -0.9994 1956.1758 489.3112)" width="0.235" height="0.357"/>
					</defs>
					<clipPath id="SVGID_33_">
						<use xlink:href="#SVGID_376_"  overflow="visible"/>
					</clipPath>
					<polyline clip-path="url(#SVGID_33_)" fill="#CCCCCC" points="982.183,228.605 982.035,228.244 982.27,228.278 					"/>
				</g>
			</g>
		</g>
		<polygon fill="#E9EBDB" points="982.183,228.605 982.197,228.164 982.553,228.252 982.535,228.819 		"/>
		<polygon fill="#C3B29F" points="982.535,228.819 982.855,228.44 982.863,228.204 982.553,228.252 		"/>
		<polygon fill="#F1F1F1" points="982.863,228.204 982.512,227.984 982.197,228.164 982.549,228.372 		"/>
		<polygon fill="#4C4C4C" points="982.327,228.165 982.517,228.066 982.727,228.199 982.548,228.299 		"/>
		<polygon fill="#303030" points="982.517,228.066 982.51,228.276 982.327,228.165 		"/>
		<polygon fill="#5F5C5E" points="981.672,230.23 981.684,229.843 981.398,229.665 981.386,230.053 		"/>
		<polygon fill="#302E31" points="981.418,230.036 981.429,229.687 981.398,229.665 981.386,230.053 981.672,230.23 
			981.673,230.193 		"/>
	</g>
</g>
</svg>
