<?xml version="1.0" encoding="utf-8"?>
<!-- Generator: Adobe Illustrator 16.0.0, SVG Export Plug-In . SVG Version: 6.00 Build 0)  -->
<!DOCTYPE svg PUBLIC "-//W3C//DTD SVG 1.1//EN" "http://www.w3.org/Graphics/SVG/1.1/DTD/svg11.dtd">
<svg version="1.1" id="Camada_1" xmlns="http://www.w3.org/2000/svg" xmlns:xlink="http://www.w3.org/1999/xlink" x="0px" y="0px"
	 width="100px" height="100px" viewBox="913 155 100 100" enable-background="new 913 155 100 100" xml:space="preserve">
<g>
	<g opacity="0.2">
		<polygon fill="#383831" points="965.221,240.932 1004.395,227.469 951.371,202.724 		"/>
	</g>
	<g>
		<g>
			<g enable-background="new    ">
				<defs>
					<path id="SVGID_17_" enable-background="new    " d="M944.545,197.791l42.787,21.629c-0.441-0.221-1.02-0.193-1.682,0.166
						l-42.789-21.628C943.523,197.598,944.104,197.57,944.545,197.791z"/>
				</defs>
				<clipPath id="SVGID_3_">
					<use xlink:href="#SVGID_17_"  overflow="visible"/>
				</clipPath>
				<g clip-path="url(#SVGID_3_)" enable-background="new    ">
					<g>
						<path fill="#AEAEB2" d="M985.65,219.585l-42.789-21.628c0.057-0.028,0.109-0.055,0.166-0.083l42.787,21.629
							C985.762,219.531,985.705,219.559,985.65,219.585"/>
					</g>
					<g>
						<path fill="#AAA9AE" d="M985.814,219.503l-42.787-21.629c0.082-0.027,0.166-0.082,0.248-0.109l42.789,21.628
							C985.98,219.448,985.898,219.476,985.814,219.503"/>
					</g>
					<g>
						<path fill="#A6A5A9" d="M986.035,219.393l-42.787-21.628c0.082-0.029,0.137-0.056,0.221-0.056l42.787,21.628
							C986.201,219.364,986.119,219.393,986.035,219.393"/>
					</g>
					<g>
						<path fill="#A1A1A5" d="M986.256,219.337l-42.787-21.628c0.055-0.027,0.139-0.027,0.191-0.027l42.789,21.628
							C986.395,219.31,986.312,219.31,986.256,219.337"/>
					</g>
					<g>
						<path fill="#9D9CA1" d="M986.449,219.31l-42.789-21.655c0.057,0,0.111-0.028,0.168-0.028l42.787,21.629
							C986.561,219.282,986.506,219.282,986.449,219.31"/>
					</g>
					<g>
						<path fill="#99989C" d="M986.615,219.282l-42.787-21.628c0.053,0,0.109,0,0.164,0l42.789,21.628
							C986.725,219.282,986.67,219.282,986.615,219.282"/>
					</g>
					<g>
						<path fill="#949498" d="M986.781,219.282l-42.789-21.628c0.055,0,0.111,0,0.166,0.027l42.789,21.628
							C986.891,219.282,986.836,219.282,986.781,219.282"/>
					</g>
					<g>
						<path fill="#908F93" d="M986.947,219.31l-42.789-21.628c0.055,0,0.109,0.027,0.166,0.027l42.789,21.628
							C987.057,219.31,987.002,219.31,986.947,219.31"/>
					</g>
					<g>
						<path fill="#8C8B8F" d="M987.111,219.337l-42.787-21.628c0.055,0.026,0.109,0.026,0.166,0.056l42.787,21.628
							C987.223,219.364,987.166,219.364,987.111,219.337"/>
					</g>
					<g>
						<path fill="#87878A" d="M987.277,219.393l-42.787-21.628c0.027,0,0.027,0.026,0.055,0.026l42.787,21.629
							C987.305,219.42,987.277,219.393,987.277,219.393"/>
					</g>
				</g>
			</g>
			<g>
				<g>
					<polygon fill="#CCCCCC" points="965.758,230.842 923.301,208.716 942.859,197.958 985.65,219.585 					"/>
				</g>
			</g>
			<g>
				<g>
					<path id="SVGID_1_" fill="#C2C3C9" d="M961.676,238.317l-42.457-22.125c0-0.082,0.027-0.166,0.027-0.248
						c0.387-2.952,2.207-6.208,4.055-7.229l42.457,22.126c-1.848,1.021-3.695,4.276-4.055,7.227
						C961.676,238.152,961.676,238.235,961.676,238.317z"/>
				</g>
				<g>
					<g enable-background="new    ">
						<g>
							<defs>
								<path id="SVGID_19_" d="M961.676,238.317l-42.457-22.125c0-0.082,0.027-0.166,0.027-0.248
									c0.387-2.952,2.207-6.208,4.055-7.229l42.457,22.126c-1.848,1.021-3.695,4.276-4.055,7.227
									C961.676,238.152,961.676,238.235,961.676,238.317z"/>
							</defs>
							<clipPath id="SVGID_6_">
								<use xlink:href="#SVGID_19_"  overflow="visible"/>
							</clipPath>
							<g clip-path="url(#SVGID_6_)" enable-background="new    ">
								<g>
									<path fill="#C2C3C9" d="M961.676,238.317l-42.457-22.125c0-0.082,0.027-0.166,0.027-0.248c0-0.11,0.027-0.221,0.057-0.304
										l42.457,22.126c-0.029,0.11-0.029,0.221-0.057,0.302C961.676,238.152,961.676,238.235,961.676,238.317"/>
								</g>
								<g>
									<path fill="#C2C3C9" d="M961.73,237.738l-42.428-22.098c0.027-0.192,0.055-0.359,0.109-0.552l42.457,22.126
										C961.814,237.38,961.76,237.572,961.73,237.738"/>
								</g>
								<g>
									<path fill="#C2C3C9" d="M961.842,237.188l-42.457-22.099c0.027-0.165,0.082-0.331,0.111-0.47l42.457,22.126
										C961.924,236.883,961.869,237.049,961.842,237.188"/>
								</g>
								<g>
									<path fill="#C2C3C9" d="M961.953,236.718l-42.459-22.126c0.027-0.138,0.084-0.303,0.139-0.441l42.457,22.127
										C962.035,236.414,962.006,236.58,961.953,236.718"/>
								</g>
								<g>
									<path fill="#C2C3C9" d="M962.09,236.277l-42.457-22.127c0.055-0.138,0.082-0.275,0.137-0.413l42.457,22.125
										C962.172,236.001,962.117,236.139,962.09,236.277"/>
								</g>
								<g>
									<path fill="#C2C3C9" d="M962.227,235.862l-42.457-22.125c0.057-0.139,0.084-0.276,0.139-0.387l42.459,22.126
										C962.311,235.587,962.256,235.725,962.227,235.862"/>
								</g>
								<g>
									<path fill="#C2C3C9" d="M962.365,235.477l-42.457-22.126c0.055-0.138,0.109-0.247,0.137-0.386l42.459,22.126
										C962.449,235.2,962.42,235.339,962.365,235.477"/>
								</g>
								<g>
									<path fill="#C2C3C9" d="M962.504,235.091l-42.459-22.126c0.057-0.139,0.111-0.249,0.166-0.359l42.459,22.125
										C962.613,234.842,962.559,234.953,962.504,235.091"/>
								</g>
								<g>
									<path fill="#C2C3C9" d="M962.67,234.703l-42.459-22.098c0.057-0.11,0.111-0.248,0.166-0.358l42.459,22.125
										C962.779,234.483,962.725,234.594,962.67,234.703"/>
								</g>
								<g>
									<path fill="#C2C3C9" d="M962.836,234.345l-42.459-22.125c0.055-0.11,0.111-0.248,0.193-0.358l42.457,22.125
										C962.973,234.097,962.889,234.234,962.836,234.345"/>
								</g>
								<g>
									<path fill="#C2C3C9" d="M963.027,233.986l-42.457-22.125c0.057-0.11,0.139-0.248,0.193-0.358l42.457,22.125
										C963.166,233.738,963.084,233.876,963.027,233.986"/>
								</g>
								<g>
									<path fill="#C2C3C9" d="M963.221,233.628l-42.457-22.125c0.082-0.111,0.139-0.249,0.221-0.359l42.457,22.126
										C963.359,233.38,963.303,233.518,963.221,233.628"/>
								</g>
								<g>
									<path fill="#C2C3C9" d="M963.441,233.27l-42.457-22.126c0.082-0.139,0.166-0.248,0.248-0.386l42.457,22.125
										C963.607,233.021,963.523,233.132,963.441,233.27"/>
								</g>
								<g>
									<path fill="#C2C3C9" d="M963.689,232.883l-42.457-22.125c0.109-0.139,0.221-0.304,0.305-0.442l42.457,22.127
										C963.91,232.58,963.801,232.745,963.689,232.883"/>
								</g>
								<g>
									<path fill="#C2C3C9" d="M964.021,232.442l-42.459-22.099c0.193-0.248,0.387-0.469,0.58-0.662l42.457,22.126
										C964.379,231.973,964.188,232.221,964.021,232.442"/>
								</g>
								<g>
									<path fill="#C2C3C9" d="M964.574,231.779l-42.432-22.125c0.139-0.166,0.303-0.304,0.471-0.442l42.457,22.126
										C964.877,231.476,964.738,231.613,964.574,231.779"/>
								</g>
								<g>
									<path fill="#C2C3C9" d="M965.041,231.338l-42.457-22.126c0.193-0.164,0.387-0.304,0.58-0.413l42.457,22.125
										C965.428,231.035,965.234,231.173,965.041,231.338"/>
								</g>
								<g>
									<path fill="#C2C3C9" d="M965.621,230.924l-42.457-22.125c0.055-0.027,0.109-0.055,0.137-0.083l42.457,22.126
										C965.703,230.869,965.648,230.897,965.621,230.924"/>
								</g>
							</g>
						</g>
						<g>
							<g>
								<path fill="#87868A" d="M985.65,219.585c1.848-1.021,3.088,0.553,2.703,3.504c0,0.083-0.027,0.166-0.027,0.248
									l-26.65,14.953c0-0.083,0.027-0.166,0.027-0.249c0.387-2.951,2.207-6.206,4.055-7.228L985.65,219.585z"/>
							</g>
						</g>
					</g>
				</g>
				<g>
					<path fill="#38383A" d="M965.787,227.917c0.385-0.635,15.697-8.635,15.697-8.635l-6.924-3.669l-15.588,8.884L965.787,227.917z"
						/>
				</g>
				<g>
					<polygon fill="#38383A" points="965.732,210.647 950.006,220.138 951.469,220.827 967.166,211.393 					"/>
				</g>
				<g>
					<g>
						<polygon fill="#38383A" points="964.076,207.723 964.049,207.694 964.049,207.694 						"/>
					</g>
					<g>
						<polygon fill="#38383A" points="962.199,208.799 946.393,218.345 947.881,219.062 963.635,209.544 						"/>
					</g>
				</g>
				<g>
					<g>
						<polygon fill="#38383A" points="960.436,206.04 960.406,206.013 960.406,206.013 						"/>
					</g>
					<g>
						<polygon fill="#38383A" points="958.559,207.145 942.75,216.662 944.213,217.378 959.992,207.888 						"/>
					</g>
				</g>
				<g>
					<polygon fill="#38383A" points="942.42,218.398 942.447,218.398 942.42,218.372 					"/>
				</g>
				<g>
					<polygon fill="#38383A" points="955.137,205.157 939.166,214.786 940.625,215.529 956.572,205.901 					"/>
				</g>
				<g>
					<polygon fill="#38383A" points="951.607,203.337 935.551,213.02 937.012,213.737 953.041,204.082 					"/>
				</g>
				<g>
					<polygon fill="#38383A" points="948.076,201.516 931.936,211.254 933.398,211.972 949.537,202.26 					"/>
				</g>
				<g>
					<polygon fill="#38383A" points="944.545,199.668 928.322,209.461 929.785,210.206 946.006,200.412 					"/>
				</g>
				<g>
					<polygon fill="#38383A" points="969.318,212.495 953.758,221.82 955.221,222.537 970.752,213.24 					"/>
				</g>
				<g>
					<path fill="#3A89D8" d="M976.518,218.702c0.441,0.938-0.551,2.318-2.207,3.091c-1.654,0.773-3.365,0.634-3.807-0.304
						c-0.441-0.938,0.553-2.317,2.207-3.089C974.393,217.628,976.104,217.765,976.518,218.702z"/>
				</g>
				<g>
					<polygon fill="#727176" points="919.219,216.192 961.703,238.068 961.703,243.173 919.412,220.771 					"/>
				</g>
				<g>
					<path fill="#2D2D2F" d="M961.703,243.173c0.496-0.579,26.375-14.538,26.375-14.814c0-0.275,0.248-5.021,0.248-5.021
						l-26.65,14.952L961.703,243.173z"/>
				</g>
			</g>
		</g>
	</g>
	<g>
		<g>
			<g>
				<g>
					<polygon fill="#5E7B85" points="956.932,206.013 955.551,205.488 955.303,192.853 956.682,193.377 					"/>
				</g>
			</g>
			<g>
				<g>
					<g enable-background="new    ">
						<g>
							<defs>
								<path id="SVGID_21_" d="M967.057,167.004l1.379,0.524c-0.689-0.248-1.49-0.248-2.346,0.083l-1.379-0.525
									C965.566,166.756,966.365,166.756,967.057,167.004z"/>
							</defs>
							<clipPath id="SVGID_8_">
								<use xlink:href="#SVGID_21_"  overflow="visible"/>
							</clipPath>
							<g clip-path="url(#SVGID_8_)" enable-background="new    ">
								<g>
									<path fill="#789CA8" d="M966.09,167.638l-1.379-0.524c0.055-0.028,0.082-0.028,0.137-0.055l1.381,0.524
										C966.172,167.583,966.117,167.611,966.09,167.638"/>
								</g>
								<g>
									<path fill="#7498A4" d="M966.201,167.583l-1.381-0.524c0.193-0.083,0.414-0.138,0.607-0.166l1.381,0.524
										C966.613,167.445,966.422,167.5,966.201,167.583"/>
								</g>
								<g>
									<path fill="#71949F" d="M966.807,167.418l-1.379-0.524c0.166-0.028,0.33-0.055,0.469-0.055l1.379,0.524
										C967.139,167.363,966.973,167.39,966.807,167.418"/>
								</g>
								<g>
									<path fill="#6E8F9A" d="M967.275,167.363l-1.379-0.524c0.139,0,0.275,0,0.414,0l1.381,0.524
										C967.58,167.363,967.441,167.363,967.275,167.363"/>
								</g>
								<g>
									<path fill="#6A8B96" d="M967.719,167.363l-1.381-0.524c0.139,0,0.248,0.028,0.387,0.055l1.379,0.524
										C967.967,167.39,967.828,167.39,967.719,167.363"/>
								</g>
								<g>
									<path fill="#678791" d="M968.104,167.445l-1.379-0.524c0.109,0.027,0.221,0.055,0.33,0.11l1.381,0.524
										C968.324,167.5,968.215,167.473,968.104,167.445"/>
								</g>
							</g>
						</g>
					</g>
					<g>
						<g>
							<g enable-background="new    ">
								<g>
									<defs>
										<path id="SVGID_23_" d="M947.992,195.998l-1.379-0.524c-1.379-0.524-2.316-2.124-2.316-4.386l1.379,0.523
											C945.676,193.847,946.613,195.474,947.992,195.998z"/>
									</defs>
									<clipPath id="SVGID_10_">
										<use xlink:href="#SVGID_23_"  overflow="visible"/>
									</clipPath>
									<g clip-path="url(#SVGID_10_)" enable-background="new    ">
										<g>
											<path fill="#56717A" d="M947.992,195.998l-1.379-0.524c-1.379-0.524-2.316-2.124-2.316-4.386l1.379,0.523
												C945.676,193.847,946.613,195.474,947.992,195.998"/>
										</g>
									</g>
								</g>
							</g>
							<g>
								<g>
									<polygon fill="#80A7B4" points="950.338,173.845 948.959,173.349 964.711,167.114 966.09,167.638 									"/>
								</g>
							</g>
							<g>
								<g>
									<polygon fill="#5F7C86" points="945.676,191.585 944.297,191.088 944.297,181.321 945.676,181.846 									"/>
								</g>
							</g>
							<g>
								<g enable-background="new    ">
									<g enable-background="new    ">
										<g>
											<defs>
												<path id="SVGID_25_" d="M945.676,181.846l-1.379-0.524c0-3.392,2.096-6.979,4.662-8l1.379,0.524
													C947.771,174.867,945.676,178.454,945.676,181.846z"/>
											</defs>
											<clipPath id="SVGID_12_">
												<use xlink:href="#SVGID_25_"  overflow="visible"/>
											</clipPath>
											<g clip-path="url(#SVGID_12_)" enable-background="new    ">
												<g>
													<path fill="#56717A" d="M945.676,181.846l-1.379-0.524c0,0,0,0,0-0.027L945.676,181.846L945.676,181.846"/>
												</g>
												<g>
													<path fill="#5A757E" d="M945.676,181.818l-1.379-0.524c0-0.276,0.027-0.552,0.055-0.828l1.379,0.524
														C945.703,181.267,945.676,181.542,945.676,181.818"/>
												</g>
												<g>
													<path fill="#5D7A83" d="M945.73,180.99l-1.379-0.524c0.027-0.22,0.055-0.469,0.082-0.689l1.379,0.524
														C945.785,180.549,945.758,180.771,945.73,180.99"/>
												</g>
												<g>
													<path fill="#607E88" d="M945.812,180.301l-1.379-0.524c0.027-0.192,0.082-0.414,0.137-0.606l1.381,0.524
														C945.895,179.887,945.84,180.108,945.812,180.301"/>
												</g>
												<g>
													<path fill="#64828C" d="M945.951,179.695l-1.381-0.524c0.057-0.193,0.111-0.386,0.166-0.58l1.381,0.524
														C946.033,179.308,946.006,179.501,945.951,179.695"/>
												</g>
												<g>
													<path fill="#678791" d="M946.117,179.115l-1.381-0.524c0.057-0.192,0.111-0.386,0.193-0.551l1.379,0.523
														C946.227,178.729,946.172,178.922,946.117,179.115"/>
												</g>
												<g>
													<path fill="#6A8B96" d="M946.309,178.536l-1.379-0.524c0.084-0.193,0.139-0.386,0.221-0.552l1.379,0.524
														C946.447,178.177,946.365,178.371,946.309,178.536"/>
												</g>
												<g>
													<path fill="#6E8F9A" d="M946.529,177.984l-1.379-0.524c0.084-0.193,0.166-0.387,0.277-0.579l1.377,0.524
														C946.695,177.598,946.613,177.791,946.529,177.984"/>
												</g>
												<g>
													<path fill="#71949F" d="M946.805,177.405l-1.377-0.524c0.109-0.221,0.219-0.414,0.33-0.606l1.379,0.524
														C947.027,176.992,946.916,177.211,946.805,177.405"/>
												</g>
												<g>
													<path fill="#7498A4" d="M947.137,176.798l-1.379-0.524c0.137-0.222,0.303-0.47,0.441-0.689l1.379,0.523
														C947.441,176.329,947.275,176.577,947.137,176.798"/>
												</g>
												<g>
													<path fill="#789CA8" d="M947.605,176.136l-1.379-0.524c0.25-0.359,0.553-0.69,0.855-0.967l1.381,0.524
														C948.131,175.446,947.854,175.777,947.605,176.136"/>
												</g>
												<g>
													<path fill="#7BA1AD" d="M948.434,175.142l-1.379-0.523c0.33-0.332,0.689-0.607,1.047-0.855l1.381,0.524
														C949.123,174.536,948.766,174.812,948.434,175.142"/>
												</g>
												<g>
													<path fill="#789CA8" d="M949.482,174.288l-1.379-0.524c0.275-0.166,0.551-0.332,0.855-0.441l1.379,0.523
														C950.062,173.984,949.758,174.122,949.482,174.288"/>
												</g>
											</g>
										</g>
									</g>
									<g>
										<g>
											<path fill="#8BB6C5" d="M966.09,167.638c2.566-1.02,4.662,0.911,4.662,4.304v9.739c0,3.393-2.096,6.979-4.662,8
												l-3.145,1.241l-6.014,15.091l-0.25-12.636l-6.344,2.51c-2.566,1.021-4.662-0.909-4.662-4.303v-9.738
												c0-3.393,2.096-6.98,4.662-8L966.09,167.638z"/>
										</g>
									</g>
								</g>
							</g>
						</g>
					</g>
				</g>
			</g>
		</g>
	</g>
</g>
</svg>
