<?xml version="1.0" encoding="utf-8"?>
<!-- Generator: Adobe Illustrator 16.0.0, SVG Export Plug-In . SVG Version: 6.00 Build 0)  -->
<!DOCTYPE svg PUBLIC "-//W3C//DTD SVG 1.1//EN" "http://www.w3.org/Graphics/SVG/1.1/DTD/svg11.dtd">
<svg version="1.1" id="Layer_1" xmlns="http://www.w3.org/2000/svg" xmlns:xlink="http://www.w3.org/1999/xlink" x="0px" y="0px"
	 width="179px" height="92px" viewBox="0 0 179 92" enable-background="new 0 0 179 92" xml:space="preserve">
<g>
</g>
<g>
	<g>
		<path fill-rule="evenodd" clip-rule="evenodd" fill="#1B1918" d="M155.607,42.083c1.1,0,2.023,0.439,2.771,1.275
			c0.747,0.837,1.144,1.759,1.144,2.684c0,1.056-0.396,2.022-1.23,2.814c-0.794,0.835-1.672,1.231-2.685,1.231h-10.644
			c-0.527,0-0.925,0.133-1.275,0.439c-0.352,0.264-0.528,0.704-0.528,1.233c0,0.571,0.177,1.012,0.528,1.318
			c0.351,0.307,0.748,0.481,1.275,0.481h6.994c1.274,0,2.463,0.267,3.562,0.794s2.023,1.231,2.858,2.156
			c0.792,0.879,1.406,1.801,1.892,2.812c0.439,0.969,0.659,2.113,0.659,3.345c0.046,1.362-0.174,2.639-0.704,3.824
			c-0.527,1.188-1.189,2.2-2.068,3.036s-1.891,1.495-3.032,1.979c-1.187,0.439-2.465,0.705-3.918,0.705h-11.434
			c-1.055,0-1.979-0.397-2.768-1.1c-0.794-0.748-1.189-1.671-1.189-2.817c0-1.009,0.396-1.978,1.144-2.813
			c0.747-0.881,1.627-1.32,2.727-1.363h11.391c1.101,0,1.67-0.483,1.67-1.45c0-1.145-0.569-1.672-1.67-1.672h-6.817
			c-1.231,0-2.374-0.265-3.518-0.793c-1.097-0.527-2.023-1.231-2.814-2.11c-0.835-0.923-1.453-1.937-1.893-2.992
			c-0.485-1.101-0.702-2.242-0.702-3.474s0.217-2.464,0.702-3.606s1.145-2.156,1.978-3.035c0.793-0.879,1.761-1.54,2.905-2.066
			c1.146-0.527,2.331-0.792,3.651-0.836H155.607z M155.607,42.083"/>
		<path fill-rule="evenodd" clip-rule="evenodd" fill="#1B1918" d="M128.427,42.392c1.058,0,1.979,0.394,2.683,1.188
			c0.747,0.791,1.144,1.717,1.23,2.858v21.903c0,1.144-0.351,2.066-1.054,2.813c-0.705,0.749-1.671,1.146-2.859,1.232
			c-1.1,0-1.977-0.309-2.728-0.969c-0.749-0.658-1.23-1.626-1.362-2.812V46.175c0.042-1.058,0.481-1.979,1.273-2.64
			C126.404,42.831,127.327,42.435,128.427,42.392L128.427,42.392z M128.427,42.392"/>
		<path fill-rule="evenodd" clip-rule="evenodd" fill="#F6921E" d="M128.427,32.936c1.058,0,1.979,0.395,2.77,1.187
			c0.751,0.792,1.144,1.759,1.144,2.815c0,1.101-0.393,2.067-1.144,2.859c-0.791,0.79-1.712,1.187-2.77,1.187
			c-1.232-0.045-2.197-0.396-2.991-1.144c-0.746-0.703-1.099-1.761-1.099-3.078c0.042-1.056,0.44-1.98,1.231-2.727
			C126.404,33.287,127.327,32.936,128.427,32.936L128.427,32.936z M128.427,32.936"/>
		<path fill-rule="evenodd" clip-rule="evenodd" fill="#1B1918" d="M107.799,42.258c1.892,0.222,3.607,0.748,5.235,1.627
			c1.669,0.88,3.078,1.979,4.267,3.299c1.143,1.364,2.064,2.904,2.771,4.619c0.658,1.716,1.01,3.519,1.01,5.41v10.952
			c0,1.142-0.397,2.067-1.231,2.858c-0.836,0.791-1.759,1.188-2.816,1.188c-1.405,0-2.593-0.66-3.431-1.979
			c-0.219,0.087-0.396,0.175-0.569,0.263c-0.177,0.089-0.352,0.177-0.485,0.265c-1.011,0.484-2.023,0.834-3.077,1.1
			c-1.056,0.219-2.2,0.353-3.387,0.353c-3.08,0-5.85-0.838-8.312-2.507c-2.421-1.672-4.225-3.828-5.455-6.51
			c-0.394-0.924-0.705-1.893-0.924-2.903c-0.264-0.969-0.35-2.022-0.35-3.079c0-1.1,0.086-2.112,0.35-3.122
			c0.219-0.97,0.53-1.937,0.924-2.903c1.23-2.683,3.034-4.838,5.455-6.51c2.463-1.626,5.232-2.462,8.312-2.462h0.879
			C107.271,42.216,107.536,42.216,107.799,42.258L107.799,42.258z M107.799,42.258L107.799,42.258z M106.04,64.161
			c0.924,0,1.845-0.175,2.682-0.57c0.836-0.309,1.583-0.836,2.2-1.406c0.616-0.661,1.102-1.365,1.496-2.245
			c0.353-0.835,0.525-1.759,0.525-2.727c0-0.923-0.173-1.802-0.525-2.64c-0.395-0.834-0.88-1.581-1.541-2.241
			c-0.614-0.617-1.361-1.145-2.243-1.496c-0.835-0.396-1.715-0.572-2.594-0.572c-0.922,0-1.801,0.176-2.595,0.572
			c-0.837,0.352-1.583,0.879-2.244,1.496c-0.615,0.66-1.098,1.407-1.495,2.241c-0.351,0.838-0.572,1.717-0.572,2.64
			c0,0.968,0.222,1.847,0.615,2.684c0.396,0.835,0.88,1.582,1.541,2.197c0.659,0.616,1.363,1.102,2.199,1.497
			C104.326,63.942,105.159,64.161,106.04,64.161L106.04,64.161z M106.04,64.161"/>
		<path fill-rule="evenodd" clip-rule="evenodd" fill="#1B1918" d="M63.556,42.216c1.229,0,2.416,0.176,3.605,0.569
			c1.187,0.397,2.242,1.013,3.253,1.85c1.979-1.629,4.31-2.419,6.947-2.419c1.455,0,2.815,0.264,4.18,0.836
			c1.319,0.527,2.507,1.318,3.519,2.244c1.012,0.966,1.806,2.108,2.42,3.428c0.614,1.318,0.881,2.729,0.881,4.223v15.527
			c0,1.011-0.398,1.891-1.233,2.639c-0.834,0.747-1.759,1.1-2.857,1.1c-1.055,0-1.981-0.397-2.815-1.231
			c-0.792-0.794-1.188-1.715-1.188-2.815V53.121c0-0.789-0.263-1.448-0.836-1.979c-0.572-0.526-1.23-0.79-2.069-0.79
			c-0.702,0-1.361,0.222-1.977,0.703c-0.573,0.439-0.88,1.144-0.88,2.066v15.044c0,1.142-0.395,2.067-1.23,2.858
			c-0.793,0.791-1.717,1.188-2.86,1.188c-1.055,0-1.979-0.353-2.771-1.1c-0.833-0.705-1.275-1.584-1.275-2.639V53.121
			c-0.045-0.834-0.309-1.494-0.924-2.021c-0.569-0.484-1.186-0.748-1.888-0.748c-0.794,0-1.452,0.264-2.025,0.79
			c-0.573,0.531-0.881,1.19-0.926,2.025V68.56c-0.089,0.969-0.481,1.848-1.229,2.553c-0.793,0.747-1.717,1.1-2.771,1.1
			c-0.572,0-1.101-0.134-1.627-0.309c-0.483-0.221-0.926-0.485-1.276-0.88c-0.396-0.352-0.659-0.791-0.923-1.276
			c-0.221-0.527-0.311-1.013-0.264-1.582V52.946c0-1.452,0.264-2.812,0.88-4.132c0.57-1.32,1.364-2.465,2.329-3.434
			c1.014-0.967,2.156-1.717,3.52-2.286C60.562,42.522,62.016,42.216,63.556,42.216L63.556,42.216z M63.556,42.216"/>
		<path fill-rule="evenodd" clip-rule="evenodd" fill="#1B1918" d="M52.382,84.263h1.276v-5.411h-1.276V84.263z M52.382,84.263
			L52.382,84.263z M58.1,84.263h1.144v-3.74l1.142,3.74h1.412v-5.411h-1.192v3.519l-1.054-3.519H58.1V84.263z M58.1,84.263
			L58.1,84.263z M66.98,84.263h1.277v-4.398h1.146v-1.013h-3.52v1.013h1.097V84.263z M66.98,84.263L66.98,84.263z M73.449,84.263
			h3.255V83.25h-1.98v-1.231h1.759v-1.057h-1.759v-1.098h1.894v-1.013h-3.168V84.263z M73.449,84.263L73.449,84.263z M82.157,79.731
			h0.396c0.133,0,0.263,0.045,0.394,0.089c0.09,0.044,0.134,0.131,0.179,0.22c0.043,0.132,0.089,0.22,0.089,0.396
			c0,0.087,0,0.133-0.046,0.221c-0.043,0.087-0.043,0.175-0.088,0.219c-0.044,0.087-0.134,0.133-0.221,0.221
			c-0.087,0-0.174,0.044-0.307,0.044h-0.396V79.731z M82.157,79.731L82.157,79.731z M80.882,84.263h1.275v-2.244h0.484
			c0.086,0,0.175,0.044,0.265,0.044c0.041,0.045,0.087,0.087,0.131,0.177c0.044,0.088,0.089,0.221,0.089,0.351
			c0.043,0.177,0.043,0.352,0.043,0.572v0.527c0.046,0.134,0.046,0.265,0.046,0.353c0.041,0.087,0.041,0.177,0.085,0.221h1.365
			v-0.044l-0.089-0.09c-0.044,0-0.044-0.044-0.044-0.087c-0.043-0.043-0.043-0.134-0.043-0.219
			c-0.045-0.088-0.045-0.221-0.045-0.354v-0.528c0-0.175,0-0.352-0.045-0.481c0-0.177-0.043-0.311-0.13-0.397
			c-0.043-0.132-0.134-0.219-0.222-0.309c-0.131-0.086-0.261-0.132-0.481-0.174c0.175-0.045,0.351-0.133,0.481-0.221
			c0.132-0.089,0.265-0.264,0.309-0.439c0.088-0.177,0.133-0.397,0.133-0.66c0-0.177-0.045-0.352-0.09-0.528
			c-0.043-0.176-0.13-0.351-0.264-0.483c-0.088-0.132-0.262-0.22-0.438-0.308c-0.176-0.045-0.397-0.089-0.66-0.089h-2.155V84.263z
			 M80.882,84.263L80.882,84.263z M88.843,84.263h1.143v-3.74l1.145,3.74h1.408v-5.411h-1.145v3.519H91.35l-1.056-3.519h-1.451
			V84.263z M88.843,84.263L88.843,84.263z M96.936,84.263h3.255V83.25h-1.979v-1.231h1.759v-1.057h-1.759v-1.098h1.893v-1.013
			h-3.168V84.263z M96.936,84.263L96.936,84.263z M105.159,84.263h1.277v-4.398h1.144v-1.013h-3.562v1.013h1.142V84.263z
			 M105.159,84.263L105.159,84.263z M117.827,82.239h-0.925l0.44-2.419L117.827,82.239z M117.827,82.239L117.827,82.239z
			 M115.188,84.263h1.319l0.218-1.013h1.276l0.221,1.013h1.319l-1.36-5.411h-1.588L115.188,84.263z M115.188,84.263L115.188,84.263z
			 M128.777,79.731h0.398c0.131,0,0.263,0.045,0.396,0.089c0.085,0.044,0.132,0.131,0.175,0.22c0.044,0.132,0.089,0.22,0.089,0.396
			c0,0.087-0.045,0.133-0.045,0.221c0,0.087-0.044,0.175-0.087,0.219l-0.219,0.221c-0.091,0-0.178,0.044-0.309,0.044h-0.398V79.731z
			 M128.777,79.731L128.777,79.731z M127.503,84.263h1.274v-2.244h0.485c0.088,0,0.176,0.044,0.264,0.044
			c0.045,0.045,0.089,0.087,0.13,0.177c0.047,0.088,0.09,0.221,0.09,0.351c0.044,0.177,0.044,0.352,0.044,0.572v0.527
			c0,0.134,0.045,0.265,0.045,0.353c0.041,0.087,0.041,0.177,0.088,0.221h1.363v-0.044c0-0.044-0.043-0.044-0.09-0.09
			c0,0-0.043-0.044-0.043-0.087c-0.044-0.043-0.044-0.134-0.044-0.219c0-0.088-0.044-0.221-0.044-0.354v-0.528
			c0-0.175-0.043-0.352-0.043-0.481c0-0.177-0.046-0.311-0.087-0.397c-0.046-0.132-0.133-0.219-0.266-0.309
			c-0.134-0.086-0.307-0.132-0.482-0.174c0.176-0.045,0.349-0.133,0.482-0.221c0.133-0.089,0.266-0.264,0.307-0.439
			c0.089-0.177,0.133-0.397,0.133-0.66c0-0.177-0.044-0.352-0.087-0.528c-0.046-0.176-0.133-0.351-0.266-0.483
			c-0.087-0.132-0.263-0.22-0.439-0.308c-0.176-0.045-0.395-0.089-0.702-0.089h-2.112V84.263z M127.503,84.263L127.503,84.263z
			 M137.707,82.239h-0.923l0.439-2.419L137.707,82.239z M137.707,82.239L137.707,82.239z M135.112,84.263h1.276l0.218-1.013h1.277
			l0.219,1.013h1.321l-1.365-5.411h-1.584L135.112,84.263z M135.112,84.263L135.112,84.263z M136.784,78.5h0.789l0.792-1.057h-1.186
			L136.784,78.5z M136.784,78.5L136.784,78.5z M143.425,84.263h1.804c0.306,0,0.572-0.044,0.793-0.088
			c0.261-0.09,0.438-0.221,0.569-0.352c0.177-0.134,0.264-0.354,0.352-0.573c0.089-0.221,0.134-0.483,0.134-0.835
			c0.046-0.266,0.046-0.661,0.046-1.011c0-0.484-0.046-0.882-0.091-1.232c-0.089-0.308-0.177-0.57-0.308-0.749
			c-0.176-0.219-0.352-0.353-0.572-0.44c-0.219-0.087-0.528-0.131-0.836-0.131h-1.891V84.263z M143.425,84.263L143.425,84.263z
			 M144.7,79.776h0.352c0.177,0,0.308,0.044,0.439,0.088c0.091,0.044,0.178,0.132,0.22,0.265c0.045,0.131,0.09,0.307,0.132,0.527
			v1.627c-0.042,0.219-0.042,0.396-0.087,0.527c-0.045,0.131-0.087,0.265-0.174,0.352c-0.048,0.044-0.133,0.088-0.223,0.134
			c-0.087,0.043-0.177,0.043-0.308,0.043H144.7V79.776z M144.7,79.776L144.7,79.776z M151.428,84.263h1.278v-5.411h-1.278V84.263z
			 M151.428,84.263L151.428,84.263z M158.335,81.58c0-0.397,0-0.705,0.044-0.97c0-0.263,0-0.438,0.046-0.614
			c0.041-0.132,0.129-0.265,0.174-0.307c0.087-0.088,0.176-0.088,0.308-0.088c0.13,0,0.22,0,0.309,0.088
			c0.09,0.042,0.13,0.175,0.175,0.307c0.045,0.176,0.087,0.352,0.087,0.614c0,0.265,0.046,0.572,0.046,0.97
			c0,0.351-0.046,0.659-0.046,0.922c0,0.265-0.042,0.439-0.087,0.618c-0.045,0.13-0.085,0.219-0.175,0.307
			c-0.089,0.088-0.179,0.088-0.309,0.088c-0.132,0-0.221,0-0.308-0.088c-0.045-0.088-0.133-0.177-0.174-0.307
			c-0.046-0.179-0.046-0.354-0.046-0.618C158.335,82.239,158.335,81.931,158.335,81.58L158.335,81.58z M158.335,81.58L158.335,81.58
			z M160.842,81.58c0-0.266-0.047-0.528-0.047-0.749c0-0.263-0.039-0.483-0.085-0.659c0-0.221-0.087-0.396-0.176-0.57
			c-0.088-0.179-0.177-0.354-0.309-0.485c-0.131-0.088-0.351-0.221-0.527-0.265c-0.222-0.087-0.483-0.132-0.792-0.132
			c-0.308,0-0.614,0.045-0.836,0.132c-0.218,0.089-0.396,0.219-0.526,0.396c-0.177,0.133-0.266,0.354-0.352,0.572
			c-0.089,0.22-0.132,0.483-0.132,0.79c-0.045,0.265-0.045,0.618-0.045,0.97c0,0.351,0,0.659,0.045,0.922
			c0,0.309,0.043,0.573,0.132,0.794c0.086,0.219,0.175,0.439,0.352,0.57c0.131,0.176,0.309,0.309,0.526,0.396
			c0.222,0.087,0.528,0.087,0.836,0.131c0.309-0.044,0.57-0.044,0.792-0.131c0.177-0.044,0.396-0.178,0.527-0.264
			c0.132-0.133,0.221-0.31,0.309-0.484c0.089-0.176,0.176-0.353,0.176-0.573c0.046-0.175,0.085-0.439,0.085-0.658
			C160.795,82.062,160.842,81.799,160.842,81.58L160.842,81.58z M160.842,81.58"/>
	</g>
	<g>
		<path fill-rule="evenodd" clip-rule="evenodd" fill="#F6921E" d="M51.077,34.573c0.721-2,1.092-4.122,1.092-6.368
			c0-2.206-0.371-4.309-1.072-6.286l3.711-1.071c0.699,2.327,1.05,4.78,1.05,7.357c0,2.616-0.369,5.09-1.071,7.439L51.077,34.573z
			 M51.077,34.573"/>
		<path fill-rule="evenodd" clip-rule="evenodd" fill="#F6921E" d="M58.414,36.696c0.742-2.762,1.135-5.606,1.153-8.513
			c0-2.865-0.371-5.667-1.133-8.389l3.668-1.051c1.67,6.328,1.67,12.675-0.02,19.023L58.414,36.696z M58.414,36.696"/>
		<path fill-rule="evenodd" clip-rule="evenodd" fill="#F6921E" d="M26.324,34.573c-0.721-2-1.092-4.122-1.092-6.368
			c0-2.206,0.371-4.309,1.071-6.286l-3.71-1.071c-0.7,2.327-1.03,4.78-1.03,7.357c0,2.616,0.349,5.09,1.052,7.439L26.324,34.573z
			 M26.324,34.573"/>
		<path fill-rule="evenodd" clip-rule="evenodd" fill="#F6921E" d="M19.009,36.696c-0.764-2.762-1.155-5.606-1.155-8.513
			c-0.02-2.865,0.351-5.667,1.113-8.389L15.3,18.744c-1.65,6.328-1.65,12.675,0.018,19.023L19.009,36.696z M19.009,36.696"/>
		<path fill-rule="evenodd" clip-rule="evenodd" fill="#F6921E" d="M45.018,15.88c-1.979-0.743-4.102-1.093-6.347-1.093
			c-2.228,0-4.329,0.35-6.287,1.071l-1.071-3.71c2.308-0.699,4.78-1.05,7.358-1.05c2.615,0,5.09,0.351,7.44,1.071L45.018,15.88z
			 M45.018,15.88"/>
		<path fill-rule="evenodd" clip-rule="evenodd" fill="#F6921E" d="M47.16,8.543c-2.781-0.741-5.627-1.134-8.512-1.154
			c-2.864-0.021-5.669,0.372-8.408,1.113l-1.051-3.67c6.349-1.648,12.696-1.627,19.042,0.021L47.16,8.543z M47.16,8.543"/>
		<path fill-rule="evenodd" clip-rule="evenodd" fill="#F6921E" d="M45.018,40.633c-1.979,0.721-4.102,1.071-6.347,1.071
			c-2.228,0-4.329-0.351-6.287-1.052l-1.071,3.69c2.308,0.7,4.78,1.05,7.358,1.05c2.615,0,5.09-0.35,7.44-1.071L45.018,40.633z
			 M45.018,40.633"/>
		<path fill-rule="evenodd" clip-rule="evenodd" fill="#F6921E" d="M47.16,47.949c-2.781,0.762-5.627,1.134-8.512,1.153
			c-2.864,0.021-5.669-0.35-8.408-1.112l-1.051,3.669c6.349,1.669,12.696,1.648,19.042-0.021L47.16,47.949z M47.16,47.949"/>
		<path fill-rule="evenodd" clip-rule="evenodd" fill="#F6921E" d="M45.594,21.383c0.948,0.947,1.669,2.041,2.145,3.216
			c0.165,0.412,0.31,0.824,0.411,1.256h-7.028v-7.027c0.434,0.103,0.824,0.248,1.237,0.412
			C43.554,19.713,44.646,20.437,45.594,21.383L45.594,21.383z M45.594,21.383L45.594,21.383z M48.109,30.739
			c-0.104,0.413-0.229,0.804-0.393,1.217c-0.454,1.216-1.175,2.308-2.185,3.298c-0.948,0.967-2.019,1.669-3.215,2.143
			c-0.392,0.166-0.804,0.309-1.196,0.411v-7.068H48.109z M48.109,30.739L48.109,30.739z M36.237,37.808
			c-0.413-0.103-0.802-0.245-1.194-0.411c-1.195-0.474-2.269-1.176-3.215-2.143c-1.012-0.99-1.732-2.082-2.186-3.298
			c-0.165-0.413-0.288-0.804-0.391-1.217h6.985V37.808z M36.237,37.808L36.237,37.808z M29.21,25.854
			c0.104-0.432,0.246-0.844,0.412-1.256c0.474-1.196,1.194-2.269,2.143-3.216c0.95-0.946,2.021-1.67,3.236-2.144
			c0.412-0.164,0.806-0.31,1.236-0.412v7.027H29.21z M29.21,25.854"/>
	</g>
</g>
</svg>
