<?xml version="1.0" encoding="utf-8"?>
<!-- Generator: Adobe Illustrator 16.0.0, SVG Export Plug-In . SVG Version: 6.00 Build 0)  -->
<!DOCTYPE svg PUBLIC "-//W3C//DTD SVG 1.1//EN" "http://www.w3.org/Graphics/SVG/1.1/DTD/svg11.dtd">
<svg version="1.1" id="Layer_1" xmlns="http://www.w3.org/2000/svg" xmlns:xlink="http://www.w3.org/1999/xlink" x="0px" y="0px"
	 width="178.724px" height="91.273px" viewBox="0 0 178.724 91.273" enable-background="new 0 0 178.724 91.273"
	 xml:space="preserve">
<g>
	<g>
		<path fill="#444444" d="M60.011,52.757c0,2.399-1.963,4.364-4.363,4.364H12.287c-2.399,0-4.364-1.965-4.364-4.364V10.364
			C7.923,7.964,9.887,6,12.287,6h43.361c2.4,0,4.363,1.964,4.363,4.364V52.757z"/>
	</g>
	<g>
		<path fill="#DB3500" d="M115.697,52.757c0,2.399-1.965,4.364-4.365,4.364H67.97c-2.402,0-4.363-1.965-4.363-4.364V10.364
			c0-2.4,1.961-4.364,4.363-4.364h43.361c2.4,0,4.365,1.964,4.365,4.364V52.757z"/>
	</g>
	<g>
		<path fill="#444444" d="M171.378,52.757c0,2.399-1.963,4.364-4.365,4.364h-43.359c-2.4,0-4.365-1.965-4.365-4.364V10.364
			c0-2.4,1.965-4.364,4.365-4.364h43.359c2.402,0,4.365,1.964,4.365,4.364V52.757z"/>
	</g>
	<text transform="matrix(1 0 0 1 7.3376 81.5537)" fill="#444444" font-family="'Arial-BoldMT'" font-size="25.4031">INFO</text>
	<text transform="matrix(1 0 0 1 66.9329 81.5537)" fill="#DB3500" font-family="'Arial-BoldMT'" font-size="25.4031">SYSTEM</text>
	<g id="Your_Icon">
		<g>
			<path fill="#FFFFFF" d="M39.776,18.651L21.058,37.367l8.99,8.99c5.172,5.168,13.547,5.168,18.717,0
				c5.164-5.172,5.164-13.553,0-18.72L39.776,18.651z"/>
			<path fill="#FFFFFF" d="M20.359,15.756l8.963,8.961l8.251-8.253C32.765,11.981,25.432,11.743,20.359,15.756z"/>
			<path fill="#FFFFFF" d="M27.124,26.913l-8.962-8.959c-4.011,5.072-3.776,12.407,0.709,17.214L27.124,26.913z"/>
		</g>
	</g>
	<g>
		<polygon fill="#FFFFFF" points="133.851,30.088 133.845,30.082 133.845,30.088 		"/>
		<polygon fill="#FFFFFF" points="126.185,27.469 131.077,33.299 136.841,31.202 131.943,25.37 		"/>
		<g>
			<rect x="160.521" y="37.948" fill="#FFFFFF" width="3.957" height="11.092"/>
			<rect x="151.005" y="29.23" fill="#FFFFFF" width="3.176" height="13.474"/>
			<rect x="151.005" y="41.91" fill="#FFFFFF" width="12.682" height="3.171"/>
		</g>
		<g>
			<path fill="#FFFFFF" d="M133.292,23.74l8.812,10.5l22.119-8.052l-4.408-12.104L133.292,23.74z M148.638,26.779
				c0-0.971,0.789-1.757,1.758-1.757c0.973,0,1.758,0.786,1.758,1.757s-0.783,1.758-1.758,1.758
				C149.427,28.537,148.638,27.748,148.638,26.779z"/>
		</g>
	</g>
	<path fill="#FFFFFF" d="M101.486,12.629H77.82c-2.6,0-4.736,2.13-4.736,4.735v28.399c0,2.602,2.137,4.734,4.736,4.734h23.668
		c2.602,0,4.73-2.133,4.73-4.734V17.364C106.216,14.759,104.089,12.629,101.486,12.629z M89.65,49.313
		c-1.307,0-2.365-1.06-2.365-2.365c0-1.307,1.059-2.369,2.365-2.369c1.312,0,2.367,1.062,2.367,2.369
		C92.015,48.254,90.96,49.313,89.65,49.313z M101.486,43.396H77.82V17.364h23.668v26.032H101.486z"/>
</g>
</svg>
