<?xml version="1.0" encoding="utf-8"?>
<!-- Generator: Adobe Illustrator 16.0.0, SVG Export Plug-In . SVG Version: 6.00 Build 0)  -->
<!DOCTYPE svg PUBLIC "-//W3C//DTD SVG 1.1//EN" "http://www.w3.org/Graphics/SVG/1.1/DTD/svg11.dtd">
<svg version="1.1" id="Layer_1" xmlns="http://www.w3.org/2000/svg" xmlns:xlink="http://www.w3.org/1999/xlink" x="0px" y="0px"
	 width="179px" height="92px" viewBox="0 0 179 92" enable-background="new 0 0 179 92" xml:space="preserve">
<g>
</g>
<g>
	<g>
		<path fill="#444444" d="M165.346,45.349c1.291,0,2.379,0.517,3.26,1.5c0.877,0.983,1.345,2.067,1.345,3.153
			c0,1.242-0.468,2.379-1.447,3.31c-0.935,0.982-1.968,1.448-3.157,1.448h-12.517c-0.62,0-1.087,0.156-1.499,0.519
			c-0.413,0.31-0.62,0.828-0.62,1.449c0,0.672,0.207,1.19,0.62,1.551c0.412,0.361,0.879,0.565,1.499,0.565h8.226
			c1.5,0,2.896,0.314,4.188,0.936c1.294,0.62,2.381,1.448,3.363,2.534c0.93,1.033,1.654,2.117,2.224,3.309
			c0.519,1.141,0.776,2.484,0.776,3.934c0.055,1.602-0.205,3.103-0.828,4.496c-0.62,1.396-1.4,2.588-2.434,3.57
			s-2.222,1.758-3.564,2.326c-1.396,0.518-2.898,0.828-4.607,0.828h-13.443c-1.242,0-2.326-0.467-3.256-1.293
			c-0.933-0.879-1.398-1.963-1.398-3.312c0-1.186,0.467-2.324,1.346-3.308c0.88-1.035,1.914-1.552,3.206-1.604h13.396
			c1.293,0,1.961-0.569,1.961-1.706c0-1.345-0.668-1.965-1.961-1.965h-8.018c-1.449,0-2.791-0.312-4.136-0.934
			c-1.292-0.62-2.382-1.447-3.312-2.481c-0.981-1.085-1.707-2.276-2.225-3.519c-0.571-1.295-0.825-2.637-0.825-4.084
			c0-1.448,0.254-2.897,0.825-4.242c0.572-1.344,1.345-2.534,2.325-3.568c0.932-1.033,2.069-1.81,3.415-2.43
			c1.349-0.62,2.742-0.931,4.295-0.983H165.346z"/>
		<path fill="#444444" d="M133.383,45.711c1.245,0,2.326,0.463,3.155,1.396c0.878,0.93,1.343,2.019,1.444,3.36v25.757
			c0,1.344-0.41,2.43-1.237,3.309c-0.829,0.88-1.964,1.347-3.362,1.449c-1.293,0-2.322-0.363-3.207-1.14
			c-0.881-0.774-1.447-1.911-1.602-3.308V50.16c0.05-1.243,0.562-2.327,1.496-3.104C131.004,46.229,132.09,45.762,133.383,45.711
			L133.383,45.711z"/>
		<path fill="#DB3500" d="M133.383,34.593c1.245,0,2.326,0.463,3.256,1.395c0.885,0.932,1.346,2.068,1.346,3.311
			c0,1.294-0.461,2.432-1.346,3.363c-0.93,0.929-2.011,1.395-3.256,1.395c-1.449-0.053-2.582-0.466-3.517-1.345
			c-0.88-0.826-1.292-2.069-1.292-3.619c0.05-1.241,0.518-2.328,1.447-3.206C131.004,35.006,132.09,34.593,133.383,34.593
			L133.383,34.593z"/>
		<path fill="#444444" d="M109.127,45.554c2.227,0.261,4.242,0.88,6.156,1.914c1.962,1.034,3.619,2.328,5.018,3.878
			c1.342,1.605,2.43,3.416,3.258,5.432c0.775,2.02,1.188,4.14,1.188,6.363V76.02c0,1.342-0.468,2.431-1.447,3.36
			c-0.985,0.931-2.067,1.397-3.312,1.397c-1.65,0-3.047-0.776-4.033-2.327c-0.258,0.102-0.467,0.205-0.67,0.309
			c-0.208,0.104-0.412,0.208-0.571,0.312c-1.188,0.57-2.38,0.98-3.616,1.294c-1.242,0.257-2.589,0.413-3.984,0.413
			c-3.619,0-6.879-0.983-9.773-2.946c-2.847-1.966-4.968-4.502-6.414-7.655c-0.465-1.087-0.83-2.226-1.087-3.414
			c-0.309-1.14-0.411-2.379-0.411-3.621c0-1.293,0.103-2.483,0.411-3.671c0.257-1.141,0.622-2.276,1.087-3.413
			c1.446-3.154,3.567-5.688,6.414-7.656c2.896-1.911,6.154-2.895,9.773-2.895h1.033C108.507,45.505,108.818,45.505,109.127,45.554
			L109.127,45.554z M109.127,45.554L109.127,45.554z M107.059,71.311c1.086,0,2.17-0.205,3.154-0.67
			c0.982-0.363,1.86-0.983,2.585-1.654c0.728-0.776,1.296-1.604,1.761-2.639c0.416-0.982,0.617-2.068,0.617-3.207
			c0-1.084-0.201-2.119-0.617-3.104c-0.465-0.98-1.033-1.859-1.812-2.637c-0.724-0.726-1.603-1.346-2.64-1.758
			c-0.98-0.468-2.015-0.674-3.051-0.674c-1.082,0-2.117,0.206-3.051,0.674c-0.982,0.412-1.859,1.032-2.639,1.758
			c-0.723,0.776-1.29,1.656-1.758,2.637c-0.412,0.984-0.674,2.02-0.674,3.104c0,1.139,0.262,2.172,0.727,3.156
			c0.465,0.982,1.033,1.86,1.811,2.583c0.775,0.726,1.604,1.296,2.588,1.761C105.043,71.055,106.021,71.311,107.059,71.311
			L107.059,71.311z"/>
		<path fill="#444444" d="M57.103,45.505c1.443,0,2.84,0.207,4.239,0.67c1.395,0.468,2.636,1.191,3.823,2.175
			c2.328-1.916,5.069-2.845,8.171-2.845c1.711,0,3.311,0.31,4.915,0.983c1.55,0.62,2.948,1.549,4.136,2.639
			c1.191,1.135,2.124,2.479,2.847,4.03c0.722,1.551,1.036,3.208,1.036,4.966v18.258c0,1.189-0.469,2.225-1.451,3.104
			c-0.98,0.879-2.067,1.293-3.359,1.293c-1.241,0-2.33-0.467-3.311-1.448c-0.93-0.933-1.396-2.017-1.396-3.31V58.328
			c0-0.928-0.31-1.702-0.984-2.327c-0.672-0.619-1.445-0.929-2.432-0.929c-0.825,0-1.602,0.261-2.324,0.826
			c-0.674,0.518-1.036,1.346-1.036,2.43V76.02c0,1.342-0.461,2.431-1.445,3.36c-0.932,0.931-2.019,1.397-3.365,1.397
			c-1.239,0-2.326-0.414-3.258-1.293c-0.979-0.829-1.5-1.862-1.5-3.104V58.328c-0.051-0.979-0.362-1.756-1.085-2.376
			c-0.67-0.569-1.395-0.879-2.22-0.879c-0.934,0-1.709,0.31-2.383,0.929c-0.674,0.625-1.034,1.4-1.089,2.382v18.101
			c-0.104,1.14-0.565,2.173-1.444,3.002c-0.931,0.879-2.018,1.293-3.261,1.293c-0.671,0-1.293-0.157-1.912-0.363
			c-0.567-0.259-1.087-0.57-1.5-1.034c-0.465-0.414-0.774-0.93-1.086-1.501c-0.258-0.62-0.365-1.189-0.308-1.859V58.123
			c0-1.708,0.308-3.307,1.032-4.857c0.672-1.554,1.605-2.898,2.74-4.039c1.192-1.136,2.536-2.019,4.137-2.688
			C53.581,45.866,55.291,45.505,57.103,45.505L57.103,45.505z"/>
	</g>
	<g>
		<path fill="#DB3500" d="M40.603,38.803c0.646-1.795,0.979-3.698,0.979-5.714c0-1.979-0.333-3.867-0.961-5.641l3.33-0.962
			c0.628,2.089,0.941,4.29,0.941,6.603c0,2.347-0.331,4.566-0.961,6.675L40.603,38.803z"/>
		<path fill="#DB3500" d="M47.185,40.708c0.667-2.479,1.019-5.031,1.035-7.638c0-2.571-0.331-5.085-1.016-7.527l3.292-0.944
			c1.498,5.679,1.498,11.373-0.018,17.07L47.185,40.708z"/>
		<path fill="#DB3500" d="M18.392,38.803c-0.647-1.795-0.979-3.698-0.979-5.714c0-1.979,0.331-3.867,0.959-5.641l-3.326-0.962
			c-0.63,2.089-0.925,4.29-0.925,6.603c0,2.347,0.312,4.566,0.942,6.675L18.392,38.803z"/>
		<path fill="#DB3500" d="M11.828,40.708c-0.687-2.479-1.037-5.031-1.037-7.638c-0.017-2.571,0.314-5.085,0.998-7.527l-3.291-0.944
			c-1.48,5.679-1.48,11.373,0.018,17.07L11.828,40.708z"/>
		<path fill="#DB3500" d="M35.163,22.03c-1.773-0.667-3.679-0.98-5.692-0.98c-2,0-3.884,0.313-5.643,0.961l-0.961-3.329
			c2.072-0.627,4.289-0.942,6.604-0.942c2.348,0,4.566,0.315,6.676,0.961L35.163,22.03z"/>
		<path fill="#DB3500" d="M37.086,15.446c-2.494-0.664-5.047-1.018-7.637-1.035c-2.567-0.02-5.086,0.333-7.544,0.999l-0.943-3.292
			c5.696-1.48,11.394-1.461,17.088,0.017L37.086,15.446z"/>
		<path fill="#DB3500" d="M35.163,44.24c-1.773,0.647-3.679,0.962-5.692,0.962c-2,0-3.884-0.315-5.643-0.944l-0.961,3.312
			c2.072,0.628,4.289,0.941,6.604,0.941c2.348,0,4.566-0.313,6.676-0.961L35.163,44.24z"/>
		<path fill="#DB3500" d="M37.086,50.807c-2.494,0.683-5.047,1.017-7.637,1.034c-2.567,0.019-5.086-0.313-7.544-0.998l-0.943,3.292
			c5.696,1.497,11.394,1.479,17.088-0.021L37.086,50.807z"/>
		<path fill="#DB3500" d="M35.681,26.968c0.852,0.85,1.499,1.832,1.925,2.886c0.149,0.37,0.277,0.74,0.371,1.127h-6.308v-6.307
			c0.39,0.093,0.738,0.223,1.11,0.371C33.852,25.469,34.832,26.119,35.681,26.968L35.681,26.968z M35.681,26.968L35.681,26.968z
			 M37.939,35.363c-0.096,0.37-0.206,0.721-0.351,1.092c-0.409,1.091-1.057,2.071-1.962,2.958c-0.851,0.868-1.812,1.498-2.884,1.922
			c-0.352,0.149-0.722,0.277-1.074,0.37v-6.342H37.939z M37.939,35.363L37.939,35.363z M27.286,41.706
			c-0.37-0.092-0.719-0.22-1.069-0.37c-1.074-0.425-2.038-1.054-2.887-1.922c-0.909-0.888-1.552-1.868-1.962-2.958
			c-0.146-0.371-0.257-0.722-0.351-1.092h6.269V41.706z M27.286,41.706L27.286,41.706z M20.981,30.98
			c0.093-0.387,0.219-0.757,0.37-1.127c0.427-1.074,1.069-2.036,1.923-2.886c0.851-0.849,1.812-1.499,2.903-1.923
			c0.368-0.148,0.724-0.278,1.108-0.371v6.307H20.981z"/>
	</g>
</g>
<g>
</g>
</svg>
