<?xml version="1.0" encoding="utf-8"?>
<!-- Generator: Adobe Illustrator 16.0.0, SVG Export Plug-In . SVG Version: 6.00 Build 0)  -->
<!DOCTYPE svg PUBLIC "-//W3C//DTD SVG 1.1//EN" "http://www.w3.org/Graphics/SVG/1.1/DTD/svg11.dtd">
<svg version="1.1" id="Layer_1" xmlns="http://www.w3.org/2000/svg" xmlns:xlink="http://www.w3.org/1999/xlink" x="0px" y="0px"
	 width="179px" height="92px" viewBox="0 0 179 92" enable-background="new 0 0 179 92" xml:space="preserve">
<path fill="#F6921E" d="M188.181,113.673l-5.099-3.495c-0.554-0.381-0.88-1.014-0.868-1.684l0.133-7.893
	c0.014-0.828,0.535-1.561,1.313-1.845l5.234-1.912l-0.171,6.738l0.24,9.664C188.975,113.657,188.518,113.904,188.181,113.673"/>
<path fill="#FAAF40" d="M161.985,96.934l5.099,3.495c0.555,0.381,0.88,1.014,0.868,1.684l-0.133,7.893
	c-0.014,0.828-0.535,1.561-1.313,1.844l-5.281,1.913v-6.907v-9.496C161.215,96.95,161.648,96.703,161.985,96.934"/>
<g>
	<path fill-rule="evenodd" clip-rule="evenodd" fill="#D10015" d="M-52.921,621.997c0,0.302-0.098,0.603-0.398,0.802
		c-0.199,0.198-0.5,0.301-0.902,0.301c-0.398,0-0.699-0.103-1-0.398c-0.199-0.301-0.297-0.602-0.297-1.204
		c0-0.397,0.098-0.796,0.297-1.097c0.301-0.199,0.602-0.403,1.102-0.403c0.398,0,0.602,0.103,0.801,0.302
		c0.301,0.198,0.398,0.402,0.398,0.801h-0.598c0-0.199-0.102-0.301-0.203-0.398c-0.098-0.102-0.199-0.204-0.398-0.204
		c-0.301,0-0.5,0.103-0.603,0.302c-0.198,0.198-0.198,0.402-0.198,0.698c0,0.403,0,0.603,0.198,0.802
		c0.103,0.198,0.302,0.301,0.603,0.301c0.102,0,0.301-0.103,0.398-0.199c0.102-0.102,0.203-0.199,0.203-0.403H-52.921z
		 M-52.921,621.997L-52.921,621.997z M-48.12,621.497c0,0.403,0,0.603,0.199,0.802c0.102,0.198,0.301,0.301,0.602,0.301
		c0.199,0,0.398-0.103,0.598-0.301c0.102-0.199,0.203-0.398,0.203-0.802c0-0.296-0.102-0.5-0.203-0.698
		c-0.199-0.199-0.398-0.302-0.598-0.302c-0.301,0-0.5,0.103-0.602,0.302C-48.12,620.997-48.12,621.201-48.12,621.497L-48.12,621.497
		z M-48.12,621.497L-48.12,621.497z M-48.723,621.497c0-0.397,0.103-0.796,0.403-1.097c0.199-0.199,0.598-0.403,1-0.403
		c0.398,0,0.801,0.204,1,0.403c0.301,0.301,0.398,0.699,0.398,1.097c0,0.603-0.098,0.903-0.398,1.204
		c-0.199,0.296-0.602,0.398-1,0.398c-0.402,0-0.801-0.103-1-0.398C-48.62,622.4-48.723,622.1-48.723,621.497L-48.723,621.497z
		 M-48.723,621.497L-48.723,621.497z M-41.62,622.997V620.1h0.898l0.5,2.199l0.602-2.199h0.898v2.897h-0.598v-2.296l-0.602,2.296
		h-0.598l-0.602-2.296v2.296H-41.62z M-41.62,622.997L-41.62,622.997z M-34.319,620.1h0.597v1.801c0,0.301,0,0.398,0.103,0.5
		c0.102,0.097,0.301,0.199,0.5,0.199s0.301-0.103,0.398-0.199c0.102-0.102,0.102-0.199,0.102-0.5V620.1h0.602v1.897
		c0,0.302-0.102,0.603-0.301,0.802c-0.199,0.198-0.5,0.301-0.801,0.301c-0.398,0-0.699-0.103-0.898-0.301
		c-0.203-0.199-0.301-0.5-0.301-0.802V620.1z M-34.319,620.1L-34.319,620.1z M-27.62,622.997V620.1h0.602l1.199,2v-2h0.598v2.897
		h-0.598l-1.199-2v2H-27.62z M-27.62,622.997L-27.62,622.997z M-20.819,622.997V620.1h0.598v2.897H-20.819z M-20.819,622.997
		L-20.819,622.997z M-13.222,621.997c-0.098,0.302-0.199,0.603-0.398,0.802c-0.301,0.198-0.5,0.301-0.898,0.301
		c-0.402,0-0.801-0.103-1-0.398c-0.301-0.301-0.402-0.602-0.402-1.204c0-0.397,0.199-0.796,0.402-1.097
		c0.199-0.199,0.598-0.403,1-0.403c0.398,0,0.699,0.103,0.898,0.302c0.199,0.198,0.301,0.402,0.398,0.801h-0.598
		c-0.102-0.199-0.102-0.301-0.199-0.398c-0.102-0.102-0.301-0.204-0.5-0.204c-0.203,0-0.402,0.103-0.602,0.302
		c-0.102,0.198-0.199,0.402-0.199,0.698c0,0.403,0.098,0.603,0.199,0.802c0.199,0.198,0.398,0.301,0.602,0.301
		c0.199,0,0.297-0.103,0.5-0.199c0.098-0.102,0.098-0.199,0.199-0.403H-13.222z M-13.222,621.997L-13.222,621.997z M-7.921,620.701
		l-0.398,1.199h0.801L-7.921,620.701z M-7.921,620.701L-7.921,620.701z M-8.222,620.1h0.703l1,2.897H-7.12l-0.199-0.597h-1.102
		l-0.199,0.597h-0.602L-8.222,620.1z M-8.222,620.1L-8.222,620.1z M0.079,621.997c0,0.302-0.098,0.603-0.301,0.802
		c-0.199,0.198-0.5,0.301-0.797,0.301v0.102c0.098,0,0.297,0,0.297,0.098c0.102,0,0.203,0.102,0.203,0.301
		c0,0.102-0.102,0.199-0.203,0.199c0,0.102-0.199,0.198-0.297,0.198c-0.102,0-0.203,0-0.301-0.097H-1.62V623.6
		c0.102,0,0.199,0.102,0.301,0.102h0.398V623.4h-0.301V623.1c-0.398,0-0.699-0.199-0.898-0.5c-0.301-0.199-0.398-0.603-0.398-1.103
		c0-0.397,0.098-0.796,0.398-1.097c0.199-0.199,0.602-0.403,1-0.403s0.699,0.103,0.898,0.302c0.203,0.198,0.301,0.402,0.301,0.801
		h-0.5c-0.098-0.199-0.098-0.301-0.199-0.398c-0.102-0.102-0.301-0.204-0.5-0.204s-0.398,0.103-0.602,0.302
		c-0.098,0.198-0.199,0.402-0.199,0.698c0,0.403,0.102,0.603,0.199,0.802c0.203,0.198,0.301,0.301,0.602,0.301
		c0.199,0,0.301-0.103,0.398-0.199c0.203-0.102,0.203-0.199,0.301-0.403H0.079z M0.079,621.997L0.079,621.997z M5.481,620.701
		L5.079,621.9H5.88L5.481,620.701z M5.481,620.701L5.481,620.701z M5.181,620.1H5.88l1,2.897H6.278L6.079,622.4H4.981l-0.203,0.597
		H4.181L5.181,620.1z M5.181,620.1L5.181,620.1z M6.079,619.201c0,0.199,0,0.296-0.098,0.398c-0.102,0.102-0.203,0.102-0.301,0.102
		H5.579L5.38,619.6H5.181c0,0.102-0.102,0.102-0.102,0.199H4.88c0-0.199,0.102-0.302,0.102-0.398
		c0.098-0.102,0.199-0.102,0.297-0.102h0.203l0.098,0.102H5.88v-0.199H6.079z M6.079,619.201L6.079,619.201z M11.481,621.497
		c0,0.403,0.098,0.603,0.199,0.802c0.098,0.198,0.301,0.301,0.598,0.301c0.301,0,0.5-0.103,0.602-0.301
		c0.102-0.199,0.199-0.398,0.199-0.802c0-0.296-0.098-0.5-0.199-0.698c-0.102-0.199-0.301-0.302-0.602-0.302
		c-0.297,0-0.5,0.103-0.598,0.302C11.579,620.997,11.481,621.201,11.481,621.497L11.481,621.497z M11.481,621.497L11.481,621.497z
		 M10.88,621.497c0-0.397,0.102-0.796,0.398-1.097c0.203-0.199,0.602-0.403,1-0.403c0.402,0,0.801,0.204,1,0.403
		c0.301,0.301,0.402,0.699,0.402,1.097c0,0.603-0.102,0.903-0.402,1.204c-0.199,0.296-0.598,0.398-1,0.398
		c-0.398,0-0.797-0.103-1-0.398C10.981,622.4,10.88,622.1,10.88,621.497L10.88,621.497z M10.88,621.497"/>
	<path fill-rule="evenodd" clip-rule="evenodd" fill="#1B1918" d="M1.278,606.497c0-1.198,0.203-2.296,0.5-3.296
		c0.5-1.602,1.5-3.102,2.602-4.301c0.5-0.5,1.102-1,1.602-1.301c0.598-0.398,1.199-0.699,1.797-1c0.602-0.301,1.301-0.5,1.902-0.603
		c0.699-0.097,1.398-0.198,2.098-0.198c0.703,0,1.402,0.102,2.102,0.198c0.602,0.103,1.301,0.302,1.898,0.603
		c0.602,0.301,1.301,0.602,1.801,1c1.102,0.699,2.199,1.801,2.902,2.897c0.398,0.603,0.699,1.204,1,1.903
		c0.297,0.597,0.5,1.301,0.598,2c0.102,0.699,0.199,1.398,0.199,2.097c0,0.704-0.098,1.403-0.199,2.103l-0.301,1.199
		c-0.098,0.402-0.297,0.902-0.5,1.402c-0.199,0.398-0.5,0.898-0.797,1.296c-0.203,0.403-0.402,0.704-0.703,1
		c-0.297,0.403-0.797,0.802-1.199,1.204c-0.301,0.296-0.598,0.5-1,0.796c-0.5,0.403-1.199,0.704-1.801,1
		c-0.598,0.204-1.297,0.403-1.898,0.603c-0.699,0.102-1.398,0.199-2.102,0.199c-0.699,0-1.398-0.098-2.098-0.199
		c-0.602-0.199-1.301-0.398-1.902-0.603c-0.598-0.296-1.199-0.597-1.797-1c-0.402-0.296-0.801-0.597-1.203-1l-0.699-0.698
		c-0.398-0.398-0.699-0.802-1-1.302c-0.301-0.397-0.5-0.796-0.699-1.198c-0.199-0.398-0.301-0.699-0.398-1
		c-0.203-0.598-0.402-1.098-0.5-1.699C1.38,607.9,1.278,607.201,1.278,606.497L1.278,606.497z M1.278,606.497L1.278,606.497z
		 M5.579,606.4c0,1,0.102,1.898,0.402,2.699c0.297,0.801,0.797,1.5,1.398,2.199c0.602,0.602,1.301,1.102,2,1.5
		c0.699,0.301,1.5,0.5,2.398,0.5c1.902-0.098,3.102-0.598,4.402-2c0.598-0.699,1.098-1.398,1.398-2.199s0.402-1.699,0.402-2.699
		c0-1.903-0.602-3.5-1.801-4.801c-0.602-0.603-1.301-1.103-2-1.398c-0.699-0.402-1.5-0.5-2.402-0.5c-0.898,0-1.699,0.098-2.398,0.5
		c-0.398,0.199-0.898,0.5-1.301,0.796c-0.898,0.802-1.699,1.704-2.098,2.802C5.681,604.6,5.579,605.497,5.579,606.4L5.579,606.4z
		 M5.579,606.4"/>
	<path fill-rule="evenodd" clip-rule="evenodd" fill="#1B1918" d="M-24.62,616.6v-1.5c-0.199,0.199-0.5,0.397-0.801,0.602
		c-0.301,0.199-0.598,0.296-0.898,0.5c-0.301,0.199-0.602,0.296-1,0.398c-0.5,0.199-1,0.301-1.5,0.5
		c-0.602,0.102-1.301,0.199-2,0.199c-0.602,0-1.199-0.098-1.699-0.199c-1-0.199-2-0.5-2.902-0.898
		c-0.801-0.402-1.5-0.902-2.098-1.402c-0.402-0.302-0.704-0.699-1.102-1.098c-0.602-0.602-1-1.301-1.398-2.102
		c-0.402-0.699-0.703-1.603-0.902-2.398c-0.199-0.902-0.302-1.801-0.302-2.704c0-1.597,0.204-3,0.704-4.296
		c0.398-1,1-1.902,1.598-2.704c1.102-1.296,2.5-2.296,3.902-2.897c1.098-0.5,2.199-0.699,3.398-0.801c1,0,1.898,0,2.898,0.198
		c0.902,0.204,1.902,0.5,2.801,1c1,0.5,1.902,1.204,2.698,2.103c0.704,0.602,1.204,1.397,1.603,2.301
		c0.301,0.398,0.398,0.801,0.602,1.199c0.199,0.897,0.398,1.699,0.5,2.602c0.098,1,0.098,2,0.098,3v8.398
		c0,0.199-0.098,0.301-0.301,0.301h-3.598C-24.519,616.9-24.62,616.799-24.62,616.6L-24.62,616.6z M-24.62,616.6L-24.62,616.6z
		 M-32.319,599.9c-0.301,0-0.602,0.097-0.902,0.301c-0.501,0.199-1,0.5-1.5,0.898c-0.398,0.301-0.699,0.699-1,1.199
		c-0.398,0.402-0.699,1-0.898,1.5c-0.301,0.801-0.398,1.698-0.398,2.602c0,1,0.098,1.898,0.398,2.699s0.801,1.5,1.397,2.199
		c0.603,0.602,1.302,1.102,2.001,1.5c0.602,0.198,1.203,0.402,1.902,0.402h0.199v0.098h0.301c0.598,0,1.098-0.098,1.699-0.302
		c2-0.597,3.301-2,4-3.897c0.301-0.801,0.5-1.699,0.5-2.699c0-1.903-0.602-3.5-1.801-4.801c-0.598-0.603-1.302-1.103-2-1.398
		C-29.62,599.6-31.019,599.497-32.319,599.9L-32.319,599.9z M-32.319,599.9"/>
	<path fill-rule="evenodd" clip-rule="evenodd" fill="#1B1918" d="M-62.819,590.799h3.597c0.103,0,0.204,0.102,0.204,0.198v5.103
		h5.898c0.199,0,0.301,0.199,0.301,0.301v3.5c0,0.097-0.102,0.199-0.301,0.199h-5.898v8.397c0,1.403,0.297,2.5,0.898,3.204
		c0.301,0.296,0.801,0.699,1.699,1c0.602,0.199,1.301,0.296,2.199,0.296h1.102c0.199,0,0.301,0.103,0.301,0.204v3.398
		c0,0.199-0.102,0.301-0.301,0.301h-1.199c-2.699,0-4.801-0.602-6.301-1.699c-0.199-0.204-0.398-0.402-0.699-0.602
		c-0.5-0.603-0.903-1.301-1.199-2.103c-0.402-0.897-0.602-2.097-0.602-3.397v-18.103C-63.12,590.9-63.019,590.799-62.819,590.799
		L-62.819,590.799z M-62.819,590.799"/>
	<path fill-rule="evenodd" clip-rule="evenodd" fill="#1B1918" d="M-51.62,616.6V596.4c0-0.102,0.102-0.199,0.301-0.199h3.301
		c0.098,0,0.297,0.098,0.297,0.199v2.097c0.203-0.296,0.402-0.597,0.602-0.796c0.699-0.704,1.5-1.102,2.5-1.402
		c0.301-0.199,0.699-0.199,1.102-0.302c0.699-0.097,1.5-0.198,2.5-0.198h0.898c0.199,0,0.301,0.102,0.301,0.198v3.5
		c0,0.204-0.102,0.302-0.301,0.302h-0.5c-1.199,0-2.301,0.102-3.199,0.402c-0.801,0.296-1.5,0.699-2.102,1.296
		c-0.5,0.5-0.898,1.302-1.199,2.204c-0.199,0.898-0.398,2.098-0.398,3.398v9.5c0,0.199-0.102,0.301-0.203,0.301h-3.598
		C-51.519,616.9-51.62,616.799-51.62,616.6L-51.62,616.6z M-51.62,616.6"/>
	<path fill-rule="evenodd" clip-rule="evenodd" fill="#1B1918" d="M-18.921,590.799h3.602c0.199,0,0.301,0.102,0.301,0.198v4h-4.102
		v-4C-19.12,590.9-19.12,590.799-18.921,590.799L-18.921,590.799z M-18.921,590.799L-18.921,590.799z M-15.019,597.9v10.597
		c0,1.302,0.199,2.302,0.699,3c0.301,0.302,0.598,0.603,1,0.802c0.301,0.198,0.5,0.301,0.898,0.402
		c0.5,0.199,1.301,0.296,2.102,0.296h1.199c0.102,0,0.199,0.103,0.199,0.204v3.398c0,0.199-0.098,0.301-0.199,0.301h-1.199
		c-1.5,0-2.699-0.102-3.902-0.5c-0.898-0.301-1.699-0.699-2.398-1.199c-0.199-0.102-0.398-0.301-0.602-0.5
		c-0.598-0.602-1.098-1.402-1.398-2.204c-0.398-0.897-0.5-2.097-0.5-3.397V597.9H-15.019z M-15.019,597.9"/>
	<path fill-rule="evenodd" clip-rule="evenodd" fill="#1B1918" d="M-8.222,590.799h3.602c0.199,0,0.301,0.102,0.301,0.198v4H-4.62
		c-0.102,0-1.602,0.103-1.801,0.103l0.5-0.103c0.301,0,0.199-0.097,0-0.097h-0.598c-0.602,0-1.301,0-1.902,0.097v-4
		C-8.421,590.9-8.319,590.799-8.222,590.799L-8.222,590.799z M-8.222,590.799L-8.222,590.799z M-4.319,596.997v0.103
		C-4.62,597.1-4.722,597.1-4.319,596.997L-4.319,596.997z M-4.319,596.997L-4.319,596.997z M-4.319,597.799v10.698
		c0,0.802,0.098,1.403,0.301,2c0.398,1.302,0.898,1.802,2.297,2.204c0.602,0.199,1.301,0.296,2.102,0.296h1.199
		c0.102,0,0.199,0.103,0.199,0.204v3.398c0,0.199-0.098,0.301-0.199,0.301H0.38c-1.5,0-2.699-0.102-3.898-0.5
		c-0.703-0.199-1.301-0.403-1.801-0.801c-0.602-0.398-1.102-0.801-1.602-1.301c-0.398-0.5-0.699-1.098-1-1.802
		c-0.398-0.897-0.5-2.097-0.5-3.397v-11.301H-4.319z M-4.319,597.799"/>
	<path fill-rule="evenodd" clip-rule="evenodd" fill="#1B1918" d="M-4.319,594.997v2.103c-0.301,0-0.199,0.102,0,0.102v0.598h-1.199
		c-0.902,0-2,0-2.902,0.102v-2.903c0.602,0,1.301-0.097,1.902-0.097h0.598c0.301,0,0.301,0.097,0,0.097l-0.398,0.103
		c0.098,0,1.598,0,1.699-0.103H-4.319z M-4.319,594.997"/>
	<path fill-rule="evenodd" clip-rule="evenodd" fill="#1B1918" d="M18.681,594.997v0.302h0.301c0,0,0.098,0,0.098-0.098
		l-0.098-0.102c0-0.103-0.102-0.103-0.203-0.103H18.681z M18.681,594.997L18.681,594.997z M18.38,594.799h0.5
		c0.199,0,0.301,0,0.398,0.102c0.102,0.097,0.102,0.199,0.102,0.301v0.199c-0.102,0-0.199,0.097-0.199,0.097l0.199,0.603h-0.301
		l-0.301-0.603h-0.098v0.603H18.38V594.799z M18.38,594.799L18.38,594.799z M18.88,594.497c-0.199,0-0.301,0-0.398,0.103
		c-0.102,0-0.203,0.102-0.301,0.199c-0.102,0.102-0.102,0.198-0.199,0.301c-0.102,0.102-0.102,0.199-0.102,0.397
		c0,0.103,0,0.204,0.102,0.302c0,0.102,0.098,0.198,0.199,0.301c0.098,0.102,0.199,0.199,0.301,0.199
		c0.098,0.102,0.199,0.102,0.398,0.102c0.102,0,0.199,0,0.301-0.102c0.098,0,0.199-0.098,0.301-0.199
		c0.098,0,0.199-0.199,0.199-0.301c0.098-0.098,0.098-0.199,0.098-0.302c0-0.198,0-0.296-0.098-0.397
		c0-0.103-0.102-0.199-0.199-0.301c-0.102-0.098-0.203-0.199-0.301-0.199C19.079,594.6,18.981,594.497,18.88,594.497L18.88,594.497z
		 M18.88,594.497L18.88,594.497z M18.88,594.299c0.102,0,0.301,0.102,0.398,0.102c0.102,0.097,0.301,0.097,0.402,0.199
		c0.098,0.199,0.098,0.301,0.199,0.397c0.102,0.204,0.102,0.302,0.102,0.5c0,0.103,0,0.204-0.102,0.403s-0.102,0.301-0.301,0.398
		c0,0.102-0.199,0.198-0.301,0.198c-0.098,0.103-0.297,0.103-0.398,0.103c-0.199,0-0.398,0-0.5-0.103
		c-0.102,0-0.199-0.097-0.301-0.198c-0.199-0.199-0.199-0.302-0.301-0.398c-0.098-0.199-0.098-0.301-0.098-0.403
		c0-0.198,0.098-0.296,0.098-0.5c0.102-0.097,0.203-0.296,0.301-0.397c0.102-0.103,0.199-0.199,0.301-0.199
		C18.579,594.299,18.681,594.299,18.88,594.299L18.88,594.299z M18.88,594.299"/>
	<path fill-rule="evenodd" clip-rule="evenodd" fill="#D10015" d="M-11.519,597.9h-9.703c-0.699,0-1.398,0-2.001-0.102
		c-0.198,0.102-0.796-0.098-0.597-0.199l0.199-0.103c-0.398,0-0.801-0.097-0.5-0.198c-0.301-0.098-0.102-0.199,0.102-0.199
		l0.199-0.103c-0.199-0.097-0.402-0.097-0.199-0.198c0.098,0,0.199,0,0.398-0.098c-0.102-0.102-0.102-0.204-0.102-0.301
		c-0.098-0.102-0.5-0.102-0.199-0.199h0.102c0,0,0-0.102-0.102-0.102c-0.301-0.103-0.199-0.199,0.102-0.199
		c0-0.102,0.098-0.199,0-0.199c-0.102,0-0.301,0-0.301-0.204c0-0.097,0-0.097,0.102-0.198c0.199-0.098,0.398-0.098,0.699-0.098
		c0.097,0,0.199,0,0.301-0.102c0.199,0,0.297-0.199,0.598-0.199c0.199,0.097,2,0.097,2.402,0.097h7.098c2.102,0,4.301,0,6.402-0.097
		h0.598c0.301,0,0.301,0.097,0,0.097l-0.398,0.103c0.098,0,1.598-0.103,1.699-0.103l2.102-0.097h0.398
		c0.301-0.102,1-0.102,1.301-0.102c0.098,0,0.301,0,0.398-0.098L1.38,594.6h0.602c0.199-0.103,0.297-0.103,0.398-0.103
		c0.602,0,1.5-0.097,2-0.198c0.301,0,2.301-0.302,2.398-0.302c0.602,0-0.5,0.302-0.699,0.403l2.5-0.301l2.402-0.301
		c1.199-0.199,2.297-0.5,3.5-0.699c2.098-0.301,1.199,0,0,0.301l-1.203,0.301c-0.297,0.098-4,0.699-1.898,0.398
		c0.699-0.103,1.699-0.301,2.102-0.301c0.5-0.098,0.297,0,0,0.102c-0.602,0.199-2.602,0.5-2.801,0.597
		c-2.801,0.5-5.5,0.704-8.402,1.103c0,0.102-0.199,0.102-0.398,0.102c-1.699,0.199-1.602,0.296,0.199,0
		c2.301-0.301,4.801-0.5,7.102-0.902c0.199,0,1.898-0.302,2.5-0.398c0.301,0,0.199,0.199,0,0.199c-0.102,0.102-0.5,0.199-0.5,0.199
		h0.301c0.5-0.098,0.199,0,0,0.102c-0.102,0.097-0.203,0.097-0.301,0.097l0.598-0.097c0.402,0,0.402,0.097,0,0.097l-1.797,0.302
		c-0.203,0-1.801,0.402-2,0.402H8.38c0.102,0-0.102,0.098-0.301,0.199H7.681c-0.801,0.199-1.5,0.199-2.402,0.301
		c-0.699,0.098-1.5,0.199-2.398,0.296c-1.898,0.302-4,0.403-6,0.5c-2.398,0.103-1.199,0.204-0.102,0.103
		c1.203,0,2.402,0,3.602-0.103c0.301-0.097,1.398-0.097,1.801-0.097c0.199-0.102,1.598-0.199,1.699-0.199
		C3.681,596.9,3.681,596.9,3.481,596.9c-0.5,0.097-2.902,0.301-3.5,0.301H0.88c0.699,0,0.5,0.098,0,0.199
		c-0.602,0-1.5,0.097-1.699,0.199c-1.102,0.199-3.5,0.199-4.602,0.199C-7.421,597.799-9.421,597.9-11.519,597.9L-11.519,597.9z
		 M-11.519,597.9"/>
	<path fill-rule="evenodd" clip-rule="evenodd" fill="#1B1918" d="M-1078.819,621.4v-1.199h1.199v1.199H-1078.819z M-1078.819,621.4
		L-1078.819,621.4z M-1075.518,616.4v-1.199h1.199v1.199H-1075.518z M-1075.518,616.4L-1075.518,616.4z M-1075.518,621.4v-1.199
		h1.199v1.199H-1075.518z M-1075.518,621.4L-1075.518,621.4z M-1069.018,621.4v-8.602h1.097v7.602h4.301v1H-1069.018z
		 M-1069.018,621.4L-1069.018,621.4z M-1062.819,618.299c0-1.199,0.301-2,0.898-2.598c0.602-0.5,1.199-0.704,2-0.704
		c0.903,0,1.602,0.302,2.102,0.903c0.597,0.5,0.801,1.301,0.801,2.301c0,0.796-0.102,1.398-0.403,1.898
		c-0.199,0.5-0.5,0.801-1,1.102c-0.5,0.199-0.898,0.398-1.5,0.398c-0.898,0-1.597-0.301-2.097-0.898
		C-1062.518,620.201-1062.819,619.4-1062.819,618.299L-1062.819,618.299z M-1062.819,618.299L-1062.819,618.299z M-1061.722,618.299
		c0,0.801,0.102,1.402,0.5,1.801c0.301,0.397,0.801,0.602,1.301,0.602s1-0.204,1.301-0.602c0.398-0.398,0.5-1,0.5-1.801
		c0-0.802-0.102-1.398-0.5-1.802c-0.301-0.397-0.801-0.597-1.301-0.597s-1,0.199-1.301,0.597
		C-1061.62,616.9-1061.722,617.497-1061.722,618.299L-1061.722,618.299z M-1061.722,618.299L-1061.722,618.299z M-1055.921,621.9
		l1,0.199c0,0.301,0.199,0.5,0.403,0.699c0.199,0.198,0.597,0.301,1,0.301c0.5,0,0.898-0.103,1.097-0.301
		c0.301-0.199,0.5-0.5,0.602-0.802c0-0.296,0.097-0.698,0.097-1.397c-0.5,0.5-1.097,0.801-1.796,0.801c-0.801,0-1.5-0.301-2-0.903
		c-0.403-0.597-0.704-1.397-0.704-2.198c0-0.598,0.102-1.199,0.403-1.699c0.199-0.5,0.5-0.898,0.898-1.199
		c0.403-0.199,0.903-0.403,1.5-0.403c0.699,0,1.301,0.302,1.801,0.903v-0.699h0.898v5.398c0,0.897-0.097,1.602-0.296,2
		c-0.102,0.397-0.5,0.801-0.903,1c-0.398,0.199-0.898,0.397-1.597,0.397c-0.704,0-1.301-0.198-1.801-0.597
		C-1055.722,623.1-1056.018,622.6-1055.921,621.9L-1055.921,621.9z M-1055.921,621.9L-1055.921,621.9z M-1055.12,618.201
		c0,0.796,0.199,1.398,0.5,1.796c0.301,0.403,0.801,0.5,1.199,0.5c0.5,0,0.903-0.097,1.301-0.5c0.301-0.397,0.398-1,0.398-1.796
		c0-0.801-0.097-1.301-0.5-1.704c-0.296-0.397-0.699-0.597-1.199-0.597c-0.398,0-0.801,0.199-1.199,0.597
		C-1054.921,616.9-1055.12,617.4-1055.12,618.201L-1055.12,618.201z M-1055.12,618.201L-1055.12,618.201z M-1049.518,618.299
		c0-1.199,0.398-2,1-2.598c0.5-0.5,1.199-0.704,1.898-0.704c0.898,0,1.602,0.302,2.102,0.903c0.597,0.5,0.898,1.301,0.898,2.301
		c0,0.796-0.102,1.398-0.398,1.898c-0.204,0.5-0.602,0.801-1.102,1.102c-0.398,0.199-0.898,0.398-1.5,0.398
		c-0.801,0-1.5-0.301-2.102-0.898C-1049.222,620.201-1049.518,619.4-1049.518,618.299L-1049.518,618.299z M-1049.518,618.299
		L-1049.518,618.299z M-1048.421,618.299c0,0.801,0.199,1.402,0.5,1.801c0.403,0.397,0.801,0.602,1.301,0.602
		c0.602,0,1-0.204,1.301-0.602c0.398-0.398,0.597-1,0.597-1.801c0-0.802-0.199-1.398-0.597-1.802
		c-0.301-0.397-0.699-0.597-1.301-0.597c-0.5,0-0.898,0.199-1.301,0.597C-1048.222,616.9-1048.421,617.497-1048.421,618.299
		L-1048.421,618.299z M-1048.421,618.299L-1048.421,618.299z M-1042.421,621.4v-6.199h0.903v0.796c0.199-0.296,0.5-0.5,0.796-0.698
		c0.403-0.199,0.704-0.302,1.102-0.302c0.5,0,0.898,0.103,1.199,0.302c0.301,0.198,0.5,0.5,0.602,0.801
		c0.5-0.699,1.097-1.103,1.898-1.103c0.699,0,1.102,0.204,1.403,0.5c0.398,0.403,0.597,0.903,0.597,1.603v4.301h-1.097v-3.903
		c0-0.397,0-0.698-0.102-0.897s-0.199-0.398-0.398-0.5c-0.102-0.103-0.403-0.103-0.602-0.103c-0.398,0-0.801,0.103-1.102,0.403
		c-0.296,0.301-0.5,0.699-0.5,1.398v3.602h-1v-4.102c0-0.398-0.097-0.802-0.296-1c-0.102-0.199-0.403-0.302-0.801-0.302
		c-0.301,0-0.602,0-0.801,0.204c-0.301,0.098-0.5,0.398-0.602,0.699c-0.097,0.301-0.097,0.699-0.097,1.301v3.199H-1042.421z
		 M-1042.421,621.4L-1042.421,621.4z M-1028.319,620.701c-0.403,0.296-0.801,0.5-1.102,0.699c-0.398,0.097-0.801,0.199-1.199,0.199
		c-0.699,0-1.199-0.199-1.602-0.5c-0.398-0.398-0.5-0.801-0.5-1.301c0-0.302,0-0.598,0.204-0.898c0.097-0.199,0.296-0.403,0.5-0.602
		c0.199-0.098,0.5-0.199,0.796-0.302c0.204-0.097,0.5-0.097,0.903-0.198c0.898-0.098,1.5-0.199,1.898-0.398v-0.199
		c0-0.402-0.097-0.801-0.301-0.902c-0.296-0.302-0.699-0.398-1.199-0.398s-0.898,0.097-1.097,0.301
		c-0.204,0.098-0.403,0.398-0.5,0.898l-1.102-0.199c0.102-0.403,0.301-0.699,0.5-1s0.5-0.5,0.898-0.699
		c0.5-0.102,0.903-0.204,1.5-0.204c0.5,0,0.903,0.103,1.301,0.204c0.301,0.098,0.5,0.296,0.699,0.5
		c0.102,0.199,0.301,0.398,0.301,0.699c0,0.199,0.102,0.5,0.102,1v3.301c0.097,0.199,0.199,0.5,0.301,0.699h-1.102
		C-1028.222,621.201-1028.319,620.9-1028.319,620.701L-1028.319,620.701z M-1028.319,620.701L-1028.319,620.701z M-1028.421,618.299
		c-0.398,0.198-0.898,0.301-1.699,0.402c-0.5,0.098-0.801,0.098-0.898,0.199c-0.204,0.097-0.403,0.199-0.5,0.301
		c-0.102,0.199-0.102,0.398-0.102,0.598c0,0.198,0.102,0.5,0.301,0.698c0.199,0.103,0.5,0.204,1,0.204c0.398,0,0.699-0.102,1-0.204
		c0.301-0.198,0.597-0.5,0.699-0.796c0.102-0.204,0.199-0.5,0.199-1V618.299z M-1028.421,618.299L-1028.421,618.299z
		 M-1025.722,621.4v-6.199h0.903v0.898c0.301-0.398,0.5-0.699,0.699-0.898c0.199-0.102,0.398-0.204,0.699-0.204
		c0.301,0,0.699,0.103,1.102,0.403l-0.403,1c-0.199-0.199-0.5-0.301-0.796-0.301c-0.204,0-0.403,0.102-0.602,0.199
		c-0.199,0.198-0.301,0.402-0.398,0.602c-0.102,0.398-0.204,0.801-0.204,1.199v3.301H-1025.722z M-1025.722,621.4L-1025.722,621.4z
		 M-1017.62,619.1l1,0.199c-0.102,0.698-0.398,1.198-0.898,1.602c-0.5,0.5-1,0.699-1.704,0.699c-0.898,0-1.5-0.301-2-0.898
		c-0.597-0.5-0.796-1.301-0.796-2.402c0-0.699,0.097-1.302,0.296-1.699c0.204-0.603,0.602-0.898,1-1.199
		c0.5-0.199,1-0.403,1.5-0.403c0.704,0,1.204,0.204,1.704,0.5c0.398,0.403,0.699,0.903,0.796,1.5l-1,0.103
		c-0.097-0.301-0.296-0.699-0.597-0.898c-0.199-0.204-0.5-0.301-0.801-0.301c-0.602,0-1,0.199-1.301,0.597
		c-0.398,0.302-0.597,1-0.597,1.802c0,0.801,0.199,1.5,0.5,1.801c0.398,0.397,0.796,0.602,1.296,0.602c0.403,0,0.704-0.102,1-0.402
		C-1017.921,620.1-1017.722,619.701-1017.62,619.1L-1017.62,619.1z M-1017.62,619.1L-1017.62,619.1z M-1011.62,620.701
		c-0.398,0.296-0.801,0.5-1.199,0.699c-0.301,0.097-0.699,0.199-1.102,0.199c-0.699,0-1.199-0.199-1.597-0.5
		c-0.403-0.398-0.602-0.801-0.602-1.301c0-0.302,0.102-0.598,0.199-0.898l0.602-0.602c0.199-0.098,0.5-0.199,0.699-0.302
		c0.199-0.097,0.602-0.097,1-0.198c0.801-0.098,1.5-0.199,1.898-0.398v-0.199c0-0.402-0.097-0.801-0.296-0.902
		c-0.301-0.302-0.704-0.398-1.204-0.398s-0.898,0.097-1.097,0.301c-0.301,0.098-0.5,0.398-0.602,0.898l-1-0.199
		c0.102-0.403,0.301-0.699,0.5-1c0.199-0.301,0.5-0.5,0.903-0.699c0.398-0.102,0.898-0.204,1.398-0.204c0.602,0,1,0.103,1.301,0.204
		c0.301,0.098,0.597,0.296,0.801,0.5c0.097,0.199,0.199,0.398,0.296,0.699v2.398c0,1,0.102,1.602,0.102,1.902
		c0,0.199,0.102,0.5,0.301,0.699h-1.102C-1011.518,621.201-1011.62,620.9-1011.62,620.701L-1011.62,620.701z M-1011.62,620.701
		L-1011.62,620.701z M-1011.722,618.299c-0.398,0.198-1,0.301-1.699,0.402c-0.5,0.098-0.801,0.098-1,0.199
		c-0.199,0.097-0.301,0.199-0.398,0.301c-0.102,0.199-0.102,0.398-0.102,0.598c0,0.198,0.102,0.5,0.301,0.698
		c0.199,0.103,0.5,0.204,0.898,0.204c0.403,0,0.801-0.102,1.102-0.204c0.301-0.198,0.5-0.5,0.699-0.796
		c0.102-0.204,0.199-0.5,0.199-1V618.299z M-1011.722,618.299L-1011.722,618.299z M-1006.018,617.1c0-0.898,0.097-1.801,0.296-2.398
		c0.204-0.602,0.5-1.102,1-1.402c0.403-0.398,0.903-0.5,1.5-0.5c0.5,0,0.903,0.102,1.204,0.198c0.398,0.204,0.699,0.5,0.898,0.903
		c0.199,0.301,0.398,0.699,0.5,1.199s0.199,1.199,0.199,2c0,1.102-0.097,1.897-0.301,2.5c-0.199,0.602-0.5,1.102-0.898,1.5
		c-0.5,0.301-1,0.5-1.602,0.5c-0.796,0-1.5-0.301-1.898-0.898C-1005.722,619.997-1006.018,618.799-1006.018,617.1L-1006.018,617.1z
		 M-1006.018,617.1L-1006.018,617.1z M-1004.921,617.1c0,1.5,0.199,2.397,0.5,2.897c0.301,0.5,0.699,0.704,1.199,0.704
		s0.903-0.204,1.204-0.704c0.398-0.5,0.5-1.397,0.5-2.897c0-1.398-0.102-2.301-0.5-2.801c-0.301-0.398-0.704-0.699-1.204-0.699
		s-0.898,0.301-1.199,0.699C-1004.722,614.799-1004.921,615.799-1004.921,617.1L-1004.921,617.1z M-1004.921,617.1L-1004.921,617.1z
		 M-995.319,621.4h-1.102v-6.699c-0.301,0.199-0.597,0.5-1,0.699c-0.398,0.199-0.801,0.398-1.097,0.597V614.9
		c0.597-0.199,1.097-0.602,1.597-1c0.403-0.403,0.699-0.699,0.903-1.102h0.699V621.4z M-995.319,621.4"/>
	<rect x="-917.62" y="353.201" fill-rule="evenodd" clip-rule="evenodd" fill="#1B1918" width="193.699" height="130.199"/>
	<path fill-rule="evenodd" clip-rule="evenodd" fill="#FFFFFF" d="M-741.819,433.201c1,0,1.801,0.296,2.5,1.098
		c0.597,0.801,1,1.602,1,2.402c0,1-0.403,1.796-1.102,2.5c-0.801,0.796-1.597,1.199-2.398,1.199h-9.602
		c-0.5,0-0.898,0.097-1.199,0.301c-0.301,0.296-0.5,0.699-0.5,1.199s0.199,0.898,0.5,1.097c0.301,0.302,0.699,0.5,1.199,0.5h6.301
		c1.102,0,2.199,0.204,3.199,0.704c0.903,0.5,1.801,1.098,2.5,1.898c0.699,0.801,1.301,1.699,1.699,2.602
		c0.403,0.898,0.602,1.898,0.602,3c0.102,1.199-0.102,2.296-0.602,3.398c-0.5,1.102-1.097,2-1.898,2.699
		c-0.699,0.801-1.699,1.402-2.699,1.801c-1,0.397-2.199,0.699-3.5,0.699h-10.301c-0.898,0-1.801-0.398-2.5-1.098
		c-0.699-0.602-1-1.5-1-2.5c0-0.902,0.301-1.704,1-2.5c0.602-0.801,1.5-1.102,2.398-1.204h10.301c1,0,1.5-0.397,1.5-1.296
		c0-1-0.5-1.5-1.5-1.5h-6.199c-1.102,0-2.102-0.301-3.102-0.704c-1-0.5-1.796-1.097-2.597-1.897
		c-0.699-0.898-1.301-1.801-1.699-2.699c-0.403-1-0.602-2.102-0.602-3.199c0-1.102,0.199-2.102,0.699-3.204
		c0.403-1,1-1.897,1.699-2.698c0.801-0.802,1.602-1.398,2.602-1.898c1.102-0.403,2.102-0.699,3.301-0.699H-741.819z
		 M-741.819,433.201"/>
	<path fill-rule="evenodd" clip-rule="evenodd" fill="#FFFFFF" d="M-766.319,433.497c1,0,1.801,0.302,2.398,1
		c0.699,0.704,1,1.603,1.102,2.603v19.699c0,1-0.301,1.801-0.903,2.5c-0.699,0.698-1.5,1-2.597,1.102c-1,0-1.801-0.301-2.5-0.903
		c-0.602-0.597-1-1.397-1.199-2.5v-20.198c0.097-0.898,0.5-1.699,1.199-2.302C-768.12,433.799-767.319,433.497-766.319,433.497
		L-766.319,433.497z M-766.319,433.497"/>
	<path fill-rule="evenodd" clip-rule="evenodd" fill="#FFCB00" d="M-766.319,424.997c1,0,1.801,0.302,2.5,1
		c0.699,0.704,1,1.603,1,2.603s-0.301,1.801-1,2.5c-0.699,0.699-1.5,1.102-2.5,1.102c-1.102,0-2-0.402-2.699-1
		c-0.602-0.704-1-1.602-1-2.801c0-1,0.398-1.801,1.199-2.403C-768.12,425.299-767.319,424.997-766.319,424.997L-766.319,424.997z
		 M-766.319,424.997"/>
	<path fill-rule="evenodd" clip-rule="evenodd" fill="#FFFFFF" d="M-784.819,433.299c1.699,0.198,3.301,0.698,4.699,1.5
		c1.5,0.801,2.801,1.801,3.801,3c1,1.198,1.898,2.602,2.5,4.102c0.597,1.5,0.898,3.097,0.898,4.898v9.801
		c0,1-0.301,1.897-1.097,2.602c-0.704,0.699-1.602,1.098-2.5,1.098c-1.301,0-2.301-0.598-3.102-1.802
		c-0.199,0-0.398,0.103-0.5,0.204c-0.199,0.098-0.301,0.199-0.5,0.296c-0.898,0.403-1.801,0.704-2.699,0.903
		c-0.903,0.199-2,0.398-3,0.398c-2.903,0-5.301-0.802-7.5-2.302c-2.199-1.5-3.801-3.397-4.903-5.796
		c-0.398-0.902-0.699-1.801-0.898-2.602c-0.199-0.898-0.301-1.898-0.301-2.801c0-1,0.102-1.898,0.301-2.802
		c0.199-0.897,0.5-1.796,0.898-2.698c1.102-2.398,2.704-4.302,4.903-5.802c2.199-1.5,4.597-2.198,7.5-2.198H-784.819z
		 M-784.819,433.299L-784.819,433.299z M-786.421,452.997c0.903,0,1.699-0.097,2.403-0.5c0.796-0.296,1.398-0.698,2-1.296
		c0.5-0.5,1-1.204,1.296-1.902c0.403-0.802,0.5-1.598,0.5-2.5c0-0.898-0.097-1.699-0.5-2.398c-0.296-0.801-0.796-1.403-1.296-2
		c-0.602-0.602-1.301-1.102-2-1.403c-0.801-0.296-1.602-0.5-2.403-0.5c-0.801,0-1.597,0.204-2.398,0.5
		c-0.699,0.302-1.403,0.802-2,1.403c-0.5,0.597-1,1.199-1.301,2c-0.301,0.699-0.5,1.5-0.5,2.398c0,0.801,0.199,1.602,0.5,2.402
		c0.398,0.796,0.801,1.398,1.398,2c0.602,0.5,1.204,1,2,1.296C-788.018,452.9-787.222,452.997-786.421,452.997L-786.421,452.997z
		 M-786.421,452.997"/>
	<path fill-rule="evenodd" clip-rule="evenodd" fill="#FFFFFF" d="M-824.62,433.299c1.102,0,2.199,0.198,3.199,0.5
		c1.102,0.402,2.102,0.902,2.903,1.602c1.898-1.403,3.898-2.102,6.296-2.102c1.301,0,2.602,0.198,3.801,0.698
		c1.199,0.5,2.301,1.204,3.199,2.103c0.903,0.801,1.602,1.801,2.102,3c0.602,1.199,0.801,2.5,0.801,3.801v14
		c0,0.898-0.301,1.699-1.102,2.301c-0.699,0.699-1.597,1.098-2.597,1.098c-0.903,0-1.801-0.398-2.5-1.098
		c-0.704-0.801-1.102-1.602-1.102-2.602v-13.5c0-0.699-0.199-1.301-0.699-1.801s-1.102-0.699-1.903-0.699
		c-0.597,0-1.199,0.199-1.699,0.602c-0.597,0.398-0.801,1.098-0.801,1.898v13.5c0,1-0.398,1.897-1.097,2.602
		c-0.801,0.699-1.602,1.098-2.699,1.098c-0.903,0-1.704-0.398-2.403-1c-0.801-0.699-1.199-1.5-1.199-2.398V443.1
		c0-0.801-0.301-1.398-0.801-1.801c-0.5-0.5-1.097-0.699-1.699-0.699c-0.699,0-1.301,0.199-1.801,0.699s-0.801,1.102-0.801,1.801
		v13.897c-0.097,0.802-0.5,1.603-1.199,2.302c-0.699,0.602-1.5,1-2.5,1c-0.5,0-1-0.098-1.398-0.302
		c-0.403-0.198-0.801-0.5-1.199-0.796c-0.301-0.301-0.602-0.704-0.801-1.204c-0.199-0.397-0.301-0.897-0.199-1.397V442.9
		c0-1.301,0.199-2.5,0.699-3.699c0.597-1.204,1.301-2.204,2.199-3c0.801-0.902,1.898-1.602,3.102-2.102
		C-827.319,433.497-826.018,433.299-824.62,433.299L-824.62,433.299z M-824.62,433.299"/>
	<path fill-rule="evenodd" clip-rule="evenodd" fill="#FFFFFF" d="M-834.62,471.1h1.102v-4.898h-1.102V471.1z M-834.62,471.1
		L-834.62,471.1z M-829.518,471.1h1v-3.301l1,3.301h1.296v-4.898h-1.097v3.199l-0.903-3.199h-1.296V471.1z M-829.518,471.1
		L-829.518,471.1z M-821.518,471.1h1.097v-3.898h1v-1h-3.097v1h1V471.1z M-821.518,471.1L-821.518,471.1z M-815.722,471.1h2.903
		v-0.898h-1.801V469.1h1.602v-1h-1.602v-0.898h1.699v-1h-2.801V471.1z M-815.722,471.1L-815.722,471.1z M-807.921,467.1h0.699
		l0.204,0.199c0.097,0.102,0.097,0.198,0.097,0.301c0,0.102,0,0.199-0.097,0.301c0,0.097,0,0.097-0.102,0.199l-0.102,0.102
		c-0.097,0.098-0.199,0.098-0.296,0.098h-0.403V467.1z M-807.921,467.1L-807.921,467.1z M-809.018,471.1h1.097v-2h0.699
		c0.102,0.102,0.102,0.102,0.102,0.199c0.102,0,0.102,0.198,0.102,0.301v0.5c0,0.199,0,0.397,0.097,0.5v0.301
		c0,0.097,0,0.199,0.102,0.199h1.199c0,0-0.102,0-0.102-0.103l-0.097-0.097v-1.403c-0.102-0.198-0.102-0.296-0.199-0.397
		c0-0.103-0.102-0.199-0.204-0.301c-0.097,0-0.199-0.098-0.398-0.098c0.199-0.102,0.301-0.102,0.5-0.204
		c0.102-0.097,0.102-0.198,0.199-0.397c0.102-0.199,0.102-0.398,0.102-0.603c0-0.198,0-0.296-0.102-0.5
		c0-0.097-0.097-0.296-0.199-0.397c-0.102-0.103-0.199-0.199-0.398-0.301c-0.204,0-0.403-0.098-0.602-0.098h-1.898V471.1z
		 M-809.018,471.1L-809.018,471.1z M-801.921,471.1h1.102v-3.301l1,3.301h1.301v-4.898h-1.102v3.199l-0.898-3.199h-1.403V471.1z
		 M-801.921,471.1L-801.921,471.1z M-794.62,471.1h2.898v-0.898h-1.699V469.1h1.5v-1h-1.5v-0.898h1.699v-1h-2.898V471.1z
		 M-794.62,471.1L-794.62,471.1z M-787.222,471.1h1.102v-3.898h1.102v-1h-3.204v1h1V471.1z M-787.222,471.1L-787.222,471.1z
		 M-775.819,469.299h-0.903l0.5-2.199L-775.819,469.299z M-775.819,469.299L-775.819,469.299z M-778.222,471.1h1.204l0.199-0.898
		h1.199l0.102,0.898h1.199l-1.199-4.898h-1.403L-778.222,471.1z M-778.222,471.1L-778.222,471.1z M-766.018,467.1h0.699l0.199,0.199
		c0.102,0.102,0.102,0.198,0.102,0.301c0,0.102,0,0.199-0.102,0.301c0,0.097,0,0.097-0.102,0.199l-0.097,0.102
		c-0.102,0.098-0.199,0.098-0.301,0.098h-0.398V467.1z M-766.018,467.1L-766.018,467.1z M-767.12,471.1h1.102v-2h0.699
		c0.097,0.102,0.097,0.102,0.097,0.199c0.102,0,0.102,0.198,0.102,0.301v0.5c0,0.199,0,0.397,0.102,0.5v0.301
		c0,0.097,0,0.199,0.097,0.199h1.199c0,0-0.097,0-0.097-0.103l-0.102-0.097v-1.403c-0.097-0.198-0.097-0.296-0.199-0.397
		c0-0.103-0.102-0.199-0.199-0.301c-0.102,0-0.199-0.098-0.403-0.098c0.204-0.102,0.301-0.102,0.403-0.204
		c0.199-0.097,0.199-0.198,0.301-0.397c0.097-0.199,0.097-0.398,0.097-0.603c0-0.198,0-0.296-0.097-0.5
		c0-0.097-0.102-0.296-0.204-0.397c-0.097-0.103-0.199-0.199-0.398-0.301c-0.199,0-0.398-0.098-0.602-0.098h-1.898V471.1z
		 M-767.12,471.1L-767.12,471.1z M-757.921,469.299h-0.898l0.398-2.199h0.102L-757.921,469.299z M-757.921,469.299L-757.921,469.299
		z M-760.319,471.1h1.199l0.199-0.898h1.102l0.199,0.898h1.199l-1.199-4.898h-1.398L-760.319,471.1z M-760.319,471.1L-760.319,471.1
		z M-758.819,465.9h0.801l0.699-0.903h-1.102L-758.819,465.9z M-758.819,465.9L-758.819,465.9z M-752.819,471.1h1.597
		c0.301,0,0.602,0,0.801-0.103c0.199,0,0.301-0.097,0.5-0.296c0.102-0.102,0.199-0.301,0.301-0.5c0-0.204,0.102-0.402,0.102-0.704
		v-2c-0.102-0.296-0.204-0.597-0.301-0.796c-0.199-0.102-0.301-0.301-0.5-0.402c-0.199,0-0.5-0.098-0.801-0.098h-1.699V471.1z
		 M-752.819,471.1L-752.819,471.1z M-751.62,467.1h0.699c0.102,0.102,0.102,0.199,0.199,0.301c0,0.097,0.102,0.199,0.102,0.398v1.5
		c0,0.198-0.102,0.402-0.102,0.5c0,0.198-0.097,0.301-0.097,0.301c-0.102,0.102-0.199,0.102-0.199,0.199h-0.602V467.1z
		 M-751.62,467.1L-751.62,467.1z M-745.62,471.1h1.199v-4.898h-1.199V471.1z M-745.62,471.1L-745.62,471.1z M-739.421,468.701
		v-0.902c0.102-0.199,0.102-0.398,0.102-0.5c0-0.199,0.097-0.199,0.199-0.302c0-0.097,0.102-0.097,0.199-0.097
		c0.199,0,0.199,0,0.301,0.097c0.102,0.103,0.102,0.103,0.199,0.302c0,0.102,0,0.301,0.102,0.5v1.698
		c-0.102,0.302-0.102,0.403-0.102,0.603c-0.097,0.102-0.097,0.199-0.199,0.301c-0.102,0-0.102,0.097-0.301,0.097
		c-0.097,0-0.199-0.097-0.199-0.097c-0.102-0.102-0.199-0.199-0.199-0.301c0-0.199,0-0.301-0.102-0.603V468.701z M-739.421,468.701
		L-739.421,468.701z M-737.222,468.701V467.4c-0.097-0.199-0.097-0.301-0.199-0.5c-0.097-0.199-0.199-0.301-0.301-0.403
		c-0.097-0.198-0.296-0.198-0.5-0.296c-0.097-0.102-0.398-0.102-0.699-0.102c-0.301,0-0.5,0-0.699,0.102
		c-0.199,0.098-0.398,0.199-0.5,0.398c-0.102,0.102-0.199,0.301-0.301,0.5c-0.097,0.199-0.097,0.5-0.097,0.699
		c-0.102,0.301-0.102,0.602-0.102,0.902c0,0.296,0,0.598,0.102,0.796c0,0.302,0,0.603,0.097,0.802
		c0.102,0.198,0.199,0.402,0.301,0.5c0.102,0.102,0.301,0.301,0.5,0.301c0.199,0.102,0.398,0.102,0.699,0.102
		c0.301,0,0.602,0,0.699-0.102c0.204,0,0.403-0.103,0.5-0.199c0.102-0.102,0.204-0.301,0.301-0.403
		c0.102-0.198,0.102-0.397,0.199-0.597V468.701z M-737.222,468.701"/>
	<path fill-rule="evenodd" clip-rule="evenodd" fill="#FFCB00" d="M-833.421,424.799c1.301-3.802,2-7.802,2-12.199
		c0-4.199-0.699-8.199-2-12l7.102-2.103c1.398,4.5,2,9.204,2,14.103c0,5-0.602,9.801-2,14.301L-833.421,424.799z M-833.421,424.799"
		/>
	<path fill-rule="evenodd" clip-rule="evenodd" fill="#FFCB00" d="M-819.421,428.997c1.403-5.397,2.199-10.796,2.199-16.397
		c0-5.5-0.699-10.898-2.097-16.103l7-2c3.199,12.103,3.199,24.302,0,36.5L-819.421,428.997z M-819.421,428.997"/>
	<path fill-rule="evenodd" clip-rule="evenodd" fill="#FFCB00" d="M-880.921,424.799c-1.398-3.802-2.097-7.802-2.097-12.199
		c0-4.199,0.699-8.199,2.097-12l-7.199-2.103c-1.301,4.5-2,9.204-2,14.103c0,5,0.699,9.801,2.102,14.301L-880.921,424.799z
		 M-880.921,424.799"/>
	<path fill-rule="evenodd" clip-rule="evenodd" fill="#FFCB00" d="M-895.018,428.997c-1.403-5.397-2.204-10.796-2.204-16.397
		c0-5.5,0.704-10.898,2.102-16.103l-7-2c-3.199,12.103-3.199,24.302,0,36.5L-895.018,428.997z M-895.018,428.997"/>
	<path fill-rule="evenodd" clip-rule="evenodd" fill="#FFCB00" d="M-845.018,388.997c-3.903-1.397-7.903-2.097-12.301-2.097
		c-4.199,0-8.199,0.699-12,2.097l-2.102-7.198c4.5-1.302,9.199-2,14.102-2c5.097,0,9.801,0.698,14.301,2L-845.018,388.997z
		 M-845.018,388.997"/>
	<path fill-rule="evenodd" clip-rule="evenodd" fill="#FFCB00" d="M-841.018,374.9c-5.301-1.403-10.801-2.199-16.301-2.199
		s-10.903,0.699-16.102,2.098l-2.097-7c12.199-3.199,24.398-3.199,36.597,0L-841.018,374.9z M-841.018,374.9"/>
	<path fill-rule="evenodd" clip-rule="evenodd" fill="#FFCB00" d="M-845.018,436.497c-3.903,1.302-7.903,2-12.301,2
		c-4.199,0-8.199-0.597-12-2l-2.102,7.103c4.5,1.397,9.199,2.102,14.102,2.102c5.097,0,9.801-0.704,14.301-2.102L-845.018,436.497z
		 M-845.018,436.497"/>
	<path fill-rule="evenodd" clip-rule="evenodd" fill="#FFCB00" d="M-841.018,450.497c-5.301,1.403-10.801,2.204-16.301,2.204
		s-10.903-0.704-16.102-2.102l-2.097,7c12.199,3.199,24.398,3.199,36.597,0L-841.018,450.497z M-841.018,450.497"/>
	<path fill-rule="evenodd" clip-rule="evenodd" fill="#FFCB00" d="M-844.018,399.497c1.898,1.802,3.296,3.903,4.199,6.204
		c0.301,0.796,0.5,1.598,0.699,2.398h-13.5v-13.5c0.898,0.199,1.699,0.5,2.398,0.801
		C-847.819,396.299-845.819,397.701-844.018,399.497L-844.018,399.497z M-844.018,399.497L-844.018,399.497z M-839.12,417.497
		c-0.199,0.802-0.5,1.5-0.801,2.302c-0.898,2.402-2.199,4.5-4.097,6.402c-1.903,1.796-3.903,3.199-6.301,4.098
		c-0.699,0.301-1.5,0.602-2.199,0.801v-13.603H-839.12z M-839.12,417.497L-839.12,417.497z M-861.921,431.1
		c-0.801-0.199-1.5-0.5-2.301-0.801c-2.296-0.898-4.398-2.302-6.199-4.098c-1.898-1.902-3.301-4-4.199-6.402
		c-0.301-0.802-0.5-1.5-0.699-2.302h13.398V431.1z M-861.921,431.1L-861.921,431.1z M-875.421,408.1
		c0.199-0.801,0.5-1.603,0.801-2.398c0.898-2.301,2.301-4.402,4.102-6.204c1.796-1.796,3.898-3.198,6.199-4.097
		c0.801-0.301,1.597-0.602,2.398-0.801v13.5H-875.421z M-875.421,408.1"/>
	<path fill-rule="evenodd" clip-rule="evenodd" fill="#1B1918" d="M-154.819,433.201c1,0,1.801,0.296,2.5,1.098
		c0.598,0.801,1,1.602,1,2.402c0,1-0.402,1.796-1.102,2.5c-0.699,0.796-1.5,1.199-2.398,1.199h-9.602
		c-0.5,0-0.801,0.097-1.098,0.301c-0.402,0.296-0.5,0.699-0.5,1.199s0.098,0.898,0.5,1.097c0.297,0.302,0.598,0.5,1.098,0.5h6.301
		c1.102,0,2.199,0.204,3.199,0.704s1.801,1.098,2.602,1.898c0.699,0.801,1.199,1.699,1.699,2.602c0.398,0.898,0.602,1.898,0.602,3
		c0,1.199-0.203,2.296-0.703,3.398c-0.398,1.102-1,2-1.797,2.699c-0.801,0.801-1.703,1.402-2.801,1.801
		c-1,0.397-2.199,0.699-3.5,0.699h-10.199c-1,0-1.801-0.398-2.5-1.098c-0.703-0.602-1.102-1.5-1.102-2.5c0-0.902,0.301-1.704,1-2.5
		c0.699-0.801,1.5-1.102,2.5-1.204h10.199c1,0,1.5-0.397,1.5-1.296c0-1-0.5-1.5-1.5-1.5h-6.098c-1.102,0-2.203-0.301-3.203-0.704
		c-0.898-0.5-1.797-1.097-2.5-1.897c-0.797-0.898-1.297-1.801-1.699-2.699c-0.398-1-0.598-2.102-0.598-3.199
		c0-1.102,0.199-2.102,0.598-3.204c0.402-1,1-1.897,1.801-2.698c0.699-0.802,1.602-1.398,2.602-1.898
		c1-0.403,2.098-0.699,3.199-0.699H-154.819z M-154.819,433.201"/>
	<path fill-rule="evenodd" clip-rule="evenodd" fill="#1B1918" d="M-179.319,433.497c1,0,1.801,0.302,2.398,1
		c0.699,0.704,1.102,1.603,1.102,2.603v19.699c0,1-0.301,1.801-0.902,2.5c-0.598,0.698-1.5,1-2.598,1.102
		c-1,0-1.801-0.301-2.402-0.903c-0.699-0.597-1.098-1.397-1.297-2.5v-20.198c0.098-0.898,0.5-1.699,1.199-2.302
		C-181.12,433.799-180.319,433.497-179.319,433.497L-179.319,433.497z M-179.319,433.497"/>
	<path fill-rule="evenodd" clip-rule="evenodd" fill="#1B1918" d="M-179.319,424.997c1,0,1.801,0.302,2.5,1
		c0.699,0.704,1,1.603,1,2.603s-0.301,1.801-1,2.5s-1.5,1.102-2.5,1.102c-1.102,0-2-0.402-2.602-1
		c-0.699-0.704-1.098-1.602-1.098-2.801c0.098-1,0.398-1.801,1.199-2.403C-181.12,425.299-180.319,424.997-179.319,424.997
		L-179.319,424.997z M-179.319,424.997"/>
	<path fill-rule="evenodd" clip-rule="evenodd" fill="#1B1918" d="M-197.722,433.299c1.602,0.198,3.203,0.698,4.703,1.5
		c1.398,0.801,2.699,1.801,3.699,3c1.098,1.198,1.898,2.602,2.5,4.102c0.598,1.5,1,3.097,1,4.898v9.801c0,1-0.402,1.897-1.199,2.602
		c-0.703,0.699-1.5,1.098-2.5,1.098c-1.301,0-2.301-0.598-3.102-1.802c-0.199,0-0.301,0.103-0.5,0.204
		c-0.102,0.098-0.301,0.199-0.398,0.296c-0.902,0.403-1.801,0.704-2.703,0.903c-1,0.199-2,0.398-3.098,0.398
		c-2.801,0-5.301-0.802-7.5-2.302s-3.801-3.397-4.902-5.796c-0.398-0.902-0.699-1.801-0.898-2.602
		c-0.199-0.898-0.301-1.898-0.301-2.801c0-1,0.102-1.898,0.301-2.802c0.199-0.897,0.5-1.796,0.898-2.698
		c1.102-2.398,2.703-4.302,4.902-5.802s4.699-2.198,7.5-2.198H-197.722z M-197.722,433.299L-197.722,433.299z M-199.421,452.997
		c0.902,0,1.699-0.097,2.402-0.5c0.797-0.296,1.5-0.698,2-1.296c0.598-0.5,1-1.204,1.398-1.902c0.301-0.802,0.5-1.598,0.5-2.5
		c0-0.898-0.199-1.699-0.5-2.398c-0.398-0.801-0.801-1.403-1.398-2c-0.602-0.602-1.203-1.102-2-1.403
		c-0.801-0.296-1.602-0.5-2.402-0.5s-1.598,0.204-2.301,0.5c-0.797,0.302-1.398,0.802-2,1.403c-0.598,0.597-1.098,1.199-1.398,2
		c-0.301,0.699-0.5,1.5-0.5,2.398c0,0.801,0.199,1.602,0.5,2.402c0.398,0.796,0.898,1.398,1.398,2c0.602,0.5,1.301,1,2,1.296
		C-201.019,452.9-200.222,452.997-199.421,452.997L-199.421,452.997z M-199.421,452.997"/>
	<path fill-rule="evenodd" clip-rule="evenodd" fill="#1B1918" d="M-237.62,433.299c1.102,0,2.199,0.198,3.301,0.5
		c1,0.402,2,0.902,2.898,1.602c1.801-1.403,3.902-2.102,6.199-2.102c1.301,0,2.602,0.198,3.801,0.698s2.301,1.204,3.199,2.103
		c0.902,0.801,1.602,1.801,2.102,3c0.602,1.199,0.898,2.5,0.898,3.801v14c0,0.898-0.398,1.699-1.199,2.301
		c-0.699,0.699-1.598,1.098-2.5,1.098c-1,0-1.801-0.398-2.5-1.098c-0.801-0.801-1.199-1.602-1.199-2.602v-13.5
		c0-0.699-0.199-1.301-0.699-1.801s-1.102-0.699-1.902-0.699c-0.598,0-1.199,0.199-1.699,0.602
		c-0.598,0.398-0.801,1.098-0.801,1.898v13.5c0,1-0.398,1.897-1.098,2.602c-0.699,0.699-1.602,1.098-2.602,1.098
		c-0.898,0-1.801-0.398-2.5-1c-0.801-0.699-1.098-1.5-1.098-2.398V443.1c-0.102-0.801-0.301-1.398-0.902-1.801
		c-0.5-0.5-1.098-0.699-1.699-0.699c-0.699,0-1.301,0.199-1.801,0.699s-0.801,1.102-0.801,1.801v13.897
		c-0.098,0.802-0.5,1.603-1.098,2.302c-0.699,0.602-1.602,1-2.5,1c-0.602,0-1-0.098-1.5-0.302c-0.402-0.198-0.801-0.5-1.102-0.796
		c-0.398-0.301-0.598-0.704-0.801-1.204c-0.297-0.397-0.297-0.897-0.297-1.397V442.9c0-1.301,0.297-2.5,0.797-3.699
		c0.5-1.204,1.203-2.204,2.102-3c0.898-0.902,1.898-1.602,3.102-2.102C-240.319,433.497-239.019,433.299-237.62,433.299
		L-237.62,433.299z M-237.62,433.299"/>
	<path fill-rule="evenodd" clip-rule="evenodd" fill="#1B1918" d="M-247.62,471.1h1.102v-4.898h-1.102V471.1z M-247.62,471.1
		L-247.62,471.1z M-242.519,471.1h1v-3.301l1,3.301h1.297v-4.898h-1v3.199l-1-3.199h-1.297V471.1z M-242.519,471.1L-242.519,471.1z
		 M-234.519,471.1h1.098v-3.898h1.102v-1h-3.199v1h1V471.1z M-234.519,471.1L-234.519,471.1z M-228.722,471.1h2.902v-0.898h-1.699
		V469.1h1.5v-1h-1.5v-0.898h1.598v-1h-2.801V471.1z M-228.722,471.1L-228.722,471.1z M-220.921,467.1h0.801
		c0,0.102,0.102,0.199,0.102,0.199c0.098,0.102,0.098,0.198,0.098,0.301v0.301c0,0.097-0.098,0.097-0.098,0.199
		c-0.102,0-0.102,0.102-0.203,0.102c-0.098,0.098-0.199,0.098-0.297,0.098h-0.402V467.1z M-220.921,467.1L-220.921,467.1z
		 M-222.019,471.1h1.098v-2h0.699l0.203,0.199v0.301c0.098,0.199,0.098,0.301,0.098,0.5v0.801c0,0.097,0.102,0.199,0.102,0.199
		h1.199l-0.102-0.103V470.9c0,0-0.098-0.102-0.098-0.199v-1.204c0-0.198-0.102-0.296-0.102-0.397
		c-0.098-0.103-0.098-0.199-0.301-0.301c-0.098,0-0.199-0.098-0.398-0.098c0.199-0.102,0.301-0.102,0.5-0.204
		c0.102-0.097,0.199-0.198,0.199-0.397c0.102-0.199,0.102-0.398,0.102-0.603v-0.5c-0.102-0.097-0.199-0.296-0.199-0.397
		c-0.203-0.103-0.301-0.199-0.5-0.301c-0.102,0-0.301-0.098-0.602-0.098h-1.898V471.1z M-222.019,471.1L-222.019,471.1z
		 M-214.819,471.1h1v-3.301l1,3.301h1.301v-4.898h-1v3.199h-0.102l-0.898-3.199h-1.301V471.1z M-214.819,471.1L-214.819,471.1z
		 M-207.519,471.1h2.898v-0.898h-1.801V469.1h1.602v-1h-1.602v-0.898h1.699v-1h-2.797V471.1z M-207.519,471.1L-207.519,471.1z
		 M-200.222,471.1h1.203v-3.898h1v-1h-3.203v1h1V471.1z M-200.222,471.1L-200.222,471.1z M-188.819,469.299h-0.801l0.398-2.199
		L-188.819,469.299z M-188.819,469.299L-188.819,469.299z M-191.12,471.1h1.102l0.199-0.898h1.199l0.102,0.898h1.199l-1.199-4.898
		h-1.402L-191.12,471.1z M-191.12,471.1L-191.12,471.1z M-179.019,467.1h0.797c0,0.102,0.102,0.199,0.102,0.199
		c0.102,0.102,0.102,0.198,0.102,0.301v0.301c0,0.097-0.102,0.097-0.102,0.199c-0.102,0-0.102,0.102-0.199,0.102
		c-0.102,0.098-0.199,0.098-0.301,0.098h-0.398V467.1z M-179.019,467.1L-179.019,467.1z M-180.12,471.1h1.102v-2h0.699l0.199,0.199
		v0.301c0.102,0.199,0.102,0.301,0.102,0.5v0.801c0,0.097,0.098,0.199,0.098,0.199h1.199l-0.098-0.103V470.9
		c0,0-0.102-0.102-0.102-0.199v-1.204c0-0.198-0.098-0.296-0.098-0.397c-0.102-0.103-0.102-0.199-0.301-0.301
		c-0.102,0-0.199-0.098-0.402-0.098c0.203-0.102,0.301-0.102,0.5-0.204c0.102-0.097,0.203-0.198,0.203-0.397
		c0.098-0.199,0.098-0.398,0.098-0.603v-0.5c-0.098-0.097-0.199-0.296-0.199-0.397c-0.199-0.103-0.301-0.199-0.5-0.301
		c-0.102,0-0.301-0.098-0.602-0.098h-1.898V471.1z M-180.12,471.1L-180.12,471.1z M-170.921,469.299h-0.801l0.402-2.199
		L-170.921,469.299z M-170.921,469.299L-170.921,469.299z M-173.319,471.1h1.199l0.199-0.898h1.199l0.203,0.898h1.199l-1.301-4.898
		h-1.398L-173.319,471.1z M-173.319,471.1L-173.319,471.1z M-171.722,465.9h0.703l0.699-0.903h-1.102L-171.722,465.9z
		 M-171.722,465.9L-171.722,465.9z M-165.722,471.1h1.5c0.402,0,0.602,0,0.801-0.103c0.199,0,0.402-0.097,0.5-0.296
		c0.102-0.102,0.199-0.301,0.301-0.5c0.102-0.204,0.102-0.402,0.102-0.704c0.098-0.296,0.098-0.597,0.098-1
		c0-0.397-0.098-0.796-0.098-1c-0.102-0.296-0.203-0.597-0.301-0.796c-0.102-0.102-0.301-0.301-0.5-0.402
		c-0.199,0-0.5-0.098-0.699-0.098h-1.703V471.1z M-165.722,471.1L-165.722,471.1z M-164.62,467.1h0.699
		c0.102,0.102,0.199,0.199,0.199,0.301c0.102,0.097,0.102,0.199,0.102,0.398v1.5c0,0.198,0,0.402-0.102,0.5
		c0,0.198-0.098,0.301-0.098,0.301l-0.199,0.199h-0.602V467.1z M-164.62,467.1L-164.62,467.1z M-158.519,471.1h1.098v-4.898h-1.098
		V471.1z M-158.519,471.1L-158.519,471.1z M-152.421,468.701c0-0.402,0.102-0.704,0.102-0.902v-0.5
		c0.098-0.199,0.098-0.199,0.199-0.302c0.102-0.097,0.199-0.097,0.301-0.097c0.098,0,0.199,0,0.301,0.097
		c0,0.103,0.098,0.103,0.098,0.302c0.102,0.102,0.102,0.301,0.102,0.5v1.698c0,0.302,0,0.403-0.102,0.603
		c0,0.102-0.098,0.199-0.098,0.301c-0.102,0-0.203,0.097-0.301,0.097c-0.102,0-0.199-0.097-0.301-0.097
		c-0.102-0.102-0.102-0.199-0.199-0.301v-0.603C-152.319,469.299-152.421,468.997-152.421,468.701L-152.421,468.701z
		 M-152.421,468.701L-152.421,468.701z M-150.12,468.701v-0.704c-0.102-0.198-0.102-0.397-0.102-0.597s-0.098-0.301-0.199-0.5
		c0-0.199-0.098-0.301-0.301-0.403c-0.098-0.198-0.199-0.198-0.398-0.296c-0.199-0.102-0.5-0.102-0.699-0.102
		c-0.301,0-0.602,0-0.801,0.102c-0.199,0.098-0.398,0.199-0.5,0.398c-0.102,0.102-0.199,0.301-0.301,0.5
		c0,0.199-0.098,0.5-0.098,0.699v1.698c0,0.302,0.098,0.603,0.098,0.802c0.102,0.198,0.199,0.402,0.301,0.5
		c0.102,0.102,0.301,0.301,0.5,0.301c0.199,0.102,0.5,0.102,0.801,0.102c0.199,0,0.5,0,0.699-0.102c0.199,0,0.301-0.103,0.398-0.199
		c0.203-0.102,0.301-0.301,0.301-0.403c0.102-0.198,0.199-0.397,0.199-0.597c0-0.102,0-0.403,0.102-0.602V468.701z M-150.12,468.701
		"/>
	<path fill-rule="evenodd" clip-rule="evenodd" fill="#1B1918" d="M-246.421,424.799c1.301-3.802,2-7.802,2-12.199
		c0-4.199-0.598-8.199-2-12l7.199-2.103c1.301,4.5,2,9.204,2,14.103c0,5-0.699,9.801-2.098,14.301L-246.421,424.799z
		 M-246.421,424.799"/>
	<path fill-rule="evenodd" clip-rule="evenodd" fill="#1B1918" d="M-232.421,428.997c1.5-5.397,2.199-10.796,2.199-16.397
		c0.102-5.5-0.699-10.898-2.098-16.103l7.098-2c3.102,12.103,3.102,24.302-0.098,36.5L-232.421,428.997z M-232.421,428.997"/>
	<path fill-rule="evenodd" clip-rule="evenodd" fill="#1B1918" d="M-293.921,424.799c-1.398-3.802-2-7.802-2-12.199
		c0-4.199,0.602-8.199,2-12l-7.098-2.103c-1.402,4.5-2.102,9.204-2.102,14.103c0,5,0.699,9.801,2.102,14.301L-293.921,424.799z
		 M-293.921,424.799"/>
	<path fill-rule="evenodd" clip-rule="evenodd" fill="#1B1918" d="M-308.019,428.997c-1.402-5.397-2.102-10.796-2.203-16.397
		c0-5.5,0.703-10.898,2.203-16.103l-7.102-2c-3.102,12.103-3.102,24.302,0.102,36.5L-308.019,428.997z M-308.019,428.997"/>
	<path fill-rule="evenodd" clip-rule="evenodd" fill="#1B1918" d="M-258.019,388.997c-3.801-1.397-7.902-2.097-12.203-2.097
		c-4.297,0-8.297,0.699-12.098,2.097l-2-7.198c4.398-1.302,9.098-2,14.098-2s9.703,0.698,14.301,2L-258.019,388.997z
		 M-258.019,388.997"/>
	<path fill-rule="evenodd" clip-rule="evenodd" fill="#1B1918" d="M-253.921,374.9c-5.398-1.403-10.801-2.199-16.398-2.199
		c-5.5,0-10.902,0.699-16.102,2.098l-2-7c12.199-3.199,24.301-3.199,36.5,0L-253.921,374.9z M-253.921,374.9"/>
	<path fill-rule="evenodd" clip-rule="evenodd" fill="#1B1918" d="M-258.019,436.497c-3.801,1.302-7.902,2-12.203,2
		c-4.297,0-8.297-0.597-12.098-2l-2,7.103c4.398,1.397,9.098,2.102,14.098,2.102s9.703-0.704,14.301-2.102L-258.019,436.497z
		 M-258.019,436.497"/>
	<path fill-rule="evenodd" clip-rule="evenodd" fill="#1B1918" d="M-253.921,450.497c-5.398,1.403-10.801,2.204-16.398,2.204
		c-5.5,0-10.902-0.704-16.102-2.102l-2,7c12.199,3.199,24.301,3.199,36.5,0L-253.921,450.497z M-253.921,450.497"/>
	<path fill-rule="evenodd" clip-rule="evenodd" fill="#1B1918" d="M-256.921,399.497c1.801,1.802,3.199,3.903,4.102,6.204
		c0.301,0.796,0.598,1.598,0.801,2.398h-13.5v-13.5c0.797,0.199,1.598,0.5,2.398,0.801
		C-260.819,396.299-258.819,397.701-256.921,399.497L-256.921,399.497z M-256.921,399.497L-256.921,399.497z M-252.12,417.497
		c-0.199,0.802-0.398,1.5-0.801,2.302c-0.801,2.402-2.199,4.5-4.098,6.402c-1.902,1.796-3.902,3.199-6.203,4.098
		c-0.797,0.301-1.598,0.602-2.297,0.801v-13.603H-252.12z M-252.12,417.497L-252.12,417.497z M-274.921,431.1
		c-0.801-0.199-1.5-0.5-2.301-0.801c-2.297-0.898-4.398-2.302-6.199-4.098c-1.898-1.902-3.301-4-4.199-6.402
		c-0.301-0.802-0.5-1.5-0.699-2.302h13.398V431.1z M-274.921,431.1L-274.921,431.1z M-288.421,408.1
		c0.199-0.801,0.5-1.603,0.801-2.398c0.898-2.301,2.301-4.402,4.102-6.204c1.797-1.796,3.898-3.198,6.199-4.097
		c0.801-0.301,1.598-0.602,2.398-0.801v13.5H-288.421z M-288.421,408.1"/>
	<rect x="-613.222" y="353.201" fill-rule="evenodd" clip-rule="evenodd" fill="#1B1918" width="193.703" height="130.199"/>
	<path fill-rule="evenodd" clip-rule="evenodd" fill="#FFFFFF" d="M-437.421,433.201c0.902,0,1.801,0.296,2.402,1.098
		c0.699,0.801,1,1.602,1,2.402c0,1-0.301,1.796-1,2.5c-0.801,0.796-1.602,1.199-2.402,1.199h-9.699
		c-0.398,0-0.801,0.097-1.102,0.301c-0.297,0.296-0.5,0.699-0.5,1.199s0.203,0.898,0.5,1.097c0.301,0.302,0.703,0.5,1.102,0.5h6.398
		c1.102,0,2.203,0.204,3.203,0.704c0.898,0.5,1.797,1.098,2.5,1.898c0.699,0.801,1.297,1.699,1.699,2.602
		c0.398,0.898,0.598,1.898,0.598,3c0.102,1.199-0.199,2.296-0.598,3.398c-0.5,1.102-1.102,2-1.902,2.699
		c-0.699,0.801-1.699,1.402-2.699,1.801c-1,0.397-2.199,0.699-3.5,0.699h-10.301c-0.898,0-1.797-0.398-2.5-1.098
		c-0.699-0.602-1-1.5-1-2.5c0-0.902,0.301-1.704,1-2.5c0.602-0.801,1.402-1.102,2.402-1.204h10.301c1,0,1.5-0.397,1.5-1.296
		c0-1-0.5-1.5-1.5-1.5h-6.203c-1.098,0-2.098-0.301-3.098-0.704c-1-0.5-1.801-1.097-2.602-1.897
		c-0.699-0.898-1.301-1.801-1.699-2.699c-0.398-1-0.602-2.102-0.602-3.199c0-1.102,0.203-2.102,0.703-3.204
		c0.398-1,1-1.897,1.699-2.698c0.699-0.802,1.598-1.398,2.598-1.898c1-0.403,2.102-0.699,3.301-0.699H-437.421z M-437.421,433.201"
		/>
	<path fill-rule="evenodd" clip-rule="evenodd" fill="#FFFFFF" d="M-461.921,433.497c1,0,1.801,0.302,2.402,1
		c0.699,0.704,1,1.603,1.098,2.603v19.699c0,1-0.301,1.801-0.898,2.5c-0.699,0.698-1.5,1-2.602,1.102c-1,0-1.801-0.301-2.398-0.903
		c-0.699-0.597-1.102-1.397-1.301-2.5v-20.198c0.102-0.898,0.5-1.699,1.199-2.302C-463.722,433.799-462.921,433.497-461.921,433.497
		L-461.921,433.497z M-461.921,433.497"/>
	<path fill-rule="evenodd" clip-rule="evenodd" fill="#FFFFFF" d="M-461.921,424.997c1,0,1.801,0.302,2.5,1
		c0.699,0.704,1,1.603,1,2.603s-0.301,1.801-1,2.5s-1.5,1.102-2.5,1.102c-1.098,0-2-0.402-2.598-1
		c-0.703-0.704-1.102-1.602-1.102-2.801c0.102-1,0.398-1.801,1.199-2.403C-463.722,425.299-462.921,424.997-461.921,424.997
		L-461.921,424.997z M-461.921,424.997"/>
	<path fill-rule="evenodd" clip-rule="evenodd" fill="#FFFFFF" d="M-480.421,433.299c1.699,0.198,3.199,0.698,4.699,1.5
		c1.5,0.801,2.703,1.801,3.801,3c1,1.198,1.902,2.602,2.5,4.102c0.602,1.5,0.902,3.097,0.902,4.898v9.801
		c0,1-0.402,1.897-1.102,2.602c-0.801,0.699-1.602,1.098-2.5,1.098c-1.301,0-2.301-0.598-3.102-1.802
		c-0.199,0-0.398,0.103-0.5,0.204c-0.199,0.098-0.297,0.199-0.5,0.296c-0.898,0.403-1.797,0.704-2.699,0.903
		c-1,0.199-2,0.398-3.098,0.398c-2.801,0-5.301-0.802-7.402-2.302c-2.199-1.5-3.898-3.397-4.898-5.796
		c-0.402-0.902-0.699-1.801-0.902-2.602c-0.199-0.898-0.297-1.898-0.297-2.801c0-1,0.098-1.898,0.297-2.802
		c0.203-0.897,0.5-1.796,0.902-2.698c1-2.398,2.699-4.302,4.898-5.802c2.102-1.5,4.602-2.198,7.402-2.198H-480.421z
		 M-480.421,433.299L-480.421,433.299z M-482.019,452.997c0.797,0,1.598-0.097,2.398-0.5c0.801-0.296,1.398-0.698,2-1.296
		c0.5-0.5,1-1.204,1.301-1.902c0.398-0.802,0.5-1.598,0.5-2.5c0-0.898-0.102-1.699-0.5-2.398c-0.301-0.801-0.801-1.403-1.301-2
		c-0.602-0.602-1.301-1.102-2.102-1.403c-0.699-0.296-1.5-0.5-2.297-0.5c-0.902,0-1.703,0.204-2.402,0.5
		c-0.699,0.302-1.398,0.802-2,1.403c-0.5,0.597-1,1.199-1.301,2c-0.297,0.699-0.5,1.5-0.5,2.398c0,0.801,0.203,1.602,0.5,2.402
		c0.402,0.796,0.801,1.398,1.402,2c0.598,0.5,1.199,1,2,1.296C-483.62,452.9-482.819,452.997-482.019,452.997L-482.019,452.997z
		 M-482.019,452.997"/>
	<path fill-rule="evenodd" clip-rule="evenodd" fill="#FFFFFF" d="M-520.222,433.299c1.102,0,2.203,0.198,3.203,0.5
		c1.098,0.402,2.098,0.902,3,1.602c1.797-1.403,3.797-2.102,6.199-2.102c1.301,0,2.598,0.198,3.801,0.698
		c1.199,0.5,2.297,1.204,3.199,2.103c0.898,0.801,1.598,1.801,2.098,3c0.602,1.199,0.801,2.5,0.801,3.801v14
		c0,0.898-0.301,1.699-1.098,2.301c-0.703,0.699-1.602,1.098-2.5,1.098c-1,0-1.902-0.398-2.602-1.098
		c-0.699-0.801-1.102-1.602-1.102-2.602v-13.5c0-0.699-0.199-1.301-0.699-1.801s-1.098-0.699-1.898-0.699
		c-0.602,0-1.199,0.199-1.699,0.602c-0.602,0.398-0.801,1.098-0.801,1.898v13.5c0,1-0.402,1.897-1.102,2.602
		c-0.699,0.699-1.598,1.098-2.598,1.098c-0.902,0-1.801-0.398-2.5-1c-0.801-0.699-1.102-1.5-1.102-2.398V443.1
		c-0.102-0.801-0.398-1.398-0.898-1.801c-0.5-0.5-1.102-0.699-1.703-0.699c-0.699,0-1.297,0.199-1.797,0.699
		s-0.801,1.102-0.801,1.801v13.897c-0.102,0.802-0.5,1.603-1.199,2.302c-0.602,0.602-1.5,1-2.5,1c-0.5,0-0.902-0.098-1.402-0.302
		c-0.398-0.198-0.801-0.5-1.199-0.796c-0.301-0.301-0.602-0.704-0.801-1.204c-0.199-0.397-0.199-0.897-0.199-1.397V442.9
		c0-1.301,0.199-2.5,0.801-3.699c0.5-1.204,1.199-2.204,2.098-3c0.902-0.902,1.902-1.602,3.102-2.102
		C-522.921,433.497-521.62,433.299-520.222,433.299L-520.222,433.299z M-520.222,433.299"/>
	<path fill-rule="evenodd" clip-rule="evenodd" fill="#FFFFFF" d="M-530.222,471.1h1.102v-4.898h-1.102V471.1z M-530.222,471.1
		L-530.222,471.1z M-525.12,471.1h1v-3.301l1,3.301h1.301v-4.898h-1.102v3.199l-0.898-3.199h-1.301V471.1z M-525.12,471.1
		L-525.12,471.1z M-517.12,471.1h1.102v-3.898h1.098v-1h-3.199v1h1V471.1z M-517.12,471.1L-517.12,471.1z M-511.319,471.1h2.898
		v-0.898h-1.801V469.1h1.602v-1h-1.602v-0.898h1.703v-1h-2.801V471.1z M-511.319,471.1L-511.319,471.1z M-503.519,467.1h0.699
		l0.199,0.199c0.102,0.102,0.102,0.198,0.102,0.301c0,0.102,0,0.199-0.102,0.301v0.199c-0.102,0-0.199,0.102-0.199,0.102
		c-0.102,0.098-0.199,0.098-0.301,0.098h-0.398V467.1z M-503.519,467.1L-503.519,467.1z M-504.62,471.1h1.102v-2h0.699l0.199,0.199
		v0.801c0,0.199,0,0.397,0.102,0.5v0.301c0,0.097,0.098,0.199,0.098,0.199h1.199c0,0-0.098,0-0.098-0.103V470.9
		c0,0-0.102-0.102-0.102-0.199v-1.204c-0.098-0.198-0.098-0.296-0.098-0.397l-0.301-0.301c-0.102,0-0.199-0.098-0.402-0.098
		c0.203-0.102,0.301-0.102,0.5-0.204c0.102-0.097,0.203-0.198,0.203-0.397c0.098-0.199,0.098-0.398,0.098-0.603
		c0-0.198,0-0.296-0.098-0.5c0-0.097-0.102-0.296-0.203-0.397c-0.098-0.103-0.199-0.199-0.398-0.301
		c-0.102,0-0.301-0.098-0.602-0.098h-1.898V471.1z M-504.62,471.1L-504.62,471.1z M-497.519,471.1h1.098v-3.301l1,3.301h1.301
		v-4.898h-1.102v3.199l-0.898-3.199h-1.398V471.1z M-497.519,471.1L-497.519,471.1z M-490.12,471.1h2.801v-0.898h-1.699V469.1h1.598
		v-1h-1.598v-0.898h1.699v-1h-2.801V471.1z M-490.12,471.1L-490.12,471.1z M-482.819,471.1h1.199v-3.898h1v-1h-3.199v1h1V471.1z
		 M-482.819,471.1L-482.819,471.1z M-471.421,469.299h-0.898l0.5-2.199L-471.421,469.299z M-471.421,469.299L-471.421,469.299z
		 M-473.819,471.1h1.199l0.199-0.898h1.199l0.102,0.898h1.199l-1.199-4.898h-1.398L-473.819,471.1z M-473.819,471.1L-473.819,471.1z
		 M-461.62,467.1h0.699l0.199,0.199c0.102,0.102,0.102,0.198,0.102,0.301c0,0.102,0,0.199-0.102,0.301v0.199
		c-0.098,0-0.199,0.102-0.199,0.102c-0.098,0.098-0.199,0.098-0.301,0.098h-0.398V467.1z M-461.62,467.1L-461.62,467.1z
		 M-462.722,471.1h1.102v-2h0.699l0.199,0.199v0.801c0,0.199,0,0.397,0.102,0.5v0.301c0,0.097,0.102,0.199,0.102,0.199h1.199
		c0,0-0.102,0-0.102-0.103V470.9c0,0-0.098-0.102-0.098-0.199v-1.204c-0.102-0.198-0.102-0.296-0.102-0.397l-0.301-0.301
		c-0.098,0-0.199-0.098-0.398-0.098c0.199-0.102,0.301-0.102,0.5-0.204c0.098-0.097,0.199-0.198,0.199-0.397
		c0.102-0.199,0.102-0.398,0.102-0.603c0-0.198,0-0.296-0.102-0.5c0-0.097-0.102-0.296-0.199-0.397
		c-0.102-0.103-0.199-0.199-0.402-0.301c-0.199,0-0.297-0.098-0.598-0.098h-1.902V471.1z M-462.722,471.1L-462.722,471.1z
		 M-453.519,469.299h-0.801l0.398-2.199L-453.519,469.299z M-453.519,469.299L-453.519,469.299z M-455.921,471.1h1.199l0.203-0.898
		h1.199l0.098,0.898h1.203l-1.203-4.898h-1.398L-455.921,471.1z M-455.921,471.1L-455.921,471.1z M-454.319,465.9h0.699l0.699-0.903
		h-1.098L-454.319,465.9z M-454.319,465.9L-454.319,465.9z M-448.421,471.1h1.602c0.301,0,0.598,0,0.801-0.103
		c0.199,0,0.398-0.097,0.5-0.296c0.098-0.102,0.199-0.301,0.297-0.5c0-0.204,0.102-0.402,0.102-0.704
		c0.102-0.296,0.102-0.597,0.102-1c0-0.397-0.102-0.796-0.102-1c-0.102-0.296-0.199-0.597-0.301-0.796
		c-0.199-0.102-0.301-0.301-0.5-0.402c-0.199,0-0.5-0.098-0.801-0.098h-1.699V471.1z M-448.421,471.1L-448.421,471.1z
		 M-447.222,467.1h0.703c0.098,0.102,0.199,0.199,0.199,0.301c0,0.097,0.098,0.199,0.098,0.398v1.5c0,0.198-0.098,0.402-0.098,0.5
		c0,0.198-0.102,0.301-0.102,0.301l-0.199,0.199h-0.602V467.1z M-447.222,467.1L-447.222,467.1z M-441.222,471.1h1.203v-4.898
		h-1.203V471.1z M-441.222,471.1L-441.222,471.1z M-435.019,468.701v-0.902c0.098-0.199,0.098-0.398,0.098-0.5
		c0.102-0.199,0.102-0.199,0.199-0.302c0.102-0.097,0.102-0.097,0.301-0.097c0.102,0,0.199,0,0.199,0.097
		c0.102,0.103,0.203,0.103,0.203,0.302c0,0.102,0,0.301,0.098,0.5v1.698c-0.098,0.302-0.098,0.403-0.098,0.603
		c0,0.102-0.102,0.199-0.203,0.301c0,0-0.098,0.097-0.199,0.097c-0.199,0-0.199-0.097-0.301-0.097
		c-0.098-0.102-0.098-0.199-0.199-0.301c0-0.199,0-0.301-0.098-0.603V468.701z M-435.019,468.701L-435.019,468.701z
		 M-432.722,468.701v-0.704c-0.098-0.198-0.098-0.397-0.098-0.597c-0.102-0.199-0.102-0.301-0.199-0.5
		c-0.102-0.199-0.102-0.301-0.301-0.403c-0.102-0.198-0.301-0.198-0.5-0.296c-0.102-0.102-0.402-0.102-0.602-0.102
		c-0.398,0-0.598,0-0.801,0.102c-0.199,0.098-0.398,0.199-0.5,0.398c-0.098,0.102-0.199,0.301-0.297,0.5
		c-0.102,0.199-0.102,0.5-0.102,0.699v1.698c0,0.302,0,0.603,0.102,0.802c0.098,0.198,0.199,0.402,0.297,0.5
		c0.102,0.102,0.301,0.301,0.5,0.301c0.203,0.102,0.402,0.102,0.801,0.102c0.199,0,0.5,0,0.602-0.102c0.199,0,0.398-0.103,0.5-0.199
		c0.199-0.102,0.199-0.301,0.301-0.403c0.098-0.198,0.098-0.397,0.199-0.597c0-0.102,0-0.403,0.098-0.602V468.701z
		 M-432.722,468.701"/>
	<path fill-rule="evenodd" clip-rule="evenodd" fill="#FFFFFF" d="M-529.12,424.799c1.398-3.802,2.102-7.802,2.102-12.199
		c0-4.199-0.703-8.199-2-12l7.098-2.103c1.301,4.5,2,9.204,2,14.103c0,5-0.699,9.801-2,14.301L-529.12,424.799z M-529.12,424.799"/>
	<path fill-rule="evenodd" clip-rule="evenodd" fill="#FFFFFF" d="M-515.019,428.997c1.398-5.397,2.199-10.796,2.199-16.397
		c0-5.5-0.699-10.898-2.102-16.103l7-2c3.199,12.103,3.199,24.302,0,36.5L-515.019,428.997z M-515.019,428.997"/>
	<path fill-rule="evenodd" clip-rule="evenodd" fill="#FFFFFF" d="M-576.518,424.799c-1.403-3.802-2.102-7.802-2.102-12.199
		c0-4.199,0.699-8.199,2.102-12l-7.204-2.103c-1.296,4.5-2,9.204-2,14.103c0,5,0.704,9.801,2,14.301L-576.518,424.799z
		 M-576.518,424.799"/>
	<path fill-rule="evenodd" clip-rule="evenodd" fill="#FFFFFF" d="M-590.62,428.997c-1.398-5.397-2.199-10.796-2.199-16.397
		c0-5.5,0.699-10.898,2.097-16.103l-7-2c-3.199,12.103-3.199,24.302,0,36.5L-590.62,428.997z M-590.62,428.997"/>
	<path fill-rule="evenodd" clip-rule="evenodd" fill="#FFFFFF" d="M-540.722,388.997c-3.796-1.397-7.796-2.097-12.199-2.097
		c-4.199,0-8.301,0.699-12,2.097l-2.097-7.198c4.5-1.302,9.199-2,14.097-2c5,0,9.801,0.698,14.301,2L-540.722,388.997z
		 M-540.722,388.997"/>
	<path fill-rule="evenodd" clip-rule="evenodd" fill="#FFFFFF" d="M-536.518,374.9c-5.403-1.403-10.801-2.199-16.403-2.199
		c-5.5,0-10.898,0.699-16.097,2.098l-2-7c12.097-3.199,24.296-3.199,36.5,0L-536.518,374.9z M-536.518,374.9"/>
	<path fill-rule="evenodd" clip-rule="evenodd" fill="#FFFFFF" d="M-540.722,436.497c-3.796,1.302-7.796,2-12.199,2
		c-4.199,0-8.301-0.597-12-2l-2.097,7.103c4.5,1.397,9.199,2.102,14.097,2.102c5,0,9.801-0.704,14.301-2.102L-540.722,436.497z
		 M-540.722,436.497"/>
	<path fill-rule="evenodd" clip-rule="evenodd" fill="#FFFFFF" d="M-536.518,450.497c-5.403,1.403-10.801,2.204-16.403,2.204
		c-5.5,0-10.898-0.704-16.097-2.102l-2,7c12.097,3.199,24.296,3.199,36.5,0L-536.518,450.497z M-536.518,450.497"/>
	<path fill-rule="evenodd" clip-rule="evenodd" fill="#FFFFFF" d="M-539.62,399.497c1.898,1.802,3.301,3.903,4.199,6.204
		c0.301,0.796,0.602,1.598,0.801,2.398h-13.5v-13.5c0.801,0.199,1.602,0.5,2.301,0.801
		C-543.421,396.299-541.421,397.701-539.62,399.497L-539.62,399.497z M-539.62,399.497L-539.62,399.497z M-534.722,417.497
		c-0.199,0.802-0.5,1.5-0.796,2.302c-0.801,2.402-2.204,4.5-4.102,6.402c-1.898,1.796-3.898,3.199-6.199,4.098
		c-0.801,0.301-1.602,0.602-2.301,0.801v-13.603H-534.722z M-534.722,417.497L-534.722,417.497z M-557.518,431.1
		c-0.801-0.199-1.5-0.5-2.301-0.801c-2.301-0.898-4.403-2.302-6.199-4.098c-1.903-1.902-3.301-4-4.204-6.402
		c-0.296-0.802-0.5-1.5-0.699-2.302h13.403V431.1z M-557.518,431.1L-557.518,431.1z M-571.018,408.1
		c0.199-0.801,0.5-1.603,0.796-2.398c0.903-2.301,2.301-4.402,4.102-6.204c1.801-1.796,3.898-3.198,6.199-4.097
		c0.801-0.301,1.602-0.602,2.403-0.801v13.5H-571.018z M-571.018,408.1"/>
	<path fill-rule="evenodd" clip-rule="evenodd" fill="#1B1918" d="M-337.21,116.256c2.543,0,4.681,1.017,6.409,2.948
		c1.728,1.936,2.646,4.068,2.646,6.206c0,2.439-0.918,4.676-2.849,6.507c-1.831,1.936-3.865,2.849-6.206,2.849h-24.612
		c-1.22,0-2.134,0.306-2.948,1.017c-0.814,0.612-1.22,1.629-1.22,2.849c0,1.323,0.405,2.34,1.22,3.051
		c0.814,0.711,1.729,1.116,2.948,1.116h16.174c2.948,0,5.693,0.612,8.236,1.832c2.543,1.22,4.68,2.849,6.611,4.987
		c1.831,2.033,3.254,4.167,4.374,6.507c1.017,2.236,1.525,4.883,1.525,7.732c0.104,3.15-0.405,6.103-1.629,8.848
		c-1.22,2.746-2.745,5.085-4.779,7.016c-2.034,1.936-4.374,3.461-7.017,4.577c-2.745,1.017-5.697,1.629-9.055,1.629h-26.444
		c-2.439,0-4.577-0.918-6.404-2.542c-1.832-1.728-2.749-3.866-2.749-6.512c0-2.336,0.917-4.577,2.646-6.507
		c1.729-2.034,3.763-3.051,6.306-3.155h26.345c2.543,0,3.861-1.116,3.861-3.353c0-2.646-1.318-3.866-3.861-3.866h-15.765
		c-2.849,0-5.495-0.613-8.137-1.832c-2.543-1.22-4.681-2.849-6.512-4.883c-1.932-2.132-3.357-4.473-4.375-6.917
		c-1.116-2.542-1.625-5.184-1.625-8.033c0-2.849,0.509-5.698,1.625-8.339c1.121-2.646,2.646-4.987,4.577-7.021
		c1.832-2.034,4.068-3.56,6.715-4.779c2.646-1.219,5.391-1.832,8.442-1.931H-337.21z M-337.21,116.256"/>
	<path fill-rule="evenodd" clip-rule="evenodd" fill="#1B1918" d="M-400.062,116.967c2.439,0,4.576,0.913,6.201,2.745
		c1.729,1.832,2.646,3.97,2.849,6.611v50.652c0,2.646-0.814,4.779-2.439,6.507c-1.629,1.733-3.865,2.646-6.61,2.849
		c-2.543,0-4.577-0.71-6.31-2.236c-1.729-1.525-2.845-3.762-3.15-6.508v-51.871c0.099-2.444,1.116-4.577,2.947-6.103
		C-404.743,117.984-402.605,117.07-400.062,116.967L-400.062,116.967z M-400.062,116.967"/>
	<path fill-rule="evenodd" clip-rule="evenodd" fill="#FFCB00" d="M-400.062,95.1c2.439,0,4.576,0.913,6.404,2.745
		c1.732,1.833,2.646,4.069,2.646,6.513c0,2.542-0.913,4.779-2.646,6.611c-1.828,1.827-3.965,2.746-6.404,2.746
		c-2.85-0.104-5.086-0.918-6.918-2.647c-1.728-1.624-2.542-4.068-2.542-7.119c0.099-2.439,1.017-4.577,2.849-6.305
		C-404.743,95.914-402.605,95.1-400.062,95.1L-400.062,95.1z M-400.062,95.1"/>
	<path fill-rule="evenodd" clip-rule="evenodd" fill="#1B1918" d="M-447.767,116.661c4.374,0.509,8.339,1.729,12.105,3.763
		c3.861,2.034,7.119,4.577,9.865,7.628c2.642,3.155,4.779,6.715,6.408,10.68c1.525,3.969,2.336,8.137,2.336,12.511v25.329
		c0,2.642-0.914,4.78-2.845,6.612c-1.935,1.827-4.068,2.745-6.512,2.745c-3.254,0-5.999-1.525-7.934-4.577
		c-0.509,0.203-0.914,0.405-1.319,0.607c-0.409,0.207-0.814,0.41-1.12,0.612c-2.341,1.12-4.681,1.93-7.12,2.542
		c-2.439,0.509-5.085,0.814-7.831,0.814c-7.119,0-13.527-1.935-19.226-5.796c-5.594-3.866-9.762-8.853-12.61-15.054
		c-0.913-2.138-1.629-4.375-2.137-6.715c-0.608-2.236-0.811-4.676-0.811-7.12c0-2.542,0.202-4.883,0.811-7.218
		c0.508-2.241,1.224-4.478,2.137-6.714c2.849-6.207,7.017-11.188,12.61-15.054c5.698-3.762,12.106-5.693,19.226-5.693h2.034
		C-448.986,116.562-448.375,116.562-447.767,116.661L-447.767,116.661z M-447.767,116.661L-447.767,116.661z M-451.835,167.313
		c2.137,0,4.271-0.405,6.205-1.324c1.932-0.71,3.659-1.93,5.086-3.253c1.422-1.525,2.543-3.155,3.456-5.189
		c0.814-1.93,1.22-4.068,1.22-6.305c0-2.133-0.405-4.167-1.22-6.103c-0.913-1.93-2.034-3.659-3.56-5.184
		c-1.422-1.427-3.15-2.646-5.185-3.461c-1.935-0.914-3.969-1.323-6.003-1.323c-2.134,0-4.168,0.41-6,1.323
		c-1.935,0.815-3.663,2.034-5.188,3.461c-1.422,1.525-2.543,3.254-3.457,5.184c-0.814,1.936-1.322,3.97-1.322,6.103
		c0,2.237,0.508,4.271,1.422,6.207c0.918,1.93,2.034,3.659,3.56,5.085c1.526,1.422,3.155,2.543,5.086,3.456
		C-455.801,166.805-453.869,167.313-451.835,167.313L-451.835,167.313z M-451.835,167.313"/>
	<path fill-rule="evenodd" clip-rule="evenodd" fill="#1B1918" d="M-550.084,116.562c2.844,0,5.594,0.405,8.339,1.318
		c2.746,0.918,5.185,2.34,7.525,4.275c4.577-3.767,9.968-5.594,16.071-5.594c3.357,0,6.508,0.607,9.663,1.931
		c3.051,1.219,5.796,3.051,8.137,5.189c2.34,2.237,4.171,4.878,5.594,7.93c1.422,3.051,2.034,6.31,2.034,9.766v35.904
		c0,2.34-0.914,4.375-2.849,6.103c-1.931,1.728-4.068,2.542-6.611,2.542c-2.439,0-4.577-0.918-6.508-2.849
		c-1.831-1.832-2.745-3.965-2.745-6.508v-34.788c0-1.827-0.612-3.353-1.935-4.577c-1.323-1.22-2.85-1.827-4.78-1.827
		c-1.629,0-3.154,0.509-4.577,1.625c-1.322,1.017-2.033,2.646-2.033,4.78v34.788c0,2.642-0.914,4.78-2.85,6.612
		c-1.831,1.827-3.965,2.745-6.611,2.745c-2.439,0-4.577-0.814-6.409-2.542c-1.931-1.629-2.948-3.664-2.948-6.103v-35.5
		c-0.104-1.931-0.711-3.456-2.138-4.676c-1.318-1.121-2.745-1.729-4.37-1.729c-1.832,0-3.357,0.607-4.681,1.827
		c-1.323,1.224-2.034,2.75-2.138,4.681v35.599c-0.203,2.236-1.116,4.271-2.844,5.9c-1.832,1.728-3.97,2.542-6.409,2.542
		c-1.323,0-2.542-0.306-3.762-0.711c-1.121-0.509-2.138-1.121-2.953-2.034c-0.914-0.815-1.526-1.832-2.133-2.953
		c-0.509-1.219-0.716-2.34-0.612-3.659v-35.193c0-3.358,0.612-6.507,2.034-9.559c1.323-3.051,3.155-5.698,5.391-7.935
		c2.341-2.237,4.982-3.97,8.137-5.288C-557.001,117.273-553.644,116.562-550.084,116.562L-550.084,116.562z M-550.084,116.562"/>
	<path fill-rule="evenodd" clip-rule="evenodd" fill="#1B1918" d="M-575.921,213.793h2.953v-12.511h-2.953V213.793z
		 M-575.921,213.793L-575.921,213.793z M-562.699,213.793h2.646v-8.646l2.642,8.646h3.259v-12.511h-2.75v8.137l-2.439-8.137h-3.358
		V213.793z M-562.699,213.793L-562.699,213.793z M-542.155,213.793h2.953v-10.171h2.642v-2.34h-8.137v2.34h2.542V213.793z
		 M-542.155,213.793L-542.155,213.793z M-527.199,213.793h7.524v-2.34h-4.577v-2.844h4.068v-2.444h-4.068v-2.543h4.375v-2.34h-7.322
		V213.793z M-527.199,213.793L-527.199,213.793z M-507.064,203.316h0.918c0.306,0,0.607,0.104,0.914,0.207
		c0.202,0.099,0.306,0.301,0.409,0.509c0.099,0.301,0.202,0.508,0.202,0.914c0,0.202,0,0.306-0.104,0.508
		c-0.099,0.202-0.099,0.405-0.202,0.509c-0.104,0.202-0.306,0.306-0.509,0.508c-0.202,0-0.405,0.104-0.711,0.104h-0.918V203.316z
		 M-507.064,203.316L-507.064,203.316z M-510.013,213.793h2.948v-5.184h1.12c0.203,0,0.405,0.098,0.612,0.098
		c0.1,0.104,0.202,0.203,0.302,0.41c0.104,0.203,0.207,0.509,0.207,0.81c0.099,0.41,0.099,0.814,0.099,1.323v1.219
		c0.104,0.307,0.104,0.613,0.104,0.815c0.1,0.202,0.1,0.409,0.203,0.508h3.154v-0.099l-0.207-0.208
		c-0.099,0-0.099-0.099-0.099-0.202c-0.104-0.1-0.104-0.307-0.104-0.509c-0.1-0.203-0.1-0.508-0.1-0.815v-1.22
		c0-0.405,0-0.814-0.104-1.116c0-0.41-0.103-0.716-0.306-0.918c-0.1-0.306-0.306-0.508-0.509-0.71
		c-0.306-0.203-0.607-0.307-1.116-0.405c0.405-0.104,0.811-0.306,1.116-0.508c0.307-0.208,0.612-0.612,0.712-1.018
		c0.206-0.41,0.306-0.918,0.306-1.525c0-0.41-0.1-0.814-0.203-1.224c-0.103-0.405-0.306-0.81-0.611-1.116
		c-0.203-0.306-0.608-0.508-1.018-0.711c-0.405-0.104-0.913-0.207-1.525-0.207h-4.982V213.793z M-510.013,213.793L-510.013,213.793z
		 M-491.602,213.793h2.643v-8.646l2.646,8.646h3.254v-12.511h-2.646v8.137h-0.1l-2.443-8.137h-3.354V213.793z M-491.602,213.793
		L-491.602,213.793z M-472.889,213.793h7.525v-2.34h-4.577v-2.844h4.068v-2.444h-4.068v-2.543h4.374v-2.34h-7.322V213.793z
		 M-472.889,213.793L-472.889,213.793z M-453.869,213.793h2.951v-10.171h2.643v-2.34h-8.236v2.34h2.643V213.793z M-453.869,213.793
		L-453.869,213.793z M-424.576,209.117h-2.138l1.017-5.594L-424.576,209.117z M-424.576,209.117L-424.576,209.117z
		 M-430.679,213.793h3.051l0.509-2.34h2.948l0.508,2.34h3.052l-3.15-12.511h-3.663L-430.679,213.793z M-430.679,213.793
		L-430.679,213.793z M-399.252,203.316h0.917c0.307,0,0.608,0.104,0.914,0.207c0.202,0.099,0.306,0.301,0.409,0.509
		c0.1,0.301,0.203,0.508,0.203,0.914c0,0.202-0.104,0.306-0.104,0.508c0,0.202-0.1,0.405-0.203,0.509l-0.508,0.508
		c-0.203,0-0.405,0.104-0.712,0.104h-0.917V203.316z M-399.252,203.316L-399.252,203.316z M-402.2,213.793h2.948v-5.184h1.12
		c0.202,0,0.405,0.098,0.611,0.098c0.1,0.104,0.203,0.203,0.302,0.41c0.104,0.203,0.207,0.509,0.207,0.81
		c0.1,0.41,0.1,0.814,0.1,1.323v1.219c0,0.307,0.104,0.613,0.104,0.815c0.099,0.202,0.099,0.409,0.202,0.508h3.154v-0.099
		c0-0.104-0.103-0.104-0.206-0.208c0,0-0.1-0.099-0.1-0.202c-0.104-0.1-0.104-0.307-0.104-0.509c0-0.203-0.099-0.508-0.099-0.815
		v-1.22c0-0.405-0.104-0.814-0.104-1.116c0-0.41-0.104-0.716-0.203-0.918c-0.103-0.306-0.306-0.508-0.611-0.71
		c-0.306-0.203-0.711-0.307-1.116-0.405c0.405-0.104,0.811-0.306,1.116-0.508c0.306-0.208,0.611-0.612,0.711-1.018
		c0.207-0.41,0.306-0.918,0.306-1.525c0-0.41-0.099-0.814-0.202-1.224c-0.104-0.405-0.306-0.81-0.612-1.116
		c-0.202-0.306-0.607-0.508-1.017-0.711c-0.405-0.104-0.914-0.207-1.625-0.207h-4.883V213.793z M-402.2,213.793L-402.2,213.793z
		 M-378.604,209.117h-2.134l1.018-5.594L-378.604,209.117z M-378.604,209.117L-378.604,209.117z M-384.604,213.793h2.947l0.509-2.34
		h2.952l0.509,2.34h3.051l-3.154-12.511h-3.663L-384.604,213.793z M-384.604,213.793L-384.604,213.793z M-380.738,200.472h1.828
		l1.831-2.444h-2.745L-380.738,200.472z M-380.738,200.472L-380.738,200.472z M-365.383,213.793h4.172
		c0.711,0,1.323-0.099,1.832-0.203c0.607-0.203,1.017-0.508,1.318-0.814c0.409-0.307,0.612-0.815,0.814-1.323
		c0.203-0.509,0.307-1.116,0.307-1.931c0.103-0.612,0.103-1.525,0.103-2.34c0-1.116-0.103-2.034-0.206-2.849
		c-0.203-0.711-0.405-1.319-0.711-1.729c-0.405-0.508-0.814-0.814-1.323-1.017c-0.509-0.202-1.22-0.306-1.931-0.306h-4.375V213.793z
		 M-365.383,213.793L-365.383,213.793z M-362.431,203.42h0.811c0.409,0,0.715,0.104,1.018,0.202
		c0.206,0.104,0.409,0.307,0.508,0.612c0.104,0.306,0.207,0.711,0.307,1.22v3.762c-0.1,0.508-0.1,0.918-0.203,1.22
		c-0.104,0.306-0.202,0.612-0.405,0.814c-0.104,0.104-0.306,0.203-0.509,0.306c-0.206,0.104-0.409,0.104-0.715,0.104h-0.811V203.42z
		 M-362.431,203.42L-362.431,203.42z M-346.872,213.793h2.952v-12.511h-2.952V213.793z M-346.872,213.793L-346.872,213.793z
		 M-330.9,207.592c0-0.918,0-1.629,0.1-2.241c0-0.607,0-1.017,0.103-1.422c0.1-0.307,0.307-0.612,0.405-0.711
		c0.203-0.203,0.409-0.203,0.711-0.203c0.307,0,0.509,0,0.716,0.203c0.202,0.099,0.302,0.405,0.405,0.711
		c0.104,0.405,0.202,0.814,0.202,1.422c0,0.612,0.104,1.323,0.104,2.241c0,0.81-0.104,1.525-0.104,2.133
		c0,0.612-0.099,1.017-0.202,1.427c-0.104,0.302-0.203,0.509-0.405,0.711c-0.207,0.203-0.409,0.203-0.716,0.203
		c-0.302,0-0.508,0-0.711-0.203c-0.099-0.202-0.306-0.41-0.405-0.711c-0.103-0.41-0.103-0.814-0.103-1.427
		C-330.9,209.117-330.9,208.402-330.9,207.592L-330.9,207.592z M-330.9,207.592L-330.9,207.592z M-325.104,207.592
		c0-0.612-0.104-1.224-0.104-1.733c0-0.607-0.1-1.116-0.203-1.525c0-0.509-0.202-0.914-0.405-1.319
		c-0.206-0.41-0.409-0.814-0.715-1.12c-0.302-0.203-0.811-0.509-1.22-0.612c-0.509-0.203-1.116-0.301-1.832-0.301
		c-0.711,0-1.422,0.099-1.931,0.301c-0.508,0.207-0.913,0.508-1.22,0.918c-0.409,0.307-0.611,0.814-0.814,1.323
		c-0.202,0.509-0.306,1.116-0.306,1.827c-0.1,0.612-0.1,1.427-0.1,2.241c0,0.81,0,1.525,0.1,2.133c0,0.711,0.104,1.324,0.306,1.832
		c0.203,0.509,0.405,1.017,0.814,1.323c0.307,0.405,0.712,0.711,1.22,0.914c0.509,0.202,1.22,0.202,1.931,0.306
		c0.716-0.104,1.323-0.104,1.832-0.306c0.409-0.099,0.918-0.405,1.22-0.608c0.306-0.306,0.509-0.716,0.715-1.12
		c0.203-0.405,0.405-0.815,0.405-1.324c0.104-0.405,0.203-1.017,0.203-1.525C-325.207,208.708-325.104,208.1-325.104,207.592
		L-325.104,207.592z M-325.104,207.592"/>
	<path fill-rule="evenodd" clip-rule="evenodd" fill="#FFCB00" d="M-584.834,97.003c1.697-4.703,2.57-9.697,2.57-14.981
		c0-5.188-0.873-10.135-2.521-14.788l8.728-2.521c1.647,5.477,2.471,11.249,2.471,17.309c0,6.158-0.871,11.976-2.521,17.502
		L-584.834,97.003z M-584.834,97.003"/>
	<path fill-rule="evenodd" clip-rule="evenodd" fill="#FFCB00" d="M-567.573,101.998c1.745-6.496,2.667-13.188,2.714-20.025
		c0-6.738-0.871-13.333-2.667-19.733l8.631-2.474c3.928,14.887,3.928,29.819-0.047,44.753L-567.573,101.998z M-567.573,101.998"/>
	<path fill-rule="evenodd" clip-rule="evenodd" fill="#FFCB00" d="M-643.065,97.003c-1.697-4.703-2.57-9.697-2.57-14.981
		c0-5.188,0.874-10.135,2.521-14.788l-8.728-2.521c-1.648,5.477-2.425,11.249-2.425,17.309c0,6.158,0.824,11.976,2.474,17.502
		L-643.065,97.003z M-643.065,97.003"/>
	<path fill-rule="evenodd" clip-rule="evenodd" fill="#FFCB00" d="M-660.278,101.998c-1.795-6.496-2.716-13.188-2.716-20.025
		c-0.049-6.738,0.824-13.333,2.618-19.733l-8.628-2.474c-3.879,14.887-3.879,29.819,0.047,44.753L-660.278,101.998z
		 M-660.278,101.998"/>
	<path fill-rule="evenodd" clip-rule="evenodd" fill="#FFCB00" d="M-599.088,53.027c-4.656-1.747-9.65-2.57-14.935-2.57
		c-5.237,0-10.182,0.824-14.788,2.521l-2.521-8.728c5.43-1.647,11.249-2.472,17.309-2.472c6.157,0,11.976,0.824,17.505,2.521
		L-599.088,53.027z M-599.088,53.027"/>
	<path fill-rule="evenodd" clip-rule="evenodd" fill="#FFCB00" d="M-594.047,35.765c-6.546-1.744-13.237-2.667-20.025-2.714
		c-6.739-0.049-13.333,0.874-19.78,2.618l-2.474-8.631c14.935-3.878,29.869-3.829,44.801,0.05L-594.047,35.765z M-594.047,35.765"/>
	<path fill-rule="evenodd" clip-rule="evenodd" fill="#FFCB00" d="M-599.088,111.26c-4.656,1.697-9.65,2.521-14.935,2.521
		c-5.237,0-10.182-0.824-14.788-2.474l-2.521,8.681c5.43,1.648,11.249,2.471,17.309,2.471c6.157,0,11.976-0.823,17.505-2.521
		L-599.088,111.26z M-599.088,111.26"/>
	<path fill-rule="evenodd" clip-rule="evenodd" fill="#FFCB00" d="M-594.047,128.472c-6.546,1.793-13.237,2.667-20.025,2.714
		c-6.739,0.049-13.333-0.824-19.78-2.618l-2.474,8.631c14.935,3.925,29.869,3.878,44.801-0.05L-594.047,128.472z M-594.047,128.472"
		/>
	<path fill-rule="evenodd" clip-rule="evenodd" fill="#FFCB00" d="M-597.73,65.972c2.229,2.231,3.926,4.801,5.042,7.565
		c0.388,0.97,0.728,1.939,0.97,2.956h-16.535V59.961c1.02,0.242,1.939,0.582,2.909,0.97
		C-602.532,62.046-599.962,63.743-597.73,65.972L-597.73,65.972z M-597.73,65.972L-597.73,65.972z M-591.815,87.986
		c-0.243,0.97-0.535,1.89-0.923,2.86c-1.066,2.86-2.763,5.43-5.138,7.758c-2.231,2.278-4.752,3.928-7.565,5.042
		c-0.92,0.389-1.89,0.728-2.812,0.97V87.986H-591.815z M-591.815,87.986L-591.815,87.986z M-619.745,104.615
		c-0.97-0.242-1.89-0.581-2.813-0.97c-2.81-1.113-5.333-2.764-7.562-5.042c-2.377-2.328-4.075-4.898-5.141-7.758
		c-0.389-0.97-0.678-1.89-0.92-2.86h16.436V104.615z M-619.745,104.615L-619.745,104.615z M-636.277,76.493
		c0.243-1.017,0.581-1.986,0.97-2.956c1.113-2.812,2.81-5.333,5.042-7.565c2.231-2.229,4.752-3.926,7.612-5.042
		c0.97-0.388,1.893-0.728,2.909-0.97v16.532H-636.277z M-636.277,76.493"/>
</g>
<g>
	<g>
		<path fill-rule="evenodd" clip-rule="evenodd" fill="#1B1918" d="M165.345,45.349c1.292,0,2.379,0.517,3.26,1.5
			c0.878,0.984,1.345,2.068,1.345,3.154c0,1.242-0.467,2.379-1.447,3.31c-0.934,0.982-1.968,1.448-3.157,1.448h-12.517
			c-0.62,0-1.087,0.156-1.499,0.518c-0.413,0.31-0.62,0.828-0.62,1.45c0,0.671,0.207,1.19,0.62,1.55
			c0.412,0.361,0.879,0.566,1.499,0.566h8.226c1.499,0,2.895,0.314,4.187,0.935c1.294,0.62,2.381,1.448,3.364,2.535
			c0.929,1.033,1.654,2.117,2.223,3.308c0.519,1.14,0.776,2.485,0.776,3.933c0.055,1.602-0.205,3.103-0.827,4.497
			c-0.621,1.396-1.401,2.587-2.434,3.57c-1.034,0.983-2.222,1.758-3.565,2.326c-1.395,0.518-2.898,0.829-4.607,0.829h-13.444
			c-1.241,0-2.326-0.467-3.256-1.293c-0.932-0.879-1.398-1.964-1.398-3.313c0-1.186,0.467-2.325,1.346-3.308
			c0.88-1.035,1.914-1.552,3.206-1.603h13.395c1.294,0,1.962-0.569,1.962-1.706c0-1.345-0.668-1.965-1.962-1.965h-8.017
			c-1.449,0-2.791-0.312-4.136-0.934c-1.292-0.62-2.381-1.447-3.311-2.481c-0.982-1.085-1.707-2.277-2.225-3.519
			c-0.571-1.294-0.825-2.637-0.825-4.084c0-1.448,0.254-2.897,0.825-4.242c0.572-1.343,1.345-2.534,2.325-3.568
			c0.932-1.034,2.07-1.81,3.415-2.43c1.349-0.62,2.743-0.931,4.295-0.983H165.345z M165.345,45.349"/>
		<path fill-rule="evenodd" clip-rule="evenodd" fill="#1B1918" d="M133.383,45.711c1.245,0,2.326,0.463,3.155,1.396
			c0.878,0.93,1.343,2.019,1.445,3.361v25.756c0,1.345-0.411,2.43-1.238,3.309c-0.829,0.88-1.964,1.347-3.362,1.449
			c-1.293,0-2.323-0.363-3.207-1.139c-0.881-0.774-1.448-1.912-1.602-3.308V50.16c0.05-1.243,0.563-2.327,1.497-3.104
			C131.004,46.229,132.09,45.762,133.383,45.711L133.383,45.711z M133.383,45.711"/>
		<path fill-rule="evenodd" clip-rule="evenodd" fill="#F8E12E" d="M133.383,34.593c1.245,0,2.326,0.463,3.256,1.395
			c0.884,0.932,1.345,2.068,1.345,3.311c0,1.294-0.461,2.432-1.345,3.363c-0.93,0.929-2.011,1.395-3.256,1.395
			c-1.449-0.053-2.582-0.466-3.517-1.345c-0.879-0.826-1.292-2.069-1.292-3.619c0.05-1.241,0.518-2.328,1.447-3.206
			C131.004,35.006,132.09,34.593,133.383,34.593L133.383,34.593z M133.383,34.593"/>
		<path fill-rule="evenodd" clip-rule="evenodd" fill="#1B1918" d="M109.127,45.554c2.226,0.261,4.242,0.88,6.156,1.914
			c1.962,1.034,3.62,2.328,5.018,3.878c1.342,1.605,2.429,3.416,3.258,5.432c0.775,2.019,1.188,4.139,1.188,6.363v12.878
			c0,1.342-0.467,2.431-1.447,3.361c-0.985,0.93-2.068,1.397-3.312,1.397c-1.65,0-3.047-0.776-4.033-2.327
			c-0.258,0.102-0.467,0.205-0.67,0.309c-0.208,0.104-0.412,0.208-0.571,0.312c-1.188,0.569-2.38,0.98-3.617,1.293
			c-1.242,0.257-2.588,0.414-3.984,0.414c-3.619,0-6.878-0.984-9.773-2.947c-2.847-1.966-4.968-4.502-6.414-7.655
			c-0.465-1.087-0.83-2.226-1.087-3.414c-0.309-1.14-0.411-2.379-0.411-3.621c0-1.293,0.103-2.484,0.411-3.671
			c0.257-1.141,0.622-2.277,1.087-3.414c1.446-3.154,3.567-5.688,6.414-7.655c2.896-1.912,6.154-2.895,9.773-2.895h1.034
			C108.507,45.505,108.818,45.505,109.127,45.554L109.127,45.554z M109.127,45.554L109.127,45.554z M107.058,71.311
			c1.087,0,2.171-0.206,3.155-0.671c0.982-0.362,1.86-0.983,2.585-1.653c0.727-0.777,1.296-1.605,1.761-2.64
			c0.415-0.982,0.617-2.068,0.617-3.206c0-1.085-0.202-2.119-0.617-3.104c-0.465-0.98-1.034-1.859-1.812-2.636
			c-0.723-0.726-1.602-1.346-2.639-1.759c-0.981-0.467-2.015-0.673-3.051-0.673c-1.083,0-2.117,0.206-3.051,0.673
			c-0.982,0.413-1.86,1.033-2.639,1.759c-0.723,0.776-1.29,1.655-1.758,2.636c-0.412,0.985-0.674,2.019-0.674,3.104
			c0,1.138,0.262,2.171,0.727,3.156c0.465,0.982,1.034,1.86,1.81,2.583c0.776,0.726,1.604,1.296,2.588,1.761
			C105.043,71.054,106.022,71.311,107.058,71.311L107.058,71.311z M107.058,71.311"/>
		<path fill-rule="evenodd" clip-rule="evenodd" fill="#1B1918" d="M57.103,45.505c1.443,0,2.84,0.207,4.239,0.67
			c1.395,0.467,2.636,1.191,3.823,2.175c2.328-1.916,5.069-2.845,8.171-2.845c1.711,0,3.311,0.31,4.915,0.983
			c1.55,0.62,2.948,1.549,4.136,2.639c1.191,1.135,2.124,2.479,2.847,4.03c0.722,1.551,1.036,3.208,1.036,4.966v18.258
			c0,1.189-0.469,2.224-1.451,3.103c-0.98,0.879-2.067,1.293-3.359,1.293c-1.241,0-2.33-0.467-3.311-1.448
			c-0.93-0.933-1.396-2.016-1.396-3.31V58.328c0-0.927-0.31-1.702-0.984-2.327c-0.672-0.619-1.445-0.929-2.432-0.929
			c-0.825,0-1.602,0.261-2.324,0.827c-0.674,0.517-1.036,1.345-1.036,2.429v17.691c0,1.342-0.461,2.431-1.445,3.361
			c-0.932,0.93-2.019,1.397-3.365,1.397c-1.239,0-2.326-0.414-3.258-1.293c-0.979-0.829-1.5-1.862-1.5-3.103V58.328
			c-0.051-0.979-0.362-1.756-1.085-2.376c-0.67-0.569-1.395-0.879-2.22-0.879c-0.934,0-1.709,0.31-2.383,0.929
			c-0.674,0.625-1.034,1.4-1.089,2.382v18.1c-0.104,1.14-0.565,2.173-1.444,3.002c-0.931,0.879-2.018,1.293-3.261,1.293
			c-0.671,0-1.293-0.157-1.912-0.363c-0.567-0.259-1.087-0.57-1.5-1.034c-0.465-0.414-0.774-0.93-1.086-1.501
			c-0.258-0.62-0.365-1.19-0.308-1.86V58.123c0-1.708,0.308-3.307,1.032-4.858c0.672-1.553,1.605-2.898,2.74-4.038
			c1.192-1.136,2.536-2.019,4.137-2.688C53.581,45.866,55.291,45.505,57.103,45.505L57.103,45.505z M57.103,45.505"/>
	</g>
	<g>
		<path fill-rule="evenodd" clip-rule="evenodd" fill="#F8E12E" d="M40.603,38.803c0.646-1.795,0.979-3.698,0.979-5.714
			c0-1.979-0.333-3.867-0.961-5.641l3.33-0.962c0.628,2.089,0.941,4.29,0.941,6.603c0,2.347-0.331,4.566-0.961,6.675L40.603,38.803z
			 M40.603,38.803"/>
		<path fill-rule="evenodd" clip-rule="evenodd" fill="#F8E12E" d="M47.185,40.708c0.667-2.479,1.019-5.031,1.035-7.638
			c0-2.571-0.331-5.085-1.016-7.527l3.292-0.944c1.498,5.679,1.498,11.373-0.018,17.07L47.185,40.708z M47.185,40.708"/>
		<path fill-rule="evenodd" clip-rule="evenodd" fill="#F8E12E" d="M18.392,38.803c-0.647-1.795-0.979-3.698-0.979-5.714
			c0-1.979,0.331-3.867,0.959-5.641l-3.326-0.962c-0.63,2.089-0.925,4.29-0.925,6.603c0,2.347,0.312,4.566,0.942,6.675
			L18.392,38.803z M18.392,38.803"/>
		<path fill-rule="evenodd" clip-rule="evenodd" fill="#F8E12E" d="M11.828,40.708c-0.687-2.479-1.037-5.031-1.037-7.638
			c-0.017-2.571,0.314-5.085,0.998-7.527l-3.291-0.944c-1.48,5.679-1.48,11.373,0.018,17.07L11.828,40.708z M11.828,40.708"/>
		<path fill-rule="evenodd" clip-rule="evenodd" fill="#F8E12E" d="M35.163,22.03c-1.773-0.667-3.679-0.98-5.692-0.98
			c-2,0-3.884,0.313-5.643,0.961l-0.961-3.329c2.072-0.627,4.289-0.942,6.604-0.942c2.348,0,4.566,0.315,6.676,0.961L35.163,22.03z
			 M35.163,22.03"/>
		<path fill-rule="evenodd" clip-rule="evenodd" fill="#F8E12E" d="M37.086,15.446c-2.494-0.664-5.047-1.018-7.637-1.035
			c-2.567-0.02-5.086,0.333-7.544,0.999l-0.943-3.292c5.696-1.48,11.394-1.461,17.088,0.017L37.086,15.446z M37.086,15.446"/>
		<path fill-rule="evenodd" clip-rule="evenodd" fill="#F8E12E" d="M35.163,44.24c-1.773,0.647-3.679,0.962-5.692,0.962
			c-2,0-3.884-0.315-5.643-0.944l-0.961,3.312c2.072,0.628,4.289,0.942,6.604,0.942c2.348,0,4.566-0.314,6.676-0.961L35.163,44.24z
			 M35.163,44.24"/>
		<path fill-rule="evenodd" clip-rule="evenodd" fill="#F8E12E" d="M37.086,50.806c-2.494,0.683-5.047,1.017-7.637,1.035
			c-2.567,0.019-5.086-0.314-7.544-0.998l-0.943,3.292c5.696,1.497,11.394,1.479,17.088-0.021L37.086,50.806z M37.086,50.806"/>
		<path fill-rule="evenodd" clip-rule="evenodd" fill="#F8E12E" d="M35.681,26.968c0.852,0.85,1.499,1.832,1.925,2.886
			c0.149,0.37,0.277,0.74,0.371,1.127h-6.308v-6.307c0.39,0.093,0.738,0.223,1.11,0.371C33.852,25.469,34.832,26.119,35.681,26.968
			L35.681,26.968z M35.681,26.968L35.681,26.968z M37.939,35.363c-0.096,0.37-0.206,0.721-0.351,1.092
			c-0.409,1.091-1.057,2.071-1.962,2.958c-0.851,0.868-1.812,1.498-2.884,1.922c-0.352,0.149-0.722,0.277-1.074,0.37v-6.342H37.939z
			 M37.939,35.363L37.939,35.363z M27.286,41.706c-0.37-0.092-0.719-0.22-1.069-0.37c-1.074-0.425-2.038-1.054-2.887-1.922
			c-0.909-0.888-1.552-1.868-1.962-2.958c-0.146-0.371-0.257-0.722-0.351-1.092h6.269V41.706z M27.286,41.706L27.286,41.706z
			 M20.981,30.98c0.093-0.387,0.219-0.757,0.37-1.127c0.427-1.074,1.069-2.036,1.923-2.886c0.851-0.849,1.812-1.499,2.903-1.923
			c0.368-0.148,0.724-0.278,1.108-0.371v6.307H20.981z M20.981,30.98"/>
	</g>
</g>
<path fill="#404041" d="M125.34,98.237h11.795c0.277,0,0.5,0.225,0.5,0.5v3.491c0,0.276-0.223,0.5-0.5,0.5h-5.23v13.195
	c0,0.276-0.224,0.5-0.5,0.5h-2.115c-1.66,0-3.004-1.346-3.004-3.005v-10.69h-4.878L125.34,98.237z"/>
<path fill="#404041" d="M104.195,98.237h6.104c0.714,0,1.373,0.383,1.727,1.004l2.301,4.043l2.758-4.152
	c0.371-0.559,0.996-0.895,1.666-0.895h6.584l-6.178,8.628l6.072,8.695c0.231,0.332-0.006,0.786-0.41,0.786h-5.983
	c-0.716,0-1.377-0.382-1.734-1.003l-2.774-4.829l-3.336,4.95c-0.371,0.552-0.992,0.882-1.658,0.882h-6.456l6.577-9.481l-5.662-7.835
	C103.552,98.699,103.787,98.237,104.195,98.237"/>
<path fill="#FAAF40" d="M104.162,98.237h6.182c0.672,0,1.299,0.338,1.668,0.897l4.354,6.585c0.457,0.69,0.441,1.59-0.04,2.264
	l-5.365,7.524c-0.375,0.527-0.981,0.839-1.628,0.839h-6.49l5.688-8.196l0.891-1.284l-5.663-7.835
	C103.518,98.7,103.754,98.237,104.162,98.237"/>
<g opacity="0.63">
	<g>
		<defs>
			
				<rect id="SVGID_1_" x="154.748" y="113.454" transform="matrix(-0.7071 0.7071 -0.7071 -0.7071 350.0682 88.4555)" width="3.932" height="6.551"/>
		</defs>
		<clipPath id="SVGID_2_">
			<use xlink:href="#SVGID_1_"  overflow="visible"/>
		</clipPath>
		<polygon clip-path="url(#SVGID_2_)" fill="#A52022" points="160.516,116.347 154.108,117.676 153.319,116.25 		"/>
	</g>
</g>
<path fill="#FAAF40" d="M150.891,113.094l3.495-5.099c0.381-0.554,1.014-0.88,1.684-0.868l7.893,0.133
	c0.828,0.014,1.561,0.535,1.844,1.313l1.913,5.234l-6.738-0.17l-9.664,0.24C150.907,113.887,150.66,113.431,150.891,113.094"/>
<g opacity="0.63">
	<g>
		<defs>
			
				<rect id="SVGID_3_" x="162.999" y="104.075" transform="matrix(0.586 -0.8103 0.8103 0.586 -18.6391 178.135)" width="4.034" height="6.468"/>
		</defs>
		<clipPath id="SVGID_4_">
			<use xlink:href="#SVGID_3_"  overflow="visible"/>
		</clipPath>
		<polygon clip-path="url(#SVGID_4_)" fill="#A52022" points="161.214,107.049 167.763,106.802 168.246,108.36 		"/>
	</g>
</g>
<path fill="#F6921E" d="M199.042,102.996l-3.495-5.099c-0.381-0.554-1.014-0.88-1.684-0.868l-7.893,0.133
	c-0.828,0.014-1.561,0.535-1.845,1.313l-1.912,5.234l6.738-0.17l9.664,0.24C199.025,103.79,199.272,103.333,199.042,102.996"/>
<polygon fill="#A52022" points="113.042,112.52 109.109,107.291 110.063,105.968 "/>
<path fill="#F6921E" d="M104.162,98.237h6.182c0.672,0,1.299,0.338,1.668,0.897l4.354,6.585c0.457,0.69,0.441,1.59-0.04,2.264
	l-3.235,4.537l-3.67-5.654l-5.663-7.835C103.518,98.7,103.754,98.237,104.162,98.237"/>
<path fill="#404041" d="M70.789,114.535l5.377,1.453c0.691,0.187,1.429-0.011,1.936-0.517l4.23-4.231
	c0.286-0.286,0.133-0.774-0.266-0.846l-10.442-1.855L69.892,98.07l-4.655,4.656c-0.475,0.474-0.679,1.153-0.546,1.811l0.986,4.886
	L70.789,114.535z"/>
<path fill="#FAAF40" d="M56.667,111.118l4.371-4.371c0.475-0.475,1.157-0.679,1.813-0.544l7.735,1.578
	c0.811,0.165,1.436,0.812,1.572,1.629l1.526,9.114c0.107,0.638-0.101,1.288-0.558,1.745l-4.59,4.589l-1.773-9.817l-0.278-1.538
	l-9.545-1.536C56.538,111.901,56.378,111.407,56.667,111.118"/>
<polygon fill="#A52022" points="73.046,114.939 66.566,114.022 66.307,112.413 "/>
<path fill="#F6921E" d="M56.667,111.118l4.371-4.371c0.475-0.475,1.157-0.679,1.813-0.544l7.735,1.578
	c0.811,0.165,1.436,0.812,1.572,1.629l0.92,5.496l-6.593-1.403l-9.545-1.536C56.538,111.901,56.378,111.407,56.667,111.118"/>
<g>
	<g>
		<path fill-rule="evenodd" clip-rule="evenodd" fill="#303030" d="M136.09,159.356c1.269,0,2.336,0.508,3.201,1.474
			c0.862,0.967,1.32,2.031,1.32,3.098c0,1.219-0.458,2.337-1.421,3.25c-0.917,0.965-1.933,1.422-3.101,1.422h-12.293
			c-0.609,0-1.067,0.153-1.472,0.508c-0.406,0.305-0.609,0.813-0.609,1.425c0,0.659,0.203,1.168,0.609,1.522
			c0.404,0.354,0.862,0.556,1.472,0.556h8.078c1.473,0,2.844,0.308,4.112,0.918c1.271,0.608,2.338,1.422,3.304,2.489
			c0.913,1.015,1.624,2.079,2.184,3.249c0.508,1.119,0.762,2.44,0.762,3.862c0.054,1.573-0.201,3.047-0.812,4.417
			c-0.609,1.371-1.376,2.541-2.39,3.506c-1.016,0.965-2.183,1.727-3.502,2.285c-1.369,0.508-2.847,0.814-4.524,0.814h-13.204
			c-1.219,0-2.285-0.459-3.197-1.27c-0.915-0.864-1.373-1.93-1.373-3.254c0-1.165,0.458-2.284,1.32-3.249
			c0.864-1.017,1.88-1.525,3.148-1.574h13.156c1.271,0,1.927-0.559,1.927-1.675c0-1.321-0.656-1.93-1.927-1.93h-7.874
			c-1.423,0-2.74-0.306-4.062-0.917c-1.269-0.609-2.338-1.421-3.251-2.437c-0.965-1.066-1.677-2.236-2.186-3.456
			c-0.561-1.271-0.811-2.59-0.811-4.011c0-1.422,0.25-2.845,0.811-4.166c0.562-1.319,1.321-2.489,2.284-3.504
			c0.915-1.016,2.033-1.778,3.354-2.386c1.324-0.609,2.694-0.915,4.218-0.966H136.09z M136.09,159.356"/>
		<path fill-rule="evenodd" clip-rule="evenodd" fill="#303030" d="M104.7,159.712c1.222,0,2.284,0.455,3.098,1.372
			c0.863,0.913,1.319,1.983,1.42,3.301v25.295c0,1.321-0.404,2.386-1.217,3.25c-0.813,0.865-1.928,1.323-3.301,1.423
			c-1.271,0-2.283-0.356-3.15-1.118c-0.865-0.761-1.422-1.878-1.573-3.249v-25.905c0.049-1.221,0.554-2.285,1.471-3.048
			C102.363,160.22,103.429,159.762,104.7,159.712L104.7,159.712z M104.7,159.712"/>
		<path fill-rule="evenodd" clip-rule="evenodd" fill="#303030" d="M104.7,148.792c1.222,0,2.284,0.455,3.197,1.37
			c0.867,0.915,1.32,2.031,1.32,3.251c0,1.271-0.453,2.388-1.32,3.303c-0.913,0.912-1.976,1.37-3.197,1.37
			c-1.424-0.052-2.536-0.458-3.455-1.321c-0.862-0.812-1.269-2.032-1.269-3.554c0.049-1.219,0.509-2.287,1.422-3.149
			C102.363,149.198,103.429,148.792,104.7,148.792L104.7,148.792z M104.7,148.792"/>
		<path fill-rule="evenodd" clip-rule="evenodd" fill="#303030" d="M80.878,159.558c2.186,0.256,4.166,0.864,6.046,1.879
			c1.927,1.016,3.555,2.286,4.928,3.809c1.317,1.577,2.385,3.354,3.199,5.334c0.762,1.982,1.166,4.064,1.166,6.249v12.648
			c0,1.318-0.458,2.388-1.421,3.301c-0.968,0.913-2.031,1.372-3.253,1.372c-1.622,0-2.993-0.762-3.962-2.286
			c-0.253,0.1-0.458,0.201-0.657,0.303c-0.205,0.103-0.404,0.205-0.561,0.306c-1.167,0.559-2.339,0.963-3.554,1.27
			c-1.22,0.253-2.541,0.407-3.912,0.407c-3.555,0-6.756-0.967-9.599-2.895c-2.797-1.931-4.88-4.422-6.3-7.518
			c-0.456-1.067-0.815-2.186-1.067-3.353c-0.304-1.119-0.404-2.336-0.404-3.556c0-1.27,0.101-2.44,0.404-3.606
			c0.252-1.121,0.611-2.236,1.067-3.353c1.42-3.098,3.503-5.586,6.3-7.518c2.843-1.878,6.044-2.843,9.599-2.843h1.016
			C80.269,159.51,80.574,159.51,80.878,159.558L80.878,159.558z M80.878,159.558L80.878,159.558z M78.845,184.854
			c1.068,0,2.132-0.202,3.099-0.659c0.966-0.356,1.828-0.965,2.54-1.624c0.713-0.763,1.272-1.576,1.729-2.593
			c0.408-0.964,0.605-2.031,0.605-3.148c0-1.066-0.197-2.082-0.605-3.049c-0.456-0.963-1.016-1.826-1.779-2.588
			c-0.71-0.712-1.572-1.322-2.592-1.728c-0.963-0.458-1.979-0.661-2.996-0.661c-1.063,0-2.079,0.203-2.995,0.661
			c-0.966,0.406-1.828,1.015-2.592,1.728c-0.71,0.762-1.268,1.625-1.728,2.588c-0.404,0.967-0.661,1.983-0.661,3.049
			c0,1.118,0.257,2.132,0.714,3.099c0.456,0.964,1.016,1.827,1.777,2.537c0.762,0.713,1.576,1.273,2.541,1.729
			C76.866,184.602,77.828,184.854,78.845,184.854L78.845,184.854z M78.845,184.854"/>
		<path fill-rule="evenodd" clip-rule="evenodd" fill="#303030" d="M29.783,159.51c1.418,0,2.789,0.203,4.164,0.658
			c1.37,0.459,2.588,1.17,3.755,2.136c2.286-1.881,4.978-2.793,8.024-2.793c1.68,0,3.251,0.305,4.827,0.965
			c1.522,0.609,2.896,1.522,4.062,2.592c1.17,1.115,2.087,2.435,2.797,3.958c0.708,1.522,1.017,3.151,1.017,4.876v17.932
			c0,1.168-0.46,2.184-1.425,3.048c-0.964,0.862-2.031,1.27-3.3,1.27c-1.219,0-2.288-0.459-3.251-1.422
			c-0.913-0.917-1.371-1.98-1.371-3.251v-17.375c0-0.911-0.304-1.672-0.967-2.285c-0.66-0.608-1.42-0.912-2.389-0.912
			c-0.811,0-1.573,0.256-2.282,0.812c-0.662,0.508-1.018,1.321-1.018,2.386v17.375c0,1.318-0.453,2.388-1.42,3.301
			c-0.915,0.913-1.982,1.372-3.305,1.372c-1.217,0-2.284-0.407-3.199-1.27c-0.962-0.815-1.474-1.83-1.474-3.048v-17.73
			c-0.051-0.962-0.356-1.725-1.066-2.334c-0.657-0.56-1.369-0.863-2.18-0.863c-0.917,0-1.679,0.304-2.34,0.912
			c-0.661,0.613-1.016,1.375-1.069,2.339v17.776c-0.103,1.119-0.556,2.133-1.418,2.948c-0.915,0.862-1.982,1.27-3.203,1.27
			c-0.659,0-1.271-0.154-1.878-0.356c-0.557-0.255-1.067-0.56-1.474-1.016c-0.456-0.406-0.76-0.914-1.065-1.475
			c-0.254-0.608-0.359-1.169-0.302-1.827v-17.576c0-1.677,0.302-3.248,1.014-4.771c0.659-1.525,1.576-2.846,2.69-3.965
			c1.171-1.116,2.49-1.983,4.063-2.641C26.325,159.864,28.004,159.51,29.783,159.51L29.783,159.51z M29.783,159.51"/>
	</g>
	<path fill-rule="evenodd" clip-rule="evenodd" fill="#FF9000" d="M12.754,162.322"/>
	<path fill-rule="evenodd" clip-rule="evenodd" fill="#FF9000" d="M0.914,139.136c2.062,0,3.854,0.768,5.393,2.311
		c1.464,1.542,2.228,3.424,2.228,5.482c0,2.145-0.764,4.026-2.228,5.569c-1.539,1.538-3.331,2.311-5.393,2.311
		c-2.399-0.088-4.274-0.773-5.823-2.228c-1.454-1.368-2.14-3.427-2.14-5.993c0.081-2.057,0.857-3.857,2.397-5.311
		C-3.023,139.821-1.227,139.136,0.914,139.136L0.914,139.136z M0.914,139.136"/>
	<g>
		<path fill-rule="evenodd" clip-rule="evenodd" fill="#FF9000" d="M12.443,153.249c0,1.216,0.985,2.202,2.201,2.202
			c1.217,0,2.202-0.986,2.202-2.202v-12.553c0-1.216-0.985-2.202-2.202-2.202c-1.216,0-2.201,0.986-2.201,2.202V153.249z"/>
	</g>
	<g>
		<path fill-rule="evenodd" clip-rule="evenodd" fill="#FF9000" d="M13.809,151.305c0,0.839,0.68,1.519,1.519,1.519
			s1.519-0.68,1.519-1.519v-8.665c0-0.839-0.68-1.519-1.519-1.519s-1.519,0.68-1.519,1.519V151.305z"/>
	</g>
	<g>
		<path fill-rule="evenodd" clip-rule="evenodd" fill="#FF9000" d="M20.417,151.304c0,0.839,0.681,1.52,1.52,1.52
			c0.84,0,1.52-0.68,1.52-1.52v-8.663c0-0.839-0.68-1.52-1.52-1.52c-0.839,0-1.52,0.68-1.52,1.52V151.304z"/>
	</g>
	<g>
		<path fill-rule="evenodd" clip-rule="evenodd" fill="#FF9000" d="M-15.918,153.248c0,1.216,0.986,2.202,2.202,2.202
			s2.202-0.986,2.202-2.202v-12.551c0-1.216-0.986-2.202-2.202-2.202s-2.202,0.986-2.202,2.202V153.248z"/>
	</g>
	<g>
		<path fill-rule="evenodd" clip-rule="evenodd" fill="#FF9000" d="M-22.527,151.304c0,0.839,0.681,1.52,1.52,1.52
			s1.52-0.68,1.52-1.52v-8.665c0-0.839-0.681-1.52-1.52-1.52s-1.52,0.68-1.52,1.52V151.304z"/>
	</g>
	<g>
		<path fill-rule="evenodd" clip-rule="evenodd" fill="#FF9000" d="M-15.287,151.217c0,0.886,0.719,1.604,1.604,1.604
			c0.886,0,1.604-0.718,1.604-1.604v-8.488c0-0.886-0.718-1.604-1.604-1.604c-0.885,0-1.604,0.718-1.604,1.604V151.217z"/>
	</g>
	<g>
		<path fill-rule="evenodd" clip-rule="evenodd" fill="#FF9000" d="M-8.015,161.153c0,1.216,0.985,2.201,2.201,2.201H6.74
			c1.216,0,2.201-0.985,2.201-2.201s-0.985-2.202-2.201-2.202H-5.813C-7.029,158.951-8.015,159.937-8.015,161.153
			C-8.015,161.153-8.015,159.937-8.015,161.153z"/>
	</g>
	<g>
		<path fill-rule="evenodd" clip-rule="evenodd" fill="#FF9000" d="M-5.388,161.835c0,0.839,0.68,1.519,1.519,1.519h8.665
			c0.839,0,1.519-0.68,1.519-1.519s-0.68-1.519-1.519-1.519h-8.665C-4.708,160.316-5.388,160.996-5.388,161.835
			C-5.388,161.835-5.388,160.996-5.388,161.835z"/>
	</g>
	<g>
		<path fill-rule="evenodd" clip-rule="evenodd" fill="#FF9000" d="M-5.388,168.444c0,0.839,0.681,1.52,1.52,1.52h8.663
			c0.839,0,1.52-0.68,1.52-1.52s-0.681-1.52-1.52-1.52h-8.663C-4.707,166.925-5.388,167.605-5.388,168.444
			C-5.388,168.444-5.388,167.605-5.388,168.444z"/>
	</g>
	<g>
		<path fill-rule="evenodd" clip-rule="evenodd" fill="#FF9000" d="M-8.015,132.792c0,1.216,0.985,2.201,2.201,2.201H6.739
			c1.216,0,2.201-0.985,2.201-2.201s-0.985-2.202-2.201-2.202H-5.813C-7.029,130.591-8.015,131.577-8.015,132.792
			C-8.015,132.792-8.015,131.577-8.015,132.792z"/>
	</g>
	<g>
		<path fill-rule="evenodd" clip-rule="evenodd" fill="#FF9000" d="M-5.388,125.5c0,0.84,0.681,1.52,1.52,1.52h8.663
			c0.839,0,1.52-0.68,1.52-1.52c0-0.839-0.681-1.52-1.52-1.52h-8.663C-4.707,123.98-5.388,124.661-5.388,125.5
			C-5.388,125.5-5.388,124.661-5.388,125.5z"/>
	</g>
	<g>
		<path fill-rule="evenodd" clip-rule="evenodd" fill="#FF9000" d="M-5.384,132.824c0,0.885,0.718,1.603,1.603,1.603H4.71
			c0.885,0,1.603-0.718,1.603-1.603s-0.718-1.603-1.603-1.603h-8.491C-4.666,131.222-5.384,131.939-5.384,132.824
			C-5.384,132.824-5.384,131.939-5.384,132.824z"/>
	</g>
</g>
</svg>
