<?xml version="1.0" encoding="utf-8"?>
<!-- Generator: Adobe Illustrator 16.0.0, SVG Export Plug-In . SVG Version: 6.00 Build 0)  -->
<!DOCTYPE svg PUBLIC "-//W3C//DTD SVG 1.1//EN" "http://www.w3.org/Graphics/SVG/1.1/DTD/svg11.dtd">
<svg version="1.1" id="Camada_1" xmlns="http://www.w3.org/2000/svg" xmlns:xlink="http://www.w3.org/1999/xlink" x="0px" y="0px"
	 width="612px" height="372px" viewBox="0 204.5 612 372" enable-background="new 0 204.5 612 372" xml:space="preserve">
<polygon opacity="0.2" fill="#211915" enable-background="new    " points="512.98,446.043 433.623,416.432 386.246,447.346 
	360.188,437.752 339.342,553.945 510.612,493.42 457.549,473.759 "/>
<g>
	<g>
		<g enable-background="new    ">
			<g>
				<polygon fill="#005F85" points="237.48,395.585 290.069,374.147 288.767,482.405 236.296,503.843 				"/>
			</g>
			<g>
				<polygon fill="#005F85" points="314.113,514.503 366.702,493.064 366.348,520.07 313.877,541.509 				"/>
			</g>
			<path fill="#2E5F72" d="M295.281,344.417l-12.318-5.922c-0.119,0-0.237-0.119-0.355-0.119c-0.119-0.118-0.237-0.118-0.474-0.237
				l0,0c0,0,0,0-0.119,0s-0.237-0.119-0.355-0.119c-0.118,0-0.237-0.118-0.474-0.118l0,0l0,0c-0.119,0-0.355-0.119-0.474-0.119
				c-0.119,0-0.119,0-0.237,0h-0.119h-0.119c-0.118,0-0.355,0-0.474-0.118c0,0,0,0-0.119,0h-0.118c-0.119,0-0.237,0-0.355,0
				c-0.118,0-0.118,0-0.237,0s-0.119,0-0.237,0h-0.119c-0.118,0-0.118,0-0.237,0s-0.237,0-0.237,0h-0.119c-0.118,0-0.118,0-0.237,0
				c-0.118,0-0.355,0.118-0.474,0.118h-0.119c-0.118,0-0.237,0.119-0.355,0.119l-52.589,21.438c0.119-0.119,0.355-0.119,0.474-0.119
				c0.119,0,0.355-0.119,0.474-0.119c0.118,0,0.237,0,0.237-0.118c0.118,0,0.237,0,0.237,0c0.119,0,0.237,0,0.355,0
				c0.118,0,0.118,0,0.237,0c0.118,0,0.355,0,0.474,0h0.119c0.237,0,0.474,0,0.71,0.118h0.119c0.237,0,0.474,0.119,0.71,0.119l0,0
				c0.237,0.119,0.474,0.119,0.711,0.237c0,0,0,0,0.118,0c0.237,0.119,0.474,0.237,0.829,0.355l12.318,5.922l13.739,6.633
				l52.589-21.438L295.281,344.417z"/>
			<g>
				<polygon fill="#005F85" points="324.892,438.106 377.48,416.668 376.533,497.803 323.944,519.241 				"/>
			</g>
			<g>
				<polygon fill="#005D82" points="259.511,361 312.1,339.68 361.254,363.487 308.665,384.925 				"/>
			</g>
			<g>
				<polygon fill="#006B96" points="308.665,384.925 361.254,363.487 364.097,377.819 311.508,399.258 				"/>
			</g>
			<g>
				<polygon fill="#2E5F72" points="340.645,445.332 393.115,423.894 391.931,532.507 339.342,553.945 				"/>
			</g>
			<polygon fill="#2E5F72" points="377.836,384.452 364.097,377.819 311.508,399.258 325.247,405.891 338.513,412.404 
				391.102,390.966 			"/>
			<g>
				<path fill="#00405A" d="M308.665,384.925l2.843,14.333l13.739,6.633l13.266,6.396c5.686,2.724,10.305,11.134,10.187,18.596
					v5.212c-0.118,6.277-3.435,10.067-8.055,9.238l-1.184,108.613l-10.779-5.212l1.185-108.14l-4.855-2.368l-0.948,81.134
					l-9.831-4.737l-0.354,27.005l-62.894-30.559l0.355-27.005l-9.831-4.738l0.948-81.134l-4.856-2.369l-1.185,108.14l-10.778-5.212
					l1.185-108.968c-3.909-3.79-6.751-10.186-6.751-16.108v-5.211c0.119-7.462,4.738-11.252,10.423-8.528l12.318,5.922l13.74,6.633
					l3.08-11.489L308.665,384.925z"/>
			</g>
			<path fill="#2E5F72" d="M401.17,408.852c0-0.237,0-0.355,0-0.593v-0.118v-0.119c0-0.117,0-0.236,0-0.355c0-0.236,0-0.354,0-0.592
				c0-0.118,0-0.236,0-0.355v-0.118v-0.118c0-0.237-0.119-0.355-0.119-0.592c0-0.237-0.118-0.355-0.118-0.593l0,0l0,0
				c0-0.237-0.118-0.355-0.118-0.593c0-0.236-0.118-0.473-0.118-0.592v-0.118v-0.118c0-0.119-0.119-0.237-0.119-0.355
				c-0.118-0.237-0.118-0.475-0.236-0.593c0-0.118,0-0.118-0.119-0.237c0-0.117,0-0.117-0.118-0.236
				c0-0.118-0.118-0.236-0.118-0.355c-0.118-0.236-0.237-0.592-0.355-0.829l0,0c-0.237-0.592-0.474-1.065-0.711-1.658
				c-0.118-0.118-0.118-0.354-0.236-0.474c-0.237-0.474-0.474-0.829-0.711-1.185c0-0.118-0.118-0.237-0.118-0.237
				c0-0.117-0.119-0.117-0.119-0.117c-0.118-0.119-0.118-0.237-0.236-0.355c-0.119-0.119-0.119-0.237-0.237-0.355
				c-0.118-0.119-0.236-0.355-0.355-0.474l-0.118-0.119c0,0,0-0.118-0.118-0.118c-0.119-0.237-0.355-0.474-0.474-0.711
				c0-0.118-0.119-0.118-0.119-0.237c0-0.118-0.118-0.118-0.118-0.237c-0.118-0.119-0.118-0.119-0.237-0.237
				c-0.118-0.237-0.354-0.355-0.474-0.592c0,0,0,0-0.118-0.119l-0.118-0.118c-0.119-0.119-0.237-0.237-0.355-0.355
				s-0.355-0.355-0.474-0.474c0,0,0,0-0.119-0.119c0,0,0,0-0.118-0.118c-0.118-0.119-0.236-0.237-0.355-0.237
				c-0.118-0.118-0.236-0.237-0.474-0.355l-0.118-0.119c0,0-0.118,0-0.118-0.118c-0.119,0-0.119-0.119-0.237-0.119
				c-0.118-0.119-0.237-0.237-0.474-0.355c-0.118-0.118-0.237-0.118-0.355-0.237l0,0l0,0c-0.118-0.118-0.237-0.118-0.474-0.237
				c-0.118-0.119-0.237-0.119-0.474-0.237c0,0-0.119,0-0.119-0.119l-52.589,21.439c0.355,0.118,0.711,0.355,1.066,0.592l0,0
				c0.355,0.236,0.592,0.355,0.947,0.592c0,0,0.118,0,0.118,0.119c0.355,0.236,0.593,0.474,0.948,0.711c0,0,0,0,0.118,0.117
				c0.236,0.238,0.592,0.593,0.829,0.83l0.118,0.118c0.237,0.237,0.474,0.593,0.829,0.829l0.119,0.119
				c0.236,0.354,0.474,0.592,0.71,0.947l0.119,0.118c0.236,0.237,0.354,0.593,0.592,0.829c0.118,0.118,0.118,0.236,0.237,0.355
				c0.118,0.118,0.118,0.236,0.236,0.474c0.237,0.355,0.474,0.829,0.711,1.185c0.118,0.118,0.118,0.236,0.237,0.474
				c0.236,0.592,0.474,1.065,0.71,1.658c0.118,0.355,0.355,0.829,0.474,1.185c0,0.118,0,0.118,0.119,0.236
				c0.118,0.355,0.236,0.829,0.355,1.185v0.118c0.118,0.475,0.236,0.948,0.354,1.304l0,0c0.119,0.474,0.119,0.947,0.237,1.421v0.118
				c0,0.475,0.118,0.829,0.118,1.304v0.118c0,0.474,0,0.947,0,1.421v5.212c0,0.592,0,1.065-0.118,1.658c0,0,0,0,0,0.118
				c-0.118,0.474-0.118,0.947-0.237,1.422l0,0c-0.118,0.474-0.236,0.829-0.354,1.303v0.118c-0.119,0.355-0.355,0.711-0.475,1.066
				c0,0,0,0.118-0.118,0.118c-0.237,0.355-0.355,0.711-0.592,0.947c0,0.119-0.119,0.119-0.119,0.119
				c-0.236,0.236-0.354,0.474-0.592,0.592c-0.118,0.118-0.118,0.118-0.237,0.237c-0.236,0.118-0.355,0.354-0.592,0.474
				c-0.118,0.118-0.118,0.118-0.237,0.118c-0.236,0.237-0.592,0.355-0.947,0.474l0,0l0,0l0,0l52.589-21.438
				c0.355-0.118,0.593-0.236,0.948-0.474c0.118,0,0.118-0.118,0.236-0.118c0.237-0.118,0.355-0.237,0.593-0.474
				c0.118-0.119,0.118-0.119,0.236-0.237c0.237-0.237,0.355-0.355,0.593-0.592c0-0.119,0.118-0.119,0.118-0.119l0,0
				c0.118-0.236,0.355-0.474,0.474-0.71c0,0,0-0.119,0.118-0.119l0.119-0.118c0-0.118,0.118-0.237,0.118-0.355
				c0.118-0.237,0.118-0.354,0.237-0.592v-0.118v-0.119c0-0.118,0.118-0.236,0.118-0.355c0-0.118,0.118-0.355,0.118-0.592
				c0-0.119,0.118-0.236,0.118-0.474l0,0l0,0c0-0.118,0.119-0.355,0.119-0.474c0-0.119,0-0.355,0.118-0.475c0-0.118,0-0.236,0-0.355
				c0,0,0,0,0-0.117v-0.119c0-0.119,0-0.355,0-0.592c0-0.119,0-0.355,0-0.593c0-0.118,0-0.355,0-0.474v-5.211v-0.119
				C401.17,409.207,401.17,408.97,401.17,408.852z"/>
		</g>
	</g>
	<polygon fill="#E3E3E3" points="364.097,377.819 311.508,399.258 295.636,461.44 295.636,492.354 263.301,478.022 263.301,452.794 
		256.431,372.489 261.879,358.631 350.357,352.117 361.018,365.975 	"/>
	<g>
		<g enable-background="new    ">
			<g>
				<polygon fill="#007184" points="284.739,494.96 289.003,493.184 279.646,508.581 275.382,510.357 				"/>
			</g>
			<g>
				<polygon fill="#00A3BE" points="285.332,444.147 289.596,442.371 289.003,493.184 284.739,494.96 				"/>
			</g>
			<g>
				<polygon fill="#00B3D1" points="280.712,413.352 284.976,411.575 289.596,442.371 285.332,444.147 				"/>
			</g>
			<g>
				<polygon fill="#009FB9" points="268.039,383.978 272.303,382.201 280.712,386.11 276.448,387.887 				"/>
			</g>
			<g>
				<polygon fill="#006374" points="285.805,410.51 290.069,408.732 284.976,411.575 280.712,413.352 				"/>
			</g>
			<g>
				<polygon fill="#009FB9" points="276.448,387.887 280.712,386.11 282.015,386.702 277.751,388.479 				"/>
			</g>
			<g>
				<polygon fill="#006E81" points="286.042,392.388 285.805,410.51 280.712,413.352 285.332,444.147 284.739,494.96 
					275.382,510.357 266.736,486.551 267.446,435.738 272.776,409.562 267.802,402.1 268.039,383.978 276.448,387.887 
					277.751,388.479 				"/>
			</g>
			<g>
				<polygon fill="#00A3BE" points="286.042,392.388 290.306,390.611 290.069,408.732 285.805,410.51 				"/>
			</g>
			<g>
				<polygon fill="#009FB9" points="277.751,388.479 282.015,386.702 290.306,390.611 286.042,392.388 				"/>
			</g>
		</g>
	</g>
	<polygon opacity="0.15" fill="#211915" enable-background="new    " points="296.347,470.797 325.247,405.891 375.468,383.741 
		364.097,377.819 311.508,399.258 295.636,461.44 	"/>
	<polygon opacity="0.15" fill="#211915" enable-background="new    " points="261.879,462.861 242.692,365.856 275.5,348.563 
		256.431,372.489 	"/>
	<g>
		<g enable-background="new    ">
			<g enable-background="new    ">
				<g>
					<defs>
						<path id="SVGID_1_" d="M269.934,286.972l9.594,4.738c-2.369-1.185-5.33-1.303-8.41,0l-9.594-4.738
							C264.604,285.669,267.565,285.788,269.934,286.972z"/>
					</defs>
					<clipPath id="SVGID_2_">
						<use xlink:href="#SVGID_1_"  overflow="visible"/>
					</clipPath>
					<g clip-path="url(#SVGID_2_)" enable-background="new    ">
						<path fill="#BD212A" d="M271.118,291.71l-9.594-4.738c0.355-0.118,0.71-0.237,1.066-0.355l9.594,4.737
							C271.829,291.354,271.474,291.473,271.118,291.71"/>
						<path fill="#B82029" d="M272.184,291.236l-9.594-4.738c0.71-0.237,1.303-0.355,2.014-0.474l9.594,4.738
							C273.487,291,272.776,291.118,272.184,291.236"/>
						<path fill="#B32028" d="M274.079,290.881l-9.594-4.738c0.474-0.118,1.066-0.118,1.54-0.118l9.594,4.738
							C275.146,290.763,274.671,290.763,274.079,290.881"/>
						<path fill="#AD1F27" d="M275.619,290.763l-9.594-4.738c0.474,0,0.829,0,1.303,0.118l9.594,4.738
							C276.448,290.881,276.093,290.763,275.619,290.763"/>
						<path fill="#A81E26" d="M276.922,290.881l-9.594-4.738c0.355,0,0.71,0.119,1.185,0.237l9.594,4.738
							C277.633,291,277.277,291,276.922,290.881"/>
						<path fill="#A31D24" d="M277.988,291.118l-9.594-4.738c0.355,0.119,0.71,0.237,1.066,0.355l9.594,4.738
							C278.699,291.354,278.343,291.236,277.988,291.118"/>
						<path fill="#9E1C23" d="M279.054,291.473l-9.594-4.738c0.119,0.119,0.237,0.119,0.474,0.237l9.594,4.738
							C279.409,291.592,279.172,291.592,279.054,291.473"/>
					</g>
				</g>
			</g>
			<g enable-background="new    ">
				<g>
					<defs>
						<path id="SVGID_3_" d="M262.354,326.533l-9.594-4.738c-3.671-1.777-5.922-6.041-5.922-11.844
							c0-9.712,6.633-20.017,14.568-23.097l9.594,4.738c-8.054,3.08-14.569,13.384-14.569,23.097
							C256.431,320.492,258.8,324.756,262.354,326.533z"/>
					</defs>
					<clipPath id="SVGID_4_">
						<use xlink:href="#SVGID_3_"  overflow="visible"/>
					</clipPath>
					<g clip-path="url(#SVGID_4_)" enable-background="new    ">
						<path fill="#85171E" d="M262.354,326.533l-9.594-4.738c-3.671-1.777-5.922-6.041-5.922-11.844c0-0.592,0-1.303,0.118-1.896
							l9.594,4.738c0,0.592-0.119,1.303-0.119,1.896C256.431,320.492,258.8,324.756,262.354,326.533"/>
						<path fill="#8A181F" d="M256.55,312.793l-9.594-4.738c0.119-0.829,0.237-1.54,0.355-2.369l9.594,4.738
							C256.787,311.135,256.668,311.964,256.55,312.793"/>
						<path fill="#8F1920" d="M256.905,310.424l-9.594-4.738c0.119-0.592,0.237-1.303,0.474-1.895l9.594,4.738
							C257.142,309.121,257.023,309.713,256.905,310.424"/>
						<path fill="#941A21" d="M257.379,308.529l-9.594-4.738c0.119-0.592,0.355-1.185,0.474-1.658l9.594,4.738
							C257.616,307.345,257.497,307.937,257.379,308.529"/>
						<path fill="#991B22" d="M257.853,306.871l-9.594-4.738c0.237-0.474,0.355-1.066,0.592-1.54l9.594,4.738
							C258.208,305.805,258.089,306.279,257.853,306.871"/>
						<path fill="#9E1C23" d="M258.445,305.213l-9.594-4.738c0.237-0.474,0.474-1.066,0.711-1.54l9.594,4.738
							C258.918,304.265,258.682,304.739,258.445,305.213"/>
						<path fill="#A31D24" d="M259.155,303.673l-9.594-4.738c0.237-0.474,0.474-0.947,0.71-1.54l9.594,4.738
							C259.629,302.726,259.392,303.199,259.155,303.673"/>
						<path fill="#A81E26" d="M259.866,302.251l-9.594-4.738c0.237-0.474,0.592-0.947,0.829-1.421l9.594,4.737
							C260.458,301.186,260.103,301.778,259.866,302.251"/>
						<path fill="#AD1F27" d="M260.695,300.712l-9.594-4.738c0.355-0.474,0.711-1.066,1.066-1.54l9.594,4.737
							C261.406,299.764,261.05,300.238,260.695,300.712"/>
						<path fill="#B32028" d="M261.761,299.291l-9.594-4.738c0.355-0.592,0.829-1.066,1.303-1.658l9.594,4.738
							C262.59,298.106,262.235,298.698,261.761,299.291"/>
						<path fill="#B82029" d="M263.064,297.632l-9.594-4.738c0.592-0.71,1.184-1.303,1.776-1.895l9.594,4.738
							C264.249,296.33,263.656,296.922,263.064,297.632"/>
						<path fill="#BD212A" d="M264.841,295.737L255.247,291c1.895-1.777,4.027-3.198,6.278-4.027l9.594,4.738
							C268.868,292.539,266.736,293.96,264.841,295.737"/>
					</g>
				</g>
			</g>
			<g>
				<path fill="#D3252F" d="M271.118,291.71c7.936-3.08,14.45,2.25,14.332,11.963c0,9.712-6.633,20.017-14.569,23.097
					c-8.054,3.08-14.45-2.25-14.332-11.963C256.55,304.976,263.064,294.671,271.118,291.71z"/>
			</g>
		</g>
	</g>
	<g>
		<g enable-background="new    ">
			<g enable-background="new    ">
				<g>
					<defs>
						<path id="SVGID_5_" d="M259.037,280.695l52.589-21.438c0.829-0.355,1.776-0.237,2.725,0.237l-52.589,21.438
							C260.813,280.339,259.866,280.339,259.037,280.695z"/>
					</defs>
					<clipPath id="SVGID_6_">
						<use xlink:href="#SVGID_5_"  overflow="visible"/>
					</clipPath>
					<g clip-path="url(#SVGID_6_)" enable-background="new    ">
						<path fill="#805F2D" d="M259.037,280.695l52.589-21.438c0,0,0.118,0,0.118-0.118l-52.589,21.438L259.037,280.695"/>
						<path fill="#85622E" d="M259.155,280.576l52.589-21.438c0.119,0,0.237-0.119,0.355-0.119l-52.589,21.438
							C259.511,280.576,259.274,280.576,259.155,280.576"/>
						<path fill="#8A6630" d="M259.629,280.458l52.589-21.438c0.118,0,0.236,0,0.354,0l-52.589,21.438
							C259.748,280.458,259.629,280.458,259.629,280.458"/>
						<path fill="#8F6A32" d="M259.866,280.458l52.589-21.438c0.118,0,0.118,0,0.237,0l-52.589,21.438
							C260.103,280.458,259.984,280.458,259.866,280.458"/>
						<path fill="#946D34" d="M260.103,280.458l52.589-21.438c0.118,0,0.118,0,0.236,0l-52.589,21.438
							C260.34,280.458,260.221,280.458,260.103,280.458"/>
						<path fill="#997135" d="M260.34,280.458l52.589-21.438c0.119,0,0.119,0,0.237,0l-52.589,21.438
							C260.577,280.458,260.458,280.458,260.34,280.458"/>
						<path fill="#9E7437" d="M260.577,280.458l52.589-21.438c0.118,0,0.118,0,0.236,0l-52.589,21.438
							C260.813,280.576,260.695,280.458,260.577,280.458"/>
						<path fill="#A37839" d="M260.813,280.576l52.589-21.438c0.119,0,0.119,0,0.237,0l-52.589,21.438
							C260.932,280.576,260.932,280.576,260.813,280.576"/>
						<path fill="#A87C3A" d="M261.05,280.576l52.589-21.438c0.118,0,0.118,0,0.237,0.118l-52.589,21.438
							C261.169,280.695,261.169,280.576,261.05,280.576"/>
						<path fill="#AD7F3C" d="M261.288,280.695l52.589-21.438c0.118,0,0.118,0,0.236,0.119l-52.589,21.438
							C261.406,280.695,261.288,280.695,261.288,280.695"/>
						<path fill="#B2833E" d="M261.524,280.695l52.589-21.438c0.118,0,0.118,0,0.237,0.119l-52.589,21.438
							C261.643,280.813,261.524,280.813,261.524,280.695"/>
						<path fill="#B78740" d="M261.643,280.813l52.589-21.438c0,0,0.119,0,0.119,0.118l-52.589,21.438
							C261.761,280.813,261.761,280.813,261.643,280.813"/>
					</g>
				</g>
			</g>
			<g enable-background="new    ">
				<g>
					<defs>
						<path id="SVGID_7_" d="M365.399,365.975l-52.589,21.438c1.303-0.592,2.132-2.014,2.25-4.264l52.59-21.438
							C367.531,363.961,366.702,365.5,365.399,365.975z"/>
					</defs>
					<clipPath id="SVGID_8_">
						<use xlink:href="#SVGID_7_"  overflow="visible"/>
					</clipPath>
					<g clip-path="url(#SVGID_8_)" enable-background="new    ">
						<path fill="#BC8A41" d="M314.942,383.149l52.589-21.438c0,0.119,0,0.119,0,0.237l-52.589,21.438
							C314.942,383.267,314.942,383.267,314.942,383.149"/>
						<path fill="#B78740" d="M314.942,383.386l52.589-21.438c0,0.119,0,0.119,0,0.237l-52.589,21.438
							C314.942,383.504,314.942,383.386,314.942,383.386"/>
						<path fill="#B2833E" d="M314.942,383.623l52.589-21.438c0,0.119,0,0.119,0,0.237l-52.589,21.438
							C314.942,383.741,314.942,383.741,314.942,383.623"/>
						<path fill="#AD7F3C" d="M314.942,383.859l52.589-21.438c0,0.119,0,0.119,0,0.237l-52.589,21.438
							C314.942,383.978,314.942,383.978,314.942,383.859"/>
						<path fill="#A87C3A" d="M314.942,384.096l52.589-21.438c0,0.118,0,0.118,0,0.237l-52.707,21.438
							C314.942,384.333,314.942,384.215,314.942,384.096"/>
						<path fill="#A37839" d="M314.824,384.333l52.589-21.438c0,0.118,0,0.118,0,0.237l-52.589,21.438
							C314.824,384.57,314.824,384.452,314.824,384.333"/>
						<path fill="#9E7437" d="M314.824,384.57l52.589-21.438c0,0.118,0,0.118-0.118,0.237l-52.589,21.438
							C314.824,384.807,314.824,384.688,314.824,384.57"/>
						<path fill="#997135" d="M314.706,384.925l52.589-21.438c0,0.118,0,0.118-0.118,0.237l-52.59,21.438
							C314.706,385.044,314.706,384.925,314.706,384.925"/>
						<path fill="#946D34" d="M314.706,385.163l52.589-21.438c0,0.118-0.118,0.237-0.118,0.237l-52.59,21.438
							C314.587,385.281,314.706,385.281,314.706,385.163"/>
						<path fill="#8F6A32" d="M314.587,385.399l52.59-21.438c0,0.118-0.119,0.237-0.119,0.237l-52.589,21.438
							C314.469,385.636,314.587,385.518,314.587,385.399"/>
						<path fill="#8A6630" d="M314.469,385.754l52.589-21.438c0,0.118-0.118,0.237-0.118,0.355l-52.589,21.438
							C314.351,385.873,314.469,385.754,314.469,385.754"/>
						<path fill="#85622E" d="M314.351,385.992l52.589-21.438c-0.118,0.118-0.118,0.237-0.237,0.355l-52.589,21.438
							C314.113,386.229,314.231,386.11,314.351,385.992"/>
						<path fill="#805F2D" d="M314.113,386.347l52.589-21.438c-0.354,0.474-0.829,0.829-1.303,1.066l-52.589,21.438
							C313.284,387.176,313.758,386.821,314.113,386.347"/>
					</g>
				</g>
			</g>
			<path fill="#C38D42" d="M368.36,291.829c0-0.119,0-0.237,0-0.237c0-0.119,0-0.237,0-0.237c0-0.118,0-0.237,0-0.237
				c0-0.118,0-0.118,0-0.237l0,0c0,0,0,0,0-0.118c0-0.119,0-0.237,0-0.237c0-0.119,0-0.237,0-0.237c0-0.119,0-0.237-0.118-0.237
				c0-0.118,0-0.237-0.118-0.355c0,0,0,0,0-0.119l0,0c0-0.118,0-0.118,0-0.237s-0.118-0.237-0.118-0.355s-0.119-0.237-0.119-0.355
				c0-0.118-0.118-0.237-0.118-0.474l0,0c-0.237-0.474-0.474-1.066-0.711-1.54c0,0,0-0.119-0.118-0.119
				c-0.118-0.119-0.118-0.237-0.237-0.474c-0.118-0.119-0.118-0.119-0.236-0.237l0,0l0,0c-0.119-0.119-0.119-0.237-0.237-0.355
				c-0.118-0.119-0.118-0.237-0.236-0.237c-0.119-0.119-0.119-0.237-0.237-0.237l0,0l0,0l-0.118-0.119
				c-0.119-0.119-0.119-0.119-0.237-0.237c-0.118-0.119-0.118-0.119-0.237-0.237c-0.118-0.119-0.118-0.119-0.236-0.119
				c0,0,0,0-0.118-0.118l0,0c0,0-0.119,0-0.119-0.119c-0.118,0-0.118-0.119-0.236-0.119c-0.119,0-0.119-0.118-0.237-0.118
				s-0.118-0.119-0.236-0.119c-0.119,0-0.119-0.118-0.237-0.118c0,0,0,0-0.118,0l-49.154-23.926l-52.708,21.32l49.154,23.926
				c0.355,0.118,0.711,0.355,0.948,0.592l0,0c0.355,0.237,0.592,0.474,0.947,0.829l0,0c0.237,0.355,0.592,0.592,0.829,0.947l0,0
				c0.237,0.237,0.355,0.592,0.592,0.829c0.237,0.474,0.593,0.948,0.711,1.54c0.118,0.474,0.355,0.829,0.474,1.303l0,0
				c0.119,0.474,0.237,0.829,0.237,1.303l0,0c0.118,0.474,0.118,0.948,0.118,1.303l-0.829,69.526l52.589-21.438l0.829-69.526l0,0
				C368.36,292.065,368.36,291.947,368.36,291.829z"/>
			<g>
				<path fill="#F7B656" d="M310.915,304.739c2.725,1.303,4.856,5.33,4.856,8.765l-0.829,69.526c0,3.554-2.25,5.33-4.975,4.027
					l-49.154-23.926c-2.724-1.303-4.856-5.33-4.856-8.883l0.829-69.527c0-3.553,2.25-5.33,4.975-4.027L310.915,304.739z"/>
			</g>
		</g>
	</g>
	<g enable-background="new    ">
		<g>
			<path fill="#5B400A" d="M300.848,272.641c21.32,10.305,20.965,39.442,20.846,49.272c-0.118,10.305-5.804,14.095-6.04,14.332
				l1.54-20.017c-0.355-0.474-6.515-8.291-12.318-13.74c-2.369-2.132-4.975-4.027-7.462-5.211c-3.79-1.776-7.106-2.013-8.291,1.066
				c-1.54,3.909-5.093,2.725-6.633,2.014c-0.474-0.237-0.71-0.355-0.71-0.355l-23.452-18.358l-0.355,26.649
				c-0.474-0.237-8.528-4.146-8.291-24.754c0.237-20.609,14.924-16.701,15.635-16.583c0.355-0.237,6.396-4.5,31.861,4.264
				C298.598,271.575,299.781,272.048,300.848,272.641z"/>
		</g>
		<path fill="#3C2C17" d="M374.283,296.803c0-0.119,0-0.237,0-0.355c0-0.592,0-1.303,0-2.013l0,0c0-0.119,0-0.237,0-0.355
			c0-0.355,0-0.711,0-1.066c0-0.237,0-0.355,0-0.592c0-0.355,0-0.711,0-0.948c0-0.119,0-0.119,0-0.237c0-0.119,0-0.119,0-0.237
			c0-0.829-0.119-1.658-0.237-2.606l0,0l0,0c-0.118-0.71-0.118-1.421-0.236-2.25c0-0.118,0-0.237,0-0.355c0-0.119,0-0.237,0-0.355
			c-0.119-0.592-0.119-1.066-0.237-1.658c0-0.119,0-0.237,0-0.355v-0.118c-0.118-0.711-0.237-1.303-0.355-2.014l0,0
			c0-0.119,0-0.237-0.118-0.474c-0.118-0.474-0.118-0.948-0.237-1.421v-0.119c-0.118-0.355-0.118-0.592-0.236-0.947
			c0-0.237-0.119-0.474-0.119-0.711c0,0,0,0,0-0.118c-0.118-0.474-0.236-0.948-0.355-1.54c0-0.118,0-0.118,0-0.237l0,0
			c-0.118-0.474-0.236-1.066-0.474-1.54v-0.118c0-0.237-0.118-0.355-0.118-0.474c-0.118-0.237-0.118-0.592-0.237-0.829
			c0-0.118-0.118-0.237-0.118-0.355c-0.118-0.237-0.118-0.474-0.236-0.711c-0.119-0.237-0.119-0.355-0.237-0.592
			c0-0.118-0.118-0.237-0.118-0.474c-0.119-0.237-0.237-0.592-0.355-0.829c-0.118-0.118-0.118-0.355-0.237-0.474
			c0-0.119-0.118-0.119-0.118-0.237c-0.355-0.948-0.711-1.777-1.185-2.606c-0.118-0.118-0.118-0.237-0.236-0.355
			c-0.475-0.829-0.948-1.776-1.422-2.605c0,0,0-0.119-0.118-0.119c0,0,0,0,0-0.118c-0.119-0.119-0.237-0.355-0.355-0.474
			c-0.237-0.355-0.355-0.592-0.592-0.947l-0.119-0.119c-0.118-0.118-0.118-0.237-0.236-0.355c-0.119-0.237-0.355-0.474-0.475-0.711
			c-0.118-0.118-0.236-0.237-0.354-0.474c-0.119-0.119-0.237-0.237-0.237-0.355c-0.118-0.118-0.118-0.237-0.237-0.237
			c-0.236-0.355-0.592-0.71-0.829-1.066l0,0l-0.118-0.119c-0.236-0.237-0.474-0.474-0.711-0.71
			c-0.118-0.119-0.236-0.355-0.474-0.474c-0.118-0.119-0.118-0.119-0.236-0.237c-0.119-0.118-0.119-0.118-0.237-0.237
			c-0.236-0.237-0.592-0.592-0.829-0.829c-0.118-0.119-0.118-0.119-0.236-0.237c-0.119-0.119-0.119-0.119-0.237-0.237
			c-0.118-0.119-0.237-0.237-0.355-0.355c-0.355-0.237-0.592-0.474-0.947-0.71c0,0,0,0-0.118,0l-0.119-0.119
			c-0.236-0.237-0.474-0.355-0.711-0.592c-0.236-0.237-0.474-0.355-0.829-0.592c0,0-0.118,0-0.118-0.118c0,0,0,0-0.118,0
			c-0.355-0.237-0.711-0.474-1.066-0.711c-0.118-0.118-0.355-0.237-0.474-0.237c-0.118-0.118-0.236-0.118-0.355-0.237
			c-0.118,0-0.236-0.119-0.236-0.119c-0.355-0.237-0.711-0.355-1.185-0.592c-0.118-0.119-0.237-0.119-0.355-0.237
			c-0.237-0.118-0.592-0.237-0.947-0.474c-0.237-0.118-0.355-0.118-0.593-0.237c-0.236-0.119-0.355-0.119-0.592-0.237
			c-0.118,0-0.237-0.119-0.355-0.119c-0.474-0.118-0.829-0.355-1.303-0.474s-0.829-0.237-1.303-0.474
			c-0.474-0.119-0.829-0.237-1.303-0.355c-0.593-0.237-1.304-0.474-1.896-0.592c-0.593-0.237-1.185-0.355-1.776-0.474
			c-0.593-0.119-1.185-0.355-1.777-0.474c-0.236,0-0.355-0.119-0.592-0.119c-0.355-0.119-0.711-0.237-1.185-0.355
			c-0.474-0.118-0.947-0.237-1.303-0.355c-0.593-0.119-1.066-0.237-1.54-0.355c-0.355-0.119-0.829-0.237-1.185-0.237
			c-0.118,0-0.236,0-0.355-0.119c-0.474-0.118-0.829-0.237-1.303-0.237c-0.236,0-0.592-0.119-0.829-0.119
			c-0.71-0.118-1.303-0.237-1.895-0.355c-0.119,0-0.237,0-0.355,0l0,0c-0.711-0.119-1.422-0.237-2.014-0.237
			c-0.237,0-0.355,0-0.592-0.119c-0.355,0-0.711-0.119-0.948-0.119c-0.118,0-0.118,0-0.236,0c-0.237,0-0.355,0-0.593,0
			c-0.355,0-0.711,0-1.065,0c-0.237,0-0.355,0-0.593,0c-0.118,0-0.236,0-0.355,0c-0.236,0-0.354,0-0.474,0c-0.118,0-0.355,0-0.474,0
			c-0.355,0-0.592,0-0.829,0c-0.118,0-0.237,0-0.355,0h-0.118c-0.237,0-0.474,0-0.711,0.119c-0.118,0-0.236,0-0.236,0
			c-0.355,0-0.593,0.119-0.948,0.119l0,0c-0.354,0-0.592,0.118-0.829,0.118h-0.118c-0.237,0-0.355,0.119-0.592,0.119l0,0
			c-0.119,0-0.355,0.118-0.475,0.118l-0.947,0.355h-0.118c0,0,0,0-0.118,0l0,0c-0.119,0-0.237,0-0.475-0.119h-0.118
			c-0.118,0-0.118,0-0.236,0c-0.119,0-0.119,0-0.237,0s-0.355,0-0.592-0.118c-0.119,0-0.119,0-0.237,0s-0.237,0-0.237,0
			c-0.236,0-0.354,0-0.592,0c-0.118,0-0.118,0-0.237,0c-0.118,0-0.236,0-0.355,0c-0.236,0-0.354,0-0.592,0c-0.118,0-0.236,0-0.236,0
			c-0.119,0-0.237,0-0.355,0c-0.237,0-0.475,0-0.711,0.118c-0.118,0-0.237,0-0.355,0s-0.237,0.119-0.355,0.119
			c-0.236,0.119-0.592,0.119-0.829,0.237c-0.118,0-0.236,0-0.355,0.119c-0.236,0.118-0.474,0.118-0.592,0.237l-52.589,21.438
			c0.355-0.119,0.711-0.237,0.948-0.355c0.355-0.119,0.592-0.119,0.829-0.237c0.237,0,0.474-0.119,0.592-0.119
			c0.237,0,0.474-0.118,0.71-0.118s0.474,0,0.592,0c0.237,0,0.355,0,0.592,0s0.355,0,0.592,0s0.355,0,0.592,0
			c0.118,0,0.355,0,0.474,0c0.237,0,0.355,0,0.592,0.118c0.118,0,0.237,0,0.474,0.119h0.119c0.237,0,0.355,0.118,0.474,0.118
			c0,0,0,0,0.119,0c0.118,0,0.237,0,0.237,0.119l1.895-0.711c0,0,0,0,0.119,0c0.237-0.118,0.474-0.118,0.829-0.118
			c0.237,0,0.592-0.119,0.947-0.119c0.119,0,0.119,0,0.237,0c0.237,0,0.474,0,0.829-0.118c0.119,0,0.237,0,0.355,0
			c0.237,0,0.592,0,0.829,0c0.119,0,0.355,0,0.474,0c0.237,0,0.592,0,0.948,0c0.237,0,0.355,0,0.592,0c0.355,0,0.71,0,1.066,0
			c0.237,0,0.355,0,0.592,0c0.355,0,0.829,0.118,1.303,0.118c0.237,0,0.355,0,0.592,0.119c0.592,0.118,1.303,0.118,2.014,0.237
			c0.118,0,0.237,0,0.355,0c0.592,0.119,1.303,0.237,1.896,0.355c0.237,0,0.592,0.118,0.829,0.118
			c0.592,0.119,1.066,0.237,1.658,0.355c0.355,0.119,0.829,0.237,1.184,0.237c0.474,0.119,1.066,0.237,1.54,0.355
			c0.474,0.118,0.947,0.237,1.303,0.355c0.592,0.118,1.066,0.355,1.658,0.474c0.592,0.118,1.185,0.355,1.777,0.474
			c0.592,0.119,1.184,0.355,1.776,0.474c0.592,0.237,1.185,0.355,1.895,0.592c0.829,0.237,1.658,0.592,2.488,0.829
			c0.592,0.237,1.066,0.355,1.658,0.592c0.237,0.119,0.355,0.119,0.593,0.237c0.474,0.237,0.947,0.474,1.421,0.592
			c0.593,0.355,1.185,0.592,1.776,0.948c0.119,0.118,0.237,0.118,0.355,0.237c0.593,0.355,1.066,0.592,1.54,0.947
			c0,0,0.118,0,0.118,0.119c0.474,0.355,1.066,0.71,1.54,1.066l0.118,0.119c0.474,0.355,0.948,0.71,1.422,1.185
			c0.118,0.118,0.118,0.118,0.236,0.237c0.475,0.355,0.829,0.829,1.304,1.185c0.118,0.118,0.118,0.118,0.236,0.237
			c0.355,0.355,0.711,0.829,1.066,1.184l0.118,0.119c0.355,0.474,0.711,0.948,1.066,1.303c0.118,0.119,0.236,0.237,0.236,0.355
			c0.237,0.355,0.593,0.71,0.829,1.185c0.118,0.118,0.118,0.237,0.237,0.355c0.236,0.355,0.474,0.711,0.71,1.066
			c0.119,0.118,0.237,0.355,0.355,0.474c0,0.118,0.119,0.118,0.119,0.237c0.474,0.829,0.947,1.658,1.421,2.606
			c0.118,0.118,0.118,0.237,0.237,0.355c0.474,0.829,0.829,1.777,1.185,2.606c0.118,0.237,0.236,0.474,0.236,0.71
			c0.118,0.237,0.237,0.592,0.355,0.829c0.118,0.355,0.237,0.711,0.355,1.066c0.118,0.237,0.118,0.474,0.236,0.711
			c0.119,0.355,0.237,0.829,0.355,1.185c0,0.118,0.119,0.355,0.119,0.474c0.118,0.592,0.354,1.185,0.474,1.658
			c0,0.119,0,0.119,0,0.237c0.118,0.474,0.236,1.066,0.355,1.54c0.118,0.237,0.118,0.474,0.118,0.829
			c0.118,0.355,0.118,0.71,0.236,1.066c0.119,0.474,0.237,0.947,0.237,1.421c0,0.118,0.118,0.355,0.118,0.474
			c0.119,0.71,0.237,1.303,0.355,2.014c0,0.118,0,0.355,0.118,0.474c0.119,0.592,0.119,1.066,0.237,1.658
			c0,0.237,0,0.355,0.118,0.592c0.119,0.71,0.119,1.54,0.237,2.25c0.118,0.947,0.118,1.776,0.236,2.605c0,0.119,0,0.237,0,0.355
			c0,0.355,0,0.592,0,0.948c0,0.237,0,0.355,0,0.592c0,0.355,0,0.71,0,0.947c0,0.119,0,0.355,0,0.474c0,0.71,0,1.303,0,2.013
			c0,0.119,0,0.237,0,0.355c0,0.592,0,1.185,0,1.777c0,0.237,0,0.474,0,0.592c0,0.119,0,0.237,0,0.355c0,0.355,0,0.592,0,0.829
			c0,0.592,0,1.185-0.118,1.777c0,0.118,0,0.118,0,0.237c0,0.474-0.118,1.066-0.118,1.54c0,0.119,0,0.119,0,0.237
			c-0.118,0.474-0.118,0.948-0.237,1.421v0.119c-0.118,0.355-0.236,0.829-0.355,1.185c0,0.118,0,0.237-0.118,0.355
			c-0.118,0.355-0.236,0.711-0.355,1.066l0,0c-0.118,0.355-0.355,0.711-0.474,1.066c-0.236,0.355-0.355,0.829-0.592,1.066
			c-0.119,0.237-0.355,0.592-0.474,0.829l-0.119,0.118c-0.118,0.237-0.236,0.474-0.474,0.592c-0.118,0.119-0.118,0.237-0.236,0.237
			c-0.119,0.119-0.237,0.237-0.355,0.355c-0.119,0.119-0.119,0.119-0.237,0.237c-0.118,0.119-0.236,0.237-0.236,0.355
			c-0.119,0.119-0.119,0.119-0.237,0.237c-0.118,0.119-0.118,0.119-0.237,0.237l-0.118,0.119c-0.118,0.118-0.118,0.118-0.237,0.237
			l-0.118,0.119c-0.118,0-0.118,0.118-0.236,0.118l-0.119,0.119l-0.118,0.118l0,0l-0.118,0.119l52.589-21.438c0,0,0,0,0.118-0.118
			c0,0,0,0,0.119,0l0.118-0.119c0,0,0.118,0,0.118-0.119c0,0,0.118-0.118,0.237-0.118l0.118-0.119
			c0.118-0.118,0.118-0.118,0.237-0.237l0.118-0.118c0.118-0.119,0.118-0.119,0.237-0.237c0.118-0.118,0.118-0.118,0.236-0.237
			c0.118-0.118,0.237-0.237,0.237-0.355c0.118-0.119,0.118-0.119,0.236-0.237c0.119-0.118,0.237-0.237,0.355-0.355
			c0.118-0.119,0.118-0.119,0.237-0.237c0,0,0,0,0.118-0.119s0.237-0.355,0.355-0.474l0.118-0.119
			c0.118-0.237,0.355-0.474,0.474-0.829l0,0c0.237-0.355,0.355-0.71,0.593-1.066l0,0c0.118-0.355,0.355-0.711,0.474-1.066l0,0
			c0,0,0,0,0-0.119c0.118-0.355,0.236-0.592,0.355-0.947c0-0.119,0-0.119,0-0.237c0-0.118,0-0.237,0.118-0.355
			c0-0.119,0.118-0.237,0.118-0.474c0.119-0.237,0.119-0.474,0.119-0.71v-0.119c0,0,0,0,0-0.118
			c0.118-0.237,0.118-0.592,0.236-0.829c0-0.119,0-0.355,0.118-0.474c0-0.119,0-0.119,0-0.237c0-0.118,0-0.118,0-0.237
			c0-0.237,0.119-0.592,0.119-0.829c0-0.118,0-0.355,0-0.474s0-0.119,0-0.237c0-0.119,0-0.119,0-0.237c0-0.237,0-0.592,0-0.829
			s0-0.474,0-0.711s0-0.592,0-0.829c0-0.118,0-0.237,0-0.355c0-0.237,0-0.355,0-0.592c0,0,0,0,0-0.119
			C374.283,297.988,374.283,297.396,374.283,296.803z"/>
	</g>
	<g>
		<g enable-background="new    ">
			<g>
				<defs>
					<path id="SVGID_9_" d="M274.671,242.556l8.291-3.435c-1.658,0.71-2.724,2.605-2.724,5.33l-8.291,3.435
						C271.947,245.162,273.013,243.267,274.671,242.556z"/>
				</defs>
				<clipPath id="SVGID_10_">
					<use xlink:href="#SVGID_9_"  overflow="visible"/>
				</clipPath>
				<g clip-path="url(#SVGID_10_)" enable-background="new    ">
					<path fill="#6E1318" d="M274.671,242.556l8.291-3.435c-0.592,0.237-1.184,0.71-1.658,1.303l-8.291,3.435
						C273.487,243.267,274.079,242.793,274.671,242.556"/>
					<path fill="#721419" d="M273.132,243.859l8.291-3.435c-0.119,0.119-0.237,0.237-0.237,0.474l-8.291,3.435
						C272.895,244.096,273.013,243.977,273.132,243.859"/>
					<path fill="#76151A" d="M272.776,244.333l8.291-3.435c-0.118,0.119-0.118,0.237-0.237,0.355l-8.291,3.435
						C272.658,244.569,272.776,244.451,272.776,244.333"/>
					<path fill="#7A151B" d="M272.54,244.688l8.291-3.435c0,0.119-0.118,0.237-0.118,0.355l-8.292,3.435
						C272.54,244.925,272.54,244.806,272.54,244.688"/>
					<path fill="#7F161C" d="M272.421,245.043l8.292-3.435c0,0.118-0.119,0.237-0.119,0.355l-8.291,3.435
						C272.303,245.28,272.421,245.162,272.421,245.043"/>
					<path fill="#83171D" d="M272.303,245.398l8.291-3.435c0,0.118-0.119,0.237-0.119,0.355l-8.291,3.435
						C272.303,245.635,272.303,245.517,272.303,245.398"/>
					<path fill="#87181E" d="M272.184,245.635l8.291-3.435c0,0.118,0,0.237-0.118,0.355l-8.291,3.435
						C272.184,245.872,272.184,245.754,272.184,245.635"/>
					<path fill="#8B181F" d="M272.184,245.991l8.291-3.435c0,0.119,0,0.237-0.118,0.355l-8.291,3.435
						C272.066,246.228,272.066,246.109,272.184,245.991"/>
					<path fill="#8F1920" d="M272.066,246.346l8.291-3.435c0,0.119,0,0.237,0,0.355l-8.291,3.435
						C272.066,246.583,272.066,246.464,272.066,246.346"/>
					<path fill="#941A21" d="M272.066,246.583l8.291-3.435c0,0.119,0,0.237,0,0.355l-8.291,3.435
						C271.947,246.82,271.947,246.701,272.066,246.583"/>
					<path fill="#981B22" d="M271.947,246.938l8.291-3.435c0,0.119,0,0.237,0,0.355l-8.291,3.435
						C271.947,247.175,271.947,247.057,271.947,246.938"/>
					<path fill="#9C1B23" d="M271.947,247.293l8.291-3.435c0,0.118,0,0.237,0,0.355l-8.291,3.435
						C271.947,247.53,271.947,247.412,271.947,247.293"/>
					<path fill="#A01C24" d="M271.947,247.53l8.291-3.435c0,0.118,0,0.237,0,0.237l-8.291,3.435
						C271.947,247.768,271.947,247.649,271.947,247.53"/>
				</g>
			</g>
		</g>
		<path fill="#D3252F" d="M352.371,276.549c0-0.237,0-0.474,0-0.592v-0.118v-0.119c0-0.119,0-0.237,0-0.355
			c0-0.237,0-0.474-0.119-0.71c0-0.119,0-0.237,0-0.355v-0.118c0-0.119,0-0.119,0-0.237c0-0.237-0.118-0.474-0.118-0.71
			s-0.118-0.355-0.118-0.592c0,0,0,0,0-0.119l0,0c0-0.237-0.118-0.474-0.118-0.71s-0.119-0.474-0.237-0.711l0,0l0,0
			c-0.118-0.237-0.118-0.474-0.237-0.71c-0.118-0.237-0.118-0.474-0.236-0.829l0,0l0,0c-0.119-0.237-0.237-0.592-0.355-0.829
			c0-0.119-0.118-0.237-0.118-0.355c-0.119-0.118-0.119-0.355-0.237-0.474c0-0.119-0.118-0.237-0.118-0.355
			c0-0.118-0.119-0.118-0.119-0.237c-0.354-0.829-0.71-1.54-1.184-2.25v-0.118c-0.119-0.237-0.237-0.355-0.355-0.592
			c-0.119-0.237-0.237-0.355-0.355-0.592c0,0,0-0.119-0.118-0.119c-0.237-0.355-0.475-0.592-0.593-0.947l0,0l-0.118-0.119
			c-0.118-0.237-0.355-0.355-0.474-0.592c-0.119-0.118-0.237-0.237-0.355-0.355c0-0.119-0.118-0.119-0.118-0.237l-0.119-0.119
			c-0.236-0.237-0.355-0.474-0.592-0.592c0-0.118-0.118-0.118-0.118-0.118l-0.119-0.119c-0.118-0.119-0.118-0.119-0.236-0.237
			c-0.119-0.119-0.355-0.355-0.593-0.474l-0.118-0.119l-0.118-0.119c-0.119-0.118-0.119-0.118-0.237-0.237
			c-0.118-0.118-0.355-0.237-0.474-0.355c-0.118-0.119-0.118-0.119-0.237-0.119c0,0-0.118,0-0.118-0.119l-0.118-0.118
			c-0.119-0.119-0.355-0.237-0.474-0.355c-0.119-0.118-0.355-0.237-0.475-0.237l0,0l0,0c-0.118-0.119-0.354-0.237-0.474-0.237
			c-0.118-0.119-0.355-0.119-0.474-0.237c-0.118,0-0.118-0.119-0.236-0.119l-54.603-24.636l0,0c-0.119,0-0.237-0.119-0.237-0.119
			c-0.119-0.118-0.355-0.118-0.474-0.237h-0.119h-0.119c-0.118,0-0.237-0.119-0.237-0.119c-0.118,0-0.355-0.118-0.474-0.118l0,0l0,0
			c-0.119,0-0.237-0.119-0.474-0.119c-0.119,0-0.237,0-0.355,0h-0.119c0,0,0,0-0.118,0c-0.237,0-0.355,0-0.592-0.118h-0.119h-0.118
			c-0.119,0-0.237,0-0.355,0s-0.119,0-0.237,0c-0.119,0-0.119,0-0.237,0h-0.119c-0.118,0-0.237,0-0.355,0c-0.118,0-0.237,0-0.355,0
			h-0.119c-0.119,0-0.119,0-0.237,0c-0.119,0-0.355,0.118-0.474,0.118h-0.119c-0.119,0-0.237,0.119-0.474,0.119l-8.291,3.435
			c0.237-0.119,0.355-0.119,0.592-0.237c0.118,0,0.355-0.119,0.474-0.119c0.118,0,0.237,0,0.355-0.119c0.118,0,0.237,0,0.355,0
			c0.119,0,0.237,0,0.474,0c0.118,0,0.118,0,0.237,0c0.237,0,0.355,0,0.592,0h0.118c0.237,0,0.474,0,0.711,0.119h0.118
			c0.237,0,0.474,0.119,0.711,0.119l0,0c0.237,0.118,0.474,0.118,0.829,0.237h0.118c0.237,0.118,0.592,0.237,0.829,0.355
			l54.603,24.755c0.355,0.237,0.829,0.355,1.185,0.592l0,0c0.355,0.237,0.711,0.474,1.066,0.71c0,0,0.118,0,0.118,0.119
			c0.355,0.237,0.711,0.474,0.947,0.829l0.119,0.119c0.355,0.237,0.592,0.592,0.947,0.829l0.118,0.118
			c0.237,0.355,0.593,0.592,0.829,0.948c0,0.118,0.119,0.118,0.119,0.237c0.236,0.355,0.474,0.592,0.71,0.947l0.119,0.119
			c0.236,0.355,0.474,0.71,0.71,1.066c0.119,0.237,0.237,0.355,0.355,0.592s0.237,0.474,0.355,0.592
			c0.474,0.71,0.829,1.54,1.185,2.25c0.118,0.237,0.118,0.355,0.236,0.592c0.119,0.118,0.119,0.355,0.237,0.474
			c0.118,0.355,0.355,0.829,0.474,1.185l0,0c0.119,0.474,0.355,0.947,0.474,1.421l0,0c0.119,0.474,0.237,0.948,0.355,1.54
			c0,0,0,0,0,0.119c0.118,0.474,0.118,0.947,0.237,1.421v0.118c0.118,0.474,0.118,0.948,0.118,1.421v0.119c0,0.474,0,0.947,0,1.54
			l-0.711,55.55l8.291-3.435l0.711-55.55v-0.118C352.371,277.023,352.371,276.786,352.371,276.549z"/>
		<polygon fill="#AD1E27" points="280.001,258.072 280.238,244.451 271.947,247.886 271.71,261.27 		"/>
		<path fill="#76151A" d="M332.827,260.678l-54.603-24.636c-6.277-2.961-11.489,1.303-11.607,9.476l-0.237,18.714l5.33-2.25
			l0.237-13.976c0-4.382,2.843-6.633,6.277-5.093l54.603,24.636c3.436,1.54,6.041,6.396,6.041,10.779l-0.711,55.55l5.212,2.487
			l0.711-55.55C344.198,272.522,339.105,263.639,332.827,260.678z"/>
	</g>
	<g>
		<path fill="#211915" d="M310.679,372.489c-1.776,0-3.909-0.237-6.396-1.066c-6.633-2.25-20.609-9.949-21.201-10.186l2.132-3.791
			c0.119,0.119,14.332,7.817,20.491,9.95c5.448,1.776,9.002,0.237,9.12,0.118l0.236-0.118l31.625-11.726v-9.239h4.264v12.318
			l-34.467,12.673C316.009,371.66,313.877,372.489,310.679,372.489z"/>
	</g>
	<g>
		<g enable-background="new    ">
			<g enable-background="new    ">
				<g>
					<defs>
						<path id="SVGID_11_" d="M351.897,310.78l9.594,4.738c-2.369-1.185-5.33-1.303-8.41,0l-9.594-4.738
							C346.686,309.477,349.528,309.595,351.897,310.78z"/>
					</defs>
					<clipPath id="SVGID_12_">
						<use xlink:href="#SVGID_11_"  overflow="visible"/>
					</clipPath>
					<g clip-path="url(#SVGID_12_)" enable-background="new    ">
						<path fill="#BD212A" d="M353.081,315.399l-9.594-4.738c0.355-0.119,0.711-0.237,1.066-0.355l9.594,4.738
							C353.792,315.162,353.437,315.28,353.081,315.399"/>
						<path fill="#B82029" d="M354.147,315.043l-9.594-4.738c0.71-0.237,1.303-0.355,2.014-0.474l9.594,4.738
							C355.45,314.688,354.858,314.807,354.147,315.043"/>
						<path fill="#B32028" d="M356.161,314.57l-9.594-4.738c0.474-0.119,1.065-0.119,1.539-0.119l9.595,4.738
							C357.108,314.57,356.635,314.57,356.161,314.57"/>
						<path fill="#AD1F27" d="M357.582,314.57l-9.594-4.738c0.474,0,0.829,0,1.303,0.119l9.594,4.738
							C358.53,314.57,358.056,314.57,357.582,314.57"/>
						<path fill="#A81E26" d="M358.885,314.688l-9.594-4.738c0.355,0,0.711,0.118,1.185,0.237l9.594,4.738
							C359.714,314.807,359.24,314.688,358.885,314.688"/>
						<path fill="#A31D24" d="M360.069,314.925l-9.594-4.738c0.355,0.118,0.711,0.237,1.066,0.355l9.594,4.738
							C360.78,315.043,360.425,314.925,360.069,314.925"/>
						<path fill="#9E1C23" d="M361.136,315.28l-9.594-4.738c0.118,0.119,0.236,0.119,0.474,0.237l9.594,4.738
							C361.373,315.399,361.254,315.28,361.136,315.28"/>
					</g>
				</g>
			</g>
			<g enable-background="new    ">
				<g>
					<defs>
						<path id="SVGID_13_" d="M344.435,350.34l-9.594-4.738c-3.672-1.777-5.922-6.041-5.922-11.844
							c0-9.712,6.633-20.017,14.568-23.097l9.594,4.738c-8.054,3.08-14.568,13.384-14.568,23.097
							C338.395,344.299,340.764,348.563,344.435,350.34z"/>
					</defs>
					<clipPath id="SVGID_14_">
						<use xlink:href="#SVGID_13_"  overflow="visible"/>
					</clipPath>
					<g clip-path="url(#SVGID_14_)" enable-background="new    ">
						<path fill="#85171E" d="M344.435,350.34l-9.594-4.738c-3.672-1.777-5.922-6.041-5.922-11.844c0-0.592,0-1.303,0.118-1.895
							l9.594,4.738c0,0.592-0.118,1.303-0.118,1.895C338.395,344.299,340.764,348.563,344.435,350.34"/>
						<path fill="#8A181F" d="M338.631,336.482l-9.594-4.738c0.119-0.829,0.237-1.54,0.355-2.369l9.594,4.738
							C338.75,334.942,338.631,335.771,338.631,336.482"/>
						<path fill="#8F1920" d="M338.868,334.113l-9.594-4.738c0.118-0.592,0.236-1.303,0.474-1.896l9.594,4.738
							C339.224,332.929,338.986,333.521,338.868,334.113"/>
						<path fill="#941A21" d="M339.342,332.218l-9.594-4.738c0.118-0.592,0.355-1.184,0.474-1.658l9.594,4.738
							C339.697,331.152,339.46,331.625,339.342,332.218"/>
						<path fill="#991B22" d="M339.815,330.56l-9.594-4.738c0.237-0.474,0.355-1.066,0.593-1.54l9.594,4.738
							C340.289,329.494,340.053,330.086,339.815,330.56"/>
						<path fill="#9E1C23" d="M340.408,329.02l-9.594-4.738c0.236-0.474,0.474-1.066,0.71-1.54l9.594,4.738
							C340.882,327.954,340.645,328.428,340.408,329.02"/>
						<path fill="#A31D24" d="M341.118,327.48l-9.594-4.738c0.237-0.474,0.474-0.947,0.711-1.54l9.594,4.738
							C341.593,326.414,341.355,327.006,341.118,327.48"/>
						<path fill="#A81E26" d="M341.947,325.94l-9.594-4.738c0.237-0.474,0.593-0.948,0.829-1.421l9.595,4.738
							C342.422,324.993,342.185,325.467,341.947,325.94"/>
						<path fill="#AD1F27" d="M342.776,324.519l-9.594-4.738c0.355-0.474,0.711-1.066,1.066-1.54l9.594,4.738
							C343.487,323.453,343.132,323.927,342.776,324.519"/>
						<path fill="#B32028" d="M343.843,322.979l-9.594-4.738c0.355-0.592,0.829-1.066,1.303-1.658l9.594,4.738
							C344.672,321.913,344.198,322.387,343.843,322.979"/>
						<path fill="#B82029" d="M345.027,321.321l-9.594-4.738c0.592-0.711,1.185-1.303,1.776-1.895l9.594,4.737
							C346.212,320.018,345.619,320.729,345.027,321.321"/>
						<path fill="#BD212A" d="M346.804,319.426l-9.594-4.737c1.896-1.777,4.027-3.198,6.277-4.027l9.594,4.738
							C350.831,316.228,348.699,317.649,346.804,319.426"/>
					</g>
				</g>
			</g>
			<g>
				<path fill="#D3252F" d="M353.081,315.399c7.937-3.08,14.45,2.25,14.332,11.963c0,9.712-6.633,20.017-14.568,23.097
					c-8.055,3.08-14.45-2.25-14.332-11.963C338.513,328.783,345.027,318.479,353.081,315.399z"/>
			</g>
		</g>
	</g>
</g>
<g>
	<g>
		<polygon opacity="0.2" fill="#211915" enable-background="new    " points="131.118,530.02 186.431,509.173 114.535,470.679 		"/>
		<g>
			<g>
				<g>
					<g>
						<g enable-background="new    ">
							<g>
								<path fill="#495160" d="M108.85,505.976c1.303,0.71,2.369,0.829,3.198,0.354l-8.172,4.738
									c-0.829,0.474-2.014,0.355-3.198-0.355C103.165,509.292,106.481,507.396,108.85,505.976z"/>
							</g>
							<g>
								<path fill="#495160" d="M104.349,498.158c0,2.843,2.014,6.396,4.501,7.817l-8.173,4.737
									c-2.487-1.421-4.501-4.975-4.501-7.817C98.901,501.355,101.625,499.697,104.349,498.158
									c-2.724,1.539-5.448,3.197-8.173,4.737c0-1.421,0.474-2.487,1.303-2.843l8.172-4.737
									C104.941,495.789,104.349,496.736,104.349,498.158z"/>
							</g>
							<g>
								<path fill="#3F4651" d="M97.598,500.053l8.173-4.737c0.829-0.474,2.014-0.355,3.198,0.355l-8.172,4.737
									C99.493,499.579,98.309,499.579,97.598,500.053z"/>
							</g>
							<g>
								<path fill="#3F4651" d="M112.048,506.33l-8.172,4.738c0.829-0.474,1.303-1.422,1.303-2.843c0-2.843-2.014-6.396-4.501-7.817
									l8.173-4.737c2.487,1.421,4.501,4.975,4.501,7.817C113.351,504.791,112.877,505.856,112.048,506.33z"/>
							</g>
							<g>
								<polygon fill="#495160" points="74.62,482.523 82.792,477.785 135.026,508.107 126.854,512.845 								"/>
							</g>
							<g>
								<path fill="#EBEAEA" d="M100.204,478.496c-2.724,1.54-5.448,3.198-8.173,4.738c-0.237-0.355-0.474-0.829-0.71-1.185
									c2.724-1.54,5.448-3.198,8.173-4.738C99.73,477.667,99.967,478.022,100.204,478.496z"/>
							</g>
							<g>
								<path fill="#EBEAEA" d="M100.204,478.496c1.066,1.658,2.25,3.198,3.553,4.619c-2.724,1.54-5.448,3.198-8.172,4.738
									c-1.303-1.422-2.487-2.961-3.554-4.619C94.755,481.576,97.479,480.036,100.204,478.496z"/>
							</g>
							<g>
								<path fill="#EBEAEA" d="M103.757,482.997c1.54,1.658,3.316,3.198,5.211,4.264l-8.172,4.738
									c-1.895-1.066-3.553-2.487-5.211-4.265C98.309,486.195,101.033,484.537,103.757,482.997z"/>
							</g>
							<g>
								<path fill="#EBEAEA" d="M95.584,464.046c0,4.265,1.421,9.002,3.909,13.147c-2.725,1.54-5.449,3.198-8.173,4.737
									c-2.369-4.146-3.909-8.883-3.909-13.146c0-4.265,1.54-7.226,3.909-8.528l8.173-4.737
									C97.124,456.939,95.703,459.9,95.584,464.046z"/>
							</g>
							<g>
								<path fill="#EBEAEA" d="M108.968,487.261c3.672,2.132,7.107,2.369,9.594,0.948l-8.173,4.737
									c-2.487,1.422-5.804,1.185-9.594-0.947C103.283,490.577,106.481,488.683,108.968,487.261z"/>
							</g>
							<g>
								<polygon fill="#495160" points="75.093,372.015 83.266,367.277 82.792,477.785 74.62,482.523 								"/>
							</g>
							<g>
								<polygon fill="#EBEAEA" points="79.713,435.738 87.885,431 87.767,434.436 79.594,439.173 								"/>
							</g>
							<g>
								<polygon fill="#EBEAEA" points="79.713,427.447 87.885,422.709 87.885,426.144 79.713,430.882 								"/>
							</g>
							<g>
								<path fill="#C94C51" d="M91.439,460.256l8.172-4.737c2.487-1.422,5.804-1.185,9.476,0.947l-8.173,4.737
									C97.243,459.071,93.808,458.835,91.439,460.256z"/>
							</g>
							<g>
								<polygon fill="#EBEAEA" points="79.713,419.037 87.885,414.3 87.885,417.854 79.713,422.591 								"/>
							</g>
							<g>
								<path fill="#C94C51" d="M118.444,488.209l-8.172,4.737c2.369-1.421,3.909-4.382,3.909-8.528
									c0-8.527-5.922-18.832-13.266-23.096l8.173-4.738c7.344,4.264,13.384,14.688,13.266,23.097
									C122.353,483.826,120.931,486.787,118.444,488.209z"/>
							</g>
							<g>
								<polygon fill="#EBEAEA" points="79.831,410.746 87.885,406.009 87.885,409.443 79.713,414.182 								"/>
							</g>
							<g>
								<polygon fill="#EBEAEA" points="79.831,402.455 88.004,397.717 88.004,401.152 79.831,405.891 								"/>
							</g>
							<g>
								<polygon fill="#EBEAEA" points="79.594,439.173 87.767,434.436 131.473,459.782 123.3,464.52 								"/>
							</g>
							<g>
								<polygon fill="#708195" points="123.3,461.085 131.473,456.348 131.473,459.782 123.3,464.52 								"/>
							</g>
							<g>
								<polygon fill="#708195" points="123.3,461.085 123.3,464.52 79.594,439.173 79.713,435.738 								"/>
							</g>
							<g>
								<polygon fill="#708195" points="79.713,435.738 87.885,431 131.473,456.348 123.3,461.085 								"/>
							</g>
							<g>
								<polygon fill="#EBEAEA" points="79.713,430.882 87.885,426.144 131.473,451.491 123.3,456.11 								"/>
							</g>
							<g>
								<polygon fill="#708195" points="79.713,427.447 87.885,422.709 131.473,447.938 123.418,452.676 								"/>
							</g>
							<g>
								<polygon fill="#EBEAEA" points="79.713,422.591 87.885,417.854 131.591,443.081 123.418,447.819 								"/>
							</g>
							<g>
								<polygon fill="#708195" points="79.713,419.037 87.885,414.3 131.591,439.646 123.418,444.385 								"/>
							</g>
							<g>
								<polygon fill="#EBEAEA" points="79.713,414.182 87.885,409.443 131.591,434.79 123.418,439.528 								"/>
							</g>
							<g>
								<polygon fill="#708195" points="79.831,410.746 87.885,406.009 131.591,431.355 123.418,436.094 								"/>
							</g>
							<g>
								<polygon fill="#EBEAEA" points="79.831,405.891 88.004,401.152 131.591,426.381 123.418,431.119 								"/>
							</g>
							<g>
								<polygon fill="#708195" points="79.831,402.455 88.004,397.717 131.591,422.946 123.418,427.684 								"/>
							</g>
							<g>
								<polygon fill="#EBEAEA" points="79.831,398.547 88.004,393.809 104.23,403.166 96.058,407.904 								"/>
							</g>
							<g>
								<polygon fill="#EBEAEA" points="79.95,379.951 88.122,375.213 88.004,393.809 79.831,398.547 								"/>
							</g>
							<g>
								<polygon fill="#708195" points="123.418,452.676 131.473,447.938 131.473,451.491 123.3,456.11 								"/>
							</g>
							<g>
								<polygon fill="#708195" points="123.418,452.676 123.3,456.11 79.713,430.882 79.713,427.447 								"/>
							</g>
							<g>
								<polygon fill="#708195" points="123.418,444.385 123.418,447.819 79.713,422.591 79.713,419.037 								"/>
							</g>
							<g>
								<polygon fill="#708195" points="123.418,444.385 131.591,439.646 131.591,443.081 123.418,447.819 								"/>
							</g>
							<g>
								<polygon fill="#708195" points="96.058,389.308 104.23,384.57 104.23,403.166 96.058,407.904 								"/>
							</g>
							<g>
								<polygon fill="#708195" points="79.95,379.951 88.122,375.213 104.23,384.57 96.058,389.308 								"/>
							</g>
							<g>
								<polygon fill="#708195" points="123.418,436.094 131.591,431.355 131.591,434.79 123.418,439.528 								"/>
							</g>
							<g>
								<polygon fill="#708195" points="123.418,427.684 131.591,422.946 131.591,426.381 123.418,431.119 								"/>
							</g>
							<g>
								<path fill="#FBFBFB" d="M75.093,372.015l52.234,30.322l-0.474,110.508L74.62,482.523L75.093,372.015z M100.796,491.999
									c7.343,4.264,13.384,0.829,13.502-7.581c0-8.527-5.922-18.832-13.266-23.096c-7.344-4.265-13.384-0.829-13.502,7.58
									C87.412,477.312,93.452,487.734,100.796,491.999 M79.95,379.951l-0.119,18.596l16.227,9.357l0.118-18.596L79.95,379.951
									 M123.418,431.119v-3.436l-43.706-25.347v3.435L123.418,431.119 M123.418,447.819v-3.435l-43.706-25.348v3.436
									L123.418,447.819 M123.3,464.52v-3.435l-43.706-25.347v3.435L123.3,464.52 M123.3,456.11v-3.435l-43.706-25.348v3.436
									L123.3,456.11 M123.418,439.528v-3.435l-43.706-25.348v3.436L123.418,439.528"/>
							</g>
							<g>
								<path fill="#DD535F" d="M100.914,461.203c7.344,4.265,13.384,14.688,13.266,23.097c0,8.528-6.041,11.963-13.503,7.581
									c-7.343-4.265-13.384-14.688-13.266-23.097C87.53,460.374,93.571,456.939,100.914,461.203z"/>
							</g>
							<g>
								<polygon fill="#EBEAEA" points="127.446,402.337 135.5,397.6 135.026,508.107 126.854,512.845 								"/>
							</g>
							<g>
								<polygon fill="#EBEAEA" points="75.093,372.015 83.266,367.277 135.5,397.6 127.446,402.337 								"/>
							</g>
							<g>
								<path fill="#353E51" d="M127.209,393.217c3.435,2.013,6.277,6.869,6.277,10.778l-0.474,121.879
									c0,3.908-2.843,5.566-6.278,3.553l-51.997-30.084c-3.435-2.014-6.278-6.87-6.278-10.778l0.474-121.879
									c0-3.909,2.842-5.567,6.277-3.553L127.209,393.217z M126.854,512.845l0.474-110.508l-52.234-30.322L74.62,482.523
									L126.854,512.845 M100.677,510.713c2.487,1.422,4.501,0.237,4.501-2.605s-2.014-6.396-4.501-7.817
									c-2.487-1.422-4.501-0.237-4.501,2.605S98.19,509.292,100.677,510.713"/>
							</g>
							<g>
								<path fill="#3F4651" d="M100.796,500.29c2.487,1.421,4.501,4.975,4.501,7.817s-2.014,4.027-4.501,2.605
									c-2.487-1.421-4.501-4.975-4.501-7.817C96.176,500.053,98.309,498.868,100.796,500.29z"/>
							</g>
							<g>
								<polygon fill="#708195" points="96.058,389.308 96.058,407.904 79.831,398.547 79.95,379.951 								"/>
							</g>
							<g>
								<polygon fill="#708195" points="123.418,436.094 123.418,439.528 79.713,414.182 79.831,410.746 								"/>
							</g>
							<g>
								<polygon fill="#708195" points="123.418,427.684 123.418,431.119 79.831,405.891 79.831,402.455 								"/>
							</g>
							<path fill="#495160" d="M135.381,388.479l-51.997-30.085c-1.777-0.948-3.316-1.066-4.501-0.474l-8.173,4.738
								c1.185-0.711,2.724-0.592,4.501,0.474l51.997,30.085c3.435,2.013,6.277,6.869,6.277,10.778l-0.474,121.879
								c0,2.014-0.711,3.316-1.895,4.027l8.172-4.738c1.185-0.711,1.777-2.014,1.895-4.027l0.474-121.878
								C141.659,395.349,138.816,390.492,135.381,388.479z"/>
						</g>
					</g>
					<g>
						<g enable-background="new    ">
							<g>
								<path fill="#495160" d="M108.85,505.976c1.303,0.71,2.369,0.829,3.198,0.354l-8.172,4.738
									c-0.829,0.474-2.014,0.355-3.198-0.355C103.165,509.292,106.481,507.396,108.85,505.976z"/>
							</g>
							<g>
								<path fill="#495160" d="M104.349,498.158c0,2.843,2.014,6.396,4.501,7.817l-8.173,4.737
									c-2.487-1.421-4.501-4.975-4.501-7.817C98.901,501.355,101.625,499.697,104.349,498.158
									c-2.724,1.539-5.448,3.197-8.173,4.737c0-1.421,0.474-2.487,1.303-2.843l8.172-4.737
									C104.941,495.789,104.349,496.736,104.349,498.158z"/>
							</g>
							<g>
								<path fill="#3F4651" d="M97.598,500.053l8.173-4.737c0.829-0.474,2.014-0.355,3.198,0.355l-8.172,4.737
									C99.493,499.579,98.309,499.579,97.598,500.053z"/>
							</g>
							<g>
								<path fill="#3F4651" d="M112.048,506.33l-8.172,4.738c0.829-0.474,1.303-1.422,1.303-2.843c0-2.843-2.014-6.396-4.501-7.817
									l8.173-4.737c2.487,1.421,4.501,4.975,4.501,7.817C113.351,504.791,112.877,505.856,112.048,506.33z"/>
							</g>
							<g>
								<polygon fill="#495160" points="74.62,482.523 82.792,477.785 135.026,508.107 126.854,512.845 								"/>
							</g>
							<g>
								<path fill="#EBEAEA" d="M100.204,478.496c-2.724,1.54-5.448,3.198-8.173,4.738c-0.237-0.355-0.474-0.829-0.71-1.185
									c2.724-1.54,5.448-3.198,8.173-4.738C99.73,477.667,99.967,478.022,100.204,478.496z"/>
							</g>
							<g>
								<path fill="#EBEAEA" d="M100.204,478.496c1.066,1.658,2.25,3.198,3.553,4.619c-2.724,1.54-5.448,3.198-8.172,4.738
									c-1.303-1.422-2.487-2.961-3.554-4.619C94.755,481.576,97.479,480.036,100.204,478.496z"/>
							</g>
							<g>
								<path fill="#EBEAEA" d="M103.757,482.997c1.54,1.658,3.316,3.198,5.211,4.264l-8.172,4.738
									c-1.895-1.066-3.553-2.487-5.211-4.265C98.309,486.195,101.033,484.537,103.757,482.997z"/>
							</g>
							<g>
								<path fill="#EBEAEA" d="M95.584,464.046c0,4.265,1.421,9.002,3.909,13.147c-2.725,1.54-5.449,3.198-8.173,4.737
									c-2.369-4.146-3.909-8.883-3.909-13.146c0-4.265,1.54-7.226,3.909-8.528l8.173-4.737
									C97.124,456.939,95.703,459.9,95.584,464.046z"/>
							</g>
							<g>
								<path fill="#EBEAEA" d="M108.968,487.261c3.672,2.132,7.107,2.369,9.594,0.948l-8.173,4.737
									c-2.487,1.422-5.804,1.185-9.594-0.947C103.283,490.577,106.481,488.683,108.968,487.261z"/>
							</g>
							<g>
								<polygon fill="#495160" points="75.093,372.015 83.266,367.277 82.792,477.785 74.62,482.523 								"/>
							</g>
							<g>
								<polygon fill="#EBEAEA" points="79.713,435.738 87.885,431 87.767,434.436 79.594,439.173 								"/>
							</g>
							<g>
								<polygon fill="#EBEAEA" points="79.713,427.447 87.885,422.709 87.885,426.144 79.713,430.882 								"/>
							</g>
							<g>
								<path fill="#C94C51" d="M91.439,460.256l8.172-4.737c2.487-1.422,5.804-1.185,9.476,0.947l-8.173,4.737
									C97.243,459.071,93.808,458.835,91.439,460.256z"/>
							</g>
							<g>
								<polygon fill="#EBEAEA" points="79.713,419.037 87.885,414.3 87.885,417.854 79.713,422.591 								"/>
							</g>
							<g>
								<path fill="#C94C51" d="M118.444,488.209l-8.172,4.737c2.369-1.421,3.909-4.382,3.909-8.528
									c0-8.527-5.922-18.832-13.266-23.096l8.173-4.738c7.344,4.264,13.384,14.688,13.266,23.097
									C122.353,483.826,120.931,486.787,118.444,488.209z"/>
							</g>
							<g>
								<polygon fill="#EBEAEA" points="79.831,410.746 87.885,406.009 87.885,409.443 79.713,414.182 								"/>
							</g>
							<g>
								<polygon fill="#EBEAEA" points="79.831,402.455 88.004,397.717 88.004,401.152 79.831,405.891 								"/>
							</g>
							<g>
								<polygon fill="#EBEAEA" points="79.594,439.173 87.767,434.436 131.473,459.782 123.3,464.52 								"/>
							</g>
							<g>
								<polygon fill="#708195" points="123.3,461.085 131.473,456.348 131.473,459.782 123.3,464.52 								"/>
							</g>
							<g>
								<polygon fill="#708195" points="123.3,461.085 123.3,464.52 79.594,439.173 79.713,435.738 								"/>
							</g>
							<g>
								<polygon fill="#708195" points="79.713,435.738 87.885,431 131.473,456.348 123.3,461.085 								"/>
							</g>
							<g>
								<polygon fill="#EBEAEA" points="79.713,430.882 87.885,426.144 131.473,451.491 123.3,456.11 								"/>
							</g>
							<g>
								<polygon fill="#708195" points="79.713,427.447 87.885,422.709 131.473,447.938 123.418,452.676 								"/>
							</g>
							<g>
								<polygon fill="#EBEAEA" points="79.713,422.591 87.885,417.854 131.591,443.081 123.418,447.819 								"/>
							</g>
							<g>
								<polygon fill="#708195" points="79.713,419.037 87.885,414.3 131.591,439.646 123.418,444.385 								"/>
							</g>
							<g>
								<polygon fill="#708195" points="79.831,410.746 87.885,406.009 131.591,431.355 123.418,436.094 								"/>
							</g>
							<g>
								<polygon fill="#EBEAEA" points="79.831,405.891 88.004,401.152 131.591,426.381 123.418,431.119 								"/>
							</g>
							<g>
								<polygon fill="#708195" points="79.831,402.455 88.004,397.717 131.591,422.946 123.418,427.684 								"/>
							</g>
							<g>
								<polygon fill="#EBEAEA" points="79.831,398.547 88.004,393.809 104.23,403.166 96.058,407.904 								"/>
							</g>
							<g>
								<polygon fill="#EBEAEA" points="79.95,379.951 88.122,375.213 88.004,393.809 79.831,398.547 								"/>
							</g>
							<g>
								<polygon fill="#708195" points="123.418,452.676 131.473,447.938 131.473,451.491 123.3,456.11 								"/>
							</g>
							<g>
								<polygon fill="#708195" points="123.418,452.676 123.3,456.11 79.713,430.882 79.713,427.447 								"/>
							</g>
							<g>
								<polygon fill="#708195" points="123.418,444.385 131.591,439.646 131.591,443.081 123.418,447.819 								"/>
							</g>
							<g>
								<polygon fill="#708195" points="96.058,389.308 104.23,384.57 104.23,403.166 96.058,407.904 								"/>
							</g>
							<g>
								<polygon fill="#708195" points="79.95,379.951 88.122,375.213 104.23,384.57 96.058,389.308 								"/>
							</g>
							<g>
								<polygon fill="#708195" points="123.418,436.094 131.591,431.355 131.591,434.79 123.418,439.528 								"/>
							</g>
							<g>
								<polygon fill="#708195" points="123.418,427.684 131.591,422.946 131.591,426.381 123.418,431.119 								"/>
							</g>
							<g>
								<path fill="#CAF8FD" d="M75.093,372.015l52.234,30.322l-0.474,110.508L74.62,482.523L75.093,372.015z"/>
							</g>
							<g>
								<polygon fill="#EBEAEA" points="127.446,402.337 135.5,397.6 135.026,508.107 126.854,512.845 								"/>
							</g>
							<g>
								<polygon fill="#EBEAEA" points="75.093,372.015 83.266,367.277 135.5,397.6 127.446,402.337 								"/>
							</g>
							<g>
								<path fill="#353E51" d="M127.209,393.217c3.435,2.013,6.277,6.869,6.277,10.778l-0.474,121.879
									c0,3.908-2.843,5.566-6.278,3.553l-51.997-30.084c-3.435-2.014-6.278-6.87-6.278-10.778l0.474-121.879
									c0-3.909,2.842-5.567,6.277-3.553L127.209,393.217z M126.854,512.845l0.474-110.508l-52.234-30.322L74.62,482.523
									L126.854,512.845 M100.677,510.713c2.487,1.422,4.501,0.237,4.501-2.605s-2.014-6.396-4.501-7.817
									c-2.487-1.422-4.501-0.237-4.501,2.605S98.19,509.292,100.677,510.713"/>
							</g>
							<g>
								<path fill="#3F4651" d="M100.796,500.29c2.487,1.421,4.501,4.975,4.501,7.817s-2.014,4.027-4.501,2.605
									c-2.487-1.421-4.501-4.975-4.501-7.817C96.176,500.053,98.309,498.868,100.796,500.29z"/>
							</g>
							<path fill="#495160" d="M135.381,388.479l-51.997-30.085c-1.777-0.948-3.316-1.066-4.501-0.474l-8.173,4.738
								c1.185-0.711,2.724-0.592,4.501,0.474l51.997,30.085c3.435,2.013,6.277,6.869,6.277,10.778l-0.474,121.879
								c0,2.014-0.711,3.316-1.895,4.027l8.172-4.738c1.185-0.711,1.777-2.014,1.895-4.027l0.474-121.878
								C141.659,395.349,138.816,390.492,135.381,388.479z"/>
						</g>
					</g>
				</g>
				<polygon fill="#353E51" points="133.368,403.284 133.131,526.703 131.118,524.689 131.354,405.891 				"/>
			</g>
		</g>
	</g>
</g>
<g>
	<path opacity="0.2" fill="#211915" enable-background="new    " d="M456.01,543.521l53.062-19.779c0,0,24.873-13.266,22.386-13.266
		s-34.704,3.908-34.704,3.908L456.01,543.521z"/>
	<g>
		<g>
			<g opacity="0.6">
				<polygon fill="#728090" points="498.53,519.004 456.01,543.403 456.128,451.728 498.649,427.21 				"/>
			</g>
			<polygon fill="#233744" points="498.53,519.004 456.01,543.403 456.128,451.728 498.649,427.21 			"/>
			<path fill="#2E353A" d="M496.754,514.385c0,0.947-0.711,2.25-1.54,2.725l-35.77,20.608c-0.829,0.475-1.54,0.119-1.54-0.947
				l0.118-80.423c0-0.948,0.711-2.251,1.54-2.725l35.771-20.609c0.829-0.474,1.539-0.118,1.539,0.947L496.754,514.385z"/>
			<polygon fill="#FFFFFF" points="486.923,441.542 467.854,452.557 467.854,450.543 486.923,439.528 			"/>
			<path fill="#FFFFFF" d="M478.514,519.478c0,0.829-0.592,1.896-1.303,2.251c-0.711,0.474-1.303,0.118-1.303-0.711
				s0.592-1.776,1.303-2.25C477.922,518.293,478.514,518.648,478.514,519.478z"/>
			<path fill="#FFFFFF" d="M468.209,525.4c0,0.592-0.474,1.421-0.947,1.658c-0.593,0.355-0.948,0.118-0.948-0.593
				c0-0.592,0.475-1.421,0.948-1.658C467.735,524.571,468.209,524.808,468.209,525.4z"/>
			<path fill="#FFFFFF" d="M488.226,513.793c0,0.592-0.474,1.421-0.947,1.658c-0.592,0.354-0.947,0.118-0.947-0.593
				c0-0.592,0.474-1.421,0.947-1.658C487.871,512.964,488.226,513.2,488.226,513.793z"/>
			<polygon fill="#CAF8FD" points="494.74,505.146 459.562,525.4 459.562,460.967 494.859,440.713 			"/>
			<polygon fill="#3B617A" points="456.01,543.521 449.731,539.851 449.969,448.057 456.128,451.728 			"/>
			<polygon fill="#34556A" points="498.649,427.21 456.128,451.728 449.969,448.057 493.082,424.012 			"/>
			<polygon fill="#2E353A" points="467.854,442.016 456.364,448.767 454.588,447.701 466.433,441.187 			"/>
			<polygon fill="#34556A" points="456.01,543.521 449.731,539.851 449.969,448.057 456.128,451.728 			"/>
			<polygon fill="#2E353A" points="453.996,477.193 451.863,476.009 451.982,455.873 454.114,457.058 			"/>
		</g>
	</g>
</g>
<g>
	<g>
		<g enable-background="new    ">
			<g enable-background="new    ">
				<g>
					<defs>
						<path id="SVGID_15_" d="M159.188,258.664l8.528,3.672c-0.474-0.237-1.066-0.237-1.658,0.119l-8.528-3.672
							C158.123,258.546,158.715,258.546,159.188,258.664z"/>
					</defs>
					<clipPath id="SVGID_16_">
						<use xlink:href="#SVGID_15_"  overflow="visible"/>
					</clipPath>
					<g clip-path="url(#SVGID_16_)" enable-background="new    ">
						<path fill="#B18D00" d="M166.059,262.455l-8.528-3.672c0.119,0,0.119-0.119,0.237-0.119l8.528,3.672
							C166.177,262.455,166.177,262.455,166.059,262.455"/>
						<path fill="#AC8900" d="M166.295,262.455l-8.528-3.672c0.118,0,0.237-0.119,0.355-0.119l8.528,3.672
							C166.532,262.336,166.414,262.336,166.295,262.455"/>
						<path fill="#A78500" d="M166.651,262.336l-8.528-3.672c0.119,0,0.237,0,0.237,0l8.528,3.672
							C166.888,262.336,166.769,262.336,166.651,262.336"/>
						<path fill="#A38100" d="M166.888,262.336l-8.528-3.672c0.119,0,0.119,0,0.237,0l8.528,3.672
							C167.125,262.218,167.006,262.218,166.888,262.336"/>
						<path fill="#9E7D00" d="M167.125,262.336l-8.528-3.672c0.118,0,0.118,0,0.237,0l8.528,3.672
							C167.361,262.336,167.243,262.336,167.125,262.336"/>
						<path fill="#997A00" d="M167.361,262.336l-8.528-3.672c0.118,0,0.118,0,0.237,0l8.528,3.672
							C167.598,262.336,167.48,262.336,167.361,262.336"/>
						<path fill="#947600" d="M167.598,262.336l-8.528-3.672h0.118l8.528,3.672C167.717,262.455,167.717,262.336,167.598,262.336"/>
					</g>
				</g>
			</g>
			<g enable-background="new    ">
				<g>
					<defs>
						<path id="SVGID_17_" d="M108.968,364.079l-8.528-3.671c0-0.711,0.237-15.042,0.355-23.926l8.528,3.672
							C109.206,349.037,108.968,363.369,108.968,364.079z"/>
					</defs>
					<clipPath id="SVGID_18_">
						<use xlink:href="#SVGID_17_"  overflow="visible"/>
					</clipPath>
					<g clip-path="url(#SVGID_18_)" enable-background="new    ">
						<path fill="#7C6300" d="M108.968,364.079l-8.528-3.671c0-0.711,0.237-15.042,0.355-23.926l8.528,3.672
							C109.206,349.037,108.968,363.369,108.968,364.079"/>
					</g>
				</g>
			</g>
			<g enable-background="new    ">
				<g>
					<defs>
						<path id="SVGID_19_" d="M93.097,346.668l-8.528-3.672c-0.829-0.355-1.303-1.303-1.303-2.724l8.528,3.672
							C91.794,345.365,92.268,346.312,93.097,346.668z"/>
					</defs>
					<clipPath id="SVGID_20_">
						<use xlink:href="#SVGID_19_"  overflow="visible"/>
					</clipPath>
					<g clip-path="url(#SVGID_20_)" enable-background="new    ">
						<path fill="#7C6300" d="M93.097,346.668l-8.528-3.672c-0.829-0.355-1.303-1.303-1.303-2.724l8.528,3.672
							C91.794,345.365,92.268,346.312,93.097,346.668"/>
					</g>
				</g>
			</g>
			<g>
				<polygon fill="#BF9800" points="95.584,293.96 86.938,290.289 157.53,258.783 166.059,262.455 				"/>
			</g>
			<g>
				<polygon fill="#876C00" points="91.794,343.944 83.266,340.272 83.858,295.619 92.386,299.291 				"/>
			</g>
			<g enable-background="new    ">
				<g>
					<defs>
						<path id="SVGID_21_" d="M92.386,299.291l-8.528-3.672c0-2.25,1.421-4.619,3.08-5.33l8.528,3.672
							C93.808,294.671,92.386,297.159,92.386,299.291z"/>
					</defs>
					<clipPath id="SVGID_22_">
						<use xlink:href="#SVGID_21_"  overflow="visible"/>
					</clipPath>
					<g clip-path="url(#SVGID_22_)" enable-background="new    ">
						<path fill="#7C6300" d="M92.386,299.291l-8.528-3.672V295.5L92.386,299.291L92.386,299.291"/>
						<path fill="#816700" d="M92.386,299.172l-8.528-3.671c0-0.119,0-0.355,0-0.474l8.528,3.672
							C92.386,298.817,92.386,299.054,92.386,299.172"/>
						<path fill="#866A00" d="M92.386,298.698l-8.528-3.672c0-0.118,0-0.237,0.118-0.474l8.528,3.672
							C92.505,298.461,92.505,298.58,92.386,298.698"/>
						<path fill="#8B6E00" d="M92.505,298.225l-8.528-3.672c0-0.118,0-0.237,0.119-0.355l8.528,3.672
							C92.505,297.988,92.505,298.106,92.505,298.225"/>
						<path fill="#8F7200" d="M92.623,297.869l-8.528-3.672c0-0.118,0.119-0.237,0.119-0.355l8.528,3.671
							C92.623,297.632,92.623,297.751,92.623,297.869"/>
						<path fill="#947600" d="M92.742,297.514l-8.528-3.671c0-0.119,0.118-0.237,0.118-0.355l8.528,3.672
							C92.742,297.277,92.742,297.396,92.742,297.514"/>
						<path fill="#997A00" d="M92.86,297.159l-8.528-3.672c0-0.119,0.119-0.237,0.119-0.355l8.528,3.672
							C92.86,296.922,92.86,297.04,92.86,297.159"/>
						<path fill="#9E7D00" d="M92.979,296.803l-8.528-3.672c0-0.118,0.118-0.237,0.118-0.355l8.528,3.672
							C93.097,296.685,92.979,296.803,92.979,296.803"/>
						<path fill="#A38100" d="M93.097,296.566l-8.528-3.672c0-0.118,0.119-0.237,0.237-0.355l8.528,3.672
							C93.215,296.33,93.215,296.448,93.097,296.566"/>
						<path fill="#A78500" d="M93.334,296.211l-8.528-3.672c0.119-0.118,0.119-0.237,0.237-0.355l8.528,3.672
							C93.452,295.974,93.334,296.093,93.334,296.211"/>
						<path fill="#AC8900" d="M93.452,295.855l-8.528-3.671c0.119-0.119,0.237-0.237,0.237-0.355l8.528,3.672
							C93.689,295.5,93.571,295.619,93.452,295.855"/>
						<path fill="#B18D00" d="M93.808,295.382l-8.528-3.672c0.118-0.237,0.237-0.355,0.474-0.474l8.528,3.672
							C94.044,295.026,93.926,295.264,93.808,295.382"/>
						<path fill="#B69000" d="M94.281,294.908l-8.528-3.672c0.355-0.355,0.71-0.592,1.066-0.829l8.528,3.672
							C94.874,294.316,94.518,294.553,94.281,294.908"/>
						<path fill="#B18D00" d="M95.229,294.079l-8.528-3.672c0.118,0,0.118-0.119,0.237-0.119l8.528,3.672
							C95.466,293.96,95.347,293.96,95.229,294.079"/>
					</g>
				</g>
			</g>
			<g>
				<path fill="#C49C00" d="M166.059,262.455c1.658-0.711,3.08,0.474,3.08,2.605l-0.592,44.653c0,2.25-1.421,4.62-3.08,5.33
					l-42.521,18.951l-13.977,30.084c0-0.71,0.237-15.042,0.355-23.925l-14.45,6.396c-1.658,0.71-3.08-0.474-3.08-2.606l0.592-44.653
					c0-2.25,1.421-4.619,3.08-5.33L166.059,262.455z"/>
			</g>
		</g>
	</g>
	<g>
		<g enable-background="new    ">
			<g enable-background="new    ">
				<g>
					<defs>
						<path id="SVGID_23_" d="M118.326,303.081l4.5,1.658c-0.592-0.237-1.421-0.118-2.132,0.237l-4.501-1.658
							C117.022,302.962,117.733,302.844,118.326,303.081z"/>
					</defs>
					<clipPath id="SVGID_24_">
						<use xlink:href="#SVGID_23_"  overflow="visible"/>
					</clipPath>
					<g clip-path="url(#SVGID_24_)" enable-background="new    ">
						<path fill="#9C1B23" d="M120.813,305.094l-4.501-1.658c0.118,0,0.237-0.119,0.237-0.119l4.501,1.658
							C120.931,304.976,120.813,304.976,120.813,305.094"/>
						<path fill="#981B22" d="M121.05,304.857l-4.501-1.658c0.119,0,0.237-0.119,0.355-0.119l4.501,1.658
							C121.287,304.857,121.168,304.857,121.05,304.857"/>
						<path fill="#941A21" d="M121.405,304.739l-4.501-1.658c0.118,0,0.237,0,0.355-0.118l4.5,1.658
							C121.642,304.739,121.523,304.739,121.405,304.739"/>
						<path fill="#8F1920" d="M121.76,304.739l-4.5-1.776c0.118,0,0.237,0,0.355,0l4.501,1.658
							C121.997,304.621,121.879,304.739,121.76,304.739"/>
						<path fill="#8B181F" d="M122.116,304.621l-4.501-1.658c0.119,0,0.237,0,0.237,0l4.501,1.658
							C122.234,304.621,122.234,304.621,122.116,304.621"/>
						<path fill="#87181E" d="M122.353,304.621l-4.501-1.658c0.119,0,0.237,0,0.237,0l4.5,1.658
							C122.589,304.739,122.471,304.739,122.353,304.621"/>
						<path fill="#83171D" d="M122.708,304.739l-4.501-1.658c0.119,0,0.119,0,0.237,0.119l4.501,1.658
							C122.826,304.739,122.708,304.739,122.708,304.739"/>
					</g>
				</g>
			</g>
			<g enable-background="new    ">
				<g>
					<defs>
						<path id="SVGID_25_" d="M118.444,316.702l-4.501-1.658c-1.066-0.474-1.895-1.776-1.776-3.79c0-3.198,1.895-6.633,4.146-7.817
							l4.501,1.658c-2.25,1.185-4.146,4.619-4.146,7.817C116.549,314.925,117.26,316.228,118.444,316.702z"/>
					</defs>
					<clipPath id="SVGID_26_">
						<use xlink:href="#SVGID_25_"  overflow="visible"/>
					</clipPath>
					<g clip-path="url(#SVGID_26_)" enable-background="new    ">
						<path fill="#6E1318" d="M118.444,316.702l-4.501-1.658c-1.066-0.355-1.776-1.658-1.776-3.553l4.501,1.658
							C116.667,315.043,117.378,316.347,118.444,316.702"/>
						<path fill="#721419" d="M116.667,313.148l-4.501-1.658c0-0.119,0-0.237,0-0.237c0-0.119,0-0.237,0-0.474l4.501,1.658
							c0,0.118,0,0.237,0,0.474C116.667,312.912,116.667,313.03,116.667,313.148"/>
						<path fill="#76151A" d="M116.667,312.438l-4.501-1.658c0-0.237,0-0.355,0-0.592l4.501,1.658
							C116.667,312.083,116.667,312.201,116.667,312.438"/>
						<path fill="#7A151B" d="M116.667,311.846l-4.501-1.658c0-0.119,0-0.355,0.118-0.474l4.501,1.658
							C116.786,311.49,116.667,311.609,116.667,311.846"/>
						<path fill="#7F161C" d="M116.786,311.253l-4.501-1.658c0-0.119,0.119-0.355,0.119-0.474l4.501,1.659
							C116.786,311.017,116.786,311.135,116.786,311.253"/>
						<path fill="#83171D" d="M116.904,310.78l-4.501-1.659c0-0.118,0.119-0.355,0.119-0.474l4.5,1.658
							C116.904,310.542,116.904,310.661,116.904,310.78"/>
						<path fill="#87181E" d="M117.022,310.306l-4.5-1.658c0-0.118,0.118-0.355,0.118-0.474l4.501,1.658
							C117.141,310.069,117.022,310.188,117.022,310.306"/>
						<path fill="#8B181F" d="M117.141,309.832l-4.501-1.658c0-0.119,0.119-0.355,0.119-0.474l4.501,1.658
							C117.26,309.595,117.141,309.713,117.141,309.832"/>
						<path fill="#8F1920" d="M117.26,309.358l-4.501-1.658c0.118-0.119,0.118-0.355,0.237-0.474l4.501,1.658
							C117.497,309.121,117.378,309.24,117.26,309.358"/>
						<path fill="#941A21" d="M117.497,308.884l-4.501-1.658c0.118-0.118,0.118-0.355,0.237-0.474l4.501,1.658
							C117.615,308.529,117.615,308.766,117.497,308.884"/>
						<path fill="#981B22" d="M117.733,308.411l-4.501-1.658c0.119-0.237,0.237-0.355,0.237-0.592l4.501,1.658
							C117.97,308.055,117.852,308.174,117.733,308.411"/>
						<path fill="#9C1B23" d="M118.089,307.818l-4.62-1.658c0.119-0.237,0.237-0.474,0.474-0.71l4.501,1.658
							C118.326,307.463,118.207,307.582,118.089,307.818"/>
						<path fill="#A01C24" d="M118.444,307.226l-4.501-1.658c0.592-0.829,1.303-1.54,2.014-2.013l4.501,1.658
							C119.747,305.687,119.036,306.397,118.444,307.226"/>
						<path fill="#9C1B23" d="M120.458,305.213l-4.501-1.658c0.119,0,0.119-0.119,0.237-0.119l4.501,1.658
							C120.694,305.094,120.576,305.094,120.458,305.213"/>
					</g>
				</g>
			</g>
			<g>
				<path fill="#AB1E26" d="M120.813,305.094c2.25-1.185,4.027,0.474,4.027,3.553c0,3.198-1.895,6.633-4.146,7.817
					s-4.027-0.474-4.027-3.553C116.667,309.713,118.562,306.16,120.813,305.094z"/>
			</g>
		</g>
	</g>
	<g>
		<g enable-background="new    ">
			<g enable-background="new    ">
				<g>
					<defs>
						<path id="SVGID_27_" d="M132.065,296.448l4.501,1.658c-0.592-0.237-1.421-0.118-2.132,0.237l-4.501-1.658
							C130.644,296.33,131.473,296.211,132.065,296.448z"/>
					</defs>
					<clipPath id="SVGID_28_">
						<use xlink:href="#SVGID_27_"  overflow="visible"/>
					</clipPath>
					<g clip-path="url(#SVGID_28_)" enable-background="new    ">
						<path fill="#9C1B23" d="M134.434,298.343l-4.501-1.658c0.118,0,0.237-0.118,0.237-0.118l4.501,1.658
							C134.552,298.343,134.552,298.343,134.434,298.343"/>
						<path fill="#981B22" d="M134.671,298.225l-4.501-1.658c0.119,0,0.237-0.119,0.355-0.119l4.501,1.658
							C134.908,298.225,134.789,298.225,134.671,298.225"/>
						<path fill="#941A21" d="M135.145,298.106l-4.501-1.658c0.119,0,0.237,0,0.355-0.118l4.501,1.658
							C135.381,298.106,135.263,298.106,135.145,298.106"/>
						<path fill="#8F1920" d="M135.5,298.106l-4.501-1.658c0.119,0,0.237,0,0.355,0l4.501,1.658
							C135.618,297.988,135.5,297.988,135.5,298.106"/>
						<path fill="#8B181F" d="M135.737,297.988l-4.501-1.658c0.119,0,0.237,0,0.237,0l4.501,1.658
							C135.974,297.988,135.855,297.988,135.737,297.988"/>
						<path fill="#87181E" d="M136.092,297.988l-4.501-1.658c0.118,0,0.237,0,0.237,0l4.501,1.658
							C136.21,298.106,136.092,297.988,136.092,297.988"/>
						<path fill="#83171D" d="M136.329,298.106l-4.501-1.658c0.119,0,0.119,0,0.237,0.119l4.501,1.658
							C136.447,298.106,136.447,298.106,136.329,298.106"/>
					</g>
				</g>
			</g>
			<g enable-background="new    ">
				<g>
					<defs>
						<path id="SVGID_29_" d="M132.065,310.069l-4.501-1.658c-1.066-0.474-1.895-1.777-1.776-3.79c0-3.198,1.895-6.633,4.146-7.817
							l4.501,1.658c-2.25,1.185-4.146,4.619-4.146,7.817C130.289,308.292,130.999,309.595,132.065,310.069z"/>
					</defs>
					<clipPath id="SVGID_30_">
						<use xlink:href="#SVGID_29_"  overflow="visible"/>
					</clipPath>
					<g clip-path="url(#SVGID_30_)" enable-background="new    ">
						<path fill="#6E1318" d="M132.065,310.069l-4.501-1.658c-1.066-0.355-1.776-1.658-1.776-3.553l4.501,1.658
							C130.289,308.411,130.999,309.595,132.065,310.069"/>
						<path fill="#721419" d="M130.289,306.516l-4.501-1.658c0-0.119,0-0.237,0-0.237c0-0.119,0-0.237,0-0.474l4.501,1.658
							c0,0.119,0,0.237,0,0.474C130.289,306.279,130.289,306.397,130.289,306.516"/>
						<path fill="#76151A" d="M130.289,305.805l-4.501-1.658c0-0.237,0-0.355,0-0.592l4.501,1.658
							C130.289,305.331,130.289,305.568,130.289,305.805"/>
						<path fill="#7A151B" d="M130.407,305.213l-4.501-1.658c0-0.119,0-0.355,0.119-0.474l4.501,1.658
							C130.407,304.857,130.407,304.976,130.407,305.213"/>
						<path fill="#7F161C" d="M130.407,304.621l-4.501-1.658c0-0.119,0.119-0.355,0.119-0.474l4.501,1.658
							C130.525,304.384,130.407,304.502,130.407,304.621"/>
						<path fill="#83171D" d="M130.525,304.146l-4.501-1.658c0-0.118,0.118-0.355,0.118-0.474l4.501,1.658
							C130.644,303.91,130.525,304.028,130.525,304.146"/>
						<path fill="#87181E" d="M130.644,303.673l-4.501-1.658c0-0.118,0.119-0.355,0.119-0.474l4.501,1.658
							C130.762,303.436,130.762,303.555,130.644,303.673"/>
						<path fill="#8B181F" d="M130.762,303.199l-4.501-1.658c0-0.119,0.119-0.355,0.119-0.474l4.5,1.658
							C130.88,302.962,130.88,303.081,130.762,303.199"/>
						<path fill="#8F1920" d="M130.999,302.726l-4.501-1.658c0.119-0.119,0.119-0.355,0.237-0.474l4.501,1.658
							C131.118,302.488,130.999,302.607,130.999,302.726"/>
						<path fill="#941A21" d="M131.118,302.251l-4.501-1.658c0.118-0.118,0.118-0.355,0.237-0.474l4.501,1.658
							C131.354,301.896,131.236,302.133,131.118,302.251"/>
						<path fill="#981B22" d="M131.354,301.778l-4.501-1.658c0.118-0.237,0.237-0.355,0.237-0.592l4.501,1.658
							C131.591,301.422,131.473,301.541,131.354,301.778"/>
						<path fill="#9C1B23" d="M131.709,301.186l-4.5-1.658c0.118-0.237,0.237-0.474,0.474-0.71l4.501,1.658
							C131.947,300.83,131.828,300.949,131.709,301.186"/>
						<path fill="#A01C24" d="M132.065,300.593l-4.501-1.658c0.592-0.829,1.303-1.54,2.014-2.013l4.501,1.658
							C133.368,299.054,132.657,299.764,132.065,300.593"/>
						<path fill="#9C1B23" d="M134.197,298.58l-4.501-1.658c0.118,0,0.118-0.119,0.237-0.119l4.501,1.658
							C134.315,298.461,134.197,298.461,134.197,298.58"/>
					</g>
				</g>
			</g>
			<g>
				<path fill="#AB1E26" d="M134.434,298.343c2.25-1.184,4.027,0.474,4.027,3.554c0,3.079-1.895,6.633-4.146,7.817
					c-2.25,1.185-4.027-0.474-4.027-3.553S132.184,299.527,134.434,298.343z"/>
			</g>
		</g>
	</g>
	<g>
		<g enable-background="new    ">
			<g enable-background="new    ">
				<g>
					<defs>
						<path id="SVGID_31_" d="M146.515,290.052l4.501,1.658c-0.592-0.237-1.421-0.118-2.132,0.237l-4.501-1.658
							C145.212,289.934,145.923,289.815,146.515,290.052z"/>
					</defs>
					<clipPath id="SVGID_32_">
						<use xlink:href="#SVGID_31_"  overflow="visible"/>
					</clipPath>
					<g clip-path="url(#SVGID_32_)" enable-background="new    ">
						<path fill="#9C1B23" d="M148.884,292.065l-4.501-1.658c0.118,0,0.237-0.119,0.237-0.119l4.619,1.658
							C149.121,291.947,149.002,291.947,148.884,292.065"/>
						<path fill="#981B22" d="M149.239,291.947l-4.501-1.658c0.119,0,0.237-0.118,0.355-0.118l4.501,1.658
							C149.476,291.829,149.358,291.829,149.239,291.947"/>
						<path fill="#941A21" d="M149.595,291.71l-4.501-1.658c0.119,0,0.237,0,0.355-0.118l4.501,1.658
							C149.832,291.71,149.713,291.71,149.595,291.71"/>
						<path fill="#8F1920" d="M149.95,291.71l-4.501-1.658c0.118,0,0.237,0,0.355,0l4.5,1.658
							C150.187,291.71,150.068,291.71,149.95,291.71"/>
						<path fill="#8B181F" d="M150.305,291.71l-4.5-1.658c0.118,0,0.237,0,0.237,0l4.501,1.658
							C150.424,291.71,150.305,291.71,150.305,291.71"/>
						<path fill="#87181E" d="M150.542,291.71l-4.501-1.658c0.118,0,0.237,0,0.237,0l4.501,1.658
							C150.779,291.71,150.661,291.71,150.542,291.71"/>
						<path fill="#83171D" d="M150.779,291.71l-4.501-1.658c0.119,0,0.119,0,0.237,0.119l4.501,1.658
							C151.016,291.71,150.897,291.71,150.779,291.71"/>
					</g>
				</g>
			</g>
			<g enable-background="new    ">
				<g>
					<defs>
						<path id="SVGID_33_" d="M146.634,303.673l-4.501-1.658c-1.066-0.474-1.895-1.776-1.777-3.79c0-3.198,1.895-6.633,4.146-7.817
							l4.501,1.658c-2.25,1.185-4.146,4.619-4.146,7.817C144.738,301.896,145.449,303.317,146.634,303.673z"/>
					</defs>
					<clipPath id="SVGID_34_">
						<use xlink:href="#SVGID_33_"  overflow="visible"/>
					</clipPath>
					<g clip-path="url(#SVGID_34_)" enable-background="new    ">
						<path fill="#6E1318" d="M146.634,303.673l-4.501-1.658c-1.066-0.355-1.777-1.658-1.777-3.553l4.501,1.658
							C144.857,302.015,145.568,303.317,146.634,303.673"/>
						<path fill="#721419" d="M144.738,300.12l-4.5-1.658c0-0.119,0-0.237,0-0.237c0-0.119,0-0.237,0-0.474l4.5,1.658
							c0,0.118,0,0.237,0,0.474C144.738,299.883,144.738,300.001,144.738,300.12"/>
						<path fill="#76151A" d="M144.738,299.409l-4.5-1.658c0-0.237,0-0.355,0-0.592l4.5,1.658
							C144.857,299.054,144.857,299.172,144.738,299.409"/>
						<path fill="#7A151B" d="M144.857,298.817l-4.501-1.658c0-0.119,0-0.355,0.119-0.474l4.501,1.658
							C144.857,298.461,144.857,298.698,144.857,298.817"/>
						<path fill="#7F161C" d="M144.976,298.343l-4.501-1.658c0-0.118,0.118-0.355,0.118-0.474l4.501,1.658
							C144.976,297.988,144.976,298.106,144.976,298.343"/>
						<path fill="#83171D" d="M145.094,297.869l-4.501-1.658c0-0.118,0.119-0.355,0.119-0.474l4.501,1.658
							C145.094,297.514,145.094,297.632,145.094,297.869"/>
						<path fill="#87181E" d="M145.212,297.396l-4.501-1.658c0-0.119,0.119-0.355,0.119-0.474l4.5,1.658
							C145.212,297.04,145.212,297.159,145.212,297.396"/>
						<path fill="#8B181F" d="M145.331,296.922l-4.5-1.658c0-0.119,0.118-0.355,0.118-0.474l4.501,1.658
							C145.449,296.566,145.331,296.685,145.331,296.922"/>
						<path fill="#8F1920" d="M145.449,296.448l-4.501-1.658c0.119-0.118,0.119-0.355,0.237-0.474l4.501,1.658
							C145.568,296.093,145.568,296.211,145.449,296.448"/>
						<path fill="#941A21" d="M145.686,295.974l-4.501-1.658c0.119-0.119,0.119-0.355,0.237-0.474l4.501,1.658
							C145.805,295.619,145.805,295.737,145.686,295.974"/>
						<path fill="#981B22" d="M145.923,295.382l-4.501-1.658c0.119-0.237,0.237-0.355,0.237-0.592l4.5,1.658
							C146.16,295.026,146.042,295.264,145.923,295.382"/>
						<path fill="#9C1B23" d="M146.16,294.908l-4.5-1.658c0.118-0.237,0.237-0.474,0.474-0.711l4.501,1.658
							C146.515,294.435,146.278,294.671,146.16,294.908"/>
						<path fill="#A01C24" d="M146.634,294.197l-4.501-1.658c0.592-0.829,1.303-1.54,2.014-2.014l4.5,1.659
							C147.937,292.658,147.226,293.368,146.634,294.197"/>
						<path fill="#9C1B23" d="M148.647,292.184l-4.5-1.658c0.118,0,0.118-0.118,0.237-0.118l4.501,1.658
							C148.884,292.065,148.766,292.184,148.647,292.184"/>
					</g>
				</g>
			</g>
			<g>
				<path fill="#AB1E26" d="M148.884,292.065c2.25-1.185,4.027,0.474,4.027,3.553s-1.895,6.633-4.146,7.817
					s-4.027-0.474-4.027-3.553C144.857,296.685,146.634,293.25,148.884,292.065z"/>
			</g>
		</g>
	</g>
</g>
<g>
	<g>
		<g enable-background="new    ">
			<g>
				<polygon fill="#007F00" points="476.855,426.499 468.327,422.709 478.632,399.85 487.16,403.521 				"/>
			</g>
			<g enable-background="new    ">
				<g>
					<defs>
						<path id="SVGID_35_" d="M539.631,309.713l8.527,3.672c-8.172-3.553-19.188-2.961-31.387,2.487l-8.528-3.672
							C520.562,306.752,531.576,306.279,539.631,309.713z"/>
					</defs>
					<clipPath id="SVGID_36_">
						<use xlink:href="#SVGID_35_"  overflow="visible"/>
					</clipPath>
					<g clip-path="url(#SVGID_36_)" enable-background="new    ">
						<path fill="#008300" d="M516.771,315.873l-8.528-3.672c1.776-0.829,3.435-1.421,5.211-2.013l8.528,3.672
							C520.324,314.451,518.548,315.162,516.771,315.873"/>
						<path fill="#007F00" d="M521.982,313.859l-8.527-3.672c2.368-0.829,4.737-1.421,6.987-1.896l8.528,3.672
							C526.721,312.438,524.352,313.03,521.982,313.859"/>
						<path fill="#007C00" d="M528.971,311.964l-8.528-3.672c1.896-0.355,3.672-0.592,5.449-0.71l8.527,3.672
							C532.643,311.372,530.866,311.609,528.971,311.964"/>
						<path fill="#007800" d="M534.419,311.253l-8.527-3.672c1.539-0.119,3.079-0.119,4.501,0l8.527,3.672
							C537.499,311.253,535.959,311.253,534.419,311.253"/>
						<path fill="#007500" d="M538.92,311.253l-8.527-3.672c1.303,0.119,2.605,0.237,3.908,0.474l8.528,3.672
							C541.525,311.609,540.342,311.372,538.92,311.253"/>
						<path fill="#007100" d="M542.829,311.846l-8.528-3.672c1.185,0.237,2.25,0.474,3.316,0.829l8.528,3.672
							C545.079,312.319,544.013,312.083,542.829,311.846"/>
						<path fill="#006E00" d="M546.146,312.675l-8.528-3.672c0.711,0.237,1.421,0.474,2.014,0.829l8.527,3.672
							C547.566,313.148,546.855,312.912,546.146,312.675"/>
					</g>
				</g>
			</g>
			<g enable-background="new    ">
				<g>
					<defs>
						<path id="SVGID_37_" d="M484.317,402.455l-8.528-3.672c-8.646-3.79-13.976-12.081-13.857-24.162
							c0.355-23.215,21.083-51.168,46.312-62.42l8.528,3.672c-25.348,11.252-46.075,39.205-46.312,62.42
							C470.341,390.374,475.553,398.665,484.317,402.455z"/>
					</defs>
					<clipPath id="SVGID_38_">
						<use xlink:href="#SVGID_37_"  overflow="visible"/>
					</clipPath>
					<g clip-path="url(#SVGID_38_)" enable-background="new    ">
						<path fill="#005C00" d="M484.317,402.455l-8.528-3.672c-8.646-3.79-13.976-12.081-13.857-24.162c0-0.237,0-0.474,0-0.711
							l8.527,3.672c0,0.237,0,0.474,0,0.71C470.341,390.374,475.553,398.665,484.317,402.455"/>
						<path fill="#006000" d="M470.459,377.7l-8.527-3.671c0-1.303,0.118-2.606,0.355-3.909l8.527,3.672
							C470.578,375.095,470.459,376.397,470.459,377.7"/>
						<path fill="#006300" d="M470.814,373.792l-8.527-3.672c0.118-1.066,0.355-2.132,0.474-3.316l8.527,3.672
							C471.052,371.542,470.934,372.607,470.814,373.792"/>
						<path fill="#006700" d="M471.288,370.476l-8.527-3.672c0.236-0.948,0.474-2.014,0.711-3.08l8.527,3.672
							C471.763,368.462,471.525,369.409,471.288,370.476"/>
						<path fill="#006A00" d="M471.999,367.396l-8.527-3.672c0.236-0.948,0.474-1.895,0.829-2.961l8.527,3.672
							C472.473,365.5,472.236,366.448,471.999,367.396"/>
						<path fill="#006E00" d="M472.828,364.553l-8.527-3.672c0.354-0.948,0.71-2.014,1.065-2.961l8.528,3.671
							C473.421,362.54,473.184,363.487,472.828,364.553"/>
						<path fill="#007100" d="M473.775,361.592l-8.527-3.671c0.355-1.066,0.829-2.014,1.185-3.08l8.527,3.672
							C474.605,359.46,474.25,360.526,473.775,361.592"/>
						<path fill="#007500" d="M475.079,358.394l-8.528-3.672c0.474-1.066,0.947-2.25,1.54-3.316l8.527,3.672
							C476.026,356.262,475.553,357.328,475.079,358.394"/>
						<path fill="#007800" d="M476.618,355.078l-8.527-3.672c0.592-1.184,1.303-2.487,1.895-3.672l8.528,3.672
							C477.803,352.709,477.211,353.893,476.618,355.078"/>
						<path fill="#007C00" d="M478.514,351.524l-8.528-3.672c0.829-1.421,1.658-2.843,2.606-4.264l8.527,3.672
							C480.172,348.682,479.343,350.103,478.514,351.524"/>
						<path fill="#007F00" d="M481.119,347.26l-8.527-3.672c1.184-1.776,2.368-3.553,3.672-5.211l8.527,3.672
							C483.488,343.707,482.186,345.483,481.119,347.26"/>
						<path fill="#008300" d="M484.673,342.049l-8.528-3.672c2.014-2.724,4.265-5.33,6.752-7.936l8.527,3.672
							C489.055,336.719,486.805,339.325,484.673,342.049"/>
						<path fill="#008700" d="M491.424,334.113l-8.527-3.672c5.804-6.159,12.673-11.489,19.898-15.516l8.527,3.671
							C504.098,322.624,497.346,328.072,491.424,334.113"/>
						<path fill="#008300" d="M511.322,318.597l-8.527-3.671c1.776-0.948,3.553-1.896,5.448-2.725l8.528,3.672
							C514.994,316.702,513.1,317.649,511.322,318.597"/>
					</g>
				</g>
			</g>
			<g>
				<path fill="#009100" d="M516.771,315.873c25.347-11.252,45.482-1.54,45.245,21.675c-0.355,23.215-21.083,51.168-46.312,62.42
					c-6.159,2.724-11.963,4.265-17.293,4.619l-21.438,21.794l10.305-22.859c-10.423-3.08-16.938-11.845-16.7-25.11
					C470.814,355.196,491.542,327.243,516.771,315.873z"/>
			</g>
		</g>
	</g>
	<g>
		<g enable-background="new    ">
			<g enable-background="new    ">
				<g>
					<defs>
						<path id="SVGID_39_" d="M502.321,358.631l4.5,1.658c-0.592-0.237-1.303-0.118-2.132,0.237l-4.501-1.658
							C501.018,358.394,501.729,358.394,502.321,358.631z"/>
					</defs>
					<clipPath id="SVGID_40_">
						<use xlink:href="#SVGID_39_"  overflow="visible"/>
					</clipPath>
					<g clip-path="url(#SVGID_40_)" enable-background="new    ">
						<path fill="#BDBDBD" d="M504.809,360.526l-4.501-1.658c0.118,0,0.118-0.118,0.236-0.118l4.501,1.658
							C505.045,360.408,504.927,360.526,504.809,360.526"/>
						<path fill="#B8B8B8" d="M505.045,360.408l-4.501-1.658c0.119,0,0.237-0.119,0.355-0.119l4.501,1.658
							C505.4,360.289,505.282,360.408,505.045,360.408"/>
						<path fill="#B3B3B3" d="M505.519,360.289l-4.501-1.658c0.119,0,0.237,0,0.355-0.118l4.501,1.658
							C505.756,360.289,505.638,360.289,505.519,360.289"/>
						<path fill="#ADADAD" d="M505.874,360.171l-4.501-1.658c0.119,0,0.237,0,0.355,0l4.501,1.658
							C505.992,360.171,505.874,360.171,505.874,360.171"/>
						<path fill="#A8A8A8" d="M506.111,360.171l-4.501-1.658c0.118,0,0.236,0,0.236,0l4.501,1.658
							C506.348,360.171,506.229,360.171,506.111,360.171"/>
						<path fill="#A3A3A3" d="M506.467,360.171l-4.501-1.658c0.118,0,0.236,0,0.236,0l4.501,1.658
							C506.585,360.171,506.467,360.171,506.467,360.171"/>
						<path fill="#9E9E9E" d="M506.703,360.289l-4.501-1.658c0.119,0,0.119,0,0.237,0.119l4.501,1.658
							C506.821,360.289,506.821,360.289,506.703,360.289"/>
					</g>
				</g>
			</g>
			<g enable-background="new    ">
				<g>
					<defs>
						<path id="SVGID_41_" d="M502.676,371.778l-4.5-1.658c-1.066-0.355-1.777-1.777-1.777-3.672c0-3.08,1.777-6.396,4.027-7.462
							l4.501,1.658c-2.132,1.066-3.909,4.501-4.027,7.462C500.781,370.001,501.492,371.305,502.676,371.778z"/>
					</defs>
					<clipPath id="SVGID_42_">
						<use xlink:href="#SVGID_41_"  overflow="visible"/>
					</clipPath>
					<g clip-path="url(#SVGID_42_)" enable-background="new    ">
						<path fill="#858585" d="M502.676,371.778l-4.5-1.658c-1.066-0.355-1.658-1.658-1.777-3.435l4.501,1.658
							C500.899,370.12,501.61,371.423,502.676,371.778"/>
						<path fill="#8A8A8A" d="M500.899,368.343l-4.619-1.776c0-0.119,0-0.237,0-0.237c0-0.118,0-0.237,0-0.474l4.501,1.658
							c0,0.119,0,0.237,0,0.474C500.899,368.106,500.899,368.225,500.899,368.343"/>
						<path fill="#8F8F8F" d="M500.899,367.633l-4.501-1.658c0-0.237,0-0.355,0-0.592l4.501,1.658
							C500.899,367.277,500.899,367.396,500.899,367.633"/>
						<path fill="#949494" d="M500.899,367.041l-4.501-1.658c0-0.119,0-0.355,0.119-0.474l4.5,1.659
							C501.018,366.685,500.899,366.922,500.899,367.041"/>
						<path fill="#999999" d="M501.018,366.567l-4.5-1.659c0-0.118,0.118-0.355,0.118-0.474l4.501,1.658
							C501.018,366.211,501.018,366.448,501.018,366.567"/>
						<path fill="#9E9E9E" d="M501.137,366.093l-4.501-1.658c0-0.118,0.118-0.355,0.118-0.474l4.501,1.658
							C501.137,365.738,501.137,365.975,501.137,366.093"/>
						<path fill="#A3A3A3" d="M501.255,365.619l-4.501-1.658c0-0.119,0.118-0.355,0.118-0.474l4.501,1.658
							C501.373,365.382,501.255,365.5,501.255,365.619"/>
						<path fill="#A8A8A8" d="M501.373,365.146l-4.501-1.658c0-0.119,0.119-0.355,0.119-0.474l4.501,1.658
							C501.492,364.908,501.373,365.027,501.373,365.146"/>
						<path fill="#ADADAD" d="M501.492,364.79l-4.501-1.658c0.118-0.119,0.118-0.355,0.236-0.474l4.501,1.658
							C501.61,364.435,501.61,364.553,501.492,364.79"/>
						<path fill="#B3B3B3" d="M501.729,364.316l-4.501-1.658c0.119-0.119,0.119-0.355,0.237-0.474l4.501,1.658
							C501.847,363.961,501.847,364.079,501.729,364.316"/>
						<path fill="#B8B8B8" d="M501.966,363.842l-4.501-1.658c0.118-0.237,0.236-0.355,0.236-0.474l4.501,1.658
							C502.084,363.487,502.084,363.605,501.966,363.842"/>
						<path fill="#BDBDBD" d="M502.202,363.25l-4.501-1.658c0.119-0.237,0.237-0.474,0.355-0.592l4.501,1.658
							C502.439,362.776,502.321,363.013,502.202,363.25"/>
						<path fill="#C2C2C2" d="M502.676,362.658l-4.5-1.658c0.592-0.829,1.184-1.54,2.013-1.896l4.501,1.658
							C503.86,361.118,503.15,361.829,502.676,362.658"/>
						<path fill="#BDBDBD" d="M504.571,360.645l-4.501-1.658c0.118,0,0.118-0.119,0.237-0.119l4.501,1.658
							C504.809,360.645,504.689,360.645,504.571,360.645"/>
					</g>
				</g>
			</g>
			<g>
				<path fill="#CFCFCF" d="M504.809,360.526c2.132-1.066,3.908,0.474,3.79,3.435s-1.776,6.396-4.027,7.462
					c-2.132,1.066-3.908-0.474-3.79-3.435C500.899,365.027,502.676,361.71,504.809,360.526z"/>
			</g>
		</g>
	</g>
	<g>
		<g enable-background="new    ">
			<g enable-background="new    ">
				<g>
					<defs>
						<path id="SVGID_43_" d="M515.468,352.235l4.501,1.658c-0.592-0.237-1.303-0.118-2.132,0.237l-4.501-1.658
							C514.165,351.998,514.876,351.998,515.468,352.235z"/>
					</defs>
					<clipPath id="SVGID_44_">
						<use xlink:href="#SVGID_43_"  overflow="visible"/>
					</clipPath>
					<g clip-path="url(#SVGID_44_)" enable-background="new    ">
						<path fill="#BDBDBD" d="M517.955,354.13l-4.5-1.658c0.118,0,0.118-0.118,0.236-0.118l4.501,1.658
							C518.192,354.13,518.074,354.13,517.955,354.13"/>
						<path fill="#B8B8B8" d="M518.311,354.012l-4.501-1.658c0.119,0,0.237-0.119,0.355-0.119l4.501,1.658
							C518.548,353.893,518.43,354.012,518.311,354.012"/>
						<path fill="#B3B3B3" d="M518.666,353.893l-4.501-1.658c0.118,0,0.237,0,0.355-0.118l4.501,1.658
							C518.903,353.893,518.784,353.893,518.666,353.893"/>
						<path fill="#ADADAD" d="M519.021,353.775l-4.501-1.658c0.118,0,0.237,0,0.355,0l4.501,1.658
							C519.14,353.775,519.021,353.775,519.021,353.775"/>
						<path fill="#A8A8A8" d="M519.259,353.775l-4.501-1.658c0.118,0,0.236,0,0.236,0l4.501,1.658
							C519.495,353.775,519.377,353.775,519.259,353.775"/>
						<path fill="#A3A3A3" d="M519.613,353.775l-4.5-1.658c0.118,0,0.236,0,0.236,0l4.501,1.658
							C519.732,353.775,519.613,353.775,519.613,353.775"/>
						<path fill="#9E9E9E" d="M519.851,353.893l-4.501-1.658c0.118,0,0.118,0,0.237,0.119l4.501,1.658
							C519.969,353.893,519.969,353.893,519.851,353.893"/>
					</g>
				</g>
			</g>
			<g enable-background="new    ">
				<g>
					<defs>
						<path id="SVGID_45_" d="M515.705,365.382l-4.501-1.658c-1.065-0.355-1.776-1.777-1.776-3.672c0-3.08,1.776-6.396,4.027-7.462
							l4.5,1.658c-2.132,1.066-3.908,4.501-4.026,7.462C513.929,363.605,514.639,364.908,515.705,365.382z"/>
					</defs>
					<clipPath id="SVGID_46_">
						<use xlink:href="#SVGID_45_"  overflow="visible"/>
					</clipPath>
					<g clip-path="url(#SVGID_46_)" enable-background="new    ">
						<path fill="#858585" d="M515.705,365.382l-4.501-1.658c-1.065-0.355-1.776-1.658-1.776-3.435l4.501,1.658
							C514.047,363.724,514.758,365.027,515.705,365.382"/>
						<path fill="#8A8A8A" d="M514.047,361.947l-4.501-1.658c0-0.118,0-0.237,0-0.237c0-0.119,0-0.237,0-0.474l4.501,1.658
							c0,0.118,0,0.237,0,0.474C514.047,361.71,514.047,361.829,514.047,361.947"/>
						<path fill="#8F8F8F" d="M514.047,361.237l-4.501-1.658c0-0.237,0-0.355,0-0.592l4.501,1.658
							C514.047,360.881,514.047,361.118,514.047,361.237"/>
						<path fill="#949494" d="M514.047,360.645l-4.501-1.658c0-0.119,0-0.355,0.118-0.474l4.501,1.658
							C514.165,360.408,514.047,360.526,514.047,360.645"/>
						<path fill="#999999" d="M514.165,360.171l-4.501-1.658c0-0.119,0.119-0.355,0.119-0.474l4.5,1.658
							C514.165,359.815,514.165,360.052,514.165,360.171"/>
						<path fill="#9E9E9E" d="M514.283,359.697l-4.5-1.658c0-0.118,0.118-0.355,0.118-0.474l4.501,1.658
							C514.283,359.46,514.283,359.579,514.283,359.697"/>
						<path fill="#A3A3A3" d="M514.402,359.223l-4.501-1.658c0-0.119,0.118-0.355,0.118-0.474l4.501,1.658
							C514.402,358.986,514.402,359.104,514.402,359.223"/>
						<path fill="#A8A8A8" d="M514.521,358.868l-4.501-1.658c0-0.118,0.119-0.355,0.119-0.474l4.5,1.658
							C514.639,358.513,514.521,358.631,514.521,358.868"/>
						<path fill="#ADADAD" d="M514.639,358.394l-4.5-1.658c0.118-0.119,0.118-0.355,0.236-0.474l4.501,1.658
							C514.758,358.039,514.758,358.157,514.639,358.394"/>
						<path fill="#B3B3B3" d="M514.876,357.92l-4.501-1.658c0.118-0.119,0.118-0.355,0.237-0.474l4.501,1.658
							C514.994,357.565,514.994,357.684,514.876,357.92"/>
						<path fill="#B8B8B8" d="M515.113,357.446l-4.501-1.658c0.118-0.237,0.236-0.355,0.236-0.474l4.501,1.658
							C515.231,357.091,515.231,357.209,515.113,357.446"/>
						<path fill="#BDBDBD" d="M515.35,356.854l-4.501-1.658c0.118-0.237,0.237-0.474,0.355-0.592l4.501,1.658
							C515.587,356.499,515.468,356.617,515.35,356.854"/>
						<path fill="#C2C2C2" d="M515.823,356.262l-4.501-1.658c0.593-0.829,1.303-1.54,2.014-1.895l4.501,1.658
							C517.008,354.722,516.297,355.433,515.823,356.262"/>
						<path fill="#BDBDBD" d="M517.719,354.249l-4.501-1.658c0.118,0,0.118-0.119,0.237-0.119l4.5,1.658
							C517.955,354.249,517.837,354.249,517.719,354.249"/>
					</g>
				</g>
			</g>
			<g>
				<path fill="#CFCFCF" d="M517.955,354.13c2.133-1.066,3.909,0.474,3.791,3.435c0,3.08-1.777,6.396-4.027,7.462
					c-2.132,1.066-3.909-0.474-3.79-3.435C514.047,358.631,515.823,355.314,517.955,354.13z"/>
			</g>
		</g>
	</g>
	<g>
		<g enable-background="new    ">
			<g enable-background="new    ">
				<g>
					<defs>
						<path id="SVGID_47_" d="M529.444,346.076l4.501,1.658c-0.592-0.237-1.303-0.118-2.132,0.237l-4.501-1.658
							C528.142,345.958,528.853,345.839,529.444,346.076z"/>
					</defs>
					<clipPath id="SVGID_48_">
						<use xlink:href="#SVGID_47_"  overflow="visible"/>
					</clipPath>
					<g clip-path="url(#SVGID_48_)" enable-background="new    ">
						<path fill="#BDBDBD" d="M531.932,348.089l-4.501-1.658c0.119,0,0.119-0.119,0.237-0.119l4.501,1.659
							C532.169,347.971,532.051,347.971,531.932,348.089"/>
						<path fill="#B8B8B8" d="M532.169,347.971l-4.501-1.659c0.118,0,0.236-0.118,0.355-0.118l4.501,1.658
							C532.524,347.853,532.287,347.853,532.169,347.971"/>
						<path fill="#B3B3B3" d="M532.643,347.734l-4.501-1.658c0.118,0,0.237,0,0.355-0.118l4.501,1.658
							C532.761,347.734,532.761,347.734,532.643,347.734"/>
						<path fill="#ADADAD" d="M532.879,347.734l-4.5-1.658c0.118,0,0.236,0,0.355,0l4.5,1.658
							C533.116,347.734,532.998,347.734,532.879,347.734"/>
						<path fill="#A8A8A8" d="M533.234,347.734l-4.5-1.658c0.118,0,0.236,0,0.236,0l4.501,1.658
							C533.472,347.734,533.354,347.734,533.234,347.734"/>
						<path fill="#A3A3A3" d="M533.472,347.734l-4.501-1.658c0.118,0,0.237,0,0.237,0l4.501,1.658
							C533.709,347.734,533.59,347.734,533.472,347.734"/>
						<path fill="#9E9E9E" d="M533.827,347.734l-4.501-1.658c0.118,0,0.118,0,0.236,0.119l4.501,1.658
							C533.945,347.734,533.827,347.734,533.827,347.734"/>
					</g>
				</g>
			</g>
			<g enable-background="new    ">
				<g>
					<defs>
						<path id="SVGID_49_" d="M529.682,359.223l-4.501-1.658c-1.066-0.355-1.776-1.777-1.776-3.672c0-3.08,1.776-6.396,4.026-7.462
							l4.501,1.658c-2.132,1.066-3.908,4.501-4.027,7.462C527.904,357.446,528.615,358.868,529.682,359.223z"/>
					</defs>
					<clipPath id="SVGID_50_">
						<use xlink:href="#SVGID_49_"  overflow="visible"/>
					</clipPath>
					<g clip-path="url(#SVGID_50_)" enable-background="new    ">
						<path fill="#858585" d="M529.682,359.223l-4.501-1.658c-1.066-0.355-1.658-1.658-1.776-3.435l4.5,1.658
							C528.023,357.684,528.734,358.868,529.682,359.223"/>
						<path fill="#8A8A8A" d="M527.904,355.788l-4.5-1.658c0-0.118,0-0.237,0-0.237c0-0.118,0-0.237,0-0.474l4.5,1.658
							c0,0.119,0,0.237,0,0.474C527.904,355.67,527.904,355.788,527.904,355.788"/>
						<path fill="#8F8F8F" d="M528.023,355.078l-4.501-1.658c0-0.237,0-0.355,0-0.592l4.501,1.658
							C528.023,354.722,528.023,354.959,528.023,355.078"/>
						<path fill="#949494" d="M528.023,354.604l-4.501-1.658c0-0.119,0-0.355,0.118-0.474l4.501,1.658
							C528.023,354.249,528.023,354.367,528.023,354.604"/>
						<path fill="#999999" d="M528.142,354.012l-4.619-1.658c0-0.119,0.118-0.355,0.118-0.474l4.501,1.658
							C528.142,353.775,528.142,353.893,528.142,354.012"/>
						<path fill="#9E9E9E" d="M528.26,353.538l-4.501-1.658c0-0.119,0.119-0.355,0.119-0.474l4.501,1.658
							C528.26,353.301,528.26,353.419,528.26,353.538"/>
						<path fill="#A3A3A3" d="M528.379,353.183l-4.501-1.658c0-0.119,0.118-0.355,0.118-0.474l4.501,1.659
							C528.379,352.827,528.379,352.946,528.379,353.183"/>
						<path fill="#A8A8A8" d="M528.497,352.709l-4.501-1.658c0-0.119,0.118-0.355,0.118-0.474l4.501,1.658
							C528.615,352.354,528.497,352.472,528.497,352.709"/>
						<path fill="#ADADAD" d="M528.615,352.235l-4.501-1.658c0.119-0.118,0.119-0.355,0.237-0.474l4.501,1.658
							C528.734,351.88,528.734,352.117,528.615,352.235"/>
						<path fill="#B3B3B3" d="M528.853,351.761l-4.501-1.658c0.118-0.119,0.118-0.355,0.236-0.474l4.501,1.658
							C528.971,351.406,528.853,351.643,528.853,351.761"/>
						<path fill="#B8B8B8" d="M529.089,351.288l-4.501-1.658c0.119-0.237,0.237-0.355,0.237-0.474l4.501,1.658
							C529.208,350.932,529.089,351.051,529.089,351.288"/>
						<path fill="#BDBDBD" d="M529.326,350.813l-4.501-1.658c0.118-0.237,0.237-0.474,0.355-0.592l4.501,1.658
							C529.562,350.34,529.444,350.577,529.326,350.813"/>
						<path fill="#C2C2C2" d="M529.682,350.103l-4.501-1.658c0.592-0.829,1.303-1.54,2.014-1.895l4.501,1.658
							C530.984,348.563,530.273,349.274,529.682,350.103"/>
						<path fill="#BDBDBD" d="M531.695,348.208l-4.501-1.658c0.118,0,0.118-0.119,0.236-0.119l4.501,1.658
							C531.813,348.089,531.813,348.089,531.695,348.208"/>
					</g>
				</g>
			</g>
			<g>
				<path fill="#CFCFCF" d="M531.932,348.089c2.132-1.066,3.909,0.474,3.79,3.435c0,3.08-1.776,6.396-4.026,7.462
					c-2.133,1.066-3.909-0.474-3.791-3.435C528.023,352.472,529.8,349.155,531.932,348.089z"/>
			</g>
		</g>
	</g>
</g>
</svg>
