<?xml version="1.0" encoding="utf-8"?>
<!-- Generator: Adobe Illustrator 16.0.0, SVG Export Plug-In . SVG Version: 6.00 Build 0)  -->
<!DOCTYPE svg PUBLIC "-//W3C//DTD SVG 1.1//EN" "http://www.w3.org/Graphics/SVG/1.1/DTD/svg11.dtd">
<svg version="1.1" id="Camada_1" xmlns="http://www.w3.org/2000/svg" xmlns:xlink="http://www.w3.org/1999/xlink" x="0px" y="0px"
	 width="135px" height="50.25px" viewBox="-84.395 667 135 50.25" enable-background="new -84.395 667 135 50.25"
	 xml:space="preserve">
<g>
	<rect x="-84.5" y="692.125" fill="#f7f7f7" width="800" height="25"/>
	<g>
		<path fill="#A8D9E9" d="M648.827,717c-20.822,0-32.04-6.729-41.053-12.138c-7.608-4.564-13.105-7.862-25.619-7.862
			c-12.513,0-18.01,3.298-25.618,7.862C547.524,710.271,536.308,717,515.486,717s-32.038-6.73-41.051-12.138
			c-7.608-4.564-13.104-7.862-25.617-7.862c-12.511,0-18.007,3.298-25.614,7.862C414.191,710.27,402.976,717,382.154,717
			s-32.038-6.73-41.051-12.138C333.496,700.298,328,697,315.488,697c-12.512,0-18.009,3.298-25.617,7.862
			C280.859,710.27,269.642,717,248.82,717c-20.821,0-32.037-6.73-41.05-12.138c-7.607-4.564-13.104-7.862-25.615-7.862
			c-12.512,0-18.009,3.298-25.616,7.862C147.527,710.27,136.31,717,115.489,717c-20.821,0-32.038-6.73-41.05-12.138
			C66.832,700.298,61.335,697,48.823,697c-12.51,0-18.006,3.298-25.613,7.862C14.198,710.27,2.981,717-17.839,717
			c-20.82,0-32.037-6.73-41.048-12.138C-66.495,700.298-71.99,697-84.5,697v-30c20.82,0,32.036,6.73,41.048,12.138
			C-35.846,683.702-30.35,687-17.839,687c12.511,0,18.007-3.298,25.614-7.862C16.787,673.73,28.003,667,48.823,667
			c20.821,0,32.038,6.73,41.051,12.138c7.607,4.564,13.104,7.862,25.615,7.862c12.512,0,18.009-3.298,25.616-7.862
			C150.118,673.73,161.334,667,182.156,667s32.038,6.73,41.05,12.138c7.607,4.564,13.103,7.862,25.614,7.862
			c12.512,0,18.009-3.298,25.617-7.862C283.45,673.73,294.667,667,315.488,667c20.821,0,32.038,6.73,41.051,12.138
			c7.607,4.564,13.104,7.862,25.615,7.862c12.511,0,18.007-3.298,25.614-7.862c9.013-5.407,20.229-12.138,41.05-12.138
			s32.038,6.73,41.052,12.138c7.607,4.564,13.104,7.862,25.616,7.862c12.512,0,18.009-3.298,25.617-7.862
			C550.116,673.73,561.333,667,582.155,667s32.04,6.729,41.053,12.138c7.608,4.564,13.105,7.862,25.619,7.862
			c12.515,0,18.012-3.298,25.62-7.863C683.46,673.729,694.678,667,715.5,667v30c-12.514,0-18.011,3.298-25.619,7.862
			C680.867,710.271,669.65,717,648.827,717z"/>
	</g>
</g>
</svg>
