<?xml version="1.0" encoding="utf-8"?>
<!-- Generator: Adobe Illustrator 16.0.0, SVG Export Plug-In . SVG Version: 6.00 Build 0)  -->
<!DOCTYPE svg PUBLIC "-//W3C//DTD SVG 1.1//EN" "http://www.w3.org/Graphics/SVG/1.1/DTD/svg11.dtd">
<svg version="1.1" id="Camada_1" xmlns="http://www.w3.org/2000/svg" xmlns:xlink="http://www.w3.org/1999/xlink" x="0px" y="0px"
	 width="135px" height="50.25px" viewBox="0 0 135 50.25" enable-background="new 0 0 135 50.25" xml:space="preserve">
<g>
	<rect x="-0.398" y="25.125" fill="#FFFFFF" width="800" height="25"/>
	<g>
		<path fill="#A8D9E9" d="M732.93,50c-20.822,0-32.041-6.729-41.053-12.138C684.268,33.298,678.771,30,666.258,30
			s-18.012,3.298-25.619,7.862C631.627,43.271,620.41,50,599.588,50s-32.037-6.73-41.051-12.138C550.93,33.298,545.434,30,532.92,30
			c-12.512,0-18.008,3.298-25.613,7.862C498.293,43.27,487.078,50,466.256,50s-32.037-6.73-41.051-12.138
			C417.598,33.298,412.102,30,399.59,30s-18.01,3.298-25.617,7.862C364.961,43.27,353.744,50,332.922,50
			c-20.82,0-32.037-6.73-41.051-12.138C284.266,33.298,278.768,30,266.256,30s-18.008,3.298-25.615,7.862
			C231.629,43.27,220.412,50,199.59,50c-20.82,0-32.037-6.73-41.049-12.138C150.934,33.298,145.438,30,132.926,30
			s-18.008,3.298-25.613,7.862C98.301,43.27,87.082,50,66.263,50c-20.82,0-32.037-6.73-41.048-12.138
			C17.607,33.298,12.112,30-0.398,30V0c20.82,0,32.036,6.73,41.048,12.138C48.256,16.702,53.752,20,66.263,20
			c12.51,0,18.006-3.298,25.614-7.862C100.889,6.73,112.105,0,132.926,0s32.037,6.73,41.051,12.138
			C181.582,16.702,187.08,20,199.59,20c12.514,0,18.01-3.298,25.617-7.862C234.221,6.73,245.436,0,266.258,0
			s32.037,6.73,41.051,12.138C314.914,16.702,320.41,20,332.922,20s18.01-3.298,25.617-7.862C367.553,6.73,378.77,0,399.59,0
			s32.039,6.73,41.051,12.138C448.248,16.702,453.744,20,466.256,20s18.008-3.298,25.613-7.862C500.883,6.731,512.1,0,532.92,0
			s32.039,6.73,41.053,12.138C581.578,16.702,587.076,20,599.588,20s18.01-3.298,25.617-7.862C634.219,6.73,645.436,0,666.258,0
			c20.82,0,32.039,6.729,41.053,12.138C714.918,16.702,720.414,20,732.93,20c12.514,0,18.012-3.298,25.619-7.863
			C767.562,6.729,778.779,0,799.602,0v30c-12.514,0-18.01,3.298-25.619,7.862C764.969,43.271,753.752,50,732.93,50z"/>
	</g>
</g>
</svg>
