<?xml version="1.0" encoding="utf-8"?>
<!-- Generator: Adobe Illustrator 16.0.0, SVG Export Plug-In . SVG Version: 6.00 Build 0)  -->
<!DOCTYPE svg PUBLIC "-//W3C//DTD SVG 1.1//EN" "http://www.w3.org/Graphics/SVG/1.1/DTD/svg11.dtd">
<svg version="1.1" id="Camada_1" xmlns="http://www.w3.org/2000/svg" xmlns:xlink="http://www.w3.org/1999/xlink" x="0px" y="0px"
	 width="135px" height="50.25px" viewBox="0 0 135 50.25" enable-background="new 0 0 135 50.25" xml:space="preserve">
<g>
	<rect x="-1" y="25.187" fill="#F7F7F7" width="800" height="25"/>
	<g>
		<path fill="#A8D9E9" d="M732.327,50.062c-20.822,0-32.04-6.729-41.053-12.139c-7.608-4.564-13.105-7.861-25.619-7.861
			s-18.011,3.297-25.618,7.861c-9.013,5.41-20.229,12.139-41.051,12.139c-20.822,0-32.038-6.73-41.052-12.139
			c-7.607-4.564-13.104-7.861-25.616-7.861c-12.512,0-18.008,3.297-25.614,7.861c-9.013,5.408-20.229,12.139-41.05,12.139
			c-20.822,0-32.038-6.73-41.052-12.139c-7.606-4.564-13.103-7.861-25.614-7.861c-12.513,0-18.01,3.297-25.617,7.861
			c-9.012,5.408-20.229,12.139-41.051,12.139c-20.821,0-32.037-6.73-41.051-12.139c-7.606-4.564-13.104-7.861-25.615-7.861
			s-18.008,3.297-25.615,7.861c-9.012,5.408-20.229,12.139-41.051,12.139c-20.82,0-32.037-6.73-41.049-12.139
			c-7.607-4.564-13.104-7.861-25.616-7.861c-12.51,0-18.007,3.297-25.613,7.861c-9.012,5.408-20.229,12.139-41.049,12.139
			c-20.82,0-32.037-6.73-41.048-12.139C17.005,33.359,11.51,30.062-1,30.062v-30c20.82,0,32.036,6.73,41.048,12.138
			c7.606,4.564,13.102,7.862,25.613,7.862c12.511,0,18.007-3.298,25.614-7.862c9.012-5.407,20.228-12.138,41.048-12.138
			c20.821,0,32.038,6.73,41.051,12.138c7.606,4.564,13.104,7.862,25.614,7.862c12.513,0,18.01-3.298,25.617-7.862
			c9.013-5.407,20.229-12.138,41.051-12.138s32.037,6.73,41.05,12.138c7.606,4.564,13.103,7.862,25.614,7.862
			s18.009-3.298,25.617-7.862c9.013-5.407,20.229-12.138,41.051-12.138c20.82,0,32.038,6.73,41.051,12.138
			c7.607,4.564,13.104,7.862,25.615,7.862c12.511,0,18.007-3.298,25.613-7.862c9.014-5.406,20.229-12.138,41.051-12.138
			c20.82,0,32.038,6.73,41.052,12.138c7.606,4.564,13.104,7.862,25.616,7.862c12.512,0,18.009-3.298,25.617-7.862
			c9.013-5.407,20.229-12.138,41.052-12.138c20.821,0,32.04,6.729,41.053,12.138c7.608,4.564,13.104,7.862,25.619,7.862
			s18.012-3.298,25.62-7.863C766.96,6.791,778.178,0.062,799,0.062v30c-12.514,0-18.011,3.297-25.619,7.861
			C764.367,43.334,753.15,50.062,732.327,50.062z"/>
	</g>
</g>
</svg>
