<?xml version="1.0" encoding="utf-8"?>
<!-- Generator: Adobe Illustrator 16.0.0, SVG Export Plug-In . SVG Version: 6.00 Build 0)  -->
<!DOCTYPE svg PUBLIC "-//W3C//DTD SVG 1.1//EN" "http://www.w3.org/Graphics/SVG/1.1/DTD/svg11.dtd">
<svg version="1.1" id="Camada_1" xmlns="http://www.w3.org/2000/svg" xmlns:xlink="http://www.w3.org/1999/xlink" x="0px" y="0px"
	 width="135px" height="50.25px" viewBox="0 0 135 50.25" enable-background="new 0 0 135 50.25" xml:space="preserve">
<g>
	<rect x="-0.588" fill="#FFFFFF" width="783.456" height="24.973"/>
	<g>
		<path fill="#A8D9E9" d="M717.574,49.945c-20.393,0-31.377-6.722-40.203-12.124c-7.453-4.561-12.836-7.854-25.09-7.854
			c-12.256,0-17.639,3.294-25.09,7.854c-8.826,5.402-19.811,12.124-40.201,12.124s-31.375-6.724-40.203-12.124
			c-7.449-4.561-12.832-7.854-25.086-7.854s-17.637,3.294-25.084,7.854c-8.826,5.4-19.811,12.124-40.201,12.124
			c-20.393,0-31.375-6.724-40.203-12.124c-7.449-4.561-12.832-7.854-25.084-7.854c-12.254,0-17.639,3.294-25.088,7.854
			c-8.824,5.4-19.811,12.124-40.201,12.124s-31.375-6.724-40.203-12.124c-7.449-4.561-12.832-7.854-25.086-7.854
			c-12.252,0-17.635,3.294-25.086,7.854c-8.824,5.4-19.809,12.124-40.201,12.124c-20.389,0-31.373-6.724-40.199-12.124
			c-7.449-4.561-12.834-7.854-25.086-7.854s-17.635,3.294-25.084,7.854c-8.824,5.4-19.812,12.124-40.201,12.124
			c-20.389,0-31.374-6.724-40.199-12.124c-7.45-4.561-12.832-7.854-25.083-7.854V0c20.389,0,31.374,6.723,40.199,12.125
			c7.448,4.559,12.831,7.854,25.083,7.854c12.253,0,17.634-3.294,25.085-7.854C98.605,6.723,109.588,0,129.979,0
			s31.375,6.723,40.201,12.125c7.449,4.559,12.834,7.854,25.084,7.854c12.254,0,17.639-3.294,25.088-7.854
			C229.178,6.723,240.162,0,260.553,0c20.393,0,31.375,6.723,40.203,12.125c7.447,4.559,12.83,7.854,25.084,7.854
			c12.252,0,17.635-3.294,25.086-7.854C359.754,6.723,370.738,0,391.129,0c20.389,0,31.375,6.723,40.201,12.125
			c7.449,4.559,12.832,7.854,25.086,7.854c12.252,0,17.635-3.294,25.084-7.854C490.326,6.724,501.311,0,521.701,0
			c20.389,0,31.375,6.723,40.203,12.125c7.449,4.559,12.832,7.854,25.086,7.854s17.637-3.294,25.088-7.854
			C620.904,6.723,631.889,0,652.281,0c20.391,0,31.377,6.721,40.203,12.125c7.451,4.559,12.834,7.854,25.09,7.854
			s17.639-3.294,25.09-7.854C751.49,6.721,762.477,0,782.867,0v29.967c-12.254,0-17.639,3.294-25.09,7.854
			C748.951,43.224,737.967,49.945,717.574,49.945z"/>
	</g>
</g>
</svg>
